<?xml version="1.0" encoding="UTF-8" standalone="no"?>
<!-- Created with Inkscape (http://www.inkscape.org/) -->

<svg
   id="svg1100"
   version="1.1"
   viewBox="0 0 4.2333279 5.2916598"
   height="5.2916598mm"
   width="4.2333279mm"
   xmlns="http://www.w3.org/2000/svg"
   xmlns:svg="http://www.w3.org/2000/svg">
  <defs
     id="defs1097" />
  <g
     id="New_Layer_1652808974.7816088"
     style="display:inline"
     transform="translate(-62.949632,-790.08717)">
    <path
       id="Vector-128"
       d="M 9.22,7 H 4.78 C 4.3,6.47 4,5.77 4,5 4,3.34 5.34,2 7,2 8.66,2 10,3.34 10,5 10,5.77 9.7,6.47 9.22,7 Z M 16,2 c 2.21,0 4,1.79 4,4 V 22 H 18 V 6 C 18,4.9 17.1,4 16,4 14.9,4 14,4.9 14,6 v 12 c 0,2.21 -1.79,4 -4,4 C 7.79,22 6,20.21 6,18 H 5 L 4,8 h 6 L 9,18 H 8 c 0,1.1 0.9,2 2,2 1.1,0 2,-0.9 2,-2 V 6 c 0,-2.21 1.79,-4 4,-4 z"
       fill="#323232"
       transform="matrix(0.264583,0,0,0.264583,61.8913,789.558)" />
  </g>
</svg>
