<?xml version="1.0" encoding="UTF-8" standalone="no"?>
<!-- Created with Inkscape (http://www.inkscape.org/) -->

<svg
   id="svg1100"
   version="1.1"
   viewBox="0 0 5.2916598 4.7624941"
   height="4.7624941mm"
   width="5.2916598mm"
   xmlns="http://www.w3.org/2000/svg"
   xmlns:svg="http://www.w3.org/2000/svg">
  <defs
     id="defs1097" />
  <g
     id="New_Layer_1652808974.7821379"
     style="display:inline"
     transform="translate(-21.171966,-734.16275)">
    <path
       id="Vector-892"
       d="M 20,5 H 16.8 L 15,3 H 9 L 7.2,5 H 4 C 2.9,5 2,5.9 2,7 v 12 c 0,1.1 0.9,2 2,2 h 16 c 1.1,0 2,-0.9 2,-2 V 7 C 22,5.9 21.1,5 20,5 Z m 0,14 H 12 V 18 C 9.2,18 7,15.8 7,13 7,10.2 9.2,8 12,8 V 7 h 8 z M 17,13 C 17,10.2 14.8,8 12,8 v 1.8 c 1.8,0 3.2,1.4 3.2,3.2 0,1.8 -1.4,3.2 -3.2,3.2 V 18 c 2.8,0 5,-2.2 5,-5 z m -8.2,0 c 0,1.8 1.4,3.2 3.2,3.2 V 9.8 c -1.8,0 -3.2,1.4 -3.2,3.2 z"
       fill="#323232"
       transform="matrix(0.264583,0,0,0.264583,20.6428,733.369)" />
  </g>
</svg>
