<?xml version="1.0" encoding="UTF-8" standalone="no"?>
<!-- Created with Inkscape (http://www.inkscape.org/) -->

<svg
   id="svg1100"
   version="1.1"
   viewBox="0 0 5.3207669 5.32341"
   height="5.32341mm"
   width="5.3207669mm"
   xmlns="http://www.w3.org/2000/svg"
   xmlns:svg="http://www.w3.org/2000/svg">
  <defs
     id="defs1097" />
  <g
     id="New_Layer_1652808974.7826757"
     style="display:inline"
     transform="translate(-181.23303,-715.08517)">
    <path
       id="Vector-888"
       d="M 20.8399,20.84 3.15989,3.16 l -1.27,1.27 1.89,1.89 c -1.12,1.61 -1.78,3.57 -1.78,5.68 0,5.52 4.48,10 10.00001,10 2.11,0 4.07,-0.66 5.68,-1.77 l 1.89,1.89 z M 11.9999,20 c -4.41001,0 -8.00001,-3.59 -8.00001,-8 0,-1.55 0.45,-3 1.22,-4.23 l 1.46,1.46 c -0.43,0.83 -0.68,1.77 -0.68,2.77 0,3.31 2.69,6 6.00001,6 1,0 1.94,-0.25 2.77,-0.68 l 1.46,1.46 c -1.23,0.77 -2.68,1.22 -4.23,1.22 z M 6.31989,3.77 C 7.92989,2.66 9.88989,2 11.9999,2 c 5.52,0 10,4.48 10,10 0,2.11 -0.66,4.07 -1.77,5.68 l -1.45,-1.45 c 0.77,-1.23 1.22,-2.68 1.22,-4.23 0,-4.41 -3.59,-8 -8,-8 -1.55,0 -3.00001,0.45 -4.23001,1.22 z M 17.9999,12 c 0,1 -0.25,1.94 -0.68,2.77 L 9.22989,6.68 C 10.0599,6.25 10.9999,6 11.9999,6 c 3.31,0 6,2.69 6,6 z"
       fill="#323232"
       transform="matrix(0.264583,0,0,0.264583,180.733,714.556)" />
  </g>
</svg>
