<?xml version="1.0" encoding="UTF-8" standalone="no"?>
<!-- Created with Inkscape (http://www.inkscape.org/) -->

<svg
   id="svg1100"
   version="1.1"
   viewBox="0 0 5.2916598 5.2916598"
   height="5.2916598mm"
   width="5.2916598mm"
   xmlns="http://www.w3.org/2000/svg"
   xmlns:svg="http://www.w3.org/2000/svg">
  <defs
     id="defs1097" />
  <g
     id="New_Layer_1652808974.7837594"
     style="display:inline"
     transform="translate(-92.567166,-743.47317)">
    <path
       id="Vector-833"
       d="M 22,12 C 22,17.52 17.52,22 12,22 6.48,22 2,17.52 2,12 2,10.81 2.22,9.68 2.6,8.62 L 4.48,9.3 C 4.17,10.14 4,11.05 4,12 c 0,4.41 3.59,8 8,8 4.41,0 8,-3.59 8,-8 C 20,7.59 16.41,4 12,4 11.05,4 10.15,4.17 9.31,4.48 L 8.63,2.59 C 9.69,2.22 10.82,2 12,2 17.52,2 22,6.48 22,12 Z M 5.5,4 C 4.67,4 4,4.67 4,5.5 4,6.33 4.67,7 5.5,7 6.33,7 7,6.33 7,5.5 7,4.67 6.33,4 5.5,4 Z M 18,12 c 0,3.31 -2.69,6 -6,6 -3.31,0 -6,-2.69 -6,-6 0,-3.31 2.69,-6 6,-6 3.31,0 6,2.69 6,6 z M 11,9 H 9 v 6 h 2 z m 4,0 h -2 v 6 h 2 z"
       fill="#323232"
       transform="matrix(0.264583,0,0,0.264583,92.038,742.944)" />
  </g>
</svg>
