<?xml version="1.0" encoding="UTF-8" standalone="no"?>
<!-- Created with Inkscape (http://www.inkscape.org/) -->

<svg
   id="svg1100"
   version="1.1"
   viewBox="0 0 5.2916598 4.2333278"
   height="4.2333279mm"
   width="5.2916598mm"
   xmlns="http://www.w3.org/2000/svg"
   xmlns:svg="http://www.w3.org/2000/svg">
  <defs
     id="defs1097" />
  <g
     id="New_Layer_1652808974.7854388"
     style="display:inline"
     transform="translate(-102.52117,-725.16133)">
    <path
       id="Vector-906"
       d="m 18,4 2,3 H 17 L 15,4 h -2 l 2,3 H 12 L 10,4 H 8 l 2,3 H 7 L 5,4 H 4 C 2.9,4 2.01,4.9 2.01,6 L 2,18 c 0,1.1 0.9,2 2,2 h 16 c 1.1,0 2,-0.9 2,-2 V 4 Z M 11.25,15.25 10,18 8.75,15.25 6,14 8.75,12.75 10,10 11.25,12.75 14,14 Z M 16.94,11.94 16,14 15.06,11.94 13,11 15.06,10.06 16,8 16.94,10.06 19,11 Z"
       fill="#323232"
       transform="matrix(0.264583,0,0,0.264583,101.992,724.103)" />
  </g>
</svg>
