<?xml version="1.0" encoding="UTF-8" standalone="no"?>
<!-- Created with Inkscape (http://www.inkscape.org/) -->

<svg
   id="svg1100"
   version="1.1"
   viewBox="0 0 4.7624941 4.7624941"
   height="4.7624941mm"
   width="4.7624941mm"
   xmlns="http://www.w3.org/2000/svg"
   xmlns:svg="http://www.w3.org/2000/svg">
  <defs
     id="defs1097" />
  <g
     id="New_Layer_1652808974.7859657"
     style="display:inline"
     transform="translate(-171.72275,-762.30575)">
    <path
       id="Vector-879"
       d="M 19,3 H 5 C 3.9,3 3,3.9 3,5 v 14 c 0,1.1 0.9,2 2,2 h 14 c 1.1,0 2,-0.9 2,-2 V 5 C 21,3.9 20.1,3 19,3 Z M 6.5,9 H 11 c 0.55,0 1,0.45 1,1 v 5 h -1.5 v -4.5 h -1 v 3 H 8 v -3 H 7 V 15 H 5.5 v -5 c 0,-0.55 0.45,-1 1,-1 z m 9,6 H 14 V 9 h 3.5 c 0.55,0 1,0.45 1,1 v 2.5 c 0,0.55 -0.45,1 -1,1 h -2 z m 0,-3 H 17 v -1.5 h -1.5 z"
       fill="#323232"
       transform="matrix(0.264583,0,0,0.264583,170.929,761.512)" />
  </g>
</svg>
