<?xml version="1.0" encoding="UTF-8" standalone="no"?>
<!-- Created with Inkscape (http://www.inkscape.org/) -->

<svg
   id="svg1100"
   version="1.1"
   viewBox="0 0 5.3366389 5.2466702"
   height="5.2466702mm"
   width="5.3366389mm"
   xmlns="http://www.w3.org/2000/svg"
   xmlns:svg="http://www.w3.org/2000/svg">
  <defs
     id="defs1097" />
  <g
     id="New_Layer_1652808974.7881107"
     style="display:inline"
     transform="translate(-171.43517,-715.12316)">
    <path
       id="Vector-526"
       d="m 22.17,9.17004 c 0,-3.87 -3.13,-7 -7,-7 -3.87,0 -7,3.13 -7,7 C 8.17,12.64 10.69,15.51 14,16.06 V 20 H 6 V 17 H 7 V 13 C 7,12.45 6.55,12 6,12 H 3 c -0.55,0 -1,0.45 -1,1 v 4 h 1 v 5 h 16 v -2 h -3 v -3.88 c 3.47,-0.41 6.17,-3.36 6.17,-6.94996 z M 4.5,11 C 5.33,11 6,10.33 6,9.50004 c 0,-0.83 -0.67,-1.5 -1.5,-1.5 -0.83,0 -1.5,0.67 -1.5,1.5 C 3,10.33 3.67,11 4.5,11 Z"
       fill="#323232"
       transform="matrix(0.264583,0,0,0.264583,170.906,714.549)" />
  </g>
</svg>
