<?xml version="1.0" encoding="UTF-8" standalone="no"?>
<!-- Created with Inkscape (http://www.inkscape.org/) -->

<svg
   id="svg1100"
   version="1.1"
   viewBox="0 0 5.2916598 4.2333278"
   height="4.2333279mm"
   width="5.2916598mm"
   xmlns="http://www.w3.org/2000/svg"
   xmlns:svg="http://www.w3.org/2000/svg">
  <defs
     id="defs1097" />
  <g
     id="New_Layer_1652808974.7913184"
     style="display:inline"
     transform="translate(-72.580466,-725.16133)">
    <path
       id="Vector-624"
       d="m 20,6.54 v 10.91 c -2.6,-0.77 -5.28,-1.16 -8,-1.16 -2.72,0 -5.4,0.39 -8,1.16 V 6.54 C 6.6,7.31 9.28,7.7 12,7.7 14.72,7.71 17.4,7.32 20,6.54 Z M 21.43,4 C 21.33,4 21.23,4.02 21.12,4.06 18.18,5.16 15.09,5.7 12,5.7 8.91,5.7 5.82,5.15 2.88,4.06 2.77,4.02 2.66,4 2.57,4 2.23,4 2,4.23 2,4.63 V 19.38 C 2,19.77 2.23,20 2.57,20 c 0.1,0 0.2,-0.02 0.31,-0.06 2.94,-1.1 6.03,-1.64 9.12,-1.64 3.09,0 6.18,0.55 9.12,1.64 C 21.23,19.98 21.33,20 21.43,20 21.76,20 22,19.77 22,19.37 V 4.63 C 22,4.23 21.76,4 21.43,4 Z"
       fill="#323232"
       transform="matrix(0.264583,0,0,0.264583,72.0513,724.103)" />
  </g>
</svg>
