<?xml version="1.0" encoding="UTF-8" standalone="no"?>
<!-- Created with Inkscape (http://www.inkscape.org/) -->

<svg
   id="svg1100"
   version="1.1"
   viewBox="0 0 4.7624941 5.2916598"
   height="5.2916598mm"
   width="4.7624941mm"
   xmlns="http://www.w3.org/2000/svg"
   xmlns:svg="http://www.w3.org/2000/svg">
  <defs
     id="defs1097" />
  <g
     id="New_Layer_1652806959.0290122"
     style="display:inline"
     transform="translate(-31.750049,-78.066583)">
    <path
       fill="#323232"
       d="M 19,3 H 14.82 C 14.4,1.84 13.3,1 12,1 10.7,1 9.6,1.84 9.18,3 H 5 C 3.9,3 3,3.9 3,5 v 14 c 0,1.1 0.9,2 2,2 h 14 c 1.1,0 2,-0.9 2,-2 V 5 C 21,3.9 20.1,3 19,3 Z m -7,0 c 0.55,0 1,0.45 1,1 0,0.55 -0.45,1 -1,1 C 11.45,5 11,4.55 11,4 11,3.45 11.45,3 12,3 Z M 10,17 6,13 7.41,11.59 10,14.17 16.59,7.58 18,9 Z"
       id="path1579"
       transform="matrix(0.264583,0,0,0.264583,30.9563,77.802)" />
  </g>
</svg>
