<?xml version="1.0" encoding="UTF-8" standalone="no"?>
<!-- Created with Inkscape (http://www.inkscape.org/) -->

<svg
   id="svg1100"
   version="1.1"
   viewBox="0 0 5.8208261 5.2913294"
   height="5.2913294mm"
   width="5.8208261mm"
   xmlns="http://www.w3.org/2000/svg"
   xmlns:svg="http://www.w3.org/2000/svg">
  <defs
     id="defs1097" />
  <g
     id="New_Layer_1652808974.792932"
     style="display:inline"
     transform="translate(-62.155883,-705.31117)">
    <path
       id="Vector-830"
       d="M 22.49,8.51 C 22.02,8.28 21.56,8.07 21.09,7.87 19.52,4.41 16.05,2 12,2 7.95,2 4.47,4.41 2.9,7.88 2.43,8.08 1.97,8.29 1.5,8.51 1.19,8.66 1,8.99 1,9.34 v 5.32 c 0,0.35 0.19,0.68 0.51,0.83 0.47,0.23 0.93,0.44 1.39,0.64 3.55,7.83 14.65,7.82 18.2,0 0.47,-0.2 0.93,-0.41 1.39,-0.63 C 22.8,15.33 23,15.01 23,14.66 V 9.34 C 23,8.99 22.81,8.66 22.49,8.51 Z M 12,3.8 c 2.6,0 4.91,1.23 6.41,3.12 C 14.31,5.73 9.93,5.66 5.58,6.93 7.08,5.03 9.4,3.8 12,3.8 Z M 5.6,17.08 c 4.19,1.22 8.57,1.23 12.82,-0.01 -1.54,1.97 -3.9,3.13 -6.41,3.13 -2.5,0 -4.87,-1.15 -6.41,-3.12 z"
       fill="#323232"
       transform="matrix(0.264583,0,0,0.264583,61.8913,704.782)" />
  </g>
</svg>
