<?xml version="1.0" encoding="UTF-8" standalone="no"?>
<!-- Created with Inkscape (http://www.inkscape.org/) -->

<svg
   id="svg1100"
   version="1.1"
   viewBox="0 0 4.2359738 5.2916598"
   height="5.2916598mm"
   width="4.2359738mm"
   xmlns="http://www.w3.org/2000/svg"
   xmlns:svg="http://www.w3.org/2000/svg">
  <defs
     id="defs1097" />
  <g
     id="New_Layer_1652808974.7935264"
     style="display:inline"
     transform="translate(-32.018532,-790.08717)">
    <path
       id="Vector-1789"
       d="M 19.94,21.12 C 18.84,18.18 18.3,15.09 18.3,12 18.3,8.91 18.85,5.82 19.94,2.88 19.98,2.77 20,2.66 20,2.57 20,2.23 19.77,2 19.37,2 H 4.63 C 4.23,2 4,2.23 4,2.57 c 0,0.1 0.02,0.2 0.06,0.31 1.1,2.94 1.65,6.03 1.65,9.12 0,3.09 -0.55,6.18 -1.64,9.12 C 4.02,21.23 4,21.34 4,21.43 4,21.76 4.23,22 4.63,22 h 14.75 c 0.39,0 0.63,-0.24 0.63,-0.57 -0.01,-0.1 -0.03,-0.2 -0.07,-0.31 z M 6.54,20 C 7.31,17.4 7.7,14.72 7.7,12 7.7,9.28 7.31,6.6 6.54,4 h 10.91 c -0.77,2.6 -1.16,5.28 -1.16,8 0,2.72 0.39,5.4 1.16,8 z"
       fill="#323232"
       transform="matrix(0.264583,0,0,0.264583,30.9602,789.558)" />
  </g>
</svg>
