<?xml version="1.0" encoding="UTF-8" standalone="no"?>
<!-- Created with Inkscape (http://www.inkscape.org/) -->

<svg
   id="svg1100"
   version="1.1"
   viewBox="0 0 4.2359767 5.2916598"
   height="5.2916598mm"
   width="4.2359767mm"
   xmlns="http://www.w3.org/2000/svg"
   xmlns:svg="http://www.w3.org/2000/svg">
  <defs
     id="defs1097" />
  <g
     id="New_Layer_1652808974.7941835"
     style="display:inline"
     transform="translate(-42.337284,-790.08717)">
    <path
       id="Vector-154"
       d="M 19.93,21.12 C 18.83,18.18 18.29,15.09 18.29,12 18.29,8.91 18.84,5.82 19.93,2.88 19.98,2.77 20,2.66 20,2.57 20,2.23 19.76,2 19.36,2 H 4.61999 c -0.4,0 -0.63,0.23 -0.63,0.57 0,0.1 0.02,0.2 0.06,0.31 1.11,2.94 1.65,6.03 1.65,9.12 0,3.09 -0.55,6.18 -1.64,9.12 -0.05,0.11 -0.07,0.22 -0.07,0.31 0,0.33 0.23,0.57 0.63,0.57 H 19.37 c 0.39,0 0.63,-0.24 0.63,-0.57 0,-0.1 -0.02,-0.2 -0.07,-0.31 z"
       fill="#323232"
       transform="matrix(0.264583,0,0,0.264583,41.2816,789.558)" />
  </g>
</svg>
