<?xml version="1.0" encoding="UTF-8" standalone="no"?>
<!-- Created with Inkscape (http://www.inkscape.org/) -->

<svg
   id="svg1100"
   version="1.1"
   viewBox="0 0 5.2916598 4.2333278"
   height="4.2333279mm"
   width="5.2916598mm"
   xmlns="http://www.w3.org/2000/svg"
   xmlns:svg="http://www.w3.org/2000/svg">
  <defs
     id="defs1097" />
  <g
     id="New_Layer_1652808974.7952614"
     style="display:inline"
     transform="translate(-132.29917,-725.16133)">
    <path
       id="Vector-749"
       d="M 12,4 C 9.27,4 6.78,4.24 4.05,4.72 L 3.12,4.88 2.87,5.78 C 2.29,7.85 2,9.93 2,12 c 0,2.07 0.29,4.15 0.87,6.22 l 0.25,0.89 0.93,0.16 C 6.78,19.76 9.27,20 12,20 c 2.73,0 5.22,-0.24 7.95,-0.72 l 0.93,-0.16 0.25,-0.89 C 21.71,16.15 22,14.07 22,12 22,9.93 21.71,7.85 21.13,5.78 L 20.88,4.89 19.95,4.73 C 17.22,4.24 14.73,4 12,4 Z"
       fill="#323232"
       transform="matrix(0.264583,0,0,0.264583,131.77,724.103)" />
  </g>
</svg>
