<?xml version="1.0" encoding="UTF-8" standalone="no"?>
<!-- Created with Inkscape (http://www.inkscape.org/) -->

<svg
   id="svg1100"
   version="1.1"
   viewBox="0 0 5.2916598 4.7624941"
   height="4.7624941mm"
   width="5.2916598mm"
   xmlns="http://www.w3.org/2000/svg"
   xmlns:svg="http://www.w3.org/2000/svg">
  <defs
     id="defs1097" />
  <g
     id="New_Layer_1652808974.7968826"
     style="display:inline"
     transform="translate(-181.24717,-724.89617)">
    <g
       id="photo_camera"
       transform="matrix(0.264583,0,0,0.264583,180.718,724.367)">
      <path
         id="Vector-708"
         d="m 12,15.2 c 1.7674,0 3.2,-1.4326 3.2,-3.2 0,-1.7673 -1.4326,-3.19995 -3.2,-3.19995 -1.7673,0 -3.19995,1.43265 -3.19995,3.19995 0,1.7674 1.43265,3.2 3.19995,3.2 z"
         fill="#323232" />
      <path
         id="Vector_2-19"
         d="M 9,2 7.17,4 H 4 C 2.9,4 2,4.9 2,6 v 12 c 0,1.1 0.9,2 2,2 h 16 c 1.1,0 2,-0.9 2,-2 V 6 C 22,4.9 21.1,4 20,4 H 16.83 L 15,2 Z m 3,15 C 9.24,17 7,14.76 7,12 7,9.24 9.24,7 12,7 c 2.76,0 5,2.24 5,5 0,2.76 -2.24,5 -5,5 z"
         fill="#323232" />
    </g>
  </g>
</svg>
