<?xml version="1.0" encoding="UTF-8" standalone="no"?>
<!-- Created with Inkscape (http://www.inkscape.org/) -->

<svg
   id="svg1100"
   version="1.1"
   viewBox="0 0 4.2333279 5.820826"
   height="5.8208261mm"
   width="4.2333279mm"
   xmlns="http://www.w3.org/2000/svg"
   xmlns:svg="http://www.w3.org/2000/svg">
  <defs
     id="defs1097" />
  <g
     id="New_Layer_1652806959.0296483"
     style="display:inline"
     transform="translate(-42.333332,-77.801983)">
    <path
       fill="#323232"
       d="M 12,6 V 9 L 16,5 12,1 v 3 c -4.42,0 -8,3.58 -8,8 0,1.57 0.46,3.03 1.24,4.26 L 6.7,14.8 A 5.87,5.87 0 0 1 6,12 C 6,8.69 8.69,6 12,6 Z M 18.76,7.74 17.3,9.2 c 0.44,0.84 0.7,1.79 0.7,2.8 0,3.31 -2.69,6 -6,6 v -3 l -4,4 4,4 v -3 c 4.42,0 8,-3.58 8,-8 0,-1.57 -0.46,-3.03 -1.24,-4.26 z"
       id="path1590"
       transform="matrix(0.264583,0,0,0.264583,41.275,77.5374)" />
  </g>
</svg>
