<?xml version="1.0" encoding="UTF-8" standalone="no"?>
<!-- Created with Inkscape (http://www.inkscape.org/) -->

<svg
   id="svg1100"
   version="1.1"
   viewBox="0 0 5.2916598 4.2333278"
   height="4.2333279mm"
   width="5.2916598mm"
   xmlns="http://www.w3.org/2000/svg"
   xmlns:svg="http://www.w3.org/2000/svg">
  <defs
     id="defs1097" />
  <g
     id="New_Layer_1652808974.7979565"
     style="display:inline"
     transform="translate(-92.567166,-725.16133)">
    <path
       id="Vector-253"
       d="M 18,10.48 22,6.5 v 11 L 18,13.52 V 18 c 0,1.1 -0.9,2 -2,2 H 4 C 2.9,20 2,19.1 2,18 V 6 C 2,4.9 2.9,4 4,4 h 12 c 1.1,0 2,0.9 2,2 z M 16,9.69 V 6 H 4 V 18 H 16 Z M 10,12 C 8.9,12 8,11.1 8,10 8,8.9 8.9,8 10,8 c 1.1,0 2,0.9 2,2 0,1.1 -0.9,2 -2,2 z m 0,1 c 1.34,0 4,0.67 4,2 v 1 H 6 v -1 c 0,-1.33 2.66,-2 4,-2 z"
       fill="#323232"
       transform="matrix(0.264583,0,0,0.264583,92.038,724.103)" />
  </g>
</svg>
