<?xml version="1.0" encoding="UTF-8" standalone="no"?>
<!-- Created with Inkscape (http://www.inkscape.org/) -->

<svg
   id="svg1100"
   version="1.1"
   viewBox="0 0 4.7624888 4.7624941"
   height="4.7624941mm"
   width="4.7624888mm"
   xmlns="http://www.w3.org/2000/svg"
   xmlns:svg="http://www.w3.org/2000/svg">
  <defs
     id="defs1097" />
  <g
     id="New_Layer_1652808974.7985113"
     style="display:inline"
     transform="translate(-171.72205,-780.82675)">
    <path
       id="Vector-490"
       d="m 19.02,10 v 9 H 5.00002 V 5 H 14 V 3 H 5.02002 c -1.1,0 -2,0.9 -2,2 v 14 c 0,1.1 0.9,2 2,2 H 19.02 c 1.1,0 2,-0.9 2,-2 V 10 Z M 17,10 17.94,7.94 20,7 17.94,6.06 17,4 16.06,6.06 14,7 16.06,7.94 Z M 13.25,10.75 12,8 10.75,10.75 8.00002,12 10.75,13.25 12,16 13.25,13.25 16,12 Z"
       fill="#323232"
       transform="matrix(0.264583,0,0,0.264583,170.923,780.033)" />
  </g>
</svg>
