<?xml version="1.0" encoding="UTF-8" standalone="no"?>
<!-- Created with Inkscape (http://www.inkscape.org/) -->

<svg
   id="svg1100"
   version="1.1"
   viewBox="0 0 5.8208261 4.7624941"
   height="4.7624941mm"
   width="5.8208261mm"
   xmlns="http://www.w3.org/2000/svg"
   xmlns:svg="http://www.w3.org/2000/svg">
  <defs
     id="defs1097" />
  <g
     id="New_Layer_1652808974.800125"
     style="display:inline"
     transform="translate(-180.98258,-695.52175)">
    <path
       id="Vector-207"
       d="m 21,15 h 2 v 2 h -2 z m 0,-4 h 2 v 2 h -2 z m 2,8 h -2 v 2 c 1,0 2,-1 2,-2 z M 13,3 h 2 v 2 h -2 z m 8,4 h 2 v 2 h -2 z m 0,-4 v 2 h 2 C 23,4 22,3 21,3 Z M 1,7 H 3 V 9 H 1 Z M 17,3 h 2 v 2 h -2 z m 0,16 h 2 v 2 H 17 Z M 3,3 C 2,3 1,4 1,5 h 2 z m 6,0 h 2 V 5 H 9 Z M 5,3 H 7 V 5 H 5 Z m -4,8 v 8 c 0,1.1 0.9,2 2,2 H 15 V 11 Z m 2,8 2.5,-3.21 1.79,2.15 2.5,-3.22 L 13,19 Z"
       fill="#323232"
       transform="matrix(0.264583,0,0,0.264583,180.718,694.728)" />
  </g>
</svg>
