<?xml version="1.0" encoding="UTF-8" standalone="no"?>
<!-- Created with Inkscape (http://www.inkscape.org/) -->

<svg
   id="svg1100"
   version="1.1"
   viewBox="0 0 5.8208261 4.7624941"
   height="4.7624941mm"
   width="5.8208261mm"
   xmlns="http://www.w3.org/2000/svg"
   xmlns:svg="http://www.w3.org/2000/svg">
  <defs
     id="defs1097" />
  <g
     id="New_Layer_1652808974.8006654"
     style="display:inline"
     transform="translate(-92.302583,-705.57575)">
    <path
       id="Vector-311"
       d="m 23,15 h -2 v 2 h 2 z m 0,-4 h -2 v 2 h 2 z m 0,8 h -2 v 2 c 1,0 2,-1 2,-2 z M 15,3 h -2 v 2 h 2 z m 8,4 h -2 v 2 h 2 z M 21,3 v 2 h 2 C 23,4 22,3 21,3 Z M 3,21 h 8 V 15 H 1 v 4 c 0,1.1 0.9,2 2,2 z M 3,7 H 1 v 2 h 2 z m 12,12 h -2 v 2 h 2 z M 19,3 h -2 v 2 h 2 z m 0,16 h -2 v 2 h 2 z M 3,3 C 2,3 1,4 1,5 h 2 z m 0,8 H 1 v 2 H 3 Z M 11,3 H 9 v 2 h 2 z M 7,3 H 5 v 2 h 2 z"
       fill="#323232"
       transform="matrix(0.264583,0,0,0.264583,92.038,704.782)" />
  </g>
</svg>
