<?xml version="1.0" encoding="UTF-8" standalone="no"?>
<!-- Created with Inkscape (http://www.inkscape.org/) -->

<svg
   id="svg1100"
   version="1.1"
   viewBox="0 0 5.2916598 5.2916598"
   height="5.2916598mm"
   width="5.2916598mm"
   xmlns="http://www.w3.org/2000/svg"
   xmlns:svg="http://www.w3.org/2000/svg">
  <defs
     id="defs1097" />
  <g
     id="New_Layer_1652808974.8011956"
     style="display:inline"
     transform="translate(-52.128166,-743.47317)">
    <path
       id="Vector-905"
       d="M 20,2 H 8 C 6.9,2 6,2.9 6,4 v 12 c 0,1.1 0.9,2 2,2 h 12 c 1.1,0 2,-0.9 2,-2 V 4 C 22,2.9 21.1,2 20,2 Z M 11.5,9.5 C 11.5,10.33 10.83,11 10,11 H 9 v 2 H 7.5 V 7 H 10 c 0.83,0 1.5,0.67 1.5,1.5 z m 5,2 C 16.5,12.33 15.83,13 15,13 H 12.5 V 7 H 15 c 0.83,0 1.5,0.67 1.5,1.5 z m 4,-3 H 19 v 1 h 1.5 V 11 H 19 v 2 H 17.5 V 7 h 3 z M 9,9.5 h 1 v -1 H 9 Z M 4,6 H 2 v 14 c 0,1.1 0.9,2 2,2 H 18 V 20 H 4 Z m 10,5.5 h 1 v -3 h -1 z"
       fill="#323232"
       transform="matrix(0.264583,0,0,0.264583,51.599,742.944)" />
  </g>
</svg>
