<?xml version="1.0" encoding="UTF-8" standalone="no"?>
<!-- Created with Inkscape (http://www.inkscape.org/) -->

<svg
   id="svg1100"
   version="1.1"
   viewBox="0 0 4.7624941 4.7624941"
   height="4.7624941mm"
   width="4.7624941mm"
   xmlns="http://www.w3.org/2000/svg"
   xmlns:svg="http://www.w3.org/2000/svg">
  <defs
     id="defs1097" />
  <g
     id="New_Layer_1652808974.8017313"
     style="display:inline"
     transform="translate(-52.392749,-771.56575)">
    <path
       id="Vector-67"
       d="m 12,12.25 c 1.24,0 2.25,-1.01 2.25,-2.25 0,-1.24 -1.01,-2.25 -2.25,-2.25 -1.24,0 -2.25,1.01 -2.25,2.25 0,1.24 1.01,2.25 2.25,2.25 z m 4.5,4 C 16.5,14.75 13.5,14 12,14 10.5,14 7.5,14.75 7.5,16.25 V 17 h 9 z M 19,3 H 5 C 3.9,3 3,3.9 3,5 v 14 c 0,1.1 0.9,2 2,2 h 14 c 1.1,0 2,-0.9 2,-2 V 5 C 21,3.9 20.1,3 19,3 Z m 0,16 H 5 V 5 h 14 z"
       fill="#323232"
       transform="matrix(0.264583,0,0,0.264583,51.599,770.772)" />
  </g>
</svg>
