<?xml version="1.0" encoding="UTF-8" standalone="no"?>
<!-- Created with Inkscape (http://www.inkscape.org/) -->

<svg
   id="svg1100"
   version="1.1"
   viewBox="0 0 4.7624941 5.2916598"
   height="5.2916598mm"
   width="4.7624941mm"
   xmlns="http://www.w3.org/2000/svg"
   xmlns:svg="http://www.w3.org/2000/svg">
  <defs
     id="defs1097" />
  <g
     id="New_Layer_1652808974.8022668"
     style="display:inline"
     transform="translate(-82.863549,-771.30117)">
    <g
       id="Group"
       transform="matrix(0.264583,0,0,0.264583,82.0698,770.772)">
      <path
         id="Vector-740"
         d="M 19.5,3.5 18,2 16.5,3.5 15,2 13.5,3.5 12,2 10.5,3.5 9,2 7.5,3.5 6,2 V 16 H 3 v 3 c 0,1.66 1.34,3 3,3 h 12 c 1.66,0 3,-1.34 3,-3 V 2 Z M 19,19 c 0,0.55 -0.45,1 -1,1 -0.55,0 -1,-0.45 -1,-1 V 16 H 8 V 5 h 11 z"
         fill="#323232" />
      <path
         id="Vector_2-64"
         d="M 15,7 H 9 v 2 h 6 z"
         fill="#323232" />
      <path
         id="Vector_3-7"
         d="m 18,7 h -2 v 2 h 2 z"
         fill="#323232" />
      <path
         id="Vector_4-4"
         d="M 15,10 H 9 v 2 h 6 z"
         fill="#323232" />
      <path
         id="Vector_5"
         d="m 18,10 h -2 v 2 h 2 z"
         fill="#323232" />
    </g>
  </g>
</svg>
