<?xml version="1.0" encoding="UTF-8" standalone="no"?>
<!-- Created with Inkscape (http://www.inkscape.org/) -->

<svg
   id="svg1100"
   version="1.1"
   viewBox="0 0 5.5932827 5.6197405"
   height="5.6197405mm"
   width="5.5932827mm"
   xmlns="http://www.w3.org/2000/svg"
   xmlns:svg="http://www.w3.org/2000/svg">
  <defs
     id="defs1097" />
  <g
     id="New_Layer_1652808974.803336"
     style="display:inline"
     transform="translate(-92.41627,-714.93709)">
    <path
       id="Vector-260"
       d="M 7.34011,6.41001 0.860107,12.9 7.35011,19.38 13.8401,12.9 Z M 3.69011,12.9 7.35011,9.24001 11.0001,12.9 7.34011,16.56 Z M 19.3601,6.64001 c -1.75,-1.76 -4.06,-2.64 -6.36,-2.64 v -3.24 l -4.23999,4.24 4.23999,4.24 v -3.24 c 1.79,0 3.58,0.68 4.95,2.05 2.73,2.72999 2.73,7.16999 0,9.89999 -1.37,1.37 -3.16,2.05 -4.95,2.05 -0.97,0 -1.94,-0.21 -2.84,-0.61 L 8.67011,20.88 C 10.0201,21.62 11.5101,22 13.0001,22 c 2.3,0 4.61,-0.88 6.36,-2.64 3.52,-3.51 3.52,-9.21 0,-12.71999 z"
       fill="#323232"
       transform="matrix(0.264583,0,0,0.264583,92.1887,714.736)" />
  </g>
</svg>
