<?xml version="1.0" encoding="UTF-8" standalone="no"?>
<!-- Created with Inkscape (http://www.inkscape.org/) -->

<svg
   id="svg1100"
   version="1.1"
   viewBox="0 0 4.2148151 5.0085563"
   height="5.0085564mm"
   width="4.2148151mm"
   xmlns="http://www.w3.org/2000/svg"
   xmlns:svg="http://www.w3.org/2000/svg">
  <defs
     id="defs1097" />
  <g
     id="New_Layer_1652808974.8038785"
     style="display:inline"
     transform="translate(-103.05887,-790.22858)">
    <path
       id="Vector-66"
       d="m 7.11007,8.53 -1.41,-1.42 c -0.9,1.16 -1.46,2.5 -1.63,3.89 h 2.02 c 0.14,-0.87 0.49,-1.72 1.02,-2.47 z m -1.02,4.47 h -2.02 c 0.17,1.39 0.72,2.73 1.62,3.89 l 1.41,-1.42 c -0.52,-0.75 -0.87,-1.59 -1.01,-2.47 z m 1.01,5.32 c 1.16,0.9 2.51,1.44 3.90003,1.61 V 17.9 C 10.1301,17.75 9.29007,17.41 8.54007,16.87 Z M 13.0001,4.07 V 1 L 8.45007,5.55 13.0001,10 V 6.09 c 2.84,0.48 5,2.94 5,5.91 0,2.97 -2.16,5.43 -5,5.91 v 2.02 c 3.95,-0.49 7,-3.85 7,-7.93 0,-4.08 -3.05,-7.44 -7,-7.93 z"
       fill="#323232"
       transform="matrix(0.264583,0,0,0.264583,101.982,789.964)" />
  </g>
</svg>
