<?xml version="1.0" encoding="UTF-8" standalone="no"?>
<!-- Created with Inkscape (http://www.inkscape.org/) -->

<svg
   id="svg1100"
   version="1.1"
   viewBox="0 0 4.214807 5.0085563"
   height="5.0085564mm"
   width="4.214807mm"
   xmlns="http://www.w3.org/2000/svg"
   xmlns:svg="http://www.w3.org/2000/svg">
  <defs
     id="defs1097" />
  <g
     id="New_Layer_1652808974.8044083"
     style="display:inline"
     transform="translate(-113.01233,-790.22858)">
    <path
       id="Vector-462"
       d="M 15.55,5.55 11,1 V 4.07 C 7.06,4.56 4,7.92 4,12 c 0,4.08 3.05,7.44 7,7.93 V 17.91 C 8.16,17.43 6,14.97 6,12 6,9.03 8.16,6.57 11,6.09 V 10 Z M 19.93,11 C 19.76,9.61 19.21,8.27 18.31,7.11 l -1.42,1.42 c 0.54,0.75 0.88,1.6 1.02,2.47 z M 13,17.9 v 2.02 c 1.39,-0.17 2.74,-0.71 3.9,-1.61 L 15.46,16.87 C 14.71,17.41 13.87,17.76 13,17.9 Z m 3.89,-2.42 1.42,1.41 c 0.9,-1.16 1.45,-2.5 1.62,-3.89 h -2.02 c -0.14,0.87 -0.48,1.72 -1.02,2.48 z"
       fill="#323232"
       transform="matrix(0.264583,0,0,0.264583,111.954,789.964)" />
  </g>
</svg>
