<?xml version="1.0" encoding="UTF-8" standalone="no"?>
<!-- Created with Inkscape (http://www.inkscape.org/) -->

<svg
   id="svg1100"
   version="1.1"
   viewBox="0 0 5.8208261 3.1749959"
   height="3.1749959mm"
   width="5.8208261mm"
   xmlns="http://www.w3.org/2000/svg"
   xmlns:svg="http://www.w3.org/2000/svg">
  <defs
     id="defs1097" />
  <g
     id="New_Layer_1652808974.8060079"
     style="display:inline"
     transform="translate(-151.61458,-696.3155)">
    <path
       id="Vector-101"
       d="M 21,6 H 3 C 1.9,6 1,6.9 1,8 v 8 c 0,1.1 0.9,2 2,2 h 18 c 1.1,0 2,-0.9 2,-2 V 8 C 23,6.9 22.1,6 21,6 Z m 0,10 H 3 V 8 h 2 v 4 H 7 V 8 h 2 v 4 h 2 V 8 h 2 v 4 h 2 V 8 h 2 v 4 h 2 V 8 h 2 z"
       fill="#323232"
       transform="matrix(0.264583,0,0,0.264583,151.35,694.728)" />
  </g>
</svg>
