<?xml version="1.0" encoding="UTF-8" standalone="no"?>
<!-- Created with Inkscape (http://www.inkscape.org/) -->

<svg
   id="svg1100"
   version="1.1"
   viewBox="0 0 5.5259118 5.0270772"
   height="5.0270772mm"
   width="5.5259118mm"
   xmlns="http://www.w3.org/2000/svg"
   xmlns:svg="http://www.w3.org/2000/svg">
  <defs
     id="defs1097" />
  <g
     id="New_Layer_1652808974.8065417"
     style="display:inline"
     transform="translate(-141.97168,-715.2336)">
    <path
       id="Vector-377"
       d="m 2.5301,19.65 1.34,0.56 v -9.03 l -2.43,5.86 c -0.41,1.02 0.08,2.19 1.09,2.61 z m 19.5,-3.7 -4.96,-11.97 c -0.31,-0.75 -1.04,-1.21 -1.81,-1.23 -0.26,0 -0.53,0.04 -0.79,0.15 l -7.37,3.05 c -0.75,0.31 -1.21,1.03 -1.23,1.8 -0.01,0.27 0.04,0.54 0.15,0.8 l 4.96,11.97 c 0.31,0.76 1.05,1.22 1.83,1.23 0.26,0 0.52,-0.05 0.77,-0.15 l 7.36,-3.05 c 1.02,-0.42 1.51,-1.59 1.09,-2.6 z m -14.15,-7.2 c -0.55,0 -1,-0.45 -1,-1 0,-0.55 0.45,-1 1,-1 0.55,0 1,0.45 1,1 0,0.55 -0.45,1 -1,1 z m -2,11 c 0,1.1 0.9,2 2,2 h 1.45 l -3.45,-8.34 z"
       fill="#323232"
       transform="matrix(0.264583,0,0,0.264583,141.629,714.506)" />
  </g>
</svg>
