<?xml version="1.0" encoding="UTF-8" standalone="no"?>
<!-- Created with Inkscape (http://www.inkscape.org/) -->

<svg
   id="svg1100"
   version="1.1"
   viewBox="0 0 5.2916598 4.7624941"
   height="4.7624941mm"
   width="5.2916598mm"
   xmlns="http://www.w3.org/2000/svg"
   xmlns:svg="http://www.w3.org/2000/svg">
  <defs
     id="defs1097" />
  <g
     id="New_Layer_1652808974.8070807"
     style="display:inline"
     transform="translate(-171.45817,-724.89617)">
    <path
       id="Vector-2645"
       d="M 20,4 H 16.83 L 15,2 H 9 L 7.17,4 H 4 C 2.9,4 2,4.9 2,6 v 12 c 0,1.1 0.9,2 2,2 h 16 c 1.1,0 2,-0.9 2,-2 V 6 C 22,4.9 21.1,4 20,4 Z M 15,15.5 V 13 H 9 v 2.5 L 5.5,12 9,8.5 V 11 h 6 V 8.5 l 3.5,3.5 z"
       fill="#323232"
       transform="matrix(0.264583,0,0,0.264583,170.929,724.367)" />
  </g>
</svg>
