<?xml version="1.0" encoding="UTF-8" standalone="no"?>
<!-- Created with Inkscape (http://www.inkscape.org/) -->

<svg
   id="svg1100"
   version="1.1"
   viewBox="0 0 3.7041619 5.2916598"
   height="5.2916598mm"
   width="3.7041619mm"
   xmlns="http://www.w3.org/2000/svg"
   xmlns:svg="http://www.w3.org/2000/svg">
  <defs
     id="defs1097" />
  <g
     id="New_Layer_1652806959.031393"
     style="display:inline"
     transform="translate(-63.235415,-78.066566)">
    <path
       fill="#323232"
       d="M 17,8 H 7 C 5.9,8 5,8.9 5,10 v 10 c 0,1.1 0.9,2 2,2 h 10 c 1.1,0 2,-0.9 2,-2 V 10 C 19,8.9 18.1,8 17,8 Z M 13,20.5 H 11 V 19 h 2 z M 13,18 h -2 c 0,-1.5 -2.5,-3 -2.5,-5 0,-1.93 1.57,-3.5 3.5,-3.5 1.93,0 3.5,1.57 3.5,3.5 0,2 -2.5,3.5 -2.5,5 z M 18,6.5 H 6 C 6,5.67 6.67,5 7.5,5 h 9 C 17.33,5 18,5.67 18,6.5 Z m -1,-3 H 7 C 7,2.67 7.67,2 8.5,2 h 7 C 16.33,2 17,2.67 17,3.5 Z"
       id="path1626"
       transform="matrix(0.264583,0,0,0.264583,61.9125,77.5374)" />
  </g>
</svg>
