<?xml version="1.0" encoding="UTF-8" standalone="no"?>
<!-- Created with Inkscape (http://www.inkscape.org/) -->

<svg
   id="svg1100"
   version="1.1"
   viewBox="0 0 4.7624941 4.7624941"
   height="4.7624941mm"
   width="4.7624941mm"
   xmlns="http://www.w3.org/2000/svg"
   xmlns:svg="http://www.w3.org/2000/svg">
  <defs
     id="defs1097" />
  <g
     id="New_Layer_1652808974.808684"
     style="display:inline"
     transform="translate(-152.14375,-753.31175)">
    <path
       id="Vector-9451"
       d="M 19.51,3.08 3.08,19.51 c 0.09,0.34 0.27,0.65 0.51,0.9 0.25,0.24 0.56,0.42 0.9,0.51 L 20.93,4.49 C 20.74,3.8 20.2,3.26 19.51,3.08 Z M 11.88,3 3,11.88 v 2.83 L 14.71,3 Z M 5,3 C 3.9,3 3,3.9 3,5 V 7 L 7,3 Z m 14,18 c 0.55,0 1.05,-0.22 1.41,-0.59 C 20.78,20.05 21,19.55 21,19 v -2 l -4,4 z m -9.71,0 h 2.83 L 21,12.12 V 9.29 Z"
       fill="#323232"
       transform="matrix(0.264583,0,0,0.264583,151.35,752.518)" />
  </g>
</svg>
