<?xml version="1.0" encoding="UTF-8" standalone="no"?>
<!-- Created with Inkscape (http://www.inkscape.org/) -->

<svg
   id="svg1100"
   version="1.1"
   viewBox="0 0 5.2916598 5.2916598"
   height="5.2916598mm"
   width="5.2916598mm"
   xmlns="http://www.w3.org/2000/svg"
   xmlns:svg="http://www.w3.org/2000/svg">
  <defs
     id="defs1097" />
  <g
     id="New_Layer_1652808974.809207"
     style="display:inline"
     transform="translate(-122.42817,-733.89817)">
    <path
       id="Vector-037"
       d="M 16.24,7.76 C 15.07,6.59 13.54,6 12,6 v 6 l -4.24,4.24 c 2.34,2.34 6.14,2.34 8.49,0 2.34,-2.34 2.34,-6.14 -0.01,-8.48 z M 12,2 C 6.48,2 2,6.48 2,12 2,17.52 6.48,22 12,22 17.52,22 22,17.52 22,12 22,6.48 17.52,2 12,2 Z m 0,18 C 7.58,20 4,16.42 4,12 4,7.58 7.58,4 12,4 c 4.42,0 8,3.58 8,8 0,4.42 -3.58,8 -8,8 z"
       fill="#323232"
       transform="matrix(0.264583,0,0,0.264583,121.899,733.369)" />
  </g>
</svg>
