<?xml version="1.0" encoding="UTF-8" standalone="no"?>
<!-- Created with Inkscape (http://www.inkscape.org/) -->

<svg
   id="svg1100"
   version="1.1"
   viewBox="0 0 4.7624941 5.5562429"
   height="5.5562429mm"
   width="4.7624941mm"
   xmlns="http://www.w3.org/2000/svg"
   xmlns:svg="http://www.w3.org/2000/svg">
  <defs
     id="defs1097" />
  <g
     id="New_Layer_1652808974.8097758"
     style="display:inline"
     transform="translate(-102.78575,-771.16958)">
    <path
       id="Vector-886"
       d="M 15,1 H 9 v 2 h 6 z m -4,13 h 2 V 8 H 11 Z M 19.03,7.39 20.45,5.97 C 20.02,5.46 19.55,4.98 19.04,4.56 L 17.62,5.98 C 16.07,4.74 14.12,4 12,4 7.03,4 3,8.03 3,13 c 0,4.97 4.02,9 9,9 4.98,0 9,-4.03 9,-9 0,-2.12 -0.74,-4.07 -1.97,-5.61 z M 12,20 C 8.13,20 5,16.87 5,13 5,9.13 8.13,6 12,6 c 3.87,0 7,3.13 7,7 0,3.87 -3.13,7 -7,7 z"
       fill="#323232"
       transform="matrix(0.264583,0,0,0.264583,101.992,770.905)" />
  </g>
</svg>
