<?xml version="1.0" encoding="UTF-8" standalone="no"?>
<!-- Created with Inkscape (http://www.inkscape.org/) -->

<svg
   id="svg1100"
   version="1.1"
   viewBox="0 0 6.3552837 3.2305531"
   height="3.2305532mm"
   width="6.3552837mm"
   xmlns="http://www.w3.org/2000/svg"
   xmlns:svg="http://www.w3.org/2000/svg">
  <defs
     id="defs1097" />
  <g
     id="New_Layer_1652808974.810925"
     style="display:inline"
     transform="translate(-1.2e-6,-696.28804)">
    <path
       id="Vector-609"
       d="m 0,7.72002 v 1.68 l 3,-1 V 18 H 5 V 6.00002 H 4.75 Z M 23.78,14.37 c -0.14,-0.28 -0.35,-0.53 -0.63,-0.74 -0.28,-0.21 -0.61,-0.39 -1.01,-0.53 -0.4,-0.14 -0.85,-0.27 -1.35,-0.38 -0.35,-0.07 -0.64,-0.15 -0.87,-0.23 -0.23,-0.08 -0.41,-0.16 -0.55,-0.25 -0.14,-0.09 -0.23,-0.19 -0.28,-0.3 -0.05,-0.11 -0.08,-0.24 -0.08,-0.39 0,-0.14 0.03,-0.28 0.09,-0.41 0.06,-0.13 0.15,-0.25 0.27,-0.34 0.12,-0.1 0.27,-0.18 0.45,-0.24 0.18,-0.06 0.4,-0.09 0.64,-0.09 0.25,0 0.47,0.04 0.66,0.11 0.19,0.07 0.35,0.17 0.48,0.29 0.13,0.12 0.22,0.26 0.29,0.42 0.06,0.16 0.1,0.32 0.1,0.49 h 1.95 c 0,-0.39 -0.08,-0.75 -0.24,-1.09 -0.16,-0.34 -0.39,-0.63 -0.69,-0.87998 -0.3,-0.25 -0.66,-0.44 -1.09,-0.59 -0.43,-0.15 -0.92,-0.22 -1.46,-0.22 -0.51,0 -0.98,0.07 -1.39,0.21 -0.41,0.14 -0.77,0.33 -1.06,0.57 C 17.72,10.02 17.5,10.3 17.34,10.62 c -0.16,0.32 -0.23,0.65 -0.23,1.01 0,0.36 0.08,0.69 0.23,0.96 0.15,0.28 0.36,0.52 0.64,0.73 0.27,0.21 0.6,0.38 0.98,0.53 0.38,0.14 0.81,0.26 1.27,0.36 0.39,0.08 0.71,0.17 0.95,0.26 0.24,0.09 0.43,0.19 0.57,0.29 0.13,0.1 0.22,0.22 0.27,0.34 0.05,0.12 0.07,0.25 0.07,0.39 0,0.32 -0.13,0.57 -0.4,0.77 -0.27,0.2 -0.66,0.29 -1.17,0.29 -0.22,0 -0.43,-0.02 -0.64,-0.08 -0.21,-0.05 -0.4,-0.13 -0.56,-0.24 -0.17,-0.11 -0.3,-0.26 -0.41,-0.44 -0.11,-0.18 -0.17,-0.41 -0.18,-0.67 h -1.89 c 0,0.36 0.08,0.71 0.24,1.05 0.16,0.34 0.39,0.65 0.7,0.93 0.31,0.27 0.69,0.49 1.15,0.66 0.46,0.17 0.98,0.25 1.58,0.25 0.53,0 1.01,-0.06 1.44,-0.19 0.43,-0.13 0.8,-0.31 1.11,-0.54 0.31,-0.23 0.54,-0.51 0.71,-0.83 0.17,-0.32 0.25,-0.67 0.25,-1.06 C 24,14.99 23.93,14.65 23.78,14.37 Z M 13.82,7.05002 c -0.34,-0.4 -0.75,-0.7 -1.23,-0.88 -0.47,-0.18 -1.01,-0.27 -1.59,-0.27 -0.58,0 -1.11,0.09 -1.59,0.27 -0.48,0.18 -0.89,0.47 -1.23,0.88 -0.34,0.41 -0.6,0.93 -0.79,1.59 C 7.21,9.29002 7.11,10.09 7.11,11.03 v 1.92 c 0,0.94 0.09,1.74 0.28,2.39 0.19,0.66 0.45,1.19 0.8,1.6 0.34,0.41 0.75,0.71 1.23,0.89 0.48,0.18 1.01,0.28 1.59,0.28 0.59,0 1.12,-0.09 1.59,-0.28 0.48,-0.18 0.88,-0.48 1.22,-0.89 0.34,-0.41 0.6,-0.94 0.78,-1.6 0.18,-0.65 0.28,-1.45 0.28,-2.39 v -1.92 c 0,-0.94 -0.09,-1.73998 -0.28,-2.38998 -0.18,-0.66 -0.44,-1.19 -0.78,-1.59 z M 12.9,13.22 c 0,0.6 -0.04,1.11 -0.12,1.53 -0.08,0.42 -0.2,0.76 -0.36,1.02 -0.16,0.26 -0.36,0.45 -0.59,0.57 -0.23,0.12 -0.51,0.18 -0.82,0.18 -0.3,0 -0.58,-0.06 -0.82,-0.18 C 9.95,16.22 9.75,16.03 9.59,15.77 9.43,15.51 9.3,15.17 9.21,14.75 9.12,14.33 9.08,13.82 9.08,13.22 v -2.5 c 0,-0.6 0.04,-1.10998 0.13,-1.51998 0.09,-0.41 0.21,-0.74 0.38,-1 0.16,-0.25 0.36,-0.43 0.6,-0.55 0.24,-0.11 0.51,-0.17 0.81,-0.17 0.31,0 0.58,0.06 0.81,0.17 0.24,0.11 0.44,0.29 0.6,0.55 0.16,0.25 0.29,0.58 0.37,0.99 0.08,0.41 0.13,0.91998 0.13,1.51998 v 2.51 z"
       fill="#323232"
       transform="matrix(0.264583,0,0,0.264583,1.2e-6,694.727)" />
  </g>
</svg>
