<?xml version="1.0" encoding="UTF-8" standalone="no"?>
<!-- Created with Inkscape (http://www.inkscape.org/) -->

<svg
   id="svg1100"
   version="1.1"
   viewBox="0 0 5.0932226 5.820826"
   height="5.8208261mm"
   width="5.0932226mm"
   xmlns="http://www.w3.org/2000/svg"
   xmlns:svg="http://www.w3.org/2000/svg">
  <defs
     id="defs1097" />
  <g
     id="New_Layer_1652808974.8115098"
     style="display:inline"
     transform="translate(-161.76802,-743.20858)">
    <path
       id="Vector-75"
       d="M 19.04,4.55 17.62,5.97 C 16.07,4.74 14.12,4 12,4 10.17,4 8.47,4.55 7.05,5.48 L 8.51,6.94 C 9.53,6.35 10.73,6 12,6 c 3.87,0 7,3.13 7,7 0,1.27 -0.35,2.47 -0.94,3.49 l 1.45,1.45 C 20.45,16.53 21,14.83 21,13 21,10.88 20.26,8.93 19.03,7.39 L 20.45,5.97 Z M 15,1 H 9 v 2 h 6 z m -4,8.44 2,2 V 8 H 11 Z M 3.02,4 1.75,5.27 4.5,8.03 C 3.55,9.45 3,11.16 3,13 c 0,4.97 4.02,9 9,9 1.84,0 3.55,-0.55 4.98,-1.5 l 2.5,2.5 1.27,-1.27 -7.71,-7.71 z M 12,20 C 8.13,20 5,16.87 5,13 5,11.72 5.35,10.52 5.95,9.48 l 9.56,9.56 C 14.48,19.65 13.28,20 12,20 Z"
       fill="#323232"
       transform="matrix(0.264583,0,0,0.264583,161.305,742.944)" />
  </g>
</svg>
