<?xml version="1.0" encoding="UTF-8" standalone="no"?>
<!-- Created with Inkscape (http://www.inkscape.org/) -->

<svg
   id="svg1100"
   version="1.1"
   viewBox="0 0 5.2916598 5.2916598"
   height="5.2916598mm"
   width="5.2916598mm"
   xmlns="http://www.w3.org/2000/svg"
   xmlns:svg="http://www.w3.org/2000/svg">
  <defs
     id="defs1097" />
  <g
     id="New_Layer_1652808974.8120358"
     style="display:inline"
     transform="translate(-132.29917,-733.89817)">
    <path
       id="Vector-9785"
       d="M 12,2 C 6.48,2 2,6.48 2,12 2,17.52 6.48,22 12,22 17.52,22 22,17.52 22,12 22,6.48 17.52,2 12,2 Z M 11,19.93 C 7.06,19.44 4,16.08 4,12 4,7.92 7.05,4.56 11,4.07 Z M 13,4.07 C 14.03,4.2 15,4.52 15.87,5 H 13 Z M 13,7 h 5.24 c 0.25,0.31 0.48,0.65 0.68,1 H 13 Z m 0,3 h 6.74 c 0.08,0.33 0.15,0.66 0.19,1 H 13 Z m 0,9.93 V 19 h 2.87 C 15,19.48 14.03,19.8 13,19.93 Z M 18.24,17 H 13 v -1 h 5.92 c -0.2,0.35 -0.43,0.69 -0.68,1 z m 1.5,-3 H 13 v -1 h 6.93 c -0.04,0.34 -0.11,0.67 -0.19,1 z"
       fill="#323232"
       transform="matrix(0.264583,0,0,0.264583,131.77,733.369)" />
  </g>
</svg>
