<?xml version="1.0" encoding="UTF-8" standalone="no"?>
<!-- Created with Inkscape (http://www.inkscape.org/) -->

<svg
   id="svg1100"
   version="1.1"
   viewBox="0 0 5.0270772 3.7041619"
   height="3.7041619mm"
   width="5.0270772mm"
   xmlns="http://www.w3.org/2000/svg"
   xmlns:svg="http://www.w3.org/2000/svg">
  <defs
     id="defs1097" />
  <g
     id="New_Layer_1652808974.813661"
     style="display:inline"
     transform="translate(-21.304249,-753.84091)">
    <path
       id="Vector-378"
       d="M 3,9 H 7 V 5 H 3 Z m 0,5 H 7 V 10 H 3 Z m 5,0 h 4 V 10 H 8 Z m 5,0 h 4 V 10 H 13 Z M 8,9 h 4 V 5 H 8 Z m 5,-4 v 4 h 4 V 5 Z m 5,9 h 4 V 10 H 18 Z M 3,19 H 7 V 15 H 3 Z m 5,0 h 4 V 15 H 8 Z m 5,0 h 4 v -4 h -4 z m 5,0 h 4 V 15 H 18 Z M 18,5 v 4 h 4 V 5 Z"
       fill="#323232"
       transform="matrix(0.264583,0,0,0.264583,20.5105,752.518)" />
  </g>
</svg>
