<?xml version="1.0" encoding="UTF-8" standalone="no"?>
<!-- Created with Inkscape (http://www.inkscape.org/) -->

<svg
   id="svg1100"
   version="1.1"
   viewBox="0 0 5.8208261 4.7624941"
   height="4.7624941mm"
   width="5.8208261mm"
   xmlns="http://www.w3.org/2000/svg"
   xmlns:svg="http://www.w3.org/2000/svg">
  <defs
     id="defs1097" />
  <g
     id="New_Layer_1652808974.8147395"
     style="display:inline"
     transform="translate(-102.25658,-705.57575)">
    <path
       id="Vector-9098"
       d="M 21,3 H 3 C 1.9,3 1,3.9 1,5 v 14 c 0,1.1 0.9,2 2,2 h 18 c 1.1,0 2,-0.9 2,-2 V 5 C 23,3.9 22.1,3 21,3 Z M 12,18 C 7.58,18 4,15.31 4,12 4,8.69 7.58,6 12,6 c 4.42,0 8,2.69 8,6 0,3.31 -3.58,6 -8,6 z"
       fill="#323232"
       transform="matrix(0.264583,0,0,0.264583,101.992,704.782)" />
  </g>
</svg>
