<?xml version="1.0" encoding="UTF-8" standalone="no"?>
<!-- Created with Inkscape (http://www.inkscape.org/) -->

<svg
   id="svg1100"
   version="1.1"
   viewBox="0 0 6.2970753 4.2333278"
   height="4.2333279mm"
   width="6.2970753mm"
   xmlns="http://www.w3.org/2000/svg"
   xmlns:svg="http://www.w3.org/2000/svg">
  <defs
     id="defs1097" />
  <g
     id="New_Layer_1652808974.8152628"
     style="display:inline"
     transform="translate(-61.9178,-695.78633)">
    <path
       id="Vector-8584"
       d="m 6.85,12.65 h 2.3 L 8,9 Z M 22,7 20.8,13.29 19.3,7 H 17.7 L 16.21,13.29 15,7 H 14.24 C 12.77,5.17 10.53,4 8,4 3.58,4 0,7.58 0,12 c 0,4.42 3.58,8 8,8 3.13,0 5.84,-1.81 7.15,-4.43 L 15.25,16 H 17 L 18.5,9.9 20,16 h 1.75 L 23.8,7 Z M 10.3,16 9.6,14 H 6.4 L 5.7,16 H 3.8 L 7,7 h 2 l 3.2,9 z"
       fill="#323232"
       transform="matrix(0.264583,0,0,0.264583,61.9178,694.728)" />
  </g>
</svg>
