<?xml version="1.0" encoding="UTF-8" standalone="no"?>
<!-- Created with Inkscape (http://www.inkscape.org/) -->

<svg
   id="svg1100"
   version="1.1"
   viewBox="0 0 5.8208261 5.543014"
   height="5.543014mm"
   width="5.8208261mm"
   xmlns="http://www.w3.org/2000/svg"
   xmlns:svg="http://www.w3.org/2000/svg">
  <defs
     id="defs1097" />
  <g
     id="New_Layer_1652808974.8163288"
     style="display:inline"
     transform="translate(-41.544883,-705.18587)">
    <path
       id="Vector-3809"
       d="m 3.55,18.54 1.41,1.41 1.79,-1.8 -1.41,-1.41 z M 11,22.45 h 2 V 19.5 H 11 Z M 4,10.5 H 1 v 2 H 4 Z M 15,6.31 V 1.5 H 9 V 6.31 C 7.21,7.35 6,9.28 6,11.5 c 0,3.31 2.69,6 6,6 3.31,0 6,-2.69 6,-6 0,-2.22 -1.21,-4.15 -3,-5.19 z m 5,4.19 v 2 h 3 v -2 z m -2.76,7.66 1.79,1.8 1.41,-1.41 -1.8,-1.79 z"
       fill="#323232"
       transform="matrix(0.264583,0,0,0.264583,41.2803,704.789)" />
  </g>
</svg>
