<?xml version="1.0" encoding="UTF-8" standalone="no"?>
<!-- Created with Inkscape (http://www.inkscape.org/) -->

<svg
   id="svg1100"
   version="1.1"
   viewBox="0 0 5.8208261 5.7943811"
   height="5.7943811mm"
   width="5.8208261mm"
   xmlns="http://www.w3.org/2000/svg"
   xmlns:svg="http://www.w3.org/2000/svg">
  <defs
     id="defs1097" />
  <g
     id="New_Layer_1652808974.8179195"
     style="display:inline"
     transform="translate(-161.40358,-695.00553)">
    <path
       id="Vector-3712"
       d="m 6.76,4.84005 -1.8,-1.79 -1.41,1.41 1.79,1.79 z M 4,10.5 H 1 v 2 H 4 Z M 13,0.550049 H 11 V 3.50005 h 2 z m 7.45,3.910001 -1.41,-1.41 -1.79,1.79 1.41,1.41 z M 17.24,18.16 l 1.79,1.8 1.41,-1.41 -1.8,-1.79 z M 20,10.5 v 2 h 3 v -2 z M 12,5.50005 c -3.31,0 -6,2.69 -6,5.99995 0,3.31 2.69,6 6,6 3.31,0 6,-2.69 6,-6 C 18,8.19005 15.31,5.50005 12,5.50005 Z M 11,22.4501 h 2 V 19.5 h -2 z m -7.45,-3.91 1.41,1.41 L 6.75,18.15 5.34,16.74 Z"
       fill="#323232"
       transform="matrix(0.264583,0,0,0.264583,161.139,694.86)" />
  </g>
</svg>
