<?xml version="1.0" encoding="UTF-8" standalone="no"?>
<!-- Created with Inkscape (http://www.inkscape.org/) -->

<svg
   id="svg1100"
   version="1.1"
   viewBox="0 0 5.2916598 3.439579"
   height="3.439579mm"
   width="5.2916598mm"
   xmlns="http://www.w3.org/2000/svg"
   xmlns:svg="http://www.w3.org/2000/svg">
  <defs
     id="defs1097" />
  <g
     id="New_Layer_1652809083.912344"
     style="display:inline"
     transform="translate(-91.019266,-847.88708)">
    <path
       fill="#323232"
       d="M 12,7 C 6.48,7 2,9.24 2,12 c 0,2.24 2.94,4.13 7,4.77 V 20 l 4,-4 -4,-4 v 2.73 C 5.85,14.17 4,12.83 4,12 4,10.94 7.04,9 12,9 c 4.96,0 8,1.94 8,3 0,0.73 -1.46,1.89 -4,2.53 v 2.05 C 19.53,15.81 22,14.05 22,12 22,9.24 17.52,7 12,7 Z"
       id="path11707"
       transform="matrix(0.264583,0,0,0.264583,90.4901,846.035)" />
  </g>
</svg>
