<?xml version="1.0" encoding="UTF-8" standalone="no"?>
<!-- Created with Inkscape (http://www.inkscape.org/) -->

<svg
   id="svg1100"
   version="1.1"
   viewBox="0 0 5.0270772 5.820826"
   height="5.8208261mm"
   width="5.0270772mm"
   xmlns="http://www.w3.org/2000/svg"
   xmlns:svg="http://www.w3.org/2000/svg">
  <defs
     id="defs1097" />
  <g
     id="New_Layer_1652809083.9148586"
     style="display:inline"
     transform="translate(-0.661458,-865.94558)">
    <path
       fill="#323232"
       d="m 20,1 v 3 h 3 V 6 H 20 V 9 H 18 V 6 H 15 V 4 h 3 V 1 Z m -8,12 c 1.1,0 2,-0.9 2,-2 0,-1.1 -0.9,-2 -2,-2 -1.1,0 -2,0.9 -2,2 0,1.1 0.9,2 2,2 z M 14,3.25 V 7 h 3 v 3 h 2.92 C 19.97,10.39 20,10.79 20,11.2 20,14.52 17.33,18.45 12,23 6.67,18.45 4,14.52 4,11.2 4,6.22 7.8,3 12,3 c 0.68,0 1.35,0.08 2,0.25 z"
       id="path11743"
       transform="matrix(0.264583,0,0,0.264583,-0.396874,865.681)" />
  </g>
</svg>
