<?xml version="1.0" encoding="UTF-8" standalone="no"?>
<!-- Created with Inkscape (http://www.inkscape.org/) -->

<svg
   id="svg1100"
   version="1.1"
   viewBox="0 0 5.8208261 4.545536"
   height="4.545536mm"
   width="5.8208261mm"
   xmlns="http://www.w3.org/2000/svg"
   xmlns:svg="http://www.w3.org/2000/svg">
  <defs
     id="defs1097" />
  <g
     id="New_Layer_1652809083.9159455"
     style="display:inline"
     transform="translate(-139.70258,-827.82112)">
    <path
       fill="#323232"
       d="m 19.5,12 c 0.93,0 1.78,0.28 2.5,0.76 V 8 C 22,6.9 21.1,6 20,6 H 13.71 L 12.65,4.94 14.06,3.53 13.35,2.82 9.82,6.35 10.53,7.06 11.94,5.65 13,6.71 V 9 c 0,1.1 -0.9,2 -2,2 H 10.46 A 5.98,5.98 0 0 1 12,15 c 0,0.34 -0.04,0.67 -0.09,1 h 3.14 c 0.25,-2.25 2.14,-4 4.45,-4 z"
       id="path11765"
       transform="matrix(0.264583,0,0,0.264583,139.438,827.075)" />
    <path
       fill="#323232"
       d="M 19.5,13 C 17.57,13 16,14.57 16,16.5 16,18.43 17.57,20 19.5,20 21.43,20 23,18.43 23,16.5 23,14.57 21.43,13 19.5,13 Z m 0,5 C 18.67,18 18,17.33 18,16.5 18,15.67 18.67,15 19.5,15 20.33,15 21,15.67 21,16.5 21,17.33 20.33,18 19.5,18 Z M 4,9 H 9 C 9,7.9 8.1,7 7,7 H 4 C 3.45,7 3,7.45 3,8 3,8.55 3.45,9 4,9 Z M 9.83,13.82 9.65,13.35 10.58,13 A 4.92,4.92 0 0 0 8.27,10.57 l -0.4,0.89 -0.46,-0.21 0.4,-0.9 C 7.26,10.13 6.64,10 6,10 5.47,10 4.96,10.11 4.48,10.26 L 4.82,11.17 4.35,11.35 4,10.42 a 4.92,4.92 0 0 0 -2.43,2.31 l 0.89,0.4 -0.21,0.46 -0.9,-0.4 C 1.13,13.74 1,14.36 1,15 c 0,0.53 0.11,1.04 0.26,1.52 L 2.17,16.18 2.35,16.65 1.42,17 a 4.92,4.92 0 0 0 2.31,2.43 l 0.4,-0.89 0.46,0.21 -0.4,0.9 C 4.74,19.87 5.36,20 6,20 6.53,20 7.04,19.89 7.52,19.74 L 7.18,18.83 7.65,18.65 8,19.58 a 4.92,4.92 0 0 0 2.43,-2.31 l -0.89,-0.4 0.21,-0.46 0.9,0.4 C 10.87,16.26 11,15.64 11,15 11,14.47 10.89,13.96 10.74,13.48 Z M 7.15,17.77 C 5.62,18.4 3.86,17.68 3.23,16.15 2.6,14.62 3.32,12.86 4.85,12.23 c 1.53,-0.63 3.29,0.09 3.92,1.62 0.64,1.53 -0.09,3.29 -1.62,3.92 z"
       id="path11767"
       transform="matrix(0.264583,0,0,0.264583,139.438,827.075)" />
  </g>
</svg>
