<?xml version="1.0" encoding="UTF-8" standalone="no"?>
<!-- Created with Inkscape (http://www.inkscape.org/) -->

<svg
   id="svg1100"
   version="1.1"
   viewBox="0 0 4.7624941 5.2916598"
   height="5.2916598mm"
   width="4.7624941mm"
   xmlns="http://www.w3.org/2000/svg"
   xmlns:svg="http://www.w3.org/2000/svg">
  <defs
     id="defs1097" />
  <g
     id="New_Layer_1652809083.9169505"
     style="display:inline"
     transform="translate(-120.65275,-876.02617)">
    <path
       fill="#323232"
       d="M 9.78,11.16 8.36,12.58 A 7.282,7.282 0 0 1 6.57,9.64 L 8.51,9.15 c 0.32,0.89 0.77,1.5 1.27,2.01 z M 11,6 7,2 3,6 H 6.02 C 6.04,6.81 6.1,7.54 6.21,8.17 L 8.15,7.68 C 8.08,7.2 8.03,6.63 8.02,6 Z M 21,6 17,2 13,6 h 2.99 c -0.1,3.68 -1.28,4.75 -2.54,5.88 -0.5,0.44 -1.01,0.92 -1.45,1.55 -0.34,-0.49 -0.73,-0.88 -1.13,-1.24 L 9.46,13.6 C 10.39,14.45 11,15.14 11,17 v 5 h 2 v -5 c 0,-2.02 0.71,-2.66 1.79,-3.63 1.38,-1.24 3.08,-2.78 3.2,-7.37 z"
       id="path11779"
       transform="matrix(0.264583,0,0,0.264583,119.859,875.497)" />
  </g>
</svg>
