<?xml version="1.0" encoding="UTF-8" standalone="no"?>
<!-- Created with Inkscape (http://www.inkscape.org/) -->

<svg
   id="svg1100"
   version="1.1"
   viewBox="0 0 5.2916598 1.5874979"
   height="1.5874979mm"
   width="5.2916598mm"
   xmlns="http://www.w3.org/2000/svg"
   xmlns:svg="http://www.w3.org/2000/svg">
  <defs
     id="defs1097" />
  <g
     id="New_Layer_1652809083.917502"
     style="display:inline"
     transform="translate(-110.59817,-897.28525)">
    <path
       fill="#323232"
       d="m 8,9 v 1.5 h 2.25 V 15 h 1.5 V 10.5 H 14 V 9 Z M 6,9 H 3 C 2.45,9 2,9.45 2,10 v 5 h 1.5 v -1.5 h 2 V 15 H 7 V 10 C 7,9.45 6.55,9 6,9 Z m -0.5,3 h -2 v -1.5 h 2 z M 21,9 h -4.5 c -0.55,0 -1,0.45 -1,1 v 5 H 17 v -4.5 h 1 V 14 h 1.5 v -3.51 h 1 V 15 H 22 V 10 C 22,9.45 21.55,9 21,9 Z"
       id="path11790"
       transform="matrix(0.264583,0,0,0.264583,110.069,894.904)" />
  </g>
</svg>
