<?xml version="1.0" encoding="UTF-8" standalone="no"?>
<!-- Created with Inkscape (http://www.inkscape.org/) -->

<svg
   id="svg1100"
   version="1.1"
   viewBox="0 0 4.722281 5.2916598"
   height="5.2916598mm"
   width="4.722281mm"
   xmlns="http://www.w3.org/2000/svg"
   xmlns:svg="http://www.w3.org/2000/svg">
  <defs
     id="defs1097" />
  <g
     id="New_Layer_1652809083.918039"
     style="display:inline"
     transform="translate(-179.40353,-876.02617)">
    <path
       fill="#323232"
       d="M 10.43,18.75 C 10.8,18.29 11.37,18 12,18 c 0.63,0 1.19,0.29 1.56,0.75 0.39,-0.09 0.76,-0.21 1.12,-0.36 L 13.26,15.21 A 3.522,3.522 0 0 1 10.7,15.19 l -1.43,3.19 c 0.38,0.16 0.76,0.29 1.16,0.37 z M 5.15,10 a 7.06,7.06 0 0 0 0.08,4 c 0.63,0.05 1.22,0.4 1.56,0.99 0.33,0.57 0.35,1.23 0.11,1.79 0.27,0.27 0.56,0.53 0.87,0.76 L 9.29,14.15 C 8.82,13.57 8.54,12.83 8.54,12.02 c 0,-1.89 1.55,-3.41 3.46,-3.41 1.91,0 3.46,1.53 3.46,3.41 0,0.82 -0.29,1.57 -0.78,2.16 l 1.5,3.35 c 0.32,-0.24 0.62,-0.5 0.9,-0.79 -0.22,-0.55 -0.2,-1.2 0.12,-1.75 0.33,-0.57 0.9,-0.92 1.52,-0.99 A 7.025,7.025 0 0 0 18.81,9.98 C 18.17,9.94 17.55,9.59 17.21,8.98 16.85,8.36 16.86,7.62 17.18,7.03 16.27,6.05 15.08,5.32 13.74,4.98 13.39,5.6 12.74,6 12,6 11.26,6 10.61,5.59 10.26,4.99 A 7.053,7.053 0 0 0 6.82,7.02 C 7.15,7.62 7.17,8.37 6.8,9 6.45,9.62 5.81,9.97 5.15,10 Z M 3.85,9.58 C 3.07,8.98 2.83,7.88 3.34,7 3.85,6.12 4.92,5.77 5.83,6.15 A 8.53,8.53 0 0 1 10.01,3.73 C 10.15,2.75 10.99,2 12,2 c 1.01,0 1.85,0.75 1.98,1.73 1.63,0.39 3.07,1.24 4.18,2.42 A 1.99,1.99 0 0 1 20.65,7 c 0.51,0.88 0.27,1.98 -0.51,2.58 0.23,0.77 0.35,1.58 0.35,2.42 0,0.84 -0.12,1.65 -0.35,2.42 0.78,0.6 1.02,1.7 0.51,2.58 -0.51,0.88 -1.58,1.23 -2.49,0.85 -0.4,0.43 -0.85,0.81 -1.34,1.15 l 1.34,3 H 16.3 L 15.33,19.83 C 14.9,20.01 14.45,20.16 13.99,20.27 13.85,21.25 13.01,22 12,22 10.99,22 10.15,21.25 10.02,20.27 9.54,20.15 9.08,20 8.64,19.81 L 7.66,22 H 5.78 L 7.14,18.97 A 8.72,8.72 0 0 1 5.84,17.85 C 4.92,18.23 3.85,17.88 3.34,17 2.83,16.12 3.07,15.02 3.85,14.42 A 8.43,8.43 0 0 1 3.5,12 c 0,-0.84 0.12,-1.65 0.35,-2.42 z"
       id="path11801"
       transform="matrix(0.264583,0,0,0.264583,178.591,875.497)" />
  </g>
</svg>
