<?xml version="1.0" encoding="UTF-8" standalone="no"?>
<!-- Created with Inkscape (http://www.inkscape.org/) -->

<svg
   id="svg1100"
   version="1.1"
   viewBox="0 0 5.2916598 5.2916598"
   height="5.2916598mm"
   width="5.2916598mm"
   xmlns="http://www.w3.org/2000/svg"
   xmlns:svg="http://www.w3.org/2000/svg">
  <defs
     id="defs1097" />
  <g
     id="New_Layer_1652809083.9185896"
     style="display:inline"
     transform="translate(-61.650566,-846.96117)">
    <path
       fill="#323232"
       d="M 20,7 H 15 V 4 C 15,2.9 14.1,2 13,2 H 11 C 9.9,2 9,2.9 9,4 V 7 H 4 C 2.9,7 2,7.9 2,9 v 11 c 0,1.1 0.9,2 2,2 h 16 c 1.1,0 2,-0.9 2,-2 V 9 C 22,7.9 21.1,7 20,7 Z M 9,12 c 0.83,0 1.5,0.67 1.5,1.5 C 10.5,14.33 9.83,15 9,15 8.17,15 7.5,14.33 7.5,13.5 7.5,12.67 8.17,12 9,12 Z m 3,6 H 6 v -0.75 c 0,-1 2,-1.5 3,-1.5 1,0 3,0.5 3,1.5 z M 13,9 H 11 V 4 h 2 z m 5,7.5 H 14 V 15 h 4 z m 0,-3 H 14 V 12 h 4 z"
       id="path11812"
       transform="matrix(0.264583,0,0,0.264583,61.1214,846.432)" />
  </g>
</svg>
