<?xml version="1.0" encoding="UTF-8" standalone="no"?>
<!-- Created with Inkscape (http://www.inkscape.org/) -->

<svg
   id="svg1100"
   version="1.1"
   viewBox="0 0 4.759459 2.5149317"
   height="2.5149317mm"
   width="4.759459mm"
   xmlns="http://www.w3.org/2000/svg"
   xmlns:svg="http://www.w3.org/2000/svg">
  <defs
     id="defs1097" />
  <g
     id="New_Layer_1652809083.919127"
     style="display:inline"
     transform="translate(-150.02294,-877.41508)">
    <path
       fill="#323232"
       fill-rule="evenodd"
       d="M 19.28,16.34 17.46,15 c 0,0 0.32,-0.59 0.96,-1.78 a 0.944,0.944 0 0 1 1.6,0 l 0.81,1.26 c 0.19,0.3 0.21,0.68 0.06,1 l -0.22,0.47 a 0.94,0.94 0 0 1 -1.39,0.39 z m -14.56,0 A 0.946,0.946 0 0 1 3.33,15.96 L 3.1,15.49 c -0.15,-0.32 -0.13,-0.7 0.06,-1 l 0.81,-1.26 a 0.944,0.944 0 0 1 1.6,0 C 6.22,14.41 6.54,15 6.54,15 Z M 15.36,9.37 c 0.09,-0.68 0.73,-1.06 1.27,-0.75 l 1.59,0.9 c 0.46,0.26 0.63,0.91 0.36,1.41 L 16.5,15 H 14.7 Z M 8.63,9.37 9.3,15 H 7.5 L 5.41,10.92 C 5.14,10.42 5.31,9.77 5.77,9.51 L 7.36,8.61 C 7.89,8.31 8.54,8.69 8.63,9.37 Z M 13.8,15 H 10.2 L 9.46,8.12 C 9.39,7.53 9.81,7 10.34,7 h 3.3 c 0.53,0 0.94,0.53 0.88,1.12 z"
       clip-rule="evenodd"
       id="path11823"
       transform="matrix(0.264583,0,0,0.264583,149.229,875.563)" />
  </g>
</svg>
