<?xml version="1.0" encoding="UTF-8" standalone="no"?>
<!-- Created with Inkscape (http://www.inkscape.org/) -->

<svg
   id="svg1100"
   version="1.1"
   viewBox="0 0 6.3499918 4.7625003"
   height="4.7625003mm"
   width="6.3499918mm"
   xmlns="http://www.w3.org/2000/svg"
   xmlns:svg="http://www.w3.org/2000/svg">
  <defs
     id="defs1097" />
  <g
     id="New_Layer_1652809083.9202404"
     style="display:inline"
     transform="translate(-41.275,-827.71274)">
    <path
       fill="#323232"
       d="m 10,14 h 0.74 L 8.82,5.56 A 2.009,2.009 0 0 0 6.87,4 H 3 v 2 h 3.87 l 1.42,6.25 H 8.28 A 6.008,6.008 0 0 0 4.09,17 H 0 v 2 h 6 v -1 c 0,-2.21 1.79,-4 4,-4 z M 19,8 H 18.18 L 16.83,4.31 A 1.976,1.976 0 0 0 14.96,3 H 11 v 2 h 3.96 l 1.1,3 H 10.4 l 0.46,2 H 15 c -0.43,0.58 -0.75,1.25 -0.9,2 h -2.79 l 0.46,2 h 2.33 c 0.44,2.23 2.31,3.88 4.65,3.99 2.8,0.13 5.25,-2.19 5.25,-5 C 24,10.2 21.8,8 19,8 Z m 0,8 c -1.68,0 -3,-1.32 -3,-3 0,-0.93 0.41,-1.73 1.05,-2.28 l 0.96,2.64 1.88,-0.68 -0.97,-2.67 c 0.03,0 0.06,-0.01 0.09,-0.01 1.68,0 3,1.32 3,3 0,1.68 -1.33,3 -3.01,3 z"
       id="path11845"
       transform="matrix(0.264583,0,0,0.264583,41.275,826.919)" />
    <path
       fill="#323232"
       d="m 10,15 c -1.66,0 -3,1.34 -3,3 0,1.66 1.34,3 3,3 1.66,0 3,-1.34 3,-3 0,-1.66 -1.34,-3 -3,-3 z m 0,4 c -0.55,0 -1,-0.45 -1,-1 0,-0.55 0.45,-1 1,-1 0.55,0 1,0.45 1,1 0,0.55 -0.45,1 -1,1 z"
       id="path11847"
       transform="matrix(0.264583,0,0,0.264583,41.275,826.919)" />
  </g>
</svg>
