<?xml version="1.0" encoding="UTF-8" standalone="no"?>
<!-- Created with Inkscape (http://www.inkscape.org/) -->

<svg
   id="svg1100"
   version="1.1"
   viewBox="0 0 3.7041619 5.5562429"
   height="5.5562429mm"
   width="3.7041619mm"
   xmlns="http://www.w3.org/2000/svg"
   xmlns:svg="http://www.w3.org/2000/svg">
  <defs
     id="defs1097" />
  <g
     id="New_Layer_1652809083.9229043"
     style="display:inline"
     transform="translate(-1.3229162,-895.30158)">
    <path
       fill="#323232"
       d="M 16.39,9 H 7.61 C 7.18,9 6.8,9.28 6.66,9.68 l -1.66,5 v 6.81 C 5,21.78 5.23,22 5.5,22 h 1 C 6.78,22 7,21.78 7,21.5 V 20 h 10 v 1.5 c 0,0.28 0.22,0.5 0.5,0.5 h 1 c 0.28,0 0.5,-0.22 0.5,-0.5 v -6.81 l -1.66,-5 A 1.01,1.01 0 0 0 16.39,9 Z M 7.78,18 C 7.1,18 6.56,17.46 6.56,16.78 6.56,16.1 7.1,15.56 7.78,15.56 8.46,15.56 9,16.11 9,16.78 9,17.45 8.46,18 7.78,18 Z m 8.44,0 C 15.55,18 15,17.46 15,16.78 c 0,-0.68 0.54,-1.22 1.22,-1.22 0.68,0 1.22,0.54 1.22,1.22 0,0.68 -0.54,1.22 -1.22,1.22 z M 6.29,14 7.62,10 h 8.78 l 1.33,4 z M 10.83,3 A 3.01,3.01 0 0 0 8,1 C 6.34,1 5,2.34 5,4 5,5.65 6.34,7 8,7 9.3,7 10.41,6.16 10.83,5 H 16 v 2 h 2 V 5 h 1 V 3 Z M 8,5 C 7.45,5 7,4.55 7,4 7,3.45 7.45,3 8,3 8.55,3 9,3.45 9,4 9,4.55 8.55,5 8,5 Z"
       id="path11892"
       transform="matrix(0.264583,0,0,0.264583,1.2e-6,895.037)" />
  </g>
</svg>
