<?xml version="1.0" encoding="UTF-8" standalone="no"?>
<!-- Created with Inkscape (http://www.inkscape.org/) -->

<svg
   id="svg1100"
   version="1.1"
   viewBox="0 0 4.2333279 5.0270772"
   height="5.0270772mm"
   width="4.2333279mm"
   xmlns="http://www.w3.org/2000/svg"
   xmlns:svg="http://www.w3.org/2000/svg">
  <defs
     id="defs1097" />
  <g
     id="New_Layer_1652809083.9234624"
     style="display:inline"
     transform="translate(-42.333332,-885.90875)">
    <path
       fill="#323232"
       d="m 16.22,12 c 0.68,0 1.22,-0.54 1.22,-1.22 0,-0.67 -0.54,-1.22 -1.22,-1.22 -0.68,0 -1.22,0.55 -1.22,1.22 0,0.68 0.55,1.22 1.22,1.22 z M 6.56,10.78 C 6.56,11.45 7.1,12 7.78,12 8.46,12 9,11.46 9,10.78 9,10.11 8.46,9.56 7.78,9.56 7.1,9.56 6.56,10.11 6.56,10.78 Z M 7.61,4 6.28,8 H 17.71 L 16.38,4 Z m 8.67,-1 c 0,0 0.54,0.01 0.92,0.54 0.02,0.02 0.03,0.04 0.05,0.07 0.07,0.11 0.14,0.24 0.19,0.4 C 17.66,4.66 19,8.69 19,8.69 v 6.5 C 19,15.64 18.65,16 18.22,16 H 17.78 C 17.35,16 17,15.64 17,15.19 V 14 H 7 v 1.19 C 7,15.64 6.65,16 6.22,16 H 5.78 C 5.35,16 5,15.64 5,15.19 V 8.69 C 5,8.69 6.34,4.67 6.55,4 6.6,3.84 6.67,3.72 6.74,3.6 6.77,3.58 6.78,3.56 6.8,3.54 7.18,3.01 7.72,3 7.72,3 Z M 4,17.01 H 20 V 19 h -7 v 3 H 11 V 19 H 4 Z"
       id="path11903"
       transform="matrix(0.264583,0,0,0.264583,41.275,885.115)" />
  </g>
</svg>
