<?xml version="1.0" encoding="UTF-8" standalone="no"?>
<!-- Created with Inkscape (http://www.inkscape.org/) -->

<svg
   id="svg1100"
   version="1.1"
   viewBox="0 0 5.6991177 5.434535"
   height="5.434535mm"
   width="5.6991177mm"
   xmlns="http://www.w3.org/2000/svg"
   xmlns:svg="http://www.w3.org/2000/svg">
  <defs
     id="defs1097" />
  <g
     id="New_Layer_1652809083.92455"
     style="display:inline"
     transform="translate(-0.325438,-837.16629)">
    <path
       fill="#323232"
       d="M 2,22 16,17 7,8 Z m 12.53,-9.47 5.59,-5.59 a 1.25,1.25 0 0 1 1.77,0 l 0.59,0.59 1.06,-1.06 -0.59,-0.59 a 2.758,2.758 0 0 0 -3.89,0 l -5.59,5.59 z M 10.06,6.88 9.47,7.47 10.53,8.53 11.12,7.94 a 2.758,2.758 0 0 0 0,-3.89 L 10.53,3.46 9.47,4.53 10.06,5.12 c 0.48,0.48 0.48,1.28 0,1.76 z m 7,5 -1.59,1.59 1.06,1.06 1.59,-1.59 a 1.25,1.25 0 0 1 1.77,0 l 1.61,1.61 1.06,-1.06 -1.61,-1.61 a 2.758,2.758 0 0 0 -3.89,0 z m -2,-6 -3.59,3.59 1.06,1.06 3.59,-3.59 a 2.758,2.758 0 0 0 0,-3.89 l -1.59,-1.59 -1.06,1.06 1.59,1.59 c 0.48,0.49 0.48,1.29 0,1.77 z"
       id="path11925"
       transform="matrix(0.264583,0,0,0.264583,-0.203728,836.78)" />
  </g>
</svg>
