<?xml version="1.0" encoding="UTF-8" standalone="no"?>
<!-- Created with Inkscape (http://www.inkscape.org/) -->

<svg
   id="svg1100"
   version="1.1"
   viewBox="0 0 4.7624941 5.820826"
   height="5.8208261mm"
   width="4.7624941mm"
   xmlns="http://www.w3.org/2000/svg"
   xmlns:svg="http://www.w3.org/2000/svg">
  <defs
     id="defs1097" />
  <g
     id="New_Layer_1652809083.9250863"
     style="display:inline"
     transform="translate(-81.494349,-875.76158)">
    <path
       fill="#323232"
       d="M 16,11 H 15 V 3 C 15,1.9 14.1,1 13,1 H 11 C 9.9,1 9,1.9 9,3 v 8 H 8 c -2.76,0 -5,2.24 -5,5 v 7 h 18 v -7 c 0,-2.76 -2.24,-5 -5,-5 z m 3,10 h -2 v -3 c 0,-0.55 -0.45,-1 -1,-1 -0.55,0 -1,0.45 -1,1 v 3 h -2 v -3 c 0,-0.55 -0.45,-1 -1,-1 -0.55,0 -1,0.45 -1,1 v 3 H 9 V 18 C 9,17.45 8.55,17 8,17 7.45,17 7,17.45 7,18 v 3 H 5 v -5 c 0,-1.65 1.35,-3 3,-3 h 8 c 1.65,0 3,1.35 3,3 z"
       id="path11936"
       transform="matrix(0.264583,0,0,0.264583,80.7006,875.497)" />
  </g>
</svg>
