<?xml version="1.0" encoding="UTF-8" standalone="no"?>
<!-- Created with Inkscape (http://www.inkscape.org/) -->

<svg
   id="svg1100"
   version="1.1"
   viewBox="0 0 5.8208261 5.820826"
   height="5.8208261mm"
   width="5.8208261mm"
   xmlns="http://www.w3.org/2000/svg"
   xmlns:svg="http://www.w3.org/2000/svg">
  <defs
     id="defs1097" />
  <g
     id="New_Layer_1652809083.927181"
     style="display:inline"
     transform="translate(-129.91258,-827.18358)">
    <path
       fill="#323232"
       d="M 16,1 C 13.6,1 11.48,2.21 10.22,4.05 10.23,4.04 10.23,4.03 10.24,4.02 9.84,4 9.42,4 9,4 4.58,4 1,4.5 1,8 v 10 c 0,0.88 0.39,1.67 1,2.22 V 22 c 0,0.55 0.45,1 1,1 h 1 c 0.55,0 1,-0.45 1,-1 v -1 h 8 v 1 c 0,0.55 0.45,1 1,1 h 1 c 0.55,0 1,-0.45 1,-1 V 20.22 C 16.61,19.67 17,18.88 17,18 V 14.92 C 20.39,14.43 23,11.53 23,8 23,4.13 19.87,1 16,1 Z M 4.5,19 C 3.67,19 3,18.33 3,17.5 3,16.67 3.67,16 4.5,16 5.33,16 6,16.67 6,17.5 6,18.33 5.33,19 4.5,19 Z M 3,13 V 8 h 6 c 0,1.96 0.81,3.73 2.11,5 z m 10.5,6 C 12.67,19 12,18.33 12,17.5 12,16.67 12.67,16 13.5,16 14.33,16 15,16.67 15,17.5 15,18.33 14.33,19 13.5,19 Z M 16,13 c -2.76,0 -5,-2.24 -5,-5 0,-2.76 2.24,-5 5,-5 2.76,0 5,2.24 5,5 0,2.76 -2.24,5 -5,5 z M 16.5,4 H 15 v 5 l 3.62,2.16 0.75,-1.23 -2.87,-1.68 z"
       id="path11972"
       transform="matrix(0.264583,0,0,0.264583,129.648,826.919)" />
  </g>
</svg>
