<?xml version="1.0" encoding="UTF-8" standalone="no"?>
<!-- Created with Inkscape (http://www.inkscape.org/) -->

<svg
   id="svg1100"
   version="1.1"
   viewBox="0 0 4.7631407 4.7622008"
   height="4.7622008mm"
   width="4.7631407mm"
   xmlns="http://www.w3.org/2000/svg"
   xmlns:svg="http://www.w3.org/2000/svg">
  <defs
     id="defs1097" />
  <g
     id="New_Layer_1652809083.9277425"
     style="display:inline"
     transform="translate(-31.749649,-866.47504)">
    <path
       fill="#323232"
       d="M 16.24,11.51 17.81,9.94 14.06,6.19 12.49,7.76 8.35,3.63 C 7.57,2.85 6.3,2.85 5.52,3.63 l -1.9,1.9 c -0.78,0.78 -0.78,2.05 0,2.83 L 7.75,12.49 3,17.25 V 21 h 3.75 l 4.76,-4.76 4.13,4.13 c 0.95,0.95 2.23,0.6 2.83,0 l 1.9,-1.9 c 0.78,-0.78 0.78,-2.05 0,-2.83 z M 9.18,11.07 5.04,6.94 6.93,5.04 8.2,6.31 7.02,7.5 8.43,8.91 9.62,7.72 11.07,9.17 Z m 7.88,7.89 -4.13,-4.13 1.9,-1.9 1.45,1.45 -1.19,1.19 1.41,1.41 1.19,-1.19 1.27,1.27 z M 20.71,7.04 a 0.996,0.996 0 0 0 0,-1.41 L 18.37,3.29 C 17.9,2.82 17.25,3 16.96,3.29 l -1.83,1.83 3.75,3.75 z"
       id="path11983"
       transform="matrix(0.264583,0,0,0.264583,30.9559,865.681)" />
  </g>
</svg>
