<?xml version="1.0" encoding="UTF-8" standalone="no"?>
<!-- Created with Inkscape (http://www.inkscape.org/) -->

<svg
   id="svg1100"
   version="1.1"
   viewBox="0 0 5.2916598 4.7624941"
   height="4.7624941mm"
   width="5.2916598mm"
   xmlns="http://www.w3.org/2000/svg"
   xmlns:svg="http://www.w3.org/2000/svg">
  <defs
     id="defs1097" />
  <g
     id="New_Layer_1652809083.9282806"
     style="display:inline"
     transform="translate(-139.96717,-837.50275)">
    <path
       fill="#323232"
       d="m 2,19 h 20 l -2,2 H 4 Z M 5,6 H 6 V 7 H 5 Z M 5,4 H 6 V 5 H 5 Z M 9,4 V 5 H 7 V 4 Z M 9,7 H 7 V 6 H 9 Z M 6,15.23 C 5.64,15.34 5.31,15.51 5,15.7 V 8 H 6 Z M 4,16.52 C 3.62,16.96 3.32,17.45 3.16,18 h 16.82 c 0.01,-0.16 0.03,-0.33 0.03,-0.5 A 5.497,5.497 0 0 0 9.43,15.4 C 8.84,15.15 8.19,15 7.5,15 7.33,15 7.17,15.02 7,15.04 V 8 h 2 c 1.03,0.06 1.9,-0.96 2,-2 H 21 V 5 H 11 C 10.9,3.95 10.03,3.03 9,3 H 3 V 4 H 4 V 5 H 3 V 6 H 4 V 7 H 3 v 1 h 1 z"
       id="path11994"
       transform="matrix(0.264583,0,0,0.264583,139.438,836.709)" />
  </g>
</svg>
