<?xml version="1.0" encoding="UTF-8" standalone="no"?>
<!-- Created with Inkscape (http://www.inkscape.org/) -->

<svg
   id="svg1100"
   version="1.1"
   viewBox="0 0 6.3499918 5.4239516"
   height="5.4239516mm"
   width="6.3499918mm"
   xmlns="http://www.w3.org/2000/svg"
   xmlns:svg="http://www.w3.org/2000/svg">
  <defs
     id="defs1097" />
  <g
     id="New_Layer_1652809083.929381"
     style="display:inline"
     transform="translate(-30.9563,-827.38187)">
    <path
       fill="#323232"
       d="m 15.5,5.5 c 1.1,0 2,-0.9 2,-2 0,-1.1 -0.9,-2 -2,-2 -1.1,0 -2,0.9 -2,2 0,1.1 0.9,2 2,2 z M 5,12 c -2.8,0 -5,2.2 -5,5 0,2.8 2.2,5 5,5 2.8,0 5,-2.2 5,-5 0,-2.8 -2.2,-5 -5,-5 z m 0,8.5 c -1.9,0 -3.5,-1.6 -3.5,-3.5 0,-1.9 1.6,-3.5 3.5,-3.5 1.9,0 3.5,1.6 3.5,3.5 0,1.9 -1.6,3.5 -3.5,3.5 z m 5.8,-10 2.4,-2.4 0.8,0.8 c 1.3,1.3 3,2.1 5.1,2.1 V 9 C 17.6,9 16.4,8.4 15.5,7.5 L 13.6,5.6 C 13.1,5.2 12.6,5 12,5 11.4,5 10.9,5.2 10.6,5.6 L 7.8,8.4 C 7.4,8.8 7.2,9.3 7.2,9.8 c 0,0.6 0.2,1.1 0.6,1.4 L 11,14 v 5 h 2 V 12.8 Z M 19,12 c -2.8,0 -5,2.2 -5,5 0,2.8 2.2,5 5,5 2.8,0 5,-2.2 5,-5 0,-2.8 -2.2,-5 -5,-5 z m 0,8.5 c -1.9,0 -3.5,-1.6 -3.5,-3.5 0,-1.9 1.6,-3.5 3.5,-3.5 1.9,0 3.5,1.6 3.5,3.5 0,1.9 -1.6,3.5 -3.5,3.5 z"
       id="path12016"
       transform="matrix(0.264583,0,0,0.264583,30.9563,826.985)" />
  </g>
</svg>
