<?xml version="1.0" encoding="UTF-8" standalone="no"?>
<!-- Created with Inkscape (http://www.inkscape.org/) -->

<svg
   id="svg1100"
   version="1.1"
   viewBox="0 0 5.2920103 5.820826"
   height="5.8208261mm"
   width="5.2920103mm"
   xmlns="http://www.w3.org/2000/svg"
   xmlns:svg="http://www.w3.org/2000/svg">
  <defs
     id="defs1097" />
  <g
     id="New_Layer_1652809083.9299278"
     style="display:inline"
     transform="translate(-81.229515,-836.97358)">
    <path
       fill="#323232"
       d="m 20,21 c -1.39,0 -2.78,-0.47 -4,-1.32 -2.44,1.71 -5.56,1.71 -8,0 C 6.78,20.53 5.39,21 4,21 H 2 v 2 h 2 c 1.38,0 2.74,-0.35 4,-0.99 a 8.753,8.753 0 0 0 8,0 c 1.26,0.65 2.62,0.99 4,0.99 h 2 V 21 Z M 3.95,19 H 4 c 1.6,0 3.02,-0.88 4,-2 0.98,1.12 2.4,2 4,2 1.6,0 3.02,-0.88 4,-2 0.98,1.12 2.4,2 4,2 h 0.05 l 1.89,-6.68 C 22.02,12.06 22,11.78 21.88,11.54 a 0.997,0.997 0 0 0 -0.6,-0.5 L 20,10.62 V 6 C 20,4.9 19.1,4 18,4 H 15 V 1 H 9 V 4 H 6 C 4.9,4 4,4.9 4,6 v 4.62 L 2.71,11.04 A 1.007,1.007 0 0 0 2.05,12.32 Z M 6,6 H 18 V 9.97 L 12,8 6,9.97 Z"
       id="path12027"
       transform="matrix(0.264583,0,0,0.264583,80.7007,836.709)" />
  </g>
</svg>
