<?xml version="1.0" encoding="UTF-8" standalone="no"?>
<!-- Created with Inkscape (http://www.inkscape.org/) -->

<svg
   id="svg1100"
   version="1.1"
   viewBox="0 0 4.2333279 5.0270772"
   height="5.0270772mm"
   width="4.2333279mm"
   xmlns="http://www.w3.org/2000/svg"
   xmlns:svg="http://www.w3.org/2000/svg">
  <defs
     id="defs1097" />
  <g
     id="New_Layer_1652809083.930479"
     style="display:inline"
     transform="translate(-120.91733,-885.90817)">
    <path
       fill="#323232"
       d="m 4,16 c 0,0.88 0.39,1.67 1,2.22 V 20 c 0,0.55 0.45,1 1,1 h 1 c 0.55,0 1,-0.45 1,-1 v -1 h 8 v 1 c 0,0.55 0.45,1 1,1 h 1 c 0.55,0 1,-0.45 1,-1 V 18.22 C 19.61,17.67 20,16.88 20,16 V 6 C 20,2.5 16.42,2 12,2 7.58,2 4,2.5 4,6 Z m 3.5,1 C 6.67,17 6,16.33 6,15.5 6,14.67 6.67,14 7.5,14 8.33,14 9,14.67 9,15.5 9,16.33 8.33,17 7.5,17 Z m 9,0 C 15.67,17 15,16.33 15,15.5 15,14.67 15.67,14 16.5,14 17.33,14 18,14.67 18,15.5 18,16.33 17.33,17 16.5,17 Z M 18,11 H 6 V 6 h 12 z"
       id="path12038"
       transform="matrix(0.264583,0,0,0.264583,119.859,885.379)" />
  </g>
</svg>
