<?xml version="1.0" encoding="UTF-8" standalone="no"?>
<!-- Created with Inkscape (http://www.inkscape.org/) -->

<svg
   id="svg1100"
   version="1.1"
   viewBox="0 0 5.829535 5.7944097"
   height="5.7944098mm"
   width="5.829535mm"
   xmlns="http://www.w3.org/2000/svg"
   xmlns:svg="http://www.w3.org/2000/svg">
  <defs
     id="defs1097" />
  <g
     id="New_Layer_1652806959.0344975"
     style="display:inline"
     transform="translate(-103.44784,-57.177699)">
    <path
       fill="#323232"
       d="M 22.7,19 13.6,9.9 C 14.5,7.6 14,4.9 12.1,3 10.1,1 7.1,0.6 4.7,1.7 L 9,6 6,9 1.6,4.7 c -1.2,2.4 -0.7,5.4 1.3,7.4 1.9,1.9 4.6,2.4 6.9,1.5 l 9.1,9.1 c 0.4,0.4 1,0.4 1.4,0 l 2.3,-2.3 C 23.1,20 23.1,19.3 22.7,19 Z"
       id="path1703"
       transform="matrix(0.264583,0,0,0.264583,103.195,56.8867)" />
  </g>
</svg>
