<?xml version="1.0" encoding="UTF-8" standalone="no"?>
<!-- Created with Inkscape (http://www.inkscape.org/) -->

<svg
   id="svg1100"
   version="1.1"
   viewBox="0 0 4.2333279 5.2916598"
   height="5.2916598mm"
   width="4.2333279mm"
   xmlns="http://www.w3.org/2000/svg"
   xmlns:svg="http://www.w3.org/2000/svg">
  <defs
     id="defs1097" />
  <g
     id="New_Layer_1652809083.9315877"
     style="display:inline"
     transform="translate(-91.548432,-885.77658)">
    <path
       fill="#323232"
       d="M 4,15.5 C 4,17.43 5.57,19 7.5,19 L 6,20.5 V 21 H 18 V 20.5 L 16.5,19 C 18.43,19 20,17.43 20,15.5 V 5 C 20,1.5 16.42,1 12,1 7.58,1 4,1.5 4,5 Z m 8,1.5 c -1.1,0 -2,-0.9 -2,-2 0,-1.1 0.9,-2 2,-2 1.1,0 2,0.9 2,2 0,1.1 -0.9,2 -2,2 z m 6,-7 H 6 V 5 h 12 z"
       id="path12060"
       transform="matrix(0.264583,0,0,0.264583,90.4901,885.512)" />
  </g>
</svg>
