<?xml version="1.0" encoding="UTF-8" standalone="no"?>
<!-- Created with Inkscape (http://www.inkscape.org/) -->

<svg
   id="svg1100"
   version="1.1"
   viewBox="0 0 4.2597861 5.6885347"
   height="5.6885347mm"
   width="4.2597861mm"
   xmlns="http://www.w3.org/2000/svg"
   xmlns:svg="http://www.w3.org/2000/svg">
  <defs
     id="defs1097" />
  <g
     id="New_Layer_1652809083.9321258"
     style="display:inline"
     transform="translate(-32.001345,-885.57758)">
    <path
       fill="#323232"
       d="m 13.49,5.48 c 1.1,0 2,-0.9 2,-2 0,-1.1 -0.9,-2 -2,-2 -1.1,0 -2,0.9 -2,2 0,1.1 0.9,2 2,2 z m -3.6,13.9 1,-4.4 2.1,2 v 6 h 2 v -7.5 l -2.1,-2 0.6,-3 c 1.3,1.5 3.3,2.5 5.5,2.5 v -2 c -1.9,0 -3.5,-1 -4.3,-2.4 l -1,-1.6 c -0.4,-0.6 -1,-1 -1.7,-1 -0.3,0 -0.5,0.1 -0.8,0.1 l -5.2,2.2 v 4.7 h 2 v -3.4 l 1.8,-0.7 -1.6,8.1 -4.9,-1 -0.4,2 z"
       id="path12071"
       transform="matrix(0.264583,0,0,0.264583,31.2367,885.186)" />
  </g>
</svg>
