<?xml version="1.0" encoding="UTF-8" standalone="no"?>
<!-- Created with Inkscape (http://www.inkscape.org/) -->

<svg
   id="svg1100"
   version="1.1"
   viewBox="0 0 4.2333279 5.0270772"
   height="5.0270772mm"
   width="4.2333279mm"
   xmlns="http://www.w3.org/2000/svg"
   xmlns:svg="http://www.w3.org/2000/svg">
  <defs
     id="defs1097" />
  <g
     id="New_Layer_1652809083.932678"
     style="display:inline"
     transform="translate(-111.12733,-885.90817)">
    <path
       fill="#323232"
       d="M 12,2 C 7.58,2 4,2.5 4,6 v 9.5 C 4,17.43 5.57,19 7.5,19 L 6,20.5 V 21 H 18 V 20.5 L 16.5,19 C 18.43,19 20,17.43 20,15.5 V 6 C 20,2.5 16.42,2 12,2 Z M 7.5,17 C 6.67,17 6,16.33 6,15.5 6,14.67 6.67,14 7.5,14 8.33,14 9,14.67 9,15.5 9,16.33 8.33,17 7.5,17 Z M 11,11 H 6 V 6 h 5 z m 5.5,6 C 15.67,17 15,16.33 15,15.5 15,14.67 15.67,14 16.5,14 17.33,14 18,14.67 18,15.5 18,16.33 17.33,17 16.5,17 Z M 18,11 H 13 V 6 h 5 z"
       id="path12082"
       transform="matrix(0.264583,0,0,0.264583,110.069,885.379)" />
  </g>
</svg>
