<?xml version="1.0" encoding="UTF-8" standalone="no"?>
<!-- Created with Inkscape (http://www.inkscape.org/) -->

<svg
   id="svg1100"
   version="1.1"
   viewBox="0 0 3.439579 5.6885347"
   height="5.6885347mm"
   width="3.439579mm"
   xmlns="http://www.w3.org/2000/svg"
   xmlns:svg="http://www.w3.org/2000/svg">
  <defs
     id="defs1097" />
  <g
     id="New_Layer_1652809083.9338236"
     style="display:inline"
     transform="translate(-82.155798,-895.23487)">
    <path
       fill="#323232"
       d="m 13.5,5.5 c 1.1,0 2,-0.9 2,-2 0,-1.1 -0.9,-2 -2,-2 -1.1,0 -2,0.9 -2,2 0,1.1 0.9,2 2,2 z M 9.8,8.9 7,23 h 2.1 l 1.8,-8 2.1,2 v 6 h 2 v -7.5 l -2.1,-2 0.6,-3 C 14.8,12 16.8,13 19,13 V 11 C 17.1,11 15.5,10 14.7,8.6 L 13.7,7 C 13.3,6.4 12.7,6 12,6 11.7,6 11.5,6.1 11.2,6.1 L 6,8.3 V 13 H 8 V 9.6 Z"
       id="path12104"
       transform="matrix(0.264583,0,0,0.264583,80.5683,894.838)" />
  </g>
</svg>
