<?xml version="1.0" encoding="UTF-8" standalone="no"?>
<!-- Created with Inkscape (http://www.inkscape.org/) -->

<svg
   id="svg1100"
   version="1.1"
   viewBox="0 0 4.7624941 5.2922244"
   height="5.2922244mm"
   width="4.7624941mm"
   xmlns="http://www.w3.org/2000/svg"
   xmlns:svg="http://www.w3.org/2000/svg">
  <defs
     id="defs1097" />
  <g
     id="New_Layer_1652809083.9343598"
     style="display:inline"
     transform="translate(-0.7937502,-876.0266)">
    <path
       fill="#323232"
       d="M 19.56,11.36 13,8.44 V 7 C 13,6.45 12.55,6 12,6 11.45,6 11,5.55 11,5 c 0,-0.55 0.45,-1 1,-1 0.55,0 1,0.45 1,1 h 2 C 15,3.16 13.34,1.7 11.44,2.05 10.26,2.27 9.29,3.22 9.06,4.4 8.76,5.96 9.66,7.34 11,7.82 V 8.45 L 4.44,11.37 C 3.56,11.75 3,12.62 3,13.57 v 0.01 C 3,14.92 4.08,16 5.42,16 H 7 v 6 h 10 v -6 h 1.58 C 19.92,16 21,14.92 21,13.58 v -0.01 c 0,-0.95 -0.56,-1.82 -1.44,-2.21 z M 18.58,14 H 17 V 13 H 7 v 1 H 5.42 C 5.19,14 5,13.81 5,13.57 5,13.4 5.1,13.25 5.25,13.19 l 6.75,-3 6.75,3 A 0.423,0.423 0 0 1 18.58,14 Z"
       id="path12115"
       transform="matrix(0.264583,0,0,0.264583,1.2e-6,875.498)" />
  </g>
</svg>
