<?xml version="1.0" encoding="UTF-8" standalone="no"?>
<!-- Created with Inkscape (http://www.inkscape.org/) -->

<svg
   id="svg1100"
   version="1.1"
   viewBox="0 0 3.7041619 5.2916598"
   height="5.2916598mm"
   width="3.7041619mm"
   xmlns="http://www.w3.org/2000/svg"
   xmlns:svg="http://www.w3.org/2000/svg">
  <defs
     id="defs1097" />
  <g
     id="New_Layer_1652809083.9354694"
     style="display:inline"
     transform="translate(-179.91191,-885.77617)">
    <path
       fill="#323232"
       d="M 12,2 C 8.14,2 5,5.14 5,9 c 0,5.25 7,13 7,13 0,0 7,-7.75 7,-13 C 19,5.14 15.86,2 12,2 Z M 10.44,12 H 9 v -1.44 l 3.35,-3.34 1.43,1.43 z m 4.45,-4.45 -0.7,0.7 -1.44,-1.44 0.7,-0.7 a 0.38,0.38 0 0 1 0.54,0 l 0.9,0.9 c 0.15,0.15 0.15,0.39 0,0.54 z"
       id="path12137"
       transform="matrix(0.264583,0,0,0.264583,178.589,885.247)" />
  </g>
</svg>
