<?xml version="1.0" encoding="UTF-8" standalone="no"?>
<!-- Created with Inkscape (http://www.inkscape.org/) -->

<svg
   id="svg1100"
   version="1.1"
   viewBox="0 0 5.0277386 4.2333278"
   height="4.2333279mm"
   width="5.0277386mm"
   xmlns="http://www.w3.org/2000/svg"
   xmlns:svg="http://www.w3.org/2000/svg">
  <defs
     id="defs1097" />
  <g
     id="New_Layer_1652809083.9360077"
     style="display:inline"
     transform="translate(-149.88833,-857.08233)">
    <path
       fill="#323232"
       d="m 18,4 h -2 v 7.9 l 2,-2 z M 6,4 H 4 v 16 h 2 z m 6,0 h -2 v 4 h 2 z m 0,6 h -2 v 4 h 2 z m 0,6 h -2 v 4 h 2 z m 10.56,-3.41 -1.15,-1.15 a 1.49,1.49 0 0 0 -2.12,0 L 14,16.73 V 20 h 3.27 l 5.29,-5.29 c 0.59,-0.59 0.59,-1.54 0,-2.12 z m -5.98,5.86 H 15.55 V 17.42 L 19,13.97 20.03,15 Z"
       id="path12148"
       transform="matrix(0.264583,0,0,0.264583,148.83,856.024)" />
  </g>
</svg>
