<?xml version="1.0" encoding="UTF-8" standalone="no"?>
<!-- Created with Inkscape (http://www.inkscape.org/) -->

<svg
   id="svg1100"
   version="1.1"
   viewBox="0 0 4.7624941 4.2333278"
   height="4.2333279mm"
   width="4.7624941mm"
   xmlns="http://www.w3.org/2000/svg"
   xmlns:svg="http://www.w3.org/2000/svg">
  <defs
     id="defs1097" />
  <g
     id="New_Layer_1652809083.9365575"
     style="display:inline"
     transform="translate(-169.60075,-866.73933)">
    <path
       fill="#323232"
       d="m 21,14 c 0,-0.55 -0.45,-1 -1,-1 h -2 v 2 h 2 c 0.55,0 1,-0.45 1,-1 z m -1,3 h -2 v 2 h 2 c 0.55,0 1,-0.45 1,-1 0,-0.55 -0.45,-1 -1,-1 z m -8,-3 h -2 v 4 h 2 c 0,1.1 0.9,2 2,2 h 3 v -8 h -3 c -1.1,0 -2,0.9 -2,2 z"
       id="path12159"
       transform="matrix(0.264583,0,0,0.264583,168.807,865.681)" />
    <path
       fill="#323232"
       d="M 5,13 C 5,11.9 5.9,11 7,11 H 8.5 C 10.43,11 12,9.43 12,7.5 12,5.57 10.43,4 8.5,4 H 5 C 4.45,4 4,4.45 4,5 4,5.55 4.45,6 5,6 H 8.5 C 9.33,6 10,6.67 10,7.5 10,8.33 9.33,9 8.5,9 H 7 c -2.21,0 -4,1.79 -4,4 0,2.21 1.79,4 4,4 H 9 V 15 H 7 C 5.9,15 5,14.1 5,13 Z"
       id="path12161"
       transform="matrix(0.264583,0,0,0.264583,168.807,865.681)" />
  </g>
</svg>
