<?xml version="1.0" encoding="UTF-8" standalone="no"?>
<!-- Created with Inkscape (http://www.inkscape.org/) -->

<svg
   id="svg1100"
   version="1.1"
   viewBox="0 0 6.3499918 5.820826"
   height="5.8208261mm"
   width="6.3499918mm"
   xmlns="http://www.w3.org/2000/svg"
   xmlns:svg="http://www.w3.org/2000/svg">
  <defs
     id="defs1097" />
  <g
     id="New_Layer_1652809083.9375618"
     style="display:inline"
     transform="translate(-1.2e-6,-827.18358)">
    <path
       fill="#323232"
       d="M 19,7 H 18.18 L 16.48,2.32 A 2.008,2.008 0 0 0 14.6,1 H 12 v 2 h 2.6 l 1.46,4 H 11.25 L 10.89,6 H 12 V 4 H 7 v 2 h 1.75 l 1.82,5 H 9.9 C 9.46,8.77 7.59,7.12 5.25,7.01 2.45,6.87 0,9.2 0,12 c 0,2.8 2.2,5 5,5 2.46,0 4.45,-1.69 4.9,-4 h 4.2 c 0.44,2.23 2.31,3.88 4.65,3.99 2.8,0.13 5.25,-2.19 5.25,-5 C 24,9.2 21.8,7 19,7 Z M 7.82,13 C 7.42,14.17 6.33,15 5,15 3.32,15 2,13.68 2,12 2,10.32 3.32,9 5,9 6.33,9 7.42,9.83 7.82,11 H 5 v 2 z M 14.1,11 H 12.7 L 11.97,9 H 15 c -0.44,0.58 -0.76,1.25 -0.9,2 z m 4.9,4 c -1.68,0 -3,-1.32 -3,-3 0,-0.93 0.41,-1.73 1.05,-2.28 l 0.96,2.64 1.88,-0.68 -0.97,-2.67 C 18.94,9.01 18.97,9 19,9 c 1.68,0 3,1.32 3,3 0,1.68 -1.32,3 -3,3 z m -8,5 H 7 l 6,3 v -2 h 4 l -6,-3 z"
       id="path12173"
       transform="matrix(0.264583,0,0,0.264583,1.2e-6,826.919)" />
  </g>
</svg>
