<?xml version="1.0" encoding="UTF-8" standalone="no"?>
<!-- Created with Inkscape (http://www.inkscape.org/) -->

<svg
   id="svg1100"
   version="1.1"
   viewBox="0 0 5.823472 5.2916598"
   height="5.2916598mm"
   width="5.823472mm"
   xmlns="http://www.w3.org/2000/svg"
   xmlns:svg="http://www.w3.org/2000/svg">
  <defs
     id="defs1097" />
  <g
     id="New_Layer_1652809083.939655"
     style="display:inline"
     transform="translate(-51.593783,-827.44775)">
    <path
       fill="#323232"
       d="M 21,11.18 V 9.72 C 21,9.25 20.84,8.8 20.54,8.44 L 16.6,3.72 C 16.22,3.26 15.66,3 15.06,3 H 3 C 1.9,3 1,3.9 1,5 v 8 c 0,1.1 0.9,2 2,2 H 3.18 C 3.6,16.16 4.7,17 6,17 7.3,17 8.4,16.16 8.82,15 h 8.37 a 2.996,2.996 0 0 0 5.82,-1 C 23,12.7 22.16,11.6 21,11.18 Z M 18.4,9 H 16 V 6.12 Z M 3,5 H 7 V 9 H 3 Z m 3,10 c -0.55,0 -1,-0.45 -1,-1 0,-0.55 0.45,-1 1,-1 0.55,0 1,0.45 1,1 0,0.55 -0.45,1 -1,1 z m 3,-2 v -2 h 3 V 9 H 9 V 5 h 5 v 8 z m 11,2 c -0.55,0 -1,-0.45 -1,-1 0,-0.55 0.45,-1 1,-1 0.55,0 1,0.45 1,1 0,0.55 -0.45,1 -1,1 z M 7,20 h 4 v -2 l 6,3 h -4 v 2 z"
       id="path12209"
       transform="matrix(0.264583,0,0,0.264583,51.3292,826.654)" />
  </g>
</svg>
