<?xml version="1.0" encoding="UTF-8" standalone="no"?>
<!-- Created with Inkscape (http://www.inkscape.org/) -->

<svg
   id="svg1100"
   version="1.1"
   viewBox="0 0 5.2922726 5.820826"
   height="5.8208261mm"
   width="5.2922726mm"
   xmlns="http://www.w3.org/2000/svg"
   xmlns:svg="http://www.w3.org/2000/svg">
  <defs
     id="defs1097" />
  <g
     id="New_Layer_1652809083.940191"
     style="display:inline"
     transform="translate(-71.439853,-836.97358)">
    <path
       fill="#323232"
       d="M 7.82,16 H 15 v -1 c 0,-2.21 1.79,-4 4,-4 h 0.74 L 17.84,2.56 A 2.009,2.009 0 0 0 15.89,1 H 12 v 2 h 3.89 l 1.4,6.25 H 17.28 A 6.008,6.008 0 0 0 13.09,14 H 7.82 A 2.996,2.996 0 0 0 4.4,12.06 c -1.18,0.23 -2.13,1.2 -2.35,2.38 A 3.002,3.002 0 0 0 5,18 c 1.3,0 2.4,-0.84 2.82,-2 z M 5,16 c -0.55,0 -1,-0.45 -1,-1 0,-0.55 0.45,-1 1,-1 0.55,0 1,0.45 1,1 0,0.55 -0.45,1 -1,1 z"
       id="path12220"
       transform="matrix(0.264583,0,0,0.264583,70.9113,836.709)" />
    <path
       fill="#323232"
       d="m 19,12 c -1.66,0 -3,1.34 -3,3 0,1.66 1.34,3 3,3 1.66,0 3,-1.34 3,-3 0,-1.66 -1.34,-3 -3,-3 z m 0,4 c -0.55,0 -1,-0.45 -1,-1 0,-0.55 0.45,-1 1,-1 0.55,0 1,0.45 1,1 0,0.55 -0.45,1 -1,1 z m -8,4 H 7 l 6,3 v -2 h 4 l -6,-3 z"
       id="path12222"
       transform="matrix(0.264583,0,0,0.264583,70.9113,836.709)" />
  </g>
</svg>
