<?xml version="1.0" encoding="UTF-8" standalone="no"?>
<!-- Created with Inkscape (http://www.inkscape.org/) -->

<svg
   id="svg1100"
   version="1.1"
   viewBox="0 0 4.3656197 4.7624941"
   height="4.7624941mm"
   width="4.3656197mm"
   xmlns="http://www.w3.org/2000/svg"
   xmlns:svg="http://www.w3.org/2000/svg">
  <defs
     id="defs1097" />
  <g
     id="New_Layer_1652809083.941194"
     style="display:inline"
     transform="translate(-0.9921872,-886.04075)">
    <path
       fill="#323232"
       d="M 19.77,7.23 19.78,7.22 16.06,3.5 15,4.56 17.11,6.67 C 16.17,7.03 15.5,7.93 15.5,9 a 2.5,2.5 0 0 0 2.5,2.5 c 0.36,0 0.69,-0.08 1,-0.21 v 7.21 c 0,0.55 -0.45,1 -1,1 -0.55,0 -1,-0.45 -1,-1 V 14 c 0,-1.1 -0.9,-2 -2,-2 H 14 V 5 C 14,3.9 13.1,3 12,3 H 6 C 4.9,3 4,3.9 4,5 v 16 h 10 v -7.5 h 1.5 v 5 a 2.5,2.5 0 0 0 5,0 V 9 C 20.5,8.31 20.22,7.68 19.77,7.23 Z M 18,10 c -0.55,0 -1,-0.45 -1,-1 0,-0.55 0.45,-1 1,-1 0.55,0 1,0.45 1,1 0,0.55 -0.45,1 -1,1 z M 8,18 V 13.5 H 6 L 10,6 v 5 h 2 z"
       id="path12234"
       transform="matrix(0.264583,0,0,0.264583,-0.0661448,885.247)" />
  </g>
</svg>
