<?xml version="1.0" encoding="UTF-8" standalone="no"?>
<!-- Created with Inkscape (http://www.inkscape.org/) -->

<svg
   id="svg1100"
   version="1.1"
   viewBox="0 0 5.8208261 5.8181801"
   height="5.8181801mm"
   width="5.8208261mm"
   xmlns="http://www.w3.org/2000/svg"
   xmlns:svg="http://www.w3.org/2000/svg">
  <defs
     id="defs1097" />
  <g
     id="New_Layer_1652809083.9417524"
     style="display:inline"
     transform="translate(-71.175583,-827.18458)">
    <path
       fill="#323232"
       d="m 18.06,22.99 h 1.66 c 0.84,0 1.53,-0.64 1.63,-1.46 L 23,5.05 H 18 V 1 h -1.97 v 4.05 h -4.97 l 0.3,2.34 c 1.71,0.47 3.31,1.32 4.27,2.26 1.44,1.42 2.43,2.89 2.43,5.29 z M 1,21.99 V 21 h 15.03 v 0.99 c 0,0.55 -0.45,1 -1.01,1 H 2.01 C 1.45,22.99 1,22.54 1,21.99 Z m 15.03,-7 c 0,-8 -15.03,-8 -15.03,0 z M 1.02,17 h 15 v 2 h -15 z"
       id="path12245"
       transform="matrix(0.264583,0,0,0.264583,70.911,826.92)" />
  </g>
</svg>
