<?xml version="1.0" encoding="UTF-8" standalone="no"?>
<!-- Created with Inkscape (http://www.inkscape.org/) -->

<svg
   id="svg1100"
   version="1.1"
   viewBox="0 0 3.968745 5.2916598"
   height="5.2916598mm"
   width="3.968745mm"
   xmlns="http://www.w3.org/2000/svg"
   xmlns:svg="http://www.w3.org/2000/svg">
  <defs
     id="defs1097" />
  <g
     id="New_Layer_1652809083.9433708"
     style="display:inline"
     transform="translate(-160.20833,-885.77617)">
    <path
       fill="#323232"
       d="m 12,6 c -1.1,0 -2,-0.9 -2,-2 0,-1.1 0.9,-2 2,-2 1.1,0 2,0.9 2,2 0,1.1 -0.9,2 -2,2 z m 5,-4 h 2 V 2.4 C 18.9,4.6 18.2,6.3 16.7,7.5 16.2,7.9 15.6,8.2 15,8.4 V 22 h -2 v -6 h -2 v 6 H 9 V 10.1 C 8.7,10.2 8.5,10.3 8.4,10.4 7.5,11.1 7.01,12 7,13.5 V 14 H 5 V 13.5 C 5,11.5 5.71,9.91 7.11,8.71 8.21,7.81 10,7 12,7 14,7 14.68,6.54 15.48,5.94 16.48,5.14 17,4 17,2.5 Z M 4,16 h 3 v 6 H 4 Z"
       id="path12278"
       transform="matrix(0.264583,0,0,0.264583,159.15,885.247)" />
  </g>
</svg>
