<?xml version="1.0" encoding="UTF-8" standalone="no"?>
<!-- Created with Inkscape (http://www.inkscape.org/) -->

<svg
   id="svg1100"
   version="1.1"
   viewBox="0 0 5.2817235 5.5569043"
   height="5.5569043mm"
   width="5.2817235mm"
   xmlns="http://www.w3.org/2000/svg"
   xmlns:svg="http://www.w3.org/2000/svg">
  <defs
     id="defs1097" />
  <g
     id="New_Layer_1652809083.9439137"
     style="display:inline"
     transform="translate(-100.81417,-856.42058)">
    <path
       fill="#323232"
       d="m 21.67,18.17 -5.3,-5.3 h -0.99 l -2.54,2.54 v 0.99 l 5.3,5.3 c 0.39,0.39 1.02,0.39 1.41,0 l 2.12,-2.12 a 0.996,0.996 0 0 0 0,-1.41 z"
       id="path12289"
       transform="matrix(0.264583,0,0,0.264583,100.285,856.156)" />
    <path
       fill="#323232"
       d="m 17.34,10.19 1.41,-1.41 2.12,2.12 a 3,3 0 0 0 0,-4.24 L 17.33,3.12 15.92,4.53 V 1.71 L 15.22,1 11.68,4.54 12.39,5.25 h 2.83 L 13.81,6.66 14.87,7.72 11.98,10.61 7.85,6.48 V 5.06 L 4.83,2.04 2,4.87 5.03,7.9 h 1.41 l 4.13,4.13 -0.85,0.85 H 7.6 l -5.3,5.3 a 0.996,0.996 0 0 0 0,1.41 l 2.12,2.12 c 0.39,0.39 1.02,0.39 1.41,0 l 5.3,-5.3 v -2.12 l 5.15,-5.15 z"
       id="path12291"
       transform="matrix(0.264583,0,0,0.264583,100.285,856.156)" />
  </g>
</svg>
