<?xml version="1.0" encoding="UTF-8" standalone="no"?>
<!-- Created with Inkscape (http://www.inkscape.org/) -->

<svg
   id="svg1100"
   version="1.1"
   viewBox="0 0 5.2916598 4.2333278"
   height="4.2333279mm"
   width="5.2916598mm"
   xmlns="http://www.w3.org/2000/svg"
   xmlns:svg="http://www.w3.org/2000/svg">
  <defs
     id="defs1097" />
  <g
     id="New_Layer_1652809083.9454556"
     style="display:inline"
     transform="translate(-31.485466,-857.08233)">
    <path
       fill="#323232"
       d="M 18,16 H 16 V 15 H 8 v 1 H 6 V 15 H 2 v 5 H 22 V 15 H 18 Z M 20,8 H 17 V 6 C 17,4.9 16.1,4 15,4 H 9 C 7.9,4 7,4.9 7,6 V 8 H 4 C 2.9,8 2,8.9 2,10 v 4 h 4 v -2 h 2 v 2 h 8 v -2 h 2 v 2 h 4 V 10 C 22,8.9 21.1,8 20,8 Z M 15,8 H 9 V 6 h 6 z"
       id="path12314"
       transform="matrix(0.264583,0,0,0.264583,30.9563,856.024)" />
  </g>
</svg>
