<?xml version="1.0" encoding="UTF-8" standalone="no"?>
<!-- Created with Inkscape (http://www.inkscape.org/) -->

<svg
   id="svg1100"
   version="1.1"
   viewBox="0 0 4.7624941 4.7624941"
   height="4.7624941mm"
   width="4.7624941mm"
   xmlns="http://www.w3.org/2000/svg"
   xmlns:svg="http://www.w3.org/2000/svg">
  <defs
     id="defs1097" />
  <g
     id="New_Layer_1652809083.9465375"
     style="display:inline"
     transform="translate(-81.494349,-866.47475)">
    <path
       fill="#323232"
       d="m 12,16 c 1.01,0 1.91,-0.39 2.62,-1 H 9.38 c 0.71,0.61 1.61,1 2.62,1 z M 8.56,14 h 6.89 c 0.26,-0.45 0.44,-0.96 0.51,-1.5 h -7.9 c 0.06,0.54 0.23,1.05 0.5,1.5 z M 12,8 C 10.99,8 10.09,8.39 9.38,9 h 5.24 C 13.91,8.39 13.01,8 12,8 Z M 8.56,10 C 8.3,10.45 8.12,10.96 8.05,11.5 h 7.9 C 15.88,10.96 15.71,10.45 15.44,10 Z"
       id="path12336"
       transform="matrix(0.264583,0,0,0.264583,80.7006,865.681)" />
    <path
       fill="#323232"
       d="M 19,3 H 5 C 3.9,3 3,3.9 3,5 v 14 c 0,1.1 0.9,2 2,2 h 14 c 1.1,0 2,-0.9 2,-2 V 5 C 21,3.9 20.1,3 19,3 Z M 12,18 C 8.69,18 6,15.31 6,12 6,8.69 8.69,6 12,6 c 3.31,0 6,2.69 6,6 0,3.31 -2.69,6 -6,6 z"
       id="path12338"
       transform="matrix(0.264583,0,0,0.264583,80.7006,865.681)" />
  </g>
</svg>
