<?xml version="1.0" encoding="UTF-8" standalone="no"?>
<!-- Created with Inkscape (http://www.inkscape.org/) -->

<svg
   id="svg1100"
   version="1.1"
   viewBox="0 0 4.2333279 5.5562429"
   height="5.5562429mm"
   width="4.2333279mm"
   xmlns="http://www.w3.org/2000/svg"
   xmlns:svg="http://www.w3.org/2000/svg">
  <defs
     id="defs1097" />
  <g
     id="New_Layer_1652809083.9475348"
     style="display:inline"
     transform="translate(-62.179732,-885.64417)">
    <path
       fill="#323232"
       fill-rule="evenodd"
       d="m 8.79,12.4 3.26,6.22 3.17,-6.21 C 15.11,12.33 15.01,12.25 14.92,12.16 14.08,12.69 13.07,13 12,13 10.93,13 9.92,12.69 9.08,12.16 8.99,12.25 8.89,12.33 8.79,12.4 Z M 6.83,12.99 A 2.995,2.995 0 0 1 4,10 3,3 0 0 1 6.52,7.04 5.5,5.5 0 0 1 12,2 5.5,5.5 0 0 1 17.48,7.04 3,3 0 0 1 20,10 c 0,1.59 -1.24,2.9 -2.81,2.99 L 12.07,23 Z"
       clip-rule="evenodd"
       id="path12351"
       transform="matrix(0.264583,0,0,0.264583,61.1214,885.115)" />
  </g>
</svg>
