<?xml version="1.0" encoding="UTF-8" standalone="no"?>
<!-- Created with Inkscape (http://www.inkscape.org/) -->

<svg
   id="svg1100"
   version="1.1"
   viewBox="0 0 5.0270772 5.2916598"
   height="5.2916598mm"
   width="5.0270772mm"
   xmlns="http://www.w3.org/2000/svg"
   xmlns:svg="http://www.w3.org/2000/svg">
  <defs
     id="defs1097" />
  <g
     id="New_Layer_1652809083.9491534"
     style="display:inline"
     transform="translate(-169.46875,-856.55317)">
    <path
       fill="#323232"
       d="m 3,14 c 0,1.3 0.84,2.4 2,2.82 V 20 H 3 v 2 H 9 V 20 H 7 V 16.82 C 8.16,16.4 9,15.3 9,14 V 6 H 3 Z M 5,8 h 2 v 3 H 5 Z M 20.63,8.54 19.68,8.22 A 0.991,0.991 0 0 1 19,7.28 V 3 C 19,2.45 18.55,2 18,2 h -3 c -0.55,0 -1,0.45 -1,1 v 4.28 c 0,0.43 -0.28,0.81 -0.68,0.95 L 12.37,8.55 C 11.55,8.82 11,9.58 11,10.44 V 20 c 0,1.1 0.9,2 2,2 h 7 c 1.1,0 2,-0.9 2,-2 V 10.44 C 22,9.58 21.45,8.82 20.63,8.54 Z M 16,4 h 1 v 1 h -1 z m -3,6.44 0.95,-0.32 C 15.18,9.72 16,8.57 16,7.28 V 7 h 1 v 0.28 a 3,3 0 0 0 2.05,2.85 L 20,10.44 V 12 H 13 Z M 20,20 h -7 v -2 h 7 z"
       id="path12384"
       transform="matrix(0.264583,0,0,0.264583,168.675,856.024)" />
  </g>
</svg>
