<?xml version="1.0" encoding="UTF-8" standalone="no"?>
<!-- Created with Inkscape (http://www.inkscape.org/) -->

<svg
   id="svg1100"
   version="1.1"
   viewBox="0 0 5.2916598 4.2333278"
   height="4.2333279mm"
   width="5.2916598mm"
   xmlns="http://www.w3.org/2000/svg"
   xmlns:svg="http://www.w3.org/2000/svg">
  <defs
     id="defs1097" />
  <g
     id="New_Layer_1652809083.9497075"
     style="display:inline"
     transform="translate(-179.11817,-847.49033)">
    <path
       fill="#323232"
       d="m 20,12 c 0,-1.1 0.9,-2 2,-2 V 6 C 22,4.9 21.1,4 20,4 H 4 C 2.9,4 2.01,4.9 2.01,6 v 4 C 3.11,10 4,10.9 4,12 a 2,2 0 0 1 -2,2 v 4 c 0,1.1 0.9,2 2,2 h 16 c 1.1,0 2,-0.9 2,-2 v -4 c -1.1,0 -2,-0.9 -2,-2 z M 15.58,16.8 12,14.5 8.42,16.8 9.5,12.68 6.21,9.99 10.45,9.74 12,5.8 13.54,9.75 17.78,10 14.49,12.69 Z"
       id="path12395"
       transform="matrix(0.264583,0,0,0.264583,178.589,846.432)" />
  </g>
</svg>
