<?xml version="1.0" encoding="UTF-8" standalone="no"?>
<!-- Created with Inkscape (http://www.inkscape.org/) -->

<svg
   id="svg1100"
   version="1.1"
   viewBox="0 0 5.2916598 4.2333278"
   height="4.2333279mm"
   width="5.2916598mm"
   xmlns="http://www.w3.org/2000/svg"
   xmlns:svg="http://www.w3.org/2000/svg">
  <defs
     id="defs1097" />
  <g
     id="New_Layer_1652809083.950787"
     style="display:inline"
     transform="translate(-169.33617,-847.49033)">
    <path
       fill="#323232"
       d="m 11,17 h 2 v -1 h 1 c 0.55,0 1,-0.45 1,-1 v -3 c 0,-0.55 -0.45,-1 -1,-1 h -3 v -1 h 4 V 8 H 13 V 7 H 11 V 8 H 10 C 9.45,8 9,8.45 9,9 v 3 c 0,0.55 0.45,1 1,1 h 3 v 1 H 9 v 2 h 2 z M 20,4 H 4 C 2.89,4 2.01,4.89 2.01,6 L 2,18 c 0,1.11 0.89,2 2,2 h 16 c 1.11,0 2,-0.89 2,-2 V 6 C 22,4.89 21.11,4 20,4 Z m 0,14 H 4 V 6 h 16 z"
       id="path12417"
       transform="matrix(0.264583,0,0,0.264583,168.807,846.432)" />
  </g>
</svg>
