<?xml version="1.0" encoding="UTF-8" standalone="no"?>
<!-- Created with Inkscape (http://www.inkscape.org/) -->

<svg
   id="svg1100"
   version="1.1"
   viewBox="0 0 4.7624941 5.8737425"
   height="5.8737426mm"
   width="4.7624941mm"
   xmlns="http://www.w3.org/2000/svg"
   xmlns:svg="http://www.w3.org/2000/svg">
  <defs
     id="defs1097" />
  <g
     id="New_Layer_1652809083.952394"
     style="display:inline"
     transform="translate(-91.283849,-875.73567)">
    <path
       fill="#323232"
       d="m 17,5 c 0.83,0 1.5,-0.67 1.5,-1.5 0,-1 -1.5,-2.7 -1.5,-2.7 0,0 -1.5,1.7 -1.5,2.7 0,0.83 0.67,1.5 1.5,1.5 z m -5,0 c 0.83,0 1.5,-0.67 1.5,-1.5 0,-1 -1.5,-2.7 -1.5,-2.7 0,0 -1.5,1.7 -1.5,2.7 0,0.83 0.67,1.5 1.5,1.5 z M 7,5 C 7.83,5 8.5,4.33 8.5,3.5 8.5,2.5 7,0.8 7,0.8 7,0.8 5.5,2.5 5.5,3.5 5.5,4.33 6.17,5 7,5 Z M 18.92,8.01 C 18.72,7.42 18.16,7 17.5,7 H 6.5 C 5.84,7 5.29,7.42 5.08,8.01 L 3,14 v 8 c 0,0.55 0.45,1 1,1 h 1 c 0.55,0 1,-0.45 1,-1 v -1 h 12 v 1 c 0,0.55 0.45,1 1,1 h 1 c 0.55,0 1,-0.45 1,-1 V 14 Z M 6.5,18 C 5.67,18 5,17.33 5,16.5 5,15.67 5.67,15 6.5,15 7.33,15 8,15.67 8,16.5 8,17.33 7.33,18 6.5,18 Z m 11,0 C 16.67,18 16,17.33 16,16.5 16,15.67 16.67,15 17.5,15 18.33,15 19,15.67 19,16.5 19,17.33 18.33,18 17.5,18 Z M 5,13 6.5,8.5 h 11 L 19,13 Z"
       id="path12450"
       transform="matrix(0.264583,0,0,0.264583,90.4901,875.524)" />
  </g>
</svg>
