<?xml version="1.0" encoding="UTF-8" standalone="no"?>
<!-- Created with Inkscape (http://www.inkscape.org/) -->

<svg
   id="svg1100"
   version="1.1"
   viewBox="0 0 4.7624941 5.2916598"
   height="5.2916598mm"
   width="4.7624941mm"
   xmlns="http://www.w3.org/2000/svg"
   xmlns:svg="http://www.w3.org/2000/svg">
  <defs
     id="defs1097" />
  <g
     id="New_Layer_1652809083.9540088"
     style="display:inline"
     transform="translate(-130.44175,-866.21017)">
    <path
       fill="#323232"
       d="M 3,2 5.01,20.23 C 5.13,21.23 5.97,22 7,22 h 10 c 1.03,0 1.87,-0.77 1.99,-1.77 L 21,2 Z m 9,17 c -1.66,0 -3,-1.34 -3,-3 0,-2 3,-5.4 3,-5.4 0,0 3,3.4 3,5.4 0,1.66 -1.34,3 -3,3 z M 18.33,8 H 5.67 L 5.23,4 h 13.53 z"
       id="path12483"
       transform="matrix(0.264583,0,0,0.264583,129.648,865.681)" />
  </g>
</svg>
