<?xml version="1.0" encoding="UTF-8" standalone="no"?>
<!-- Created with Inkscape (http://www.inkscape.org/) -->

<svg
   id="svg1100"
   version="1.1"
   viewBox="0 0 4.2323513 5.4252419"
   height="5.4252419mm"
   width="4.2323513mm"
   xmlns="http://www.w3.org/2000/svg"
   xmlns:svg="http://www.w3.org/2000/svg">
  <defs
     id="defs1097" />
  <g
     id="New_Layer_1652809083.9545543"
     style="display:inline"
     transform="translate(-150.28633,-885.7098)">
    <path
       fill="#323232"
       d="M 19.48,12.35 C 17.91,8.27 12.32,8.05 13.67,2.12 13.77,1.68 13.3,1.34 12.92,1.57 9.29,3.71 6.68,8 8.87,13.62 9.05,14.08 8.51,14.51 8.12,14.21 6.31,12.84 6.12,10.87 6.28,9.46 6.34,8.94 5.66,8.69 5.37,9.12 4.69,10.16 4,11.84 4,14.37 c 0.38,5.6 5.11,7.32 6.81,7.54 2.43,0.31 5.06,-0.14 6.95,-1.87 2.08,-1.93 2.84,-5.01 1.72,-7.69 z m -9.28,5.03 c 1.44,-0.35 2.18,-1.39 2.38,-2.31 0.33,-1.43 -0.96,-2.83 -0.09,-5.09 0.33,1.87 3.27,3.04 3.27,5.08 0.08,2.53 -2.66,4.7 -5.56,2.32 z"
       id="path12494"
       transform="matrix(0.264583,0,0,0.264583,149.228,885.314)" />
  </g>
</svg>
