<?xml version="1.0" encoding="UTF-8" standalone="no"?>
<!-- Created with Inkscape (http://www.inkscape.org/) -->

<svg
   id="svg1100"
   version="1.1"
   viewBox="0 0 4.7624941 5.5562429"
   height="5.5562429mm"
   width="4.7624941mm"
   xmlns="http://www.w3.org/2000/svg"
   xmlns:svg="http://www.w3.org/2000/svg">
  <defs
     id="defs1097" />
  <g
     id="New_Layer_1652809083.9550853"
     style="display:inline"
     transform="translate(-31.750049,-875.89458)">
    <path
       fill="#323232"
       d="m 12,22 a 9,9 0 0 0 9,-9 9,9 0 0 0 -9,9 z M 5.6,10.25 a 2.5,2.5 0 0 0 3.92,2.06 L 9.5,12.5 a 2.5,2.5 0 0 0 5,0 l -0.02,-0.19 c 0.4,0.28 0.89,0.44 1.42,0.44 a 2.5,2.5 0 0 0 2.5,-2.5 C 18.4,9.25 17.81,8.4 16.97,8 17.81,7.6 18.4,6.75 18.4,5.75 A 2.5,2.5 0 0 0 14.48,3.69 L 14.5,3.5 a 2.5,2.5 0 0 0 -5,0 L 9.52,3.69 C 9.12,3.41 8.63,3.25 8.1,3.25 A 2.5,2.5 0 0 0 5.6,5.75 C 5.6,6.75 6.19,7.6 7.03,8 6.19,8.4 5.6,9.25 5.6,10.25 Z M 12,5.5 a 2.5,2.5 0 0 1 0,5 2.5,2.5 0 0 1 0,-5 z M 3,13 a 9,9 0 0 0 9,9 9,9 0 0 0 -9,-9 z"
       id="path12505"
       transform="matrix(0.264583,0,0,0.264583,30.9563,875.63)" />
  </g>
</svg>
