<?xml version="1.0" encoding="UTF-8" standalone="no"?>
<!-- Created with Inkscape (http://www.inkscape.org/) -->

<svg
   id="svg1100"
   version="1.1"
   viewBox="0 0 4.2333279 5.2916598"
   height="5.2916598mm"
   width="4.2333279mm"
   xmlns="http://www.w3.org/2000/svg"
   xmlns:svg="http://www.w3.org/2000/svg">
  <defs
     id="defs1097" />
  <g
     id="New_Layer_1652809083.9577742"
     style="display:inline"
     transform="translate(-140.49633,-885.77617)">
    <path
       fill="#323232"
       d="m 9.17,16.83 a 4.008,4.008 0 0 0 5.66,0 4.008,4.008 0 0 0 0,-5.66 z M 18,2.01 6,2 C 4.89,2 4,2.89 4,4 v 16 c 0,1.11 0.89,2 2,2 h 12 c 1.11,0 2,-0.89 2,-2 V 4 C 20,2.89 19.11,2.01 18,2.01 Z M 10,4 c 0.55,0 1,0.45 1,1 0,0.55 -0.45,1 -1,1 C 9.45,6 9,5.55 9,5 9,4.45 9.45,4 10,4 Z M 7,4 C 7.55,4 8,4.45 8,5 8,5.55 7.55,6 7,6 6.45,6 6,5.55 6,5 6,4.45 6.45,4 7,4 Z m 5,16 C 8.69,20 6,17.31 6,14 6,10.69 8.69,8 12,8 c 3.31,0 6,2.69 6,6 0,3.31 -2.69,6 -6,6 z"
       id="path12560"
       transform="matrix(0.264583,0,0,0.264583,139.438,885.247)" />
  </g>
</svg>
