<?xml version="1.0" encoding="UTF-8" standalone="no"?>
<!-- Created with Inkscape (http://www.inkscape.org/) -->

<svg
   id="svg1100"
   version="1.1"
   viewBox="0 0 4.7624941 5.4371805"
   height="5.4371805mm"
   width="4.7624941mm"
   xmlns="http://www.w3.org/2000/svg"
   xmlns:svg="http://www.w3.org/2000/svg">
  <defs
     id="defs1097" />
  <g
     id="New_Layer_1652809083.9583018"
     style="display:inline"
     transform="translate(-11.112549,-875.95417)">
    <path
       fill="#323232"
       d="M 12,11.55 C 9.64,9.35 6.48,8 3,8 v 11 c 3.48,0 6.64,1.35 9,3.55 C 14.36,20.36 17.52,19 21,19 V 8 c -3.48,0 -6.64,1.35 -9,3.55 z M 12,8 C 13.66,8 15,6.66 15,5 15,3.34 13.66,2 12,2 10.34,2 9,3.34 9,5 c 0,1.66 1.34,3 3,3 z"
       id="path12571"
       transform="matrix(0.264583,0,0,0.264583,10.3188,875.425)" />
  </g>
</svg>
