<?xml version="1.0" encoding="UTF-8" standalone="no"?>
<!-- Created with Inkscape (http://www.inkscape.org/) -->

<svg
   id="svg1100"
   version="1.1"
   viewBox="0 0 4.2333279 4.7624941"
   height="4.7624941mm"
   width="4.2333279mm"
   xmlns="http://www.w3.org/2000/svg"
   xmlns:svg="http://www.w3.org/2000/svg">
  <defs
     id="defs1097" />
  <g
     id="New_Layer_1652809083.9593668"
     style="display:inline"
     transform="translate(-81.758932,-886.04075)">
    <path
       fill="#323232"
       d="M 18,3 V 5 H 16 V 3 H 8 V 5 H 6 V 3 H 4 v 18 h 2 v -2 h 2 v 2 h 8 v -2 h 2 v 2 h 2 V 3 Z M 8,17 H 6 V 15 H 8 Z M 8,13 H 6 V 11 H 8 Z M 8,9 H 6 V 7 h 2 z m 10,8 h -2 v -2 h 2 z m 0,-4 h -2 v -2 h 2 z M 18,9 H 16 V 7 h 2 z"
       id="path12593"
       transform="matrix(0.264583,0,0,0.264583,80.7006,885.247)" />
  </g>
</svg>
