<?xml version="1.0" encoding="UTF-8" standalone="no"?>
<!-- Created with Inkscape (http://www.inkscape.org/) -->

<svg
   id="svg1100"
   version="1.1"
   viewBox="0 0 4.7572022 5.2916598"
   height="5.2916598mm"
   width="4.7572021mm"
   xmlns="http://www.w3.org/2000/svg"
   xmlns:svg="http://www.w3.org/2000/svg">
  <defs
     id="defs1097" />
  <g
     id="New_Layer_1652809083.9620528"
     style="display:inline"
     transform="translate(-159.81339,-876.02617)">
    <path
       fill="#323232"
       d="M 12,2 C 8.43,2 5.23,3.54 3.01,6 L 12,22 20.99,6 C 18.78,3.55 15.57,2 12,2 Z M 7,7 C 7,5.9 7.9,5 9,5 10.1,5 11,5.9 11,7 11,8.1 10.1,9 9,9 7.9,9 7,8.1 7,7 Z m 5,8 c -1.1,0 -2,-0.9 -2,-2 0,-1.1 0.9,-2 2,-2 1.1,0 2,0.9 2,2 0,1.1 -0.9,2 -2,2 z"
       id="path12648"
       transform="matrix(0.264583,0,0,0.264583,159.017,875.497)" />
  </g>
</svg>
