<?xml version="1.0" encoding="UTF-8" standalone="no"?>
<!-- Created with Inkscape (http://www.inkscape.org/) -->

<svg
   id="svg1100"
   version="1.1"
   viewBox="0 0 5.8208261 4.2333278"
   height="4.2333279mm"
   width="5.8208261mm"
   xmlns="http://www.w3.org/2000/svg"
   xmlns:svg="http://www.w3.org/2000/svg">
  <defs
     id="defs1097" />
  <g
     id="New_Layer_1652809083.965729"
     style="display:inline"
     transform="translate(-110.33358,-827.97733)">
    <path
       fill="#323232"
       d="M 20,8 H 17 V 4 H 3 C 1.9,4 1,4.9 1,6 v 11 h 2 c 0,1.66 1.34,3 3,3 1.66,0 3,-1.34 3,-3 h 6 c 0,1.66 1.34,3 3,3 1.66,0 3,-1.34 3,-3 h 2 V 12 Z M 6,18.5 c -0.83,0 -1.5,-0.67 -1.5,-1.5 0,-0.83 0.67,-1.5 1.5,-1.5 0.83,0 1.5,0.67 1.5,1.5 0,0.83 -0.67,1.5 -1.5,1.5 z m 13.5,-9 1.96,2.5 H 17 V 9.5 Z m -1.5,9 c -0.83,0 -1.5,-0.67 -1.5,-1.5 0,-0.83 0.67,-1.5 1.5,-1.5 0.83,0 1.5,0.67 1.5,1.5 0,0.83 -0.67,1.5 -1.5,1.5 z"
       id="path12717"
       transform="matrix(0.264583,0,0,0.264583,110.069,826.919)" />
  </g>
</svg>
