<?xml version="1.0" encoding="UTF-8" standalone="no"?>
<!-- Created with Inkscape (http://www.inkscape.org/) -->

<svg
   id="svg1100"
   version="1.1"
   viewBox="0 0 4.7624941 4.7624941"
   height="4.7624941mm"
   width="4.7624941mm"
   xmlns="http://www.w3.org/2000/svg"
   xmlns:svg="http://www.w3.org/2000/svg">
  <defs
     id="defs1097" />
  <g
     id="New_Layer_1652809083.9662592"
     style="display:inline"
     transform="translate(-91.283849,-866.47475)">
    <path
       fill="#323232"
       d="M 18.92,6.01 C 18.72,5.42 18.16,5 17.5,5 H 15 V 3 H 9 V 5 H 6.5 C 5.84,5 5.29,5.42 5.08,6.01 L 3,12 v 8 c 0,0.55 0.45,1 1,1 h 1 c 0.55,0 1,-0.45 1,-1 v -1 h 12 v 1 c 0,0.55 0.45,1 1,1 h 1 c 0.55,0 1,-0.45 1,-1 V 12 Z M 6.5,16 C 5.67,16 5,15.33 5,14.5 5,13.67 5.67,13 6.5,13 7.33,13 8,13.67 8,14.5 8,15.33 7.33,16 6.5,16 Z m 11,0 C 16.67,16 16,15.33 16,14.5 16,13.67 16.67,13 17.5,13 18.33,13 19,13.67 19,14.5 19,15.33 18.33,16 17.5,16 Z M 5,11 6.5,6.5 h 11 L 19,11 Z"
       id="path12728"
       transform="matrix(0.264583,0,0,0.264583,90.4901,865.681)" />
  </g>
</svg>
