<?xml version="1.0" encoding="UTF-8" standalone="no"?>
<!-- Created with Inkscape (http://www.inkscape.org/) -->

<svg
   id="svg1100"
   version="1.1"
   viewBox="0 0 3.7041619 5.2916598"
   height="5.2916598mm"
   width="3.7041619mm"
   xmlns="http://www.w3.org/2000/svg"
   xmlns:svg="http://www.w3.org/2000/svg">
  <defs
     id="defs1097" />
  <g
     id="New_Layer_1652809083.966798"
     style="display:inline"
     transform="translate(-52.653415,-895.43317)">
    <path
       fill="#323232"
       d="M 12,2 C 8.13,2 5,5.13 5,9 c 0,1.74 0.5,3.37 1.41,4.84 0.95,1.54 2.2,2.86 3.16,4.4 0.47,0.75 0.81,1.45 1.17,2.26 0.26,0.55 0.47,1.5 1.26,1.5 0.79,0 1,-0.95 1.25,-1.5 0.37,-0.81 0.7,-1.51 1.17,-2.26 0.96,-1.53 2.21,-2.85 3.16,-4.4 C 18.5,12.37 19,10.74 19,9 19,5.13 15.87,2 12,2 Z m 0,9.75 a 2.5,2.5 0 0 1 0,-5 2.5,2.5 0 0 1 0,5 z"
       id="path12739"
       transform="matrix(0.264583,0,0,0.264583,51.3305,894.904)" />
  </g>
</svg>
