<?xml version="1.0" encoding="UTF-8" standalone="no"?>
<!-- Created with Inkscape (http://www.inkscape.org/) -->

<svg
   id="svg1100"
   version="1.1"
   viewBox="0 0 5.2958255 4.2333278"
   height="4.2333279mm"
   width="5.2958255mm"
   xmlns="http://www.w3.org/2000/svg"
   xmlns:svg="http://www.w3.org/2000/svg">
  <defs
     id="defs1097" />
  <g
     id="New_Layer_1652809083.967324"
     style="display:inline"
     transform="translate(-61.648466,-837.76733)">
    <path
       fill="#323232"
       fill-rule="evenodd"
       d="M 22,10 C 22.32,6.72 17.72,4 12.01,4 6.3,4 1.7,6.72 2.02,10 Z M 5.35,13.5 c 0.55,0 0.78,0.14 1.15,0.36 0.45,0.27 1.07,0.64 2.18,0.64 1.11,0 1.73,-0.37 2.18,-0.64 0.37,-0.23 0.59,-0.36 1.15,-0.36 0.55,0 0.78,0.14 1.15,0.36 0.45,0.27 1.07,0.64 2.18,0.64 1.11,0 1.73,-0.37 2.18,-0.64 0.37,-0.23 0.59,-0.36 1.15,-0.36 0.55,0 0.78,0.14 1.15,0.36 0.45,0.27 1.07,0.63 2.17,0.64 v -1.98 c 0,0 -0.79,-0.16 -1.16,-0.38 -0.45,-0.27 -1.07,-0.64 -2.18,-0.64 -1.11,0 -1.73,0.37 -2.18,0.64 -0.37,0.23 -0.6,0.36 -1.15,0.36 -0.55,0 -0.78,-0.14 -1.15,-0.36 -0.45,-0.27 -1.07,-0.64 -2.18,-0.64 -1.11,0 -1.73,0.37 -2.18,0.64 C 9.44,12.37 9.22,12.5 8.66,12.5 8.11,12.5 7.88,12.36 7.51,12.14 7.06,11.87 6.44,11.5 5.33,11.5 4.22,11.5 3.6,11.87 3.15,12.14 2.78,12.37 2.56,12.5 2,12.5 v 2 c 1.11,0 1.73,-0.37 2.21,-0.64 C 4.58,13.63 4.8,13.5 5.35,13.5 Z M 2,16 v 2 c 0,1.1 0.9,2 2,2 h 16 c 1.1,0 2,-0.9 2,-2 v -2 z"
       clip-rule="evenodd"
       id="path12750"
       transform="matrix(0.264583,0,0,0.264583,61.1193,836.709)" />
  </g>
</svg>
