<?xml version="1.0" encoding="UTF-8" standalone="no"?>
<!-- Created with Inkscape (http://www.inkscape.org/) -->

<svg
   id="svg1100"
   version="1.1"
   viewBox="0 0 4.7624941 4.7624941"
   height="4.7624941mm"
   width="4.7624941mm"
   xmlns="http://www.w3.org/2000/svg"
   xmlns:svg="http://www.w3.org/2000/svg">
  <defs
     id="defs1097" />
  <g
     id="New_Layer_1652809083.9678607"
     style="display:inline"
     transform="translate(-110.86275,-866.47475)">
    <path
       fill="#323232"
       d="M 20.5,3 20.34,3.03 15,5.1 9,3 3.36,4.9 C 3.15,4.97 3,5.15 3,5.38 V 20.5 C 3,20.78 3.22,21 3.5,21 L 3.66,20.97 9,18.9 15,21 20.64,19.1 C 20.85,19.03 21,18.85 21,18.62 V 3.5 C 21,3.22 20.78,3 20.5,3 Z M 15,19 9,16.89 V 5 l 6,2.11 z"
       id="path12761"
       transform="matrix(0.264583,0,0,0.264583,110.069,865.681)" />
  </g>
</svg>
