<?xml version="1.0" encoding="UTF-8" standalone="no"?>
<!-- Created with Inkscape (http://www.inkscape.org/) -->

<svg
   id="svg1100"
   version="1.1"
   viewBox="0 0 5.2916598 5.2916598"
   height="5.2916598mm"
   width="5.2916598mm"
   xmlns="http://www.w3.org/2000/svg"
   xmlns:svg="http://www.w3.org/2000/svg">
  <defs
     id="defs1097" />
  <g
     id="New_Layer_1652809083.9689386"
     style="display:inline"
     transform="translate(-41.804166,-846.96117)">
    <path
       fill="#323232"
       d="M 20,6 H 16 V 4 C 16,2.9 15.1,2 14,2 H 10 C 8.9,2 8,2.9 8,4 V 6 H 4 C 2.9,6 2,6.9 2,8 v 12 c 0,1.1 0.9,2 2,2 h 16 c 1.1,0 2,-0.9 2,-2 V 8 C 22,6.9 21.1,6 20,6 Z M 10,4 h 4 v 2 h -4 z m 6,11 h -3 v 3 H 11 V 15 H 8 v -2 h 3 v -3 h 2 v 3 h 3 z"
       id="path12783"
       transform="matrix(0.264583,0,0,0.264583,41.275,846.432)" />
  </g>
</svg>
