<?xml version="1.0" encoding="UTF-8" standalone="no"?>
<!-- Created with Inkscape (http://www.inkscape.org/) -->

<svg
   id="svg1100"
   version="1.1"
   viewBox="0 0 5.2917166 5.2810769"
   height="5.2810769mm"
   width="5.2917166mm"
   xmlns="http://www.w3.org/2000/svg"
   xmlns:svg="http://www.w3.org/2000/svg">
  <defs
     id="defs1097" />
  <g
     id="New_Layer_1652809083.970472"
     style="display:inline"
     transform="translate(-100.80855,-837.24317)">
    <path
       fill="#323232"
       d="m 14.17,13.71 1.4,-2.42 c 0.09,-0.15 0.05,-0.34 -0.08,-0.45 L 14.01,9.68 C 14.04,9.46 14.06,9.23 14.06,9 14.06,8.77 14.04,8.54 14.01,8.31 L 15.49,7.15 C 15.62,7.04 15.66,6.85 15.57,6.7 L 14.17,4.28 A 0.354,0.354 0 0 0 13.74,4.13 L 12,4.83 C 11.64,4.55 11.25,4.32 10.82,4.14 L 10.56,2.29 A 0.364,0.364 0 0 0 10.21,2 H 7.41 C 7.24,2 7.09,2.13 7.06,2.3 L 6.8,4.15 C 6.38,4.33 5.98,4.56 5.62,4.84 L 3.88,4.14 C 3.72,4.08 3.54,4.14 3.45,4.29 L 2.05,6.71 C 1.96,6.86 2,7.05 2.13,7.16 L 3.61,8.32 C 3.58,8.54 3.56,8.77 3.56,9 c 0,0.23 0.02,0.46 0.05,0.69 L 2.13,10.85 C 2,10.96 1.96,11.15 2.05,11.3 l 1.4,2.42 c 0.09,0.15 0.27,0.21 0.43,0.15 l 1.74,-0.7 c 0.36,0.28 0.75,0.51 1.18,0.69 l 0.26,1.85 C 7.09,15.87 7.24,16 7.41,16 h 2.8 c 0.17,0 0.32,-0.13 0.35,-0.3 l 0.26,-1.85 c 0.42,-0.18 0.82,-0.41 1.18,-0.69 l 1.74,0.7 c 0.16,0.06 0.34,0 0.43,-0.15 z M 8.81,11 c -1.1,0 -2,-0.9 -2,-2 0,-1.1 0.9,-2 2,-2 1.1,0 2,0.9 2,2 0,1.1 -0.9,2 -2,2 z m 13.11,7.67 -0.96,-0.74 C 20.98,17.79 21,17.64 21,17.49 c 0,-0.15 -0.01,-0.3 -0.04,-0.44 l 0.95,-0.74 c 0.08,-0.07 0.11,-0.19 0.05,-0.29 l -0.9,-1.55 c -0.05,-0.1 -0.17,-0.13 -0.28,-0.1 l -1.11,0.45 C 19.44,14.64 19.19,14.49 18.91,14.38 L 18.74,13.2 A 0.216,0.216 0 0 0 18.53,13 h -1.79 c -0.11,0 -0.21,0.08 -0.22,0.19 l -0.17,1.18 c -0.27,0.12 -0.53,0.26 -0.76,0.44 l -1.11,-0.45 a 0.23,0.23 0 0 0 -0.28,0.1 l -0.9,1.55 c -0.05,0.1 -0.04,0.22 0.05,0.29 l 0.95,0.74 a 3.145,3.145 0 0 0 0,0.88 l -0.95,0.74 c -0.08,0.07 -0.11,0.19 -0.05,0.29 l 0.9,1.55 c 0.05,0.1 0.17,0.13 0.28,0.1 l 1.11,-0.45 c 0.23,0.18 0.48,0.33 0.76,0.44 l 0.17,1.18 c 0.02,0.11 0.11,0.19 0.22,0.19 h 1.79 c 0.11,0 0.21,-0.08 0.22,-0.19 l 0.17,-1.18 c 0.27,-0.12 0.53,-0.26 0.75,-0.44 l 1.12,0.45 c 0.1,0.04 0.22,0 0.28,-0.1 l 0.9,-1.55 C 22.03,18.86 22,18.74 21.92,18.67 Z m -4.29,0.16 a 1.3505004,1.3505004 0 1 1 0.002,-2.701 1.3505004,1.3505004 0 0 1 -0.002,2.701 z"
       id="path12808"
       transform="matrix(0.264583,0,0,0.264583,100.279,836.714)" />
  </g>
</svg>
