<?xml version="1.0" encoding="UTF-8" standalone="no"?>
<!-- Created with Inkscape (http://www.inkscape.org/) -->

<svg
   id="svg1100"
   version="1.1"
   viewBox="0 0 5.2916598 4.2333278"
   height="4.2333279mm"
   width="5.2916598mm"
   xmlns="http://www.w3.org/2000/svg"
   xmlns:svg="http://www.w3.org/2000/svg">
  <defs
     id="defs1097" />
  <g
     id="New_Layer_1652809083.9710011"
     style="display:inline"
     transform="translate(-21.166666,-857.08233)">
    <path
       fill="#323232"
       d="m 5,8 h 2 v 8 H 5 Z m 7,0 H 9 C 8.45,8 8,8.45 8,9 v 6 c 0,0.55 0.45,1 1,1 h 3 c 0.55,0 1,-0.45 1,-1 V 9 C 13,8.45 12.55,8 12,8 Z m -1,6 h -1 v -4 h 1 z m 7,-6 h -3 c -0.55,0 -1,0.45 -1,1 v 6 c 0,0.55 0.45,1 1,1 h 3 c 0.55,0 1,-0.45 1,-1 V 9 C 19,8.45 18.55,8 18,8 Z m -1,6 h -1 v -4 h 1 z"
       id="path12819"
       transform="matrix(0.264583,0,0,0.264583,20.6375,856.024)" />
    <path
       fill="#323232"
       d="M 2,4 V 20 H 22 V 4 Z M 4,18 V 6 h 16 v 12 z"
       id="path12821"
       transform="matrix(0.264583,0,0,0.264583,20.6375,856.024)" />
  </g>
</svg>
