<?xml version="1.0" encoding="UTF-8" standalone="no"?>
<!-- Created with Inkscape (http://www.inkscape.org/) -->

<svg
   id="svg1100"
   version="1.1"
   viewBox="0 0 5.2926602 3.7041619"
   height="3.7041619mm"
   width="5.2926602mm"
   xmlns="http://www.w3.org/2000/svg"
   xmlns:svg="http://www.w3.org/2000/svg">
  <defs
     id="defs1097" />
  <g
     id="New_Layer_1652809083.9719882"
     style="display:inline"
     transform="translate(-110.59817,-847.75492)">
    <path
       fill="#323232"
       d="M 19,7 C 19,5.9 18.1,5 17,5 h -3 v 2 h 3 V 9.65 L 13.52,14 H 10 V 9 H 6 C 3.79,9 2,10.79 2,13 v 3 h 2 c 0,1.66 1.34,3 3,3 1.66,0 3,-1.34 3,-3 h 4.48 L 19,10.35 Z M 7,17 C 6.45,17 6,16.55 6,16 h 2 c 0,0.55 -0.45,1 -1,1 z"
       id="path12833"
       transform="matrix(0.264583,0,0,0.264583,110.069,846.432)" />
    <path
       fill="#323232"
       d="M 10,6 H 5 v 2 h 5 z m 9,7 c -1.66,0 -3,1.34 -3,3 0,1.66 1.34,3 3,3 1.66,0 3,-1.34 3,-3 0,-1.66 -1.34,-3 -3,-3 z m 0,4 c -0.55,0 -1,-0.45 -1,-1 0,-0.55 0.45,-1 1,-1 0.55,0 1,0.45 1,1 0,0.55 -0.45,1 -1,1 z"
       id="path12835"
       transform="matrix(0.264583,0,0,0.264583,110.07,846.432)" />
  </g>
</svg>
