<?xml version="1.0" encoding="UTF-8" standalone="no"?>
<!-- Created with Inkscape (http://www.inkscape.org/) -->

<svg
   id="svg1100"
   version="1.1"
   viewBox="0 0 4.7624941 4.2333278"
   height="4.2333279mm"
   width="4.7624941mm"
   xmlns="http://www.w3.org/2000/svg"
   xmlns:svg="http://www.w3.org/2000/svg">
  <defs
     id="defs1097" />
  <g
     id="New_Layer_1652809083.9741411"
     style="display:inline"
     transform="translate(-159.81075,-866.73933)">
    <path
       fill="#323232"
       d="m 17,4 4,4 -4,4 V 9 H 13 V 7 h 4 z M 10,7 C 9.45,7 9,7.45 9,8 9,8.55 9.45,9 10,9 10.55,9 11,8.55 11,8 11,7.45 10.55,7 10,7 Z M 6,7 C 5.45,7 5,7.45 5,8 5,8.55 5.45,9 6,9 6.55,9 7,8.55 7,8 7,7.45 6.55,7 6,7 Z m 1,10 h 4 V 15 H 7 v -3 l -4,4 4,4 z m 7,0 c 0.55,0 1,-0.45 1,-1 0,-0.55 -0.45,-1 -1,-1 -0.55,0 -1,0.45 -1,1 0,0.55 0.45,1 1,1 z m 4,0 c 0.55,0 1,-0.45 1,-1 0,-0.55 -0.45,-1 -1,-1 -0.55,0 -1,0.45 -1,1 0,0.55 0.45,1 1,1 z"
       id="path12847"
       transform="matrix(0.264583,0,0,0.264583,159.017,865.681)" />
  </g>
</svg>
