<?xml version="1.0" encoding="UTF-8" standalone="no"?>
<!-- Created with Inkscape (http://www.inkscape.org/) -->

<svg
   id="svg1100"
   version="1.1"
   viewBox="0 0 5.556243 3.968745"
   height="3.968745mm"
   width="5.5562429mm"
   xmlns="http://www.w3.org/2000/svg"
   xmlns:svg="http://www.w3.org/2000/svg">
  <defs
     id="defs1097" />
  <g
     id="New_Layer_1652809083.9773388"
     style="display:inline"
     transform="translate(-41.671883,-837.89891)">
    <path
       fill="#323232"
       d="m 1,5 h 14 l -6,9 v 4 h 2 v 2 H 5 v -2 h 2 v -4 z m 9.1,4 1.4,-2 H 4.49 l 1.4,2 z M 17,5 h 5 v 3 h -3 v 9 c 0,1.66 -1.34,3 -3,3 -1.66,0 -3,-1.34 -3,-3 0,-1.66 1.34,-3 3,-3 a 3,3 0 0 1 1,0.17 z"
       id="path12913"
       transform="matrix(0.264583,0,0,0.264583,41.4073,836.576)" />
  </g>
</svg>
