<?xml version="1.0" encoding="UTF-8" standalone="no"?>
<!-- Created with Inkscape (http://www.inkscape.org/) -->

<svg
   id="svg1100"
   version="1.1"
   viewBox="0 0 5.6118054 5.6382637"
   height="5.6382637mm"
   width="5.6118054mm"
   xmlns="http://www.w3.org/2000/svg"
   xmlns:svg="http://www.w3.org/2000/svg">
  <defs
     id="defs1097" />
  <g
     id="New_Layer_1652809083.9778817"
     style="display:inline"
     transform="translate(-21.006562,-837.06417)">
    <path
       fill="#323232"
       d="M 16,14 V 6 c 0,-1.76 2.24,-4 5,-4 v 16.17 l -2,-2 V 14 Z M 20.49,23.31 10.02,12.85 C 9.69,12.94 9.36,13 9,13 v 9 H 7 V 13 C 4.79,13 3,11.21 3,9 V 5.83 L 0.69,3.51 2.1,2.1 21.9,21.9 Z M 6.17,9 5,7.83 V 9 Z M 9,2 H 7 v 2.17 l 2,2 z m 4,7 V 2 h -2 v 6.17 l 1.85,1.85 C 12.94,9.69 13,9.36 13,9 Z"
       id="path12924"
       transform="matrix(0.264583,0,0,0.264583,20.824,836.535)" />
  </g>
</svg>
