<?xml version="1.0" encoding="UTF-8" standalone="no"?>
<!-- Created with Inkscape (http://www.inkscape.org/) -->

<svg
   id="svg1100"
   version="1.1"
   viewBox="0 0 3.7041619 5.2916598"
   height="5.2916598mm"
   width="3.7041619mm"
   xmlns="http://www.w3.org/2000/svg"
   xmlns:svg="http://www.w3.org/2000/svg">
  <defs
     id="defs1097" />
  <g
     id="New_Layer_1652809083.978957"
     style="display:inline"
     transform="translate(-72.233915,-895.43317)">
    <path
       fill="#323232"
       d="M 12,2 C 8.14,2 5,5.14 5,9 c 0,5.25 7,13 7,13 0,0 7,-7.75 7,-13 0,-3.86 -3.14,-7 -7,-7 z m 0.88,13.75 H 11.13 V 14 h 1.75 z m 0,-2.87 h -1.75 c 0,-2.84 2.62,-2.62 2.62,-4.38 0,-0.96 -0.79,-1.75 -1.75,-1.75 -0.96,0 -1.75,0.79 -1.75,1.75 H 8.5 C 8.5,6.57 10.07,5 12,5 c 1.93,0 3.5,1.57 3.5,3.5 0,2.19 -2.62,2.41 -2.62,4.38 z"
       id="path12946"
       transform="matrix(0.264583,0,0,0.264583,70.911,894.904)" />
  </g>
</svg>
