<?xml version="1.0" encoding="UTF-8" standalone="no"?>
<!-- Created with Inkscape (http://www.inkscape.org/) -->

<svg
   id="svg1100"
   version="1.1"
   viewBox="0 0 5.2387433 5.4530558"
   height="5.4530559mm"
   width="5.2387433mm"
   xmlns="http://www.w3.org/2000/svg"
   xmlns:svg="http://www.w3.org/2000/svg">
  <defs
     id="defs1097" />
  <g
     id="New_Layer_1652809083.979501"
     style="display:inline"
     transform="translate(-110.62477,-856.47217)">
    <path
       fill="#323232"
       d="M 21.19,21.19 2.81,2.81 1.39,4.22 4,6.83 V 16 c 0,0.88 0.39,1.67 1,2.22 V 20 c 0,0.55 0.45,1 1,1 h 1 c 0.55,0 1,-0.45 1,-1 v -1 h 8 v 1 c 0,0.55 0.45,1 1,1 h 1 c 0.05,0 0.09,-0.02 0.14,-0.03 l 1.64,1.64 z M 7.5,17 C 6.67,17 6,16.33 6,15.5 6,14.67 6.67,14 7.5,14 8.33,14 9,14.67 9,15.5 9,16.33 8.33,17 7.5,17 Z M 6,11 V 8.83 L 8.17,11 Z M 8.83,6 5.78,2.95 C 7.24,2.16 9.48,2 12,2 c 4.42,0 8,0.5 8,4 v 10 c 0,0.35 -0.08,0.67 -0.19,0.98 L 13.83,11 H 18 V 6 Z"
       id="path12957"
       transform="matrix(0.264583,0,0,0.264583,110.257,855.943)" />
  </g>
</svg>
