<?xml version="1.0" encoding="UTF-8" standalone="no"?>
<!-- Created with Inkscape (http://www.inkscape.org/) -->

<svg
   id="svg1100"
   version="1.1"
   viewBox="0 0 6.3499918 4.2333278"
   height="4.2333279mm"
   width="6.3499918mm"
   xmlns="http://www.w3.org/2000/svg"
   xmlns:svg="http://www.w3.org/2000/svg">
  <defs
     id="defs1097" />
  <g
     id="New_Layer_1652809083.9805846"
     style="display:inline"
     transform="translate(-10.3188,-827.97733)">
    <path
       fill="#323232"
       d="M 18.18,10 16.48,5.32 A 2.008,2.008 0 0 0 14.6,4 H 12 v 2 h 2.6 l 1.46,4 H 11.25 L 10.89,9 H 12 V 7 H 7 v 2 h 1.75 l 1.82,5 H 9.9 C 9.46,11.77 7.59,10.12 5.25,10.01 2.45,9.87 0,12.2 0,15 c 0,2.8 2.2,5 5,5 2.46,0 4.45,-1.69 4.9,-4 h 4.2 c 0.44,2.23 2.31,3.88 4.65,3.99 2.8,0.13 5.25,-2.19 5.25,-5 0,-2.8 -2.2,-5 -5,-5 H 18.18 Z M 7.82,16 C 7.42,17.17 6.33,18 5,18 3.32,18 2,16.68 2,15 c 0,-1.68 1.32,-3 3,-3 1.33,0 2.42,0.83 2.82,2 H 5 v 2 z M 14.1,14 H 12.7 L 11.97,12 H 15 c -0.44,0.58 -0.76,1.25 -0.9,2 z m 4.9,4 c -1.68,0 -3,-1.32 -3,-3 0,-0.93 0.41,-1.73 1.05,-2.28 l 0.96,2.64 1.88,-0.68 -0.97,-2.67 c 0.03,0 0.06,-0.01 0.09,-0.01 1.68,0 3,1.32 3,3 0,1.68 -1.33,3 -3.01,3 z"
       id="path12979"
       transform="matrix(0.264583,0,0,0.264583,10.3188,826.919)" />
  </g>
</svg>
