<?xml version="1.0" encoding="UTF-8" standalone="no"?>
<!-- Created with Inkscape (http://www.inkscape.org/) -->

<svg
   id="svg1100"
   version="1.1"
   viewBox="0 0 4.7624941 5.2916598"
   height="5.2916598mm"
   width="4.7624941mm"
   xmlns="http://www.w3.org/2000/svg"
   xmlns:svg="http://www.w3.org/2000/svg">
  <defs
     id="defs1097" />
  <g
     id="New_Layer_1652809083.981119"
     style="display:inline"
     transform="translate(-140.23175,-866.21017)">
    <path
       fill="#323232"
       d="m 12,2 a 9,9 0 0 0 -9,9 c 0,4.17 2.84,7.67 6.69,8.69 L 12,22 14.31,19.69 C 18.16,18.67 21,15.17 21,11 A 9,9 0 0 0 12,2 Z m 0,2 c 1.66,0 3,1.34 3,3 0,1.66 -1.34,3 -3,3 C 10.34,10 9,8.66 9,7 9,5.34 10.34,4 12,4 Z m 0,14.3 A 7.2,7.2 0 0 1 6,15.08 C 6.03,13.09 10,12 12,12 c 1.99,0 5.97,1.09 6,3.08 a 7.2,7.2 0 0 1 -6,3.22 z"
       id="path12990"
       transform="matrix(0.264583,0,0,0.264583,139.438,865.681)" />
  </g>
</svg>
