<?xml version="1.0" encoding="UTF-8" standalone="no"?>
<!-- Created with Inkscape (http://www.inkscape.org/) -->

<svg
   id="svg1100"
   version="1.1"
   viewBox="0 0 3.7041619 5.2916598"
   height="5.2916598mm"
   width="3.7041619mm"
   xmlns="http://www.w3.org/2000/svg"
   xmlns:svg="http://www.w3.org/2000/svg">
  <defs
     id="defs1097" />
  <g
     id="New_Layer_1652809083.9816666"
     style="display:inline"
     transform="translate(-11.641715,-895.43317)">
    <path
       fill="#323232"
       d="M 12,2 C 8.14,2 5,5.14 5,9 c 0,5.25 7,13 7,13 0,0 7,-7.75 7,-13 0,-3.86 -3.14,-7 -7,-7 z m 0,2 A 2.0005001,2.0005001 0 1 1 12.001,8.001 2.0005001,2.0005001 0 0 1 12,4 Z m 0,10 C 10.33,14 8.86,13.15 8,11.85 8.02,10.53 10.67,9.8 12,9.8 c 1.33,0 3.98,0.73 4,2.05 A 4.783,4.783 0 0 1 12,14 Z"
       id="path13001"
       transform="matrix(0.264583,0,0,0.264583,10.3188,894.904)" />
  </g>
</svg>
