<?xml version="1.0" encoding="UTF-8" standalone="no"?>
<!-- Created with Inkscape (http://www.inkscape.org/) -->

<svg
   id="svg1100"
   version="1.1"
   viewBox="0 0 4.7624941 4.825994"
   height="4.825994mm"
   width="4.7624941mm"
   xmlns="http://www.w3.org/2000/svg"
   xmlns:svg="http://www.w3.org/2000/svg">
  <defs
     id="defs1097" />
  <g
     id="New_Layer_1652809083.982198"
     style="display:inline"
     transform="translate(-140.23175,-876.25925)">
    <path
       fill="#323232"
       d="m 21,15 v -2 h -3.07 c -0.05,-0.39 -0.12,-0.77 -0.22,-1.14 l 2.58,-1.49 -1,-1.73 L 16.92,10 C 16.64,9.52 16.3,9.09 15.93,8.71 15.97,8.48 16,8.25 16,8 16,7.2 15.76,6.45 15.35,5.82 L 17,4.17 15.59,2.76 13.87,4.48 c -1.68,-0.89 -3.1,-0.33 -3.73,0 L 8.41,2.76 7,4.17 8.65,5.82 A 3.99,3.99 0 0 0 8,8 C 8,8.25 8.03,8.48 8.07,8.72 7.7,9.1 7.36,9.53 7.08,10 l -2.37,-1.37 -1,1.73 2.58,1.49 C 6.19,12.22 6.12,12.6 6.07,12.99 H 3 v 2 h 3.07 c 0.05,0.39 0.12,0.77 0.22,1.14 l -2.58,1.49 1,1.73 L 7.08,18 c 1.08,1.81 2.88,3 4.92,3 2.04,0 3.84,-1.19 4.92,-3 l 2.37,1.37 1,-1.73 -2.58,-1.49 c 0.1,-0.37 0.17,-0.75 0.22,-1.14 H 21 Z m -8,2 h -2 v -6 h 2 z"
       id="path13012-0"
       transform="matrix(0.264583,0,0,0.264583,139.438,875.529)" />
  </g>
</svg>
