<?xml version="1.0" encoding="UTF-8" standalone="no"?>
<!-- Created with Inkscape (http://www.inkscape.org/) -->

<svg
   id="svg1100"
   version="1.1"
   viewBox="0 0 5.2892213 4.7624941"
   height="4.7624941mm"
   width="5.2892213mm"
   xmlns="http://www.w3.org/2000/svg"
   xmlns:svg="http://www.w3.org/2000/svg">
  <defs
     id="defs1097" />
  <g
     id="New_Layer_1652809083.9827428"
     style="display:inline"
     transform="translate(-91.020497,-856.81775)">
    <path
       fill="#323232"
       d="M 21.31,17.38 18.92,15.25 C 19.44,12.89 17.56,11 15.5,11 14.34,11 12,11.9 12,14.5 c 0,0.97 0.39,1.84 1.03,2.47 l -0.71,0.71 A 4.457,4.457 0 0 1 11,14.5 c 0,-1.7 0.96,-3.17 2.35,-3.93 A 5,5 0 0 0 11.07,10 C 8.69,10 6.7,11.65 6.16,13.87 A 2.997,2.997 0 0 1 4,11 C 4,9.34 5.34,8 7,8 h 2.5 a 2.5,2.5 0 0 0 0,-5 H 8 C 7.45,3 7,3.45 7,4 7,4.55 7.45,5 8,5 H 9.5 C 9.78,5 10,5.22 10,5.5 10,5.78 9.78,6 9.5,6 H 7 a 5.002,5.002 0 0 0 -1,9.9 v 0.03 C 6,18.73 8.27,21 11.07,21 h 8.86 c 1.87,0 2.81,-2.34 1.38,-3.62 z M 18,19 c -0.55,0 -1,-0.45 -1,-1 0,-0.55 0.45,-1 1,-1 0.55,0 1,0.45 1,1 0,0.55 -0.45,1 -1,1 z"
       id="path13023"
       transform="matrix(0.264583,0,0,0.264583,90.488,856.024)" />
  </g>
</svg>
