<?xml version="1.0" encoding="UTF-8" standalone="no"?>
<!-- Created with Inkscape (http://www.inkscape.org/) -->

<svg
   id="svg1100"
   version="1.1"
   viewBox="0 0 3.7041619 5.2916598"
   height="5.2916598mm"
   width="3.7041619mm"
   xmlns="http://www.w3.org/2000/svg"
   xmlns:svg="http://www.w3.org/2000/svg">
  <defs
     id="defs1097" />
  <g
     id="New_Layer_1652809083.9832733"
     style="display:inline"
     transform="translate(-32.279215,-895.43317)">
    <path
       fill="#323232"
       d="M 18,8 C 18,4.69 15.31,2 12,2 8.69,2 6,4.69 6,8 c 0,4.5 6,11 6,11 0,0 6,-6.5 6,-11 z m -8,0 c 0,-1.1 0.9,-2 2,-2 1.1,0 2,0.9 2,2 A 2,2 0 1 1 10,8 Z M 5,20 v 2 h 14 v -2 z"
       id="path13034"
       transform="matrix(0.264583,0,0,0.264583,30.9563,894.904)" />
  </g>
</svg>
