<?xml version="1.0" encoding="UTF-8" standalone="no"?>
<!-- Created with Inkscape (http://www.inkscape.org/) -->

<svg
   id="svg1100"
   version="1.1"
   viewBox="0 0 4.3159838 5.1725979"
   height="5.1725979mm"
   width="4.3159838mm"
   xmlns="http://www.w3.org/2000/svg"
   xmlns:svg="http://www.w3.org/2000/svg">
  <defs
     id="defs1097" />
  <g
     id="New_Layer_1652809083.9843452"
     style="display:inline"
     transform="translate(-21.654522,-885.8357)">
    <path
       fill="#323232"
       d="M 19.28,4.93 17.16,2.81 c -0.78,-0.78 -2.05,-0.78 -2.83,0 l -2.83,2.83 2.12,2.12 2.12,-2.12 3.54,3.54 a 3.012,3.012 0 0 0 0,-4.25 z M 5.49,13.77 c 0.59,0.59 1.54,0.59 2.12,0 L 10.08,11.3 7.96,9.17 5.49,11.64 c -0.59,0.59 -0.59,1.54 0,2.13 z"
       id="path13056"
       transform="matrix(0.264583,0,0,0.264583,20.6372,885.247)" />
    <path
       fill="#323232"
       d="M 15.04,7.76 14.33,8.47 13.62,9.18 10.44,6 C 9.85,5.4 8.9,5.4 8.32,5.99 a 1.49,1.49 0 0 0 0,2.12 L 11.5,11.29 10.79,12 4.43,18.36 c -0.78,0.78 -0.78,2.05 0,2.83 0.78,0.78 2.05,0.78 2.83,0 L 16.45,12 a 0.99702056,0.99702056 0 1 0 1.41,-1.41 z"
       id="path13058"
       transform="matrix(0.264583,0,0,0.264583,20.6372,885.247)" />
  </g>
</svg>
