<?xml version="1.0" encoding="UTF-8" standalone="no"?>
<!-- Created with Inkscape (http://www.inkscape.org/) -->

<svg
   id="svg1100"
   version="1.1"
   viewBox="0 0 5.8208261 5.8209595"
   height="5.8209596mm"
   width="5.8208261mm"
   xmlns="http://www.w3.org/2000/svg"
   xmlns:svg="http://www.w3.org/2000/svg">
  <defs
     id="defs1097" />
  <g
     id="New_Layer_1652809083.9853342"
     style="display:inline"
     transform="translate(-80.965183,-827.18345)">
    <path
       fill="#323232"
       d="M 23,8 A 7,7 0 0 0 11.05,3.05 33.798,33.798 0 0 0 9,3 C 4.58,3 1,3.5 1,7 V 17.5 A 3.5,3.5 0 0 0 4.5,21 L 3,22.5 V 23 H 15 V 22.5 L 13.5,21 A 3.5,3.5 0 0 0 17,17.5 V 14.92 A 7,7 0 0 0 23,8 Z M 3,12 V 7 h 6.08 a 6.96,6.96 0 0 0 1.18,5 z m 6,7 c -1.1,0 -2,-0.9 -2,-2 0,-1.1 0.9,-2 2,-2 1.1,0 2,0.9 2,2 0,1.1 -0.9,2 -2,2 z m 7.71,-6.06 -0.2,0.03 L 16,13 15.53,12.98 15.37,12.96 15.08,12.92 14.88,12.88 14.66,12.82 A 1.537,1.537 0 0 1 14.43,12.75 L 14.3,12.7 A 4.99,4.99 0 0 1 11.1,7 c 0.04,-0.19 0.09,-0.37 0.15,-0.54 l 0.05,-0.14 0.15,-0.38 0.07,-0.15 0.2,-0.36 0.07,-0.12 0.3,-0.42 0.02,-0.02 C 12.35,4.57 12.63,4.3 12.93,4.06 L 12.94,4.05 13.4,3.73 13.43,3.71 A 5.25,5.25 0 0 1 16,3 5,5 0 0 1 16.71,12.94 Z M 15,4 h 2 v 5 h -2 z m 0,6 h 2 v 2 h -2 z"
       id="path13070"
       transform="matrix(0.264583,0,0,0.264583,80.7006,826.919)" />
  </g>
</svg>
