<?xml version="1.0" encoding="UTF-8" standalone="no"?>
<!-- Created with Inkscape (http://www.inkscape.org/) -->

<svg
   id="svg1100"
   version="1.1"
   viewBox="0 0 5.2916598 5.2916598"
   height="5.2916598mm"
   width="5.2916598mm"
   xmlns="http://www.w3.org/2000/svg"
   xmlns:svg="http://www.w3.org/2000/svg">
  <defs
     id="defs1097" />
  <g
     id="New_Layer_1652809083.9858778"
     style="display:inline"
     transform="translate(-71.440166,-856.55317)">
    <path
       fill="#323232"
       d="M 9,6 H 8 V 4.65 L 9,4.53 Z m 0,6 H 8 V 7 H 9 Z M 6,7 h 1 v 5 H 6 Z M 6,4.88 7,4.76 V 6 H 6 Z M 22,3 V 2 L 5,4 v 8 H 2 c 0,3.69 2.47,6.86 6,8.25 V 22 h 8 V 20.25 C 19.53,18.86 22,15.69 22,12 H 10 V 7 H 22 V 6 H 10 V 4.41 Z"
       id="path13081"
       transform="matrix(0.264583,0,0,0.264583,70.911,856.024)" />
  </g>
</svg>
