<?xml version="1.0" encoding="UTF-8" standalone="no"?>
<!-- Created with Inkscape (http://www.inkscape.org/) -->

<svg
   id="svg1100"
   version="1.1"
   viewBox="0 0 5.2916598 5.2916598"
   height="5.2916598mm"
   width="5.2916598mm"
   xmlns="http://www.w3.org/2000/svg"
   xmlns:svg="http://www.w3.org/2000/svg">
  <defs
     id="defs1097" />
  <g
     id="New_Layer_1652809083.986418"
     style="display:inline"
     transform="translate(-41.804166,-856.55317)">
    <path
       fill="#323232"
       d="M 20,2 H 4 C 2.9,2 2.01,2.9 2.01,4 L 2,22 6,18 h 14 c 1.1,0 2,-0.9 2,-2 V 4 C 22,2.9 21.1,2 20,2 Z M 6,14 v -2.47 l 6.88,-6.88 c 0.2,-0.2 0.51,-0.2 0.71,0 l 1.77,1.77 c 0.2,0.2 0.2,0.51 0,0.71 L 8.47,14 Z m 12,0 h -7.5 l 2,-2 H 18 Z"
       id="path13092"
       transform="matrix(0.264583,0,0,0.264583,41.275,856.024)" />
  </g>
</svg>
