<?xml version="1.0" encoding="UTF-8" standalone="no"?>
<!-- Created with Inkscape (http://www.inkscape.org/) -->

<svg
   id="svg1100"
   version="1.1"
   viewBox="0 0 5.0590286 4.8039427"
   height="4.8039427mm"
   width="5.0590286mm"
   xmlns="http://www.w3.org/2000/svg"
   xmlns:svg="http://www.w3.org/2000/svg">
  <defs
     id="defs1097" />
  <g
     id="New_Layer_1652809083.9874911"
     style="display:inline"
     transform="translate(-140.084,-856.79703)">
    <path
       fill="#323232"
       d="M 8.1,13.34 10.93,10.51 3.91,3.5 a 4.008,4.008 0 0 0 0,5.66 z m 6.78,-1.81 c 1.53,0.71 3.68,0.21 5.27,-1.38 1.91,-1.91 2.28,-4.65 0.81,-6.12 -1.46,-1.46 -4.2,-1.1 -6.12,0.81 -1.59,1.59 -2.09,3.74 -1.38,5.27 L 3.7,19.87 5.11,21.28 12,14.41 18.88,21.29 20.29,19.88 13.41,13 Z"
       id="path13114"
       transform="matrix(0.264583,0,0,0.264583,139.359,855.968)" />
  </g>
</svg>
