<?xml version="1.0" encoding="UTF-8" standalone="no"?>
<!-- Created with Inkscape (http://www.inkscape.org/) -->

<svg
   id="svg1100"
   version="1.1"
   viewBox="0 0 5.2916598 5.2916598"
   height="5.2916598mm"
   width="5.2916598mm"
   xmlns="http://www.w3.org/2000/svg"
   xmlns:svg="http://www.w3.org/2000/svg">
  <defs
     id="defs1097" />
  <g
     id="New_Layer_1652809083.9880273"
     style="display:inline"
     transform="translate(-149.75717,-837.23817)">
    <path
       fill="#323232"
       d="M 12,2 C 6.48,2 2,6.48 2,12 2,17.52 6.48,22 12,22 17.52,22 22,17.52 22,12 22,6.48 17.52,2 12,2 Z m 1.5,4 c 0.55,0 1,0.45 1,1 0,0.55 -0.45,1 -1,1 -0.55,0 -1,-0.45 -1,-1 0,-0.55 0.45,-1 1,-1 z m 2.5,6 c -0.7,0 -2.01,-0.54 -2.91,-1.76 L 12.68,12.59 14,14.03 V 18 H 13 V 14.42 L 11.89,13.21 11.37,15.85 7.6,15.08 7.8,14.1 10.58,14.67 11.54,9.78 10,10.35 V 12 H 9 V 9.65 L 12.28,8.44 C 12.77,8.26 13.31,8.5 13.54,8.97 14.37,10.67 15.59,11 16,11 Z"
       id="path13125-2"
       transform="matrix(0.264583,0,0,0.264583,149.228,836.709)" />
  </g>
</svg>
