<?xml version="1.0" encoding="UTF-8" standalone="no"?>
<!-- Created with Inkscape (http://www.inkscape.org/) -->

<svg
   id="svg1100"
   version="1.1"
   viewBox="0 0 4.7624941 4.7624941"
   height="4.7624941mm"
   width="4.7624941mm"
   xmlns="http://www.w3.org/2000/svg"
   xmlns:svg="http://www.w3.org/2000/svg">
  <defs
     id="defs1097" />
  <g
     id="New_Layer_1652809083.9885724"
     style="display:inline"
     transform="translate(-52.124249,-876.29075)">
    <path
       fill="#323232"
       d="M 19,3 H 5 C 3.9,3 3,3.9 3,5 v 14 c 0,1.1 0.9,2 2,2 h 14 c 1.1,0 2,-0.9 2,-2 V 5 C 21,3.9 20.1,3 19,3 Z M 5,4.99 H 8 C 8,6.65 6.66,8 5,8 Z M 5,12 v -2 c 2.76,0 5,-2.25 5,-5.01 h 2 C 12,8.86 8.87,12 5,12 Z M 5,18 8.5,13.5 11,16.51 14.5,12 19,18 Z"
       id="path13136"
       transform="matrix(0.264583,0,0,0.264583,51.3305,875.497)" />
  </g>
</svg>
