<?xml version="1.0" encoding="UTF-8" standalone="no"?>
<!-- Created with Inkscape (http://www.inkscape.org/) -->

<svg
   id="svg1100"
   version="1.1"
   viewBox="0 0 5.2916598 4.7572021"
   height="4.7572021mm"
   width="5.2916598mm"
   xmlns="http://www.w3.org/2000/svg"
   xmlns:svg="http://www.w3.org/2000/svg">
  <defs
     id="defs1097" />
  <g
     id="New_Layer_1652809083.9891274"
     style="display:inline"
     transform="translate(-71.440166,-847.22875)">
    <path
       fill="#323232"
       d="M 21.05,17.56 3.08,18.5 3,17 20.98,16.06 Z M 21,19.48 H 3 v 1.5 H 21 Z M 22,5 v 7 c 0,1.1 -0.9,2 -2,2 H 4 C 2.9,14 2,13.1 2,12 V 5 C 2,3.9 2.9,3 4,3 h 16 c 1.1,0 2,0.9 2,2 z M 20,6 C 18.32,6 16.96,6.98 16.79,8.23 16.15,7.5 14.06,5.5 10.25,5.5 c -4.67,0 -6.75,3 -6.75,3 0,0 2.08,3 6.75,3 3.81,0 5.9,-2 6.54,-2.73 C 16.96,10.02 18.32,11 20,11 Z"
       id="path13147"
       transform="matrix(0.264583,0,0,0.264583,70.911,846.435)" />
  </g>
</svg>
