<?xml version="1.0" encoding="UTF-8" standalone="no"?>
<!-- Created with Inkscape (http://www.inkscape.org/) -->

<svg
   id="svg1100"
   version="1.1"
   viewBox="0 0 5.2916598 5.2916598"
   height="5.2916598mm"
   width="5.2916598mm"
   xmlns="http://www.w3.org/2000/svg"
   xmlns:svg="http://www.w3.org/2000/svg">
  <defs
     id="defs1097" />
  <g
     id="New_Layer_1652809083.9901962"
     style="display:inline"
     transform="translate(-110.59875,-837.23758)">
    <path
       fill="#323232"
       d="M 12.56,14.33 C 12.22,14.6 12,15.03 12,15.5 V 21 h 7 c 1.1,0 2,-0.9 2,-2 v -5.98 c -0.94,-0.33 -1.95,-0.52 -3,-0.52 -2.03,0 -3.93,0.7 -5.44,1.83 z M 18,11 a 5,5 0 1 0 0,-10 5,5 0 0 0 0,10 z"
       id="path13169"
       transform="matrix(0.264583,0,0,0.264583,109.805,836.973)" />
    <path
       fill="#323232"
       d="m 11.5,6 c 0,-1.08 0.27,-2.1 0.74,-3 H 5 C 3.9,3 3,3.9 3,5 v 14 c 0,0.55 0.23,1.05 0.59,1.41 l 9.82,-9.82 A 6.435,6.435 0 0 1 11.5,6 Z"
       id="path13171"
       transform="matrix(0.264583,0,0,0.264583,109.805,836.973)" />
  </g>
</svg>
