<?xml version="1.0" encoding="UTF-8" standalone="no"?>
<!-- Created with Inkscape (http://www.inkscape.org/) -->

<svg
   id="svg1100"
   version="1.1"
   viewBox="0 0 5.8208261 5.8182935"
   height="5.8182936mm"
   width="5.8208261mm"
   xmlns="http://www.w3.org/2000/svg"
   xmlns:svg="http://www.w3.org/2000/svg">
  <defs
     id="defs1097" />
  <g
     id="New_Layer_1652809083.9927204"
     style="display:inline"
     transform="translate(-61.385983,-827.18512)">
    <path
       fill="#323232"
       d="M 23,8 A 7,7 0 0 0 9.68,5 H 7 V 7 H 4.5 A 1.5,1.5 0 0 0 3.08,8.01 L 1,14 v 8 a 1,1 0 0 0 1,1 h 1 a 1,1 0 0 0 1,-1 v -1 h 12 v 1 a 1,1 0 0 0 1,1 h 1 a 1,1 0 0 0 1,-1 V 14.32 A 7.01,7.01 0 0 0 23,8 Z M 4.5,8.5 H 9.03 A 6.93,6.93 0 0 0 11.11,13 H 3 Z m 0,9.5 a 1.5,1.5 0 1 1 0,-3 1.5,1.5 0 0 1 0,3 z m 11,0 a 1.5,1.5 0 1 1 0,-3 1.5,1.5 0 0 1 0,3 z m 2.93,-5.63 -0.21,0.11 -0.18,0.09 c -0.137,0.06 -0.278,0.113 -0.42,0.16 l -0.22,0.07 -0.23,0.06 -0.2,0.05 A 5,5 0 0 1 11.03,8.5 4.057,4.057 0 0 1 11,8 l 0.02,-0.47 0.02,-0.17 0.04,-0.28 0.04,-0.21 0.05,-0.21 0.07,-0.24 0.05,-0.13 a 4.99,4.99 0 0 1 9.69,1.7 4.961,4.961 0 0 1 -2.55,4.38 z M 15,4 h 2 v 5 h -2 z m 0,6 h 2 v 2 h -2 z"
       id="path13208"
       transform="matrix(0.264583,0,0,0.264583,61.1214,826.918)" />
  </g>
</svg>
