<?xml version="1.0" encoding="UTF-8" standalone="no"?>
<!-- Created with Inkscape (http://www.inkscape.org/) -->

<svg
   id="svg1100"
   version="1.1"
   viewBox="0 0 5.2916598 5.0270772"
   height="5.0270772mm"
   width="5.2916598mm"
   xmlns="http://www.w3.org/2000/svg"
   xmlns:svg="http://www.w3.org/2000/svg">
  <defs
     id="defs1097" />
  <g
     id="New_Layer_1652809083.9938014"
     style="display:inline"
     transform="translate(-21.166666,-847.09375)">
    <path
       fill="#323232"
       d="M 2,16.5 C 2,19.54 4.46,22 7.5,22 10.54,22 13,19.54 13,16.5 V 10 H 2 Z m 5.5,2 C 6.12,18.5 5,17.83 5,17 h 5 c 0,0.83 -1.12,1.5 -2.5,1.5 z M 10,13 c 0.55,0 1,0.45 1,1 0,0.55 -0.45,1 -1,1 -0.55,0 -1,-0.45 -1,-1 0,-0.55 0.45,-1 1,-1 z m -5,0 c 0.55,0 1,0.45 1,1 0,0.55 -0.45,1 -1,1 -0.55,0 -1,-0.45 -1,-1 0,-0.55 0.45,-1 1,-1 z"
       id="path13230"
       transform="matrix(0.264583,0,0,0.264583,20.6375,846.3)" />
    <path
       fill="#323232"
       d="m 11,3 v 6 h 3 v 2.5 c 0,-0.83 1.12,-1.5 2.5,-1.5 1.38,0 2.5,0.67 2.5,1.5 h -5 v 2.89 C 14.75,14.77 15.6,15 16.5,15 19.54,15 22,12.54 22,9.5 V 3 Z m 3,5.08 c -0.55,0 -1,-0.45 -1,-1 0,-0.55 0.45,-1 1,-1 0.55,0 1,0.45 1,1 0,0.56 -0.45,1 -1,1 z m 5,0 c -0.55,0 -1,-0.45 -1,-1 0,-0.55 0.45,-1 1,-1 0.55,0 1,0.45 1,1 0,0.56 -0.45,1 -1,1 z"
       id="path13232"
       transform="matrix(0.264583,0,0,0.264583,20.6375,846.3)" />
  </g>
</svg>
