<?xml version="1.0" encoding="UTF-8" standalone="no"?>
<!-- Created with Inkscape (http://www.inkscape.org/) -->

<svg
   id="svg1100"
   version="1.1"
   viewBox="0 0 4.2333279 5.0270772"
   height="5.0270772mm"
   width="4.2333279mm"
   xmlns="http://www.w3.org/2000/svg"
   xmlns:svg="http://www.w3.org/2000/svg">
  <defs
     id="defs1097" />
  <g
     id="New_Layer_1652809083.9953215"
     style="display:inline"
     transform="translate(-130.70633,-885.90817)">
    <path
       fill="#323232"
       d="M 12,2 C 8,2 4,2.5 4,6 v 9.5 C 4,17.43 5.57,19 7.5,19 L 6,20.5 V 21 h 2.23 l 2,-2 H 14 l 2,2 h 2 V 20.5 L 16.5,19 C 18.43,19 20,17.43 20,15.5 V 6 C 20,2.5 16.42,2 12,2 Z M 7.5,17 C 6.67,17 6,16.33 6,15.5 6,14.67 6.67,14 7.5,14 8.33,14 9,14.67 9,15.5 9,16.33 8.33,17 7.5,17 Z M 11,10 H 6 V 6 h 5 z m 2,0 V 6 h 5 v 4 z m 3.5,7 C 15.67,17 15,16.33 15,15.5 15,14.67 15.67,14 16.5,14 c 0.83,0 1.5,0.67 1.5,1.5 0,0.83 -0.67,1.5 -1.5,1.5 z"
       id="path13255"
       transform="matrix(0.264583,0,0,0.264583,129.648,885.379)" />
  </g>
</svg>
