<?xml version="1.0" encoding="UTF-8" standalone="no"?>
<!-- Created with Inkscape (http://www.inkscape.org/) -->

<svg
   id="svg1100"
   version="1.1"
   viewBox="0 0 3.7041619 5.2916598"
   height="5.2916598mm"
   width="3.7041619mm"
   xmlns="http://www.w3.org/2000/svg"
   xmlns:svg="http://www.w3.org/2000/svg">
  <defs
     id="defs1097" />
  <g
     id="New_Layer_1652809083.995871"
     style="display:inline"
     transform="translate(-62.444315,-895.43317)">
    <path
       fill="#323232"
       d="M 19,16.94 V 8.5 C 19,5.71 16.39,5.1 12.99,5.01 L 13.75,3.5 H 17 V 2 H 7 v 1.5 h 4.75 L 10.99,5.02 C 7.86,5.11 5,5.73 5,8.5 v 8.44 c 0,1.45 1.19,2.66 2.59,2.97 L 6,21.5 V 22 h 2.23 l 2,-2 H 14 l 2,2 h 2 V 21.5 L 16.5,20 H 16.42 C 18.11,20 19,18.63 19,16.94 Z m -7,1.56 c -0.83,0 -1.5,-0.67 -1.5,-1.5 0,-0.83 0.67,-1.5 1.5,-1.5 0.83,0 1.5,0.67 1.5,1.5 0,0.83 -0.67,1.5 -1.5,1.5 z M 17,14 H 7 V 9 h 10 z"
       id="path13266"
       transform="matrix(0.264583,0,0,0.264583,61.1214,894.904)" />
  </g>
</svg>
