<?xml version="1.0" encoding="UTF-8" standalone="no"?>
<!-- Created with Inkscape (http://www.inkscape.org/) -->

<svg
   id="svg1100"
   version="1.1"
   viewBox="0 0 5.2916598 5.2916598"
   height="5.2916598mm"
   width="5.2916598mm"
   xmlns="http://www.w3.org/2000/svg"
   xmlns:svg="http://www.w3.org/2000/svg">
  <defs
     id="defs1097" />
  <g
     id="New_Layer_1652809083.9974806"
     style="display:inline"
     transform="translate(-51.859666,-846.96117)">
    <path
       fill="#323232"
       d="M 2,12 C 2,6.48 6.48,2 12,2 17.52,2 22,6.48 22,12 22,17.52 17.52,22 12,22 6.48,22 2,17.52 2,12 Z m 10,6 c 3.31,0 6,-2.69 6,-6 0,-3.31 -2.69,-6 -6,-6 -3.31,0 -6,2.69 -6,6 0,3.31 2.69,6 6,6 z"
       id="path13299"
       transform="matrix(0.264583,0,0,0.264583,51.3305,846.432)" />
  </g>
</svg>
