<?xml version="1.0" encoding="UTF-8" standalone="no"?>
<!-- Created with Inkscape (http://www.inkscape.org/) -->

<svg
   id="svg1100"
   version="1.1"
   viewBox="0 0 4.497911 5.2916598"
   height="5.2916598mm"
   width="4.497911mm"
   xmlns="http://www.w3.org/2000/svg"
   xmlns:svg="http://www.w3.org/2000/svg">
  <defs
     id="defs1097" />
  <g
     id="New_Layer_1652806959.041319"
     style="display:inline"
     transform="translate(-186.66375,-78.066566)">
    <path
       fill="#323232"
       d="M 11.5,2 C 6.81,2 3,5.81 3,10.5 3,15.19 6.81,19 11.5,19 H 12 v 3 C 16.86,19.66 20,15 20,10.5 20,5.81 16.19,2 11.5,2 Z m 1,14.5 h -2 v -2 h 2 z m 0,-3.5 h -2 c 0,-3.25 3,-3 3,-5 0,-1.1 -0.9,-2 -2,-2 -1.1,0 -2,0.9 -2,2 h -2 c 0,-2.21 1.79,-4 4,-4 2.21,0 4,1.79 4,4 0,2.5 -3,2.75 -3,5 z"
       id="path1981"
       transform="matrix(0.264583,0,0,0.264583,185.87,77.5374)" />
  </g>
</svg>
