<?xml version="1.0" encoding="UTF-8" standalone="no"?>
<!-- Created with Inkscape (http://www.inkscape.org/) -->

<svg
   id="svg1100"
   version="1.1"
   viewBox="0 0 6.3499918 3.7041619"
   height="3.7041619mm"
   width="6.3499918mm"
   xmlns="http://www.w3.org/2000/svg"
   xmlns:svg="http://www.w3.org/2000/svg">
  <defs
     id="defs1097" />
  <g
     id="New_Layer_1652809083.998007"
     style="display:inline"
     transform="translate(-20.6375,-828.24192)">
    <path
       fill="#323232"
       d="m 20,11 c -0.18,0 -0.36,0.03 -0.53,0.05 L 17.41,9 H 20 V 6 L 16.28,7.86 13.41,5 H 9 v 2 h 3.59 l 2,2 H 11 L 7,11 5,9 H 0 v 2 h 4 c -2.21,0 -4,1.79 -4,4 0,2.21 1.79,4 4,4 2.21,0 4,-1.79 4,-4 l 2,2 h 3 l 3.49,-6.1 1.01,1.01 C 16.59,12.64 16,13.75 16,15 c 0,2.21 1.79,4 4,4 2.21,0 4,-1.79 4,-4 0,-2.21 -1.79,-4 -4,-4 z M 4,17 c -1.1,0 -2,-0.9 -2,-2 0,-1.1 0.9,-2 2,-2 1.1,0 2,0.9 2,2 0,1.1 -0.9,2 -2,2 z m 16,0 c -1.1,0 -2,-0.9 -2,-2 0,-1.1 0.9,-2 2,-2 1.1,0 2,0.9 2,2 0,1.1 -0.9,2 -2,2 z"
       id="path13310"
       transform="matrix(0.264583,0,0,0.264583,20.6375,826.919)" />
  </g>
</svg>
