<?xml version="1.0" encoding="UTF-8" standalone="no"?>
<!-- Created with Inkscape (http://www.inkscape.org/) -->

<svg
   id="svg1100"
   version="1.1"
   viewBox="0 0 5.5588889 5.2916598"
   height="5.2916598mm"
   width="5.5588889mm"
   xmlns="http://www.w3.org/2000/svg"
   xmlns:svg="http://www.w3.org/2000/svg">
  <defs
     id="defs1097" />
  <g
     id="New_Layer_1652809083.9985554"
     style="display:inline"
     transform="translate(-31.351783,-837.23817)">
    <path
       fill="#323232"
       d="M 5,11 H 1 V 22 H 5 Z M 16,3.25 C 16.65,2.49 17.66,2 18.7,2 20.55,2 22,3.45 22,5.3 22,7.57 19.09,10.2 16,13 12.91,10.19 10,7.56 10,5.3 10,3.45 11.45,2 13.3,2 14.34,2 15.35,2.49 16,3.25 Z M 20,17 H 13 L 10.91,16.27 11.24,15.33 13,16 h 2.82 C 16.47,16 17,15.47 17,14.82 17,14.33 16.69,13.89 16.23,13.71 L 8.97,11 H 7 v 9.02 L 14,22 22.01,19 C 22,17.9 21.11,17 20,17 Z"
       id="path13321"
       transform="matrix(0.264583,0,0,0.264583,31.0872,836.709)" />
  </g>
</svg>
