<?xml version="1.0" encoding="UTF-8" standalone="no"?>
<!-- Created with Inkscape (http://www.inkscape.org/) -->

<svg
   id="svg1100"
   version="1.1"
   viewBox="0 0 4.9053688 5.6981177"
   height="5.6981177mm"
   width="4.9053688mm"
   xmlns="http://www.w3.org/2000/svg"
   xmlns:svg="http://www.w3.org/2000/svg">
  <defs
     id="defs1097" />
  <g
     id="New_Layer_1652809083.9996336"
     style="display:inline"
     transform="translate(-21.359832,-866.00729)">
    <path
       fill="#323232"
       d="M 14,10 V 3.26 C 13.35,3.09 12.68,3 12,3 7.8,3 4,6.22 4,11.2 c 0,3.32 2.67,7.25 8,11.8 5.33,-4.55 8,-8.48 8,-11.8 0,-0.41 -0.04,-0.81 -0.09,-1.2 z m -2,3 c -1.1,0 -2,-0.9 -2,-2 0,-1.1 0.9,-2 2,-2 1.1,0 2,0.9 2,2 0,1.1 -0.9,2 -2,2 z"
       id="path13343"
       transform="matrix(0.264583,0,0,0.264583,20.3015,865.62)" />
    <path
       fill="#323232"
       d="M 22.54,2.88 21.12,1.46 19,3.59 16.88,1.46 15.46,2.88 17.59,5 15.46,7.12 16.88,8.54 19,6.41 21.12,8.54 22.54,7.12 20.41,5 Z"
       id="path13345"
       transform="matrix(0.264583,0,0,0.264583,20.3015,865.621)" />
  </g>
</svg>
