<?xml version="1.0" encoding="UTF-8" standalone="no"?>
<!-- Created with Inkscape (http://www.inkscape.org/) -->

<svg
   id="svg1100"
   version="1.1"
   viewBox="0 0 4.7624941 4.7624941"
   height="4.7624941mm"
   width="4.7624941mm"
   xmlns="http://www.w3.org/2000/svg"
   xmlns:svg="http://www.w3.org/2000/svg">
  <defs
     id="defs1097" />
  <g
     id="New_Layer_1652809084.000619"
     style="display:inline"
     transform="translate(-101.07375,-876.29075)">
    <path
       fill="#323232"
       d="M 15,3 17.3,5.3 14.41,8.17 15.83,9.59 18.7,6.7 21,9 V 3 Z M 3,9 5.3,6.7 8.17,9.59 9.59,8.17 6.7,5.3 9,3 H 3 Z M 9,21 6.7,18.7 9.59,15.83 8.17,14.41 5.3,17.3 3,15 v 6 z M 21,15 18.7,17.3 15.83,14.41 14.41,15.83 17.3,18.7 15,21 h 6 z"
       id="path13357"
       transform="matrix(0.264583,0,0,0.264583,100.28,875.497)" />
  </g>
</svg>
