<?xml version="1.0" encoding="UTF-8" standalone="no"?>
<!-- Created with Inkscape (http://www.inkscape.org/) -->

<svg
   id="svg1100"
   version="1.1"
   viewBox="0 0 4.4885492 5.820826"
   height="5.8208261mm"
   width="4.4885492mm"
   xmlns="http://www.w3.org/2000/svg"
   xmlns:svg="http://www.w3.org/2000/svg">
  <defs
     id="defs1097" />
  <g
     id="New_Layer_1652809092.8433244"
     style="display:inline"
     transform="translate(-146.73492,-927.97958)">
    <path
       fill="#323232"
       d="m 21.81,12.74 -0.82,-0.63 v -0.22 l 0.8,-0.63 c 0.16,-0.12 0.2,-0.34 0.1,-0.51 L 21.04,9.27 a 0.395,0.395 0 0 0 -0.35,-0.2 c -0.05,0 -0.1,0.01 -0.15,0.03 L 19.59,9.48 C 19.51,9.43 19.48,9.41 19.4,9.37 L 19.25,8.36 A 0.408,0.408 0 0 0 18.85,8 h -1.71 c -0.2,0 -0.37,0.15 -0.4,0.34 L 16.6,9.35 C 16.57,9.37 16.53,9.38 16.5,9.4 L 16.41,9.46 15.46,9.08 a 0.401,0.401 0 0 0 -0.5,0.17 l -0.85,1.48 c -0.1,0.17 -0.06,0.39 0.1,0.51 l 0.8,0.63 v 0.23 l -0.8,0.63 a 0.39,0.39 0 0 0 -0.1,0.51 l 0.85,1.48 c 0.07,0.13 0.21,0.2 0.35,0.2 0.05,0 0.1,-0.01 0.15,-0.03 l 0.95,-0.37 c 0.08,0.05 0.12,0.07 0.2,0.11 l 0.15,1.01 c 0.03,0.2 0.2,0.34 0.4,0.34 h 1.71 c 0.2,0 0.37,-0.15 0.4,-0.34 l 0.15,-1.01 c 0.03,-0.02 0.07,-0.03 0.1,-0.05 l 0.09,-0.06 0.95,0.38 a 0.401,0.401 0 0 0 0.5,-0.17 l 0.85,-1.48 a 0.39,0.39 0 0 0 -0.1,-0.51 z M 18,13.5 c -0.83,0 -1.5,-0.67 -1.5,-1.5 0,-0.83 0.67,-1.5 1.5,-1.5 0.83,0 1.5,0.67 1.5,1.5 0,0.83 -0.67,1.5 -1.5,1.5 z M 17,17 h 2 v 4 c 0,1.1 -0.9,2 -2,2 H 7 C 5.9,23 5,22.1 5,21 V 3 C 5,1.9 5.9,1 7,1 h 10 c 1.1,0 2,0.9 2,2 V 7 H 17 V 6 H 7 v 12 h 10 z"
       id="path15949"
       transform="matrix(0.264583,0,0,0.264583,145.412,927.715)" />
  </g>
</svg>
