<?xml version="1.0" encoding="UTF-8" standalone="no"?>
<!-- Created with Inkscape (http://www.inkscape.org/) -->

<svg
   id="svg1100"
   version="1.1"
   viewBox="0 0 5.2916598 4.2333278"
   height="4.2333279mm"
   width="5.2916598mm"
   xmlns="http://www.w3.org/2000/svg"
   xmlns:svg="http://www.w3.org/2000/svg">
  <defs
     id="defs1097" />
  <g
     id="New_Layer_1652809092.8508584"
     style="display:inline"
     transform="translate(-39.158366,-928.77333)">
    <path
       fill="#323232"
       d="m 18,11 v 2 h 4 v -2 z m -2,6.61 c 0.96,0.71 2.21,1.65 3.2,2.39 0.4,-0.53 0.8,-1.07 1.2,-1.6 -0.99,-0.74 -2.24,-1.68 -3.2,-2.4 -0.4,0.54 -0.8,1.08 -1.2,1.61 z M 20.4,5.6 C 20,5.07 19.6,4.53 19.2,4 18.21,4.74 16.96,5.68 16,6.4 16.4,6.93 16.8,7.47 17.2,8 18.16,7.28 19.41,6.35 20.4,5.6 Z M 4,9 C 2.9,9 2,9.9 2,11 v 2 c 0,1.1 0.9,2 2,2 h 1 v 4 h 2 v -4 h 1 l 5,3 V 6 L 8,9 Z m 11.5,3 C 15.5,10.67 14.92,9.47 14,8.65 v 6.69 c 0.92,-0.81 1.5,-2.01 1.5,-3.34 z"
       id="path16103"
       transform="matrix(0.264583,0,0,0.264583,38.6292,927.715)" />
  </g>
</svg>
