<?xml version="1.0" encoding="UTF-8" standalone="no"?>
<!-- Created with Inkscape (http://www.inkscape.org/) -->

<svg
   id="svg1100"
   version="1.1"
   viewBox="0 0 5.2916598 5.2916598"
   height="5.2916598mm"
   width="5.2916598mm"
   xmlns="http://www.w3.org/2000/svg"
   xmlns:svg="http://www.w3.org/2000/svg">
  <defs
     id="defs1097" />
  <g
     id="New_Layer_1652809092.851387"
     style="display:inline"
     transform="translate(-48.418766,-928.24417)">
    <path
       fill="#323232"
       d="M 12,2 C 6.47,2 2,6.47 2,12 2,17.53 6.47,22 12,22 17.53,22 22,17.53 22,12 22,6.47 17.53,2 12,2 Z M 17,15.59 15.59,17 12,13.41 8.41,17 7,15.59 10.59,12 7,8.41 8.41,7 12,10.59 15.59,7 17,8.41 13.41,12 Z"
       id="path16114"
       transform="matrix(0.264583,0,0,0.264583,47.8896,927.715)" />
  </g>
</svg>
