<?xml version="1.0" encoding="UTF-8" standalone="no"?>
<!-- Created with Inkscape (http://www.inkscape.org/) -->

<svg
   id="svg1100"
   version="1.1"
   viewBox="0 0 4.2333279 5.2916598"
   height="5.2916598mm"
   width="4.2333279mm"
   xmlns="http://www.w3.org/2000/svg"
   xmlns:svg="http://www.w3.org/2000/svg">
  <defs
     id="defs1097" />
  <g
     id="New_Layer_1652806959.043185"
     style="display:inline"
     transform="translate(-155.83933,-57.429066)">
    <path
       fill="#323232"
       d="M 18,6 H 16 C 16,3.79 14.21,2 12,2 9.79,2 8,3.79 8,6 H 6 C 4.9,6 4,6.9 4,8 v 12 c 0,1.1 0.9,2 2,2 h 12 c 1.1,0 2,-0.9 2,-2 V 8 C 20,6.9 19.1,6 18,6 Z m -8,4 C 10,10.55 9.55,11 9,11 8.45,11 8,10.55 8,10 V 8 h 2 z m 2,-6 c 1.1,0 2,0.9 2,2 h -4 c 0,-1.1 0.9,-2 2,-2 z m 4,6 c 0,0.55 -0.45,1 -1,1 -0.55,0 -1,-0.45 -1,-1 V 8 h 2 z"
       id="path4064"
       transform="matrix(0.264583,0,0,0.264583,154.781,56.8999)" />
  </g>
</svg>
