<?xml version="1.0" encoding="UTF-8" standalone="no"?>
<!-- Created with Inkscape (http://www.inkscape.org/) -->

<svg
   id="svg1100"
   version="1.1"
   viewBox="0 0 4.2333279 5.820826"
   height="5.8208261mm"
   width="4.2333279mm"
   xmlns="http://www.w3.org/2000/svg"
   xmlns:svg="http://www.w3.org/2000/svg">
  <defs
     id="defs1097" />
  <g
     id="New_Layer_1652809092.8641334"
     style="display:inline"
     transform="translate(-0.79375,-937.76958)">
    <path
       fill="#323232"
       d="m 14.6,10.26 v 1.31 L 17,9.33 14.6,7.1 V 8.38 C 12.27,8.7 11.34,10.3 11,11.9 c 0.83,-1.13 1.93,-1.64 3.6,-1.64 z M 16,23 H 6 C 4.9,23 4,22.1 4,21 V 5 H 6 V 21 H 16 Z M 18,1 H 10 C 8.9,1 8,1.9 8,3 v 14 c 0,1.1 0.9,2 2,2 h 8 c 1.1,0 2,-0.9 2,-2 V 3 C 20,1.9 19.1,1 18,1 Z m 0,15 H 10 V 4 h 8 z"
       id="path16362"
       transform="matrix(0.264583,0,0,0.264583,-0.264582,937.505)" />
  </g>
</svg>
