<?xml version="1.0" encoding="UTF-8" standalone="no"?>
<!-- Created with Inkscape (http://www.inkscape.org/) -->

<svg
   id="svg1100"
   version="1.1"
   viewBox="0 0 5.8208261 4.2333278"
   height="4.2333279mm"
   width="5.8208261mm"
   xmlns="http://www.w3.org/2000/svg"
   xmlns:svg="http://www.w3.org/2000/svg">
  <defs
     id="defs1097" />
  <g
     id="New_Layer_1652809092.8646746"
     style="display:inline"
     transform="translate(-19.579183,-928.77333)">
    <path
       fill="#323232"
       d="M 19,14 V 6 C 19,4.9 18.1,4 17,4 H 3 C 1.9,4 1,4.9 1,6 v 8 c 0,1.1 0.9,2 2,2 h 14 c 1.1,0 2,-0.9 2,-2 z M 10,13 C 8.34,13 7,11.66 7,10 7,8.34 8.34,7 10,7 c 1.66,0 3,1.34 3,3 0,1.66 -1.34,3 -3,3 z M 23,7 v 11 c 0,1.1 -0.9,2 -2,2 H 4 V 18 H 21 V 7 Z"
       id="path16373"
       transform="matrix(0.264583,0,0,0.264583,19.3146,927.715)" />
  </g>
</svg>
