<?xml version="1.0" encoding="UTF-8" standalone="no"?>
<!-- Created with Inkscape (http://www.inkscape.org/) -->

<svg
   id="svg1100"
   version="1.1"
   viewBox="0 0 5.0270772 5.0270772"
   height="5.0270772mm"
   width="5.0270772mm"
   xmlns="http://www.w3.org/2000/svg"
   xmlns:svg="http://www.w3.org/2000/svg">
  <defs
     id="defs1097" />
  <g
     id="New_Layer_1652809092.8652098"
     style="display:inline"
     transform="translate(-85.460449,-928.37675)">
    <path
       fill="#323232"
       d="M 10,8 H 21 V 5 C 21,3.9 20.1,3 19,3 H 10 Z M 3,8 H 8 V 3 H 5 C 3.9,3 3,3.9 3,5 Z M 5,21 H 8 V 10 H 3 v 9 c 0,1.1 0.9,2 2,2 z m 8,1 -4,-4 4,-4 z m 1,-9 4,-4 4,4 z m 0.58,6 H 13 v -2 h 1.58 C 15.91,17 17,15.92 17,14.58 V 13 h 2 v 1.58 C 19,17.02 17.02,19 14.58,19 Z"
       id="path16384"
       transform="matrix(0.264583,0,0,0.264583,84.6667,927.583)" />
  </g>
</svg>
