<?xml version="1.0" encoding="UTF-8" standalone="no"?>
<!-- Created with Inkscape (http://www.inkscape.org/) -->

<svg
   id="svg1100"
   version="1.1"
   viewBox="0 0 4.2306824 4.2333283"
   height="4.2333283mm"
   width="4.2306824mm"
   xmlns="http://www.w3.org/2000/svg"
   xmlns:svg="http://www.w3.org/2000/svg">
  <defs
     id="defs1097" />
  <g
     id="New_Layer_1652809092.8657477"
     style="display:inline"
     transform="translate(-67.470078,-938.56333)">
    <path
       fill="#323232"
       d="M 17.65,6.35 A 7.958,7.958 0 0 0 12,4 c -4.42,0 -7.99,3.58 -7.99,8 0,4.42 3.57,8 7.99,8 3.73,0 6.84,-2.55 7.73,-6 H 17.65 A 5.99,5.99 0 0 1 12,18 C 8.69,18 6,15.31 6,12 6,8.69 8.69,6 12,6 c 1.66,0 3.14,0.69 4.22,1.78 L 13,11 h 7 V 4 Z"
       id="path16395"
       transform="matrix(0.264583,0,0,0.264583,66.4091,937.505)" />
  </g>
</svg>
