<?xml version="1.0" encoding="UTF-8" standalone="no"?>
<!-- Created with Inkscape (http://www.inkscape.org/) -->

<svg
   id="svg1100"
   version="1.1"
   viewBox="0 0 3.7041619 5.7044096"
   height="5.7044096mm"
   width="3.7041619mm"
   xmlns="http://www.w3.org/2000/svg"
   xmlns:svg="http://www.w3.org/2000/svg">
  <defs
     id="defs1097" />
  <g
     id="New_Layer_1652809108.2392497"
     style="display:inline"
     transform="translate(-110.33391,-1000.981)">
    <path
       fill="#323232"
       d="m 5,16 c 0,3.87 3.13,7 7,7 3.87,0 7,-3.13 7,-7 V 12 H 5 Z M 16.12,4.37 18.22,2.27 17.4,1.44 15.1,3.75 C 14.16,3.28 13.12,3 12,3 10.88,3 9.84,3.28 8.91,3.75 L 6.6,1.44 5.78,2.27 7.88,4.37 C 6.14,5.64 5,7.68 5,10 v 1 H 19 V 10 C 19,7.68 17.86,5.64 16.12,4.37 Z M 9,9 C 8.45,9 8,8.55 8,8 8,7.45 8.45,7 9,7 9.55,7 10,7.45 10,8 10,8.55 9.55,9 9,9 Z m 6,0 c -0.55,0 -1,-0.45 -1,-1 0,-0.55 0.45,-1 1,-1 0.55,0 1,0.45 1,1 0,0.55 -0.45,1 -1,1 z"
       id="path20246"
       transform="matrix(0.264583,0,0,0.264583,109.011,1000.6)" />
  </g>
</svg>
