<?xml version="1.0" encoding="UTF-8" standalone="no"?>
<!-- Created with Inkscape (http://www.inkscape.org/) -->

<svg
   id="svg1100"
   version="1.1"
   viewBox="0 0 5.2916598 5.820826"
   height="5.8208261mm"
   width="5.2916598mm"
   xmlns="http://www.w3.org/2000/svg"
   xmlns:svg="http://www.w3.org/2000/svg">
  <defs
     id="defs1097" />
  <g
     id="New_Layer_1652806959.0450406"
     style="display:inline"
     transform="translate(-114.03517,-57.164483)">
    <path
       fill="#323232"
       d="m 19.75,16.25 c 0,0.06 -0.01,0.13 -0.02,0.2 l -0.75,5.27 C 18.87,22.45 18.29,23 17.54,23 H 10.75 C 10.34,23 9.96,22.83 9.69,22.56 l -4.94,-4.94 0.79,-0.8 c 0.2,-0.2 0.48,-0.33 0.79,-0.33 0.09,0 0.16,0.02 0.24,0.03 L 10,17.24 V 6.5 C 10,5.67 10.67,5 11.5,5 12.33,5 13,5.67 13,6.5 v 6 h 0.76 c 0.19,0 0.37,0.04 0.54,0.11 l 4.54,2.26 c 0.53,0.22 0.91,0.76 0.91,1.38 z M 20.13,3.87 C 18.69,2.17 15.6,1 12,1 8.4,1 5.31,2.17 3.87,3.87 L 2,2 V 7 H 7 L 4.93,4.93 C 5.93,3.64 8.63,2.5 12,2.5 c 3.37,0 6.07,1.14 7.07,2.43 L 17,7 h 5 V 2 Z"
       id="path4306"
       transform="matrix(0.264583,0,0,0.264583,113.506,56.8999)" />
  </g>
</svg>
