<?xml version="1.0" encoding="UTF-8" standalone="no"?>
<!-- Created with Inkscape (http://www.inkscape.org/) -->

<svg
   id="svg1100"
   version="1.1"
   viewBox="0 0 5.2916598 2.910413"
   height="2.910413mm"
   width="5.2916598mm"
   xmlns="http://www.w3.org/2000/svg"
   xmlns:svg="http://www.w3.org/2000/svg">
  <defs
     id="defs1097" />
  <g
     id="New_Layer_1652809108.2403271"
     style="display:inline"
     transform="translate(-21.169266,-982.98708)">
    <path
       fill="#323232"
       d="m 22,11 v 2 H 9 V 7 h 9 c 2.21,0 4,1.79 4,4 z M 2,14 v 2 h 6 v 2 h 8 v -2 h 6 V 14 Z M 7.14,12.1 A 3,3 0 0 0 7.1,7.86 3,3 0 0 0 2.86,7.9 3,3 0 0 0 2.9,12.14 3,3 0 0 0 7.14,12.1 Z"
       id="path20268"
       transform="matrix(0.264583,0,0,0.264583,20.6401,981.135)" />
  </g>
</svg>
