<?xml version="1.0" encoding="UTF-8" standalone="no"?>
<!-- Created with Inkscape (http://www.inkscape.org/) -->

<svg
   id="svg1100"
   version="1.1"
   viewBox="0 0 5.5553084 3.8358671"
   height="3.8358672mm"
   width="5.5553083mm"
   xmlns="http://www.w3.org/2000/svg"
   xmlns:svg="http://www.w3.org/2000/svg">
  <defs
     id="defs1097" />
  <g
     id="New_Layer_1652809108.240866"
     style="display:inline"
     transform="translate(-147.90187,-972.91821)">
    <path
       fill="#323232"
       d="M 22.25,14.29 21.56,16.18 9.2,11.71 11.28,6.05 19.84,9.14 a 4,4 0 0 1 2.41,5.15 z M 1.5,12.14 8,14.48 V 19 h 8 V 17.37 L 20.52,19 21.21,17.11 2.19,10.25 Z M 7.3,10.2 a 3.01,3.01 0 0 0 1.41,-4 3.005,3.005 0 0 0 -4.01,-1.4 2.99,2.99 0 0 0 -1.4,4 2.99,2.99 0 0 0 4,1.4 z"
       id="path20279"
       transform="matrix(0.264583,0,0,0.264583,147.505,971.727)" />
  </g>
</svg>
