<?xml version="1.0" encoding="UTF-8" standalone="no"?>
<!-- Created with Inkscape (http://www.inkscape.org/) -->

<svg
   id="svg1100"
   version="1.1"
   viewBox="0 0 5.5564799 4.7624941"
   height="4.7624941mm"
   width="5.5564799mm"
   xmlns="http://www.w3.org/2000/svg"
   xmlns:svg="http://www.w3.org/2000/svg">
  <defs
     id="defs1097" />
  <g
     id="New_Layer_1652809108.2419271"
     style="display:inline"
     transform="translate(-128.85217,-972.45475)">
    <path
       fill="#323232"
       d="M 4,12 V 3 H 2 v 9 c 0,2.76 2.24,5 5,5 h 6 V 15 H 7 C 5.34,15 4,13.66 4,12 Z m 18.83,5.24 C 22.45,16.52 21.54,16.27 20.8,16.61 l -1.09,0.5 -3.41,-6.98 A 2.01,2.01 0 0 0 14.51,9.01 L 11,9 V 3 H 5 v 8 c 0,1.66 1.34,3 3,3 h 7 l 3.41,7 3.72,-1.7 c 0.77,-0.36 1.1,-1.3 0.7,-2.06 z"
       id="path20301"
       transform="matrix(0.264583,0,0,0.264583,128.323,971.661)" />
  </g>
</svg>
