<?xml version="1.0" encoding="UTF-8" standalone="no"?>
<!-- Created with Inkscape (http://www.inkscape.org/) -->

<svg
   id="svg1100"
   version="1.1"
   viewBox="0 0 5.0270772 4.7624941"
   height="4.7624941mm"
   width="5.0270772mm"
   xmlns="http://www.w3.org/2000/svg"
   xmlns:svg="http://www.w3.org/2000/svg">
  <defs
     id="defs1097" />
  <g
     id="New_Layer_1652809108.2424753"
     style="display:inline"
     transform="translate(-0.662781,-991.66775)">
    <path
       fill="#323232"
       d="M 5,12 V 3 H 3 v 9 c 0,2.76 2.24,5 5,5 h 6 V 15 H 8 C 6.34,15 5,13.66 5,12 Z m 15.5,6 H 19 V 11 C 19,9.9 18.1,9 17,9 H 12 V 3 H 6 v 8 c 0,1.65 1.35,3 3,3 h 7 v 7 h 4.5 C 21.33,21 22,20.33 22,19.5 22,18.67 21.33,18 20.5,18 Z"
       id="path20312"
       transform="matrix(0.264583,0,0,0.264583,-0.130968,990.874)" />
  </g>
</svg>
