<?xml version="1.0" encoding="UTF-8" standalone="no"?>
<!-- Created with Inkscape (http://www.inkscape.org/) -->

<svg
   id="svg1100"
   version="1.1"
   viewBox="0 0 4.4972348 4.7624941"
   height="4.7624941mm"
   width="4.4972348mm"
   xmlns="http://www.w3.org/2000/svg"
   xmlns:svg="http://www.w3.org/2000/svg">
  <defs
     id="defs1097" />
  <g
     id="New_Layer_1652809108.2430062"
     style="display:inline"
     transform="translate(-41.410249,-1001.4537)">
    <path
       fill="#323232"
       d="M 19.97,19.2 C 20.15,20.16 19.42,21 18.5,21 H 14 v -3 l 1,-4 H 9 C 7.35,14 6,12.65 6,11 V 3 h 6 v 6 h 5 c 1.1,0 2,0.9 2,2 l -2,7 h 1.44 c 0.73,0 1.39,0.49 1.53,1.2 z M 5,12 V 3 H 3 v 9 c 0,2.76 2.24,5 5,5 h 4 V 15 H 8 C 6.34,15 5,13.66 5,12 Z"
       id="path20323"
       transform="matrix(0.264583,0,0,0.264583,40.6165,1000.66)" />
  </g>
</svg>
