<?xml version="1.0" encoding="UTF-8" standalone="no"?>
<!-- Created with Inkscape (http://www.inkscape.org/) -->

<svg
   id="svg1100"
   version="1.1"
   viewBox="0 0 5.2916598 5.0269122"
   height="5.0269122mm"
   width="5.2916598mm"
   xmlns="http://www.w3.org/2000/svg"
   xmlns:svg="http://www.w3.org/2000/svg">
  <defs
     id="defs1097" />
  <g
     id="New_Layer_1652809108.243547"
     style="display:inline"
     transform="translate(-80.171366,-981.92933)">
    <path
       fill="#323232"
       d="M 5.35,5.64 C 4.45,5 4.23,3.76 4.86,2.85 5.49,1.95 6.74,1.73 7.65,2.36 8.55,3 8.77,4.24 8.14,5.15 7.5,6.05 6.26,6.27 5.35,5.64 Z M 16,19 H 8.93 C 7.45,19 6.19,17.92 5.97,16.46 L 4,7 H 2 l 1.99,9.76 A 5.01,5.01 0 0 0 8.94,21 H 16 Z m 0.23,-4 h -4.88 l -1.03,-4.1 c 1.58,0.89 3.28,1.54 5.15,1.22 V 9.99 C 13.84,10.3 12.03,9.72 10.78,8.74 L 9.14,7.47 C 8.91,7.29 8.65,7.17 8.38,7.09 A 2.21,2.21 0 0 0 7.39,7.03 H 7.37 A 2.268,2.268 0 0 0 5.53,9.64 l 1.35,5.92 A 3.008,3.008 0 0 0 9.83,18 h 6.85 l 3.82,3 1.5,-1.5 z"
       id="path20334"
       transform="matrix(0.264583,0,0,0.264583,79.6422,981.4)" />
  </g>
</svg>
