<?xml version="1.0" encoding="UTF-8" standalone="no"?>
<!-- Created with Inkscape (http://www.inkscape.org/) -->

<svg
   id="svg1100"
   version="1.1"
   viewBox="0 0 4.2333279 5.1606912"
   height="5.1606913mm"
   width="4.2333279mm"
   xmlns="http://www.w3.org/2000/svg"
   xmlns:svg="http://www.w3.org/2000/svg">
  <defs
     id="defs1097" />
  <g
     id="New_Layer_1652809108.2440758"
     style="display:inline"
     transform="translate(-90.490132,-1001.2578)">
    <path
       fill="#323232"
       d="M 7.59,5.41 C 6.81,4.63 6.81,3.36 7.59,2.58 8.37,1.8 9.64,1.8 10.42,2.58 11.2,3.36 11.2,4.63 10.42,5.41 9.63,6.2 8.37,6.2 7.59,5.41 Z M 6,16 V 7 H 4 v 9 c 0,2.76 2.24,5 5,5 h 6 V 19 H 9 C 7.34,19 6,17.66 6,16 Z M 20,20.07 14.93,15 H 11.5 v -3.68 c 1.4,1.15 3.6,2.16 5.5,2.16 V 11.32 C 15.34,11.34 13.39,10.45 12.33,9.28 L 10.93,7.73 C 10.74,7.52 10.5,7.35 10.24,7.23 9.95,7.09 9.62,7 9.28,7 H 9.25 C 8.01,7 7,8.01 7,9.25 V 15 c 0,1.66 1.34,3 3,3 h 5.07 l 3.5,3.5 z"
       id="path20345"
       transform="matrix(0.264583,0,0,0.264583,89.4318,1000.73)" />
  </g>
</svg>
