<?xml version="1.0" encoding="UTF-8" standalone="no"?>
<!-- Created with Inkscape (http://www.inkscape.org/) -->

<svg
   id="svg1100"
   version="1.1"
   viewBox="0 0 4.7651401 5.2916598"
   height="5.2916598mm"
   width="4.7651401mm"
   xmlns="http://www.w3.org/2000/svg"
   xmlns:svg="http://www.w3.org/2000/svg">
  <defs
     id="defs1097" />
  <g
     id="New_Layer_1652809108.2446115"
     style="display:inline"
     transform="translate(-11.113849,-991.40317)">
    <path
       fill="#323232"
       d="m 14.24,12.01 2.32,2.32 C 16.84,13.61 17,12.82 17,12 17,11.18 16.84,10.41 16.57,9.69 Z m 5.29,-5.3 -1.26,1.26 c 0.63,1.21 0.98,2.57 0.98,4.02 0,1.45 -0.36,2.82 -0.98,4.02 l 1.2,1.2 A 9.936,9.936 0 0 0 21.01,11.9 C 21,10.01 20.46,8.23 19.53,6.71 Z m -3.82,1 L 10,2 H 9 V 9.59 L 4.41,5 3,6.41 8.59,12 3,17.59 4.41,19 9,14.41 V 22 h 1 L 15.71,16.29 11.41,12 Z M 11,5.83 12.88,7.71 11,9.59 Z M 12.88,16.29 11,18.17 v -3.76 z"
       id="path20356"
       transform="matrix(0.264583,0,0,0.264583,10.3201,990.874)" />
  </g>
</svg>
