<?xml version="1.0" encoding="UTF-8" standalone="no"?>
<!-- Created with Inkscape (http://www.inkscape.org/) -->

<svg
   id="svg1100"
   version="1.1"
   viewBox="0 0 5.2916598 4.2333278"
   height="4.2333279mm"
   width="5.2916598mm"
   xmlns="http://www.w3.org/2000/svg"
   xmlns:svg="http://www.w3.org/2000/svg">
  <defs
     id="defs1097" />
  <g
     id="New_Layer_1652809108.245136"
     style="display:inline"
     transform="translate(-31.223466,-982.32533)">
    <path
       fill="#323232"
       d="M 22,10 V 6 A 2,2 0 0 0 20,4 H 4 C 2.9,4 2.01,4.89 2.01,6 v 4 C 3.11,10 4,10.9 4,12 a 2,2 0 0 1 -2,2 v 4 c 0,1.1 0.9,2 2,2 h 16 c 1.1,0 2,-0.9 2,-2 v -4 c -1.1,0 -2,-0.9 -2,-2 0,-1.1 0.9,-2 2,-2 z m -9,7.5 h -2 v -2 h 2 z M 13,13 h -2 v -2 h 2 z m 0,-4.5 h -2 v -2 h 2 z"
       id="path20367"
       transform="matrix(0.264583,0,0,0.264583,30.6943,981.267)" />
  </g>
</svg>
