<?xml version="1.0" encoding="UTF-8" standalone="no"?>
<!-- Created with Inkscape (http://www.inkscape.org/) -->

<svg
   id="svg1100"
   version="1.1"
   viewBox="0 0 5.4517326 5.4543786"
   height="5.4543786mm"
   width="5.4517326mm"
   xmlns="http://www.w3.org/2000/svg"
   xmlns:svg="http://www.w3.org/2000/svg">
  <defs
     id="defs1097" />
  <g
     id="New_Layer_1652809108.2456806"
     style="display:inline"
     transform="translate(-0.45045357,-981.71484)">
    <path
       fill="#323232"
       d="M 9.41,6.58 12,4 l 8,8 -2.58,2.59 1.41,1.41 2.58,-2.59 c 0.78,-0.78 0.78,-2.05 0,-2.83 l -8,-8 C 12.63,1.8 11.36,1.8 10.58,2.58 L 8,5.17 Z M 2.81,2.81 1.39,4.22 5.17,8 2.59,10.59 c -0.78,0.78 -0.78,2.05 0,2.83 l 8,8 c 0.78,0.78 2.05,0.78 2.83,0 L 16,18.83 19.78,22.61 21.19,21.2 Z M 12,20 4,12 6.58,9.41 8.17,11 H 7 v 2 h 3.17 l 1.5,1.5 -1.08,1.09 1.41,1.41 1.09,-1.09 1.5,1.5 z"
       id="path20378"
       transform="matrix(0.264583,0,0,0.264583,0.0826832,981.187)" />
    <path
       fill="#323232"
       d="m 12.005,6.998 -1.089,1.09 5,4.998 1.089,-1.088 z"
       id="path20380"
       transform="matrix(0.264583,0,0,0.264583,0.08268,981.187)" />
  </g>
</svg>
