<?xml version="1.0" encoding="UTF-8" standalone="no"?>
<!-- Created with Inkscape (http://www.inkscape.org/) -->

<svg
   id="svg1100"
   version="1.1"
   viewBox="0 0 5.2916598 5.2916598"
   height="5.2916598mm"
   width="5.2916598mm"
   xmlns="http://www.w3.org/2000/svg"
   xmlns:svg="http://www.w3.org/2000/svg">
  <defs
     id="defs1097" />
  <g
     id="New_Layer_1652809108.2477317"
     style="display:inline"
     transform="translate(-128.98417,-981.79617)">
    <path
       fill="#323232"
       d="M 12,2 C 6.5,2 2,6.5 2,12 2,17.5 6.5,22 12,22 17.5,22 22,17.5 22,12 22,6.5 17.5,2 12,2 Z M 4,12 c 0,-4.4 3.6,-8 8,-8 1.8,0 3.5,0.6 4.9,1.7 L 5.7,16.9 C 4.6,15.5 4,13.8 4,12 Z m 8,8 C 10.2,20 8.5,19.4 7.1,18.3 L 18.3,7.1 c 1.1,1.4 1.7,3.1 1.7,4.9 0,4.4 -3.6,8 -8,8 z"
       id="path20414"
       transform="matrix(0.264583,0,0,0.264583,128.455,981.267)" />
  </g>
</svg>
