<?xml version="1.0" encoding="UTF-8" standalone="no"?>
<!-- Created with Inkscape (http://www.inkscape.org/) -->

<svg
   id="svg1100"
   version="1.1"
   viewBox="0 0 5.5562444 5.5562429"
   height="5.5562429mm"
   width="5.5562444mm"
   xmlns="http://www.w3.org/2000/svg"
   xmlns:svg="http://www.w3.org/2000/svg">
  <defs
     id="defs1097" />
  <g
     id="New_Layer_1652809108.2482574"
     style="display:inline"
     transform="translate(-138.37758,-972.05817)">
    <path
       fill="#323232"
       d="m 17,11 v 2 h -1.46 l 4.68,4.68 A 9.92,9.92 0 0 0 22,12 C 22,6.48 17.52,2 12,2 9.89,2 7.93,2.66 6.32,3.78 L 13.54,11 Z M 2.27,2.27 1,3.54 3.78,6.32 A 9.92,9.92 0 0 0 2,12 c 0,5.52 4.48,10 10,10 2.11,0 4.07,-0.66 5.68,-1.78 L 20.46,23 21.73,21.73 11,11 Z M 7,13 v -2 h 1.46 l 2,2 z"
       id="path20433"
       transform="matrix(0.264583,0,0,0.264583,138.113,971.529)" />
  </g>
</svg>
