<?xml version="1.0" encoding="UTF-8" standalone="no"?>
<!-- Created with Inkscape (http://www.inkscape.org/) -->

<svg
   id="svg1100"
   version="1.1"
   viewBox="0 0 4.2333279 5.5562429"
   height="5.5562429mm"
   width="4.2333279mm"
   xmlns="http://www.w3.org/2000/svg"
   xmlns:svg="http://www.w3.org/2000/svg">
  <defs
     id="defs1097" />
  <g
     id="New_Layer_1652809108.2498522"
     style="display:inline"
     transform="translate(-70.910932,-1001.0646)">
    <path
       fill="#323232"
       d="M 18,8 H 17 V 6 C 17,3.24 14.76,1 12,1 9.24,1 7,3.24 7,6 V 8 H 6 C 4.9,8 4,8.9 4,10 v 10 c 0,1.1 0.9,2 2,2 h 12 c 1.1,0 2,-0.9 2,-2 V 10 C 20,8.9 19.1,8 18,8 Z M 8.9,6 c 0,-1.71 1.39,-3.1 3.1,-3.1 1.71,0 3.1,1.39 3.1,3.1 V 8 H 8.9 Z M 16,16 h -3 v 3 H 11 V 16 H 8 v -2 h 3 v -3 h 2 v 3 h 3 z"
       id="path20466"
       transform="matrix(0.264583,0,0,0.264583,69.8526,1000.8)" />
  </g>
</svg>
