<?xml version="1.0" encoding="UTF-8" standalone="no"?>
<!-- Created with Inkscape (http://www.inkscape.org/) -->

<svg
   id="svg1100"
   version="1.1"
   viewBox="0 0 4.7624941 5.2916598"
   height="5.2916598mm"
   width="4.7624941mm"
   xmlns="http://www.w3.org/2000/svg"
   xmlns:svg="http://www.w3.org/2000/svg">
  <defs
     id="defs1097" />
  <g
     id="New_Layer_1652809108.250418"
     style="display:inline"
     transform="translate(-100.01515,-991.40258)">
    <path
       fill="#323232"
       d="M 16.53,11.06 15.47,10 10.59,14.88 8.47,12.76 7.41,13.82 10.59,17 Z M 19,3 H 18 V 1 H 16 V 3 H 8 V 1 H 6 V 3 H 5 C 3.89,3 3.01,3.9 3.01,5 L 3,19 a 2,2 0 0 0 2,2 h 14 c 1.1,0 2,-0.9 2,-2 V 5 C 21,3.9 20.1,3 19,3 Z m 0,16 H 5 V 8 h 14 z"
       id="path20477"
       transform="matrix(0.264583,0,0,0.264583,99.2214,991.138)" />
  </g>
</svg>
