<?xml version="1.0" encoding="UTF-8" standalone="no"?>
<!-- Created with Inkscape (http://www.inkscape.org/) -->

<svg
   id="svg1100"
   version="1.1"
   viewBox="0 0 4.7624941 5.2916598"
   height="5.2916598mm"
   width="4.7624941mm"
   xmlns="http://www.w3.org/2000/svg"
   xmlns:svg="http://www.w3.org/2000/svg">
  <defs
     id="defs1097" />
  <g
     id="New_Layer_1652809108.2509563"
     style="display:inline"
     transform="translate(-109.80475,-991.40258)">
    <path
       fill="#323232"
       d="M 9.31,17 11.75,14.56 14.19,17 15.25,15.94 12.81,13.5 15.25,11.06 14.19,10 11.75,12.44 9.31,10 8.25,11.06 10.69,13.5 8.25,15.94 Z M 19,3 H 18 V 1 H 16 V 3 H 8 V 1 H 6 V 3 H 5 C 3.89,3 3.01,3.9 3.01,5 L 3,19 a 2,2 0 0 0 2,2 h 14 c 1.1,0 2,-0.9 2,-2 V 5 C 21,3.9 20.1,3 19,3 Z m 0,16 H 5 V 8 h 14 z"
       id="path20488"
       transform="matrix(0.264583,0,0,0.264583,109.011,991.138)" />
  </g>
</svg>
