<?xml version="1.0" encoding="UTF-8" standalone="no"?>
<!-- Created with Inkscape (http://www.inkscape.org/) -->

<svg
   id="svg1100"
   version="1.1"
   viewBox="0 0 5.2916598 4.2333278"
   height="4.2333279mm"
   width="5.2916598mm"
   xmlns="http://www.w3.org/2000/svg"
   xmlns:svg="http://www.w3.org/2000/svg">
  <defs
     id="defs1097" />
  <g
     id="New_Layer_1652809108.2520268"
     style="display:inline"
     transform="translate(-50.802666,-982.32533)">
    <path
       fill="#323232"
       d="M 20,6 H 12 L 10,4 H 4 C 2.9,4 2,4.9 2,6 v 12 c 0,1.1 0.9,2 2,2 h 16 c 1.1,0 2,-0.9 2,-2 V 8 C 22,6.9 21.1,6 20,6 Z M 17.94,17 15,15.28 12.06,17 12.84,13.67 10.25,11.43 13.66,11.14 15,8 l 1.34,3.14 3.41,0.29 -2.59,2.24 z"
       id="path20510"
       transform="matrix(0.264583,0,0,0.264583,50.2735,981.267)" />
  </g>
</svg>
