<?xml version="1.0" encoding="UTF-8" standalone="no"?>
<!-- Created with Inkscape (http://www.inkscape.org/) -->

<svg
   id="svg1100"
   version="1.1"
   viewBox="0 0 5.8208261 5.2916598"
   height="5.2916598mm"
   width="5.8208261mm"
   xmlns="http://www.w3.org/2000/svg"
   xmlns:svg="http://www.w3.org/2000/svg">
  <defs
     id="defs1097" />
  <g
     id="New_Layer_1652809108.253094"
     style="display:inline"
     transform="translate(-89.696383,-972.19017)">
    <path
       fill="#323232"
       d="M 21,6 H 13.41 L 16.7,2.71 16,2 12,6 8,2 7.29,2.71 10.59,6 H 3 A 2,2 0 0 0 1,8 v 12 c 0,1.1 0.9,2 2,2 h 18 c 1.1,0 2,-0.9 2,-2 V 8 A 2,2 0 0 0 21,6 Z m 0,14 H 3 V 8 H 21 Z M 9,10 v 8 l 7,-4 z"
       id="path20532"
       transform="matrix(0.264583,0,0,0.264583,89.4318,971.661)" />
  </g>
</svg>
