<?xml version="1.0" encoding="UTF-8" standalone="no"?>
<!-- Created with Inkscape (http://www.inkscape.org/) -->

<svg
   id="svg1100"
   version="1.1"
   viewBox="0 0 6.3499918 4.7624941"
   height="4.7624941mm"
   width="6.3499918mm"
   xmlns="http://www.w3.org/2000/svg"
   xmlns:svg="http://www.w3.org/2000/svg">
  <defs
     id="defs1097" />
  <g
     id="New_Layer_1652809108.2541556"
     style="display:inline"
     transform="translate(-10.3214,-972.45475)">
    <path
       fill="#323232"
       d="M 22,3 H 7 C 6.31,3 5.77,3.35 5.41,3.88 L 0,12 5.41,20.11 C 5.77,20.64 6.38,21 7.07,21 H 22 c 1.1,0 2,-0.9 2,-2 V 5 C 24,3.9 23.1,3 22,3 Z M 9,13.5 c -0.83,0 -1.5,-0.67 -1.5,-1.5 0,-0.83 0.67,-1.5 1.5,-1.5 0.83,0 1.5,0.67 1.5,1.5 0,0.83 -0.67,1.5 -1.5,1.5 z m 5,0 c -0.83,0 -1.5,-0.67 -1.5,-1.5 0,-0.83 0.67,-1.5 1.5,-1.5 0.83,0 1.5,0.67 1.5,1.5 0,0.83 -0.67,1.5 -1.5,1.5 z m 5,0 c -0.83,0 -1.5,-0.67 -1.5,-1.5 0,-0.83 0.67,-1.5 1.5,-1.5 0.83,0 1.5,0.67 1.5,1.5 0,0.83 -0.67,1.5 -1.5,1.5 z"
       id="path20554"
       transform="matrix(0.264583,0,0,0.264583,10.3214,971.661)" />
  </g>
</svg>
