<?xml version="1.0" encoding="UTF-8" standalone="no"?>
<!-- Created with Inkscape (http://www.inkscape.org/) -->

<svg
   id="svg1100"
   version="1.1"
   viewBox="0 0 5.8208261 4.1121917"
   height="4.1121917mm"
   width="5.8208261mm"
   xmlns="http://www.w3.org/2000/svg"
   xmlns:svg="http://www.w3.org/2000/svg">
  <defs
     id="defs1097" />
  <g
     id="New_Layer_1652809108.2546897"
     style="display:inline"
     transform="translate(-50.538083,-972.77947)">
    <path
       fill="#323232"
       d="m 15.9,5 c -0.17,0 -0.32,0.09 -0.41,0.23 l -0.07,0.15 -5.18,11.65 c -0.16,0.29 -0.26,0.61 -0.26,0.96 0,1.11 0.9,2.01 2.01,2.01 0.96,0 1.77,-0.68 1.96,-1.59 L 13.96,18.38 16.4,5.5 C 16.4,5.22 16.18,5 15.9,5 Z M 1,9 3,11 C 5.88,8.12 9.79,6.92 13.53,7.38 L 14.72,4.7 C 9.89,3.84 4.74,5.27 1,9 Z m 20,2 2,-2 A 15.367,15.367 0 0 0 17.41,5.43 l -0.53,2.82 c 1.5,0.62 2.9,1.53 4.12,2.75 z m -4,4 2,-2 c -0.8,-0.8 -1.7,-1.42 -2.66,-1.89 l -0.55,2.92 C 16.21,14.3 16.62,14.62 17,15 Z M 5,13 7,15 a 7.1,7.1 0 0 1 4.03,-2 l 1.28,-2.88 C 9.68,10.04 7.01,10.99 5,13 Z"
       id="path20565"
       transform="matrix(0.264583,0,0,0.264583,50.2735,971.6)" />
  </g>
</svg>
