<?xml version="1.0" encoding="UTF-8" standalone="no"?>
<!-- Created with Inkscape (http://www.inkscape.org/) -->

<svg
   id="svg1100"
   version="1.1"
   viewBox="0 0 5.8208261 5.5562429"
   height="5.5562429mm"
   width="5.8208261mm"
   xmlns="http://www.w3.org/2000/svg"
   xmlns:svg="http://www.w3.org/2000/svg">
  <defs
     id="defs1097" />
  <g
     id="New_Layer_1652809108.2552128"
     style="display:inline"
     transform="translate(-109.27558,-972.05758)">
    <path
       fill="#323232"
       d="m 19.5,10 c 0.17,0 0.33,0.03 0.5,0.05 V 1 L 1,20 h 13 v -3 c 0,-0.89 0.39,-1.68 1,-2.23 V 14.5 C 15,12.02 17.02,10 19.5,10 Z m 2.5,6 v -1.5 a 2.5,2.5 0 0 0 -5,0 V 16 c -0.55,0 -1,0.45 -1,1 v 4 c 0,0.55 0.45,1 1,1 h 5 c 0.55,0 1,-0.45 1,-1 v -4 c 0,-0.55 -0.45,-1 -1,-1 z m -1,0 h -3 v -1.5 c 0,-0.83 0.67,-1.5 1.5,-1.5 0.83,0 1.5,0.67 1.5,1.5 z"
       id="path20576"
       transform="matrix(0.264583,0,0,0.264583,109.011,971.793)" />
  </g>
</svg>
