<?xml version="1.0" encoding="UTF-8" standalone="no"?>
<!-- Created with Inkscape (http://www.inkscape.org/) -->

<svg
   id="svg1100"
   version="1.1"
   viewBox="0 0 4.7624941 5.820826"
   height="5.8208261mm"
   width="4.7624941mm"
   xmlns="http://www.w3.org/2000/svg"
   xmlns:svg="http://www.w3.org/2000/svg">
  <defs
     id="defs1097" />
  <g
     id="New_Layer_1652809108.2557478"
     style="display:inline"
     transform="translate(-70.646349,-991.13858)">
    <path
       fill="#323232"
       d="M 21,21.78 4.22,5 3,6.22 5.04,8.26 C 4.42,8.6 4,9.25 4,10 v 10 c 0,1.1 0.9,2 2,2 h 12 c 0.23,0 0.45,-0.05 0.66,-0.12 L 19.78,23 Z M 8.9,6 c 0,-1.71 1.39,-3.1 3.1,-3.1 1.71,0 3.1,1.39 3.1,3.1 V 8 H 9.66 L 20,18.34 V 10 C 20,8.9 19.1,8 18,8 H 17 V 6 C 17,3.24 14.76,1 12,1 9.44,1 7.36,2.93 7.06,5.4 L 8.9,7.24 Z"
       id="path20587"
       transform="matrix(0.264583,0,0,0.264583,69.8526,990.874)" />
  </g>
</svg>
