<?xml version="1.0" encoding="UTF-8" standalone="no"?>
<!-- Created with Inkscape (http://www.inkscape.org/) -->

<svg
   id="svg1100"
   version="1.1"
   viewBox="0 0 5.4530559 5.4530606"
   height="5.4530606mm"
   width="5.4530559mm"
   xmlns="http://www.w3.org/2000/svg"
   xmlns:svg="http://www.w3.org/2000/svg">
  <defs
     id="defs1097" />
  <g
     id="New_Layer_1652806959.0469208"
     style="display:inline"
     transform="translate(-134.59177,-57.348361)">
    <path
       fill="#323232"
       d="M 21.19,21.19 2.81,2.81 1.39,4.22 3.66,6.49 A 9.91,9.91 0 0 0 2,12 c 0,5.52 4.48,10 10,10 2.04,0 3.93,-0.61 5.51,-1.66 l 2.27,2.27 z m -10.6,-4.59 -4.24,-4.24 1.41,-1.41 2.83,2.83 0.18,-0.18 1.41,1.41 z m 3,-5.84 -7.1,-7.1 A 9.91,9.91 0 0 1 12,2 c 5.52,0 10,4.48 10,10 0,2.04 -0.61,3.93 -1.66,5.51 L 15,12.17 17.65,9.52 16.24,8.11 Z"
       id="path4655"
       transform="matrix(0.264583,0,0,0.264583,134.224,56.8192)" />
  </g>
</svg>
