<?xml version="1.0" encoding="UTF-8" standalone="no"?>
<!-- Created with Inkscape (http://www.inkscape.org/) -->

<svg
   id="svg1100"
   version="1.1"
   viewBox="0 0 4.7624941 5.2916598"
   height="5.2916598mm"
   width="4.7624941mm"
   xmlns="http://www.w3.org/2000/svg"
   xmlns:svg="http://www.w3.org/2000/svg">
  <defs
     id="defs1097" />
  <g
     id="New_Layer_1652809108.2573314"
     style="display:inline"
     transform="translate(-119.59275,-991.40258)">
    <path
       fill="#323232"
       d="M 14.71,9.5 17,7.21 V 11 h 0.5 L 20.35,8.15 18.21,6 20.36,3.85 17.5,1 H 17 V 4.79 L 14.71,2.5 14,3.21 16.79,6 14,8.79 Z M 18,2.91 18.94,3.85 18,4.79 Z m 0,4.3 0.94,0.94 L 18,9.09 Z m 2,8.29 c -1.25,0 -2.45,-0.2 -3.57,-0.57 a 1.02,1.02 0 0 0 -1.02,0.24 l -2.2,2.2 A 15.045,15.045 0 0 1 6.62,10.78 L 8.82,8.57 A 0.96,0.96 0 0 0 9.07,7.57 11.36,11.36 0 0 1 8.5,4 C 8.5,3.45 8.05,3 7.5,3 H 4 C 3.45,3 3,3.45 3,4 c 0,9.39 7.61,17 17,17 0.55,0 1,-0.45 1,-1 v -3.5 c 0,-0.55 -0.45,-1 -1,-1 z"
       id="path20620"
       transform="matrix(0.264583,0,0,0.264583,118.799,991.138)" />
  </g>
</svg>
