<?xml version="1.0" encoding="UTF-8" standalone="no"?>
<!-- Created with Inkscape (http://www.inkscape.org/) -->

<svg
   id="svg1100"
   version="1.1"
   viewBox="0 0 6.3526378 4.7254524"
   height="4.7254524mm"
   width="6.3526378mm"
   xmlns="http://www.w3.org/2000/svg"
   xmlns:svg="http://www.w3.org/2000/svg">
  <defs
     id="defs1097" />
  <g
     id="New_Layer_1652809108.2600198"
     style="display:inline"
     transform="translate(-1.2e-6,-972.47275)">
    <path
       fill="#323232"
       d="M 6.5,5.5 12,11 19,4 18,3 12,9 7.5,4.5 H 11 V 3 H 5 V 9 H 6.5 Z M 23.71,16.67 A 16.971,16.971 0 0 0 12,12 C 7.46,12 3.34,13.78 0.29,16.67 0.11,16.85 0,17.1 0,17.38 c 0,0.28 0.11,0.53 0.29,0.71 l 2.48,2.48 c 0.18,0.18 0.43,0.29 0.71,0.29 0.27,0 0.52,-0.11 0.7,-0.28 0.79,-0.74 1.69,-1.36 2.66,-1.85 0.33,-0.16 0.56,-0.5 0.56,-0.9 v -3.1 C 8.85,14.25 10.4,14 12,14 c 1.6,0 3.15,0.25 4.6,0.72 v 3.1 c 0,0.39 0.23,0.74 0.56,0.9 0.98,0.49 1.87,1.12 2.67,1.85 0.18,0.18 0.43,0.28 0.7,0.28 0.28,0 0.53,-0.11 0.71,-0.29 l 2.48,-2.48 c 0.18,-0.18 0.29,-0.43 0.29,-0.71 0,-0.28 -0.12,-0.52 -0.3,-0.7 z"
       id="path20675"
       transform="matrix(0.264583,0,0,0.264583,1.2e-6,971.679)" />
  </g>
</svg>
