<?xml version="1.0" encoding="UTF-8" standalone="no"?>
<!-- Created with Inkscape (http://www.inkscape.org/) -->

<svg
   id="svg1100"
   version="1.1"
   viewBox="0 0 5.8208261 5.5562429"
   height="5.5562429mm"
   width="5.8208261mm"
   xmlns="http://www.w3.org/2000/svg"
   xmlns:svg="http://www.w3.org/2000/svg">
  <defs
     id="defs1097" />
  <g
     id="New_Layer_1652806959.0475447"
     style="display:inline"
     transform="translate(-72.495783,-67.615574)">
    <path
       fill="#323232"
       d="M 23,12 20.56,9.21 20.9,5.52 17.29,4.7 15.4,1.5 12,2.96 8.6,1.5 6.71,4.69 3.1,5.5 3.44,9.2 1,12 l 2.44,2.79 -0.34,3.7 3.61,0.82 1.89,3.19 3.4,-1.47 3.4,1.46 1.89,-3.19 3.61,-0.82 -0.34,-3.69 z m -12.91,4.72 -3.8,-3.81 1.48,-1.48 2.32,2.33 5.85,-5.87 1.48,1.48 z"
       id="path4688"
       transform="matrix(0.264583,0,0,0.264583,72.2312,67.2187)" />
  </g>
</svg>
