<?xml version="1.0" encoding="UTF-8" standalone="no"?>
<!-- Created with Inkscape (http://www.inkscape.org/) -->

<svg
   id="svg1100"
   version="1.1"
   viewBox="0 0 5.2916598 4.7624941"
   height="4.7624941mm"
   width="5.2916598mm"
   xmlns="http://www.w3.org/2000/svg"
   xmlns:svg="http://www.w3.org/2000/svg">
  <defs
     id="defs1097" />
  <g
     id="New_Layer_1652809108.2648084"
     style="display:inline"
     transform="translate(-60.592266,-982.06075)">
    <path
       fill="#323232"
       d="M 21,12.22 C 21,6.73 16.74,3 12,3 7.31,3 3,6.65 3,12.28 2.4,12.62 2,13.26 2,14 v 2 c 0,1.1 0.9,2 2,2 h 1 v -6.1 c 0,-3.87 3.13,-7 7,-7 3.87,0 7,3.13 7,7 V 19 h -8 v 2 h 8 c 1.1,0 2,-0.9 2,-2 v -1.22 c 0.59,-0.31 1,-0.92 1,-1.64 v -2.3 c 0,-0.7 -0.41,-1.31 -1,-1.62 z"
       id="path20782"
       transform="matrix(0.264583,0,0,0.264583,60.0631,981.267)" />
    <path
       fill="#323232"
       d="m 9,14 a 1,1 0 1 0 0,-2 1,1 0 0 0 0,2 z m 6,0 a 1,1 0 1 0 0,-2 1,1 0 0 0 0,2 z"
       id="path20784"
       transform="matrix(0.264583,0,0,0.264583,60.0631,981.268)" />
    <path
       fill="#323232"
       d="M 18,11.03 A 6.04,6.04 0 0 0 12.05,6 C 9.02,6 5.76,8.51 6.02,12.45 a 8.075,8.075 0 0 0 4.86,-5.89 c 1.31,2.63 4,4.44 7.12,4.47 z"
       id="path20786"
       transform="matrix(0.264583,0,0,0.264583,60.0631,981.268)" />
  </g>
</svg>
