<?xml version="1.0" encoding="UTF-8" standalone="no"?>
<!-- Created with Inkscape (http://www.inkscape.org/) -->

<svg
   id="svg1100"
   version="1.1"
   viewBox="0 0 4.5352473 4.5349526"
   height="4.5349526mm"
   width="4.5352473mm"
   xmlns="http://www.w3.org/2000/svg"
   xmlns:svg="http://www.w3.org/2000/svg">
  <defs
     id="defs1097" />
  <g
     id="New_Layer_1652809108.2667775"
     style="display:inline"
     transform="translate(-11.228807,-1001.5683)">
    <path
       fill="#323232"
       d="M 10,6.35 V 4.26 C 9.2,4.47 8.45,4.8 7.77,5.22 L 9.23,6.68 C 9.48,6.56 9.73,6.44 10,6.35 Z M 2.86,5.41 5.22,7.77 a 7.925,7.925 0 0 0 1.14,9.87 L 4,20 h 6 V 14 L 7.76,16.24 A 6.003,6.003 0 0 1 6,12 C 6,11 6.25,10.06 6.68,9.23 l 8.08,8.08 c -0.25,0.13 -0.5,0.25 -0.77,0.34 v 2.09 c 0.8,-0.21 1.55,-0.54 2.23,-0.96 l 2.36,2.36 1.27,-1.27 L 4.14,4.14 Z M 20,4 h -6 v 6 L 16.24,7.76 A 6.003,6.003 0 0 1 18,12 c 0,1 -0.25,1.94 -0.68,2.77 l 1.46,1.46 A 7.925,7.925 0 0 0 17.64,6.36 Z"
       id="path20810"
       transform="matrix(0.264583,0,0,0.264583,10.4721,1000.51)" />
  </g>
</svg>
