<?xml version="1.0" encoding="UTF-8" standalone="no"?>
<!-- Created with Inkscape (http://www.inkscape.org/) -->

<svg
   id="svg1100"
   version="1.1"
   viewBox="0 0 4.497911 5.820826"
   height="5.8208261mm"
   width="4.497911mm"
   xmlns="http://www.w3.org/2000/svg"
   xmlns:svg="http://www.w3.org/2000/svg">
  <defs
     id="defs1097" />
  <g
     id="New_Layer_1652809108.2683969"
     style="display:inline"
     transform="translate(-21.566166,-1000.9246)">
    <path
       fill="#323232"
       d="m 2,16 v 2 c 2.76,0 5,2.24 5,5 H 9 C 9,19.13 5.87,16 2,16 Z m 0,4 v 3 H 5 C 5,21.34 3.66,20 2,20 Z m 0,-8 v 2 a 9,9 0 0 1 9,9 h 2 C 13,16.92 8.08,12 2,12 Z M 17,1.01 7,1 C 5.9,1 5,1.9 5,3 v 7.37 c 0.69,0.16 1.36,0.37 2,0.64 V 5 h 10 v 13 h -3.03 c 0.52,1.25 0.84,2.59 0.95,4 H 17 c 1.1,0 2,-0.9 2,-2 V 3 C 19,1.9 18.1,1.01 17,1.01 Z"
       id="path20843"
       transform="matrix(0.264583,0,0,0.264583,21.037,1000.66)" />
  </g>
</svg>
