<?xml version="1.0" encoding="UTF-8" standalone="no"?>
<!-- Created with Inkscape (http://www.inkscape.org/) -->

<svg
   id="svg1100"
   version="1.1"
   viewBox="0 0 4.7624941 4.2333278"
   height="4.2333279mm"
   width="4.7624941mm"
   xmlns="http://www.w3.org/2000/svg"
   xmlns:svg="http://www.w3.org/2000/svg">
  <defs
     id="defs1097" />
  <g
     id="New_Layer_1652809108.26893"
     style="display:inline"
     transform="translate(-80.435949,-991.93233)">
    <path
       fill="#323232"
       d="M 18.92,5.01 C 18.72,4.42 18.16,4 17.5,4 H 6.5 C 5.84,4 5.29,4.42 5.08,5.01 L 3,11 v 8 c 0,0.55 0.45,1 1,1 h 1 c 0.55,0 1,-0.45 1,-1 v -1 h 12 v 1 c 0,0.55 0.45,1 1,1 h 1 c 0.55,0 1,-0.45 1,-1 V 11 Z M 6.5,15 C 5.67,15 5,14.33 5,13.5 5,12.67 5.67,12 6.5,12 7.33,12 8,12.67 8,13.5 8,14.33 7.33,15 6.5,15 Z m 11,0 C 16.67,15 16,14.33 16,13.5 16,12.67 16.67,12 17.5,12 18.33,12 19,12.67 19,13.5 19,14.33 18.33,15 17.5,15 Z M 5,10 6.5,5.5 h 11 L 19,10 Z"
       id="path20854"
       transform="matrix(0.264583,0,0,0.264583,79.6422,990.874)" />
  </g>
</svg>
