<?xml version="1.0" encoding="UTF-8" standalone="no"?>
<!-- Created with Inkscape (http://www.inkscape.org/) -->

<svg
   id="svg1100"
   version="1.1"
   viewBox="0 0 5.8208261 5.820826"
   height="5.8208261mm"
   width="5.8208261mm"
   xmlns="http://www.w3.org/2000/svg"
   xmlns:svg="http://www.w3.org/2000/svg">
  <defs
     id="defs1097" />
  <g
     id="New_Layer_1652809108.2694623"
     style="display:inline"
     transform="translate(-30.958883,-971.92558)">
    <path
       fill="#323232"
       d="M 1,3.54 2.53,5.07 C 1.65,5.28 1,6.06 1,7 v 12 c 0,1.1 0.9,2 2,2 h 15.46 l 2,2 1.26,-1.27 L 2.27,2.27 Z M 3,19 V 7 h 1.46 l 12,12 z M 21,5 H 13.42 L 16.71,1.7 16,1 12,5 8,1 7.3,1.7 10.58,5 H 7.52 l 2,2 H 21 v 11.48 l 1.65,1.65 C 22.87,19.81 23,19.42 23,19 V 7 C 23,5.89 22.11,5 21,5 Z"
       id="path20865"
       transform="matrix(0.264583,0,0,0.264583,30.6943,971.661)" />
  </g>
</svg>
