<?xml version="1.0" encoding="UTF-8" standalone="no"?>
<!-- Created with Inkscape (http://www.inkscape.org/) -->

<svg
   id="svg1100"
   version="1.1"
   viewBox="0 0 5.8208261 5.820826"
   height="5.8208261mm"
   width="5.8208261mm"
   xmlns="http://www.w3.org/2000/svg"
   xmlns:svg="http://www.w3.org/2000/svg">
  <defs
     id="defs1097" />
  <g
     id="New_Layer_1652809108.2710326"
     style="display:inline"
     transform="translate(-99.485983,-971.92558)">
    <path
       fill="#323232"
       d="M 22,4 V 3.5 a 2.5,2.5 0 0 0 -5,0 V 4 c -0.55,0 -1,0.45 -1,1 v 4 c 0,0.55 0.45,1 1,1 h 5 c 0.55,0 1,-0.45 1,-1 V 5 C 23,4.45 22.55,4 22,4 Z M 21.2,4 H 17.8 V 3.5 c 0,-0.94 0.76,-1.7 1.7,-1.7 0.94,0 1.7,0.76 1.7,1.7 z m -2.28,8 c 0.04,0.33 0.08,0.66 0.08,1 0,2.08 -0.8,3.97 -2.1,5.39 C 16.64,17.58 15.9,17 15,17 h -1 v -3 c 0,-0.55 -0.45,-1 -1,-1 H 7 v -2 h 2 c 0.55,0 1,-0.45 1,-1 V 8 h 2 c 1.1,0 2,-0.9 2,-2 V 3.46 C 13.05,3.16 12.05,3 11,3 5.48,3 1,7.48 1,13 c 0,5.52 4.48,10 10,10 5.52,0 10,-4.48 10,-10 0,-0.34 -0.02,-0.67 -0.05,-1 z M 10,20.93 C 6.05,20.44 3,17.08 3,13 3,12.38 3.08,11.79 3.21,11.21 L 8,16 v 1 c 0,1.1 0.9,2 2,2 z"
       id="path20898"
       transform="matrix(0.264583,0,0,0.264583,99.2214,971.661)" />
  </g>
</svg>
