<?xml version="1.0" encoding="UTF-8" standalone="no"?>
<!-- Created with Inkscape (http://www.inkscape.org/) -->

<svg
   id="svg1100"
   version="1.1"
   viewBox="0 0 4.497911 5.2916598"
   height="5.2916598mm"
   width="4.497911mm"
   xmlns="http://www.w3.org/2000/svg"
   xmlns:svg="http://www.w3.org/2000/svg">
  <defs
     id="defs1097" />
  <g
     id="New_Layer_1652809108.2715633"
     style="display:inline"
     transform="translate(-31.620332,-1001.1892)">
    <path
       fill="#323232"
       d="M 5.5,22 V 14.5 H 4 V 9 C 4,7.9 4.9,7 6,7 h 3 c 1.1,0 2,0.9 2,2 v 5.5 H 9.5 V 22 Z M 18,22 v -6 h 3 L 18.46,8.37 A 2.01,2.01 0 0 0 16.56,7 h -0.12 a 2,2 0 0 0 -1.9,1.37 L 12,16 h 3 v 6 z M 7.5,6 c 1.11,0 2,-0.89 2,-2 0,-1.11 -0.89,-2 -2,-2 -1.11,0 -2,0.89 -2,2 0,1.11 0.89,2 2,2 z m 9,0 c 1.11,0 2,-0.89 2,-2 0,-1.11 -0.89,-2 -2,-2 -1.11,0 -2,0.89 -2,2 0,1.11 0.89,2 2,2 z"
       id="path20909"
       transform="matrix(0.264583,0,0,0.264583,30.562,1000.66)" />
  </g>
</svg>
