<?xml version="1.0" encoding="UTF-8" standalone="no"?>
<!-- Created with Inkscape (http://www.inkscape.org/) -->

<svg
   id="svg1100"
   version="1.1"
   viewBox="0 0 5.8208261 4.1149273"
   height="4.1149273mm"
   width="5.8208261mm"
   xmlns="http://www.w3.org/2000/svg"
   xmlns:svg="http://www.w3.org/2000/svg">
  <defs
     id="defs1097" />
  <g
     id="New_Layer_1652809108.2720807"
     style="display:inline"
     transform="translate(-60.327683,-972.77873)">
    <path
       fill="#323232"
       d="m 1,9 2,2 C 7.97,6.03 16.03,6.03 21,11 L 23,9 C 16.93,2.93 7.08,2.93 1,9 Z m 8,8 3,3 3,-3 a 4.237,4.237 0 0 0 -6,0 z m -4,-4 2,2 a 7.074,7.074 0 0 1 10,0 l 2,-2 C 15.14,9.14 8.87,9.14 5,13 Z"
       id="path20920"
       transform="matrix(0.264583,0,0,0.264583,60.0631,971.602)" />
  </g>
</svg>
