<?xml version="1.0" encoding="UTF-8" standalone="no"?>
<!-- Created with Inkscape (http://www.inkscape.org/) -->

<svg
   id="svg1100"
   version="1.1"
   viewBox="0 0 5.8181801 4.8180566"
   height="4.8180566mm"
   width="5.8181801mm"
   xmlns="http://www.w3.org/2000/svg"
   xmlns:svg="http://www.w3.org/2000/svg">
  <defs
     id="defs1097" />
  <g
     id="New_Layer_1652809108.2726119"
     style="display:inline"
     transform="translate(-119.06558,-972.4266)">
    <path
       fill="#323232"
       d="M 22.99,9 C 19.15,5.16 13.8,3.76 8.84,4.78 l 2.52,2.52 c 3.47,-0.17 6.99,1.05 9.63,3.7 z m -4,4 A 9.793,9.793 0 0 0 14.5,10.44 l 3.53,3.53 z M 2,3.05 5.07,6.1 C 3.6,6.82 2.22,7.78 1,9 l 1.99,2 C 4.23,9.76 5.66,8.84 7.19,8.23 l 2.24,2.24 A 9.684,9.684 0 0 0 5,13 v 0.01 L 6.99,15 a 7.042,7.042 0 0 1 4.92,-2.06 L 18.98,20 20.25,18.74 3.29,1.79 Z M 9,17 l 3,3 3,-3 a 4.237,4.237 0 0 0 -6,0 z"
       id="path20931"
       transform="matrix(0.264583,0,0,0.264583,118.801,971.953)" />
  </g>
</svg>
