<?xml version="1.0" encoding="UTF-8" standalone="no"?>
<!-- Created with Inkscape (http://www.inkscape.org/) -->

<svg
   id="svg1100"
   version="1.1"
   viewBox="0 0 5.2916598 5.2916598"
   height="5.2916598mm"
   width="5.2916598mm"
   xmlns="http://www.w3.org/2000/svg"
   xmlns:svg="http://www.w3.org/2000/svg">
  <defs
     id="defs1097" />
  <g
     id="New_Layer_1652809116.9167452"
     style="display:inline"
     transform="translate(-144.18017,-1038.5392)">
    <path
       fill="#323232"
       d="M 22,11 H 17.83 L 21.07,7.76 19.66,6.34 15,11 H 13 V 9 L 17.66,4.34 16.24,2.93 13,6.17 V 2 H 11 V 6.17 L 7.76,2.93 6.34,4.34 11,9 v 2 H 9 L 4.34,6.34 2.93,7.76 6.17,11 H 2 v 2 H 6.17 L 2.93,16.24 4.34,17.66 9,13 h 2 v 2 L 6.34,19.66 7.76,21.07 11,17.83 V 22 h 2 v -4.17 l 3.24,3.24 1.42,-1.41 L 13,15 v -2 h 2 l 4.66,4.66 1.41,-1.42 L 17.83,13 H 22 Z"
       id="path21788"
       transform="matrix(0.264583,0,0,0.264583,143.651,1038.01)" />
  </g>
</svg>
