<?xml version="1.0" encoding="UTF-8" standalone="no"?>
<!-- Created with Inkscape (http://www.inkscape.org/) -->

<svg
   id="svg1100"
   version="1.1"
   viewBox="0 0 6.3499918 2.846919"
   height="2.8469191mm"
   width="6.3499918mm"
   xmlns="http://www.w3.org/2000/svg"
   xmlns:svg="http://www.w3.org/2000/svg">
  <defs
     id="defs1097" />
  <g
     id="New_Layer_1652809116.9182208"
     style="display:inline"
     transform="translate(-1.2e-6,-1030.1915)">
    <path
       fill="#323232"
       d="m 18.6,6.62 c -1.44,0 -2.8,0.56 -3.77,1.53 L 12,10.66 10.48,12 h 0.01 L 7.8,14.39 c -0.64,0.64 -1.49,0.99 -2.4,0.99 -1.87,0 -3.39,-1.51 -3.39,-3.38 0,-1.87 1.52,-3.38 3.39,-3.38 0.91,0 1.76,0.35 2.44,1.03 l 1.13,1 L 10.48,9.31 9.22,8.2 A 5.37,5.37 0 0 0 5.4,6.62 C 2.42,6.62 0,9.04 0,12 c 0,2.96 2.42,5.38 5.4,5.38 1.44,0 2.8,-0.56 3.77,-1.53 L 12,13.35 12.01,13.36 13.52,12 H 13.51 L 16.2,9.61 c 0.64,-0.64 1.49,-0.99 2.4,-0.99 1.87,0 3.39,1.51 3.39,3.38 0,1.87 -1.52,3.38 -3.39,3.38 -0.9,0 -1.76,-0.35 -2.44,-1.03 l -1.14,-1.01 -1.51,1.34 1.27,1.12 a 5.386,5.386 0 0 0 3.82,1.57 c 2.98,0 5.4,-2.41 5.4,-5.38 0,-2.97 -2.42,-5.37 -5.4,-5.37 z"
       id="path21810"
       transform="matrix(0.264583,0,0,0.264583,1.2e-6,1028.44)" />
  </g>
</svg>
