<?xml version="1.0" encoding="UTF-8" standalone="no"?>
<!-- Created with Inkscape (http://www.inkscape.org/) -->

<svg
   id="svg1100"
   version="1.1"
   viewBox="0 0 4.7624941 4.7624941"
   height="4.7624941mm"
   width="4.7624941mm"
   xmlns="http://www.w3.org/2000/svg"
   xmlns:svg="http://www.w3.org/2000/svg">
  <defs
     id="defs1097" />
  <g
     id="New_Layer_1652809116.9187686"
     style="display:inline"
     transform="translate(-153.70575,-1048.3237)">
    <path
       fill="#323232"
       d="M 17,11 V 3 H 7 V 7 H 3 v 14 h 8 v -4 h 2 v 4 h 8 V 11 Z M 7,19 H 5 V 17 H 7 Z M 7,15 H 5 V 13 H 7 Z M 7,11 H 5 V 9 h 2 z m 4,4 H 9 v -2 h 2 z m 0,-4 H 9 V 9 h 2 z M 11,7 H 9 V 5 h 2 z m 4,8 h -2 v -2 h 2 z m 0,-4 H 13 V 9 h 2 z M 15,7 H 13 V 5 h 2 z m 4,12 h -2 v -2 h 2 z m 0,-4 h -2 v -2 h 2 z"
       id="path21821"
       transform="matrix(0.264583,0,0,0.264583,152.912,1047.53)" />
  </g>
</svg>
