<?xml version="1.0" encoding="UTF-8" standalone="no"?>
<!-- Created with Inkscape (http://www.inkscape.org/) -->

<svg
   id="svg1100"
   version="1.1"
   viewBox="0 0 4.7624941 5.5562429"
   height="5.5562429mm"
   width="4.7624941mm"
   xmlns="http://www.w3.org/2000/svg"
   xmlns:svg="http://www.w3.org/2000/svg">
  <defs
     id="defs1097" />
  <g
     id="New_Layer_1652809116.9192975"
     style="display:inline"
     transform="translate(-107.05675,-1047.9246)">
    <path
       fill="#323232"
       d="m 14,8 v 2 H 11 L 8.31,8.82 7,12.75 V 22 H 3 V 12 L 4.58,7.37 A 2.003,2.003 0 0 1 7.3,6.18 l 4.15,1.83 z M 8,1 C 6.9,1 6,1.9 6,3 6,4.1 6.9,5 8,5 9.1,5 10,4.1 10,3 10,1.9 9.1,1 8,1 Z M 9,19 H 21 V 17 H 9 Z M 19.5,16 C 20.33,16 21,15.33 21,14.5 21,13.67 20.33,13 19.5,13 18.67,13 18,13.67 18,14.5 18,15.33 18.67,16 19.5,16 Z M 13,12 c 0,-0.55 -0.45,-1 -1,-1 H 9 v 2 h 2 v 1 c 0,1.1 0.9,2 2,2 h 2 c 1.1,0 2,-0.9 2,-2 v -3 h -2 v 2 h -2 z"
       id="path21832"
       transform="matrix(0.264583,0,0,0.264583,106.263,1047.66)" />
  </g>
</svg>
