<?xml version="1.0" encoding="UTF-8" standalone="no"?>
<!-- Created with Inkscape (http://www.inkscape.org/) -->

<svg
   id="svg1100"
   version="1.1"
   viewBox="0 0 5.2916598 5.2916598"
   height="5.2916598mm"
   width="5.2916598mm"
   xmlns="http://www.w3.org/2000/svg"
   xmlns:svg="http://www.w3.org/2000/svg">
  <defs
     id="defs1097" />
  <g
     id="New_Layer_1652809116.92036"
     style="display:inline"
     transform="translate(-134.92017,-1038.5292)">
    <path
       fill="#323232"
       d="M 7,9 A 2,2 0 1 0 7,5 2,2 0 0 0 7,9 Z"
       id="path21854"
       transform="matrix(0.264583,0,0,0.264583,134.39,1038.01)" />
    <path
       fill="#323232"
       d="M 20,13 V 4.83 C 20,3.27 18.73,2 17.17,2 16.42,2 15.7,2.3 15.17,2.83 L 13.92,4.08 C 13.76,4.03 13.59,4 13.41,4 13.01,4 12.64,4.12 12.33,4.32 l 2.76,2.76 C 15.29,6.77 15.41,6.4 15.41,6 15.41,5.82 15.38,5.66 15.34,5.49 L 16.59,4.24 A 0.828,0.828 0 0 1 18,4.83 V 13 h -6.85 c -0.3,-0.21 -0.57,-0.45 -0.82,-0.72 L 8.93,10.73 C 8.74,10.52 8.5,10.35 8.24,10.23 A 2.251,2.251 0 0 0 5,12.25 V 13 H 2 v 6 c 0,1.1 0.9,2 2,2 0,0.55 0.45,1 1,1 h 14 c 0.55,0 1,-0.45 1,-1 1.1,0 2,-0.9 2,-2 v -6 z"
       id="path21856"
       transform="matrix(0.264583,0,0,0.264583,134.391,1038)" />
  </g>
</svg>
