<?xml version="1.0" encoding="UTF-8" standalone="no"?>
<!-- Created with Inkscape (http://www.inkscape.org/) -->

<svg
   id="svg1100"
   version="1.1"
   viewBox="0 0 4.7613726 4.762166"
   height="4.762166mm"
   width="4.7613726mm"
   xmlns="http://www.w3.org/2000/svg"
   xmlns:svg="http://www.w3.org/2000/svg">
  <defs
     id="defs1097" />
  <g
     id="New_Layer_1652809116.9213424"
     style="display:inline"
     transform="translate(-59.566177,-1058.1141)">
    <path
       fill="#323232"
       d="m 13.127,14.56 1.43,-1.43 6.44,6.443 L 19.57,21 Z M 17.42,8.83 20.28,5.97 C 16.33,2.02 9.93,2.01 5.98,5.95 9.91,4.65 14.29,5.7 17.42,8.83 Z M 5.95,5.98 C 2.01,9.93 2.02,16.33 5.97,20.28 L 8.83,17.42 C 5.7,14.29 4.65,9.91 5.95,5.98 Z M 5.97,5.96 5.96,5.97 c -0.38,3.01 1.17,6.88 4.3,10.02 l 5.73,-5.73 C 12.86,7.13 8.98,5.58 5.97,5.96 Z"
       id="path21868"
       transform="matrix(0.264583,0,0,0.264583,58.7721,1057.32)" />
  </g>
</svg>
