<?xml version="1.0" encoding="UTF-8" standalone="no"?>
<!-- Created with Inkscape (http://www.inkscape.org/) -->

<svg
   id="svg1100"
   version="1.1"
   viewBox="0 0 5.2916598 3.7041619"
   height="3.7041619mm"
   width="5.2916598mm"
   xmlns="http://www.w3.org/2000/svg"
   xmlns:svg="http://www.w3.org/2000/svg">
  <defs
     id="defs1097" />
  <g
     id="New_Layer_1652809116.921877"
     style="display:inline"
     transform="translate(-87.870766,-1039.3329)">
    <path
       fill="#323232"
       d="M 16,11 V 5 h 4 c 1.1,0 2,0.9 2,2 v 4 z m 4,8 c 1.1,0 2,-0.9 2,-2 v -4 h -6 v 6 z M 14,5 V 19 H 4 C 2.9,19 2,18.1 2,17 V 7 C 2,5.9 2.9,5 4,5 Z m -4.5,7 c 0,-0.83 -0.67,-1.5 -1.5,-1.5 -0.83,0 -1.5,0.67 -1.5,1.5 0,0.83 0.67,1.5 1.5,1.5 0.83,0 1.5,-0.67 1.5,-1.5 z"
       id="path21879"
       transform="matrix(0.264583,0,0,0.264583,87.3416,1038.01)" />
  </g>
</svg>
