<?xml version="1.0" encoding="UTF-8" standalone="no"?>
<!-- Created with Inkscape (http://www.inkscape.org/) -->

<svg
   id="svg1100"
   version="1.1"
   viewBox="0 0 5.2916598 4.7624941"
   height="4.7624941mm"
   width="5.2916598mm"
   xmlns="http://www.w3.org/2000/svg"
   xmlns:svg="http://www.w3.org/2000/svg">
  <defs
     id="defs1097" />
  <g
     id="New_Layer_1652809116.9224098"
     style="display:inline"
     transform="translate(-0.5291672,-1038.8037)">
    <path
       fill="#323232"
       d="M 10,16 V 15 H 3.01 L 3,19 c 0,1.11 0.89,2 2,2 h 14 c 1.11,0 2,-0.89 2,-2 v -4 h -7 v 1 z M 20,7 H 15.99 V 5 l -2,-2 h -4 l -2,2 V 7 H 4 C 2.9,7 2,7.9 2,9 v 3 c 0,1.11 0.89,2 2,2 h 6 v -2 h 4 v 2 h 6 c 1.1,0 2,-0.9 2,-2 V 9 C 22,7.9 21.1,7 20,7 Z M 14,7 H 10 V 5 h 4 z"
       id="path21890"
       transform="matrix(0.264583,0,0,0.264583,1.2e-6,1038.01)" />
  </g>
</svg>
