<?xml version="1.0" encoding="UTF-8" standalone="no"?>
<!-- Created with Inkscape (http://www.inkscape.org/) -->

<svg
   id="svg1100"
   version="1.1"
   viewBox="0 0 5.292831 4.2345824"
   height="4.2345824mm"
   width="5.2928309mm"
   xmlns="http://www.w3.org/2000/svg"
   xmlns:svg="http://www.w3.org/2000/svg">
  <defs
     id="defs1097" />
  <g
     id="New_Layer_1652809116.9245424"
     style="display:inline"
     transform="translate(-134.91858,-1029.4971)">
    <path
       fill="#323232"
       d="M 21.6,18.2 13,11.75 V 10.84 A 3.496,3.496 0 0 0 12.82,4.09 3.51,3.51 0 0 0 8.5,7.5 h 2 C 10.5,6.67 11.17,6 12,6 12.83,6 13.5,6.67 13.5,7.5 13.5,8.34 12.81,9.02 11.97,9 11.43,8.99 11,9.45 11,9.99 v 1.76 L 2.4,18.2 C 1.63,18.78 2.04,20 3,20 h 18 c 0.96,0 1.37,-1.22 0.6,-1.8 z M 6,18 12,13.5 18,18 Z"
       id="path21934"
       transform="matrix(0.264583,0,0,0.264583,134.39,1028.44)" />
  </g>
</svg>
