<?xml version="1.0" encoding="UTF-8" standalone="no"?>
<!-- Created with Inkscape (http://www.inkscape.org/) -->

<svg
   id="svg1100"
   version="1.1"
   viewBox="0 0 5.8208261 4.7625041"
   height="4.7625041mm"
   width="5.8208261mm"
   xmlns="http://www.w3.org/2000/svg"
   xmlns:svg="http://www.w3.org/2000/svg">
  <defs
     id="defs1097" />
  <g
     id="New_Layer_1652809116.9250758"
     style="display:inline"
     transform="translate(-39.769483,-1029.2237)">
    <path
       fill="#323232"
       d="m 14.5,11.75 a 1.25,1.25 0 1 0 0,-2.5 1.25,1.25 0 0 0 0,2.5 z m -5,0 a 1.25,1.25 0 1 0 0,-2.5 1.25,1.25 0 0 0 0,2.5 z"
       id="path21945"
       transform="matrix(0.264583,0,0,0.264583,39.5049,1028.44)" />
    <path
       fill="#323232"
       d="M 22.94,12.66 C 22.98,12.45 23,12.23 23,12 23,11.77 22.98,11.55 22.94,11.34 A 4.008,4.008 0 0 0 20.13,8.17 9.114,9.114 0 0 0 17.94,5.26 8.885,8.885 0 0 0 12,3 C 9.72,3 7.64,3.85 6.06,5.26 5.14,6.07 4.39,7.06 3.87,8.17 A 3.994,3.994 0 0 0 1.06,11.34 C 1.02,11.55 1,11.77 1,12 c 0,0.23 0.02,0.45 0.06,0.66 A 4.008,4.008 0 0 0 3.87,15.83 8.977,8.977 0 0 0 6.04,18.72 8.885,8.885 0 0 0 12,21 c 2.29,0 4.38,-0.86 5.97,-2.28 0.9,-0.8 1.65,-1.79 2.17,-2.89 a 3.998,3.998 0 0 0 2.8,-3.17 z M 19,14 c -0.1,0 -0.19,-0.02 -0.29,-0.03 -0.2,0.67 -0.49,1.29 -0.86,1.86 A 6.976,6.976 0 0 1 12,19 C 9.55,19 7.4,17.74 6.15,15.83 5.78,15.26 5.49,14.64 5.29,13.97 5.19,13.98 5.1,14 5,14 3.9,14 3,13.1 3,12 3,10.9 3.9,10 5,10 5.1,10 5.19,10.02 5.29,10.03 5.49,9.36 5.78,8.74 6.15,8.17 A 6.976,6.976 0 0 1 12,5 c 2.45,0 4.6,1.26 5.85,3.17 0.37,0.57 0.66,1.19 0.86,1.86 C 18.81,10.02 18.9,10 19,10 c 1.1,0 2,0.9 2,2 0,1.1 -0.9,2 -2,2 z M 7.5,14 c 0.76,1.77 2.49,3 4.5,3 2.01,0 3.74,-1.23 4.5,-3 z"
       id="path21947"
       transform="matrix(0.264583,0,0,0.264583,39.5049,1028.43)" />
  </g>
</svg>
