<?xml version="1.0" encoding="UTF-8" standalone="no"?>
<!-- Created with Inkscape (http://www.inkscape.org/) -->

<svg
   id="svg1100"
   version="1.1"
   viewBox="0 0 5.2916598 4.2333278"
   height="4.2333279mm"
   width="5.2916598mm"
   xmlns="http://www.w3.org/2000/svg"
   xmlns:svg="http://www.w3.org/2000/svg">
  <defs
     id="defs1097" />
  <g
     id="New_Layer_1652809116.9271286"
     style="display:inline"
     transform="translate(-116.20017,-1039.0683)">
    <path
       fill="#323232"
       d="M 18,10 V 7 C 18,5.34 16.66,4 15,4 13.34,4 12,5.34 12,7 h 2 c 0,-0.55 0.45,-1 1,-1 0.55,0 1,0.45 1,1 v 3 H 8 c 1.1,0 2,-0.9 2,-2 V 4 H 4 v 4 c 0,1.1 0.9,2 2,2 H 2 v 2 h 2 v 8 h 16 v -8 h 2 v -2 z m -5,8 h -2 v -6 h 2 z"
       id="path21981"
       transform="matrix(0.264583,0,0,0.264583,115.671,1038.01)" />
  </g>
</svg>
