<?xml version="1.0" encoding="UTF-8" standalone="no"?>
<!-- Created with Inkscape (http://www.inkscape.org/) -->

<svg
   id="svg1100"
   version="1.1"
   viewBox="0 0 5.8208261 5.4530558"
   height="5.4530559mm"
   width="5.8208261mm"
   xmlns="http://www.w3.org/2000/svg"
   xmlns:svg="http://www.w3.org/2000/svg">
  <defs
     id="defs1097" />
  <g
     id="New_Layer_1652809116.9276633"
     style="display:inline"
     transform="translate(-20.190383,-1028.8892)">
    <path
       fill="#323232"
       d="m 1.39,4.22 7.9,7.9 c 0.18,0.2 0.18,0.5 -0.01,0.7 a 0.485,0.485 0 0 1 -0.7,0 L 6.87,11.1 c -0.11,0.4 -0.26,0.78 -0.45,1.12 l 1.4,1.4 c 0.2,0.2 0.2,0.51 0,0.71 a 0.485,0.485 0 0 1 -0.7,0 L 5.85,13.06 c -0.24,0.29 -0.5,0.56 -0.77,0.8 l 1.28,1.28 c 0.2,0.2 0.2,0.51 0,0.71 C 6.26,15.95 6.13,16 6,16 A 0.47,0.47 0 0 1 5.65,15.85 L 4.27,14.47 C 3.58,14.93 2.88,15.26 2.3,15.49 1.52,15.8 1,16.53 1,17.37 V 20 h 9.5 l 3.33,-3.33 5.94,5.94 L 21.18,21.2 2.81,2.81 Z M 18.51,15.68 17.1,14.27 21.58,9.79 23,11.2 Z M 20.88,9.08 16.4,13.56 9.3,6.47 13.8,2 Z"
       id="path21992"
       transform="matrix(0.264583,0,0,0.264583,19.9258,1028.36)" />
  </g>
</svg>
