<?xml version="1.0" encoding="UTF-8" standalone="no"?>
<!-- Created with Inkscape (http://www.inkscape.org/) -->

<svg
   id="svg1100"
   version="1.1"
   viewBox="0 0 5.2387433 5.7176385"
   height="5.7176385mm"
   width="5.2387433mm"
   xmlns="http://www.w3.org/2000/svg"
   xmlns:svg="http://www.w3.org/2000/svg">
  <defs
     id="defs1097" />
  <g
     id="New_Layer_1652809116.9281876"
     style="display:inline"
     transform="translate(-68.85257,-1047.8446)">
    <path
       fill="#323232"
       d="M 13,10.17 10.5,7.67 V 2.25 a 1.25,1.25 0 0 1 2.5,0 z m 7,2.58 v -7.5 a 1.25,1.25 0 0 0 -2.5,0 V 11 h -1 V 3.25 a 1.25,1.25 0 0 0 -2.5,0 v 7.92 l 6,6 z M 9.5,4.25 C 9.5,3.56 8.94,3 8.25,3 7.58,3 7.05,3.53 7.01,4.18 L 9.5,6.67 Z M 13,10.17 10.5,7.67 V 2.25 a 1.25,1.25 0 0 1 2.5,0 z m 7,2.58 v -7.5 a 1.25,1.25 0 0 0 -2.5,0 V 11 h -1 V 3.25 a 1.25,1.25 0 0 0 -2.5,0 v 7.92 l 6,6 z M 9.5,4.25 C 9.5,3.56 8.94,3 8.25,3 7.58,3 7.05,3.53 7.01,4.18 L 9.5,6.67 Z M 21.19,21.19 2.81,2.81 1.39,4.22 7.02,9.85 7,9.83 v 4.3 C 5.89,13.49 4.42,12.66 4.4,12.65 4.23,12.56 4.06,12.51 3.86,12.51 3.6,12.51 3.36,12.6 3.16,12.77 3.12,12.78 2,13.88 2,13.88 l 6.8,7.18 C 9.37,21.66 10.15,22 10.98,22 H 17 c 0.62,0 1.18,-0.19 1.65,-0.52 l -0.02,-0.02 1.15,1.15 z"
       id="path22003"
       transform="matrix(0.264583,0,0,0.264583,68.4848,1047.58)" />
  </g>
</svg>
