<?xml version="1.0" encoding="UTF-8" standalone="no"?>
<!-- Created with Inkscape (http://www.inkscape.org/) -->

<svg
   id="svg1100"
   version="1.1"
   viewBox="0 0 5.8208261 3.968745"
   height="3.968745mm"
   width="5.8208261mm"
   xmlns="http://www.w3.org/2000/svg"
   xmlns:svg="http://www.w3.org/2000/svg">
  <defs
     id="defs1097" />
  <g
     id="New_Layer_1652806959.0500154"
     style="display:inline"
     transform="translate(-93.133283,-58.090524)">
    <path
       fill="#323232"
       d="M 12,4.5 C 7,4.5 2.73,7.61 1,12 c 1.73,4.39 6,7.5 11,7.5 5,0 9.27,-3.11 11,-7.5 C 21.27,7.61 17,4.5 12,4.5 Z M 12,17 C 9.24,17 7,14.76 7,12 7,9.24 9.24,7 12,7 c 2.76,0 5,2.24 5,5 0,2.76 -2.24,5 -5,5 z m 0,-8 c -1.66,0 -3,1.34 -3,3 0,1.66 1.34,3 3,3 1.66,0 3,-1.34 3,-3 0,-1.66 -1.34,-3 -3,-3 z"
       id="path4864"
       transform="matrix(0.264583,0,0,0.264583,92.8687,56.8999)" />
  </g>
</svg>
