<?xml version="1.0" encoding="UTF-8" standalone="no"?>
<!-- Created with Inkscape (http://www.inkscape.org/) -->

<svg
   id="svg1100"
   version="1.1"
   viewBox="0 0 5.556243 5.5562429"
   height="5.5562429mm"
   width="5.5562429mm"
   xmlns="http://www.w3.org/2000/svg"
   xmlns:svg="http://www.w3.org/2000/svg">
  <defs
     id="defs1097" />
  <g
     id="New_Layer_1652809116.9287224"
     style="display:inline"
     transform="translate(-68.693783,-1028.8392)">
    <path
       fill="#323232"
       d="M 15.65,4.86 15.58,4.79 C 15.01,4.17 14.76,3.38 14.91,2.59 L 15,2 h -1.89 l -0.06,0.43 c -0.2,1.36 0.27,2.71 1.3,3.72 l 0.07,0.06 c 0.57,0.62 0.82,1.41 0.67,2.2 L 14.98,9 h 1.91 L 16.95,8.57 C 17.16,7.21 16.68,5.86 15.65,4.86 Z m 4,0 -0.07,-0.07 C 19.01,4.17 18.76,3.38 18.91,2.59 L 19,2 h -1.89 l -0.06,0.43 c -0.2,1.36 0.27,2.71 1.3,3.72 l 0.07,0.06 c 0.57,0.62 0.82,1.41 0.67,2.2 L 18.98,9 h 1.91 L 20.95,8.57 C 21.16,7.21 20.68,5.86 19.65,4.86 Z M 9.12,5 1.94,11.79 C 1.34,12.35 1,13.14 1,13.97 V 20 c 0,1.66 1.34,3 3,3 h 13.75 a 1.25,1.25 0 0 0 0,-2.5 H 12 v -1 h 7.75 a 1.25,1.25 0 0 0 0,-2.5 H 12 v -1 h 8.75 a 1.25,1.25 0 0 0 0,-2.5 H 12 v -1 h 6.75 a 1.25,1.25 0 0 0 0,-2.5 H 8.86 C 9.5,8.89 10.34,7.42 10.35,7.39 A 1.065,1.065 0 0 0 10.23,6.16 C 10.22,6.12 9.12,5 9.12,5 Z"
       id="path22014"
       transform="matrix(0.264583,0,0,0.264583,68.4292,1028.31)" />
  </g>
</svg>
