<?xml version="1.0" encoding="UTF-8" standalone="no"?>
<!-- Created with Inkscape (http://www.inkscape.org/) -->

<svg
   id="svg1100"
   version="1.1"
   viewBox="0 0 4.7624941 4.7624941"
   height="4.7624941mm"
   width="4.7624941mm"
   xmlns="http://www.w3.org/2000/svg"
   xmlns:svg="http://www.w3.org/2000/svg">
  <defs
     id="defs1097" />
  <g
     id="New_Layer_1652809116.9292464"
     style="display:inline"
     transform="translate(-125.85675,-1048.3237)">
    <path
       fill="#323232"
       d="M 19,3 H 5 C 3.9,3 3,3.9 3,5 v 14 c 0,1.1 0.9,2 2,2 h 14 c 1.1,0 2,-0.9 2,-2 V 5 C 21,3.9 20.1,3 19,3 Z M 8.5,6 a 1.25,1.25 0 1 1 0,2.5 1.25,1.25 0 0 1 0,-2.5 z m 2.5,8 h -1 v 4 H 7 V 14 H 6 v -2.5 c 0,-1.1 0.9,-2 2,-2 h 1 c 1.1,0 2,0.9 2,2 z m 4.5,3 -2.5,-4 h 5 z M 13,11 15.5,7 18,11 Z"
       id="path22025"
       transform="matrix(0.264583,0,0,0.264583,125.063,1047.53)" />
  </g>
</svg>
