<?xml version="1.0" encoding="UTF-8" standalone="no"?>
<!-- Created with Inkscape (http://www.inkscape.org/) -->

<svg
   id="svg1100"
   version="1.1"
   viewBox="0 0 4.7624941 4.7624941"
   height="4.7624941mm"
   width="4.7624941mm"
   xmlns="http://www.w3.org/2000/svg"
   xmlns:svg="http://www.w3.org/2000/svg">
  <defs
     id="defs1097" />
  <g
     id="New_Layer_1652809116.9297824"
     style="display:inline"
     transform="translate(-0.7937502,-1058.1137)">
    <path
       fill="#323232"
       d="M 19,3 H 5 C 3.9,3 3,3.9 3,5 v 14 c 0,1.1 0.9,2 2,2 h 14 c 1.1,0 2,-0.9 2,-2 V 5 C 21,3.9 20.1,3 19,3 Z m -2,6 h -1.7 l -5,9 H 7 C 6.17,18 5.5,17.33 5.5,16.5 5.5,15.67 6.17,15 7,15 h 1.7 l 5,-9 H 17 c 0.83,0 1.5,0.67 1.5,1.5 C 18.5,8.33 17.83,9 17,9 Z"
       id="path22036"
       transform="matrix(0.264583,0,0,0.264583,1.2e-6,1057.32)" />
  </g>
</svg>
