<?xml version="1.0" encoding="UTF-8" standalone="no"?>
<!-- Created with Inkscape (http://www.inkscape.org/) -->

<svg
   id="svg1100"
   version="1.1"
   viewBox="0 0 4.497911 5.2916598"
   height="5.2916598mm"
   width="4.497911mm"
   xmlns="http://www.w3.org/2000/svg"
   xmlns:svg="http://www.w3.org/2000/svg">
  <defs
     id="defs1097" />
  <g
     id="New_Layer_1652809116.9303083"
     style="display:inline"
     transform="translate(-78.747949,-1057.8492)">
    <path
       fill="#323232"
       d="m 6.5,2 c 1.1,0 2,0.9 2,2 0,1.1 -0.9,2 -2,2 -1.1,0 -2,-0.9 -2,-2 0,-1.1 0.9,-2 2,-2 z m 9,7.5 c 0,0.83 0.67,1.5 1.5,1.5 0.83,0 1.5,-0.67 1.5,-1.5 C 18.5,8.67 17.83,8 17,8 16.17,8 15.5,8.67 15.5,9.5 Z m 3,2.5 h -2.84 c -0.58,0.01 -1.14,0.32 -1.45,0.86 L 13.29,14.18 9.72,8 A 2.02,2.02 0 0 0 8.01,7 H 5 C 3.9,7 3,7.9 3,9 v 6 h 1.5 v 7 h 5 V 11.61 L 12.03,16 h 2.2 L 15,14.9 V 22 h 4 v -5 h 1 V 13.5 C 20,12.68 19.33,12 18.5,12 Z"
       id="path22047"
       transform="matrix(0.264583,0,0,0.264583,77.9542,1057.32)" />
  </g>
</svg>
