<?xml version="1.0" encoding="UTF-8" standalone="no"?>
<!-- Created with Inkscape (http://www.inkscape.org/) -->

<svg
   id="svg1100"
   version="1.1"
   viewBox="0 0 5.4239516 5.2916598"
   height="5.2916598mm"
   width="5.4239516mm"
   xmlns="http://www.w3.org/2000/svg"
   xmlns:svg="http://www.w3.org/2000/svg">
  <defs
     id="defs1097" />
  <g
     id="New_Layer_1652809116.9308436"
     style="display:inline"
     transform="translate(-125.52617,-1028.9692)">
    <path
       fill="#323232"
       d="m 16,4 c 0,-1.11 0.89,-2 2,-2 1.11,0 2,0.89 2,2 0,1.11 -0.89,2 -2,2 -1.11,0 -2,-0.89 -2,-2 z m 4,18 v -6 h 2.5 L 19.96,8.37 A 2.01,2.01 0 0 0 18.06,7 h -0.12 a 2,2 0 0 0 -1.9,1.37 l -0.86,2.58 C 16.26,11.55 17,12.68 17,14 v 8 z M 12.5,11.5 C 13.33,11.5 14,10.83 14,10 14,9.17 13.33,8.5 12.5,8.5 11.67,8.5 11,9.17 11,10 c 0,0.83 0.67,1.5 1.5,1.5 z M 5.5,6 c 1.11,0 2,-0.89 2,-2 0,-1.11 -0.89,-2 -2,-2 -1.11,0 -2,0.89 -2,2 0,1.11 0.89,2 2,2 z m 2,16 V 15 H 9 V 9 C 9,7.9 8.1,7 7,7 H 4 C 2.9,7 2,7.9 2,9 v 6 h 1.5 v 7 z m 6.5,0 v -4 h 1 v -4 c 0,-0.82 -0.68,-1.5 -1.5,-1.5 h -2 C 10.68,12.5 10,13.18 10,14 v 4 h 1 v 4 z"
       id="path22058"
       transform="matrix(0.264583,0,0,0.264583,124.997,1028.44)" />
  </g>
</svg>
