<?xml version="1.0" encoding="UTF-8" standalone="no"?>
<!-- Created with Inkscape (http://www.inkscape.org/) -->

<svg
   id="svg1100"
   version="1.1"
   viewBox="0 0 4.7624941 4.2333278"
   height="4.2333279mm"
   width="4.7624941mm"
   xmlns="http://www.w3.org/2000/svg"
   xmlns:svg="http://www.w3.org/2000/svg">
  <defs
     id="defs1097" />
  <g
     id="New_Layer_1652809116.9313734"
     style="display:inline"
     transform="translate(-116.46475,-1048.5883)">
    <path
       fill="#323232"
       d="M 21,12 V 10 H 19 V 7 L 16,4 14,6 12,4 10,6 8,4 5,7 v 3 H 3 v 2 h 2 v 2 H 3 v 2 h 2 v 4 h 14 v -4 h 2 v -2 h -2 v -2 z m -5,-5.17 1,1 V 10 H 15 V 7.83 l 0.41,-0.41 z m -4,0 0.59,0.59 L 13,7.83 V 10 H 11 V 7.83 L 11.41,7.42 Z M 11,14 v -2 h 2 v 2 z m 2,2 v 2 H 11 V 16 Z M 7,7.83 8,6.83 8.59,7.42 9,7.83 V 10 H 7 Z M 7,12 h 2 v 2 H 7 Z m 0,4 h 2 v 2 H 7 Z m 10,2 h -2 v -2 h 2 z m 0,-4 h -2 v -2 h 2 z"
       id="path22069"
       transform="matrix(0.264583,0,0,0.264583,115.671,1047.53)" />
  </g>
</svg>
