<?xml version="1.0" encoding="UTF-8" standalone="no"?>
<!-- Created with Inkscape (http://www.inkscape.org/) -->

<svg
   id="svg1100"
   version="1.1"
   viewBox="0 0 3.1749959 5.0270772"
   height="5.0270772mm"
   width="3.1749959mm"
   xmlns="http://www.w3.org/2000/svg"
   xmlns:svg="http://www.w3.org/2000/svg">
  <defs
     id="defs1097" />
  <g
     id="New_Layer_1652809116.9319263"
     style="display:inline"
     transform="translate(-154.49891,-1057.9837)">
    <path
       fill="#323232"
       d="m 7,19 h 10 v 1 c 0,1.1 -0.9,2 -2,2 H 9 C 7.9,22 7,21.1 7,20 Z M 7,18 H 17 V 13 H 7 Z M 17,3 V 9 L 13.85,8.34 c -0.01,0 -0.01,0.01 -0.02,0.02 1.55,0.62 2.72,1.98 3.07,3.64 H 7.1 C 7.44,10.34 8.62,8.98 10.17,8.36 9.84,8.1 9.57,7.78 9.37,7.41 L 5,6.5 v -1 L 9.37,4.59 C 9.87,3.65 10.86,3 12,3 c 0.7,0 1.34,0.25 1.85,0.66 z M 13,6 C 12.97,5.41 12.55,5 12,5 c -0.55,0 -1,0.45 -1,1 0,0.55 0.45,1 1,1 0.55,0 1,-0.45 1,-1 z"
       id="path22080"
       transform="matrix(0.264583,0,0,0.264583,153.176,1057.19)" />
  </g>
</svg>
