<?xml version="1.0" encoding="UTF-8" standalone="no"?>
<!-- Created with Inkscape (http://www.inkscape.org/) -->

<svg
   id="svg1100"
   version="1.1"
   viewBox="0 0 5.2916598 5.2916598"
   height="5.2916598mm"
   width="5.2916598mm"
   xmlns="http://www.w3.org/2000/svg"
   xmlns:svg="http://www.w3.org/2000/svg">
  <defs
     id="defs1097" />
  <g
     id="New_Layer_1652809116.932463"
     style="display:inline"
     transform="translate(-0.5291672,-1048.0592)">
    <path
       fill="#323232"
       d="M 20.57,14.86 22,13.43 20.57,12 17,15.57 8.43,7 12,3.43 10.57,2 9.14,3.43 7.71,2 5.57,4.14 4.14,2.71 2.71,4.14 4.14,5.57 2,7.71 3.43,9.14 2,10.57 3.43,12 7,8.43 15.57,17 12,20.57 13.43,22 l 1.43,-1.43 1.43,1.43 2.14,-2.14 1.43,1.43 1.43,-1.43 -1.43,-1.43 2.14,-2.14 z"
       id="path22091"
       transform="matrix(0.264583,0,0,0.264583,1.2e-6,1047.53)" />
  </g>
</svg>
