<?xml version="1.0" encoding="UTF-8" standalone="no"?>
<!-- Created with Inkscape (http://www.inkscape.org/) -->

<svg
   id="svg1100"
   version="1.1"
   viewBox="0 0 5.0270772 4.7624941"
   height="4.7624941mm"
   width="5.0270772mm"
   xmlns="http://www.w3.org/2000/svg"
   xmlns:svg="http://www.w3.org/2000/svg">
  <defs
     id="defs1097" />
  <g
     id="New_Layer_1652806998.1771162"
     style="display:inline"
     transform="translate(-52.255249,-88.649949)">
    <path
       fill="#323232"
       d="m 21,18 v 1 c 0,1.1 -0.9,2 -2,2 H 5 A 2,2 0 0 1 3,19 V 5 A 2,2 0 0 1 5,3 h 14 c 1.1,0 2,0.9 2,2 v 1 h -9 a 2,2 0 0 0 -2,2 v 8 a 2,2 0 0 0 2,2 z M 12,16 H 22 V 8 H 12 Z m 4,-2.5 c -0.83,0 -1.5,-0.67 -1.5,-1.5 0,-0.83 0.67,-1.5 1.5,-1.5 0.83,0 1.5,0.67 1.5,1.5 0,0.83 -0.67,1.5 -1.5,1.5 z"
       id="path1227"
       transform="matrix(0.264583,0,0,0.264583,51.4615,87.8562)" />
  </g>
</svg>
