<?xml version="1.0" encoding="UTF-8" standalone="no"?>
<!-- Created with Inkscape (http://www.inkscape.org/) -->

<svg
   id="svg1100"
   version="1.1"
   viewBox="0 0 5.2916598 4.2333278"
   height="4.2333279mm"
   width="5.2916598mm"
   xmlns="http://www.w3.org/2000/svg"
   xmlns:svg="http://www.w3.org/2000/svg">
  <defs
     id="defs1097" />
  <g
     id="New_Layer_1652809116.9351294"
     style="display:inline"
     transform="translate(-106.79217,-1039.0683)">
    <path
       fill="#323232"
       d="M 12,20 H 2 V 18 H 7.75 A 8.032,8.032 0 0 0 2,12.26 C 2.64,12.1 3.31,12 4,12 c 4.42,0 8,3.58 8,8 z M 22,12.26 C 21.36,12.1 20.69,12 20,12 c -2.93,0 -5.48,1.58 -6.88,3.93 A 9.82,9.82 0 0 1 13.99,20 h 8 V 18 H 16.24 A 8.061,8.061 0 0 1 22,12.26 Z m -6.36,-1.24 a 10.03,10.03 0 0 1 4.09,-5 C 15.44,6.16 12,9.67 12,14 v 0.02 c 0.95,-1.27 2.2,-2.3 3.64,-3 z M 11.42,8.85 A 8.527,8.527 0 0 0 6.7,4 C 8.14,5.86 9,8.18 9,10.71 c 0,0.21 -0.03,0.41 -0.04,0.61 0.43,0.24 0.83,0.52 1.22,0.82 a 9.91,9.91 0 0 1 1.24,-3.29 z"
       id="path22146"
       transform="matrix(0.264583,0,0,0.264583,106.263,1038.01)" />
  </g>
</svg>
