<?xml version="1.0" encoding="UTF-8" standalone="no"?>
<!-- Created with Inkscape (http://www.inkscape.org/) -->

<svg
   id="svg1100"
   version="1.1"
   viewBox="0 0 5.2916598 5.0270772"
   height="5.0270772mm"
   width="5.2916598mm"
   xmlns="http://www.w3.org/2000/svg"
   xmlns:svg="http://www.w3.org/2000/svg">
  <defs
     id="defs1097" />
  <g
     id="New_Layer_1652809116.9356668"
     style="display:inline"
     transform="translate(-153.44117,-1029.1037)">
    <path
       fill="#323232"
       d="M 7,8 A 2,2 0 1 0 7,4 2,2 0 0 0 7,8 Z m 4.15,4 C 10.84,11.78 10.56,11.54 10.33,11.28 L 8.93,9.73 C 8.74,9.52 8.5,9.35 8.24,9.23 7.95,9.09 7.62,9 7.28,9 H 7.25 C 6.01,9 5,10.01 5,11.25 V 12 H 2 v 8 c 0,1.1 0.9,2 2,2 h 16 c 1.1,0 2,-0.9 2,-2 V 12 Z M 7,20 H 5 v -6 h 2 z m 4,0 H 9 v -6 h 2 z m 4,0 h -2 v -6 h 2 z m 4,0 h -2 v -6 h 2 z M 18.65,5.86 18.58,5.79 C 18.01,5.17 17.76,4.38 17.91,3.59 L 18,3 h -1.89 l -0.06,0.43 c -0.2,1.36 0.27,2.71 1.3,3.72 l 0.07,0.06 c 0.57,0.62 0.82,1.41 0.67,2.2 L 17.98,10 h 1.91 L 19.95,9.57 C 20.16,8.21 19.68,6.86 18.65,5.86 Z m -4,0 -0.07,-0.07 C 14.01,5.17 13.76,4.38 13.91,3.59 L 14,3 h -1.89 l -0.06,0.43 c -0.2,1.36 0.27,2.71 1.3,3.72 l 0.07,0.06 c 0.57,0.62 0.82,1.41 0.67,2.2 L 13.98,10 h 1.91 L 15.95,9.57 C 16.16,8.21 15.68,6.86 14.65,5.86 Z"
       id="path22157"
       transform="matrix(0.264583,0,0,0.264583,152.912,1028.31)" />
  </g>
</svg>
