<?xml version="1.0" encoding="UTF-8" standalone="no"?>
<!-- Created with Inkscape (http://www.inkscape.org/) -->

<svg
   id="svg1100"
   version="1.1"
   viewBox="0 0 4.2333279 5.2916598"
   height="5.2916598mm"
   width="4.2333279mm"
   xmlns="http://www.w3.org/2000/svg"
   xmlns:svg="http://www.w3.org/2000/svg">
  <defs
     id="defs1097" />
  <g
     id="New_Layer_1652809116.9372687"
     style="display:inline"
     transform="translate(-97.883932,-1057.8492)">
    <path
       fill="#323232"
       d="M 18,2.01 6,2 A 2,2 0 0 0 4,4 v 16 c 0,1.1 0.9,2 2,2 h 12 c 1.1,0 2,-0.9 2,-2 V 4 C 20,2.89 19.1,2.01 18,2.01 Z M 18,20 H 6 V 10.98 H 18 Z M 18,9 H 6 V 4 H 18 Z M 8,5 h 2 V 8 H 8 Z m 0,7 h 2 v 5 H 8 Z"
       id="path22190"
       transform="matrix(0.264583,0,0,0.264583,96.8256,1057.32)" />
  </g>
</svg>
