<?xml version="1.0" encoding="UTF-8" standalone="no"?>
<!-- Created with Inkscape (http://www.inkscape.org/) -->

<svg
   id="svg1100"
   version="1.1"
   viewBox="0 0 5.2916598 4.2333278"
   height="4.2333279mm"
   width="5.2916598mm"
   xmlns="http://www.w3.org/2000/svg"
   xmlns:svg="http://www.w3.org/2000/svg">
  <defs
     id="defs1097" />
  <g
     id="New_Layer_1652809116.938328"
     style="display:inline"
     transform="translate(-97.354766,-1039.0683)">
    <path
       fill="#323232"
       d="M 6.8,10.61 5.37,9.19 C 5.73,8.79 6.59,8 7.75,8 8.55,8 9.14,8.39 9.56,8.67 9.87,8.88 10.07,9 10.25,9 10.62,9 11.05,8.59 11.2,8.39 l 1.42,1.42 C 12.26,10.21 11.4,11 10.25,11 9.46,11 8.88,10.62 8.46,10.34 8.13,10.12 7.94,10 7.75,10 7.38,10 6.95,10.41 6.8,10.61 Z M 7.75,15 c 0.19,0 0.38,0.12 0.71,0.34 0.42,0.28 1,0.66 1.79,0.66 1.16,0 2.01,-0.79 2.37,-1.19 L 11.2,13.39 C 11.05,13.59 10.61,14 10.25,14 10.07,14 9.87,13.88 9.56,13.67 9.14,13.39 8.55,13 7.75,13 6.59,13 5.73,13.79 5.37,14.19 l 1.42,1.42 C 6.95,15.41 7.38,15 7.75,15 Z M 22,6 v 12 c 0,1.1 -0.9,2 -2,2 H 4 C 2.9,20 2,19.1 2,18 V 6 C 2,4.9 2.9,4 4,4 h 16 c 1.1,0 2,0.9 2,2 z M 14,6 H 4 v 12 h 10 z m 5,10 c 0,-0.55 -0.45,-1 -1,-1 -0.55,0 -1,0.45 -1,1 0,0.55 0.45,1 1,1 0.55,0 1,-0.45 1,-1 z m 0,-4 c 0,-0.55 -0.45,-1 -1,-1 -0.55,0 -1,0.45 -1,1 0,0.55 0.45,1 1,1 0.55,0 1,-0.45 1,-1 z m 0,-5 h -2 v 2 h 2 z"
       id="path22212"
       transform="matrix(0.264583,0,0,0.264583,96.8256,1038.01)" />
  </g>
</svg>
