<?xml version="1.0" encoding="UTF-8" standalone="no"?>
<!-- Created with Inkscape (http://www.inkscape.org/) -->

<svg
   id="svg1100"
   version="1.1"
   viewBox="0 0 5.2387433 5.4530558"
   height="5.4530559mm"
   width="5.2387433mm"
   xmlns="http://www.w3.org/2000/svg"
   xmlns:svg="http://www.w3.org/2000/svg">
  <defs
     id="defs1097" />
  <g
     id="New_Layer_1652809116.9394064"
     style="display:inline"
     transform="translate(-59.32757,-1047.9792)">
    <path
       fill="#323232"
       d="M 21.19,21.19 2.81,2.81 1.39,4.22 4.15,6.98 C 4.06,7.31 4,7.64 4,8 v 12 c 0,1.1 0.9,2 2,2 h 12 c 0.34,0 0.65,-0.09 0.93,-0.24 l 0.85,0.85 z M 6,14 v -2 h 3.17 l 2,2 z M 14.83,12 6.98,4.15 C 6.99,4.15 6.99,4.14 7,4.14 V 2 h 3 v 2 h 4 V 2 h 3 v 2.14 c 1.72,0.45 3,2 3,3.86 v 9.17 l -2,-2 V 12 Z"
       id="path22234"
       transform="matrix(0.264583,0,0,0.264583,58.9598,1047.45)" />
  </g>
</svg>
