<?xml version="1.0" encoding="UTF-8" standalone="no"?>
<!-- Created with Inkscape (http://www.inkscape.org/) -->

<svg
   id="svg1100"
   version="1.1"
   viewBox="0 0 5.2360973 5.820826"
   height="5.8208261mm"
   width="5.2360973mm"
   xmlns="http://www.w3.org/2000/svg"
   xmlns:svg="http://www.w3.org/2000/svg">
  <defs
     id="defs1097" />
  <g
     id="New_Layer_1652809116.9399323"
     style="display:inline"
     transform="translate(-78.37887,-1047.7946)">
    <path
       fill="#323232"
       d="M 8.83,6 5.13,2.3 C 5.42,1.55 6.15,1 7,1 l 10,0.01 c 1.1,0 2,0.89 2,1.99 v 13.17 l -2,-2 V 6 Z M 19.78,22.61 18.87,21.7 C 18.58,22.45 17.85,23 17,23 H 7 C 5.9,23 5,22.1 5,21 V 7.83 L 1.39,4.22 2.8,2.81 21.18,21.19 Z M 15.17,18 7,9.83 V 18 Z"
       id="path22245"
       transform="matrix(0.264583,0,0,0.264583,78.0111,1047.53)" />
  </g>
</svg>
