<?xml version="1.0" encoding="UTF-8" standalone="no"?>
<!-- Created with Inkscape (http://www.inkscape.org/) -->

<svg
   id="svg1100"
   version="1.1"
   viewBox="0 0 5.5456596 5.5456595"
   height="5.5456595mm"
   width="5.5456595mm"
   xmlns="http://www.w3.org/2000/svg"
   xmlns:svg="http://www.w3.org/2000/svg">
  <defs
     id="defs1097" />
  <g
     id="New_Layer_1652809116.9409974"
     style="display:inline"
     transform="translate(-87.743766,-1028.8392)">
    <path
       fill="#323232"
       d="M 13.93,13.93 2.45,2.45 1.04,3.87 6.34,9.17 6.14,9.4 H 3.6 C 2.72,9.4 2,10.12 2,11 v 9.4 C 2,21.28 2.72,22 3.6,22 h 12.8 c 0.75,0 1.38,-0.52 1.55,-1.22 l 2.18,2.18 1.41,-1.41 L 18,18 Z M 10,20 C 7.79,20 6,18.21 6,16 6,14.05 7.4,12.43 9.25,12.08 l 1.57,1.57 C 10.56,13.56 10.29,13.5 10,13.5 a 2.5,2.5 0 0 0 0,5 2.5,2.5 0 0 0 2.5,-2.5 c 0,-0.29 -0.06,-0.56 -0.15,-0.82 l 1.57,1.57 A 3.993,3.993 0 0 1 10,20 Z M 18,15.17 10.83,8 h 1.75 l 1.28,1.4 h 2.54 c 0.88,0 1.6,0.72 1.6,1.6 z M 20.4,5.6 H 22 L 19,11 V 7 H 18 V 2 h 4 z"
       id="path22267"
       transform="matrix(0.264583,0,0,0.264583,87.4686,1028.31)" />
  </g>
</svg>
