<?xml version="1.0" encoding="UTF-8" standalone="no"?>
<!-- Created with Inkscape (http://www.inkscape.org/) -->

<svg
   id="svg1100"
   version="1.1"
   viewBox="0 0 5.9028468 5.9054927"
   height="5.9054928mm"
   width="5.9028468mm"
   xmlns="http://www.w3.org/2000/svg"
   xmlns:svg="http://www.w3.org/2000/svg">
  <defs
     id="defs1097" />
  <g
     id="New_Layer_1652809116.9415362"
     style="display:inline"
     transform="translate(-10.318762,-1028.6646)">
    <path
       fill="#323232"
       d="M 11.35,8.52 11,5 h 5 V 1 h 2 v 4 h 5 L 21.62,18.79 Z M 1,21 v 1 c 0,0.55 0.45,1 1,1 h 13 c 0.55,0 1,-0.45 1,-1 V 21 Z M 21.9,21.9 2.1,2.1 0.69,3.51 6.39,9.21 C 3.28,9.87 1,11.99 1,15 h 11.17 l 2,2 H 1 v 2 h 15 v -0.17 l 4.49,4.49 z"
       id="path22278"
       transform="matrix(0.264583,0,0,0.264583,10.1362,1028.4)" />
  </g>
</svg>
