<?xml version="1.0" encoding="UTF-8" standalone="no"?>
<!-- Created with Inkscape (http://www.inkscape.org/) -->

<svg
   id="svg1100"
   version="1.1"
   viewBox="0 0 5.6409097 5.6118054"
   height="5.6118054mm"
   width="5.6409097mm"
   xmlns="http://www.w3.org/2000/svg"
   xmlns:svg="http://www.w3.org/2000/svg">
  <defs
     id="defs1097" />
  <g
     id="New_Layer_1652809116.9426177"
     style="display:inline"
     transform="translate(-49.559116,-1028.8056)">
    <path
       fill="#323232"
       d="M 10.94,8.12 7.48,4.66 9,3 h 6 l 1.83,2 H 20 c 1.1,0 2,0.9 2,2 v 12 c 0,0.05 -0.01,0.1 -0.02,0.16 l -5.1,-5.1 C 16.96,13.71 17,13.36 17,13 17,10.24 14.76,8 12,8 11.64,8 11.29,8.04 10.94,8.12 Z M 20.49,23.31 18.17,21 H 4 C 2.9,21 2,20.1 2,19 V 7 C 2,6.41 2.27,5.88 2.68,5.51 l -2,-2 L 2.1,2.1 21.9,21.9 Z m -6,-5.99 -1.5,-1.5 C 12.67,15.92 12.35,16 12,16 10.34,16 9,14.66 9,13 9,12.65 9.08,12.33 9.19,12.02 l -1.5,-1.5 A 4.74,4.74 0 0 0 7,13 c 0,2.76 2.24,5 5,5 0.91,0 1.76,-0.25 2.49,-0.68 z"
       id="path22300"
       transform="matrix(0.264583,0,0,0.264583,49.3792,1028.25)" />
  </g>
</svg>
