<?xml version="1.0" encoding="UTF-8" standalone="no"?>
<!-- Created with Inkscape (http://www.inkscape.org/) -->

<svg
   id="svg1100"
   version="1.1"
   viewBox="0 0 5.4530559 5.2387433"
   height="5.2387433mm"
   width="5.4530559mm"
   xmlns="http://www.w3.org/2000/svg"
   xmlns:svg="http://www.w3.org/2000/svg">
  <defs
     id="defs1097" />
  <g
     id="New_Layer_1652809116.9431472"
     style="display:inline"
     transform="translate(-106.71177,-1028.9935)">
    <path
       fill="#323232"
       d="m 6,18 c 1.1,0 2,0.9 2,2 0,1.1 -0.9,2 -2,2 C 4.9,22 4,21.1 4,20 4,18.9 4.9,18 6,18 Z M 18.65,3 C 16.99,3 16.11,4.27 15.47,5.03 L 11.97,9.14 17,14.17 V 6.27 C 17.58,5.59 17.97,5 18.65,5 19.42,5 20,5.66 20,6.48 V 7 h 2 V 6.48 C 22,4.56 20.52,3 18.65,3 Z M 10.67,10.67 2.81,2.81 1.39,4.22 9.36,12.19 6.7,15.31 c -0.55,0.65 -0.09,1.65 0.76,1.65 h 6.66 l 1.17,1.17 C 14.54,18.42 14,19.14 14,20 c 0,1.1 0.9,2 2,2 0.86,0 1.58,-0.54 1.87,-1.3 l 1.91,1.91 1.41,-1.41 -4.8,-4.8 z m 2.8,-5.64 C 13.74,4.71 14.05,4.31 14.45,3.94 A 9.347,9.347 0 0 0 6.64,3.81 l 4.25,4.25 z"
       id="path22311"
       transform="matrix(0.264583,0,0,0.264583,106.344,1028.25)" />
  </g>
</svg>
