<?xml version="1.0" encoding="UTF-8" standalone="no"?>
<!-- Created with Inkscape (http://www.inkscape.org/) -->

<svg
   id="svg1100"
   version="1.1"
   viewBox="0 0 5.2916598 4.762536"
   height="4.762536mm"
   width="5.2916598mm"
   xmlns="http://www.w3.org/2000/svg"
   xmlns:svg="http://www.w3.org/2000/svg">
  <defs
     id="defs1097" />
  <g
     id="New_Layer_1652809116.9436843"
     style="display:inline"
     transform="translate(-20.454966,-1038.8037)">
    <path
       fill="#323232"
       d="M 22,21 C 20.89,21 20.27,20.63 19.82,20.36 19.45,20.14 19.22,20 18.67,20 18.11,20 17.89,20.13 17.52,20.36 17.06,20.63 16.45,21 15.34,21 14.23,21 13.61,20.63 13.16,20.36 12.79,20.14 12.56,20 12.01,20 11.45,20 11.23,20.13 10.86,20.36 10.4,20.63 9.78,21 8.67,21 7.56,21 6.94,20.63 6.49,20.36 6.12,20.13 5.89,20 5.34,20 4.79,20 4.56,20.13 4.19,20.36 3.73,20.63 3.11,21 2,21 V 19 C 2.56,19 2.78,18.87 3.15,18.64 3.61,18.37 4.23,18 5.34,18 6.45,18 7.07,18.37 7.52,18.64 7.89,18.87 8.11,19 8.67,19 9.23,19 9.45,18.87 9.82,18.64 10.28,18.37 10.9,18 12.01,18 c 1.11,0 1.73,0.37 2.18,0.64 0.37,0.22 0.6,0.36 1.15,0.36 0.55,0 0.78,-0.13 1.15,-0.36 0.45,-0.27 1.07,-0.64 2.18,-0.64 1.11,0 1.73,0.37 2.18,0.64 C 21.22,18.87 21.44,19 22,19 Z m 0,-4.5 c -1.11,0 -1.73,-0.37 -2.18,-0.64 -0.37,-0.22 -0.6,-0.36 -1.15,-0.36 -0.56,0 -0.78,0.13 -1.15,0.36 -0.45,0.27 -1.07,0.64 -2.18,0.64 -1.11,0 -1.73,-0.37 -2.18,-0.64 -0.37,-0.22 -0.6,-0.36 -1.15,-0.36 -0.56,0 -0.78,0.13 -1.15,0.36 C 10.41,16.13 9.79,16.5 8.68,16.5 7.57,16.5 6.95,16.13 6.5,15.86 6.13,15.64 5.9,15.5 5.35,15.5 4.8,15.5 4.57,15.63 4.2,15.86 3.73,16.13 3.11,16.5 2,16.5 v -2 c 0.56,0 0.78,-0.13 1.15,-0.36 0.45,-0.27 1.07,-0.64 2.18,-0.64 1.11,0 1.73,0.37 2.18,0.64 0.37,0.22 0.6,0.36 1.15,0.36 0.56,0 0.78,-0.13 1.15,-0.36 0.45,-0.27 1.07,-0.64 2.18,-0.64 1.11,0 1.73,0.37 2.18,0.64 0.37,0.22 0.6,0.36 1.15,0.36 0.55,0 0.78,-0.13 1.15,-0.36 0.45,-0.27 1.07,-0.64 2.18,-0.64 1.11,0 1.73,0.37 2.18,0.64 0.37,0.22 0.6,0.36 1.15,0.36 v 2 z M 8.67,12 C 9.23,12 9.45,11.87 9.82,11.64 10.28,11.37 10.9,11 12.01,11 c 1.11,0 1.73,0.37 2.18,0.64 0.37,0.22 0.6,0.36 1.15,0.36 0.55,0 0.78,-0.13 1.15,-0.36 0.12,-0.07 0.26,-0.15 0.41,-0.23 L 10.48,5 C 8.93,3.45 7.5,2.99 5,3 V 5.5 C 6.82,5.49 7.89,5.89 9,7 l 1,1 -3.25,3.25 c 0.31,0.12 0.56,0.27 0.77,0.39 C 7.89,11.87 8.11,12 8.67,12 Z M 16.5,8 a 2.5,2.5 0 1 0 0,-5 2.5,2.5 0 0 0 0,5 z"
       id="path22322"
       transform="matrix(0.264583,0,0,0.264583,19.9258,1038.01)" />
  </g>
</svg>
