<?xml version="1.0" encoding="UTF-8" standalone="no"?>
<!-- Created with Inkscape (http://www.inkscape.org/) -->

<svg
   id="svg1100"
   version="1.1"
   viewBox="0 0 5.2916598 5.2916598"
   height="5.2916598mm"
   width="5.2916598mm"
   xmlns="http://www.w3.org/2000/svg"
   xmlns:svg="http://www.w3.org/2000/svg">
  <defs
     id="defs1097" />
  <g
     id="New_Layer_1652809116.9442086"
     style="display:inline"
     transform="translate(-125.59217,-1038.5392)">
    <path
       fill="#323232"
       d="M 22,12 C 22,6.48 17.52,2 12,2 6.48,2 2,6.48 2,12 c 0,3.69 2.47,6.86 6,8.25 V 22 h 8 v -1.75 c 3.53,-1.39 6,-4.56 6,-8.25 z m -2,0 H 16 V 5.08 c 2.39,1.39 4,3.97 4,6.92 z M 14,4.26 V 12 H 10 V 4.26 C 10.64,4.1 11.31,4 12,4 c 0.69,0 1.36,0.1 2,0.26 z M 4,12 C 4,9.05 5.61,6.47 8,5.08 V 12 Z"
       id="path22333"
       transform="matrix(0.264583,0,0,0.264583,125.063,1038.01)" />
  </g>
</svg>
