<?xml version="1.0" encoding="UTF-8" standalone="no"?>
<!-- Created with Inkscape (http://www.inkscape.org/) -->

<svg
   id="svg1100"
   version="1.1"
   viewBox="0 0 5.2466807 5.0270772"
   height="5.0270772mm"
   width="5.2466807mm"
   xmlns="http://www.w3.org/2000/svg"
   xmlns:svg="http://www.w3.org/2000/svg">
  <defs
     id="defs1097" />
  <g
     id="New_Layer_1652809116.9452827"
     style="display:inline"
     transform="translate(-40.056549,-1048.1937)">
    <path
       fill="#323232"
       d="M 14,11.26 V 6 h 3 v 4 h 2 V 4 H 14 V 3 H 5 V 19 H 3 v 2 h 9.26 A 6.963,6.963 0 0 1 11,17 c 0,-2.38 1.19,-4.47 3,-5.74 z M 10,11 h 2 v 2 h -2 z m 11.69,5.37 1.14,-1 -1,-1.73 -1.45,0.49 C 20.06,13.86 19.7,13.65 19.3,13.5 L 19,12 h -2 l -0.3,1.49 c -0.4,0.15 -0.76,0.36 -1.08,0.63 l -1.45,-0.49 -1,1.73 1.14,1 c -0.08,0.5 -0.08,0.76 0,1.26 l -1.14,1 1,1.73 1.45,-0.49 c 0.32,0.27 0.68,0.48 1.08,0.63 L 17,22 h 2 l 0.3,-1.49 c 0.4,-0.15 0.76,-0.36 1.08,-0.63 l 1.45,0.49 1,-1.73 -1.14,-1 c 0.08,-0.51 0.08,-0.77 0,-1.27 z M 18,19 c -1.1,0 -2,-0.9 -2,-2 0,-1.1 0.9,-2 2,-2 1.1,0 2,0.9 2,2 0,1.1 -0.9,2 -2,2 z"
       id="path22355"
       transform="matrix(0.264583,0,0,0.264583,39.2628,1047.4)" />
  </g>
</svg>
