<?xml version="1.0" encoding="UTF-8" standalone="no"?>
<!-- Created with Inkscape (http://www.inkscape.org/) -->

<svg
   id="svg1100"
   version="1.1"
   viewBox="0 0 4.7624941 5.2916598"
   height="5.2916598mm"
   width="4.7624941mm"
   xmlns="http://www.w3.org/2000/svg"
   xmlns:svg="http://www.w3.org/2000/svg">
  <defs
     id="defs1097" />
  <g
     id="New_Layer_1652809116.946353"
     style="display:inline"
     transform="translate(-30.509132,-1057.8492)">
    <path
       fill="#323232"
       d="M 20,17 V 11 C 20,9.9 19.1,9 18,9 H 7 V 7 l -3,3 3,3 v -2 h 4 v 3 H 4 v 3 c 0,1.1 0.9,2 2,2 h 2 c 0,1.66 1.34,3 3,3 1.66,0 3,-1.34 3,-3 h 8 v -2 z m -9,3 c -0.55,0 -1,-0.45 -1,-1 0,-0.55 0.45,-1 1,-1 0.55,0 1,0.45 1,1 0,0.55 -0.45,1 -1,1 z m 7,-6 h -4 v -3 h 4 z M 17,2 V 4 H 9 v 2 h 8 v 2 l 3,-3 z"
       id="path22377"
       transform="matrix(0.264583,0,0,0.264583,29.4508,1057.32)" />
  </g>
</svg>
