<?xml version="1.0" encoding="UTF-8" standalone="no"?>
<!-- Created with Inkscape (http://www.inkscape.org/) -->

<svg
   id="svg1100"
   version="1.1"
   viewBox="0 0 5.2916598 5.5562429"
   height="5.5562429mm"
   width="5.2916598mm"
   xmlns="http://www.w3.org/2000/svg"
   xmlns:svg="http://www.w3.org/2000/svg">
  <defs
     id="defs1097" />
  <g
     id="New_Layer_1652809116.946886"
     style="display:inline"
     transform="translate(-10.624366,-1047.9292)">
    <path
       fill="#323232"
       d="m 2,6 6.99,7 H 2 v 3 h 9.99 l 7,7 1.26,-1.25 -17,-17 z m 18.5,7 H 22 v 3 H 20.5 Z M 18,13 h 1.5 v 3 H 18 Z m 0.85,-8.12 c 0.62,-0.61 1,-1.45 1,-2.38 h -1.5 c 0,1.02 -0.83,1.85 -1.85,1.85 v 1.5 c 2.24,0 4,1.83 4,4.07 V 12 H 22 V 9.92 C 22,7.69 20.72,5.77 18.85,4.88 Z M 14.5,8.7 h 1.53 C 17.08,8.7 18,9.44 18,10.75 V 12 h 1.5 v -1.59 c 0,-1.8 -1.6,-3.16 -3.47,-3.16 H 14.5 c -1.02,0 -1.85,-0.98 -1.85,-2 0,-1.02 0.83,-1.75 1.85,-1.75 V 2 a 3.35,3.35 0 0 0 0,6.7 z M 17,15.93 V 13 h -2.93 z"
       id="path22388"
       transform="matrix(0.264583,0,0,0.264583,10.0952,1047.4)" />
  </g>
</svg>
