<?xml version="1.0" encoding="UTF-8" standalone="no"?>
<!-- Created with Inkscape (http://www.inkscape.org/) -->

<svg
   id="svg1100"
   version="1.1"
   viewBox="0 0 5.2916598 4.497911"
   height="4.497911mm"
   width="5.2916598mm"
   xmlns="http://www.w3.org/2000/svg"
   xmlns:svg="http://www.w3.org/2000/svg">
  <defs
     id="defs1097" />
  <g
     id="New_Layer_1652809116.9474165"
     style="display:inline"
     transform="translate(-78.351066,-1038.9292)">
    <path
       fill="#323232"
       d="m 2,16 h 15 v 3 H 2 Z m 18.5,0 H 22 v 3 H 20.5 Z M 18,16 h 1.5 v 3 H 18 Z m 0.85,-8.27 c 0.62,-0.61 1,-1.45 1,-2.38 C 19.85,3.5 18.35,2 16.5,2 v 1.5 c 1.02,0 1.85,0.83 1.85,1.85 0,1.02 -0.83,1.85 -1.85,1.85 v 1.5 c 2.24,0 4,1.83 4,4.07 V 15 H 22 V 12.76 C 22,10.54 20.72,8.62 18.85,7.73 Z M 16.03,10.2 H 14.5 c -1.02,0 -1.85,-0.98 -1.85,-2 0,-1.02 0.83,-1.75 1.85,-1.75 v -1.5 a 3.35,3.35 0 0 0 0,6.7 h 1.53 c 1.05,0 1.97,0.74 1.97,2.05 V 15 h 1.5 v -1.64 c 0,-1.81 -1.6,-3.16 -3.47,-3.16 z"
       id="path22399"
       transform="matrix(0.264583,0,0,0.264583,77.8219,1038.4)" />
  </g>
</svg>
