<?xml version="1.0" encoding="UTF-8" standalone="no"?>
<!-- Created with Inkscape (http://www.inkscape.org/) -->

<svg
   id="svg1100"
   version="1.1"
   viewBox="0 0 5.556243 5.820826"
   height="5.8208261mm"
   width="5.5562429mm"
   xmlns="http://www.w3.org/2000/svg"
   xmlns:svg="http://www.w3.org/2000/svg">
  <defs
     id="defs1097" />
  <g
     id="New_Layer_1652809116.94794"
     style="display:inline"
     transform="translate(-78.218783,-1028.7046)">
    <path
       fill="#323232"
       d="M 9.12,5 1.94,11.79 C 1.34,12.35 1,13.14 1,13.97 V 20 c 0,1.66 1.34,3 3,3 h 13.75 a 1.25,1.25 0 0 0 0,-2.5 H 12 v -1 h 7.75 a 1.25,1.25 0 0 0 0,-2.5 H 12 v -1 h 8.75 a 1.25,1.25 0 0 0 0,-2.5 H 12 v -1 h 6.75 a 1.25,1.25 0 0 0 0,-2.5 H 8.86 C 9.5,8.89 10.34,7.42 10.35,7.39 A 1.065,1.065 0 0 0 10.23,6.16 C 10.22,6.12 9.12,5 9.12,5 Z M 14,6.25 c 0.41,0 0.75,0.34 0.75,0.75 0,0.41 -0.34,0.75 -0.75,0.75 -0.41,0 -0.75,-0.34 -0.75,-0.75 0,-0.41 0.34,-0.75 0.75,-0.75 z m 0,-1.5 c -1.24,0 -2.25,1.01 -2.25,2.25 0,1.24 1.01,2.25 2.25,2.25 1.24,0 2.25,-1.01 2.25,-2.25 0,-1.24 -1.01,-2.25 -2.25,-2.25 z m 5.75,0.75 c 0.28,0 0.5,0.22 0.5,0.5 0,0.28 -0.22,0.5 -0.5,0.5 -0.28,0 -0.5,-0.22 -0.5,-0.5 0,-0.28 0.22,-0.5 0.5,-0.5 z m 0,-1.5 c -1.1,0 -2,0.9 -2,2 0,1.1 0.9,2 2,2 1.1,0 2,-0.9 2,-2 0,-1.1 -0.9,-2 -2,-2 z M 16.5,1 C 15.67,1 15,1.67 15,2.5 15,3.33 15.67,4 16.5,4 17.33,4 18,3.33 18,2.5 18,1.67 17.33,1 16.5,1 Z"
       id="path22410"
       transform="matrix(0.264583,0,0,0.264583,77.9542,1028.44)" />
  </g>
</svg>
