<?xml version="1.0" encoding="UTF-8" standalone="no"?>
<!-- Created with Inkscape (http://www.inkscape.org/) -->

<svg
   id="svg1100"
   version="1.1"
   viewBox="0 0 5.2916598 5.2916598"
   height="5.2916598mm"
   width="5.2916598mm"
   xmlns="http://www.w3.org/2000/svg"
   xmlns:svg="http://www.w3.org/2000/svg">
  <defs
     id="defs1097" />
  <g
     id="New_Layer_1652809116.9484723"
     style="display:inline"
     transform="translate(-153.44117,-1038.5392)">
    <path
       fill="#323232"
       d="M 8.55,12 Z M 18.98,10.39 Z M 15.49,9.63 C 15.31,6.84 14.18,4.12 12.06,2 A 12.188,12.188 0 0 0 8.51,9.63 c 1.28,0.68 2.46,1.56 3.49,2.63 1.03,-1.06 2.21,-1.94 3.49,-2.63 z m -6.5,2.65 c -0.14,-0.1 -0.3,-0.19 -0.45,-0.29 0.15,0.11 0.31,0.19 0.45,0.29 z m 6.42,-0.25 c -0.13,0.09 -0.27,0.16 -0.4,0.26 0.13,-0.1 0.27,-0.17 0.4,-0.26 z M 12,15.45 C 9.85,12.17 6.18,10 2,10 c 0,5.32 3.36,9.82 8.03,11.49 0.63,0.23 1.29,0.4 1.97,0.51 0.68,-0.12 1.33,-0.29 1.97,-0.51 C 18.64,19.82 22,15.32 22,10 c -4.18,0 -7.85,2.17 -10,5.45 z"
       id="path22421"
       transform="matrix(0.264583,0,0,0.264583,152.912,1038.01)" />
  </g>
</svg>
