<?xml version="1.0" encoding="UTF-8" standalone="no"?>
<!-- Created with Inkscape (http://www.inkscape.org/) -->

<svg
   id="svg1100"
   version="1.1"
   viewBox="0 0 4.7624941 5.0217852"
   height="5.0217853mm"
   width="4.7624941mm"
   xmlns="http://www.w3.org/2000/svg"
   xmlns:svg="http://www.w3.org/2000/svg">
  <defs
     id="defs1097" />
  <g
     id="New_Layer_1652809116.9489949"
     style="display:inline"
     transform="translate(-144.44475,-1048.1945)">
    <path
       fill="#323232"
       d="M 19,9 H 17.44 C 17.79,8.41 18,7.73 18,7 18,4.79 16.21,3 14,3 13.66,3 13.34,3.05 13.02,3.13 A 4.707,4.707 0 0 0 10,2.02 C 8.11,2.02 6.49,3.13 5.73,4.73 4.15,5.26 3,6.74 3,8.5 c 0,1.86 1.28,3.41 3,3.86 V 21 h 11 v -2 h 2 c 1.1,0 2,-0.9 2,-2 V 11 C 21,9.9 20.1,9 19,9 Z M 7,10.5 C 5.9,10.5 5,9.6 5,8.5 5,7.65 5.55,6.9 6.37,6.62 L 7.17,6.35 7.53,5.59 C 8,4.62 8.94,4.02 10,4.02 c 0.79,0 1.39,0.35 1.74,0.65 l 0.78,0.65 c 0,0 0.64,-0.32 1.47,-0.32 1.1,0 2,0.9 2,2 h -3 C 9.67,7 9.15,10.5 7,10.5 Z M 19,17 h -2 v -6 h 2 z"
       id="path22432"
       transform="matrix(0.264583,0,0,0.264583,143.651,1047.66)" />
  </g>
</svg>
