<?xml version="1.0" encoding="UTF-8" standalone="no"?>
<!-- Created with Inkscape (http://www.inkscape.org/) -->

<svg
   id="svg1100"
   version="1.1"
   viewBox="0 0 4.7624941 5.0270772"
   height="5.0270772mm"
   width="4.7624941mm"
   xmlns="http://www.w3.org/2000/svg"
   xmlns:svg="http://www.w3.org/2000/svg">
  <defs
     id="defs1097" />
  <g
     id="New_Layer_1652809116.950596"
     style="display:inline"
     transform="translate(-49.998332,-1057.9837)">
    <path
       fill="#323232"
       d="m 16,22 a 2,2 0 1 0 0,-4 2,2 0 0 0 0,4 z M 6,22 a 2,2 0 1 0 0,-4 2,2 0 0 0 0,4 z M 22,7 V 6.48 C 22,4.56 20.52,3 18.65,3 16.99,3 16.11,4.27 15.47,5.03 L 6.67,15.35 C 6.12,16 6.58,17 7.43,17 H 15 c 1.1,0 2,-0.9 2,-2 V 6.27 C 17.58,5.59 17.97,5 18.65,5 19.42,5 20,5.66 20,6.48 V 7 Z M 14.3,4.1 A 8.962,8.962 0 0 0 4.72,4.72 l 4.89,4.89 z"
       id="path22465"
       transform="matrix(0.264583,0,0,0.264583,48.94,1057.19)" />
  </g>
</svg>
