<?xml version="1.0" encoding="UTF-8" standalone="no"?>
<!-- Created with Inkscape (http://www.inkscape.org/) -->

<svg
   id="svg1100"
   version="1.1"
   viewBox="0 0 5.4239516 5.820826"
   height="5.8208261mm"
   width="5.4239516mm"
   xmlns="http://www.w3.org/2000/svg"
   xmlns:svg="http://www.w3.org/2000/svg">
  <defs
     id="defs1097" />
  <g
     id="New_Layer_1652809116.9511213"
     style="display:inline"
     transform="translate(-116.13387,-1028.7046)">
    <path
       fill="#323232"
       d="M 22,10 V 1 h -8 v 9 c 0,1.86 1.28,3.41 3,3.86 V 21 h -2 v 2 h 6 v -2 h -2 v -7.14 c 1.72,-0.45 3,-2 3,-3.86 z M 20,3 V 6 H 16 V 3 Z m -7.5,8.5 A 2.5,2.5 0 0 1 10,14 H 8 v 9 H 6 V 14 H 4 A 2.5,2.5 0 0 1 4,9 H 6 V 8 H 4 A 2.5,2.5 0 0 1 4,3 H 6 V 1 h 2 v 2 h 2 a 2.5,2.5 0 0 1 0,5 H 8 v 1 h 2 a 2.5,2.5 0 0 1 2.5,2.5 z"
       id="path22476"
       transform="matrix(0.264583,0,0,0.264583,115.737,1028.44)" />
  </g>
</svg>
