<?xml version="1.0" encoding="UTF-8" standalone="no"?>
<!-- Created with Inkscape (http://www.inkscape.org/) -->

<svg
   id="svg1100"
   version="1.1"
   viewBox="0 0 5.2840829 4.7549166"
   height="4.7549167mm"
   width="5.2840829mm"
   xmlns="http://www.w3.org/2000/svg"
   xmlns:svg="http://www.w3.org/2000/svg">
  <defs
     id="defs1097" />
  <g
     id="New_Layer_1652809116.9516573"
     style="display:inline"
     transform="translate(-30.248343,-1048.3237)">
    <path
       fill="#323232"
       d="m 14,4 h 2 v 2 h -2 z m -1,3 h 2 V 9 H 13 Z M 11,4 h 2 v 2 h -2 z m 7,5 H 16 V 7 h 2 z M 19,6 H 17 V 4 h 2 z m 2,3 H 19 V 7 h 2 z M 22,6 H 20 V 4 h 2 z m -7.38,8.38 -2.52,2.52 c -2.5,-1.43 -4.57,-3.5 -6,-6 L 8.62,8.38 C 8.86,8.14 8.96,7.8 8.9,7.48 L 8.16,3.8 C 8.07,3.34 7.66,3 7.18,3 H 3.03 C 2.47,3 2,3.47 2.03,4.03 2.2,6.92 3.05,9.63 4.43,12 c 1.58,2.73 3.85,4.99 6.57,6.57 2.37,1.37 5.08,2.23 7.97,2.4 0.56,0.03 1.03,-0.44 1.03,-1 v -4.15 c 0,-0.48 -0.34,-0.89 -0.8,-0.98 l -3.67,-0.73 a 0.99,0.99 0 0 0 -0.91,0.27 z M 14,10 h 2 v 2 h -2 z m -3,0 h 2 v 2 h -2 z m 8,2 h -2 v -2 h 2 z m 3,0 h -2 v -2 h 2 z"
       id="path22487"
       transform="matrix(0.264583,0,0,0.264583,29.7116,1047.53)" />
  </g>
</svg>
