<?xml version="1.0" encoding="UTF-8" standalone="no"?>
<!-- Created with Inkscape (http://www.inkscape.org/) -->

<svg
   id="svg1100"
   version="1.1"
   viewBox="0 0 3.1749959 5.5562429"
   height="5.5562429mm"
   width="3.1749959mm"
   xmlns="http://www.w3.org/2000/svg"
   xmlns:svg="http://www.w3.org/2000/svg">
  <defs
     id="defs1097" />
  <g
     id="New_Layer_1652809116.952178"
     style="display:inline"
     transform="translate(-145.2385,-1057.7146)">
    <path
       fill="#323232"
       d="M 14.5,6.92 13,5.77 V 3.4 c 0,-0.26 0.22,-0.48 0.5,-0.48 0.28,0 0.5,0.21 0.5,0.48 V 4 h 2 V 3.4 C 16,2.07 14.88,1 13.5,1 12.12,1 11,2.07 11,3.4 V 5.77 L 9.5,6.92 6,6.07 11.05,21.32 C 11.2,21.77 11.6,22 12,22 c 0.4,0 0.8,-0.23 0.95,-0.69 L 18,6.07 Z M 13.28,8.5 14.04,9.08 14.96,8.85 13,14.8 V 8.29 Z M 9.96,9.09 10.72,8.51 11,8.29 V 14.8 L 9.03,8.86 Z"
       id="path22498"
       transform="matrix(0.264583,0,0,0.264583,143.651,1057.45)" />
  </g>
</svg>
