<?xml version="1.0" encoding="UTF-8" standalone="no"?>
<!-- Created with Inkscape (http://www.inkscape.org/) -->

<svg
   id="svg1100"
   version="1.1"
   viewBox="0 0 5.556243 5.820826"
   height="5.8208261mm"
   width="5.5562429mm"
   xmlns="http://www.w3.org/2000/svg"
   xmlns:svg="http://www.w3.org/2000/svg">
  <defs
     id="defs1097" />
  <g
     id="New_Layer_1652809116.9527102"
     style="display:inline"
     transform="translate(-59.168783,-1028.7046)">
    <path
       fill="#323232"
       d="M 18.5,8 A 2.5,2.5 0 0 0 21,5.5 C 21,3.83 18.5,1 18.5,1 18.5,1 16,3.83 16,5.5 A 2.5,2.5 0 0 0 18.5,8 Z m -5,1 C 14.33,9 15,8.33 15,7.5 15,6.66 13.5,5 13.5,5 13.5,5 12,6.66 12,7.5 12,8.33 12.67,9 13.5,9 Z M 9.12,5 1.94,11.79 C 1.34,12.35 1,13.14 1,13.97 V 20 c 0,1.66 1.34,3 3,3 h 13.75 a 1.25,1.25 0 0 0 0,-2.5 H 12 v -1 h 7.75 a 1.25,1.25 0 0 0 0,-2.5 H 12 v -1 h 8.75 a 1.25,1.25 0 0 0 0,-2.5 H 12 v -1 h 6.75 a 1.25,1.25 0 0 0 0,-2.5 H 8.86 C 9.5,8.89 10.34,7.42 10.35,7.39 A 1.065,1.065 0 0 0 10.23,6.16 C 10.22,6.12 9.12,5 9.12,5 Z"
       id="path22509"
       transform="matrix(0.264583,0,0,0.264583,58.9042,1028.44)" />
  </g>
</svg>
