<?xml version="1.0" encoding="UTF-8" standalone="no"?>
<!-- Created with Inkscape (http://www.inkscape.org/) -->

<svg
   id="svg1100"
   version="1.1"
   viewBox="0 0 5.1831808 5.2916598"
   height="5.2916598mm"
   width="5.1831808mm"
   xmlns="http://www.w3.org/2000/svg"
   xmlns:svg="http://www.w3.org/2000/svg">
  <defs
     id="defs1097" />
  <g
     id="New_Layer_1652809116.9537723"
     style="display:inline"
     transform="translate(-87.925049,-1048.0592)">
    <path
       fill="#323232"
       d="m 4.5,4 c 0,-1.11 0.89,-2 2,-2 1.11,0 2,0.89 2,2 0,1.11 -0.89,2 -2,2 -1.11,0 -2,-0.89 -2,-2 z M 10,10.95 V 9 C 10,7.9 9.1,7 8,7 H 5 C 3.9,7 3,7.9 3,9 v 6 h 2 v 7 H 8.5 V 21.89 C 7.26,20.63 6.5,18.9 6.5,17 6.5,14.42 7.91,12.16 10,10.95 Z M 16.5,17 c 0,1.65 -1.35,3 -3,3 -1.65,0 -3,-1.35 -3,-3 0,-1.11 0.61,-2.06 1.5,-2.58 V 12.26 C 9.98,12.9 8.5,14.77 8.5,17 c 0,2.76 2.24,5 5,5 2.76,0 5,-2.24 5,-5 z m 3.04,-3 H 15 V 8 h -2 v 8 h 5.46 l 2.47,3.71 1.66,-1.11 z"
       id="path22531"
       transform="matrix(0.264583,0,0,0.264583,87.1313,1047.53)" />
  </g>
</svg>
