<?xml version="1.0" encoding="UTF-8" standalone="no"?>
<!-- Created with Inkscape (http://www.inkscape.org/) -->

<svg
   id="svg1100"
   version="1.1"
   viewBox="0 0 5.2916603 5.2916598"
   height="5.2916598mm"
   width="5.2916603mm"
   xmlns="http://www.w3.org/2000/svg"
   xmlns:svg="http://www.w3.org/2000/svg">
  <defs
     id="defs1097" />
  <g
     id="New_Layer_1652809127.8413603"
     style="display:inline"
     transform="translate(-60.576366,-1090.7292)">
    <path
       fill="#323232"
       d="M 6,6 C 7.1,6 8,5.1 8,4 8,2.9 7.1,2 6,2 4.9,2 4,2.9 4,4 4,5.1 4.9,6 6,6 Z m 4,3.43 C 10,8.62 9.52,7.9 8.78,7.58 A 6.95,6.95 0 0 0 3.22,7.58 2.01,2.01 0 0 0 2,9.43 V 10 h 8 z M 18,6 c 1.1,0 2,-0.9 2,-2 0,-1.1 -0.9,-2 -2,-2 -1.1,0 -2,0.9 -2,2 0,1.1 0.9,2 2,2 z m 4,3.43 C 22,8.62 21.52,7.9 20.78,7.58 a 6.95,6.95 0 0 0 -5.56,0 A 2.01,2.01 0 0 0 14,9.43 V 10 h 8 z M 19,17 V 14.99 L 5,15 v 2 L 2,14 5,11 v 2.01 L 19,13 v -2 l 3,3 z m -9,2 V 18 H 7.5 C 7.22,18 7,18.22 7,18.5 v 3 C 7,21.78 7.22,22 7.5,22 h 2 C 9.78,22 10,21.78 10,21.5 V 20 C 10,19.72 9.78,19.5 9.5,19.5 H 8 V 19 Z M 9,20.5 V 21 H 8 V 20.5 Z M 17.5,19 h -1 v 3 h -1 v -3 h -1 v -1 h 3 z m -5,0 v 0.5 h 1 v 1 h -1 V 22 h -1 V 18 H 14 v 1 z"
       id="path27809"
       transform="matrix(0.264583,0,0,0.264583,60.0472,1090.2)" />
  </g>
</svg>
