<?xml version="1.0" encoding="UTF-8" standalone="no"?>
<!-- Created with Inkscape (http://www.inkscape.org/) -->

<svg
   id="svg1100"
   version="1.1"
   viewBox="0 0 5.0270772 5.820826"
   height="5.8208261mm"
   width="5.0270772mm"
   xmlns="http://www.w3.org/2000/svg"
   xmlns:svg="http://www.w3.org/2000/svg">
  <defs
     id="defs1097" />
  <g
     id="New_Layer_1652809127.8421757"
     style="display:inline"
     transform="translate(-119.32175,-1109.9146)">
    <path
       fill="#323232"
       d="M 13.22,22.61 C 12.82,22.76 12.42,22.9 12,23 6.84,21.74 3,16.55 3,11 V 5 l 9,-4 9,4 v 6 c 0,0.9 -0.11,1.78 -0.3,2.65 C 19.89,13.24 18.97,13 18,13 c -3.31,0 -6,2.69 -6,6 0,1.36 0.46,2.61 1.22,3.61 z M 19,20 v 2.99 c 0,0 -1.99,0.01 -2,0 V 20 h -3 v -2 h 3 v -3 h 2 v 3 h 3 v 2 z"
       id="path27820"
       transform="matrix(0.264583,0,0,0.264583,118.528,1109.65)" />
  </g>
</svg>
