<?xml version="1.0" encoding="UTF-8" standalone="no"?>
<!-- Created with Inkscape (http://www.inkscape.org/) -->

<svg
   id="svg1100"
   version="1.1"
   viewBox="0 0 5.2916598 5.2916598"
   height="5.2916598mm"
   width="5.2916598mm"
   xmlns="http://www.w3.org/2000/svg"
   xmlns:svg="http://www.w3.org/2000/svg">
  <defs
     id="defs1097" />
  <g
     id="New_Layer_1652806924.7879336"
     style="display:inline"
     transform="translate(-93.397866,-16.154066)">
    <path
       fill="#323232"
       d="m 14.5,14.2 2.9,1.7 -0.8,1.3 L 13,15 v -5 h 1.5 z M 22,14 c 0,4.41 -3.59,8 -8,8 -2.02,0 -3.86,-0.76 -5.27,-2 H 4 C 2.85,20 2,19.15 2,18 V 9 C 2,7.88 2.89,7.04 4,7 V 6.5 C 4,4.01 6.01,2 8.5,2 10.84,2 12.74,3.79 12.96,6.08 13.3,6.03 13.65,6 14,6 c 4.41,0 8,3.59 8,8 z M 6,7 h 5 V 6.26 A 2.509,2.509 0 0 0 8.5,4 2.5,2.5 0 0 0 6,6.5 Z m 14,7 c 0,-3.31 -2.69,-6 -6,-6 -3.31,0 -6,2.69 -6,6 0,3.31 2.69,6 6,6 3.31,0 6,-2.69 6,-6 z"
       id="path2971"
       transform="matrix(0.264583,0,0,0.264583,92.8687,15.6249)" />
  </g>
</svg>
