<?xml version="1.0" encoding="UTF-8" standalone="no"?>
<!-- Created with Inkscape (http://www.inkscape.org/) -->

<svg
   id="svg1100"
   version="1.1"
   viewBox="0 0 2.9871421 4.7624941"
   height="4.7624941mm"
   width="2.9871421mm"
   xmlns="http://www.w3.org/2000/svg"
   xmlns:svg="http://www.w3.org/2000/svg">
  <defs
     id="defs1097" />
  <g
     id="New_Layer_1652809127.8427253"
     style="display:inline"
     transform="translate(-139.42675,-1130.1337)">
    <path
       fill="#323232"
       d="M 6.36,18.78 6.61,21 8.23,19.46 11,11.86 C 10.32,11.69 9.72,11.35 9.23,10.88 Z m 8.41,-7.9 c -0.49,0.47 -1.1,0.81 -1.77,0.98 l 2.77,7.6 1.62,1.54 0.26,-2.22 z M 15,8 C 15,6.7 14.16,5.6 13,5.18 V 3 H 11 V 5.18 C 9.84,5.6 9,6.7 9,8 c 0,1.66 1.34,3 3,3 1.66,0 3,-1.34 3,-3 z m -3,1 c -0.55,0 -1,-0.45 -1,-1 0,-0.55 0.45,-1 1,-1 0.55,0 1,0.45 1,1 0,0.55 -0.45,1 -1,1 z"
       id="path27831"
       transform="matrix(0.264583,0,0,0.264583,137.744,1129.34)" />
  </g>
</svg>
