<?xml version="1.0" encoding="UTF-8" standalone="no"?>
<!-- Created with Inkscape (http://www.inkscape.org/) -->

<svg
   id="svg1100"
   version="1.1"
   viewBox="0 0 4.7624941 5.820826"
   height="5.8208261mm"
   width="4.7624941mm"
   xmlns="http://www.w3.org/2000/svg"
   xmlns:svg="http://www.w3.org/2000/svg">
  <defs
     id="defs1097" />
  <g
     id="New_Layer_1652809127.8432686"
     style="display:inline"
     transform="translate(-60.840949,-1119.7)">
    <path
       fill="#323232"
       d="M 12,6 A 2,2 0 0 0 14,4 C 14,3.62 13.9,3.27 13.71,2.97 L 12,0 10.29,2.97 C 10.1,3.27 10,3.62 10,4 c 0,1.1 0.9,2 2,2 z m 4.6,9.99 -1.07,-1.07 -1.08,1.07 c -1.3,1.3 -3.58,1.31 -4.89,0 L 8.49,14.92 7.4,15.99 C 6.75,16.64 5.88,17 4.96,17 4.23,17 3.56,16.77 3,16.39 V 21 c 0,0.55 0.45,1 1,1 h 16 c 0.55,0 1,-0.45 1,-1 V 16.39 C 20.44,16.77 19.77,17 19.04,17 18.12,17 17.25,16.64 16.6,15.99 Z M 18,9 H 13 V 7 H 11 V 9 H 6 C 4.34,9 3,10.34 3,12 v 1.54 c 0,1.08 0.88,1.96 1.96,1.96 0.52,0 1.02,-0.2 1.38,-0.57 l 2.14,-2.13 2.13,2.13 c 0.74,0.74 2.03,0.74 2.77,0 l 2.14,-2.13 2.13,2.13 c 0.37,0.37 0.86,0.57 1.38,0.57 1.08,0 1.96,-0.88 1.96,-1.96 V 12 C 21,10.34 19.66,9 18,9 Z"
       id="path27842"
       transform="matrix(0.264583,0,0,0.264583,60.0472,1119.7)" />
  </g>
</svg>
