<?xml version="1.0" encoding="UTF-8" standalone="no"?>
<!-- Created with Inkscape (http://www.inkscape.org/) -->

<svg
   id="svg1100"
   version="1.1"
   viewBox="0 0 5.556243 5.2916598"
   height="5.2916598mm"
   width="5.5562429mm"
   xmlns="http://www.w3.org/2000/svg"
   xmlns:svg="http://www.w3.org/2000/svg">
  <defs
     id="defs1097" />
  <g
     id="New_Layer_1652809127.8438118"
     style="display:inline"
     transform="translate(-128.61758,-1080.9392)">
    <path
       fill="#323232"
       d="M 16.99,5 17.62,6.37 18.99,7 17.62,7.63 16.99,9 16.36,7.63 14.99,7 16.36,6.37 Z M 11,6.13 V 4 h 2 c 0.57,0 1.1,0.17 1.55,0.45 L 15.98,3.02 A 4.899,4.899 0 0 0 13,2 H 7.5 V 4 H 9 V 6.14 A 5.007,5.007 0 0 0 5.26,9.5 H 9.24 L 15,11.65 V 11.03 A 5,5 0 0 0 11,6.13 Z M 1,22 H 5 V 11 H 1 Z M 20,17 H 13 L 10.91,16.27 11.24,15.33 13,16 h 2.82 C 16.47,16 17,15.47 17,14.82 17,14.33 16.69,13.89 16.23,13.71 L 8.97,11 H 7 v 9.02 l 7,1.98 8,-3 c -0.01,-1.1 -0.89,-2 -2,-2 z m 0,-3 c 1.1,0 2,-0.9 2,-2 0,-1.1 -2,-4 -2,-4 0,0 -2,2.9 -2,4 0,1.1 0.9,2 2,2 z"
       id="path27853"
       transform="matrix(0.264583,0,0,0.264583,128.353,1080.41)" />
  </g>
</svg>
