<?xml version="1.0" encoding="UTF-8" standalone="no"?>
<!-- Created with Inkscape (http://www.inkscape.org/) -->

<svg
   id="svg1100"
   version="1.1"
   viewBox="0 0 5.2916598 5.2916598"
   height="5.2916598mm"
   width="5.2916598mm"
   xmlns="http://www.w3.org/2000/svg"
   xmlns:svg="http://www.w3.org/2000/svg">
  <defs
     id="defs1097" />
  <g
     id="New_Layer_1652809127.8443413"
     style="display:inline"
     transform="translate(-138.27517,-1100.4492)">
    <path
       fill="#323232"
       d="M 11,14 H 9 a 9,9 0 0 1 9,-9 v 2 c -3.87,0 -7,3.13 -7,7 z m 7,-3 V 9 c -2.76,0 -5,2.24 -5,5 h 2 c 0,-1.66 1.34,-3 3,-3 z M 7,4 C 7,2.89 6.11,2 5,2 3.89,2 3,2.89 3,4 3,5.11 3.89,6 5,6 6.11,6 7,5.11 7,4 Z m 4.45,0.5 h -2 A 2.99,2.99 0 0 1 6.5,7 h -3 C 2.67,7 2,7.67 2,8.5 V 11 H 8 V 8.74 A 4.97,4.97 0 0 0 11.45,4.5 Z M 19,17 c 1.11,0 2,-0.89 2,-2 0,-1.11 -0.89,-2 -2,-2 -1.11,0 -2,0.89 -2,2 0,1.11 0.89,2 2,2 z m 1.5,1 h -3 a 2.99,2.99 0 0 1 -2.95,-2.5 h -2 A 4.97,4.97 0 0 0 16,19.74 V 22 h 6 V 19.5 C 22,18.67 21.33,18 20.5,18 Z"
       id="path27864"
       transform="matrix(0.264583,0,0,0.264583,137.746,1099.92)" />
  </g>
</svg>
