<?xml version="1.0" encoding="UTF-8" standalone="no"?>
<!-- Created with Inkscape (http://www.inkscape.org/) -->

<svg
   id="svg1100"
   version="1.1"
   viewBox="0 0 5.2387433 4.9094329"
   height="4.9094329mm"
   width="5.2387433mm"
   xmlns="http://www.w3.org/2000/svg"
   xmlns:svg="http://www.w3.org/2000/svg">
  <defs
     id="defs1097" />
  <g
     id="New_Layer_1652809127.8448822"
     style="display:inline"
     transform="translate(-80.182024,-1110.3613)">
    <path
       fill="#323232"
       d="m 15.904,13.05 -2.121,2.122 5.996,5.996 2.121,-2.121 -5.996,-5.996 z M 17.5,10 C 19.43,10 21,8.43 21,6.5 21,5.92 20.84,5.38 20.59,4.9 L 17.89,7.6 16.4,6.11 19.1,3.41 C 18.62,3.16 18.08,3 17.5,3 15.57,3 14,4.57 14,6.5 c 0,0.41 0.08,0.8 0.21,1.16 L 12.36,9.51 10.58,7.73 11.29,7.02 9.88,5.61 12,3.49 a 3,3 0 0 0 -4.24,0 L 4.22,7.03 5.63,8.44 H 2.81 L 2.1,9.15 5.64,12.69 6.35,11.98 V 9.15 l 1.41,1.41 0.71,-0.71 1.78,1.78 -7.41,7.41 2.12,2.12 L 16.34,9.79 C 16.7,9.92 17.09,10 17.5,10 Z"
       id="path27875"
       transform="matrix(0.264583,0,0,0.264583,79.6264,1109.67)" />
  </g>
</svg>
