<?xml version="1.0" encoding="UTF-8" standalone="no"?>
<!-- Created with Inkscape (http://www.inkscape.org/) -->

<svg
   id="svg1100"
   version="1.1"
   viewBox="0 0 5.2890711 5.2916598"
   height="5.2916598mm"
   width="5.2890711mm"
   xmlns="http://www.w3.org/2000/svg"
   xmlns:svg="http://www.w3.org/2000/svg">
  <defs
     id="defs1097" />
  <g
     id="New_Layer_1652809127.8454206"
     style="display:inline"
     transform="translate(-21.161366,-1110.1792)">
    <path
       fill="#323232"
       d="m 21.25,10.5 c -0.41,0 -0.75,0.34 -0.75,0.75 H 18.96 A 6.978,6.978 0 0 0 17.44,7.6 l 1.09,-1.09 0.01,0.01 c 0.29,0.29 0.77,0.29 1.06,0 0.29,-0.29 0.29,-0.77 0,-1.06 L 18.54,4.4 a 0.754,0.754 0 0 0 -1.06,0 C 17.19,4.69 17.19,5.16 17.47,5.45 L 16.38,6.54 A 7.015,7.015 0 0 0 12.74,5.03 V 3.5 h 0.01 C 13.16,3.5 13.5,3.16 13.5,2.75 13.5,2.34 13.16,2 12.75,2 h -1.5 c -0.41,0 -0.75,0.34 -0.75,0.75 0,0.41 0.33,0.74 0.74,0.75 V 5.05 C 9.87,5.19 8.62,5.74 7.6,6.56 L 6.51,5.47 6.52,5.46 C 6.81,5.17 6.81,4.69 6.52,4.4 a 0.754,0.754 0 0 0 -1.06,0 L 4.4,5.46 c -0.29,0.29 -0.29,0.77 0,1.06 0.29,0.29 0.76,0.29 1.05,0.01 l 1.09,1.09 a 6.89,6.89 0 0 0 -1.5,3.63 H 3.5 C 3.5,10.84 3.16,10.5 2.75,10.5 2.34,10.5 2,10.84 2,11.25 v 1.5 c 0,0.41 0.34,0.75 0.75,0.75 0.41,0 0.75,-0.34 0.75,-0.75 h 1.54 c 0.15,1.37 0.69,2.61 1.5,3.63 L 5.45,17.47 A 0.742,0.742 0 0 0 4.4,17.48 c -0.29,0.29 -0.29,0.77 0,1.06 l 1.06,1.06 c 0.29,0.29 0.77,0.29 1.06,0 0.29,-0.29 0.29,-0.77 0,-1.06 L 6.51,18.53 7.6,17.44 c 1.02,0.82 2.26,1.36 3.63,1.51 v 1.55 c -0.41,0.01 -0.74,0.34 -0.74,0.75 0,0.41 0.34,0.75 0.75,0.75 h 1.5 c 0.41,0 0.75,-0.34 0.75,-0.75 0,-0.41 -0.34,-0.75 -0.75,-0.75 h -0.01 v -1.54 c 1.37,-0.14 2.62,-0.69 3.64,-1.51 l 1.09,1.09 c -0.29,0.29 -0.28,0.76 0.01,1.05 0.29,0.29 0.77,0.29 1.06,0 l 1.06,-1.06 c 0.29,-0.29 0.29,-0.77 0,-1.06 a 0.754,0.754 0 0 0 -1.06,0 l -0.01,0.01 -1.09,-1.09 a 7.025,7.025 0 0 0 1.52,-3.65 h 1.54 c 0,0.41 0.34,0.75 0.75,0.75 0.41,0 0.75,-0.34 0.75,-0.75 v -1.5 C 22,10.84 21.66,10.5 21.25,10.5 Z M 13.75,8 c 0.55,0 1,0.45 1,1 0,0.55 -0.45,1 -1,1 -0.55,0 -1,-0.45 -1,-1 0,-0.55 0.45,-1 1,-1 z M 12,13 c -0.55,0 -1,-0.45 -1,-1 0,-0.55 0.45,-1 1,-1 0.55,0 1,0.45 1,1 0,0.55 -0.45,1 -1,1 z M 10.25,8 c 0.55,0 1,0.45 1,1 0,0.55 -0.45,1 -1,1 -0.55,0 -1,-0.45 -1,-1 0,-0.55 0.45,-1 1,-1 z M 8.5,13 c -0.55,0 -1,-0.45 -1,-1 0,-0.55 0.45,-1 1,-1 0.55,0 1,0.45 1,1 0,0.55 -0.45,1 -1,1 z m 1.75,3 c -0.55,0 -1,-0.45 -1,-1 0,-0.55 0.45,-1 1,-1 0.55,0 1,0.45 1,1 0,0.55 -0.45,1 -1,1 z m 3.5,0 c -0.55,0 -1,-0.45 -1,-1 0,-0.55 0.45,-1 1,-1 0.55,0 1,0.45 1,1 0,0.55 -0.45,1 -1,1 z m 0.75,-4 c 0,-0.55 0.45,-1 1,-1 0.55,0 1,0.45 1,1 0,0.55 -0.45,1 -1,1 -0.55,0 -1,-0.45 -1,-1 z"
       id="path27886"
       transform="matrix(0.264583,0,0,0.264583,20.6322,1109.65)" />
  </g>
</svg>
