<?xml version="1.0" encoding="UTF-8" standalone="no"?>
<!-- Created with Inkscape (http://www.inkscape.org/) -->

<svg
   id="svg1100"
   version="1.1"
   viewBox="0 0 3.7041619 5.6885347"
   height="5.6885347mm"
   width="3.7041619mm"
   xmlns="http://www.w3.org/2000/svg"
   xmlns:svg="http://www.w3.org/2000/svg">
  <defs
     id="defs1097" />
  <g
     id="New_Layer_1652809127.8474934"
     style="display:inline"
     transform="translate(-90.738898,-1129.6769)">
    <path
       fill="#323232"
       d="m 13.5,5.5 c 1.1,0 2,-0.9 2,-2 0,-1.1 -0.9,-2 -2,-2 -1.1,0 -2,0.9 -2,2 0,1.1 0.9,2 2,2 z m 6.5,7 V 23 H 19 V 12.5 C 19,12.22 18.78,12 18.5,12 18.22,12 18,12.22 18,12.5 v 1 H 17 V 12.81 A 6.02,6.02 0 0 1 13.49,10.29 C 13.18,11.16 13,12.07 13,13 c 0,0.23 0.02,0.46 0.03,0.69 L 15,16.5 V 23 H 13 V 18 L 11.22,15.46 11,19 8,23 6.4,21.8 9,18.33 V 13 C 9,11.85 9.18,10.71 9.5,9.61 L 8,10.46 V 14 H 6 V 9.3 l 5.4,-3.07 v 0.01 a 2,2 0 0 1 1.94,0.03 c 0.36,0.21 0.63,0.51 0.8,0.85 l 0.79,1.67 A 3.987,3.987 0 0 0 18.5,11 c 0.83,0 1.5,0.67 1.5,1.5 z"
       id="path27922"
       transform="matrix(0.264583,0,0,0.264583,89.1514,1129.28)" />
  </g>
</svg>
