<?xml version="1.0" encoding="UTF-8" standalone="no"?>
<!-- Created with Inkscape (http://www.inkscape.org/) -->

<svg
   id="svg1100"
   version="1.1"
   viewBox="0 0 5.2916598 5.2916598"
   height="5.2916598mm"
   width="5.2916598mm"
   xmlns="http://www.w3.org/2000/svg"
   xmlns:svg="http://www.w3.org/2000/svg">
  <defs
     id="defs1097" />
  <g
     id="New_Layer_1652809127.8480217"
     style="display:inline"
     transform="translate(-99.734666,-1100.4492)">
    <path
       fill="#323232"
       d="M 11.99,2 C 6.47,2 2,6.48 2,12 2,17.52 6.47,22 11.99,22 17.52,22 22,17.52 22,12 22,6.48 17.52,2 11.99,2 Z M 8.5,8 C 9.33,8 10,8.67 10,9.5 10,10.33 9.33,11 8.5,11 7.67,11 7,10.33 7,9.5 7,8.67 7.67,8 8.5,8 Z M 12,18 C 9.72,18 7.78,16.34 7,14 h 10 c -0.78,2.34 -2.72,4 -5,4 z m 3.5,-7 C 14.67,11 14,10.33 14,9.5 14,8.67 14.67,8 15.5,8 16.33,8 17,8.67 17,9.5 17,10.33 16.33,11 15.5,11 Z"
       id="path27933"
       transform="matrix(0.264583,0,0,0.264583,99.2055,1099.92)" />
  </g>
</svg>
