<?xml version="1.0" encoding="UTF-8" standalone="no"?>
<!-- Created with Inkscape (http://www.inkscape.org/) -->

<svg
   id="svg1100"
   version="1.1"
   viewBox="0 0 4.7624941 5.2916598"
   height="5.2916598mm"
   width="4.7624941mm"
   xmlns="http://www.w3.org/2000/svg"
   xmlns:svg="http://www.w3.org/2000/svg">
  <defs
     id="defs1097" />
  <g
     id="New_Layer_1652806998.1808157"
     style="display:inline"
     transform="translate(-124.61875,-88.385366)">
    <path
       fill="#323232"
       d="M 9,11 H 7 v 2 h 2 z m 4,0 h -2 v 2 h 2 z m 4,0 h -2 v 2 h 2 z M 19,4 H 18 V 2 H 16 V 4 H 8 V 2 H 6 V 4 H 5 C 3.89,4 3.01,4.9 3.01,6 L 3,20 a 2,2 0 0 0 2,2 h 14 c 1.1,0 2,-0.9 2,-2 V 6 C 21,4.9 20.1,4 19,4 Z m 0,16 H 5 V 9 h 14 z"
       id="path2047"
       transform="matrix(0.264583,0,0,0.264583,123.825,87.8562)" />
  </g>
</svg>
