<?xml version="1.0" encoding="UTF-8" standalone="no"?>
<!-- Created with Inkscape (http://www.inkscape.org/) -->

<svg
   id="svg1100"
   version="1.1"
   viewBox="0 0 4.7624941 4.7624941"
   height="4.7624941mm"
   width="4.7624941mm"
   xmlns="http://www.w3.org/2000/svg"
   xmlns:svg="http://www.w3.org/2000/svg">
  <defs
     id="defs1097" />
  <g
     id="New_Layer_1652809127.848571"
     style="display:inline"
     transform="translate(-11.112549,-1120.2237)">
    <path
       fill="#323232"
       d="M 19,5 H 17 V 3 H 7 V 5 H 5 C 3.9,5 3,5.9 3,7 v 1 c 0,2.55 1.92,4.63 4.39,4.94 A 5.01,5.01 0 0 0 11,15.9 V 19 H 7 v 2 h 10 v -2 h -4 v -3.1 a 5.01,5.01 0 0 0 3.61,-2.96 C 19.08,12.63 21,10.55 21,8 V 7 C 21,5.9 20.1,5 19,5 Z M 5,8 V 7 h 2 v 3.82 C 5.84,10.4 5,9.3 5,8 Z m 14,0 c 0,1.3 -0.84,2.4 -2,2.82 V 7 h 2 z"
       id="path27944"
       transform="matrix(0.264583,0,0,0.264583,10.3188,1119.43)" />
  </g>
</svg>
