<?xml version="1.0" encoding="UTF-8" standalone="no"?>
<!-- Created with Inkscape (http://www.inkscape.org/) -->

<svg
   id="svg1100"
   version="1.1"
   viewBox="0 0 4.7624941 4.7624941"
   height="4.7624941mm"
   width="4.7624941mm"
   xmlns="http://www.w3.org/2000/svg"
   xmlns:svg="http://www.w3.org/2000/svg">
  <defs
     id="defs1097" />
  <g
     id="New_Layer_1652809127.8496416"
     style="display:inline"
     transform="translate(-148.06433,-1110.4437)">
    <path
       fill="#323232"
       d="M 20,3 H 9 v 2.4 l 1.81,1.45 C 10.93,6.94 11,7.09 11,7.24 v 4.26 c 0,0.28 -0.22,0.5 -0.5,0.5 h -4 C 6.22,12 6,11.78 6,11.5 V 7.24 C 6,7.09 6.07,6.94 6.19,6.85 L 8,5.4 V 3 H 4 v 10 c 0,2.21 1.79,4 4,4 h 6 c 2.21,0 4,-1.79 4,-4 v -3 h 2 A 2,2 0 0 0 22,8 V 5 C 22,3.89 21.11,3 20,3 Z m 0,5 H 18 V 5 h 2 z m 0,11 H 4 v 2 h 16 z"
       id="path27966"
       transform="matrix(0.264583,0,0,0.264583,147.006,1109.65)" />
  </g>
</svg>
