<?xml version="1.0" encoding="UTF-8" standalone="no"?>
<!-- Created with Inkscape (http://www.inkscape.org/) -->

<svg
   id="svg1100"
   version="1.1"
   viewBox="0 0 5.2935362 5.2916598"
   height="5.2916598mm"
   width="5.2935362mm"
   xmlns="http://www.w3.org/2000/svg"
   xmlns:svg="http://www.w3.org/2000/svg">
  <defs
     id="defs1097" />
  <g
     id="New_Layer_1652809127.8501706"
     style="display:inline"
     transform="translate(-31.20668,-1090.7292)">
    <path
       fill="#323232"
       d="M 21.94,4.88 A 1.32,1.32 0 0 0 20.68,4 H 19.6 L 19.29,3.03 C 19.15,2.43 18.61,2 18,2 17.39,2 16.85,2.43 16.71,3.04 L 16.4,4 h -1.07 c -0.57,0 -1.08,0.35 -1.26,0.88 -0.19,0.56 0.04,1.17 0.56,1.48 l 0.87,0.52 -0.4,1.24 c -0.23,0.58 -0.04,1.25 0.45,1.62 0.23,0.17 0.51,0.26 0.78,0.26 0.31,0 0.61,-0.11 0.86,-0.32 L 18,8.98 18.81,9.68 C 19.06,9.89 19.36,10 19.67,10 19.94,10 20.22,9.91 20.45,9.74 20.95,9.37 21.13,8.7 20.9,8.12 L 20.51,6.88 21.38,6.36 C 21.89,6.05 22.12,5.44 21.94,4.88 Z M 18,7 c -0.55,0 -1,-0.45 -1,-1 0,-0.55 0.45,-1 1,-1 0.55,0 1,0.45 1,1 0,0.55 -0.45,1 -1,1 z m -4.51,3.51 C 13.06,10.08 12.55,9.78 12,9.58 V 8 H 11 V 9.38 C 10.89,9.37 10.77,9.35 10.66,9.35 9.64,9.35 8.61,9.74 7.83,10.52 7.67,10.68 7.53,10.86 7.4,11.05 L 6,10.52 a 3.01,3.01 0 0 0 -3.83,1.82 c -0.27,0.75 -0.23,1.57 0.12,2.29 0.23,0.48 0.58,0.87 1,1.16 -0.38,1.35 -0.06,2.85 1,3.91 a 3.981,3.981 0 0 0 3.91,1 c 0.29,0.42 0.68,0.77 1.16,1 0.42,0.2 0.85,0.3 1.29,0.3 0.34,0 0.68,-0.06 1.01,-0.17 a 3.007,3.007 0 0 0 1.82,-3.85 l -0.52,-1.37 c 0.18,-0.13 0.36,-0.27 0.53,-0.43 0.87,-0.87 1.24,-2.04 1.14,-3.17 H 16 v -1 h -1.59 c -0.19,-0.55 -0.49,-1.06 -0.92,-1.5 z M 4.67,14.29 A 1.02,1.02 0 0 1 4.1,13.78 0.958,0.958 0 0 1 4.06,13.02 C 4.25,12.5 4.82,12.23 5.32,12.41 l 3.16,1.19 c -1.15,0.6 -2.63,1.11 -3.81,0.69 z m 6.32,5.65 c -0.25,0.09 -0.52,0.08 -0.76,-0.04 A 0.99,0.99 0 0 1 9.72,19.33 c -0.42,-1.18 0.09,-2.65 0.7,-3.8 l 1.18,3.13 c 0.18,0.52 -0.09,1.1 -0.61,1.28 z M 12.2,14.6 11.59,12.99 c 0,-0.01 -0.01,-0.02 -0.02,-0.03 L 11.51,12.84 A 0.673,0.673 0 0 0 11.44,12.73 L 11.35,12.64 11.26,12.55 C 11.23,12.52 11.19,12.5 11.15,12.48 11.11,12.46 11.08,12.43 11.03,12.42 11.02,12.42 11.01,12.41 11,12.4 L 9.4,11.8 a 1.966,1.966 0 0 1 2.67,0.13 c 0.73,0.73 0.77,1.88 0.13,2.67 z"
       id="path27977"
       transform="matrix(0.264583,0,0,0.264583,30.6792,1090.2)" />
  </g>
</svg>
