<?xml version="1.0" encoding="UTF-8" standalone="no"?>
<!-- Created with Inkscape (http://www.inkscape.org/) -->

<svg
   id="svg1100"
   version="1.1"
   viewBox="0 0 3.7050221 5.0268612"
   height="5.0268612mm"
   width="3.7050221mm"
   xmlns="http://www.w3.org/2000/svg"
   xmlns:svg="http://www.w3.org/2000/svg">
  <defs
     id="defs1097" />
  <g
     id="New_Layer_1652809127.8507202"
     style="display:inline"
     transform="translate(-80.948856,-1130.0037)">
    <path
       fill="#323232"
       d="M 12,3 C 11.54,3 11.07,3.04 10.6,3.14 7.84,3.67 5.64,5.9 5.12,8.66 4.64,11.27 5.6,13.67 7.34,15.22 7.77,15.6 8,16.13 8,16.69 V 19 c 0,1.1 0.9,2 2,2 h 0.28 a 1.98,1.98 0 0 0 3.44,0 H 14 c 1.1,0 2,-0.9 2,-2 v -2.31 c 0,-0.55 0.22,-1.09 0.64,-1.46 A 6.956,6.956 0 0 0 19,10 C 19,6.13 15.87,3 12,3 Z m 2,16 h -4 v -1 h 4 z m 0,-2 h -4 v -1 h 4 z M 12.5,11.41 V 14 h -1 V 11.41 L 9.67,9.59 10.38,8.88 12,10.5 13.62,8.88 14.33,9.59 Z"
       id="path27988"
       transform="matrix(0.264583,0,0,0.264583,79.6268,1129.21)" />
  </g>
</svg>
