<?xml version="1.0" encoding="UTF-8" standalone="no"?>
<!-- Created with Inkscape (http://www.inkscape.org/) -->

<svg
   id="svg1100"
   version="1.1"
   viewBox="0 0 4.328578 5.2916598"
   height="5.2916598mm"
   width="4.328578mm"
   xmlns="http://www.w3.org/2000/svg"
   xmlns:svg="http://www.w3.org/2000/svg">
  <defs
     id="defs1097" />
  <g
     id="New_Layer_1652809127.8512504"
     style="display:inline"
     transform="translate(-100.21623,-1119.9592)">
    <path
       fill="#323232"
       d="m 12,6 a 2,2 0 1 0 0,-4 2,2 0 0 0 0,4 z"
       id="path27999"
       transform="matrix(0.264583,0,0,0.264583,99.1579,1119.43)" />
    <path
       fill="#323232"
       d="M 15.89,8.11 C 15.5,7.72 14.83,7 13.53,7 H 10.99 C 8.24,6.99 6,4.75 6,2 H 4 C 4,5.16 6.11,7.84 9,8.71 V 22 h 2 v -6 h 2 v 6 h 2 V 10.05 l 3.95,3.95 1.41,-1.41 z"
       id="path28001"
       transform="matrix(0.264583,0,0,0.264583,99.1579,1119.43)" />
  </g>
</svg>
