<?xml version="1.0" encoding="UTF-8" standalone="no"?>
<!-- Created with Inkscape (http://www.inkscape.org/) -->

<svg
   id="svg1100"
   version="1.1"
   viewBox="0 0 4.9241543 5.2916598"
   height="5.2916598mm"
   width="4.9241543mm"
   xmlns="http://www.w3.org/2000/svg"
   xmlns:svg="http://www.w3.org/2000/svg">
  <defs
     id="defs1097" />
  <g
     id="New_Layer_1652809127.8522596"
     style="display:inline"
     transform="translate(-138.45878,-1110.1792)">
    <path
       fill="#323232"
       d="M 11,2 H 3 v 2 h 8 z M 6,11 H 8 V 7 h 3 V 5 H 3 v 2 h 3 z m 14.181,1.404 -7.778,7.778 1.415,1.414 7.778,-7.778 z M 14.5,16 a 1.5,1.5 0 1 0 0,-3 1.5,1.5 0 0 0 0,3 z m 5,5 a 1.5,1.5 0 1 0 0,-3 1.5,1.5 0 0 0 0,3 z m -4,-10 A 2.5,2.5 0 0 0 18,8.5 V 4 h 3 V 2 H 17 V 6.51 C 16.58,6.19 16.07,6 15.5,6 a 2.5,2.5 0 0 0 0,5 z M 9.74,15.96 8.33,17.37 7.62,16.66 7.97,16.31 A 2.499,2.499 0 0 0 6.2,12.04 2.499,2.499 0 0 0 4.43,16.31 l 0.35,0.35 -1.06,1.06 c -0.98,0.98 -0.98,2.56 0,3.54 0.5,0.5 1.14,0.74 1.78,0.74 0.64,0 1.28,-0.24 1.77,-0.73 l 1.06,-1.06 1.41,1.41 1.41,-1.41 -1.41,-1.41 1.41,-1.41 z M 5.85,14.2 A 0.5,0.5 0 0 1 6.2,14.05 0.5,0.5 0 0 1 6.55,14.2 c 0.19,0.2 0.19,0.51 0,0.71 L 6.2,15.26 5.85,14.9 a 0.501,0.501 0 0 1 0,-0.7 z m 0,5.65 A 0.5,0.5 0 0 1 5.5,20 0.5,0.5 0 0 1 5.15,19.85 a 0.513,0.513 0 0 1 0,-0.71 l 1.06,-1.06 0.71,0.71 z"
       id="path28013"
       transform="matrix(0.264583,0,0,0.264583,137.669,1109.65)" />
  </g>
</svg>
