<?xml version="1.0" encoding="UTF-8" standalone="no"?>
<!-- Created with Inkscape (http://www.inkscape.org/) -->

<svg
   id="svg1100"
   version="1.1"
   viewBox="0 0 5.2916598 4.7724938"
   height="4.7724938mm"
   width="5.2916598mm"
   xmlns="http://www.w3.org/2000/svg"
   xmlns:svg="http://www.w3.org/2000/svg">
  <defs
     id="defs1097" />
  <g
     id="New_Layer_1652809127.8528047"
     style="display:inline"
     transform="translate(-70.365966,-1090.9837)">
    <path
       fill="#323232"
       d="M 20.57,10.66 C 20.43,10.26 20.05,10 19.6,10 h -7.19 c -0.46,0 -0.83,0.26 -0.98,0.66 l -1.43,4.11 0.01,5.51 c 0,0.38 0.31,0.72 0.69,0.72 h 0.62 C 11.7,21 12,20.62 12,20.24 V 19 h 8 v 1.24 c 0,0.38 0.31,0.76 0.69,0.76 h 0.61 c 0.38,0 0.69,-0.34 0.69,-0.72 L 22,18.91 V 14.77 Z M 12.41,11 h 7.19 l 1.03,3 H 11.38 Z M 12,17 c -0.55,0 -1,-0.45 -1,-1 0,-0.55 0.45,-1 1,-1 0.55,0 1,0.45 1,1 0,0.55 -0.45,1 -1,1 z m 8,0 c -0.55,0 -1,-0.45 -1,-1 0,-0.55 0.45,-1 1,-1 0.55,0 1,0.45 1,1 0,0.55 -0.45,1 -1,1 z"
       id="path28024"
       transform="matrix(0.264583,0,0,0.264583,69.8368,1090.2)" />
    <path
       fill="#323232"
       d="m 14,9 h 1 V 3 H 7 V 8 H 2 V 21 H 3 V 9 H 8 V 4 h 6 z"
       id="path28026"
       transform="matrix(0.264583,0,0,0.264583,69.8368,1090.19)" />
    <path
       fill="#323232"
       d="M 7,11 H 5 v 2 h 2 z m 5,-6 h -2 v 2 h 2 z M 7,15 H 5 v 2 h 2 z m 0,4 H 5 v 2 h 2 z"
       id="path28028"
       transform="matrix(0.264583,0,0,0.264583,69.8368,1090.19)" />
  </g>
</svg>
