<?xml version="1.0" encoding="UTF-8" standalone="no"?>
<!-- Created with Inkscape (http://www.inkscape.org/) -->

<svg
   id="svg1100"
   version="1.1"
   viewBox="0 0 5.7926202 4.7624945"
   height="4.7624946mm"
   width="5.7926202mm"
   xmlns="http://www.w3.org/2000/svg"
   xmlns:svg="http://www.w3.org/2000/svg">
  <defs
     id="defs1097" />
  <g
     id="New_Layer_1652809127.8542523"
     style="display:inline"
     transform="translate(-109.25958,-1081.2037)">
    <path
       fill="#323232"
       d="m 9,15 c -2.67,0 -8,1.34 -8,4 v 2 H 17 V 19 C 17,16.34 11.67,15 9,15 Z M 22.1,6.84 C 22.11,6.73 22.12,6.62 22.12,6.5 22.12,6.38 22.11,6.27 22.09,6.16 L 22.83,5.58 C 22.9,5.53 22.91,5.43 22.87,5.36 L 22.17,4.15 C 22.13,4.07 22.03,4.05 21.96,4.07 L 21.1,4.42 C 20.92,4.28 20.72,4.17 20.51,4.08 L 20.38,3.15 A 0.182,0.182 0 0 0 20.2,3 H 18.8 C 18.71,3 18.64,3.06 18.63,3.15 L 18.5,4.08 C 18.29,4.17 18.09,4.29 17.91,4.42 L 17.04,4.07 c -0.08,-0.03 -0.17,0 -0.21,0.08 l -0.7,1.21 c -0.04,0.08 -0.03,0.17 0.04,0.22 l 0.74,0.58 a 1.953,1.953 0 0 0 0,0.68 L 16.17,7.42 C 16.1,7.47 16.09,7.57 16.13,7.64 l 0.7,1.21 c 0.04,0.08 0.14,0.1 0.21,0.08 l 0.87,-0.35 c 0.18,0.14 0.38,0.25 0.59,0.34 l 0.13,0.93 C 18.64,9.94 18.71,10 18.8,10 h 1.4 c 0.09,0 0.16,-0.06 0.17,-0.15 L 20.5,8.92 c 0.21,-0.09 0.41,-0.21 0.59,-0.34 l 0.87,0.35 c 0.08,0.03 0.17,0 0.21,-0.08 l 0.7,-1.21 C 22.91,7.56 22.9,7.47 22.83,7.42 Z m -2.6,0.91 a 1.25,1.25 0 1 1 0,-2.5 1.25,1.25 0 0 1 0,2.5 z m 0.42,3.93 -0.5,-0.87 c -0.03,-0.06 -0.1,-0.08 -0.15,-0.06 L 18.65,11 C 18.52,10.9 18.38,10.82 18.23,10.76 L 18.14,10.1 A 0.15,0.15 0 0 0 18,10 h -1 c -0.06,0 -0.11,0.04 -0.12,0.11 l -0.09,0.66 c -0.15,0.06 -0.29,0.15 -0.42,0.24 l -0.62,-0.25 c -0.06,-0.02 -0.12,0 -0.15,0.06 l -0.5,0.87 c -0.03,0.06 -0.02,0.12 0.03,0.16 l 0.53,0.41 c -0.01,0.08 -0.02,0.16 -0.02,0.24 0,0.08 0.01,0.17 0.02,0.24 l -0.53,0.41 c -0.05,0.04 -0.06,0.11 -0.03,0.16 l 0.5,0.87 c 0.03,0.06 0.1,0.08 0.15,0.06 l 0.62,-0.25 c 0.13,0.1 0.27,0.18 0.42,0.24 l 0.09,0.66 C 16.89,14.96 16.94,15 17,15 h 1 c 0.06,0 0.12,-0.04 0.12,-0.11 l 0.09,-0.66 c 0.15,-0.06 0.29,-0.15 0.42,-0.24 l 0.62,0.25 c 0.06,0.02 0.12,0 0.15,-0.06 l 0.5,-0.87 c 0.03,-0.06 0.02,-0.12 -0.03,-0.16 l -0.52,-0.41 c 0.01,-0.08 0.02,-0.16 0.02,-0.24 0,-0.08 -0.01,-0.17 -0.02,-0.24 l 0.53,-0.41 c 0.05,-0.04 0.06,-0.11 0.04,-0.17 z m -2.42,1.65 c -0.46,0 -0.83,-0.38 -0.83,-0.83 0,-0.46 0.38,-0.83 0.83,-0.83 0.45,0 0.83,0.38 0.83,0.83 0,0.46 -0.37,0.83 -0.83,0.83 z M 4.74,9 h 8.53 c 0.27,0 0.49,-0.22 0.49,-0.49 V 8.49 A 0.49,0.49 0 0 0 13.27,8 H 13 C 13,6.52 12.19,5.25 11,4.55 V 5.5 C 11,5.78 10.78,6 10.5,6 10.22,6 10,5.78 10,5.5 V 4.14 A 4.09,4.09 0 0 0 9,4 C 8.65,4 8.32,4.06 8,4.14 V 5.5 C 8,5.78 7.78,6 7.5,6 7.22,6 7,5.78 7,5.5 V 4.55 C 5.81,5.25 5,6.52 5,8 H 4.74 A 0.49,0.49 0 0 0 4.25,8.49 V 8.52 C 4.25,8.78 4.47,9 4.74,9 Z M 9,13 c 1.86,0 3.41,-1.28 3.86,-3 H 5.14 c 0.45,1.72 2,3 3.86,3 z"
       id="path28042"
       transform="matrix(0.264583,0,0,0.264583,108.995,1080.41)" />
  </g>
</svg>
