<?xml version="1.0" encoding="UTF-8" standalone="no"?>
<!-- Created with Inkscape (http://www.inkscape.org/) -->

<svg
   id="svg1100"
   version="1.1"
   viewBox="0 0 5.2916598 5.2784309"
   height="5.2784309mm"
   width="5.2916598mm"
   xmlns="http://www.w3.org/2000/svg"
   xmlns:svg="http://www.w3.org/2000/svg">
  <defs
     id="defs1097" />
  <g
     id="New_Layer_1652809127.854794"
     style="display:inline"
     transform="translate(-99.734666,-1090.7392)">
    <path
       fill="#323232"
       d="M 22,12 C 22,6.48 17.52,2 12,2 6.48,2 2,6.48 2,12 c 0,4.84 3.44,8.87 8,9.8 V 15 H 8 v -3 h 2 V 9.5 C 10,7.57 11.57,6 13.5,6 H 16 v 3 h -2 c -0.55,0 -1,0.45 -1,1 v 2 h 3 v 3 h -3 v 6.95 c 5.05,-0.5 9,-4.76 9,-9.95 z"
       id="path28053"
       transform="matrix(0.264583,0,0,0.264583,99.2055,1090.21)" />
  </g>
</svg>
