<?xml version="1.0" encoding="UTF-8" standalone="no"?>
<!-- Created with Inkscape (http://www.inkscape.org/) -->

<svg
   id="svg1100"
   version="1.1"
   viewBox="0 0 5.2916598 5.2916598"
   height="5.2916598mm"
   width="5.2916598mm"
   xmlns="http://www.w3.org/2000/svg"
   xmlns:svg="http://www.w3.org/2000/svg">
  <defs
     id="defs1097" />
  <g
     id="New_Layer_1652809127.8553228"
     style="display:inline"
     transform="translate(-128.75017,-1090.7292)">
    <path
       fill="#323232"
       d="M 2,2 V 22 H 22 V 2 Z m 9.86,14.96 c 0.76,-0.24 1.4,-1.04 1.53,-1.63 0.13,-0.56 -0.1,-1.05 -0.2,-1.6 -0.08,-0.46 -0.07,-0.85 0.08,-1.28 0.54,1.21 2.15,1.64 1.98,3.18 -0.19,1.7 -2.11,2.38 -3.39,1.33 z M 20,20 H 18 V 18 H 15.98 A 4.98,4.98 0 0 0 17,15 C 17,13.11 15.91,12.15 15.15,11.63 12.2,9.61 13,7 13,7 c -6.73,3.57 -6.02,7.47 -6,8 0.03,0.96 0.49,2.07 1.23,3 H 6 v 2 H 4 V 4 h 16 z"
       id="path28064"
       transform="matrix(0.264583,0,0,0.264583,128.221,1090.2)" />
  </g>
</svg>
