<?xml version="1.0" encoding="UTF-8" standalone="no"?>
<!-- Created with Inkscape (http://www.inkscape.org/) -->

<svg
   id="svg1100"
   version="1.1"
   viewBox="0 0 5.2916598 5.6885347"
   height="5.6885347mm"
   width="5.2916598mm"
   xmlns="http://www.w3.org/2000/svg"
   xmlns:svg="http://www.w3.org/2000/svg">
  <defs
     id="defs1097" />
  <g
     id="New_Layer_1652809127.8558707"
     style="display:inline"
     transform="translate(-50.786766,-1100.2569)">
    <path
       fill="#323232"
       d="m 9.5,5.5 c 1.1,0 2,-0.9 2,-2 0,-1.1 -0.9,-2 -2,-2 -1.1,0 -2,0.9 -2,2 0,1.1 0.9,2 2,2 z M 5.75,8.9 3,23 H 5.1 L 6.85,15 9,17 v 6 h 2 v -7.55 l -2.05,-2.05 0.6,-3 C 10.85,12 12.8,13 15,13 V 11 C 13.15,11 11.55,10 10.65,8.55 L 9.7,6.95 C 9.35,6.35 8.7,6 8,6 7.75,6 7.5,6.05 7.25,6.15 L 2,8.3 V 13 H 4 V 9.65 Z M 13,2 v 7 h 3.75 v 14 h 1.5 V 9 H 22 V 2 Z m 5.01,6 V 6.25 H 14.5 v -1.5 h 3.51 V 3 l 2.49,2.5 z"
       id="path28075"
       transform="matrix(0.264583,0,0,0.264583,50.2576,1099.86)" />
  </g>
</svg>
