<?xml version="1.0" encoding="UTF-8" standalone="no"?>
<!-- Created with Inkscape (http://www.inkscape.org/) -->

<svg
   id="svg1100"
   version="1.1"
   viewBox="0 0 5.8208261 3.7041619"
   height="3.7041619mm"
   width="5.8208261mm"
   xmlns="http://www.w3.org/2000/svg"
   xmlns:svg="http://www.w3.org/2000/svg">
  <defs
     id="defs1097" />
  <g
     id="New_Layer_1652809127.8564098"
     style="display:inline"
     transform="translate(-40.732583,-1081.7329)">
    <path
       fill="#323232"
       d="m 16,11 c 1.66,0 2.99,-1.34 2.99,-3 0,-1.66 -1.33,-3 -2.99,-3 -1.66,0 -3,1.34 -3,3 0,1.66 1.34,3 3,3 z M 8,11 C 9.66,11 10.99,9.66 10.99,8 10.99,6.34 9.66,5 8,5 6.34,5 5,6.34 5,8 c 0,1.66 1.34,3 3,3 z m 0,2 C 5.67,13 1,14.17 1,16.5 V 19 H 15 V 16.5 C 15,14.17 10.33,13 8,13 Z m 8,0 c -0.29,0 -0.62,0.02 -0.97,0.05 1.16,0.84 1.97,1.97 1.97,3.45 V 19 h 6 V 16.5 C 23,14.17 18.33,13 16,13 Z"
       id="path28086"
       transform="matrix(0.264583,0,0,0.264583,40.468,1080.41)" />
  </g>
</svg>
