<?xml version="1.0" encoding="UTF-8" standalone="no"?>
<!-- Created with Inkscape (http://www.inkscape.org/) -->

<svg
   id="svg1100"
   version="1.1"
   viewBox="0 0 6.3499918 3.439579"
   height="3.439579mm"
   width="6.3499918mm"
   xmlns="http://www.w3.org/2000/svg"
   xmlns:svg="http://www.w3.org/2000/svg">
  <defs
     id="defs1097" />
  <g
     id="New_Layer_1652809127.8569412"
     style="display:inline"
     transform="translate(-10.3188,-1081.8629)">
    <path
       fill="#323232"
       d="M 8,10 H 5 V 7 H 3 v 3 H 0 v 2 h 3 v 3 h 2 v -3 h 3 z m 10,1 c 1.66,0 2.99,-1.34 2.99,-3 0,-1.66 -1.33,-3 -2.99,-3 -0.32,0 -0.63,0.05 -0.91,0.14 0.57,0.81 0.9,1.79 0.9,2.86 0,1.07 -0.34,2.04 -0.9,2.86 C 17.37,10.95 17.68,11 18,11 Z m -5,0 c 1.66,0 2.99,-1.34 2.99,-3 0,-1.66 -1.33,-3 -2.99,-3 -1.66,0 -3,1.34 -3,3 0,1.66 1.34,3 3,3 z m 6.62,2.16 C 20.45,13.89 21,14.82 21,16 v 2 h 3 v -2 c 0,-1.54 -2.37,-2.49 -4.38,-2.84 z M 13,13 c -2,0 -6,1 -6,3 v 2 h 12 v -2 c 0,-2 -4,-3 -6,-3 z"
       id="path28097"
       transform="matrix(0.264583,0,0,0.264583,10.3188,1080.54)" />
  </g>
</svg>
