<?xml version="1.0" encoding="UTF-8" standalone="no"?>
<!-- Created with Inkscape (http://www.inkscape.org/) -->

<svg
   id="svg1100"
   version="1.1"
   viewBox="0 0 6.3499923 3.1749959"
   height="3.1749959mm"
   width="6.3499923mm"
   xmlns="http://www.w3.org/2000/svg"
   xmlns:svg="http://www.w3.org/2000/svg">
  <defs
     id="defs1097" />
  <g
     id="New_Layer_1652809127.8574846"
     style="display:inline"
     transform="translate(-1.1967598e-6,-1081.9975)">
    <path
       fill="#323232"
       d="m 12,12.75 c 1.63,0 3.07,0.39 4.24,0.9 1.08,0.48 1.76,1.56 1.76,2.73 V 18 H 6 V 16.39 C 6,15.21 6.68,14.13 7.76,13.66 8.93,13.14 10.37,12.75 12,12.75 Z M 4,13 C 5.1,13 6,12.1 6,11 6,9.9 5.1,9 4,9 2.9,9 2,9.9 2,11 c 0,1.1 0.9,2 2,2 z m 1.13,1.1 C 4.76,14.04 4.39,14 4,14 3.01,14 2.07,14.21 1.22,14.58 A 2.01,2.01 0 0 0 0,16.43 V 18 h 4.5 v -1.61 c 0,-0.83 0.23,-1.61 0.63,-2.29 z M 20,13 c 1.1,0 2,-0.9 2,-2 0,-1.1 -0.9,-2 -2,-2 -1.1,0 -2,0.9 -2,2 0,1.1 0.9,2 2,2 z m 4,3.43 C 24,15.62 23.52,14.9 22.78,14.58 A 6.95,6.95 0 0 0 20,14 c -0.39,0 -0.76,0.04 -1.13,0.1 0.4,0.68 0.63,1.46 0.63,2.29 V 18 H 24 Z M 12,6 c 1.66,0 3,1.34 3,3 0,1.66 -1.34,3 -3,3 C 10.34,12 9,10.66 9,9 9,7.34 10.34,6 12,6 Z"
       id="path28108"
       transform="matrix(0.264583,0,0,0.264583,1.4e-6,1080.41)" />
  </g>
</svg>
