<?xml version="1.0" encoding="UTF-8" standalone="no"?>
<!-- Created with Inkscape (http://www.inkscape.org/) -->

<svg
   id="svg1100"
   version="1.1"
   viewBox="0 0 5.1752434 4.2333278"
   height="4.2333279mm"
   width="5.1752434mm"
   xmlns="http://www.w3.org/2000/svg"
   xmlns:svg="http://www.w3.org/2000/svg">
  <defs
     id="defs1097" />
  <g
     id="New_Layer_1652809127.8580189"
     style="display:inline"
     transform="translate(-90.0033,-1110.7083)">
    <path
       fill="#323232"
       d="M 9,4 V 5.38 C 8.17,5.05 7.28,4.88 6.39,4.88 4.6,4.88 2.81,5.56 1.44,6.93 l 3.33,3.33 h 1.11 v 1.11 c 0.86,0.86 1.98,1.31 3.11,1.36 V 15 H 6 v 3 c 0,1.1 0.9,2 2,2 h 10 c 1.66,0 3,-1.34 3,-3 V 4 Z M 7.89,10.41 V 8.26 H 5.61 L 4.57,7.22 A 5.07,5.07 0 0 1 6.39,6.88 c 1.34,0 2.59,0.52 3.54,1.46 l 1.41,1.41 -0.2,0.2 a 2.7,2.7 0 0 1 -1.92,0.8 c -0.47,0 -0.93,-0.12 -1.33,-0.34 z M 19,17 c 0,0.55 -0.45,1 -1,1 -0.55,0 -1,-0.45 -1,-1 v -2 h -6 v -2.59 c 0.57,-0.23 1.1,-0.57 1.56,-1.03 l 0.2,-0.2 2.83,2.82 H 17 V 12.59 L 11,6.62 V 6 h 8 z"
       id="path28119"
       transform="matrix(0.264583,0,0,0.264583,89.6223,1109.65)" />
  </g>
</svg>
