<?xml version="1.0" encoding="UTF-8" standalone="no"?>
<!-- Created with Inkscape (http://www.inkscape.org/) -->

<svg
   id="svg1100"
   version="1.1"
   viewBox="0 0 4.2333279 5.820826"
   height="5.8208261mm"
   width="4.2333279mm"
   xmlns="http://www.w3.org/2000/svg"
   xmlns:svg="http://www.w3.org/2000/svg">
  <defs
     id="defs1097" />
  <g
     id="New_Layer_1652809127.8585625"
     style="display:inline"
     transform="translate(-31.736732,-1129.6046)">
    <path
       fill="#323232"
       d="M 16,5 14.58,6.42 12.99,4.83 V 16 H 11.01 V 4.83 L 9.42,6.42 8,5 12,1 Z m 4,5 v 11 c 0,1.1 -0.9,2 -2,2 H 6 A 2,2 0 0 1 4,21 V 10 C 4,8.89 4.89,8 6,8 h 3 v 2 H 6 V 21 H 18 V 10 H 15 V 8 h 3 a 2,2 0 0 1 2,2 z"
       id="path28130-1"
       transform="matrix(0.264583,0,0,0.264583,30.6784,1129.34)" />
  </g>
</svg>
