<?xml version="1.0" encoding="UTF-8" standalone="no"?>
<!-- Created with Inkscape (http://www.inkscape.org/) -->

<svg
   id="svg1100"
   version="1.1"
   viewBox="0 0 5.2916598 3.7041619"
   height="3.7041619mm"
   width="5.2916598mm"
   xmlns="http://www.w3.org/2000/svg"
   xmlns:svg="http://www.w3.org/2000/svg">
  <defs
     id="defs1097" />
  <g
     id="New_Layer_1652809127.8590922"
     style="display:inline"
     transform="translate(-10.847966,-1101.2429)">
    <path
       fill="#323232"
       d="M 20,10 V 7 C 20,5.9 19.1,5 18,5 H 6 C 4.9,5 4,5.9 4,7 v 3 c -1.1,0 -2,0.9 -2,2 v 5 H 3.33 L 4,19 H 5 L 5.67,17 H 18.34 L 19,19 h 1 l 0.67,-2 H 22 v -5 c 0,-1.1 -0.9,-2 -2,-2 z m -9,0 H 6 V 7 h 5 z m 7,0 H 13 V 7 h 5 z"
       id="path28141"
       transform="matrix(0.264583,0,0,0.264583,10.3188,1099.92)" />
  </g>
</svg>
