<?xml version="1.0" encoding="UTF-8" standalone="no"?>
<!-- Created with Inkscape (http://www.inkscape.org/) -->

<svg
   id="svg1100"
   version="1.1"
   viewBox="0 0 4.7624941 5.0270772"
   height="5.0270772mm"
   width="4.7624941mm"
   xmlns="http://www.w3.org/2000/svg"
   xmlns:svg="http://www.w3.org/2000/svg">
  <defs
     id="defs1097" />
  <g
     id="New_Layer_1652809127.8596344"
     style="display:inline"
     transform="translate(-41.261749,-1120.0992)">
    <path
       fill="#323232"
       d="M 15,11 V 5 L 12,2 9,5 V 7 H 3 V 21 H 21 V 11 Z M 7,19 H 5 V 17 H 7 Z M 7,15 H 5 V 13 H 7 Z M 7,11 H 5 V 9 h 2 z m 6,8 h -2 v -2 h 2 z m 0,-4 h -2 v -2 h 2 z m 0,-4 H 11 V 9 h 2 z M 13,7 H 11 V 5 h 2 z m 6,12 h -2 v -2 h 2 z m 0,-4 h -2 v -2 h 2 z"
       id="path28152"
       transform="matrix(0.264583,0,0,0.264583,40.468,1119.57)" />
  </g>
</svg>
