<?xml version="1.0" encoding="UTF-8" standalone="no"?>
<!-- Created with Inkscape (http://www.inkscape.org/) -->

<svg
   id="svg1100"
   version="1.1"
   viewBox="0 0 3.7041619 5.2916598"
   height="5.2916598mm"
   width="3.7041619mm"
   xmlns="http://www.w3.org/2000/svg"
   xmlns:svg="http://www.w3.org/2000/svg">
  <defs
     id="defs1097" />
  <g
     id="New_Layer_1652809127.860178"
     style="display:inline"
     transform="translate(-119.98291,-1129.8692)">
    <path
       fill="#323232"
       d="M 17,6 H 15 V 3 C 15,2.45 14.55,2 14,2 H 10 C 9.45,2 9,2.45 9,3 V 6 H 7 C 5.9,6 5,6.9 5,8 v 11 c 0,1.1 0.9,2 2,2 0,0.55 0.45,1 1,1 0.55,0 1,-0.45 1,-1 h 6 c 0,0.55 0.45,1 1,1 0.55,0 1,-0.45 1,-1 1.1,0 2,-0.9 2,-2 V 8 C 19,6.9 18.1,6 17,6 Z M 9.5,18 H 8 V 9 h 1.5 z m 3.25,0 h -1.5 V 9 h 1.5 z M 13.5,6 h -3 V 3.5 h 3 z M 16,18 H 14.5 V 9 H 16 Z"
       id="path28163"
       transform="matrix(0.264583,0,0,0.264583,118.66,1129.34)" />
  </g>
</svg>
