<?xml version="1.0" encoding="UTF-8" standalone="no"?>
<!-- Created with Inkscape (http://www.inkscape.org/) -->

<svg
   id="svg1100"
   version="1.1"
   viewBox="0 0 3.7041619 4.7624941"
   height="4.7624941mm"
   width="3.7041619mm"
   xmlns="http://www.w3.org/2000/svg"
   xmlns:svg="http://www.w3.org/2000/svg">
  <defs
     id="defs1097" />
  <g
     id="New_Layer_1652806998.1820626"
     style="display:inline"
     transform="translate(-42.597915,-88.649949)">
    <path
       fill="#323232"
       d="m 6,19 c 0,1.1 0.9,2 2,2 h 8 c 1.1,0 2,-0.9 2,-2 V 7 H 6 Z m 2.46,-7.12 1.41,-1.41 2.13,2.12 2.12,-2.12 1.41,1.41 -2.12,2.12 2.12,2.12 -1.41,1.41 L 12,15.41 9.88,17.53 8.47,16.12 10.59,14 Z M 15.5,4 14.5,3 h -5 l -1,1 H 5 V 6 H 19 V 4 Z"
       id="path2069"
       transform="matrix(0.264583,0,0,0.264583,41.275,87.8562)" />
  </g>
</svg>
