<?xml version="1.0" encoding="UTF-8" standalone="no"?>
<!-- Created with Inkscape (http://www.inkscape.org/) -->

<svg
   id="svg1100"
   version="1.1"
   viewBox="0 0 5.2916598 3.1749959"
   height="3.1749959mm"
   width="5.2916598mm"
   xmlns="http://www.w3.org/2000/svg"
   xmlns:svg="http://www.w3.org/2000/svg">
  <defs
     id="defs1097" />
  <g
     id="New_Layer_1652809127.8607323"
     style="display:inline"
     transform="translate(-128.75017,-1101.5075)">
    <path
       fill="#323232"
       d="M 19.5,6 C 18.19,6 17.13,7.01 17.02,8.3 15.14,7.8 14.18,6.5 12,6.5 9.81,6.5 8.86,7.8 6.98,8.3 6.87,7.02 5.81,6 4.5,6 A 2.5,2.5 0 0 0 2,8.5 V 9 c 0,6 3.6,7.81 6.52,7.98 A 6.48,6.48 0 0 0 12,18 c 1.28,0 2.47,-0.38 3.48,-1.02 C 18.4,16.81 22,15 22,9 V 8.5 A 2.5,2.5 0 0 0 19.5,6 Z M 3.5,9 V 8.5 c 0,-0.55 0.45,-1 1,-1 0.55,0 1,0.45 1,1 v 3 c 0,1.28 0.38,2.47 1.01,3.48 C 4.99,14.27 3.5,12.65 3.5,9 Z m 17,0 c 0,3.65 -1.49,5.27 -3.01,5.98 0.64,-1.01 1.01,-2.2 1.01,-3.48 v -3 c 0,-0.55 0.45,-1 1,-1 0.55,0 1,0.45 1,1 z m -9.81,1.48 C 10.25,10.74 9.73,11.04 9,11.24 V 10.2 C 9.48,10.03 9.84,9.82 10.18,9.62 10.72,9.3 11.23,9 12,9 c 0.77,0 1.27,0.3 1.8,0.62 0.34,0.2 0.71,0.42 1.2,0.59 v 1.04 C 14.25,11.04 13.74,10.74 13.29,10.47 12.83,10.2 12.49,10 12,10 c -0.49,0 -0.84,0.2 -1.31,0.48 z"
       id="path28174"
       transform="matrix(0.264583,0,0,0.264583,128.221,1099.92)" />
  </g>
</svg>
