<?xml version="1.0" encoding="UTF-8" standalone="no"?>
<!-- Created with Inkscape (http://www.inkscape.org/) -->

<svg
   id="svg1100"
   version="1.1"
   viewBox="0 0 5.2916598 5.2916598"
   height="5.2916598mm"
   width="5.2916598mm"
   xmlns="http://www.w3.org/2000/svg"
   xmlns:svg="http://www.w3.org/2000/svg">
  <defs
     id="defs1097" />
  <g
     id="New_Layer_1652809127.8623388"
     style="display:inline"
     transform="translate(-40.997166,-1100.4492)">
    <path
       fill="#323232"
       d="M 11.99,2 C 6.47,2 2,6.48 2,12 2,17.52 6.47,22 11.99,22 17.52,22 22,17.52 22,12 22,6.48 17.52,2 11.99,2 Z M 12,20 C 7.58,20 4,16.42 4,12 4,7.58 7.58,4 12,4 c 4.42,0 8,3.58 8,8 0,4.42 -3.58,8 -8,8 z m 3.5,-9 C 16.33,11 17,10.33 17,9.5 17,8.67 16.33,8 15.5,8 14.67,8 14,8.67 14,9.5 c 0,0.83 0.67,1.5 1.5,1.5 z m -7,0 C 9.33,11 10,10.33 10,9.5 10,8.67 9.33,8 8.5,8 7.67,8 7,8.67 7,9.5 7,10.33 7.67,11 8.5,11 Z M 12,14 C 9.67,14 7.69,15.46 6.89,17.5 H 17.11 C 16.31,15.46 14.33,14 12,14 Z"
       id="path28207"
       transform="matrix(0.264583,0,0,0.264583,40.468,1099.92)" />
  </g>
</svg>
