<?xml version="1.0" encoding="UTF-8" standalone="no"?>
<!-- Created with Inkscape (http://www.inkscape.org/) -->

<svg
   id="svg1100"
   version="1.1"
   viewBox="0 0 5.1223269 5.2916598"
   height="5.2916598mm"
   width="5.1223269mm"
   xmlns="http://www.w3.org/2000/svg"
   xmlns:svg="http://www.w3.org/2000/svg">
  <defs
     id="defs1097" />
  <g
     id="New_Layer_1652809127.8628774"
     style="display:inline"
     transform="translate(-99.819383,-1110.1718)">
    <path
       fill="#323232"
       d="M 11.1,12.08 C 8.77,7.57 10.6,3.6 11.63,2.01 6.27,2.2 1.98,6.59 1.98,12 1.98,12.14 2,12.28 2,12.42 2.62,12.15 3.29,12 4,12 c 1.66,0 3.18,0.83 4.1,2.15 A 4.01,4.01 0 0 1 11,18 c 0,1.52 -0.87,2.83 -2.12,3.51 0.98,0.32 2.03,0.5 3.11,0.5 3.5,0 6.58,-1.8 8.37,-4.52 C 18,17.72 13.38,16.52 11.1,12.08 Z"
       id="path28218"
       transform="matrix(0.264583,0,0,0.264583,99.5548,1109.64)" />
    <path
       fill="#323232"
       d="M 7,16 H 6.82 C 6.4,14.84 5.3,14 4,14 c -1.66,0 -3,1.34 -3,3 0,1.66 1.34,3 3,3 H 7 C 8.1,20 9,19.1 9,18 9,16.9 8.1,16 7,16 Z"
       id="path28220"
       transform="matrix(0.264583,0,0,0.264583,99.5548,1109.64)" />
  </g>
</svg>
