<?xml version="1.0" encoding="UTF-8" standalone="no"?>
<!-- Created with Inkscape (http://www.inkscape.org/) -->

<svg
   id="svg1100"
   version="1.1"
   viewBox="0 0 5.2387433 5.4530558"
   height="5.4530559mm"
   width="5.2387433mm"
   xmlns="http://www.w3.org/2000/svg"
   xmlns:svg="http://www.w3.org/2000/svg">
  <defs
     id="defs1097" />
  <g
     id="New_Layer_1652809127.8638718"
     style="display:inline"
     transform="translate(-70.39237,-1110.0892)">
    <path
       fill="#323232"
       d="m 12.75,9 v 0.92 l 1.75,1.75 V 9 H 16 v 4.17 l 3,3 V 8 C 19,6.9 18.1,6 17,6 H 15 V 3 C 15,2.45 14.55,2 14,2 H 10 C 9.45,2 9,2.45 9,3 V 6 H 8.83 l 3,3 z M 10.5,3.5 h 3 V 6 h -3 z M 21.19,21.19 2.81,2.81 1.39,4.22 5.02,7.85 C 5.02,7.9 5,7.95 5,8 v 11 c 0,1.1 0.9,2 2,2 0,0.55 0.45,1 1,1 0.55,0 1,-0.45 1,-1 h 6 c 0,0.55 0.45,1 1,1 0.55,0 1,-0.45 1,-1 0.34,0 0.65,-0.09 0.93,-0.24 l 1.85,1.85 z M 8,18 v -7.17 l 1.5,1.5 V 18 Z m 4.75,0 h -1.5 v -3.92 l 1.5,1.5 z"
       id="path28232"
       transform="matrix(0.264583,0,0,0.264583,70.0246,1109.56)" />
  </g>
</svg>
