<?xml version="1.0" encoding="UTF-8" standalone="no"?>
<!-- Created with Inkscape (http://www.inkscape.org/) -->

<svg
   id="svg1100"
   version="1.1"
   viewBox="0 0 5.275785 5.1593685"
   height="5.1593685mm"
   width="5.275785mm"
   xmlns="http://www.w3.org/2000/svg"
   xmlns:svg="http://www.w3.org/2000/svg">
  <defs
     id="defs1097" />
  <g
     id="New_Layer_1652809127.864944"
     style="display:inline"
     transform="translate(-41.005103,-1110.2415)">
    <path
       fill="#323232"
       d="M 7.58,4.08 6.15,2.65 C 3.75,4.48 2.17,7.3 2.03,10.5 h 2 A 8.445,8.445 0 0 1 7.58,4.08 Z m 12.39,6.42 h 2 C 21.82,7.3 20.24,4.48 17.85,2.65 l -1.42,1.43 a 8.495,8.495 0 0 1 3.54,6.42 z M 18,11 C 18,7.93 16.36,5.36 13.5,4.68 V 4 C 13.5,3.17 12.83,2.5 12,2.5 11.17,2.5 10.5,3.17 10.5,4 V 4.68 C 7.63,5.36 6,7.92 6,11 v 5 l -2,2 v 1 h 16 v -1 l -2,-2 z m -6,11 c 0.14,0 0.27,-0.01 0.4,-0.04 0.65,-0.14 1.18,-0.58 1.44,-1.18 0.1,-0.24 0.15,-0.5 0.15,-0.78 h -4 c 0.01,1.1 0.9,2 2.01,2 z"
       id="path28254"
       transform="matrix(0.264583,0,0,0.264583,40.468,1109.58)" />
  </g>
</svg>
