<?xml version="1.0" encoding="UTF-8" standalone="no"?>
<!-- Created with Inkscape (http://www.inkscape.org/) -->

<svg
   id="svg1100"
   version="1.1"
   viewBox="0 0 4.2333279 5.1593685"
   height="5.1593685mm"
   width="4.2333279mm"
   xmlns="http://www.w3.org/2000/svg"
   xmlns:svg="http://www.w3.org/2000/svg">
  <defs
     id="defs1097" />
  <g
     id="New_Layer_1652809127.8654835"
     style="display:inline"
     transform="translate(-11.377132,-1129.9415)">
    <path
       fill="#323232"
       d="m 12,22 c 1.1,0 2,-0.9 2,-2 h -4 c 0,1.1 0.9,2 2,2 z m 6,-6 V 11 C 18,7.93 16.37,5.36 13.5,4.68 V 4 C 13.5,3.17 12.83,2.5 12,2.5 11.17,2.5 10.5,3.17 10.5,4 V 4.68 C 7.64,5.36 6,7.92 6,11 v 5 l -2,2 v 1 h 16 v -1 z m -2,1 H 8 v -6 c 0,-2.48 1.51,-4.5 4,-4.5 2.49,0 4,2.02 4,4.5 z"
       id="path28265"
       transform="matrix(0.264583,0,0,0.264583,10.3188,1129.28)" />
  </g>
</svg>
