<?xml version="1.0" encoding="UTF-8" standalone="no"?>
<!-- Created with Inkscape (http://www.inkscape.org/) -->

<svg
   id="svg1100"
   version="1.1"
   viewBox="0 0 4.497911 5.1593685"
   height="5.1593685mm"
   width="4.497911mm"
   xmlns="http://www.w3.org/2000/svg"
   xmlns:svg="http://www.w3.org/2000/svg">
  <defs
     id="defs1097" />
  <g
     id="New_Layer_1652809127.8660119"
     style="display:inline"
     transform="translate(-90.341932,-1120.0315)">
    <path
       fill="#323232"
       d="M 20,18.69 7.84,6.14 5.27,3.49 4,4.76 6.8,7.56 V 7.57 C 6.28,8.56 6,9.73 6,10.99 v 5 l -2,2 v 1 h 13.73 l 2,2 L 21,19.72 Z M 12,22 c 1.11,0 2,-0.89 2,-2 h -4 c 0,1.11 0.89,2 2,2 z m 6,-7.32 V 11 C 18,7.92 16.36,5.36 13.5,4.68 V 4 C 13.5,3.17 12.83,2.5 12,2.5 11.17,2.5 10.5,3.17 10.5,4 V 4.68 C 10.35,4.71 10.21,4.76 10.08,4.8 9.98,4.83 9.88,4.87 9.78,4.91 H 9.77 c -0.01,0 -0.01,0 -0.02,0.01 -0.23,0.09 -0.46,0.2 -0.68,0.31 0,0 -0.01,0 -0.01,0.01 z"
       id="path28276"
       transform="matrix(0.264583,0,0,0.264583,89.2836,1119.37)" />
  </g>
</svg>
