<?xml version="1.0" encoding="UTF-8" standalone="no"?>
<!-- Created with Inkscape (http://www.inkscape.org/) -->

<svg
   id="svg1100"
   version="1.1"
   viewBox="0 0 4.2333279 5.1593685"
   height="5.1593685mm"
   width="4.2333279mm"
   xmlns="http://www.w3.org/2000/svg"
   xmlns:svg="http://www.w3.org/2000/svg">
  <defs
     id="defs1097" />
  <g
     id="New_Layer_1652809127.8665524"
     style="display:inline"
     transform="translate(-1.0583334,-1129.9415)">
    <path
       fill="#323232"
       d="m 12,22 c 1.1,0 2,-0.9 2,-2 h -4 a 2,2 0 0 0 2,2 z m 6,-6 V 11 C 18,7.93 16.36,5.36 13.5,4.68 V 4 C 13.5,3.17 12.83,2.5 12,2.5 11.17,2.5 10.5,3.17 10.5,4 V 4.68 C 7.63,5.36 6,7.93 6,11 v 5 l -2,2 v 1 h 16 v -1 z m -3.5,-6.2 -2.8,3.4 h 2.8 V 15 h -5 V 13.2 L 12.3,9.8 H 9.5 V 8 h 5 z"
       id="path28287"
       transform="matrix(0.264583,0,0,0.264583,1.4e-6,1129.28)" />
  </g>
</svg>
