<?xml version="1.0" encoding="UTF-8" standalone="no"?>
<!-- Created with Inkscape (http://www.inkscape.org/) -->

<svg
   id="svg1100"
   version="1.1"
   viewBox="0 0 3.968745 5.2916598"
   height="5.2916598mm"
   width="3.968745mm"
   xmlns="http://www.w3.org/2000/svg"
   xmlns:svg="http://www.w3.org/2000/svg">
  <defs
     id="defs1097" />
  <g
     id="New_Layer_1652809127.867086"
     style="display:inline"
     transform="translate(-71.027415,-1129.8692)">
    <path
       fill="#323232"
       d="m 17,22 c 1.66,0 3,-1.34 3,-3 0,-1.66 -1.34,-3 -3,-3 -1.3,0 -2.4,0.84 -2.82,2 H 9.14 l 1.99,-3.06 a 6.36,6.36 0 0 0 1.74,0 l 1.02,1.57 c 0.42,-0.53 0.96,-0.95 1.6,-1.21 l -0.6,-0.93 A 6.992,6.992 0 0 0 19,8 H 5 c 0,2.84 1.69,5.27 4.12,6.37 l -3.95,6.08 a 1,1 0 0 0 0.29,1.38 1,1 0 0 0 1.38,-0.29 l 1,-1.55 h 6.34 C 14.6,21.16 15.7,22 17,22 Z m 0,-4 c 0.55,0 1,0.45 1,1 0,0.55 -0.45,1 -1,1 -0.55,0 -1,-0.45 -1,-1 0,-0.55 0.45,-1 1,-1 z M 9.41,7 h 1 C 10.56,5.85 10.64,5.36 9.52,4.04 9.1,3.54 8.84,3.27 9.06,2 H 8.07 C 7.86,3.11 8.1,4.05 8.96,4.96 9.18,5.2 9.75,5.63 9.41,7 Z m 2.48,0 h 1 C 13.04,5.85 13.12,5.36 12,4.04 11.58,3.54 11.32,3.26 11.54,2 h -0.99 c -0.21,1.11 0.03,2.05 0.89,2.96 0.23,0.24 0.8,0.67 0.45,2.04 z m 2.52,0 h 1 C 15.56,5.85 15.64,5.36 14.52,4.04 14.1,3.54 13.84,3.27 14.06,2 h -0.99 c -0.21,1.11 0.03,2.05 0.89,2.96 0.22,0.24 0.79,0.67 0.45,2.04 z"
       id="path28298"
       transform="matrix(0.264583,0,0,0.264583,69.7045,1129.34)" />
  </g>
</svg>
