<?xml version="1.0" encoding="UTF-8" standalone="no"?>
<!-- Created with Inkscape (http://www.inkscape.org/) -->

<svg
   id="svg1100"
   version="1.1"
   viewBox="0 0 4.7624941 4.7624941"
   height="4.7624941mm"
   width="4.7624941mm"
   xmlns="http://www.w3.org/2000/svg"
   xmlns:svg="http://www.w3.org/2000/svg">
  <defs
     id="defs1097" />
  <g
     id="New_Layer_1652809127.8676286"
     style="display:inline"
     transform="translate(-21.424649,-1120.2237)">
    <path
       fill="#323232"
       d="m 3,5 v 6 H 8 L 7,7 11,8 V 3 H 5 C 3.9,3 3,3.9 3,5 Z m 5,8 H 3 v 6 c 0,1.1 0.9,2 2,2 h 6 v -5 l -4,1 z m 9,4 -4,-1 v 5 h 6 c 1.1,0 2,-0.9 2,-2 V 13 H 16 Z M 19,3 h -6 v 5 l 4,-1 -1,4 h 5 V 5 C 21,3.9 20.1,3 19,3 Z"
       id="path28309"
       transform="matrix(0.264583,0,0,0.264583,20.6309,1119.43)" />
  </g>
</svg>
