<?xml version="1.0" encoding="UTF-8" standalone="no"?>
<!-- Created with Inkscape (http://www.inkscape.org/) -->

<svg
   id="svg1100"
   version="1.1"
   viewBox="0 0 5.2916598 4.7624941"
   height="4.7624941mm"
   width="5.2916598mm"
   xmlns="http://www.w3.org/2000/svg"
   xmlns:svg="http://www.w3.org/2000/svg">
  <defs
     id="defs1097" />
  <g
     id="New_Layer_1652809127.868169"
     style="display:inline"
     transform="translate(-80.155566,-1090.9892)">
    <path
       fill="#323232"
       d="M 20,4 H 16.83 L 15,2 H 9 L 7.17,4 H 4 C 2.9,4 2,4.9 2,6 v 12 c 0,1.1 0.9,2 2,2 h 16 c 1.1,0 2,-0.9 2,-2 V 6 C 22,4.9 21.1,4 20,4 Z m -8,3 c 1.63,0 3.06,0.79 3.98,2 H 12 c -1.66,0 -3,1.34 -3,3 0,0.35 0.07,0.69 0.18,1 H 7.1 A 5.002,5.002 0 0 1 12,7 Z m 0,10 C 10.37,17 8.94,16.21 8.02,15 H 12 c 1.66,0 3,-1.34 3,-3 0,-0.35 -0.07,-0.69 -0.18,-1 H 16.9 A 5.002,5.002 0 0 1 12,17 Z"
       id="path28320"
       transform="matrix(0.264583,0,0,0.264583,79.6264,1090.46)" />
  </g>
</svg>
