<?xml version="1.0" encoding="UTF-8" standalone="no"?>
<!-- Created with Inkscape (http://www.inkscape.org/) -->

<svg
   id="svg1100"
   version="1.1"
   viewBox="0 0 5.8208261 3.7041619"
   height="3.7041619mm"
   width="5.8208261mm"
   xmlns="http://www.w3.org/2000/svg"
   xmlns:svg="http://www.w3.org/2000/svg">
  <defs
     id="defs1097" />
  <g
     id="New_Layer_1652809127.8707178"
     style="display:inline"
     transform="translate(-89.680483,-1081.7329)">
    <path
       fill="#323232"
       d="M 16.5,13 C 15.3,13 13.43,13.34 12,14 10.57,13.33 8.7,13 7.5,13 5.33,13 1,14.08 1,16.25 V 19 H 23 V 16.25 C 23,14.08 18.67,13 16.5,13 Z m -4,4.5 h -10 v -1.25 c 0,-0.54 2.56,-1.75 5,-1.75 2.44,0 5,1.21 5,1.75 z m 9,0 H 14 v -1.25 c 0,-0.46 -0.2,-0.86 -0.52,-1.22 0.88,-0.3 1.96,-0.53 3.02,-0.53 2.44,0 5,1.21 5,1.75 z M 7.5,12 C 9.43,12 11,10.43 11,8.5 11,6.57 9.43,5 7.5,5 5.57,5 4,6.57 4,8.5 4,10.43 5.57,12 7.5,12 Z m 0,-5.5 c 1.1,0 2,0.9 2,2 0,1.1 -0.9,2 -2,2 -1.1,0 -2,-0.9 -2,-2 0,-1.1 0.9,-2 2,-2 z m 9,5.5 C 18.43,12 20,10.43 20,8.5 20,6.57 18.43,5 16.5,5 14.57,5 13,6.57 13,8.5 c 0,1.93 1.57,3.5 3.5,3.5 z m 0,-5.5 c 1.1,0 2,0.9 2,2 0,1.1 -0.9,2 -2,2 -1.1,0 -2,-0.9 -2,-2 0,-1.1 0.9,-2 2,-2 z"
       id="path28359"
       transform="matrix(0.264583,0,0,0.264583,89.4159,1080.41)" />
  </g>
</svg>
