<?xml version="1.0" encoding="UTF-8" standalone="no"?>
<!-- Created with Inkscape (http://www.inkscape.org/) -->

<svg
   id="svg1100"
   version="1.1"
   viewBox="0 0 5.8208261 4.2333278"
   height="4.2333279mm"
   width="5.8208261mm"
   xmlns="http://www.w3.org/2000/svg"
   xmlns:svg="http://www.w3.org/2000/svg">
  <defs
     id="defs1097" />
  <g
     id="New_Layer_1652809127.87178"
     style="display:inline"
     transform="translate(-50.522183,-1081.4683)">
    <path
       fill="#323232"
       d="m 15,12 c 2.21,0 4,-1.79 4,-4 0,-2.21 -1.79,-4 -4,-4 -2.21,0 -4,1.79 -4,4 0,2.21 1.79,4 4,4 z M 6,10 V 7 H 4 v 3 H 1 v 2 h 3 v 3 h 2 v -3 h 3 v -2 z m 9,4 c -2.67,0 -8,1.34 -8,4 v 2 h 16 v -2 c 0,-2.66 -5.33,-4 -8,-4 z"
       id="path28381-1"
       transform="matrix(0.264583,0,0,0.264583,50.2576,1080.41)" />
  </g>
</svg>
