<?xml version="1.0" encoding="UTF-8" standalone="no"?>
<!-- Created with Inkscape (http://www.inkscape.org/) -->

<svg
   id="svg1100"
   version="1.1"
   viewBox="0 0 5.8208261 4.2333278"
   height="4.2333279mm"
   width="5.8208261mm"
   xmlns="http://www.w3.org/2000/svg"
   xmlns:svg="http://www.w3.org/2000/svg">
  <defs
     id="defs1097" />
  <g
     id="New_Layer_1652809127.8723037"
     style="display:inline"
     transform="translate(-60.311783,-1081.4683)">
    <path
       fill="#323232"
       d="M 13,8 C 13,5.79 11.21,4 9,4 6.79,4 5,5.79 5,8 c 0,2.21 1.79,4 4,4 2.21,0 4,-1.79 4,-4 z M 11,8 C 11,9.1 10.1,10 9,10 7.9,10 7,9.1 7,8 7,6.9 7.9,6 9,6 c 1.1,0 2,0.9 2,2 z M 1,18 v 2 h 16 v -2 c 0,-2.66 -5.33,-4 -8,-4 -2.67,0 -8,1.34 -8,4 z m 2,0 c 0.2,-0.71 3.3,-2 6,-2 2.69,0 5.78,1.28 6,2 z m 17,-3 v -3 h 3 V 10 H 20 V 7 h -2 v 3 h -3 v 2 h 3 v 3 z"
       id="path28392"
       transform="matrix(0.264583,0,0,0.264583,60.0472,1080.41)" />
  </g>
</svg>
