<?xml version="1.0" encoding="UTF-8" standalone="no"?>
<!-- Created with Inkscape (http://www.inkscape.org/) -->

<svg
   id="svg1100"
   version="1.1"
   viewBox="0 0 4.2317004 4.7624941"
   height="4.7624941mm"
   width="4.2317004mm"
   xmlns="http://www.w3.org/2000/svg"
   xmlns:svg="http://www.w3.org/2000/svg">
  <defs
     id="defs1097" />
  <g
     id="New_Layer_1652809127.8760633"
     style="display:inline"
     transform="translate(-51.316732,-1130.1337)">
    <path
       fill="#323232"
       d="m 13,8.57 a 1.43,1.43 0 1 0 0,2.86 1.43,1.43 0 0 0 0,-2.86 z"
       id="path28469"
       transform="matrix(0.264583,0,0,0.264583,50.2584,1129.34)" />
    <path
       fill="#323232"
       d="M 13,3 C 9.25,3 6.2,5.94 6.02,9.64 L 4.1,12.2 A 0.5,0.5 0 0 0 4.5,13 H 6 v 3 c 0,1.1 0.9,2 2,2 h 1 v 3 h 7 V 16.32 A 6.999,6.999 0 0 0 13,3 Z m 3,7 c 0,0.13 -0.01,0.26 -0.02,0.39 l 0.83,0.66 c 0.08,0.06 0.1,0.16 0.05,0.25 l -0.8,1.39 c -0.05,0.09 -0.16,0.12 -0.24,0.09 l -0.99,-0.4 c -0.21,0.16 -0.43,0.29 -0.67,0.39 L 14,13.83 C 13.99,13.93 13.9,14 13.8,14 H 12.2 C 12.1,14 12.02,13.93 12,13.83 l -0.15,-1.06 c -0.25,-0.1 -0.47,-0.23 -0.68,-0.39 l -0.99,0.4 c -0.09,0.03 -0.2,0 -0.25,-0.09 L 9.13,11.3 a 0.19,0.19 0 0 1 0.05,-0.25 l 0.84,-0.66 C 10.01,10.26 10,10.13 10,10 10,9.87 10.02,9.73 10.04,9.61 L 9.19,8.95 C 9.11,8.89 9.09,8.79 9.14,8.69 L 9.94,7.31 C 9.99,7.22 10.09,7.19 10.18,7.22 l 1,0.4 c 0.2,-0.15 0.43,-0.29 0.67,-0.39 L 12,6.17 C 12.02,6.07 12.1,6 12.2,6 h 1.6 c 0.1,0 0.18,0.07 0.2,0.17 l 0.15,1.06 c 0.24,0.1 0.46,0.23 0.67,0.39 l 1,-0.4 c 0.09,-0.03 0.2,0 0.24,0.09 l 0.8,1.38 A 0.2,0.2 0 0 1 16.81,8.95 L 15.96,9.61 C 15.99,9.73 16,9.86 16,10 Z"
       id="path28471"
       transform="matrix(0.264583,0,0,0.264583,50.2584,1129.34)" />
  </g>
</svg>
