<?xml version="1.0" encoding="UTF-8" standalone="no"?>
<!-- Created with Inkscape (http://www.inkscape.org/) -->

<svg
   id="svg1100"
   version="1.1"
   viewBox="0 0 5.2916598 5.2916598"
   height="5.2916598mm"
   width="5.2916598mm"
   xmlns="http://www.w3.org/2000/svg"
   xmlns:svg="http://www.w3.org/2000/svg">
  <defs
     id="defs1097" />
  <g
     id="New_Layer_1652809127.877051"
     style="display:inline"
     transform="translate(-60.576366,-1100.4492)">
    <path
       fill="#323232"
       d="M 12,2 C 6.48,2 2,6.48 2,12 2,17.52 6.48,22 12,22 17.52,22 22,17.52 22,12 22,6.48 17.52,2 12,2 Z M 11,19.93 C 7.05,19.44 4,16.08 4,12 4,11.38 4.08,10.79 4.21,10.21 L 9,15 v 1 c 0,1.1 0.9,2 2,2 z m 6.9,-2.54 C 17.64,16.58 16.9,16 16,16 h -1 v -3 c 0,-0.55 -0.45,-1 -1,-1 H 8 v -2 h 2 c 0.55,0 1,-0.45 1,-1 V 7 h 2 c 1.1,0 2,-0.9 2,-2 V 4.59 c 2.93,1.19 5,4.06 5,7.41 0,2.08 -0.8,3.97 -2.1,5.39 z"
       id="path28483"
       transform="matrix(0.264583,0,0,0.264583,60.0472,1099.92)" />
  </g>
</svg>
