<?xml version="1.0" encoding="UTF-8" standalone="no"?>
<!-- Created with Inkscape (http://www.inkscape.org/) -->

<svg
   id="svg1100"
   version="1.1"
   viewBox="0 0 5.4530559 5.4504146"
   height="5.4504147mm"
   width="5.4530559mm"
   xmlns="http://www.w3.org/2000/svg"
   xmlns:svg="http://www.w3.org/2000/svg">
  <defs
     id="defs1097" />
  <g
     id="New_Layer_1652809127.8775856"
     style="display:inline"
     transform="translate(-10.76717,-1090.6492)">
    <path
       fill="#323232"
       d="M 11,8.17 6.49,3.66 A 9.91,9.91 0 0 1 12,2 c 5.52,0 10,4.48 10,10 0,2.04 -0.61,3.93 -1.66,5.51 L 18.88,16.05 A 7.842,7.842 0 0 0 20,12 C 20,8.65 17.93,5.78 15,4.59 V 5 c 0,1.1 -0.9,2 -2,2 H 11 Z M 21.19,21.19 19.78,22.6 17.51,20.33 A 9.839,9.839 0 0 1 12,22 C 6.48,22 2,17.52 2,12 2,9.96 2.61,8.07 3.66,6.49 L 1.39,4.22 2.8,2.81 Z M 11,18 C 9.9,18 9,17.1 9,16 V 15 L 4.21,10.21 C 4.08,10.79 4,11.38 4,12 c 0,4.08 3.05,7.44 7,7.93 z"
       id="path28494"
       transform="matrix(0.264583,0,0,0.264583,10.3994,1090.12)" />
  </g>
</svg>
