<?xml version="1.0" encoding="UTF-8" standalone="no"?>
<!-- Created with Inkscape (http://www.inkscape.org/) -->

<svg
   id="svg1100"
   version="1.1"
   viewBox="0 0 5.2916598 5.2916598"
   height="5.2916598mm"
   width="5.2916598mm"
   xmlns="http://www.w3.org/2000/svg"
   xmlns:svg="http://www.w3.org/2000/svg">
  <defs
     id="defs1097" />
  <g
     id="New_Layer_1652809127.8781176"
     style="display:inline"
     transform="translate(-80.155566,-1100.4492)">
    <path
       fill="#323232"
       d="m 12,2 a 10,10 0 1 0 0,20 10,10 0 0 0 0,-20 z m 6,9.8 a 0.9,0.9 0 0 1 -0.1,0.5 l -2.1,4.9 A 1.34,1.34 0 0 1 14.5,18 H 9 A 2,2 0 0 1 7,16 V 11 A 1.28,1.28 0 0 1 7.4,10 L 12,5 12.69,5.69 c 0.182,0.19 0.288,0.438 0.3,0.7 v 0.2 L 12.41,10 H 17 a 1,1 0 0 1 1,1 z"
       id="path28505"
       transform="matrix(0.264583,0,0,0.264583,79.6264,1099.92)" />
  </g>
</svg>
