<?xml version="1.0" encoding="UTF-8" standalone="no"?>
<!-- Created with Inkscape (http://www.inkscape.org/) -->

<svg
   id="svg1100"
   version="1.1"
   viewBox="0 0 5.2916603 5.2916598"
   height="5.2916598mm"
   width="5.2916603mm"
   xmlns="http://www.w3.org/2000/svg"
   xmlns:svg="http://www.w3.org/2000/svg">
  <defs
     id="defs1097" />
  <g
     id="New_Layer_1652809127.8786542"
     style="display:inline"
     transform="translate(-50.786766,-1090.7292)">
    <path
       fill="#323232"
       d="m 16,4 c 0,-1.1 0.9,-2 2,-2 1.1,0 2,0.9 2,2 0,1.1 -0.9,2 -2,2 -1.1,0 -2,-0.9 -2,-2 z m 4.78,3.58 A 6.95,6.95 0 0 0 18,7 C 17.33,7 16.69,7.1 16.08,7.28 16.66,7.83 17,8.6 17,9.43 V 10 h 5 V 9.43 C 22,8.62 21.52,7.9 20.78,7.58 Z M 6,6 C 7.1,6 8,5.1 8,4 8,2.9 7.1,2 6,2 4.9,2 4,2.9 4,4 4,5.1 4.9,6 6,6 Z M 7.92,7.28 C 7.31,7.1 6.67,7 6,7 5.01,7 4.07,7.21 3.22,7.58 A 2.01,2.01 0 0 0 2,9.43 V 10 H 7 V 9.43 C 7,8.6 7.34,7.83 7.92,7.28 Z M 10,4 c 0,-1.1 0.9,-2 2,-2 1.1,0 2,0.9 2,2 0,1.1 -0.9,2 -2,2 -1.1,0 -2,-0.9 -2,-2 z m 6,6 H 8 V 9.43 C 8,8.62 8.48,7.9 9.22,7.58 a 6.95,6.95 0 0 1 5.56,0 2.01,2.01 0 0 1 1.22,1.85 z m -1,6 c 0,-1.1 0.9,-2 2,-2 1.1,0 2,0.9 2,2 0,1.1 -0.9,2 -2,2 -1.1,0 -2,-0.9 -2,-2 z m 6,6 h -8 v -0.57 c 0,-0.81 0.48,-1.53 1.22,-1.85 a 6.95,6.95 0 0 1 5.56,0 2.01,2.01 0 0 1 1.22,1.85 z M 5,16 c 0,-1.1 0.9,-2 2,-2 1.1,0 2,0.9 2,2 0,1.1 -0.9,2 -2,2 -1.1,0 -2,-0.9 -2,-2 z m 6,6 H 3 V 21.43 C 3,20.62 3.48,19.9 4.22,19.58 a 6.95,6.95 0 0 1 5.56,0 2.01,2.01 0 0 1 1.22,1.85 z m 1.75,-9 v -2 h -1.5 v 2 H 9 l 3,3 3,-3 z"
       id="path28516"
       transform="matrix(0.264583,0,0,0.264583,50.2576,1090.2)" />
  </g>
</svg>
