<?xml version="1.0" encoding="UTF-8" standalone="no"?>
<!-- Created with Inkscape (http://www.inkscape.org/) -->

<svg
   id="svg1100"
   version="1.1"
   viewBox="0 0 4.7624941 4.2333278"
   height="4.2333279mm"
   width="4.7624941mm"
   xmlns="http://www.w3.org/2000/svg"
   xmlns:svg="http://www.w3.org/2000/svg">
  <defs
     id="defs1097" />
  <g
     id="New_Layer_1652809127.8813043"
     style="display:inline"
     transform="translate(-51.051349,-1120.4883)">
    <path
       fill="#323232"
       d="m 12,8 a 2,2 0 1 0 0,-4 2,2 0 0 0 0,4 z m 9,8 v -2 c -2.24,0 -4.16,-0.96 -5.6,-2.68 L 14.06,9.72 A 1.98,1.98 0 0 0 12.53,9 H 11.48 C 10.89,9 10.33,9.26 9.95,9.72 l -1.34,1.6 C 7.16,13.04 5.24,14 3,14 v 2 c 2.77,0 5.19,-1.17 7,-3.25 V 15 L 6.12,16.55 C 5.45,16.82 5,17.48 5,18.21 5,19.2 5.8,20 6.79,20 H 9 V 19.5 A 2.5,2.5 0 0 1 11.5,17 h 3 c 0.28,0 0.5,0.22 0.5,0.5 0,0.28 -0.22,0.5 -0.5,0.5 h -3 C 10.67,18 10,18.67 10,19.5 V 20 h 7.21 C 18.2,20 19,19.2 19,18.21 19,17.48 18.55,16.82 17.88,16.55 L 14,15 v -2.25 c 1.81,2.08 4.23,3.25 7,3.25 z"
       id="path28571"
       transform="matrix(0.264583,0,0,0.264583,50.2576,1119.43)" />
  </g>
</svg>
