<?xml version="1.0" encoding="UTF-8" standalone="no"?>
<!-- Created with Inkscape (http://www.inkscape.org/) -->

<svg
   id="svg1100"
   version="1.1"
   viewBox="0 0 5.2916598 5.2916598"
   height="5.2916598mm"
   width="5.2916598mm"
   xmlns="http://www.w3.org/2000/svg"
   xmlns:svg="http://www.w3.org/2000/svg">
  <defs
     id="defs1097" />
  <g
     id="New_Layer_1652809127.8838036"
     style="display:inline"
     transform="translate(-21.160066,-1100.4492)">
    <path
       fill="#323232"
       d="m 15.5,11 a 1.5,1.5 0 1 0 0,-3 1.5,1.5 0 0 0 0,3 z m -7,0 a 1.5,1.5 0 1 0 0,-3 1.5,1.5 0 0 0 0,3 z"
       id="path28610"
       transform="matrix(0.264583,0,0,0.264583,20.6309,1099.92)" />
    <path
       fill="#323232"
       d="M 11.99,2 C 6.47,2 2,6.48 2,12 2,17.52 6.47,22 11.99,22 17.52,22 22,17.52 22,12 22,6.48 17.52,2 11.99,2 Z M 12,20 C 7.58,20 4,16.42 4,12 4,7.58 7.58,4 12,4 c 4.42,0 8,3.58 8,8 0,4.42 -3.58,8 -8,8 z m 0,-4 c -0.73,0 -1.38,-0.18 -1.96,-0.52 -0.12,0.14 -0.86,0.98 -1.01,1.15 a 5.49,5.49 0 0 0 5.95,-0.01 C 14.01,15.53 14.97,16.6 13.97,15.47 13.38,15.82 12.73,16 12,16 Z"
       id="path28612"
       transform="matrix(0.264583,0,0,0.264583,20.6309,1099.92)" />
  </g>
</svg>
