<?xml version="1.0" encoding="UTF-8" standalone="no"?>
<!-- Created with Inkscape (http://www.inkscape.org/) -->

<svg
   id="svg1100"
   version="1.1"
   viewBox="0 0 5.2916598 5.2916598"
   height="5.2916598mm"
   width="5.2916598mm"
   xmlns="http://www.w3.org/2000/svg"
   xmlns:svg="http://www.w3.org/2000/svg">
  <defs
     id="defs1097" />
  <g
     id="New_Layer_1652809127.8847892"
     style="display:inline"
     transform="translate(-109.51017,-1100.4492)">
    <path
       fill="#323232"
       d="m 15.5,11 a 1.5,1.5 0 1 0 0,-3 1.5,1.5 0 0 0 0,3 z m -7,0 a 1.5,1.5 0 1 0 0,-3 1.5,1.5 0 0 0 0,3 z"
       id="path28624"
       transform="matrix(0.264583,0,0,0.264583,108.981,1099.92)" />
    <path
       fill="#323232"
       d="M 11.99,2 C 6.47,2 2,6.48 2,12 2,17.52 6.47,22 11.99,22 17.52,22 22,17.52 22,12 22,6.48 17.52,2 11.99,2 Z M 12,20 C 7.58,20 4,16.42 4,12 4,7.58 7.58,4 12,4 c 4.42,0 8,3.58 8,8 0,4.42 -3.58,8 -8,8 z m 0,-6 c -2.33,0 -4.32,1.45 -5.12,3.5 h 1.67 c 0.69,-1.19 1.97,-2 3.45,-2 1.48,0 2.75,0.81 3.45,2 h 1.67 C 16.32,15.45 14.33,14 12,14 Z"
       id="path28626"
       transform="matrix(0.264583,0,0,0.264583,108.981,1099.92)" />
  </g>
</svg>
