<?xml version="1.0" encoding="UTF-8" standalone="no"?>
<!-- Created with Inkscape (http://www.inkscape.org/) -->

<svg
   id="svg1100"
   version="1.1"
   viewBox="0 0 5.2916598 5.2916598"
   height="5.2916598mm"
   width="5.2916598mm"
   xmlns="http://www.w3.org/2000/svg"
   xmlns:svg="http://www.w3.org/2000/svg">
  <defs
     id="defs1097" />
  <g
     id="New_Layer_1652806998.184565"
     style="display:inline"
     transform="translate(-83.079166,-88.385366)">
    <path
       fill="#323232"
       d="M 11,5.08 V 2 C 6,2.5 2,6.81 2,12 c 0,5.19 4,9.5 9,10 V 18.92 C 8,18.44 5,15.52 5,12 5,8.48 8,5.56 11,5.08 Z M 18.97,11 H 22 C 21.53,6 18,2.47 13,2 V 5.08 C 16,5.51 18.54,8 18.97,11 Z M 13,18.92 V 22 c 5,-0.47 8.53,-4 9,-9 H 18.97 C 18.54,16 16,18.49 13,18.92 Z"
       id="path2157"
       transform="matrix(0.264583,0,0,0.264583,82.55,87.8562)" />
  </g>
</svg>
