<?xml version="1.0" encoding="UTF-8" standalone="no"?>
<!-- Created with Inkscape (http://www.inkscape.org/) -->

<svg
   id="svg1100"
   version="1.1"
   viewBox="0 0 5.556243 5.2916627"
   height="5.2916627mm"
   width="5.5562429mm"
   xmlns="http://www.w3.org/2000/svg"
   xmlns:svg="http://www.w3.org/2000/svg">
  <defs
     id="defs1097" />
  <g
     id="New_Layer_1652809127.8873086"
     style="display:inline"
     transform="translate(-0.396875,-1090.7292)">
    <path
       fill="#323232"
       d="m 21,9 c -1.1,0 -2,-0.9 -2,-2 0,-1.1 2,-4 2,-4 0,0 2,2.9 2,4 0,1.1 -0.9,2 -2,2 z M 17.5,7 c 0,-0.73 0.41,-1.71 0.92,-2.66 A 9.965,9.965 0 0 0 11.99,2 C 6.47,2 2,6.48 2,12 2,17.52 6.47,22 11.99,22 17.52,22 22,17.52 22,12 22,11.45 21.94,10.91 21.86,10.38 A 3.5,3.5 0 0 1 21,10.5 C 19.07,10.5 17.5,8.93 17.5,7 Z m -1.88,0.38 1.06,1.06 -1.06,1.06 1.06,1.06 -1.06,1.06 L 13.5,9.5 Z M 7.32,8.44 8.38,7.38 10.5,9.5 8.38,11.62 7.32,10.56 8.38,9.5 Z M 15.44,17 A 3.98,3.98 0 0 0 12,15 c -1.47,0 -2.75,0.81 -3.44,2 H 6.88 c 0.3,-0.76 0.76,-1.43 1.34,-1.99 L 5.24,13.3 c -0.45,0.26 -1.01,0.28 -1.49,0 a 1.501,1.501 0 0 1 1.5,-2.6 c 0.48,0.28 0.74,0.78 0.74,1.29 l 3.58,2.07 C 10.3,13.7 11.12,13.5 12,13.5 c 2.33,0 4.32,1.45 5.12,3.5 z"
       id="path28664"
       transform="matrix(0.264583,0,0,0.264583,-0.132291,1090.2)" />
  </g>
</svg>
