<?xml version="1.0" encoding="UTF-8" standalone="no"?>
<!-- Created with Inkscape (http://www.inkscape.org/) -->

<svg
   id="svg1100"
   version="1.1"
   viewBox="0 0 4.2333279 3.7041619"
   height="3.7041619mm"
   width="4.2333279mm"
   xmlns="http://www.w3.org/2000/svg"
   xmlns:svg="http://www.w3.org/2000/svg">
  <defs
     id="defs1097" />
  <g
     id="New_Layer_1652809127.8878474"
     style="display:inline"
     transform="translate(-110.03933,-1120.7529)">
    <path
       fill="#323232"
       d="m 20,12 c 0,-1.1 -0.9,-2 -2,-2 V 7 C 18,5.9 17.1,5 16,5 H 8 C 6.9,5 6,5.9 6,7 v 3 c -1.1,0 -2,0.9 -2,2 v 5 H 5.33 L 6,19 h 1 l 0.67,-2 h 8.67 L 17,19 h 1 l 0.67,-2 H 20 Z M 16,10 H 13 V 7 h 3 z M 8,7 h 3 v 3 H 8 Z m -2,5 h 12 v 3 H 6 Z"
       id="path28675"
       transform="matrix(0.264583,0,0,0.264583,108.981,1119.43)" />
  </g>
</svg>
