<?xml version="1.0" encoding="UTF-8" standalone="no"?>
<!-- Created with Inkscape (http://www.inkscape.org/) -->

<svg
   id="svg1100"
   version="1.1"
   viewBox="0 0 5.2916598 3.1773259"
   height="3.177326mm"
   width="5.2916598mm"
   xmlns="http://www.w3.org/2000/svg"
   xmlns:svg="http://www.w3.org/2000/svg">
  <defs
     id="defs1097" />
  <g
     id="New_Layer_1652809127.8883748"
     style="display:inline"
     transform="translate(-0.5291674,-1111.2275)">
    <path
       fill="#323232"
       d="M 11.23,6 C 9.57,6 8.01,6.66 6.87,7.73 6.54,6.73 5.61,6 4.5,6 a 2.5,2.5 0 0 0 0,5 c 0.21,0 0.41,-0.03 0.61,-0.08 -0.05,0.25 -0.09,0.51 -0.1,0.78 a 6.006,6.006 0 0 0 6.68,6.27 c 2.55,-0.28 4.68,-2.26 5.19,-4.77 0.15,-0.71 0.15,-1.4 0.06,-2.06 -0.09,-0.6 0.38,-1.13 0.99,-1.13 H 22 V 6 Z M 4.5,9 C 4.22,9 4,8.78 4,8.5 4,8.22 4.22,8 4.5,8 4.78,8 5,8.22 5,8.5 5,8.78 4.78,9 4.5,9 Z M 11,15 C 9.34,15 8,13.66 8,12 8,10.34 9.34,9 11,9 c 1.66,0 3,1.34 3,3 0,1.66 -1.34,3 -3,3 z"
       id="path28686"
       transform="matrix(0.264583,0,0,0.264583,1.4e-6,1109.64)" />
    <path
       fill="#323232"
       d="m 11,14 a 2,2 0 1 0 0,-4 2,2 0 0 0 0,4 z"
       id="path28688"
       transform="matrix(0.264583,0,0,0.264583,0,1109.64)" />
  </g>
</svg>
