<?xml version="1.0" encoding="UTF-8" standalone="no"?>
<!-- Created with Inkscape (http://www.inkscape.org/) -->

<svg
   id="svg1100"
   version="1.1"
   viewBox="0 0 5.2916651 5.2916612"
   height="5.2916613mm"
   width="5.2916651mm"
   xmlns="http://www.w3.org/2000/svg"
   xmlns:svg="http://www.w3.org/2000/svg">
  <defs
     id="defs1097" />
  <g
     id="New_Layer_1652809127.8893635"
     style="display:inline"
     transform="translate(-40.997163,-1090.7192)">
    <path
       fill="#323232"
       d="M 3.81,6.28 A 9.9,9.9 0 0 0 2,12 c 0,2.13 0.67,4.1 1.81,5.72 C 6.23,16.95 8,14.68 8,12 8,9.32 6.23,7.05 3.81,6.28 Z m 16.38,0 C 17.77,7.05 16,9.32 16,12 c 0,2.68 1.77,4.95 4.19,5.72 A 9.9,9.9 0 0 0 22,12 9.9,9.9 0 0 0 20.19,6.28 Z"
       id="path28700"
       transform="matrix(0.264583,0,0,0.264583,40.468,1090.2)" />
    <path
       fill="#323232"
       d="M 14,12 C 14,8.72 15.97,5.91 18.79,4.67 A 9.952,9.952 0 0 0 12,2 C 9.37,2 6.99,3.02 5.21,4.67 A 8.002,8.002 0 0 1 10,12 c 0,3.28 -1.97,6.09 -4.79,7.33 A 9.952,9.952 0 0 0 12,22 c 2.63,0 5.01,-1.02 6.79,-2.67 A 8.002,8.002 0 0 1 14,12 Z"
       id="path28702-1"
       transform="matrix(0.264583,0,0,0.264583,40.468,1090.19)" />
  </g>
</svg>
