<?xml version="1.0" encoding="UTF-8" standalone="no"?>
<!-- Created with Inkscape (http://www.inkscape.org/) -->

<svg
   id="svg1100"
   version="1.1"
   viewBox="0 0 5.2652016 5.2652015"
   height="5.2652016mm"
   width="5.2652016mm"
   xmlns="http://www.w3.org/2000/svg"
   xmlns:svg="http://www.w3.org/2000/svg">
  <defs
     id="defs1097" />
  <g
     id="New_Layer_1652809127.8903575"
     style="display:inline"
     transform="translate(-60.589595,-1110.1924)">
    <path
       fill="#323232"
       d="m 17.09,11 h 4.86 A 9.951,9.951 0 0 0 20.41,6.6 5.987,5.987 0 0 0 17.09,11 Z M 6.91,11 A 5.987,5.987 0 0 0 3.59,6.6 9.951,9.951 0 0 0 2.05,11 Z m 8.16,0 A 7.994,7.994 0 0 1 19.13,5 9.969,9.969 0 0 0 13,2.05 V 11 Z M 8.93,11 H 11 V 2.05 A 9.943,9.943 0 0 0 4.87,5 7.994,7.994 0 0 1 8.93,11 Z m 6.14,2 H 13 v 8.95 A 9.943,9.943 0 0 0 19.13,19 7.994,7.994 0 0 1 15.07,13 Z M 3.59,17.4 A 6.029,6.029 0 0 0 6.91,13 H 2.05 c 0.16,1.61 0.71,3.11 1.54,4.4 z M 17.09,13 a 5.987,5.987 0 0 0 3.32,4.4 9.951,9.951 0 0 0 1.54,-4.4 z M 8.93,13 A 7.994,7.994 0 0 1 4.87,19 9.969,9.969 0 0 0 11,21.95 V 13 Z"
       id="path28714"
       transform="matrix(0.264583,0,0,0.264583,60.0472,1109.65)" />
  </g>
</svg>
