<?xml version="1.0" encoding="UTF-8" standalone="no"?>
<!-- Created with Inkscape (http://www.inkscape.org/) -->

<svg
   id="svg1100"
   version="1.1"
   viewBox="0 0 5.284369 5.2916598"
   height="5.2916598mm"
   width="5.284369mm"
   xmlns="http://www.w3.org/2000/svg"
   xmlns:svg="http://www.w3.org/2000/svg">
  <defs
     id="defs1097" />
  <g
     id="New_Layer_1652809127.8908992"
     style="display:inline"
     transform="translate(-31.211257,-1110.1792)">
    <path
       fill="#323232"
       d="M 15.05,12.81 6.56,4.32 a 0.996,0.996 0 0 0 -1.41,0 L 2.32,7.15 a 0.996,0.996 0 0 0 0,1.41 l 8.49,8.49 c 0.39,0.39 1.02,0.39 1.41,0 l 2.83,-2.83 a 0.996,0.996 0 0 0 0,-1.41 z m 0.705,3.532 -1.414,1.414 4.242,4.244 1.415,-1.414 -4.243,-4.243 z M 18.5,9 a 3.5,3.5 0 1 0 0,-7 3.5,3.5 0 0 0 0,7 z"
       id="path28725"
       transform="matrix(0.264583,0,0,0.264583,30.6748,1109.65)" />
  </g>
</svg>
