<?xml version="1.0" encoding="UTF-8" standalone="no"?>
<!-- Created with Inkscape (http://www.inkscape.org/) -->

<svg
   id="svg1100"
   version="1.1"
   viewBox="0 0 5.0831919 3.7041626"
   height="3.7041626mm"
   width="5.0831919mm"
   xmlns="http://www.w3.org/2000/svg"
   xmlns:svg="http://www.w3.org/2000/svg">
  <defs
     id="defs1097" />
  <g
     id="New_Layer_1652809127.8914342"
     style="display:inline"
     transform="translate(-109.61446,-1110.9729)">
    <path
       fill="#323232"
       d="M 21.58,16.09 20.49,8.43 A 3.996,3.996 0 0 0 16.53,5 H 7.47 C 5.48,5 3.79,6.46 3.51,8.43 l -1.09,7.66 a 2.545,2.545 0 0 0 4.32,2.16 L 9,16 h 6 l 2.25,2.25 c 0.48,0.48 1.13,0.75 1.8,0.75 1.56,0 2.75,-1.37 2.53,-2.91 z M 11,11 H 9 v 2 H 8 V 11 H 6 V 10 H 8 V 8 h 1 v 2 h 2 z m 4,-1 c -0.55,0 -1,-0.45 -1,-1 0,-0.55 0.45,-1 1,-1 0.55,0 1,0.45 1,1 0,0.55 -0.45,1 -1,1 z m 2,3 c -0.55,0 -1,-0.45 -1,-1 0,-0.55 0.45,-1 1,-1 0.55,0 1,0.45 1,1 0,0.55 -0.45,1 -1,1 z"
       id="path28736"
       transform="matrix(0.264583,0,0,0.264583,108.981,1109.65)" />
  </g>
</svg>
