<?xml version="1.0" encoding="UTF-8" standalone="no"?>
<!-- Created with Inkscape (http://www.inkscape.org/) -->

<svg
   id="svg1100"
   version="1.1"
   viewBox="0 0 4.7573772 4.7585745"
   height="4.7585745mm"
   width="4.7573771mm"
   xmlns="http://www.w3.org/2000/svg"
   xmlns:svg="http://www.w3.org/2000/svg">
  <defs
     id="defs1097" />
  <g
     id="New_Layer_1652809127.8919673"
     style="display:inline"
     transform="translate(-80.422708,-1120.2257)">
    <path
       fill="#323232"
       d="m 3.02,15.62 c -0.08,2.42 0.32,4.34 0.67,4.69 0.35,0.35 2.28,0.76 4.69,0.67 z M 13.08,3.28 C 10.75,3.7 8.29,4.62 6.46,6.46 4.63,8.3 3.7,10.75 3.28,13.08 l 7.63,7.63 c 2.34,-0.41 4.79,-1.34 6.62,-3.18 1.83,-1.84 2.76,-4.29 3.18,-6.62 z M 9.9,15.5 8.5,14.1 14.1,8.5 15.5,9.9 Z M 20.98,8.38 C 21.06,5.96 20.66,4.04 20.31,3.69 19.96,3.34 18.03,2.93 15.62,3.02 Z"
       id="path28747"
       transform="matrix(0.264583,0,0,0.264583,79.6264,1119.43)" />
  </g>
</svg>
