<?xml version="1.0" encoding="UTF-8" standalone="no"?>
<!-- Created with Inkscape (http://www.inkscape.org/) -->

<svg
   id="svg1100"
   version="1.1"
   viewBox="0 0 5.2916598 5.2916598"
   height="5.2916598mm"
   width="5.2916598mm"
   xmlns="http://www.w3.org/2000/svg"
   xmlns:svg="http://www.w3.org/2000/svg">
  <defs
     id="defs1097" />
  <g
     id="New_Layer_1652806998.1851811"
     style="display:inline"
     transform="translate(-103.71617,-88.385366)">
    <path
       fill="#323232"
       d="M 11,9.16 V 2 C 6,2.5 2,6.79 2,12 c 0,5.21 4,9.5 9,10 V 14.84 C 10,14.43 9,13.32 9,12 9,10.68 10,9.57 11,9.16 Z M 14.86,11 H 22 C 21.52,6.25 18,2.47 13,2 v 7.16 c 1,0.3 1.52,0.98 1.86,1.84 z M 13,14.84 V 22 c 5,-0.47 8.52,-4.25 9,-9 H 14.86 C 14.52,13.86 14,14.54 13,14.84 Z"
       id="path2168"
       transform="matrix(0.264583,0,0,0.264583,103.187,87.8562)" />
  </g>
</svg>
