<?xml version="1.0" encoding="UTF-8" standalone="no"?>
<!-- Created with Inkscape (http://www.inkscape.org/) -->

<svg
   id="svg1100"
   version="1.1"
   viewBox="0 0 3.7041619 5.2916598"
   height="5.2916598mm"
   width="3.7041619mm"
   xmlns="http://www.w3.org/2000/svg"
   xmlns:svg="http://www.w3.org/2000/svg">
  <defs
     id="defs1097" />
  <g
     id="New_Layer_1652809127.8925092"
     style="display:inline"
     transform="translate(-110.30391,-1129.8692)">
    <path
       fill="#323232"
       d="m 12,16 c 3.87,0 7,-3.13 7,-7 C 19,5.13 15.87,2 12,2 8.13,2 5,5.13 5,9 c 0,3.87 3.13,7 7,7 z M 12,4 c 2.76,0 5,2.24 5,5 0,2.76 -2.24,5 -5,5 C 9.24,14 7,11.76 7,9 7,6.24 9.24,4 12,4 Z"
       id="path28758"
       transform="matrix(0.264583,0,0,0.264583,108.981,1129.34)" />
    <path
       fill="#323232"
       d="m 10,9 a 1,1 0 1 0 0,-2 1,1 0 0 0 0,2 z m 4,0 a 1,1 0 1 0 0,-2 1,1 0 0 0 0,2 z M 12,7 a 1,1 0 1 0 0,-2 1,1 0 0 0 0,2 z M 7,19 h 2 c 1.1,0 2,0.9 2,2 v 1 h 2 v -1 c 0,-1.1 0.9,-2 2,-2 h 2 V 17 H 7 Z"
       id="path28760"
       transform="matrix(0.264583,0,0,0.264583,108.981,1129.34)" />
  </g>
</svg>
