<?xml version="1.0" encoding="UTF-8" standalone="no"?>
<!-- Created with Inkscape (http://www.inkscape.org/) -->

<svg
   id="svg1100"
   version="1.1"
   viewBox="0 0 3.4323363 6.0615472"
   height="6.0615473mm"
   width="3.4323363mm"
   xmlns="http://www.w3.org/2000/svg"
   xmlns:svg="http://www.w3.org/2000/svg">
  <defs
     id="defs1097" />
  <g
     id="New_Layer_1652809127.8934925"
     style="display:inline"
     transform="translate(-129.67985,-1129.4873)">
    <path
       fill="#323232"
       d="M 14.27,6 C 13.72,6.95 14.05,8.18 15,8.73 15.95,9.28 17.18,8.95 17.73,8 18.28,7.05 17.95,5.82 17,5.27 16.05,4.72 14.82,5.05 14.27,6 Z"
       id="path28772"
       transform="matrix(0.264583,0,0,0.264583,128.222,1129.22)" />
    <path
       fill="#323232"
       d="m 15.84,10.41 -2.6,-1.5 C 10.86,7.53 10.04,4.47 11.42,2.09 l -1.73,-1 C 8.1,3.83 8.6,7.21 10.66,9.4 l -5.15,8.92 1.73,1 1.5,-2.6 1.73,1 -3,5.2 1.73,1 6.29,-10.89 a 5.002,5.002 0 0 1 0.31,5.46 l 1.73,1 c 1.6,-2.75 1.28,-6.58 -1.69,-9.08 z M 12.75,3.8 C 13.47,4.21 14.38,3.97 14.8,3.25 15.21,2.53 14.97,1.62 14.25,1.2 a 1.501,1.501 0 0 0 -1.5,2.6 z"
       id="path28774"
       transform="matrix(0.264583,0,0,0.264583,128.222,1129.22)" />
  </g>
</svg>
