<?xml version="1.0" encoding="UTF-8" standalone="no"?>
<!-- Created with Inkscape (http://www.inkscape.org/) -->

<svg
   id="svg1100"
   version="1.1"
   viewBox="0 0 5.2916598 4.2333278"
   height="4.2333279mm"
   width="5.2916598mm"
   xmlns="http://www.w3.org/2000/svg"
   xmlns:svg="http://www.w3.org/2000/svg">
  <defs
     id="defs1097" />
  <g
     id="New_Layer_1652809127.8944836"
     style="display:inline"
     transform="translate(-89.945066,-1091.2583)">
    <path
       fill="#323232"
       d="m 2,17 v 3 H 4 V 16 H 3 C 2.45,16 2,16.45 2,17 Z M 9,16 H 5 v 4 l 4.69,-0.01 c 0.38,0 0.72,-0.21 0.89,-0.55 l 0.87,-1.9 -1.59,-3.48 z m 12.71,0.29 A 0.997,0.997 0 0 0 21,16 h -1 v 4 h 2 v -3 c 0,-0.28 -0.11,-0.53 -0.29,-0.71 z M 13.6,12.84 17.65,4 H 14.3 L 12.54,7.97 12.05,9.07 12,9.21 9.7,4 H 6.35 l 4.05,8.84 1.52,3.32 0.08,0.18 1.42,3.1 c 0.17,0.34 0.51,0.55 0.89,0.55 L 19,20 v -4 h -4 z"
       id="path28786"
       transform="matrix(0.264583,0,0,0.264583,89.4159,1090.2)" />
  </g>
</svg>
