<?xml version="1.0" encoding="UTF-8" standalone="no"?>
<!-- Created with Inkscape (http://www.inkscape.org/) -->

<svg
   id="svg1100"
   version="1.1"
   viewBox="0 0 6.3367629 5.7202844"
   height="5.7202845mm"
   width="6.3367629mm"
   xmlns="http://www.w3.org/2000/svg"
   xmlns:svg="http://www.w3.org/2000/svg">
  <defs
     id="defs1097">
    <clipPath
       id="a-170">
      <path
         fill="#ffffff"
         d="M 0,0 H 24 V 24 H 0 Z"
         id="path28803-4" />
    </clipPath>
  </defs>
  <g
     id="New_Layer_1652809127.8950071"
     style="display:inline"
     transform="translate(-20.637529,-1080.7205)">
    <g
       clip-path="url(#a-170)"
       id="g28801"
       transform="matrix(0.264583,0,0,0.264583,20.6243,1080.62)">
      <path
         fill="#323232"
         d="m 16.5,4.38 a 2,2 0 1 0 0,-4 2,2 0 0 0 0,4 z m 7.5,7.5 V 7.18 L 18.95,5.04 C 17.98,4.63 16.86,4.98 16.3,5.88 l -1,1.6 C 14.63,8.66 13.39,9.54 11.89,9.8 l 0.06,0.06 c 0.69,0.69 1.52,1.07 2.46,1.17 0.8,-0.42 1.52,-0.98 2.09,-1.64 l 0.6,3 -1.16,1.1 -0.94,0.89 v 7.5 h 2 v -6 l 2.1,-2 1.8,8 H 23 l -2.18,-11 -0.62,-3.1 1.8,0.7 v 3.4 z M 10.29,8.09 c 0.22,0.15 0.47,0.24 0.72,0.29 0.13,0.02 0.25,0.04 0.38,0.04 0.13,0 0.26,-0.01 0.38,-0.04 C 11.9,8.36 12.02,8.32 12.14,8.27 12.38,8.17 12.61,8.03 12.8,7.83 13.29,7.34 13.47,6.66 13.35,6.03 13.28,5.66 13.1,5.29 12.8,5 12.61,4.81 12.38,4.66 12.14,4.56 12.02,4.51 11.9,4.47 11.77,4.45 11.64,4.43 11.52,4.41 11.39,4.41 11.27,4.41 11.16,4.42 11.04,4.44 10.9,4.46 10.76,4.5 10.63,4.55 10.4,4.66 10.17,4.81 9.98,5 9.68,5.29 9.5,5.66 9.43,6.03 c -0.12,0.63 0.06,1.31 0.55,1.8 0.09,0.1 0.2,0.18 0.31,0.26 z"
         id="path28797" />
      <path
         fill="#323232"
         d="m 11.24,10.56 -2,-2 C 9.14,8.46 9.04,8.38 8.93,8.3 A 1.93,1.93 0 0 0 8.21,8.02 C 8.08,7.99 7.96,7.98 7.83,7.98 7.32,7.98 6.81,8.18 6.42,8.57 l -3.34,3.34 c -0.41,0.41 -0.62,0.98 -0.58,1.54 0,0.18 0.04,0.37 0.11,0.55 L 3.68,16.95 0.05,20.58 1.46,22 5.7,17.76 V 15.54 L 7,16.75 v 5.13 h 2 v -6 L 6.88,13.76 9.24,11.4 9.95,12.11 c 1.29,1.26 2.97,2.04 5.03,2.04 l -0.14,-2.07 c -1.5,-0.02 -2.7,-0.62 -3.6,-1.52 z"
         id="path28799" />
    </g>
  </g>
</svg>
