<?xml version="1.0" encoding="UTF-8" standalone="no"?>
<!-- Created with Inkscape (http://www.inkscape.org/) -->

<svg
   id="svg1100"
   version="1.1"
   viewBox="0 0 3.7041619 4.7624941"
   height="4.7624941mm"
   width="3.7041619mm"
   xmlns="http://www.w3.org/2000/svg"
   xmlns:svg="http://www.w3.org/2000/svg">
  <defs
     id="defs1097" />
  <g
     id="New_Layer_1652809127.8955598"
     style="display:inline"
     transform="translate(-100.52841,-1130.1337)">
    <path
       fill="#323232"
       d="m 7,20 c 0,0.55 0.45,1 1,1 h 8 c 0.55,0 1,-0.45 1,-1 V 17 H 7 Z M 18,7 C 17.45,7 17,7.45 17,8 V 5 C 17,3.9 16.1,3 15,3 H 7 C 5.9,3 5,3.9 5,5 v 5.8 c 0,0.13 0.01,0.26 0.04,0.39 l 0.8,4 c 0.09,0.47 0.5,0.8 0.98,0.8 h 10.36 c 0.45,0 0.89,-0.36 0.98,-0.8 l 0.8,-4 C 18.99,11.06 19,10.93 19,10.8 V 8 C 19,7.45 18.55,7 18,7 Z m -3,3 H 7 V 7 h 8 z"
       id="path28819"
       transform="matrix(0.264583,0,0,0.264583,99.2055,1129.34)" />
  </g>
</svg>
