<?xml version="1.0" encoding="UTF-8" standalone="no"?>
<!-- Created with Inkscape (http://www.inkscape.org/) -->

<svg
   id="svg1100"
   version="1.1"
   viewBox="0 0 5.2908049 4.2330322"
   height="4.2330322mm"
   width="5.2908049mm"
   xmlns="http://www.w3.org/2000/svg"
   xmlns:svg="http://www.w3.org/2000/svg">
  <defs
     id="defs1097" />
  <g
     id="New_Layer_1652809127.896095"
     style="display:inline"
     transform="translate(-10.848366,-1110.6986)">
    <path
       fill="#323232"
       d="M 12,11.39 C 12,10.74 11.61,10.16 11.02,9.91 L 5.44,7.55 C 3.96,9.23 3.12,11.25 2.64,13 h 7.75 C 11.28,13 12,12.28 12,11.39 Z"
       id="path28830"
       transform="matrix(0.264583,0,0,0.264583,10.3192,1109.64)" />
    <path
       fill="#323232"
       d="M 21.96,11.22 C 21.55,6.81 17.4,3.73 12.98,4.02 10.47,4.18 8.54,4.96 7.05,6.06 l 4.74,2.01 c 1.33,0.57 2.2,1.87 2.2,3.32 0,1.99 -1.62,3.61 -3.61,3.61 H 2.21 C 2,16.31 2,17.2 2,17.2 V 18 c 0,1.1 0.9,2 2,2 h 10 c 4.67,0 8.41,-4.01 7.96,-8.78 z"
       id="path28832"
       transform="matrix(0.264583,0,0,0.264583,10.3192,1109.64)" />
  </g>
</svg>
