<?xml version="1.0" encoding="UTF-8" standalone="no"?>
<!-- Created with Inkscape (http://www.inkscape.org/) -->

<svg
   id="svg1100"
   version="1.1"
   viewBox="0 0 5.0008545 5.0059104"
   height="5.0059104mm"
   width="5.0008545mm"
   xmlns="http://www.w3.org/2000/svg"
   xmlns:svg="http://www.w3.org/2000/svg">
  <defs
     id="defs1097" />
  <g
     id="New_Layer_1652809127.8970828"
     style="display:inline"
     transform="translate(-128.89557,-1110.322)">
    <path
       fill="#323232"
       d="M 20.49,3.51 C 19.93,2.95 18.34,2.54 16.33,2.54 13.25,2.54 9.18,3.5 6.35,6.33 1.66,11.03 2.1,19.07 3.51,20.49 c 0.56,0.56 2.15,0.97 4.16,0.97 3.08,0 7.15,-0.96 9.98,-3.79 4.69,-4.7 4.25,-12.74 2.84,-14.16 z M 7.76,7.76 C 10.4,5.12 14.11,4.64 15.79,4.57 13.74,5.51 11.33,7.02 9.18,9.18 a 23.462,23.462 0 0 0 -4.62,6.63 c 0.1,-2.48 0.88,-5.74 3.2,-8.05 z m 8.48,8.48 c -2.64,2.64 -6.35,3.12 -8.03,3.19 2.05,-0.94 4.46,-2.45 6.61,-4.61 2.16,-2.16 3.67,-4.58 4.62,-6.63 -0.1,2.48 -0.88,5.74 -3.2,8.05 z"
       id="path28844"
       transform="matrix(0.264583,0,0,0.264583,128.221,1109.65)" />
  </g>
</svg>
