<?xml version="1.0" encoding="UTF-8" standalone="no"?>
<!-- Created with Inkscape (http://www.inkscape.org/) -->

<svg
   id="svg1100"
   version="1.1"
   viewBox="0 0 5.2916598 5.2916598"
   height="5.2916598mm"
   width="5.2916598mm"
   xmlns="http://www.w3.org/2000/svg"
   xmlns:svg="http://www.w3.org/2000/svg">
  <defs
     id="defs1097" />
  <g
     id="New_Layer_1652809127.8976312"
     style="display:inline"
     transform="translate(-147.80017,-1100.4492)">
    <path
       fill="#323232"
       d="M 12,2 C 6.48,2 2,6.48 2,12 2,17.52 6.48,22 12,22 17.52,22 22,17.52 22,12 22,6.48 17.52,2 12,2 Z m 1,3.3 1.35,-0.95 a 8.01,8.01 0 0 1 4.38,3.34 L 18.34,9.03 16.99,9.49 13,6.7 Z M 9.65,4.35 11,5.3 V 6.7 L 7.01,9.49 5.66,9.03 5.27,7.69 A 8.103,8.103 0 0 1 9.65,4.35 Z M 7.08,17.11 5.94,17.21 A 7.938,7.938 0 0 1 4,12 c 0,-0.12 0.01,-0.23 0.02,-0.35 l 1,-0.73 1.38,0.48 1.46,4.34 z m 7.42,2.48 C 13.71,19.85 12.87,20 12,20 11.13,20 10.29,19.85 9.5,19.59 L 8.81,18.1 9.45,17 h 5.11 l 0.64,1.11 z M 14.27,15 H 9.73 L 8.38,10.98 12,8.44 l 3.63,2.54 z m 3.79,2.21 -1.14,-0.1 -0.79,-1.37 1.46,-4.34 1.39,-0.47 1,0.73 C 19.99,11.77 20,11.88 20,12 c 0,1.99 -0.73,3.81 -1.94,5.21 z"
       id="path28855"
       transform="matrix(0.264583,0,0,0.264583,147.271,1099.92)" />
  </g>
</svg>
