<?xml version="1.0" encoding="UTF-8" standalone="no"?>
<!-- Created with Inkscape (http://www.inkscape.org/) -->

<svg
   id="svg1100"
   version="1.1"
   viewBox="0 0 5.3355785 5.8202357"
   height="5.8202357mm"
   width="5.3355784mm"
   xmlns="http://www.w3.org/2000/svg"
   xmlns:svg="http://www.w3.org/2000/svg">
  <defs
     id="defs1097" />
  <g
     id="New_Layer_1652809127.898157"
     style="display:inline"
     transform="translate(-21.138133,-1090.4652)">
    <path
       fill="#323232"
       d="M 19.52,2.49 C 17.18,0.15 12.9,0.62 9.97,3.55 8.37,5.15 7.45,7.42 7.43,9.01 7.41,10.59 7.69,12.9 6.08,14.51 l -4.24,4.24 1.42,1.42 4.24,-4.24 c 1.61,-1.61 3.92,-1.33 5.5,-1.35 1.58,-0.02 3.86,-0.94 5.46,-2.54 2.92,-2.93 3.4,-7.21 1.06,-9.55 z m -9.2,9.19 C 8.79,10.15 9.27,7.07 11.38,4.96 13.49,2.85 16.56,2.37 18.1,3.9 c 1.53,1.53 1.05,4.61 -1.06,6.72 -2.11,2.11 -5.18,2.59 -6.72,1.06 z M 18,17 c 0.53,0 1.04,0.21 1.41,0.59 0.78,0.78 0.78,2.05 0,2.83 C 19.04,20.79 18.53,21 18,21 c -0.53,0 -1.04,-0.21 -1.41,-0.59 -0.78,-0.78 -0.78,-2.05 0,-2.83 C 16.96,17.21 17.47,17 18,17 Z m 0,-2 a 3.998,3.998 0 0 0 -2.83,6.83 C 15.95,22.61 16.98,23 18,23 A 3.998,3.998 0 0 0 20.83,16.17 3.998,3.998 0 0 0 18,15 Z"
       id="path28866"
       transform="matrix(0.264583,0,0,0.264583,20.6513,1090.2)" />
  </g>
</svg>
