<?xml version="1.0" encoding="UTF-8" standalone="no"?>
<!-- Created with Inkscape (http://www.inkscape.org/) -->

<svg
   id="svg1100"
   version="1.1"
   viewBox="0 0 5.273139 5.2784309"
   height="5.2784309mm"
   width="5.273139mm"
   xmlns="http://www.w3.org/2000/svg"
   xmlns:svg="http://www.w3.org/2000/svg">
  <defs
     id="defs1097" />
  <g
     id="New_Layer_1652809127.89869"
     style="display:inline"
     transform="translate(-50.796066,-1110.1824)">
    <path
       fill="#323232"
       d="M 6,4.01 C 3.58,5.84 2,8.73 2,12 c 0,1.46 0.32,2.85 0.89,4.11 L 6,14.31 Z m 5,7.41 V 2.05 C 9.94,2.16 8.93,2.43 8,2.84 v 10.32 z m 1,1.73 -8.11,4.68 c 0.61,0.84 1.34,1.59 2.18,2.2 L 15,14.89 Z m 1,-5.19 v 3.46 l 8.11,4.68 c 0.42,-0.93 0.7,-1.93 0.82,-2.98 z M 8.07,21.2 C 9.28,21.71 10.6,22 12,22 c 3.34,0 6.29,-1.65 8.11,-4.16 L 17,16.04 Z M 21.92,10.81 C 21.37,6.18 17.66,2.51 13,2.05 v 3.6 z"
       id="path28877"
       transform="matrix(0.264583,0,0,0.264583,50.2669,1109.64)" />
  </g>
</svg>
