<?xml version="1.0" encoding="UTF-8" standalone="no"?>
<!-- Created with Inkscape (http://www.inkscape.org/) -->

<svg
   id="svg1100"
   version="1.1"
   viewBox="0 0 5.2916598 5.2916598"
   height="5.2916598mm"
   width="5.2916598mm"
   xmlns="http://www.w3.org/2000/svg"
   xmlns:svg="http://www.w3.org/2000/svg">
  <defs
     id="defs1097" />
  <g
     id="New_Layer_1652809127.8992133"
     style="display:inline"
     transform="translate(-70.365966,-1100.4492)">
    <path
       fill="#323232"
       d="M 4,6 H 2 v 14 c 0,1.1 0.9,2 2,2 H 18 V 20 H 4 Z M 20,2 H 8 C 6.9,2 6,2.9 6,4 v 12 c 0,1.1 0.9,2 2,2 h 12 c 1.1,0 2,-0.9 2,-2 V 4 C 22,2.9 21.1,2 20,2 Z m -6,2 c 1.66,0 3,1.34 3,3 0,1.66 -1.34,3 -3,3 -1.66,0 -3,-1.34 -3,-3 0,-1.66 1.34,-3 3,-3 z m 6,12 H 8 v -1.5 c 0,-1.99 4,-3 6,-3 2,0 6,1.01 6,3 z"
       id="path28888"
       transform="matrix(0.264583,0,0,0.264583,69.8368,1099.92)" />
  </g>
</svg>
