<?xml version="1.0" encoding="UTF-8" standalone="no"?>
<!-- Created with Inkscape (http://www.inkscape.org/) -->

<svg
   id="svg1100"
   version="1.1"
   viewBox="0 0 5.2916598 4.7624941"
   height="4.7624941mm"
   width="5.2916598mm"
   xmlns="http://www.w3.org/2000/svg"
   xmlns:svg="http://www.w3.org/2000/svg">
  <defs
     id="defs1097" />
  <g
     id="New_Layer_1652809127.8997629"
     style="display:inline"
     transform="translate(-138.27517,-1090.9883)">
    <path
       fill="#323232"
       d="m 22,4 h -2 c -0.55,0 -1,0.45 -1,1 v 9 c 0,0.55 0.45,1 1,1 h 2 z M 2.17,11.12 C 2.06,11.37 2,11.64 2,11.92 V 13 c 0,1.1 0.9,2 2,2 h 5.5 l -0.92,4.65 c -0.05,0.22 -0.02,0.46 0.08,0.66 0.23,0.45 0.52,0.86 0.88,1.22 L 10,22 16.41,15.59 C 16.79,15.21 17,14.7 17,14.17 V 6.34 C 17,5.05 15.95,4 14.66,4 H 6.56 C 5.85,4 5.2,4.37 4.84,4.97 Z"
       id="path28899"
       transform="matrix(0.264583,0,0,0.264583,137.746,1089.93)" />
  </g>
</svg>
