<?xml version="1.0" encoding="UTF-8" standalone="no"?>
<!-- Created with Inkscape (http://www.inkscape.org/) -->

<svg
   id="svg1100"
   version="1.1"
   viewBox="0 0 5.2916598 4.7624941"
   height="4.7624941mm"
   width="5.2916598mm"
   xmlns="http://www.w3.org/2000/svg"
   xmlns:svg="http://www.w3.org/2000/svg">
  <defs
     id="defs1097" />
  <g
     id="New_Layer_1652809127.9002876"
     style="display:inline"
     transform="translate(-109.51017,-1090.9892)">
    <path
       fill="#323232"
       d="m 2,20 h 2 c 0.55,0 1,-0.45 1,-1 V 10 C 5,9.45 4.55,9 4,9 H 2 Z M 21.83,12.88 C 21.94,12.63 22,12.36 22,12.08 V 11 C 22,9.9 21.1,9 20,9 H 14.5 L 15.42,4.35 C 15.47,4.13 15.44,3.89 15.34,3.69 A 4.8,4.8 0 0 0 14.46,2.47 L 14,2 7.59,8.41 C 7.21,8.79 7,9.3 7,9.83 v 7.84 A 2.34,2.34 0 0 0 9.34,20 h 8.11 c 0.7,0 1.36,-0.37 1.72,-0.97 z"
       id="path28910"
       transform="matrix(0.264583,0,0,0.264583,108.981,1090.46)" />
  </g>
</svg>
