<?xml version="1.0" encoding="UTF-8" standalone="no"?>
<!-- Created with Inkscape (http://www.inkscape.org/) -->

<svg
   id="svg1100"
   version="1.1"
   viewBox="0 0 4.2333279 5.6435551"
   height="5.6435552mm"
   width="4.2333279mm"
   xmlns="http://www.w3.org/2000/svg"
   xmlns:svg="http://www.w3.org/2000/svg">
  <defs
     id="defs1097" />
  <g
     id="New_Layer_1652809127.900822"
     style="display:inline"
     transform="translate(-119.71833,-1119.7873)">
    <path
       fill="#323232"
       d="m 13.5,0.67 c 0,0 0.74,2.65 0.74,4.8 0,2.06 -1.35,3.73 -3.41,3.73 C 8.76,9.2 7.2,7.53 7.2,5.47 L 7.23,5.11 C 5.21,7.51 4,10.62 4,14 c 0,4.42 3.58,8 8,8 4.42,0 8,-3.58 8,-8 C 20,8.61 17.41,3.8 13.5,0.67 Z M 11.71,19 c -1.78,0 -3.22,-1.4 -3.22,-3.14 0,-1.62 1.05,-2.76 2.81,-3.12 1.77,-0.36 3.6,-1.21 4.62,-2.58 0.39,1.29 0.59,2.65 0.59,4.04 0,2.65 -2.15,4.8 -4.8,4.8 z"
       id="path28921"
       transform="matrix(0.264583,0,0,0.264583,118.66,1119.61)" />
  </g>
</svg>
