<?xml version="1.0" encoding="UTF-8" standalone="no"?>
<!-- Created with Inkscape (http://www.inkscape.org/) -->

<svg
   id="svg1100"
   version="1.1"
   viewBox="0 0 5.2916598 2.6458299"
   height="2.6458299mm"
   width="5.2916598mm"
   xmlns="http://www.w3.org/2000/svg"
   xmlns:svg="http://www.w3.org/2000/svg">
  <defs
     id="defs1097" />
  <g
     id="New_Layer_1652809139.4843857"
     style="display:inline"
     transform="translate(-55.562466,-1160.9021)">
    <path
       fill="#323232"
       d="M 17,7 H 7 c -2.76,0 -5,2.24 -5,5 0,2.76 2.24,5 5,5 h 10 c 2.76,0 5,-2.24 5,-5 C 22,9.24 19.76,7 17,7 Z M 7,15 C 5.34,15 4,13.66 4,12 4,10.34 5.34,9 7,9 c 1.66,0 3,1.34 3,3 0,1.66 -1.34,3 -3,3 z"
       id="path35507"
       transform="matrix(0.264583,0,0,0.264583,55.0333,1159.05)" />
  </g>
</svg>
