<?xml version="1.0" encoding="UTF-8" standalone="no"?>
<!-- Created with Inkscape (http://www.inkscape.org/) -->

<svg
   id="svg1100"
   version="1.1"
   viewBox="0 0 4.7624941 4.7624941"
   height="4.7624941mm"
   width="4.7624941mm"
   xmlns="http://www.w3.org/2000/svg"
   xmlns:svg="http://www.w3.org/2000/svg">
  <defs
     id="defs1097" />
  <g
     id="New_Layer_1652806998.1870522"
     style="display:inline"
     transform="translate(-165.89375,-88.649949)">
    <path
       fill="#323232"
       d="m 10.09,15.59 1.41,1.41 5,-5 -5,-5 -1.41,1.41 2.58,2.59 H 3 v 2 h 9.67 z M 19,3 H 5 A 2,2 0 0 0 3,5 V 9 H 5 V 5 H 19 V 19 H 5 V 15 H 3 v 4 a 2,2 0 0 0 2,2 h 14 c 1.1,0 2,-0.9 2,-2 V 5 C 21,3.9 20.1,3 19,3 Z"
       id="path2267"
       transform="matrix(0.264583,0,0,0.264583,165.1,87.8562)" />
  </g>
</svg>
