<?xml version="1.0" encoding="UTF-8" standalone="no"?>
<!-- Created with Inkscape (http://www.inkscape.org/) -->

<svg
   id="svg1100"
   version="1.1"
   viewBox="0 0 5.556243 5.5562429"
   height="5.5562429mm"
   width="5.5562429mm"
   xmlns="http://www.w3.org/2000/svg"
   xmlns:svg="http://www.w3.org/2000/svg">
  <defs
     id="defs1097" />
  <g
     id="New_Layer_1652806998.188374"
     style="display:inline"
     transform="translate(-0.396874,-98.571766)">
    <path
       fill="#323232"
       d="M 14.19,14.19 12.78,12.78 11.22,11.22 11,11 9.81,9.81 4.93,4.93 2.27,2.27 1,3.54 3.78,6.32 C 3.67,6.48 3.57,6.64 3.47,6.8 3.43,6.87 3.38,6.94 3.34,7.01 3.25,7.16 3.17,7.32 3.09,7.48 3.04,7.58 2.99,7.69 2.93,7.8 2.87,7.94 2.8,8.08 2.74,8.23 2.64,8.47 2.55,8.71 2.47,8.96 L 2.38,9.26 C 2.33,9.46 2.28,9.65 2.24,9.85 2.22,9.96 2.2,10.07 2.17,10.18 2.13,10.38 2.1,10.58 2.08,10.79 2.07,10.89 2.05,10.99 2.05,11.09 2.02,11.38 2,11.69 2,12 c 0,5.52 4.48,10 10,10 0.31,0 0.62,-0.02 0.92,-0.05 l 0.3,-0.03 c 0.2,-0.02 0.41,-0.06 0.61,-0.09 0.11,-0.02 0.22,-0.04 0.33,-0.07 0.2,-0.04 0.39,-0.09 0.58,-0.15 0.1,-0.03 0.2,-0.05 0.3,-0.09 0.25,-0.08 0.49,-0.17 0.73,-0.27 0.15,-0.06 0.29,-0.13 0.43,-0.19 0.11,-0.05 0.22,-0.1 0.33,-0.16 0.16,-0.08 0.31,-0.16 0.46,-0.25 0.07,-0.04 0.14,-0.09 0.21,-0.13 0.16,-0.1 0.32,-0.2 0.48,-0.31 L 20.46,23 21.73,21.73 19.07,19.07 Z M 6,18 9,11.54 12.46,15 Z m 16,-6 c 0,0.31 -0.02,0.62 -0.05,0.92 l -0.03,0.3 c -0.02,0.2 -0.06,0.41 -0.09,0.61 -0.02,0.11 -0.04,0.22 -0.07,0.33 -0.04,0.2 -0.09,0.39 -0.15,0.58 -0.03,0.1 -0.05,0.21 -0.09,0.31 -0.08,0.25 -0.17,0.49 -0.27,0.73 -0.06,0.15 -0.13,0.29 -0.19,0.43 -0.05,0.11 -0.1,0.22 -0.16,0.33 -0.08,0.16 -0.16,0.31 -0.25,0.46 -0.04,0.07 -0.09,0.14 -0.13,0.21 -0.1,0.16 -0.2,0.32 -0.31,0.48 L 15,12.46 18,6 11.54,9 6.32,3.78 C 6.48,3.67 6.64,3.57 6.8,3.47 6.87,3.43 6.94,3.38 7.01,3.34 7.16,3.25 7.32,3.17 7.47,3.09 7.58,3.04 7.69,2.99 7.8,2.93 7.94,2.87 8.08,2.8 8.23,2.74 8.47,2.64 8.71,2.55 8.96,2.47 L 9.27,2.38 C 9.46,2.33 9.65,2.27 9.85,2.23 9.96,2.21 10.07,2.19 10.18,2.16 c 0.2,-0.04 0.4,-0.07 0.61,-0.09 0.1,-0.01 0.2,-0.03 0.3,-0.03 C 11.38,2.02 11.69,2 12,2 17.52,2 22,6.48 22,12 Z"
       id="path2300"
       transform="matrix(0.264583,0,0,0.264583,0.132291,98.0426)" />
  </g>
</svg>
