<?xml version="1.0" encoding="UTF-8" standalone="no"?>
<!-- Created with Inkscape (http://www.inkscape.org/) -->

<svg
   id="svg1100"
   version="1.1"
   viewBox="0 0 5.2916598 5.2916598"
   height="5.2916598mm"
   width="5.2916598mm"
   xmlns="http://www.w3.org/2000/svg"
   xmlns:svg="http://www.w3.org/2000/svg">
  <defs
     id="defs1097" />
  <g
     id="New_Layer_1652806998.1890004"
     style="display:inline"
     transform="translate(-10.847966,-98.704066)">
    <path
       fill="#323232"
       d="m 9,11.75 a 1.25,1.25 0 1 0 0,2.5 1.25,1.25 0 0 0 0,-2.5 z m 6,0 a 1.25,1.25 0 1 0 0,2.5 1.25,1.25 0 0 0 0,-2.5 z M 12,2 C 6.48,2 2,6.48 2,12 2,17.52 6.48,22 12,22 17.52,22 22,17.52 22,12 22,6.48 17.52,2 12,2 Z m 0,18 C 7.59,20 4,16.41 4,12 4,11.71 4.02,11.42 4.05,11.14 6.41,10.09 8.28,8.16 9.26,5.77 A 9.974,9.974 0 0 0 19.67,9.74 C 19.88,10.45 20,11.21 20,12 c 0,4.41 -3.59,8 -8,8 z"
       id="path2322"
       transform="matrix(0.264583,0,0,0.264583,10.3188,98.1749)" />
  </g>
</svg>
