<?xml version="1.0" encoding="UTF-8" standalone="no"?>
<!-- Created with Inkscape (http://www.inkscape.org/) -->

<svg
   id="svg1100"
   version="1.1"
   viewBox="0 0 4.2333279 5.2916598"
   height="5.2916598mm"
   width="4.2333279mm"
   xmlns="http://www.w3.org/2000/svg"
   xmlns:svg="http://www.w3.org/2000/svg">
  <defs
     id="defs1097" />
  <g
     id="New_Layer_1652806998.190259"
     style="display:inline"
     transform="translate(-32.014632,-98.704066)">
    <path
       fill="#323232"
       d="M 15,2 H 6 C 4.9,2 4,2.9 4,4 v 16 c 0,1.1 0.9,2 2,2 h 12 c 1.1,0 2,-0.9 2,-2 V 7 Z M 6,20 V 4 h 8 v 4 h 4 V 20 Z M 16,10 v 5 c 0,2.21 -1.79,4 -4,4 C 9.79,19 8,17.21 8,15 V 8.5 A 2.5,2.5 0 0 1 10.76,6.01 C 12.06,6.14 13,7.33 13,8.64 V 15 H 11 V 8.5 C 11,8.22 10.78,8 10.5,8 10.22,8 10,8.22 10,8.5 V 15 c 0,1.1 0.9,2 2,2 1.1,0 2,-0.9 2,-2 v -5 z"
       id="path2377"
       transform="matrix(0.264583,0,0,0.264583,30.9563,98.1749)" />
  </g>
</svg>
