<?xml version="1.0" encoding="UTF-8" standalone="no"?>
<!-- Created with Inkscape (http://www.inkscape.org/) -->

<svg
   id="svg1100"
   version="1.1"
   viewBox="0 0 4.2333279 5.2916598"
   height="5.2916598mm"
   width="4.2333279mm"
   xmlns="http://www.w3.org/2000/svg"
   xmlns:svg="http://www.w3.org/2000/svg">
  <defs
     id="defs1097" />
  <g
     id="New_Layer_1652806998.1915197"
     style="display:inline"
     transform="translate(-62.970832,-98.704066)">
    <path
       fill="#323232"
       d="M 20,19.59 V 8 L 14,2 H 6 C 4.9,2 4.01,2.9 4.01,4 L 4,20 c 0,1.1 0.89,2 1.99,2 H 18 c 0.45,0 0.85,-0.15 1.19,-0.4 L 14.76,17.17 C 13.96,17.69 13.02,18 12,18 9.24,18 7,15.76 7,13 7,10.24 9.24,8 12,8 c 2.76,0 5,2.24 5,5 0,1.02 -0.31,1.96 -0.83,2.75 z M 9,13 c 0,1.66 1.34,3 3,3 1.66,0 3,-1.34 3,-3 0,-1.66 -1.34,-3 -3,-3 -1.66,0 -3,1.34 -3,3 z"
       id="path2410"
       transform="matrix(0.264583,0,0,0.264583,61.9125,98.1749)" />
  </g>
</svg>
