<?xml version="1.0" encoding="UTF-8" standalone="no"?>
<!-- Created with Inkscape (http://www.inkscape.org/) -->

<svg
   id="svg1100"
   version="1.1"
   viewBox="0 0 4.6275568 4.6275587"
   height="4.6275587mm"
   width="4.6275568mm"
   xmlns="http://www.w3.org/2000/svg"
   xmlns:svg="http://www.w3.org/2000/svg">
  <defs
     id="defs1097" />
  <g
     id="New_Layer_1652806998.1921382"
     style="display:inline"
     transform="translate(-42.136232,-99.03613)">
    <path
       fill="#323232"
       d="m 11,6 c 1.38,0 2.63,0.56 3.54,1.46 L 12,10 h 6 V 4 L 15.95,6.05 A 6.976,6.976 0 0 0 11,4 C 7.47,4 4.57,6.61 4.08,10 H 6.1 A 5,5 0 0 1 11,6 Z m 5.64,9.14 A 6.89,6.89 0 0 0 17.92,12 H 15.9 A 5,5 0 0 1 11,16 C 9.62,16 8.37,15.44 7.46,14.54 L 10,12 H 4 v 6 L 6.05,15.95 A 6.976,6.976 0 0 0 11,18 c 1.55,0 2.98,-0.51 4.14,-1.36 L 20,21.49 21.49,20 Z"
       id="path2421"
       transform="matrix(0.264583,0,0,0.264583,41.0779,97.9778)" />
  </g>
</svg>
