<?xml version="1.0" encoding="UTF-8" standalone="no"?>
<!-- Created with Inkscape (http://www.inkscape.org/) -->

<svg
   id="svg1100"
   version="1.1"
   viewBox="0 0 5.556243 5.2916598"
   height="5.2916598mm"
   width="5.5562429mm"
   xmlns="http://www.w3.org/2000/svg"
   xmlns:svg="http://www.w3.org/2000/svg">
  <defs
     id="defs1097" />
  <g
     id="New_Layer_1652806924.7891612"
     style="display:inline"
     transform="translate(-51.990666,-16.154049)">
    <path
       fill="#323232"
       d="M 16.5,12.5 H 15 v 4 l 3,2 0.75,-1.23 -2.25,-1.52 z M 16,9 2,3 v 7 l 9,2 -9,2 v 7 L 9.27,17.89 C 10.09,20.83 12.79,23 16,23 c 3.86,0 7,-3.14 7,-7 0,-3.86 -3.14,-7 -7,-7 z m 0,12 c -2.75,0 -4.98,-2.22 -5,-4.97 v -0.07 a 5.008,5.008 0 0 1 5,-4.97 c 2.76,0 5,2.24 5,5 0,2.76 -2.24,5.01 -5,5.01 z"
       id="path3808"
       transform="matrix(0.264583,0,0,0.264583,51.4615,15.3603)" />
  </g>
</svg>
