<?xml version="1.0" encoding="UTF-8" standalone="no"?>
<!-- Created with Inkscape (http://www.inkscape.org/) -->

<svg
   id="svg1100"
   version="1.1"
   viewBox="0 0 5.2916598 5.2916598"
   height="5.2916598mm"
   width="5.2916598mm"
   xmlns="http://www.w3.org/2000/svg"
   xmlns:svg="http://www.w3.org/2000/svg">
  <defs
     id="defs1097" />
  <g
     id="New_Layer_1652806998.1933963"
     style="display:inline"
     transform="translate(-93.397866,-88.385366)">
    <path
       fill="#323232"
       fill-rule="evenodd"
       d="m 14.05,17.58 -0.01,0.01 -2.4,-2.4 1.06,-1.06 1.35,1.35 2.49,-2.48 1.06,1.06 -3.54,3.54 z M 12,2 C 6.5,2 2,6.5 2,12 2,17.5 6.5,22 12,22 17.5,22 22,17.5 22,12 22,6.5 17.5,2 12,2 Z M 7.34,6.28 8.75,7.69 10.16,6.28 11.22,7.34 9.81,8.75 11.22,10.16 10.16,11.22 8.75,9.81 7.34,11.22 6.28,10.16 7.69,8.75 6.28,7.34 Z M 12,20 C 9.8,20 7.8,19.1 6.3,17.7 L 17.7,6.3 c 1.4,1.5 2.3,3.5 2.3,5.7 0,4.4 -3.6,8 -8,8 z"
       clip-rule="evenodd"
       id="path2454"
       transform="matrix(0.264583,0,0,0.264583,92.8687,87.8562)" />
  </g>
</svg>
