<?xml version="1.0" encoding="UTF-8" standalone="no"?>
<!-- Created with Inkscape (http://www.inkscape.org/) -->

<svg
   id="svg1100"
   version="1.1"
   viewBox="0 0 4.7624941 4.7624941"
   height="4.7624941mm"
   width="4.7624941mm"
   xmlns="http://www.w3.org/2000/svg"
   xmlns:svg="http://www.w3.org/2000/svg">
  <defs
     id="defs1097" />
  <g
     id="New_Layer_1652806998.194022"
     style="display:inline"
     transform="translate(-83.343749,-98.968649)">
    <path
       fill="#323232"
       d="M 9,7 H 7 v 2 h 2 z m 0,4 H 7 v 2 H 9 Z M 9,3 A 2,2 0 0 0 7,5 h 2 z m 4,12 h -2 v 2 h 2 z M 19,3 v 2 h 2 C 21,3.9 20.1,3 19,3 Z m -6,0 h -2 v 2 h 2 z M 9,17 V 15 H 7 a 2,2 0 0 0 2,2 z m 10,-4 h 2 v -2 h -2 z m 0,-4 h 2 V 7 h -2 z m 0,8 c 1.1,0 2,-0.9 2,-2 H 19 Z M 5,7 H 3 v 12 a 2,2 0 0 0 2,2 H 17 V 19 H 5 Z M 15,5 h 2 V 3 h -2 z m 0,12 h 2 v -2 h -2 z"
       id="path2487"
       transform="matrix(0.264583,0,0,0.264583,82.55,98.1749)" />
  </g>
</svg>
