<?xml version="1.0" encoding="UTF-8" standalone="no"?>
<!-- Created with Inkscape (http://www.inkscape.org/) -->

<svg
   id="svg1100"
   version="1.1"
   viewBox="0 0 4.7624941 4.7624941"
   height="4.7624941mm"
   width="4.7624941mm"
   xmlns="http://www.w3.org/2000/svg"
   xmlns:svg="http://www.w3.org/2000/svg">
  <defs
     id="defs1097" />
  <g
     id="New_Layer_1652806998.194651"
     style="display:inline"
     transform="translate(-114.29975,-98.968649)">
    <path
       fill="#323232"
       d="M 3,13 H 5 V 11 H 3 Z m 0,4 H 5 V 15 H 3 Z m 2,4 V 19 H 3 a 2,2 0 0 0 2,2 z M 3,9 H 5 V 7 H 3 Z m 12,12 h 2 V 19 H 15 Z M 19,3 H 9 A 2,2 0 0 0 7,5 v 10 a 2,2 0 0 0 2,2 h 10 c 1.1,0 2,-0.9 2,-2 V 5 C 21,3.9 20.1,3 19,3 Z m 0,12 H 9 V 5 h 10 z m -8,6 h 2 V 19 H 11 Z M 7,21 H 9 V 19 H 7 Z"
       id="path2498"
       transform="matrix(0.264583,0,0,0.264583,113.506,98.1749)" />
  </g>
</svg>
