<?xml version="1.0" encoding="UTF-8" standalone="no"?>
<!-- Created with Inkscape (http://www.inkscape.org/) -->

<svg
   id="svg1100"
   version="1.1"
   viewBox="0 0 5.2916598 5.2916598"
   height="5.2916598mm"
   width="5.2916598mm"
   xmlns="http://www.w3.org/2000/svg"
   xmlns:svg="http://www.w3.org/2000/svg">
  <defs
     id="defs1097" />
  <g
     id="New_Layer_1652806998.1965227"
     style="display:inline"
     transform="translate(-144.99117,-98.704066)">
    <path
       fill="#323232"
       d="M 12,2 C 6.48,2 2,6.48 2,12 2,17.52 6.48,22 12,22 17.52,22 22,17.52 22,12 22,6.48 17.52,2 12,2 Z M 8,17.5 a 2.5,2.5 0 0 1 0,-5 2.5,2.5 0 0 1 0,5 z M 9.5,8 a 2.5,2.5 0 0 1 5,0 2.5,2.5 0 0 1 -5,0 z m 6.5,9.5 a 2.5,2.5 0 0 1 0,-5 2.5,2.5 0 0 1 0,5 z"
       id="path2564"
       transform="matrix(0.264583,0,0,0.264583,144.462,98.1749)" />
  </g>
</svg>
