<?xml version="1.0" encoding="UTF-8" standalone="no"?>
<!-- Created with Inkscape (http://www.inkscape.org/) -->

<svg
   id="svg1100"
   version="1.1"
   viewBox="0 0 5.8208261 5.820826"
   height="5.8208261mm"
   width="5.8208261mm"
   xmlns="http://www.w3.org/2000/svg"
   xmlns:svg="http://www.w3.org/2000/svg">
  <defs
     id="defs1097" />
  <g
     id="New_Layer_1652806998.1971378"
     style="display:inline"
     transform="translate(-175.68358,-98.439483)">
    <path
       fill="#323232"
       d="M 21,4 H 11 L 10,1 H 3 C 1.9,1 1,1.9 1,3 v 15 c 0,1.1 0.9,2 2,2 h 8 l 1,3 h 9 c 1.1,0 2,-0.9 2,-2 V 6 C 23,4.9 22.1,4 21,4 Z M 7,16 C 4.24,16 2,13.76 2,11 2,8.24 4.24,6 7,6 8.35,6 9.48,6.5 10.35,7.3 L 9.03,8.57 C 8.65,8.21 7.99,7.79 7,7.79 5.26,7.79 3.85,9.23 3.85,11 c 0,1.77 1.41,3.21 3.15,3.21 2.01,0 2.84,-1.44 2.92,-2.41 H 7 v -1.71 h 4.68 C 11.75,10.4 11.8,10.7 11.8,11.11 11.8,13.97 9.89,16 7,16 Z m 6.17,-5.42 h 3.7 c -0.43,1.25 -1.11,2.43 -2.05,3.47 -0.31,-0.35 -0.6,-0.72 -0.86,-1.1 z m 8.33,9.92 c 0,0.55 -0.45,1 -1,1 H 14 l 2,-2.5 -1.04,-3.1 3.1,3.1 0.92,-0.92 -3.3,-3.25 0.02,-0.02 c 1.13,-1.25 1.93,-2.69 2.4,-4.22 H 20 V 9.29 H 15.47 V 8 H 14.18 V 9.29 H 12.74 L 11.46,5.5 h 9.04 c 0.55,0 1,0.45 1,1 z"
       id="path2575"
       transform="matrix(0.264583,0,0,0.264583,175.419,98.1749)" />
  </g>
</svg>
