<?xml version="1.0" encoding="UTF-8" standalone="no"?>
<!-- Created with Inkscape (http://www.inkscape.org/) -->

<svg
   id="svg1100"
   version="1.1"
   viewBox="0 0 5.2916598 5.2916598"
   height="5.2916598mm"
   width="5.2916598mm"
   xmlns="http://www.w3.org/2000/svg"
   xmlns:svg="http://www.w3.org/2000/svg">
  <defs
     id="defs1097" />
  <g
     id="New_Layer_1652806998.1977677"
     style="display:inline"
     transform="translate(-186.26717,-98.704066)">
    <path
       fill="#323232"
       d="M 12,2 C 6.48,2 2,6.48 2,12 2,17.52 6.48,22 12,22 17.52,22 22,17.52 22,12 22,6.48 17.52,2 12,2 Z m 1,17 h -2 v -2 h 2 z m 2.07,-7.75 -0.9,0.92 C 13.45,12.9 13,13.5 13,15 h -2 v -0.5 c 0,-1.1 0.45,-2.1 1.17,-2.83 l 1.24,-1.26 C 13.78,10.05 14,9.55 14,9 14,7.9 13.1,7 12,7 10.9,7 10,7.9 10,9 H 8 c 0,-2.21 1.79,-4 4,-4 2.21,0 4,1.79 4,4 0,0.88 -0.36,1.68 -0.93,2.25 z"
       id="path2586"
       transform="matrix(0.264583,0,0,0.264583,185.738,98.1749)" />
  </g>
</svg>
