<?xml version="1.0" encoding="UTF-8" standalone="no"?>
<!-- Created with Inkscape (http://www.inkscape.org/) -->

<svg
   id="svg1100"
   version="1.1"
   viewBox="0 0 4.7624941 4.7624941"
   height="4.7624941mm"
   width="4.7624941mm"
   xmlns="http://www.w3.org/2000/svg"
   xmlns:svg="http://www.w3.org/2000/svg">
  <defs
     id="defs1097" />
  <g
     id="New_Layer_1652806998.1983898"
     style="display:inline"
     transform="translate(-0.7937502,-109.28775)">
    <path
       fill="#323232"
       d="M 19,3 H 5 C 3.9,3 3,3.9 3,5 v 14 c 0,1.1 0.9,2 2,2 h 14 c 1.1,0 2,-0.9 2,-2 V 5 C 21,3.9 20.1,3 19,3 Z m -6.99,15 c -0.7,0 -1.26,-0.56 -1.26,-1.26 0,-0.71 0.56,-1.25 1.26,-1.25 0.71,0 1.25,0.54 1.25,1.25 C 13.25,17.43 12.72,18 12.01,18 Z m 3.01,-7.4 c -0.76,1.11 -1.48,1.46 -1.87,2.17 -0.16,0.29 -0.22,0.48 -0.22,1.41 h -1.82 c 0,-0.49 -0.08,-1.29 0.31,-1.98 0.49,-0.87 1.42,-1.39 1.96,-2.16 0.57,-0.81 0.25,-2.33 -1.37,-2.33 -1.06,0 -1.58,0.8 -1.8,1.48 L 8.56,8.49 C 9.01,7.15 10.22,6 11.99,6 c 1.48,0 2.49,0.67 3.01,1.52 0.44,0.72 0.7,2.07 0.02,3.08 z"
       id="path2597"
       transform="matrix(0.264583,0,0,0.264583,1.2e-6,108.494)" />
  </g>
</svg>
