<?xml version="1.0" encoding="UTF-8" standalone="no"?>
<!-- Created with Inkscape (http://www.inkscape.org/) -->

<svg
   id="svg1100"
   version="1.1"
   viewBox="0 0 5.2916598 5.2916598"
   height="5.2916598mm"
   width="5.2916598mm"
   xmlns="http://www.w3.org/2000/svg"
   xmlns:svg="http://www.w3.org/2000/svg">
  <defs
     id="defs1097" />
  <g
     id="New_Layer_1652806998.199024"
     style="display:inline"
     transform="translate(-21.166666,-109.02317)">
    <path
       fill="#323232"
       d="m 11,18 h 2 V 16 H 11 Z M 12,2 C 6.48,2 2,6.48 2,12 2,17.52 6.48,22 12,22 17.52,22 22,17.52 22,12 22,6.48 17.52,2 12,2 Z m 0,18 C 7.59,20 4,16.41 4,12 4,7.59 7.59,4 12,4 c 4.41,0 8,3.59 8,8 0,4.41 -3.59,8 -8,8 z M 12,6 C 9.79,6 8,7.79 8,10 h 2 c 0,-1.1 0.9,-2 2,-2 1.1,0 2,0.9 2,2 0,2 -3,1.75 -3,5 h 2 c 0,-2.25 3,-2.5 3,-5 0,-2.21 -1.79,-4 -4,-4 z"
       id="path2608"
       transform="matrix(0.264583,0,0,0.264583,20.6375,108.494)" />
  </g>
</svg>
