<?xml version="1.0" encoding="UTF-8" standalone="no"?>
<!-- Created with Inkscape (http://www.inkscape.org/) -->

<svg
   id="svg1100"
   version="1.1"
   viewBox="0 0 4.7624941 4.7624941"
   height="4.7624941mm"
   width="4.7624941mm"
   xmlns="http://www.w3.org/2000/svg"
   xmlns:svg="http://www.w3.org/2000/svg">
  <defs
     id="defs1097" />
  <g
     id="New_Layer_1652806998.1996603"
     style="display:inline"
     transform="translate(-52.387549,-109.28775)">
    <path
       fill="#323232"
       d="M 17,5 H 15 V 3 h 2 z m -2,16 h 2 V 18.41 L 19.59,21 21,19.59 18.41,17 H 21 V 15 H 15 Z M 19,9 h 2 V 7 h -2 z m 0,4 h 2 v -2 h -2 z m -8,8 h 2 V 19 H 11 Z M 7,5 H 9 V 3 H 7 Z M 3,17 H 5 V 15 H 3 Z m 2,4 V 19 H 3 c 0,1.1 0.9,2 2,2 z M 19,3 v 2 h 2 C 21,3.9 20.1,3 19,3 Z m -8,2 h 2 V 3 H 11 Z M 3,9 H 5 V 7 H 3 Z M 7,21 H 9 V 19 H 7 Z M 3,13 H 5 V 11 H 3 Z M 3,5 H 5 V 3 C 3.9,3 3,3.9 3,5 Z"
       id="path2619"
       transform="matrix(0.264583,0,0,0.264583,51.5938,108.494)" />
  </g>
</svg>
