<?xml version="1.0" encoding="UTF-8" standalone="no"?>
<!-- Created with Inkscape (http://www.inkscape.org/) -->

<svg
   id="svg1100"
   version="1.1"
   viewBox="0 0 5.2916598 5.2916598"
   height="5.2916598mm"
   width="5.2916598mm"
   xmlns="http://www.w3.org/2000/svg"
   xmlns:svg="http://www.w3.org/2000/svg">
  <defs
     id="defs1097" />
  <g
     id="New_Layer_1652806998.20028"
     style="display:inline"
     transform="translate(-62.441666,-109.02317)">
    <path
       fill="#323232"
       d="M 14.59,8 12,10.59 9.41,8 8,9.41 10.59,12 8,14.59 9.41,16 12,13.41 14.59,16 16,14.59 13.41,12 16,9.41 Z M 12,2 C 6.47,2 2,6.47 2,12 2,17.53 6.47,22 12,22 17.53,22 22,17.53 22,12 22,6.47 17.53,2 12,2 Z m 0,18 C 7.59,20 4,16.41 4,12 4,7.59 7.59,4 12,4 c 4.41,0 8,3.59 8,8 0,4.41 -3.59,8 -8,8 z"
       id="path2630"
       transform="matrix(0.264583,0,0,0.264583,61.9125,108.494)" />
  </g>
</svg>
