<?xml version="1.0" encoding="UTF-8" standalone="no"?>
<!-- Created with Inkscape (http://www.inkscape.org/) -->

<svg
   id="svg1100"
   version="1.1"
   viewBox="0 0 5.2652016 5.2652015"
   height="5.2652016mm"
   width="5.2652016mm"
   xmlns="http://www.w3.org/2000/svg"
   xmlns:svg="http://www.w3.org/2000/svg">
  <defs
     id="defs1097" />
  <g
     id="New_Layer_1652806998.200908"
     style="display:inline"
     transform="translate(-72.773595,-109.0364)">
    <path
       fill="#323232"
       d="m 15.1,19.37 1,1.74 c -0.96,0.44 -2.01,0.73 -3.1,0.84 v -2.02 c 0.74,-0.09 1.44,-0.28 2.1,-0.56 z M 4.07,13 H 2.05 c 0.11,1.1 0.4,2.14 0.84,3.1 l 1.74,-1 C 4.35,14.44 4.16,13.74 4.07,13 Z M 15.1,4.63 16.1,2.89 C 15.14,2.45 14.1,2.16 13,2.05 v 2.02 c 0.74,0.09 1.44,0.28 2.1,0.56 z M 19.93,11 h 2.02 C 21.84,9.9 21.55,8.86 21.11,7.9 l -1.74,1 c 0.28,0.66 0.47,1.36 0.56,2.1 z m -11.03,8.37 -1,1.74 c 0.96,0.44 2.01,0.73 3.1,0.84 V 19.93 C 10.26,19.84 9.56,19.65 8.9,19.37 Z M 11,4.07 V 2.05 C 9.9,2.16 8.86,2.45 7.9,2.89 l 1,1.74 C 9.56,4.35 10.26,4.16 11,4.07 Z m 7.36,3.1 1.74,-1.01 C 19.47,5.29 18.7,4.52 17.83,3.89 l -1.01,1.74 c 0.59,0.45 1.1,0.96 1.54,1.54 z M 4.63,8.9 2.89,7.9 C 2.45,8.86 2.16,9.9 2.05,11 H 4.07 C 4.16,10.26 4.35,9.56 4.63,8.9 Z m 15.3,4.1 c -0.09,0.74 -0.28,1.44 -0.56,2.1 l 1.74,1 c 0.44,-0.96 0.73,-2.01 0.84,-3.1 z m -3.1,5.36 1.01,1.74 c 0.87,-0.63 1.64,-1.4 2.27,-2.27 l -1.74,-1.01 c -0.45,0.59 -0.96,1.1 -1.54,1.54 z M 7.17,5.64 6.17,3.89 C 5.29,4.53 4.53,5.29 3.9,6.17 L 5.64,7.18 A 7.7,7.7 0 0 1 7.17,5.64 Z m -1.53,11.19 -1.74,1 c 0.63,0.87 1.4,1.64 2.27,2.27 L 7.18,18.36 A 7.7,7.7 0 0 1 5.64,16.83 Z M 13,7 h -2 v 5.41 l 4.29,4.29 1.41,-1.41 -3.7,-3.7 z"
       id="path2652"
       transform="matrix(0.264583,0,0,0.264583,72.2312,108.494)" />
  </g>
</svg>
