<?xml version="1.0" encoding="UTF-8" standalone="no"?>
<!-- Created with Inkscape (http://www.inkscape.org/) -->

<svg
   id="svg1100"
   version="1.1"
   viewBox="0 0 4.7624941 5.2916598"
   height="5.2916598mm"
   width="4.7624941mm"
   xmlns="http://www.w3.org/2000/svg"
   xmlns:svg="http://www.w3.org/2000/svg">
  <defs
     id="defs1097" />
  <g
     id="New_Layer_1652806998.2046976"
     style="display:inline"
     transform="translate(-114.29975,-109.02258)">
    <path
       fill="#323232"
       d="M 19,3 H 14.82 C 14.4,1.84 13.3,1 12,1 10.7,1 9.6,1.84 9.18,3 H 5 C 4.86,3 4.73,3.01 4.6,3.04 A 2.008,2.008 0 0 0 3.16,4.23 C 3.06,4.46 3,4.72 3,5 v 14 c 0,0.27 0.06,0.54 0.16,0.78 0.1,0.24 0.25,0.45 0.43,0.64 0.27,0.27 0.62,0.47 1.01,0.55 C 4.73,20.99 4.86,21 5,21 h 14 c 1.1,0 2,-0.9 2,-2 V 5 C 21,3.9 20.1,3 19,3 Z M 11,14.17 9.59,15.59 6,12 9.59,8.41 11,9.83 8.83,12 Z m 1,-9.92 c -0.41,0 -0.75,-0.34 -0.75,-0.75 0,-0.41 0.34,-0.75 0.75,-0.75 0.41,0 0.75,0.34 0.75,0.75 0,0.41 -0.34,0.75 -0.75,0.75 z M 14.41,15.59 13,14.17 15.17,12 13,9.83 14.41,8.41 18,12 Z"
       id="path2795"
       transform="matrix(0.264583,0,0,0.264583,113.506,108.758)" />
  </g>
</svg>
