<?xml version="1.0" encoding="UTF-8" standalone="no"?>
<!-- Created with Inkscape (http://www.inkscape.org/) -->

<svg
   id="svg1100"
   version="1.1"
   viewBox="0 0 4.2333279 5.1091013"
   height="5.1091013mm"
   width="4.2333279mm"
   xmlns="http://www.w3.org/2000/svg"
   xmlns:svg="http://www.w3.org/2000/svg">
  <defs
     id="defs1097" />
  <g
     id="New_Layer_1652806998.2053163"
     style="display:inline"
     transform="translate(-124.88333,-109.1136)">
    <path
       fill="#323232"
       d="M 17.66,7.93 12,2.27 6.34,7.93 c -3.12,3.12 -3.12,8.19 0,11.31 A 7.98,7.98 0 0 0 12,21.58 c 2.05,0 4.1,-0.78 5.66,-2.34 3.12,-3.12 3.12,-8.19 0,-11.31 z M 12,19.59 c -1.6,0 -3.11,-0.62 -4.24,-1.76 A 5.945,5.945 0 0 1 6,13.59 C 6,11.99 6.62,10.48 7.76,9.35 L 12,5.1 Z"
       id="path2806"
       transform="matrix(0.264583,0,0,0.264583,123.825,108.513)" />
  </g>
</svg>
