<?xml version="1.0" encoding="UTF-8" standalone="no"?>
<!-- Created with Inkscape (http://www.inkscape.org/) -->

<svg
   id="svg1100"
   version="1.1"
   viewBox="0 0 3.7041619 5.2916598"
   height="5.2916598mm"
   width="3.7041619mm"
   xmlns="http://www.w3.org/2000/svg"
   xmlns:svg="http://www.w3.org/2000/svg">
  <defs
     id="defs1097" />
  <g
     id="New_Layer_1652806998.2065768"
     style="display:inline"
     transform="translate(-166.42291,-98.704066)">
    <path
       fill="#323232"
       d="m 9,21 c 0,0.5 0.4,1 1,1 h 4 c 0.6,0 1,-0.5 1,-1 V 20 H 9 Z M 12,2 C 8.1,2 5,5.1 5,9 c 0,2.4 1.2,4.5 3,5.7 V 17 c 0,0.5 0.4,1 1,1 h 6 c 0.6,0 1,-0.5 1,-1 V 14.7 C 17.8,13.4 19,11.3 19,9 19,5.1 15.9,2 12,2 Z"
       id="path2905"
       transform="matrix(0.264583,0,0,0.264583,165.1,98.1749)" />
  </g>
</svg>
