<?xml version="1.0" encoding="UTF-8" standalone="no"?>
<!-- Created with Inkscape (http://www.inkscape.org/) -->

<svg
   id="svg1100"
   version="1.1"
   viewBox="0 0 5.2916598 5.820826"
   height="5.8208261mm"
   width="5.2916598mm"
   xmlns="http://www.w3.org/2000/svg"
   xmlns:svg="http://www.w3.org/2000/svg">
  <defs
     id="defs1097" />
  <g
     id="New_Layer_1652806998.2097123"
     style="display:inline"
     transform="translate(-175.94817,-108.75858)">
    <path
       fill="#323232"
       d="M 22,12 18,16 16.59,14.59 18.17,13 H 12.94 A 8.974,8.974 0 0 1 8,20.05 3.005,3.005 0 0 1 5,23 c -1.66,0 -3,-1.34 -3,-3 0,-1.66 1.34,-3 3,-3 0.95,0 1.78,0.45 2.33,1.14 A 6.969,6.969 0 0 0 10.91,13 H 7.81 C 7.4,14.16 6.3,15 5,15 3.34,15 2,13.66 2,12 2,10.34 3.34,9 5,9 6.3,9 7.4,9.84 7.82,11 h 3.1 C 10.6,8.77 9.23,6.9 7.33,5.86 6.78,6.55 5.95,7 5,7 3.34,7 2,5.66 2,4 2,2.34 3.34,1 5,1 A 2.99,2.99 0 0 1 7.99,3.95 8.974,8.974 0 0 1 12.93,11 h 5.23 L 16.58,9.41 18,8 Z"
       id="path3078"
       transform="matrix(0.264583,0,0,0.264583,175.419,108.494)" />
  </g>
</svg>
