<?xml version="1.0" encoding="UTF-8" standalone="no"?>
<!-- Created with Inkscape (http://www.inkscape.org/) -->

<svg
   id="svg1100"
   version="1.1"
   viewBox="0 0 4.7624941 4.7624941"
   height="4.7624941mm"
   width="4.7624941mm"
   xmlns="http://www.w3.org/2000/svg"
   xmlns:svg="http://www.w3.org/2000/svg">
  <defs
     id="defs1097" />
  <g
     id="New_Layer_1652806998.2109694"
     style="display:inline"
     transform="translate(-73.024949,-88.649949)">
    <path
       fill="#323232"
       d="M 19,3 H 5 A 2,2 0 0 0 3,5 v 14 a 2,2 0 0 0 2,2 h 14 c 1.1,0 2,-0.9 2,-2 V 5 A 2,2 0 0 0 19,3 Z m 0,16 H 5 V 7 h 14 z m -5.5,-6 c 0,0.83 -0.67,1.5 -1.5,1.5 -0.83,0 -1.5,-0.67 -1.5,-1.5 0,-0.83 0.67,-1.5 1.5,-1.5 0.83,0 1.5,0.67 1.5,1.5 z M 12,9 c -2.73,0 -5.06,1.66 -6,4 0.94,2.34 3.27,4 6,4 2.73,0 5.06,-1.66 6,-4 -0.94,-2.34 -3.27,-4 -6,-4 z m 0,6.5 a 2.5,2.5 0 0 1 0,-5 2.5,2.5 0 0 1 0,5 z"
       id="path3535"
       transform="matrix(0.264583,0,0,0.264583,72.2312,87.8562)" />
  </g>
</svg>
