<?xml version="1.0" encoding="UTF-8" standalone="no"?>
<!-- Created with Inkscape (http://www.inkscape.org/) -->

<svg
   id="svg1100"
   version="1.1"
   viewBox="0 0 4.7624941 5.2916598"
   height="5.2916598mm"
   width="4.7624941mm"
   xmlns="http://www.w3.org/2000/svg"
   xmlns:svg="http://www.w3.org/2000/svg">
  <defs
     id="defs1097" />
  <g
     id="New_Layer_1652806998.2115977"
     style="display:inline"
     transform="translate(-11.112549,-109.02317)">
    <path
       fill="#323232"
       d="M 18,17 H 6 v -2 h 12 z m 0,-4 H 6 V 11 H 18 Z M 18,9 H 6 V 7 H 18 Z M 3,22 4.5,20.5 6,22 7.5,20.5 9,22 10.5,20.5 12,22 13.5,20.5 15,22 16.5,20.5 18,22 19.5,20.5 21,22 V 2 L 19.5,3.5 18,2 16.5,3.5 15,2 13.5,3.5 12,2 10.5,3.5 9,2 7.5,3.5 6,2 4.5,3.5 3,2 Z"
       id="path3618"
       transform="matrix(0.264583,0,0,0.264583,10.3188,108.494)" />
  </g>
</svg>
