<?xml version="1.0" encoding="UTF-8" standalone="no"?>
<!-- Created with Inkscape (http://www.inkscape.org/) -->

<svg
   id="svg1100"
   version="1.1"
   viewBox="0 0 5.2043476 4.6275568"
   height="4.6275568mm"
   width="5.2043476mm"
   xmlns="http://www.w3.org/2000/svg"
   xmlns:svg="http://www.w3.org/2000/svg">
  <defs
     id="defs1097" />
  <g
     id="New_Layer_1652806998.212215"
     style="display:inline"
     transform="translate(-41.847858,-109.35475)">
    <path
       fill="#323232"
       d="M 15.5,14 H 14.71 L 14.43,13.73 A 6.471,6.471 0 0 0 16,9.5 6.5,6.5 0 0 0 9.5,3 C 6.08,3 3.28,5.64 3.03,9 H 5.05 C 5.3,6.75 7.18,5 9.5,5 11.99,5 14,7.01 14,9.5 14,11.99 11.99,14 9.5,14 9.33,14 9.17,13.97 9,13.95 v 2.02 C 9.17,15.99 9.33,16 9.5,16 c 1.61,0 3.09,-0.59 4.23,-1.57 L 14,14.71 v 0.79 l 5,4.99 1.49,-1.49 z"
       id="path3830"
       transform="matrix(0.264583,0,0,0.264583,41.6309,108.561)" />
    <path
       fill="#323232"
       d="M 6.47,10.82 4,13.29 1.53,10.82 0.82,11.53 3.29,14 0.82,16.47 1.53,17.18 4,14.71 6.47,17.18 7.18,16.47 4.71,14 7.18,11.53 Z"
       id="path3832"
       transform="matrix(0.264583,0,0,0.264583,41.6309,108.561)" />
  </g>
</svg>
