<?xml version="1.0" encoding="UTF-8" standalone="no"?>
<!-- Created with Inkscape (http://www.inkscape.org/) -->

<svg
   id="svg1100"
   version="1.1"
   viewBox="0 0 4.1142654 6.0854091"
   height="6.0854092mm"
   width="4.1142654mm"
   xmlns="http://www.w3.org/2000/svg"
   xmlns:svg="http://www.w3.org/2000/svg">
  <defs
     id="defs1097" />
  <g
     id="New_Layer_1652806998.2133563"
     style="display:inline"
     transform="translate(-32.07414,-108.626)">
    <path
       fill="#323232"
       d="M 15,9 H 9 C 8.45,9 8,9.45 8,10 v 12 c 0,0.55 0.45,1 1,1 h 6 c 0.55,0 1,-0.45 1,-1 V 10 C 16,9.45 15.55,9 15,9 Z m -3,6 c -1.1,0 -2,-0.9 -2,-2 0,-1.1 0.9,-2 2,-2 1.1,0 2,0.9 2,2 0,1.1 -0.9,2 -2,2 z M 7.05,6.05 8.46,7.46 a 5.022,5.022 0 0 1 7.08,0 L 16.95,6.05 A 6.976,6.976 0 0 0 12,4 C 10.07,4 8.32,4.78 7.05,6.05 Z M 12,0 C 8.96,0 6.21,1.23 4.22,3.22 L 5.63,4.63 A 9.011,9.011 0 0 1 12,2 c 2.49,0 4.74,1.01 6.36,2.64 L 19.77,3.23 C 17.79,1.23 15.04,0 12,0 Z"
       id="path4031"
       transform="matrix(0.264583,0,0,0.264583,30.9576,108.626)" />
  </g>
</svg>
