<?xml version="1.0" encoding="UTF-8" standalone="no"?>
<!-- Created with Inkscape (http://www.inkscape.org/) -->

<svg
   id="svg1100"
   version="1.1"
   viewBox="0 0 5.556243 5.5562429"
   height="5.5562429mm"
   width="5.5562429mm"
   xmlns="http://www.w3.org/2000/svg"
   xmlns:svg="http://www.w3.org/2000/svg">
  <defs
     id="defs1097" />
  <g
     id="New_Layer_1652807080.7386818"
     style="display:inline"
     transform="translate(-62.309366,-119.20958)">
    <path
       fill="#323232"
       d="M 20.5,11 H 19 V 7 C 19,5.9 18.1,5 17,5 H 13 V 3.5 a 2.5,2.5 0 0 0 -5,0 V 5 H 4 C 2.9,5 2.01,5.9 2.01,7 v 3.8 H 3.5 c 1.49,0 2.7,1.21 2.7,2.7 0,1.49 -1.21,2.7 -2.7,2.7 H 2 V 20 c 0,1.1 0.9,2 2,2 h 3.8 v -1.5 c 0,-1.49 1.21,-2.7 2.7,-2.7 1.49,0 2.7,1.21 2.7,2.7 V 22 H 17 c 1.1,0 2,-0.9 2,-2 v -4 h 1.5 a 2.5,2.5 0 0 0 0,-5 z"
       id="path2311"
       transform="matrix(0.264583,0,0,0.264583,61.7802,118.945)" />
  </g>
</svg>
