<?xml version="1.0" encoding="UTF-8" standalone="no"?>
<!-- Created with Inkscape (http://www.inkscape.org/) -->

<svg
   id="svg1100"
   version="1.1"
   viewBox="0 0 5.2916598 5.2916598"
   height="5.2916598mm"
   width="5.2916598mm"
   xmlns="http://www.w3.org/2000/svg"
   xmlns:svg="http://www.w3.org/2000/svg">
  <defs
     id="defs1097" />
  <g
     id="New_Layer_1652807080.7415807"
     style="display:inline"
     transform="translate(-0.5291672,-119.34117)">
    <path
       fill="#323232"
       d="M 12,2 C 6.48,2 2,6.48 2,12 2,17.52 6.48,22 12,22 17.52,22 22,17.52 22,12 22,6.48 17.52,2 12,2 Z m 6,11.97 h -5 l 2.26,-2.26 A 4.94,4.94 0 0 0 11.5,9.97 c -2.37,0 -4.35,1.66 -4.86,3.88 L 5.68,13.53 c 0.64,-2.62 3,-4.56 5.82,-4.56 1.78,0 3.37,0.79 4.47,2.03 L 18,8.97 Z"
       id="path3111"
       transform="matrix(0.264583,0,0,0.264583,1.2e-6,118.812)" />
  </g>
</svg>
