<?xml version="1.0" encoding="UTF-8" standalone="no"?>
<!-- Created with Inkscape (http://www.inkscape.org/) -->

<svg
   id="svg1100"
   version="1.1"
   viewBox="0 0 3.419755 5.2914743"
   height="5.2914743mm"
   width="3.419755mm"
   xmlns="http://www.w3.org/2000/svg"
   xmlns:svg="http://www.w3.org/2000/svg">
  <defs
     id="defs1097" />
  <g
     id="New_Layer_1652807080.7422013"
     style="display:inline"
     transform="translate(-11.7839,-119.34135)">
    <path
       fill="#323232"
       d="m 12.01,12 c 0,-3.57 2.2,-6.62 5.31,-7.87 C 18.21,3.77 18.07,2.44 17.13,2.23 16.03,1.99 14.86,1.93 13.65,2.09 9.14,2.69 5.53,6.4 5.06,10.92 4.44,16.93 9.13,22 15.01,22 c 0.73,0 1.43,-0.08 2.12,-0.23 0.95,-0.21 1.1,-1.53 0.2,-1.9 A 8.46,8.46 0 0 1 12.01,12 Z"
       id="path3122"
       transform="matrix(0.264583,0,0,0.264583,10.4597,118.812)" />
  </g>
</svg>
