<?xml version="1.0" encoding="UTF-8" standalone="no"?>
<!-- Created with Inkscape (http://www.inkscape.org/) -->

<svg
   id="svg1100"
   version="1.1"
   viewBox="0 0 5.2387433 5.4530558"
   height="5.4530559mm"
   width="5.2387433mm"
   xmlns="http://www.w3.org/2000/svg"
   xmlns:svg="http://www.w3.org/2000/svg">
  <defs
     id="defs1097" />
  <g
     id="New_Layer_1652807080.742823"
     style="display:inline"
     transform="translate(-31.51187,-119.26117)">
    <path
       fill="#323232"
       d="M 14,11.05 10.58,7.63 c 0.32,-0.34 0.74,-0.57 1.23,-0.61 0.48,-0.04 0.84,0.07 1.2,0.26 0.19,0.1 0.39,0.22 0.63,0.46 l 1.29,1.43 c 0.98,1.08 2.53,1.85 4.07,1.83 v 2 C 17.25,12.99 15.29,12.12 14,11.05 Z M 12,6 c 1.1,0 2,-0.9 2,-2 0,-1.1 -0.9,-2 -2,-2 -1.1,0 -2,0.9 -2,2 0,1.1 0.9,2 2,2 z M 2.81,2.81 1.39,4.22 10,12.83 V 15 c 0,1.1 0.9,2 2,2 h 2.17 l 5.61,5.61 1.41,-1.41 z M 10,20 C 8.34,20 7,18.66 7,17 7,15.69 7.84,14.59 9,14.17 V 12.1 a 5,5 0 1 0 5.9,5.9 h -2.07 c -0.41,1.16 -1.52,2 -2.83,2 z"
       id="path3133"
       transform="matrix(0.264583,0,0,0.264583,31.1441,118.732)" />
  </g>
</svg>
