<?xml version="1.0" encoding="UTF-8" standalone="no"?>
<!-- Created with Inkscape (http://www.inkscape.org/) -->

<svg
   id="svg1100"
   version="1.1"
   viewBox="0 0 6.3499918 6.3499918"
   height="6.3499918mm"
   width="6.3499918mm"
   xmlns="http://www.w3.org/2000/svg"
   xmlns:svg="http://www.w3.org/2000/svg">
  <defs
     id="defs1097" />
  <g
     id="New_Layer_1652806924.7916303"
     style="display:inline"
     transform="translate(-144.462,-15.6249)">
    <path
       fill="#323232"
       d="M 12,6 C 12,5.45 11.55,5 11,5 H 5.82 L 6.48,1.82 6.5,1.59 C 6.5,1.28 6.37,1 6.17,0.79 L 5.38,0 0.44,4.94 C 0.17,5.21 0,5.59 0,6 v 6.5 C 0,13.33 0.67,14 1.5,14 H 8.25 C 8.87,14 9.4,13.62 9.63,13.09 L 11.89,7.8 C 11.96,7.63 12,7.44 12,7.25 Z m 10.5,4 h -6.75 c -0.62,0 -1.15,0.38 -1.38,0.91 L 12.11,16.2 C 12.04,16.37 12,16.56 12,16.75 V 18 c 0,0.55 0.45,1 1,1 h 5.18 l -0.66,3.18 -0.02,0.24 c 0,0.31 0.13,0.59 0.33,0.8 L 18.62,24 23.56,19.06 C 23.83,18.79 24,18.41 24,18 V 11.5 C 24,10.67 23.33,10 22.5,10 Z"
       id="path4479"
       transform="matrix(0.264583,0,0,0.264583,144.462,15.6249)" />
  </g>
</svg>
