<?xml version="1.0" encoding="UTF-8" standalone="no"?>
<!-- Created with Inkscape (http://www.inkscape.org/) -->

<svg
   id="svg1100"
   version="1.1"
   viewBox="0 0 4.2333279 5.1092171"
   height="5.1092172mm"
   width="4.2333279mm"
   xmlns="http://www.w3.org/2000/svg"
   xmlns:svg="http://www.w3.org/2000/svg">
  <defs
     id="defs1097" />
  <g
     id="New_Layer_1652807080.7459238"
     style="display:inline"
     transform="translate(-145.52033,-119.43277)">
    <path
       fill="#323232"
       d="M 17.66,8 12,2.35 6.34,8 A 8.02,8.02 0 0 0 4,13.64 c 0,2 0.78,4.11 2.34,5.67 a 7.99,7.99 0 0 0 11.32,0 C 19.22,17.75 20,15.64 20,13.64 20,11.64 19.22,9.56 17.66,8 Z M 6,14 C 6.01,12 6.62,10.73 7.76,9.6 L 12,5.27 16.24,9.65 C 17.38,10.77 17.99,12 18,14 Z"
       id="path3199"
       transform="matrix(0.264583,0,0,0.264583,144.462,118.811)" />
  </g>
</svg>
