<?xml version="1.0" encoding="UTF-8" standalone="no"?>
<!-- Created with Inkscape (http://www.inkscape.org/) -->

<svg
   id="svg1100"
   version="1.1"
   viewBox="0 0 5.2916598 5.2916598"
   height="5.2916598mm"
   width="5.2916598mm"
   xmlns="http://www.w3.org/2000/svg"
   xmlns:svg="http://www.w3.org/2000/svg">
  <defs
     id="defs1097" />
  <g
     id="New_Layer_1652807080.7496483"
     style="display:inline"
     transform="translate(-52.122966,-129.66017)">
    <path
       fill="#323232"
       d="M 12,2 C 6.48,2 2,6.48 2,12 2,17.52 6.48,22 12,22 17.52,22 22,17.52 22,12 22,6.48 17.52,2 12,2 Z M 9,12 C 8.45,12 8,11.55 8,11 V 8 C 8,7.45 8.45,7 9,7 c 0.55,0 1,0.45 1,1 v 3 c 0,0.55 -0.45,1 -1,1 z m 5,6 h -4 v -2 c 0,-1.1 0.9,-2 2,-2 1.1,0 2,0.9 2,2 z m 2,-7 c 0,0.55 -0.45,1 -1,1 -0.55,0 -1,-0.45 -1,-1 V 8 c 0,-0.55 0.45,-1 1,-1 0.55,0 1,0.45 1,1 z"
       id="path3290"
       transform="matrix(0.264583,0,0,0.264583,51.5938,129.131)" />
  </g>
</svg>
