<?xml version="1.0" encoding="UTF-8" standalone="no"?>
<!-- Created with Inkscape (http://www.inkscape.org/) -->

<svg
   id="svg1100"
   version="1.1"
   viewBox="0 0 4.7624941 5.5562429"
   height="5.5562429mm"
   width="4.7624941mm"
   xmlns="http://www.w3.org/2000/svg"
   xmlns:svg="http://www.w3.org/2000/svg">
  <defs
     id="defs1097" />
  <g
     id="New_Layer_1652807080.7509012"
     style="display:inline"
     transform="translate(-62.706232,-129.52758)">
    <path
       fill="#323232"
       d="m 17,12 c -2.76,0 -5,2.24 -5,5 0,2.76 2.24,5 5,5 2.76,0 5,-2.24 5,-5 0,-2.76 -2.24,-5 -5,-5 z M 18.65,19.35 16.5,17.2 V 14 h 1 v 2.79 l 1.85,1.85 z M 18,3 H 14.82 C 14.4,1.84 13.3,1 12,1 10.7,1 9.6,1.84 9.18,3 H 6 C 4.9,3 4,3.9 4,5 v 15 c 0,1.1 0.9,2 2,2 h 6.11 A 6.743,6.743 0 0 1 10.69,20 H 6 V 5 h 2 v 3 h 8 V 5 h 2 v 5.08 c 0.71,0.1 1.38,0.31 2,0.6 V 5 C 20,3.9 19.1,3 18,3 Z m -6,2 c -0.55,0 -1,-0.45 -1,-1 0,-0.55 0.45,-1 1,-1 0.55,0 1,0.45 1,1 0,0.55 -0.45,1 -1,1 z"
       id="path3345"
       transform="matrix(0.264583,0,0,0.264583,61.6479,129.263)" />
  </g>
</svg>
