<?xml version="1.0" encoding="UTF-8" standalone="no"?>
<!-- Created with Inkscape (http://www.inkscape.org/) -->

<svg
   id="svg1100"
   version="1.1"
   viewBox="0 0 4.7624941 5.2916598"
   height="5.2916598mm"
   width="4.7624941mm"
   xmlns="http://www.w3.org/2000/svg"
   xmlns:svg="http://www.w3.org/2000/svg">
  <defs
     id="defs1097" />
  <g
     id="New_Layer_1652807080.7521412"
     style="display:inline"
     transform="translate(-83.343749,-129.66058)">
    <path
       fill="#323232"
       d="M 19,3 H 18 V 1 H 16 V 3 H 8 V 1 H 6 V 3 H 5 A 2,2 0 0 0 3,5 v 14 a 2,2 0 0 0 2,2 h 14 c 1.1,0 2,-0.9 2,-2 V 5 C 21,3.9 20.1,3 19,3 Z m -7,3 c 1.66,0 3,1.34 3,3 0,1.66 -1.34,3 -3,3 C 10.34,12 9,10.66 9,9 9,7.34 10.34,6 12,6 Z m 6,12 H 6 v -1 c 0,-2 4,-3.1 6,-3.1 2,0 6,1.1 6,3.1 z"
       id="path3367"
       transform="matrix(0.264583,0,0,0.264583,82.55,129.396)" />
  </g>
</svg>
