<?xml version="1.0" encoding="UTF-8" standalone="no"?>
<!-- Created with Inkscape (http://www.inkscape.org/) -->

<svg
   id="svg1100"
   version="1.1"
   viewBox="0 0 6.3131466 6.3499918"
   height="6.3499918mm"
   width="6.3131466mm"
   xmlns="http://www.w3.org/2000/svg"
   xmlns:svg="http://www.w3.org/2000/svg">
  <defs
     id="defs1097" />
  <g
     id="New_Layer_1652807080.7527657"
     style="display:inline"
     transform="translate(-72.2497,-129.131)">
    <path
       fill="#323232"
       d="m 18.99,11.5 c 0.34,0 0.67,0.03 1,0.07 L 20,0 0,20 h 11.56 c -0.04,-0.33 -0.07,-0.66 -0.07,-1 0,-4.14 3.36,-7.5 7.5,-7.5 z m 3.71,7.99 c 0.02,-0.16 0.04,-0.32 0.04,-0.49 0,-0.17 -0.01,-0.33 -0.04,-0.49 l 1.06,-0.83 a 0.26,0.26 0 0 0 0.06,-0.32 l -1,-1.73 c -0.06,-0.11 -0.19,-0.15 -0.31,-0.11 l -1.24,0.5 c -0.26,-0.2 -0.54,-0.37 -0.85,-0.49 L 20.23,14.21 C 20.22,14.09 20.11,14 19.99,14 h -2 c -0.12,0 -0.23,0.09 -0.25,0.21 l -0.19,1.32 c -0.3,0.13 -0.59,0.29 -0.85,0.49 l -1.24,-0.5 c -0.11,-0.04 -0.24,0 -0.31,0.11 l -1,1.73 c -0.06,0.11 -0.04,0.24 0.06,0.32 l 1.06,0.83 a 3.908,3.908 0 0 0 0,0.98 l -1.06,0.83 a 0.26,0.26 0 0 0 -0.06,0.32 l 1,1.73 c 0.06,0.11 0.19,0.15 0.31,0.11 l 1.24,-0.5 c 0.26,0.2 0.54,0.37 0.85,0.49 l 0.19,1.32 c 0.02,0.12 0.12,0.21 0.25,0.21 h 2 c 0.12,0 0.23,-0.09 0.25,-0.21 l 0.19,-1.32 c 0.3,-0.13 0.59,-0.29 0.84,-0.49 l 1.25,0.5 c 0.11,0.04 0.24,0 0.31,-0.11 l 1,-1.73 a 0.26,0.26 0 0 0 -0.06,-0.32 z m -3.71,1.01 c -0.83,0 -1.5,-0.67 -1.5,-1.5 0,-0.83 0.67,-1.5 1.5,-1.5 0.83,0 1.5,0.67 1.5,1.5 0,0.83 -0.67,1.5 -1.5,1.5 z"
       id="path3378"
       transform="matrix(0.264583,0,0,0.264583,72.2497,129.131)" />
  </g>
</svg>
