<?xml version="1.0" encoding="UTF-8" standalone="no"?>
<!-- Created with Inkscape (http://www.inkscape.org/) -->

<svg
   id="svg1100"
   version="1.1"
   viewBox="0 0 4.2333279 5.2916598"
   height="5.2916598mm"
   width="4.2333279mm"
   xmlns="http://www.w3.org/2000/svg"
   xmlns:svg="http://www.w3.org/2000/svg">
  <defs
     id="defs1097" />
  <g
     id="New_Layer_1652807080.7546353"
     style="display:inline"
     transform="translate(-135.20233,-129.66017)">
    <path
       fill="#323232"
       d="M 14,2 H 6 C 4.9,2 4,2.9 4,4 v 16 c 0,1.1 0.89,2 1.99,2 H 18 c 1.1,0 2,-0.9 2,-2 V 8 Z m 1.04,17.45 -1.88,-1.88 c -1.33,0.71 -3.01,0.53 -4.13,-0.59 a 3.495,3.495 0 0 1 0,-4.95 3.495,3.495 0 0 1 4.95,0 3.48,3.48 0 0 1 0.59,4.13 l 1.88,1.88 z M 13,9 V 3.5 L 18.5,9 Z"
       id="path3477"
       transform="matrix(0.264583,0,0,0.264583,134.144,129.131)" />
    <path
       fill="#323232"
       d="m 11.5,16 a 1.5,1.5 0 1 0 0,-3 1.5,1.5 0 0 0 0,3 z"
       id="path3479"
       transform="matrix(0.264583,0,0,0.264583,134.144,129.131)" />
  </g>
</svg>
