<?xml version="1.0" encoding="UTF-8" standalone="no"?>
<!-- Created with Inkscape (http://www.inkscape.org/) -->

<svg
   id="svg1100"
   version="1.1"
   viewBox="0 0 2.1166639 5.2916598"
   height="5.2916598mm"
   width="2.1166639mm"
   xmlns="http://www.w3.org/2000/svg"
   xmlns:svg="http://www.w3.org/2000/svg">
  <defs
     id="defs1097" />
  <g
     id="New_Layer_1652807080.7563787"
     style="display:inline"
     transform="translate(-115.62266,-129.66017)">
    <path
       fill="#323232"
       d="M 9,4 C 9,2.89 9.89,2 11,2 12.11,2 13,2.89 13,4 13,5.11 12.11,6 11,6 9.89,6 9,5.11 9,4 Z m 7,9 A 3.285,3.285 0 0 0 14,10 C 14,8.34 12.66,7 11,7 9.34,7 8,8.34 8,10 v 7 h 2 v 5 h 3 v -5 h 3 z"
       id="path3524"
       transform="matrix(0.264583,0,0,0.264583,113.506,129.131)" />
  </g>
</svg>
