<?xml version="1.0" encoding="UTF-8" standalone="no"?>
<!-- Created with Inkscape (http://www.inkscape.org/) -->

<svg
   id="svg1100"
   version="1.1"
   viewBox="0 0 6.0139718 6.0139718"
   height="6.0139718mm"
   width="6.0139718mm"
   xmlns="http://www.w3.org/2000/svg"
   xmlns:svg="http://www.w3.org/2000/svg">
  <defs
     id="defs1097" />
  <g
     id="New_Layer_1652807080.7582467"
     style="display:inline"
     transform="translate(-175.587,-129.29902)">
    <path
       fill="#323232"
       d="M 22.73,22.73 2.77,2.77 2,2 1.27,1.27 0,2.54 4.39,6.93 6.6,11.59 5.25,14.04 C 5.09,14.32 5,14.65 5,15 c 0,1.1 0.9,2 2,2 h 7.46 l 1.38,1.38 A 1.997,1.997 0 0 0 17,22 c 0.67,0 1.26,-0.33 1.62,-0.84 L 21.46,24 Z M 7.42,15 C 7.28,15 7.17,14.89 7.17,14.75 L 7.2,14.63 8.1,13 h 2.36 l 2,2 z m 8.13,-2 c 0.75,0 1.41,-0.41 1.75,-1.03 L 20.88,5.48 A 1.003,1.003 0 0 0 20,4 H 6.54 Z M 7,18 c -1.1,0 -1.99,0.9 -1.99,2 0,1.1 0.89,2 1.99,2 1.1,0 2,-0.9 2,-2 0,-1.1 -0.9,-2 -2,-2 z"
       id="path3662"
       transform="matrix(0.264583,0,0,0.264583,175.587,128.963)" />
  </g>
</svg>
