<?xml version="1.0" encoding="UTF-8" standalone="no"?>
<!-- Created with Inkscape (http://www.inkscape.org/) -->

<svg
   id="svg1100"
   version="1.1"
   viewBox="0 0 4.2333279 5.2916598"
   height="5.2916598mm"
   width="4.2333279mm"
   xmlns="http://www.w3.org/2000/svg"
   xmlns:svg="http://www.w3.org/2000/svg">
  <defs
     id="defs1097" />
  <g
     id="New_Layer_1652807080.7588778"
     style="display:inline"
     transform="translate(-166.15833,-129.66017)">
    <path
       fill="#323232"
       d="M 14,2 H 6 C 4.9,2 4,2.9 4,4 v 16 c 0,1.1 0.9,2 2,2 h 12 c 1.1,0 2,-0.9 2,-2 V 8 Z m 1,9 h -4 v 1 h 3 c 0.55,0 1,0.45 1,1 v 3 c 0,0.55 -0.45,1 -1,1 h -1 v 1 H 11 V 17 H 9 v -2 h 4 V 14 H 10 C 9.45,14 9,13.55 9,13 V 10 C 9,9.45 9.45,9 10,9 h 1 V 8 h 2 v 1 h 2 z"
       id="path3695"
       transform="matrix(0.264583,0,0,0.264583,165.1,129.131)" />
  </g>
</svg>
