<?xml version="1.0" encoding="UTF-8" standalone="no"?>
<!-- Created with Inkscape (http://www.inkscape.org/) -->

<svg
   id="svg1100"
   version="1.1"
   viewBox="0 0 4.2333279 5.2916598"
   height="5.2916598mm"
   width="4.2333279mm"
   xmlns="http://www.w3.org/2000/svg"
   xmlns:svg="http://www.w3.org/2000/svg">
  <defs
     id="defs1097" />
  <g
     id="New_Layer_1652807080.760134"
     style="display:inline"
     transform="translate(-11.377132,-139.97917)">
    <path
       fill="#323232"
       d="M 14,2 H 6 C 4.9,2 4.01,2.9 4.01,4 L 4,20 c 0,1.1 0.89,2 1.99,2 H 18 c 1.1,0 2,-0.9 2,-2 V 8 Z M 12,18 C 9.95,18 8.19,16.76 7.42,15 h 1.71 c 0.63,0.9 1.68,1.5 2.87,1.5 1.93,0 3.5,-1.57 3.5,-3.5 0,-1.93 -1.57,-3.5 -3.5,-3.5 a 3.5,3.5 0 0 0 -3.1,1.9 l 1.6,1.6 h -4 V 9 l 1.3,1.3 C 8.69,8.92 10.23,8 12,8 c 2.76,0 5,2.24 5,5 0,2.76 -2.24,5 -5,5 z"
       id="path3728"
       transform="matrix(0.264583,0,0,0.264583,10.3188,139.45)" />
  </g>
</svg>
