<?xml version="1.0" encoding="UTF-8" standalone="no"?>
<!-- Created with Inkscape (http://www.inkscape.org/) -->

<svg
   id="svg1100"
   version="1.1"
   viewBox="0 0 4.7624941 4.7624941"
   height="4.7624941mm"
   width="4.7624941mm"
   xmlns="http://www.w3.org/2000/svg"
   xmlns:svg="http://www.w3.org/2000/svg">
  <defs
     id="defs1097" />
  <g
     id="New_Layer_1652807080.761371"
     style="display:inline"
     transform="translate(-31.750049,-140.24375)">
    <path
       fill="#323232"
       d="m 19,19 h 2 v 2 h -2 z m 0,-2 h 2 V 15 H 19 Z M 3,13 H 5 V 11 H 3 Z m 0,4 H 5 V 15 H 3 Z M 3,9 H 5 V 7 H 3 Z M 3,5 H 5 V 3 H 3 Z M 7,5 H 9 V 3 H 7 Z m 8,16 h 2 v -2 h -2 z m -4,0 h 2 v -2 h -2 z m 4,0 h 2 V 19 H 15 Z M 7,21 H 9 V 19 H 7 Z M 3,21 H 5 V 19 H 3 Z M 21,8 C 21,5.24 18.76,3 16,3 h -5 v 2 h 5 c 1.65,0 3,1.35 3,3 v 5 h 2 z"
       id="path3750"
       transform="matrix(0.264583,0,0,0.264583,30.9563,139.45)" />
  </g>
</svg>
