<?xml version="1.0" encoding="UTF-8" standalone="no"?>
<!-- Created with Inkscape (http://www.inkscape.org/) -->

<svg
   id="svg1100"
   version="1.1"
   viewBox="0 0 4.7624941 5.2916598"
   height="5.2916598mm"
   width="4.7624941mm"
   xmlns="http://www.w3.org/2000/svg"
   xmlns:svg="http://www.w3.org/2000/svg">
  <defs
     id="defs1097" />
  <g
     id="New_Layer_1652806942.9112294"
     style="display:inline"
     transform="translate(-145.25575,-47.110366)">
    <path
       fill="#323232"
       d="M 20.5,6 C 17.89,6.7 14.83,7 12,7 9.17,7 6.11,6.7 3.5,6 L 3,8 c 1.86,0.5 4,0.83 6,1 v 13 h 2 v -6 h 2 v 6 h 2 V 9 C 17,8.83 19.14,8.5 21,8 Z M 12,6 c 1.1,0 2,-0.9 2,-2 0,-1.1 -0.9,-2 -2,-2 -1.1,0 -2,0.9 -2,2 0,1.1 0.9,2 2,2 z"
       id="path1183"
       transform="matrix(0.264583,0,0,0.264583,144.462,46.5812)" />
  </g>
</svg>
