<?xml version="1.0" encoding="UTF-8" standalone="no"?>
<!-- Created with Inkscape (http://www.inkscape.org/) -->

<svg
   id="svg1100"
   version="1.1"
   viewBox="0 0 5.5560017 4.7624941"
   height="4.7624941mm"
   width="5.5560017mm"
   xmlns="http://www.w3.org/2000/svg"
   xmlns:svg="http://www.w3.org/2000/svg">
  <defs
     id="defs1097" />
  <g
     id="New_Layer_1652807080.76512"
     style="display:inline"
     transform="translate(-51.9907,-140.24375)">
    <path
       fill="#323232"
       d="m 14,12 c 0,-1.1 -0.9,-2 -2,-2 -1.1,0 -2,0.9 -2,2 0,1.1 0.9,2 2,2 1.1,0 2,-0.9 2,-2 z M 12,3 A 9,9 0 0 0 3,12 H 0 l 4,4 4,-4 H 5 c 0,-3.87 3.13,-7 7,-7 3.87,0 7,3.13 7,7 A 6.995,6.995 0 0 1 7.94,17.7 L 6.52,19.14 A 9,9 0 1 0 12,3 Z"
       id="path3888"
       transform="matrix(0.264583,0,0,0.264583,51.9907,139.45)" />
  </g>
</svg>
