<?xml version="1.0" encoding="UTF-8" standalone="no"?>
<!-- Created with Inkscape (http://www.inkscape.org/) -->

<svg
   id="svg1100"
   version="1.1"
   viewBox="0 0 3.36285 6.3499918"
   height="6.3499918mm"
   width="3.36285mm"
   xmlns="http://www.w3.org/2000/svg"
   xmlns:svg="http://www.w3.org/2000/svg">
  <defs
     id="defs1097" />
  <g
     id="New_Layer_1652807080.765746"
     style="display:inline"
     transform="translate(-187.23091,-129.131)">
    <path
       fill="#323232"
       d="m 11,24 h 2 V 22 H 11 Z M 7,24 H 9 V 22 H 7 Z m 8,0 h 2 V 22 H 15 Z M 17.71,5.71 12,0 H 11 V 7.59 L 6.41,3 5,4.41 10.59,10 5,15.59 6.41,17 11,12.41 V 20 h 1 L 17.71,14.29 13.41,10 Z M 13,3.83 14.88,5.71 13,7.59 Z M 14.88,14.29 13,16.17 v -3.76 z"
       id="path3899"
       transform="matrix(0.264583,0,0,0.264583,185.908,129.131)" />
  </g>
</svg>
