<?xml version="1.0" encoding="UTF-8" standalone="no"?>
<!-- Created with Inkscape (http://www.inkscape.org/) -->

<svg
   id="svg1100"
   version="1.1"
   viewBox="0 0 3.1749959 6.3499918"
   height="6.3499918mm"
   width="3.1749959mm"
   xmlns="http://www.w3.org/2000/svg"
   xmlns:svg="http://www.w3.org/2000/svg">
  <defs
     id="defs1097" />
  <g
     id="New_Layer_1652807080.766359"
     style="display:inline"
     transform="translate(-73.818698,-139.45)">
    <path
       fill="#323232"
       d="M 7,24 H 9 V 22 H 7 Z m 4,0 h 2 v -2 h -2 z m 4,0 h 2 V 22 H 15 Z M 16,0.01 8,0 C 6.9,0 6,0.9 6,2 v 16 c 0,1.1 0.9,2 2,2 h 8 c 1.1,0 2,-0.9 2,-2 V 2 C 18,0.9 17.1,0.01 16,0.01 Z M 16,16 H 8 V 4 h 8 z"
       id="path3921"
       transform="matrix(0.264583,0,0,0.264583,72.2312,139.45)" />
  </g>
</svg>
