<?xml version="1.0" encoding="UTF-8" standalone="no"?>
<!-- Created with Inkscape (http://www.inkscape.org/) -->

<svg
   id="svg1100"
   version="1.1"
   viewBox="0 0 5.8208261 5.0218329"
   height="5.0218329mm"
   width="5.8208261mm"
   xmlns="http://www.w3.org/2000/svg"
   xmlns:svg="http://www.w3.org/2000/svg">
  <defs
     id="defs1097" />
  <g
     id="New_Layer_1652807080.766982"
     style="display:inline"
     transform="translate(-93.133283,-140.11441)">
    <path
       fill="#323232"
       d="M 17.21,9 12.83,2.44 A 0.993,0.993 0 0 0 12,2.02 c -0.32,0 -0.64,0.14 -0.83,0.43 L 6.79,9 H 2 c -0.55,0 -1,0.45 -1,1 0,0.09 0.01,0.18 0.04,0.27 l 2.54,9.27 C 3.81,20.38 4.58,21 5.5,21 h 13 c 0.92,0 1.69,-0.62 1.93,-1.46 L 22.97,10.27 23,10 C 23,9.45 22.55,9 22,9 Z M 9,9 12,4.6 15,9 Z m 3,8 c -1.1,0 -2,-0.9 -2,-2 0,-1.1 0.9,-2 2,-2 1.1,0 2,0.9 2,2 0,1.1 -0.9,2 -2,2 z"
       id="path4075"
       transform="matrix(0.264583,0,0,0.264583,92.8687,139.58)" />
  </g>
</svg>
