<?xml version="1.0" encoding="UTF-8" standalone="no"?>
<!-- Created with Inkscape (http://www.inkscape.org/) -->

<svg
   id="svg1100"
   version="1.1"
   viewBox="0 0 5.8208261 5.2916598"
   height="5.2916598mm"
   width="5.8208261mm"
   xmlns="http://www.w3.org/2000/svg"
   xmlns:svg="http://www.w3.org/2000/svg">
  <defs
     id="defs1097" />
  <g
     id="New_Layer_1652806942.9118476"
     style="display:inline"
     transform="translate(-0.264577,-47.110366)">
    <path
       fill="#323232"
       d="M 22,5.18 10.59,16.6 6.35,12.36 l 1.41,-1.41 2.83,2.83 10,-10 z M 12,20 C 7.59,20 4,16.41 4,12 4,7.59 7.59,4 12,4 c 1.57,0 3.04,0.46 4.28,1.25 L 17.73,3.8 A 10.02,10.02 0 0 0 12,2 C 6.48,2 2,6.48 2,12 c 0,5.52 4.48,10 10,10 1.73,0 3.36,-0.44 4.78,-1.22 l -1.5,-1.5 C 14.28,19.74 13.17,20 12,20 Z m 7,-5 h -3 v 2 h 3 v 3 h 2 v -3 h 3 v -2 h -3 v -3 h -2 z"
       id="path1282"
       transform="matrix(0.264583,0,0,0.264583,-0.264589,46.5812)" />
  </g>
</svg>
