<?xml version="1.0" encoding="UTF-8" standalone="no"?>
<!-- Created with Inkscape (http://www.inkscape.org/) -->

<svg
   id="svg1100"
   version="1.1"
   viewBox="0 0 5.5456596 5.4265971"
   height="5.4265971mm"
   width="5.5456595mm"
   xmlns="http://www.w3.org/2000/svg"
   xmlns:svg="http://www.w3.org/2000/svg">
  <defs
     id="defs1097" />
  <g
     id="New_Layer_1652807080.7688498"
     style="display:inline"
     transform="translate(-21.039666,-129.59323)">
    <path
       fill="#323232"
       d="M 20,4 H 6.83 l 8,8 H 20 v 2 h -3.17 l 4.93,4.93 C 21.91,18.65 22,18.34 22,18 V 6 C 22,4.9 21.1,4 20,4 Z M 1.04,3.87 2.24,5.07 C 2.09,5.35 2,5.66 2,6 v 12 c 0,1.1 0.9,2 2,2 h 13.17 l 2.96,2.96 1.41,-1.41 L 2.45,2.45 Z M 8,12 v 2 H 4 v -2 z m 6,4.83 V 18 H 4 v -2 h 9.17 z"
       id="path4218"
       transform="matrix(0.264583,0,0,0.264583,20.7645,128.945)" />
  </g>
</svg>
