<?xml version="1.0" encoding="UTF-8" standalone="no"?>
<!-- Created with Inkscape (http://www.inkscape.org/) -->

<svg
   id="svg1100"
   version="1.1"
   viewBox="0 0 5.8208261 5.2916598"
   height="5.2916598mm"
   width="5.8208261mm"
   xmlns="http://www.w3.org/2000/svg"
   xmlns:svg="http://www.w3.org/2000/svg">
  <defs
     id="defs1097" />
  <g
     id="New_Layer_1652807080.7694764"
     style="display:inline"
     transform="translate(-124.08958,-119.34175)">
    <path
       fill="#323232"
       d="M 15,3 H 6 C 5.17,3 4.46,3.5 4.16,4.22 L 1.14,11.27 C 1.05,11.5 1,11.74 1,12 v 2 c 0,1.1 0.9,2 2,2 h 6.31 l -0.95,4.57 -0.03,0.32 c 0,0.41 0.17,0.79 0.44,1.06 L 9.83,23 16.42,16.41 C 16.78,16.05 17,15.55 17,15 V 5 C 17,3.9 16.1,3 15,3 Z m 4,0 v 12 h 4 V 3 Z"
       id="path4457"
       transform="matrix(0.264583,0,0,0.264583,123.825,118.548)" />
  </g>
</svg>
