<?xml version="1.0" encoding="UTF-8" standalone="no"?>
<!-- Created with Inkscape (http://www.inkscape.org/) -->

<svg
   id="svg1100"
   version="1.1"
   viewBox="0 0 5.8208261 3.1749959"
   height="3.1749959mm"
   width="5.8208261mm"
   xmlns="http://www.w3.org/2000/svg"
   xmlns:svg="http://www.w3.org/2000/svg">
  <defs
     id="defs1097" />
  <g
     id="New_Layer_1652807080.7707295"
     style="display:inline"
     transform="translate(-186.00258,-141.0375)">
    <path
       fill="#323232"
       d="m 23,8 c 0,1.1 -0.9,2 -2,2 A 1.7,1.7 0 0 1 20.49,9.93 l -3.56,3.55 C 16.98,13.64 17,13.82 17,14 c 0,1.1 -0.9,2 -2,2 -1.1,0 -2,-0.9 -2,-2 0,-0.18 0.02,-0.36 0.07,-0.52 L 10.52,10.93 C 10.36,10.98 10.18,11 10,11 9.82,11 9.64,10.98 9.48,10.93 L 4.93,15.49 C 4.98,15.65 5,15.82 5,16 5,17.1 4.1,18 3,18 1.9,18 1,17.1 1,16 c 0,-1.1 0.9,-2 2,-2 0.18,0 0.35,0.02 0.51,0.07 L 8.07,9.52 C 8.02,9.36 8,9.18 8,9 8,7.9 8.9,7 10,7 c 1.1,0 2,0.9 2,2 0,0.18 -0.02,0.36 -0.07,0.52 l 2.55,2.55 C 14.64,12.02 14.82,12 15,12 c 0.18,0 0.36,0.02 0.52,0.07 L 19.07,8.51 A 1.7,1.7 0 0 1 19,8 c 0,-1.1 0.9,-2 2,-2 1.1,0 2,0.9 2,2 z"
       id="path4512"
       transform="matrix(0.264583,0,0,0.264583,185.738,139.45)" />
  </g>
</svg>
