<?xml version="1.0" encoding="UTF-8" standalone="no"?>
<!-- Created with Inkscape (http://www.inkscape.org/) -->

<svg
   id="svg1100"
   version="1.1"
   viewBox="0 0 5.8208261 5.2916598"
   height="5.2916598mm"
   width="5.8208261mm"
   xmlns="http://www.w3.org/2000/svg"
   xmlns:svg="http://www.w3.org/2000/svg">
  <defs
     id="defs1097" />
  <g
     id="New_Layer_1652807080.7713413"
     style="display:inline"
     transform="translate(-0.2645842,-129.66017)">
    <path
       fill="#323232"
       d="m 12.87,15.07 -2.54,-2.51 0.03,-0.03 A 17.52,17.52 0 0 0 14.07,6 H 17 V 4 H 10 V 2 H 8 V 4 H 1 V 5.99 H 12.17 C 11.5,7.92 10.44,9.75 9,11.35 8.07,10.32 7.3,9.19 6.69,8 h -2 c 0.73,1.63 1.73,3.17 2.98,4.56 L 2.58,17.58 4,19 9,14 12.11,17.11 Z M 18.5,10 h -2 L 12,22 h 2 l 1.12,-3 h 4.75 L 21,22 h 2 z m -2.62,7 1.62,-4.33 1.62,4.33 z"
       id="path4589"
       transform="matrix(0.264583,0,0,0.264583,1.2e-6,129.131)" />
  </g>
</svg>
