<?xml version="1.0" encoding="UTF-8" standalone="no"?>
<!-- Created with Inkscape (http://www.inkscape.org/) -->

<svg
   id="svg1100"
   version="1.1"
   viewBox="0 0 5.384264 5.3287015"
   height="5.3287015mm"
   width="5.384264mm"
   xmlns="http://www.w3.org/2000/svg"
   xmlns:svg="http://www.w3.org/2000/svg">
  <defs
     id="defs1097" />
  <g
     id="New_Layer_1652807144.8793962"
     style="display:inline"
     transform="translate(-10.801662,-150.27912)">
    <path
       fill="#323232"
       d="m 12,6 c 3.87,0 7,3.13 7,7 0,0.84 -0.16,1.65 -0.43,2.4 l 1.52,1.52 C 20.67,15.73 21,14.41 21,13 A 9,9 0 0 0 12,4 C 10.59,4 9.27,4.33 8.08,4.91 L 9.6,6.43 C 10.35,6.16 11.16,6 12,6 Z M 22,5.72 17.4,1.86 16.11,3.39 20.71,7.25 Z M 2.92,2.29 1.65,3.57 2.98,4.9 1.87,5.83 3.29,7.25 4.4,6.31 5.2,7.11 A 8.964,8.964 0 0 0 3,13 c 0,4.97 4.02,9 9,9 2.25,0 4.31,-0.83 5.89,-2.2 L 20.09,22 21.36,20.73 3.89,3.27 Z m 13.55,16.1 C 15.26,19.39 13.7,20 12,20 8.13,20 5,16.87 5,13 5,11.3 5.61,9.74 6.61,8.53 Z M 8.02,3.28 6.6,1.86 5.74,2.57 7.16,3.99 Z"
       id="path1340"
       transform="matrix(0.264583,0,0,0.264583,10.3651,149.787)" />
  </g>
</svg>
