<?xml version="1.0" encoding="UTF-8" standalone="no"?>
<!-- Created with Inkscape (http://www.inkscape.org/) -->

<svg
   id="svg1100"
   version="1.1"
   viewBox="0 0 5.8208261 3.3396008"
   height="3.3396008mm"
   width="5.8208261mm"
   xmlns="http://www.w3.org/2000/svg"
   xmlns:svg="http://www.w3.org/2000/svg">
  <defs
     id="defs1097" />
  <g
     id="New_Layer_1652807144.8801644"
     style="display:inline"
     transform="translate(-124.08958,-171.91089)">
    <path
       fill="#323232"
       d="M 17.6,9.48 19.44,6.3 C 19.6,5.99 19.48,5.61 19.18,5.45 a 0.637,0.637 0 0 0 -0.83,0.22 l -1.88,3.24 a 11.463,11.463 0 0 0 -8.94,0 L 5.65,5.67 A 0.643,0.643 0 0 0 4.78,5.47 C 4.5,5.65 4.41,6.01 4.56,6.3 L 6.4,9.48 A 10.78,10.78 0 0 0 1,18 H 23 A 10.78,10.78 0 0 0 17.6,9.48 Z M 7,15.25 a 1.25,1.25 0 1 1 0,-2.5 1.25,1.25 0 0 1 0,2.5 z m 10,0 a 1.25,1.25 0 1 1 0,-2.5 1.25,1.25 0 0 1 0,2.5 z"
       id="path1414"
       transform="matrix(0.264583,0,0,0.264583,123.825,170.488)" />
  </g>
</svg>
