<?xml version="1.0" encoding="UTF-8" standalone="no"?>
<!-- Created with Inkscape (http://www.inkscape.org/) -->

<svg
   id="svg1100"
   version="1.1"
   viewBox="0 0 6.0854092 5.5562429"
   height="5.5562429mm"
   width="6.0854092mm"
   xmlns="http://www.w3.org/2000/svg"
   xmlns:svg="http://www.w3.org/2000/svg">
  <defs
     id="defs1097" />
  <g
     id="New_Layer_1652807144.883098"
     style="display:inline"
     transform="translate(-103.31958,-160.48475)">
    <path
       fill="#323232"
       d="M 16.5,9 C 16.08,9 15.67,9.04 15.26,9.11 L 1.01,3 1,10 l 9,2 -9,2 0.01,7 8.07,-3.46 C 9.59,21.19 12.71,24 16.5,24 20.64,24 24,20.64 24,16.5 24,12.36 20.64,9 16.5,9 Z m 0,13 A 5.51,5.51 0 0 1 11,16.5 c 0,-3.03 2.47,-5.5 5.5,-5.5 3.03,0 5.5,2.47 5.5,5.5 0,3.03 -2.47,5.5 -5.5,5.5 z"
       id="path1772"
       transform="matrix(0.264583,0,0,0.264583,103.055,159.691)" />
    <path
       fill="#323232"
       d="m 18.27,14.03 -1.77,1.76 -1.77,-1.76 -0.7,0.7 1.76,1.77 -1.76,1.77 0.7,0.7 1.77,-1.76 1.77,1.76 0.7,-0.7 -1.76,-1.77 1.76,-1.77 z"
       id="path1774"
       transform="matrix(0.264583,0,0,0.264583,103.055,159.691)" />
  </g>
</svg>
