<?xml version="1.0" encoding="UTF-8" standalone="no"?>
<!-- Created with Inkscape (http://www.inkscape.org/) -->

<svg
   id="svg1100"
   version="1.1"
   viewBox="0 0 5.2916598 5.0270772"
   height="5.0270772mm"
   width="5.2916598mm"
   xmlns="http://www.w3.org/2000/svg"
   xmlns:svg="http://www.w3.org/2000/svg">
  <defs
     id="defs1097" />
  <g
     id="New_Layer_1652807144.884237"
     style="display:inline"
     transform="translate(-124.35417,-150.43017)">
    <path
       fill="#323232"
       d="M 20,6 H 17 V 4 C 17,2.89 16.11,2 15,2 H 9 C 7.89,2 7,2.89 7,4 V 6 H 4 C 2.89,6 2,6.89 2,8 v 11 c 0,1.11 0.89,2 2,2 h 16 c 1.11,0 2,-0.89 2,-2 V 8 C 22,6.89 21.11,6 20,6 Z M 9,4 h 6 V 6 H 9 Z M 20,19 H 4 v -2 h 16 z m 0,-5 H 4 V 8 h 3 v 2 H 9 V 8 h 6 v 2 h 2 V 8 h 3 z"
       id="path1808"
       transform="matrix(0.264583,0,0,0.264583,123.825,149.901)" />
  </g>
</svg>
