<?xml version="1.0" encoding="UTF-8" standalone="no"?>
<!-- Created with Inkscape (http://www.inkscape.org/) -->

<svg
   id="svg1100"
   version="1.1"
   viewBox="0 0 5.8208261 4.497911"
   height="4.497911mm"
   width="5.8208261mm"
   xmlns="http://www.w3.org/2000/svg"
   xmlns:svg="http://www.w3.org/2000/svg">
  <defs
     id="defs1097" />
  <g
     id="New_Layer_1652807144.8848655"
     style="display:inline"
     transform="translate(-72.495783,-161.01333)">
    <path
       fill="#323232"
       d="m 13,12 h 7 v 1.5 h -7 z m 0,-2.5 h 7 V 11 h -7 z m 0,5 h 7 V 16 H 13 Z M 21,4 H 3 C 1.9,4 1,4.9 1,6 v 13 c 0,1.1 0.9,2 2,2 h 18 c 1.1,0 2,-0.9 2,-2 V 6 C 23,4.9 22.1,4 21,4 Z m 0,15 H 12 V 6 h 9 z"
       id="path1852"
       transform="matrix(0.264583,0,0,0.264583,72.2312,159.955)" />
  </g>
</svg>
