<?xml version="1.0" encoding="UTF-8" standalone="no"?>
<!-- Created with Inkscape (http://www.inkscape.org/) -->

<svg
   id="svg1100"
   version="1.1"
   viewBox="0 0 5.2916598 5.2916598"
   height="5.2916598mm"
   width="5.2916598mm"
   xmlns="http://www.w3.org/2000/svg"
   xmlns:svg="http://www.w3.org/2000/svg">
  <defs
     id="defs1097" />
  <g
     id="New_Layer_1652806942.9135525"
     style="display:inline"
     transform="translate(-31.485466,-26.472866)">
    <path
       fill="#323232"
       d="M 12,20 C 7.59,20 4,16.41 4,12 4,7.59 7.59,4 12,4 c 4.41,0 8,3.59 8,8 0,4.41 -3.59,8 -8,8 z m 0,2 C 17.52,22 22,17.52 22,12 22,6.48 17.52,2 12,2 6.48,2 2,6.48 2,12 2,17.52 6.48,22 12,22 Z M 11,12 v 4 h 2 v -4 h 3 L 12,8 8,12 Z"
       id="path1469"
       transform="matrix(0.264583,0,0,0.264583,30.9563,25.9437)" />
  </g>
</svg>
