<?xml version="1.0" encoding="UTF-8" standalone="no"?>
<!-- Created with Inkscape (http://www.inkscape.org/) -->

<svg
   id="svg1100"
   version="1.1"
   viewBox="0 0 5.2916598 4.2333278"
   height="4.2333279mm"
   width="5.2916598mm"
   xmlns="http://www.w3.org/2000/svg"
   xmlns:svg="http://www.w3.org/2000/svg">
  <defs
     id="defs1097" />
  <g
     id="New_Layer_1652807144.887359"
     style="display:inline"
     transform="translate(-72.760366,-171.46433)">
    <path
       fill="#323232"
       d="M 17,20 V 11 H 15 V 4 h 7 l -2,5 h 2 z m -2,-7 v 7 H 4 C 2.9,20 2,19.1 2,18 v -3 c 0,-1.1 0.9,-2 2,-2 z m -8.75,2.75 h -1.5 v 1.5 h 1.5 z M 13,4 v 7 H 4 C 2.9,11 2,10.1 2,9 V 6 C 2,4.9 2.9,4 4,4 Z M 6.25,6.75 h -1.5 v 1.5 h 1.5 z"
       id="path2190"
       transform="matrix(0.264583,0,0,0.264583,72.2312,170.406)" />
  </g>
</svg>
