<?xml version="1.0" encoding="UTF-8" standalone="no"?>
<!-- Created with Inkscape (http://www.inkscape.org/) -->

<svg
   id="svg1100"
   version="1.1"
   viewBox="0 0 4.7624941 4.762495"
   height="4.762495mm"
   width="4.7624941mm"
   xmlns="http://www.w3.org/2000/svg"
   xmlns:svg="http://www.w3.org/2000/svg">
  <defs
     id="defs1097" />
  <g
     id="New_Layer_1652807144.8879867"
     style="display:inline"
     transform="translate(-11.112549,-160.88075)">
    <path
       fill="#323232"
       d="M 15,18.5 A 6.48,6.48 0 0 1 9.24,15 H 15 V 13 H 8.58 C 8.53,12.67 8.5,12.34 8.5,12 8.5,11.66 8.53,11.33 8.58,11 H 15 V 9 H 9.24 A 6.491,6.491 0 0 1 15,5.5 c 1.61,0 3.09,0.59 4.23,1.57 L 21,5.3 A 8.955,8.955 0 0 0 15,3 C 11.08,3 7.76,5.51 6.52,9 H 3 v 2 h 3.06 a 8.262,8.262 0 0 0 0,2 H 3 v 2 h 3.52 c 1.24,3.49 4.56,6 8.48,6 2.31,0 4.41,-0.87 6,-2.3 L 19.22,16.93 C 18.09,17.91 16.62,18.5 15,18.5 Z"
       id="path2234"
       transform="matrix(0.264583,0,0,0.264583,10.3188,160.087)" />
  </g>
</svg>
