<?xml version="1.0" encoding="UTF-8" standalone="no"?>
<!-- Created with Inkscape (http://www.inkscape.org/) -->

<svg
   id="svg1100"
   version="1.1"
   viewBox="0 0 5.8208261 1.5874979"
   height="1.5874979mm"
   width="5.8208261mm"
   xmlns="http://www.w3.org/2000/svg"
   xmlns:svg="http://www.w3.org/2000/svg">
  <defs
     id="defs1097" />
  <g
     id="New_Layer_1652807144.8904982"
     style="display:inline"
     transform="translate(-134.40858,-152.15025)">
    <path
       fill="#323232"
       d="m 4.5,11 h -2 V 9 H 1 v 6 h 1.5 v -2.5 h 2 V 15 H 6 V 9 H 4.5 Z M 7,10.5 H 8.5 V 15 H 10 v -4.5 h 1.5 V 9 H 7 Z m 5.5,0 H 14 V 15 h 1.5 V 10.5 H 17 V 9 H 12.5 Z M 21.5,9 H 18 v 6 h 1.5 v -2 h 2 c 0.8,0 1.5,-0.7 1.5,-1.5 v -1 C 23,9.7 22.3,9 21.5,9 Z m 0,2.5 h -2 v -1 h 2 z"
       id="path2729"
       transform="matrix(0.264583,0,0,0.264583,134.144,149.769)" />
  </g>
</svg>
