<?xml version="1.0" encoding="UTF-8" standalone="no"?>
<!-- Created with Inkscape (http://www.inkscape.org/) -->

<svg
   id="svg1100"
   version="1.1"
   viewBox="0 0 5.2916598 5.0282469"
   height="5.0282469mm"
   width="5.2916598mm"
   xmlns="http://www.w3.org/2000/svg"
   xmlns:svg="http://www.w3.org/2000/svg">
  <defs
     id="defs1097" />
  <g
     id="New_Layer_1652807144.8942654"
     style="display:inline"
     transform="translate(-31.485466,-150.42975)">
    <path
       fill="#323232"
       d="m 4.5,12 a 2.5,2.5 0 1 0 0,-5 2.5,2.5 0 0 0 0,5 z M 9,8 A 2.5,2.5 0 1 0 9,3 2.5,2.5 0 0 0 9,8 Z m 6,0 a 2.5,2.5 0 1 0 0,-5 2.5,2.5 0 0 0 0,5 z m 4.5,4 a 2.5,2.5 0 1 0 0,-5 2.5,2.5 0 0 0 0,5 z m -2.16,2.86 C 16.47,13.84 15.74,12.97 14.86,11.95 14.4,11.41 13.81,10.87 13.11,10.63 13,10.59 12.89,10.56 12.78,10.54 12.53,10.5 12.26,10.5 12,10.5 c -0.26,0 -0.53,0 -0.79,0.05 -0.11,0.02 -0.22,0.05 -0.33,0.09 -0.7,0.24 -1.28,0.78 -1.75,1.32 -0.87,1.02 -1.6,1.89 -2.48,2.91 -1.31,1.31 -2.92,2.76 -2.62,4.79 0.29,1.02 1.02,2.03 2.33,2.32 0.73,0.15 3.06,-0.44 5.54,-0.44 h 0.18 c 2.48,0 4.81,0.58 5.54,0.44 1.31,-0.29 2.04,-1.31 2.33,-2.32 0.31,-2.04 -1.3,-3.49 -2.61,-4.8 z"
       id="path3444"
       transform="matrix(0.264583,0,0,0.264583,30.9563,149.636)" />
  </g>
</svg>
