<?xml version="1.0" encoding="UTF-8" standalone="no"?>
<!-- Created with Inkscape (http://www.inkscape.org/) -->

<svg
   id="svg1100"
   version="1.1"
   viewBox="0 0 4.9415331 5.0799942"
   height="5.0799942mm"
   width="4.9415331mm"
   xmlns="http://www.w3.org/2000/svg"
   xmlns:svg="http://www.w3.org/2000/svg">
  <defs
     id="defs1097" />
  <g
     id="New_Layer_1652807144.9003196"
     style="display:inline"
     transform="translate(-72.935429,-150.404)">
    <path
       fill="#323232"
       d="m 19.14,12.94 c 0.04,-0.3 0.06,-0.61 0.06,-0.94 0,-0.32 -0.02,-0.64 -0.07,-0.94 L 21.16,9.48 A 0.49,0.49 0 0 0 21.28,8.87 L 19.36,5.55 A 0.488,0.488 0 0 0 18.77,5.33 L 16.38,6.29 C 15.88,5.91 15.35,5.59 14.76,5.35 L 14.4,2.81 A 0.484,0.484 0 0 0 13.92,2.4 H 10.08 C 9.84,2.4 9.65,2.57 9.61,2.81 L 9.25,5.35 C 8.66,5.59 8.12,5.92 7.63,6.29 L 5.24,5.33 C 5.02,5.25 4.77,5.33 4.65,5.55 L 2.74,8.87 C 2.62,9.08 2.66,9.34 2.86,9.48 l 2.03,1.58 C 4.84,11.36 4.8,11.69 4.8,12 c 0,0.31 0.02,0.64 0.07,0.94 l -2.03,1.58 a 0.49,0.49 0 0 0 -0.12,0.61 l 1.92,3.32 c 0.12,0.22 0.37,0.29 0.59,0.22 l 2.39,-0.96 c 0.5,0.38 1.03,0.7 1.62,0.94 l 0.36,2.54 c 0.05,0.24 0.24,0.41 0.48,0.41 h 3.84 c 0.24,0 0.44,-0.17 0.47,-0.41 l 0.36,-2.54 c 0.59,-0.24 1.13,-0.56 1.62,-0.94 l 2.39,0.96 c 0.22,0.08 0.47,0 0.59,-0.22 l 1.92,-3.32 c 0.12,-0.22 0.07,-0.47 -0.12,-0.61 z M 12,15.6 A 3.61,3.61 0 0 1 8.4,12 c 0,-1.98 1.62,-3.6 3.6,-3.6 1.98,0 3.6,1.62 3.6,3.6 0,1.98 -1.62,3.6 -3.6,3.6 z"
       id="path3866"
       transform="matrix(0.264583,0,0,0.264583,72.2312,149.769)" />
  </g>
</svg>
