<?xml version="1.0" encoding="UTF-8" standalone="no"?>
<!-- Created with Inkscape (http://www.inkscape.org/) -->

<svg
   id="svg1100"
   version="1.1"
   viewBox="0 0 5.2916598 4.7624941"
   height="4.7624941mm"
   width="5.2916598mm"
   xmlns="http://www.w3.org/2000/svg"
   xmlns:svg="http://www.w3.org/2000/svg">
  <defs
     id="defs1097" />
  <g
     id="New_Layer_1652806942.9147863"
     style="display:inline"
     transform="translate(-21.166666,-37.056149)">
    <path
       fill="#323232"
       d="M 9,3 7.17,5 H 4 C 2.9,5 2,5.9 2,7 v 12 c 0,1.1 0.9,2 2,2 h 16 c 1.1,0 2,-0.9 2,-2 V 7 C 22,5.9 21.1,5 20,5 H 16.83 L 15,3 Z m 3,15 C 9.24,18 7,15.76 7,13 7,10.24 9.24,8 12,8 c 2.76,0 5,2.24 5,5 0,2.76 -2.24,5 -5,5 z"
       id="path1758"
       transform="matrix(0.264583,0,0,0.264583,20.6375,36.2624)" />
    <path
       fill="#323232"
       d="M 12,17 13.25,14.25 16,13 13.25,11.75 12,9 10.75,11.75 8,13 l 2.75,1.25 z"
       id="path1760"
       transform="matrix(0.264583,0,0,0.264583,20.6375,36.2624)" />
  </g>
</svg>
