<?xml version="1.0" encoding="UTF-8" standalone="no"?>
<!-- Created with Inkscape (http://www.inkscape.org/) -->

<svg
   id="svg1100"
   version="1.1"
   viewBox="0 0 4.7624941 4.7624941"
   height="4.7624941mm"
   width="4.7624941mm"
   xmlns="http://www.w3.org/2000/svg"
   xmlns:svg="http://www.w3.org/2000/svg">
  <defs
     id="defs1097" />
  <g
     id="New_Layer_1652807144.9009528"
     style="display:inline"
     transform="translate(-155.57475,-150.56275)">
    <path
       fill="#323232"
       d="m 12,10 c -1.1,0 -2,0.9 -2,2 0,1.1 0.9,2 2,2 1.1,0 2,-0.9 2,-2 0,-1.1 -0.9,-2 -2,-2 z M 19,3 H 5 A 2,2 0 0 0 3,5 v 14 a 2,2 0 0 0 2,2 h 14 a 2,2 0 0 0 2,-2 V 5 A 2,2 0 0 0 19,3 Z m -1.75,9 c 0,0.23 -0.02,0.46 -0.05,0.68 l 1.48,1.16 c 0.13,0.11 0.17,0.3 0.08,0.45 l -1.4,2.42 c -0.09,0.15 -0.27,0.21 -0.43,0.15 l -1.74,-0.7 c -0.36,0.28 -0.76,0.51 -1.18,0.69 L 13.75,18.7 C 13.72,18.87 13.57,19 13.4,19 h -2.8 c -0.17,0 -0.32,-0.13 -0.35,-0.29 L 9.99,16.86 C 9.56,16.68 9.17,16.45 8.81,16.17 l -1.74,0.7 c -0.16,0.06 -0.34,0 -0.43,-0.15 L 5.24,14.3 A 0.353,0.353 0 0 1 5.32,13.85 L 6.8,12.69 C 6.77,12.46 6.75,12.23 6.75,12 6.75,11.77 6.77,11.54 6.8,11.32 L 5.32,10.16 A 0.353,0.353 0 0 1 5.24,9.71 L 6.64,7.29 C 6.73,7.14 6.91,7.08 7.07,7.14 l 1.74,0.7 C 9.17,7.56 9.57,7.33 9.99,7.15 L 10.25,5.3 C 10.28,5.13 10.43,5 10.6,5 h 2.8 c 0.17,0 0.32,0.13 0.35,0.29 l 0.26,1.85 c 0.43,0.18 0.82,0.41 1.18,0.69 l 1.74,-0.7 c 0.16,-0.06 0.34,0 0.43,0.15 l 1.4,2.42 c 0.09,0.15 0.05,0.34 -0.08,0.45 l -1.48,1.16 c 0.03,0.23 0.05,0.46 0.05,0.69 z"
       id="path3877"
       transform="matrix(0.264583,0,0,0.264583,154.781,149.769)" />
  </g>
</svg>
