<?xml version="1.0" encoding="UTF-8" standalone="no"?>
<!-- Created with Inkscape (http://www.inkscape.org/) -->

<svg
   id="svg1100"
   version="1.1"
   viewBox="0 0 5.8208261 4.7624941"
   height="4.7624941mm"
   width="5.8208261mm"
   xmlns="http://www.w3.org/2000/svg"
   xmlns:svg="http://www.w3.org/2000/svg">
  <defs
     id="defs1097" />
  <g
     id="New_Layer_1652807144.902212"
     style="display:inline"
     transform="translate(-186.00258,-160.88075)">
    <path
       fill="#323232"
       d="M 12.01,5.5 10,8 h 4 z M 18,10 v 4 l 2.5,-1.99 z M 6,10 3.5,12.01 6,14 Z m 8,6 h -4 l 2.01,2.5 z M 21,3 H 3 C 1.9,3 1,3.9 1,5 v 14 c 0,1.1 0.9,2 2,2 h 18 c 1.1,0 2,-0.9 2,-2 V 5 C 23,3.9 22.1,3 21,3 Z m 0,16.01 H 3 V 4.99 h 18 z"
       id="path3998"
       transform="matrix(0.264583,0,0,0.264583,185.738,160.087)" />
  </g>
</svg>
