<?xml version="1.0" encoding="UTF-8" standalone="no"?>
<!-- Created with Inkscape (http://www.inkscape.org/) -->

<svg
   id="svg1100"
   version="1.1"
   viewBox="0 0 5.2918415 5.2916598"
   height="5.2916598mm"
   width="5.2918415mm"
   xmlns="http://www.w3.org/2000/svg"
   xmlns:svg="http://www.w3.org/2000/svg">
  <defs
     id="defs1097" />
  <g
     id="New_Layer_1652807144.9040954"
     style="display:inline"
     transform="translate(-52.122783,-170.93517)">
    <path
       fill="#323232"
       d="m 7,18 c -1.1,0 -1.99,0.9 -1.99,2 0,1.1 0.89,2 1.99,2 1.1,0 2,-0.9 2,-2 C 9,18.9 8.1,18 7,18 Z M 1,2 v 2 h 2 l 3.6,7.59 -1.35,2.45 C 5.09,14.32 5,14.65 5,15 c 0,1.1 0.9,2 2,2 H 19 V 15 H 7.42 C 7.28,15 7.17,14.89 7.17,14.75 L 7.2,14.63 8.1,13 h 7.45 c 0.75,0 1.41,-0.41 1.75,-1.03 L 20.88,5.48 A 1.003,1.003 0 0 0 20,4 H 5.21 L 4.27,2 Z m 16,16 c -1.1,0 -1.99,0.9 -1.99,2 0,1.1 0.89,2 1.99,2 1.1,0 2,-0.9 2,-2 0,-1.1 -0.9,-2 -2,-2 z"
       id="path4086"
       transform="matrix(0.264583,0,0,0.264583,51.8582,170.406)" />
  </g>
</svg>
