<?xml version="1.0" encoding="UTF-8" standalone="no"?>
<!-- Created with Inkscape (http://www.inkscape.org/) -->

<svg
   id="svg1100"
   version="1.1"
   viewBox="0 0 5.2916598 5.2916598"
   height="5.2916598mm"
   width="5.2916598mm"
   xmlns="http://www.w3.org/2000/svg"
   xmlns:svg="http://www.w3.org/2000/svg">
  <defs
     id="defs1097" />
  <g
     id="New_Layer_1652807144.9053607"
     style="display:inline"
     transform="translate(-93.397866,-170.93517)">
    <path
       fill="#323232"
       d="M 12,2 C 6.48,2 2,6.48 2,12 2,17.52 6.48,22 12,22 17.52,22 22,17.52 22,12 22,6.48 17.52,2 12,2 Z m 7.46,7.12 -2.78,1.15 A 4.982,4.982 0 0 0 13.73,7.33 l 1.15,-2.78 c 2.1,0.8 3.77,2.47 4.58,4.57 z M 12,15 c -1.66,0 -3,-1.34 -3,-3 0,-1.66 1.34,-3 3,-3 1.66,0 3,1.34 3,3 0,1.66 -1.34,3 -3,3 z M 9.13,4.54 10.3,7.32 A 5,5 0 0 0 7.32,10.29 L 4.54,9.13 A 7.984,7.984 0 0 1 9.13,4.54 Z M 4.54,14.87 7.32,13.72 a 4.968,4.968 0 0 0 2.97,2.96 L 9.12,19.46 A 7.996,7.996 0 0 1 4.54,14.87 Z m 10.34,4.59 -1.15,-2.78 a 4.978,4.978 0 0 0 2.95,-2.97 l 2.78,1.17 a 8.007,8.007 0 0 1 -4.58,4.58 z"
       id="path4251"
       transform="matrix(0.264583,0,0,0.264583,92.8687,170.406)" />
  </g>
</svg>
