<?xml version="1.0" encoding="UTF-8" standalone="no"?>
<!-- Created with Inkscape (http://www.inkscape.org/) -->

<svg
   id="svg1100"
   version="1.1"
   viewBox="0 0 5.2916598 4.2333278"
   height="4.2333279mm"
   width="5.2916598mm"
   xmlns="http://www.w3.org/2000/svg"
   xmlns:svg="http://www.w3.org/2000/svg">
  <defs
     id="defs1097" />
  <g
     id="New_Layer_1652806942.9158974"
     style="display:inline"
     transform="translate(-41.804166,-37.320732)">
    <path
       fill="#323232"
       d="M 12,4 H 5 C 3.34,4 2,5.34 2,7 v 8 c 0,1.66 1.34,3 3,3 l -1,1 v 1 H 5 L 7,17.97 9,18 V 13 H 4 V 5.98 L 13,6 v 2 h 2 V 7 C 15,5.34 13.66,4 12,4 Z M 5,14 c 0.55,0 1,0.45 1,1 0,0.55 -0.45,1 -1,1 C 4.45,16 4,15.55 4,15 4,14.45 4.45,14 5,14 Z M 20.57,9.66 C 20.43,9.26 20.05,9 19.6,9 h -7.19 c -0.46,0 -0.83,0.26 -0.98,0.66 l -1.43,4.11 0.01,5.51 c 0,0.38 0.31,0.72 0.69,0.72 h 0.62 C 11.7,20 12,19.62 12,19.24 V 18 h 8 v 1.24 c 0,0.38 0.31,0.76 0.69,0.76 h 0.61 c 0.38,0 0.69,-0.34 0.69,-0.72 L 22,17.91 V 13.77 Z M 12.41,10 h 7.19 l 1.03,3 H 11.38 Z M 12,16 c -0.55,0 -1,-0.45 -1,-1 0,-0.55 0.45,-1 1,-1 0.55,0 1,0.45 1,1 0,0.55 -0.45,1 -1,1 z m 8,0 c -0.55,0 -1,-0.45 -1,-1 0,-0.55 0.45,-1 1,-1 0.55,0 1,0.45 1,1 0,0.55 -0.45,1 -1,1 z"
       id="path1926"
       transform="matrix(0.264583,0,0,0.264583,41.275,36.2624)" />
  </g>
</svg>
