<?xml version="1.0" encoding="UTF-8" standalone="no"?>
<!-- Created with Inkscape (http://www.inkscape.org/) -->

<svg
   id="svg1100"
   version="1.1"
   viewBox="0 0 4.7624941 4.7624941"
   height="4.7624941mm"
   width="4.7624941mm"
   xmlns="http://www.w3.org/2000/svg"
   xmlns:svg="http://www.w3.org/2000/svg">
  <defs
     id="defs1097" />
  <g
     id="New_Layer_1652807144.9078805"
     style="display:inline"
     transform="translate(-145.25575,-171.19975)">
    <path
       fill="#323232"
       d="M 19,7 H 9 C 7.9,7 7,7.9 7,9 v 10 c 0,1.1 0.9,2 2,2 h 10 c 1.1,0 2,-0.9 2,-2 V 9 C 21,7.9 20.1,7 19,7 Z m 0,2 v 2 H 9 V 9 Z m -6,6 v -2 h 2 v 2 z m 2,2 v 2 H 13 V 17 Z M 11,15 H 9 v -2 h 2 z m 6,-2 h 2 v 2 h -2 z m -8,4 h 2 v 2 H 9 Z m 8,2 v -2 h 2 v 2 z M 6,17 H 5 C 3.9,17 3,16.1 3,15 V 5 C 3,3.9 3.9,3 5,3 h 10 c 1.1,0 2,0.9 2,2 V 6 H 15 V 5 H 5 v 10 h 1 z"
       id="path4358"
       transform="matrix(0.264583,0,0,0.264583,144.462,170.406)" />
  </g>
</svg>
