<?xml version="1.0" encoding="UTF-8" standalone="no"?>
<!-- Created with Inkscape (http://www.inkscape.org/) -->

<svg
   id="svg1100"
   version="1.1"
   viewBox="0 0 5.8208261 5.2916598"
   height="5.2916598mm"
   width="5.8208261mm"
   xmlns="http://www.w3.org/2000/svg"
   xmlns:svg="http://www.w3.org/2000/svg">
  <defs
     id="defs1097" />
  <g
     id="New_Layer_1652807144.9097688"
     style="display:inline"
     transform="translate(-10.583383,-170.93558)">
    <path
       fill="#323232"
       d="M 1,21 H 5 V 9 H 1 Z M 23,10 C 23,8.9 22.1,8 21,8 H 14.69 L 15.64,3.43 15.67,3.11 C 15.67,2.7 15.5,2.32 15.23,2.05 L 14.17,1 7.59,7.59 C 7.22,7.95 7,8.45 7,9 v 10 c 0,1.1 0.9,2 2,2 h 9 c 0.83,0 1.54,-0.5 1.84,-1.22 l 3.02,-7.05 C 22.95,12.5 23,12.26 23,12 Z"
       id="path4490"
       transform="matrix(0.264583,0,0,0.264583,10.3188,170.671)" />
  </g>
</svg>
