<?xml version="1.0" encoding="UTF-8" standalone="no"?>
<!-- Created with Inkscape (http://www.inkscape.org/) -->

<svg
   id="svg1100"
   version="1.1"
   viewBox="0 0 5.2916598 5.2916598"
   height="5.2916598mm"
   width="5.2916598mm"
   xmlns="http://www.w3.org/2000/svg"
   xmlns:svg="http://www.w3.org/2000/svg">
  <defs
     id="defs1097" />
  <g
     id="New_Layer_1652807144.9110167"
     style="display:inline"
     transform="translate(-134.67317,-170.93517)">
    <path
       fill="#323232"
       d="M 19.07,4.93 17.66,6.34 A 8.014,8.014 0 0 1 20,12 c 0,4.42 -3.58,8 -8,8 C 7.58,20 4,16.42 4,12 4,7.92 7.05,4.56 11,4.07 V 6.09 C 8.16,6.57 6,9.03 6,12 c 0,3.31 2.69,6 6,6 3.31,0 6,-2.69 6,-6 0,-1.66 -0.67,-3.16 -1.76,-4.24 L 14.83,9.17 C 15.55,9.9 16,10.9 16,12 16,14.21 14.21,16 12,16 9.79,16 8,14.21 8,12 8,10.14 9.28,8.59 11,8.14 v 2.14 c -0.6,0.35 -1,0.98 -1,1.72 0,1.1 0.9,2 2,2 1.1,0 2,-0.9 2,-2 0,-0.74 -0.4,-1.38 -1,-1.72 V 2 H 12 C 6.48,2 2,6.48 2,12 2,17.52 6.48,22 12,22 17.52,22 22,17.52 22,12 22,9.24 20.88,6.74 19.07,4.93 Z"
       id="path4578"
       transform="matrix(0.264583,0,0,0.264583,134.144,170.406)" />
  </g>
</svg>
