<?xml version="1.0" encoding="UTF-8" standalone="no"?>
<!-- Created with Inkscape (http://www.inkscape.org/) -->

<svg
   id="svg1100"
   version="1.1"
   viewBox="0 0 6.3208881 6.3499918"
   height="6.3499918mm"
   width="6.320888mm"
   xmlns="http://www.w3.org/2000/svg"
   xmlns:svg="http://www.w3.org/2000/svg">
  <defs
     id="defs1097" />
  <g
     id="New_Layer_1652806924.7808824"
     style="display:inline"
     transform="translate(-123.83923,-15.6249)">
    <path
       fill="#323232"
       d="M 7.52,21.48 A 10.487,10.487 0 0 1 1.55,13 H 0.05 C 0.56,19.16 5.71,24 12,24 l 0.66,-0.03 -3.81,-3.81 z m 0.89,-6.52 c -0.19,0 -0.37,-0.03 -0.52,-0.08 A 1.07,1.07 0 0 1 7.49,14.64 C 7.38,14.54 7.29,14.42 7.23,14.27 7.17,14.13 7.14,13.97 7.14,13.8 h -1.3 c 0,0.36 0.07,0.68 0.21,0.95 0.14,0.27 0.33,0.5 0.56,0.69 0.24,0.18 0.51,0.32 0.82,0.41 0.3,0.1 0.62,0.15 0.96,0.15 0.37,0 0.72,-0.05 1.03,-0.15 0.32,-0.1 0.6,-0.25 0.83,-0.44 0.23,-0.19 0.42,-0.43 0.55,-0.72 0.13,-0.29 0.2,-0.61 0.2,-0.97 0,-0.19 -0.02,-0.38 -0.07,-0.56 A 1.67,1.67 0 0 0 10.7,12.65 C 10.6,12.49 10.46,12.35 10.3,12.22 10.13,12.09 9.93,11.99 9.69,11.91 a 2.098,2.098 0 0 0 0.89,-0.75 c 0.1,-0.15 0.17,-0.3 0.22,-0.46 0.05,-0.16 0.07,-0.32 0.07,-0.48 0,-0.36 -0.06,-0.68 -0.18,-0.96 A 1.78,1.78 0 0 0 10.18,8.57 C 9.98,8.38 9.71,8.24 9.41,8.14 9.1,8.05 8.76,8 8.39,8 8.03,8 7.7,8.05 7.39,8.16 7.09,8.27 6.82,8.42 6.6,8.61 6.39,8.8 6.22,9.02 6.09,9.28 5.97,9.54 5.91,9.82 5.91,10.13 h 1.3 C 7.21,9.96 7.24,9.81 7.3,9.68 A 0.94,0.94 0 0 1 7.55,9.34 C 7.66,9.25 7.78,9.17 7.93,9.12 8.08,9.07 8.23,9.04 8.41,9.04 c 0.4,0 0.7,0.1 0.89,0.31 0.19,0.2 0.29,0.49 0.29,0.86 0,0.18 -0.03,0.34 -0.08,0.49 A 0.87,0.87 0 0 1 9.26,11.07 C 9.15,11.17 9.01,11.25 8.85,11.31 8.69,11.37 8.49,11.4 8.27,11.4 H 7.5 v 1.03 h 0.77 c 0.22,0 0.42,0.02 0.6,0.07 0.18,0.05 0.33,0.13 0.45,0.23 0.12,0.11 0.22,0.24 0.29,0.4 0.07,0.16 0.1,0.35 0.1,0.57 0,0.41 -0.12,0.72 -0.35,0.93 -0.23,0.23 -0.55,0.33 -0.95,0.33 z M 16.96,9.04 C 16.64,8.71 16.26,8.45 15.82,8.27 15.39,8.09 14.9,8 14.36,8 H 12 v 8 h 2.3 c 0.55,0 1.06,-0.09 1.51,-0.27 0.45,-0.18 0.84,-0.43 1.16,-0.76 0.32,-0.33 0.57,-0.73 0.74,-1.19 0.17,-0.47 0.26,-0.99 0.26,-1.57 v -0.4 c 0,-0.58 -0.09,-1.1 -0.26,-1.57 -0.18,-0.47 -0.43,-0.87 -0.75,-1.2 z m -0.39,3.16 c 0,0.42 -0.05,0.79 -0.14,1.13 -0.1,0.33 -0.24,0.62 -0.43,0.85 -0.19,0.23 -0.43,0.41 -0.71,0.53 -0.29,0.12 -0.62,0.18 -0.99,0.18 H 13.39 V 9.12 h 0.97 c 0.72,0 1.27,0.23 1.64,0.69 0.38,0.46 0.57,1.12 0.57,1.99 z M 12,0 11.34,0.03 15.15,3.84 16.48,2.51 c 3.27,1.55 5.61,4.72 5.96,8.48 h 1.5 C 23.44,4.84 18.29,0 12,0 Z"
       id="path1161"
       transform="matrix(0.264583,0,0,0.264583,123.826,15.6249)" />
  </g>
</svg>
