<?xml version="1.0" encoding="UTF-8" standalone="no"?>
<!-- Created with Inkscape (http://www.inkscape.org/) -->

<svg
   id="svg1100"
   version="1.1"
   viewBox="0 0 5.2916598 5.0270772"
   height="5.0270772mm"
   width="5.2916598mm"
   xmlns="http://www.w3.org/2000/svg"
   xmlns:svg="http://www.w3.org/2000/svg">
  <defs
     id="defs1097" />
  <g
     id="New_Layer_1652807144.914157"
     style="display:inline"
     transform="translate(-124.35417,-160.74917)">
    <path
       fill="#323232"
       d="M 20,6 H 16 V 4 C 16,2.89 15.11,2 14,2 H 10 C 8.89,2 8,2.89 8,4 V 6 H 4 C 2.89,6 2.01,6.89 2.01,8 L 2,19 c 0,1.11 0.89,2 2,2 h 16 c 1.11,0 2,-0.89 2,-2 V 8 C 22,6.89 21.11,6 20,6 Z M 14,6 H 10 V 4 h 4 z"
       id="path4922"
       transform="matrix(0.264583,0,0,0.264583,123.825,160.22)" />
  </g>
</svg>
