<?xml version="1.0" encoding="UTF-8" standalone="no"?>
<!-- Created with Inkscape (http://www.inkscape.org/) -->

<svg
   id="svg1100"
   version="1.1"
   viewBox="0 0 5.5588889 5.5588889"
   height="5.5588889mm"
   width="5.5588889mm"
   xmlns="http://www.w3.org/2000/svg"
   xmlns:svg="http://www.w3.org/2000/svg">
  <defs
     id="defs1097" />
  <g
     id="New_Layer_1652807144.9147882"
     style="display:inline"
     transform="translate(-82.94552,-150.16452)">
    <path
       fill="#323232"
       d="M 23,21.74 21.54,20.28 7.21,5.95 3.25,1.99 1.99,3.25 4.69,5.95 H 4.05 c -1.11,0 -1.99,0.89 -1.99,2 l -0.01,11 c 0,1.11 0.89,2 2,2 H 19.69 L 21.74,23 Z M 22,7.95 C 22.05,6.84 21.16,5.95 20.05,6 h -4 V 3.95 c 0,-1.11 -0.89,-2 -2,-1.95 h -4 c -1.11,-0.05 -2,0.84 -2,1.95 V 4.27 L 22,18.27 Z M 14.05,6 H 10 V 3.95 h 4.05 z"
       id="path4933"
       transform="matrix(0.264583,0,0,0.264583,82.419,149.638)" />
  </g>
</svg>
