<?xml version="1.0" encoding="UTF-8" standalone="no"?>
<!-- Created with Inkscape (http://www.inkscape.org/) -->

<svg
   id="svg1100"
   version="1.1"
   viewBox="0 0 5.2916598 5.0270772"
   height="5.0270772mm"
   width="5.2916598mm"
   xmlns="http://www.w3.org/2000/svg"
   xmlns:svg="http://www.w3.org/2000/svg">
  <defs
     id="defs1097" />
  <g
     id="New_Layer_1652807144.9154167"
     style="display:inline"
     transform="translate(-155.31017,-171.06717)">
    <path
       fill="#323232"
       fill-rule="evenodd"
       d="M 14,6 V 4 H 10 V 6 Z M 4,8 V 19 H 20 V 8 Z M 20,6 c 1.11,0 2,0.89 2,2 v 11 c 0,1.11 -0.89,2 -2,2 H 4 C 2.89,21 2,20.11 2,19 L 2.01,8 C 2.01,6.89 2.89,6 4,6 H 8 V 4 C 8,2.89 8.89,2 10,2 h 4 c 1.11,0 2,0.89 2,2 v 2 z"
       clip-rule="evenodd"
       id="path4944"
       transform="matrix(0.264583,0,0,0.264583,154.781,170.538)" />
  </g>
</svg>
