<?xml version="1.0" encoding="UTF-8" standalone="no"?>
<!-- Created with Inkscape (http://www.inkscape.org/) -->

<svg
   id="svg1100"
   version="1.1"
   viewBox="0 0 5.2916598 4.6249108"
   height="4.6249108mm"
   width="5.2916598mm"
   xmlns="http://www.w3.org/2000/svg"
   xmlns:svg="http://www.w3.org/2000/svg">
  <defs
     id="defs1097" />
  <g
     id="New_Layer_1652807144.916037"
     style="display:inline"
     transform="translate(-144.99117,-160.94975)">
    <path
       fill="#323232"
       d="m 17.01,14 h -0.8 L 15.94,13.73 A 6.451,6.451 0 0 0 17.51,9.5 6.5,6.5 0 0 0 11.01,3 C 7.42,3 4.51,6 4.51,9.5 H 2 l 3.84,4 4.16,-4 H 6.51 a 4.5,4.5 0 0 1 9,0 4.507,4.507 0 0 1 -6.32,4.12 L 7.71,15.1 a 6.474,6.474 0 0 0 7.52,-0.67 l 0.27,0.27 v 0.79 L 20.51,20.48 22,19 Z"
       id="path4966"
       transform="matrix(0.264583,0,0,0.264583,144.462,160.156)" />
  </g>
</svg>
