<?xml version="1.0" encoding="UTF-8" standalone="no"?>
<!-- Created with Inkscape (http://www.inkscape.org/) -->

<svg
   id="svg1100"
   version="1.1"
   viewBox="0 0 5.3339934 5.5562429"
   height="5.5562429mm"
   width="5.3339934mm"
   xmlns="http://www.w3.org/2000/svg"
   xmlns:svg="http://www.w3.org/2000/svg">
  <defs
     id="defs1097" />
  <g
     id="New_Layer_1652807248.6473045"
     style="display:inline"
     transform="translate(-62.420483,-181.12158)">
    <path
       fill="#323232"
       d="m 11,9 h 2 V 6 h 3 V 4 H 13 V 1 H 11 V 4 H 8 v 2 h 3 z m -4,9 c -1.1,0 -1.99,0.9 -1.99,2 0,1.1 0.89,2 1.99,2 1.1,0 2,-0.9 2,-2 0,-1.1 -0.9,-2 -2,-2 z m 10,0 c -1.1,0 -1.99,0.9 -1.99,2 0,1.1 0.89,2 1.99,2 1.1,0 2,-0.9 2,-2 0,-1.1 -0.9,-2 -2,-2 z M 7.17,14.75 7.2,14.63 8.1,13 h 7.45 c 0.75,0 1.41,-0.41 1.75,-1.03 L 21.16,4.96 19.42,4 h -0.01 l -1.1,2 -2.76,5 H 8.53 L 8.4,10.73 6.16,6 5.21,4 4.27,2 H 1 v 2 h 2 l 3.6,7.59 -1.35,2.45 C 5.09,14.32 5,14.65 5,15 c 0,1.1 0.9,2 2,2 H 19 V 15 H 7.42 C 7.29,15 7.17,14.89 7.17,14.75 Z"
       id="path1271"
       transform="matrix(0.264583,0,0,0.264583,62.1559,180.857)" />
  </g>
</svg>
