<?xml version="1.0" encoding="UTF-8" standalone="no"?>
<!-- Created with Inkscape (http://www.inkscape.org/) -->

<svg
   id="svg1100"
   version="1.1"
   viewBox="0 0 4.2333279 4.2333278"
   height="4.2333279mm"
   width="4.2333279mm"
   xmlns="http://www.w3.org/2000/svg"
   xmlns:svg="http://www.w3.org/2000/svg">
  <defs
     id="defs1097" />
  <g
     id="New_Layer_1652807248.6480658"
     style="display:inline"
     transform="translate(-145.52089,-192.10167)">
    <path
       fill="#323232"
       d="m 16.21,4.16 4,4 v -4 z m 4,12 -4,4 h 4 z m -12,4 -4,-4 v 4 z m -4,-12 4,-4 h -4 z M 17.16,7.21 a 7.007,7.007 0 0 0 -9.9,0 7.007,7.007 0 0 0 0,9.9 7.007,7.007 0 0 0 9.9,0 c 2.73,-2.73 2.73,-7.16 0,-9.9 z m -1.1,8.8 a 5.438,5.438 0 0 1 -7.7,0 5.438,5.438 0 0 1 0,-7.7 5.438,5.438 0 0 1 7.7,0 5.438,5.438 0 0 1 0,7.7 z"
       id="path1373"
       transform="matrix(0.264583,0,0,0.264583,144.407,191.001)" />
  </g>
</svg>
