<?xml version="1.0" encoding="UTF-8" standalone="no"?>
<!-- Created with Inkscape (http://www.inkscape.org/) -->

<svg
   id="svg1100"
   version="1.1"
   viewBox="0 0 5.2916598 5.0273452"
   height="5.0273452mm"
   width="5.2916598mm"
   xmlns="http://www.w3.org/2000/svg"
   xmlns:svg="http://www.w3.org/2000/svg">
  <defs
     id="defs1097" />
  <g
     id="New_Layer_1652807248.6486952"
     style="display:inline"
     transform="translate(-10.847966,-191.7049)">
    <path
       fill="#323232"
       d="M 20,6 H 17.82 C 17.93,5.69 18,5.35 18,5 A 2.996,2.996 0 0 0 12.5,3.35 L 12,4.02 11.5,3.34 C 10.96,2.54 10.05,2 9,2 7.34,2 6,3.34 6,5 6,5.35 6.07,5.69 6.18,6 H 4 C 2.89,6 2.01,6.89 2.01,8 L 2,19 c 0,1.11 0.89,2 2,2 h 16 c 1.11,0 2,-0.89 2,-2 V 8 C 22,6.89 21.11,6 20,6 Z M 15,4 c 0.55,0 1,0.45 1,1 0,0.55 -0.45,1 -1,1 C 14.45,6 14,5.55 14,5 14,4.45 14.45,4 15,4 Z M 9,4 C 9.55,4 10,4.45 10,5 10,5.55 9.55,6 9,6 8.45,6 8,5.55 8,5 8,4.45 8.45,4 9,4 Z M 20,19 H 4 v -2 h 16 z m 0,-5 H 4 V 8 H 9.08 L 7,10.83 8.62,12 11,8.76 12,7.4 13,8.76 15.38,12 17,10.83 14.92,8 H 20 Z"
       id="path1786"
       transform="matrix(0.264583,0,0,0.264583,10.3188,191.176)" />
  </g>
</svg>
