<?xml version="1.0" encoding="UTF-8" standalone="no"?>
<!-- Created with Inkscape (http://www.inkscape.org/) -->

<svg
   id="svg1100"
   version="1.1"
   viewBox="0 0 4.2333279 5.2916598"
   height="5.2916598mm"
   width="4.2333279mm"
   xmlns="http://www.w3.org/2000/svg"
   xmlns:svg="http://www.w3.org/2000/svg">
  <defs
     id="defs1097" />
  <g
     id="New_Layer_1652806942.9171097"
     style="display:inline"
     transform="translate(-124.88333,-26.472866)">
    <path
       fill="#323232"
       d="M 14,2 H 6 C 4.9,2 4,2.9 4,4 v 16 c 0,1.1 0.9,2 2,2 h 12 c 1.1,0 2,-0.9 2,-2 V 8 Z m -2,8 c 1.1,0 2,0.9 2,2 0,1.1 -0.9,2 -2,2 -1.1,0 -2,-0.9 -2,-2 0,-1.1 0.9,-2 2,-2 z m 4,8 H 8 V 17.43 C 8,16.62 8.48,15.9 9.22,15.58 a 6.95,6.95 0 0 1 5.56,0 2.01,2.01 0 0 1 1.22,1.85 z"
       id="path1970"
       transform="matrix(0.264583,0,0,0.264583,123.825,25.9437)" />
  </g>
</svg>
