<?xml version="1.0" encoding="UTF-8" standalone="no"?>
<!-- Created with Inkscape (http://www.inkscape.org/) -->

<svg
   id="svg1100"
   version="1.1"
   viewBox="0 0 4.7624941 4.2333278"
   height="4.2333279mm"
   width="4.7624941mm"
   xmlns="http://www.w3.org/2000/svg"
   xmlns:svg="http://www.w3.org/2000/svg">
  <defs
     id="defs1097" />
  <g
     id="New_Layer_1652807248.653435"
     style="display:inline"
     transform="translate(-73.024949,-192.10233)">
    <path
       fill="#323232"
       d="M 3,16 H 8 V 14 H 3 Z m 6.5,0 h 5 v -2 h -5 z m 6.5,0 h 5 V 14 H 16 Z M 3,20 H 5 V 18 H 3 Z m 4,0 H 9 V 18 H 7 Z m 4,0 h 2 v -2 h -2 z m 4,0 h 2 v -2 h -2 z m 4,0 h 2 V 18 H 19 Z M 3,12 h 8 V 10 H 3 Z m 10,0 h 8 V 10 H 13 Z M 3,4 V 8 H 21 V 4 Z"
       id="path2927"
       transform="matrix(0.264583,0,0,0.264583,72.2312,191.044)" />
  </g>
</svg>
