<?xml version="1.0" encoding="UTF-8" standalone="no"?>
<!-- Created with Inkscape (http://www.inkscape.org/) -->

<svg
   id="svg1100"
   version="1.1"
   viewBox="0 0 5.2916598 5.0270772"
   height="5.0270772mm"
   width="5.2916598mm"
   xmlns="http://www.w3.org/2000/svg"
   xmlns:svg="http://www.w3.org/2000/svg">
  <defs
     id="defs1097" />
  <g
     id="New_Layer_1652807248.6546686"
     style="display:inline"
     transform="translate(-21.166666,-191.70517)">
    <path
       fill="#323232"
       d="m 18.83,7 h -2.6 L 10.5,4 4,7.4 V 17 C 2.9,17 2,16.1 2,15 V 7.17 C 2,6.64 2.32,6.08 2.8,5.83 L 10.5,2 18.04,5.83 c 0.43,0.23 0.73,0.7 0.79,1.17 z M 20,8 H 7 C 5.9,8 5,8.9 5,10 v 9 c 0,1.1 0.9,2 2,2 h 13 c 1.1,0 2,-0.9 2,-2 V 10 C 22,8.9 21.1,8 20,8 Z M 20,11.67 13.5,15 7,11.67 V 10 L 13.5,13.33 20,10 Z"
       id="path3037"
       transform="matrix(0.264583,0,0,0.264583,20.6375,191.176)" />
  </g>
</svg>
