<?xml version="1.0" encoding="UTF-8" standalone="no"?>
<!-- Created with Inkscape (http://www.inkscape.org/) -->

<svg
   id="svg1100"
   version="1.1"
   viewBox="0 0 4.7624941 4.2333278"
   height="4.2333279mm"
   width="4.7624941mm"
   xmlns="http://www.w3.org/2000/svg"
   xmlns:svg="http://www.w3.org/2000/svg">
  <defs
     id="defs1097" />
  <g
     id="New_Layer_1652807248.6552784"
     style="display:inline"
     transform="translate(-42.068749,-181.78333)">
    <path
       fill="#323232"
       d="M 19,4 H 5 A 2,2 0 0 0 3,6 v 12 a 2,2 0 0 0 2,2 H 9 V 18 H 5 V 8 h 14 v 10 h -4 v 2 h 4 c 1.1,0 2,-0.9 2,-2 V 6 A 2,2 0 0 0 19,4 Z m -7,6 -4,4 h 3 v 6 h 2 v -6 h 3 z"
       id="path3210"
       transform="matrix(0.264583,0,0,0.264583,41.275,180.725)" />
  </g>
</svg>
