<?xml version="1.0" encoding="UTF-8" standalone="no"?>
<!-- Created with Inkscape (http://www.inkscape.org/) -->

<svg
   id="svg1100"
   version="1.1"
   viewBox="0 0 5.2916598 4.2333278"
   height="4.2333279mm"
   width="5.2916598mm"
   xmlns="http://www.w3.org/2000/svg"
   xmlns:svg="http://www.w3.org/2000/svg">
  <defs
     id="defs1097" />
  <g
     id="New_Layer_1652807248.6558976"
     style="display:inline"
     transform="translate(-0.5291672,-192.10233)">
    <path
       fill="#323232"
       d="m 11.5,9 a 2.5,2.5 0 0 0 0,5 2.5,2.5 0 0 0 0,-5 z M 20,4 H 4 C 2.9,4 2,4.9 2,6 v 12 c 0,1.1 0.9,2 2,2 h 16 c 1.1,0 2,-0.9 2,-2 V 6 C 22,4.9 21.1,4 20,4 Z M 16.79,18.21 13.88,15.3 C 13.19,15.74 12.37,16 11.49,16 9.01,16 7,13.99 7,11.5 7,9.01 9.01,7 11.5,7 c 2.49,0 4.5,2.01 4.5,4.5 0,0.88 -0.26,1.69 -0.7,2.39 l 2.91,2.9 z"
       id="path3301"
       transform="matrix(0.264583,0,0,0.264583,1.2e-6,191.044)" />
  </g>
</svg>
