<?xml version="1.0" encoding="UTF-8" standalone="no"?>
<!-- Created with Inkscape (http://www.inkscape.org/) -->

<svg
   id="svg1100"
   version="1.1"
   viewBox="0 0 5.8208261 5.6647219"
   height="5.664722mm"
   width="5.8208261mm"
   xmlns="http://www.w3.org/2000/svg"
   xmlns:svg="http://www.w3.org/2000/svg">
  <defs
     id="defs1097" />
  <g
     id="New_Layer_1652807248.658258"
     style="display:inline"
     transform="translate(-113.77058,-191.38658)">
    <path
       fill="#323232"
       d="M 12,5 C 8.13,5 5,8.13 5,12 h 2 c 0,-2.76 2.24,-5 5,-5 2.76,0 5,2.24 5,5 h 2 C 19,8.13 15.87,5 12,5 Z m 1,9.29 C 13.88,13.9 14.5,13.03 14.5,12 a 2.5,2.5 0 0 0 -5,0 c 0,1.02 0.62,1.9 1.5,2.29 v 3.3 L 7.59,21 9,22.41 l 3,-3 3,3 L 16.41,21 13,17.59 Z M 12,1 C 5.93,1 1,5.93 1,12 h 2 a 9,9 0 0 1 18,0 h 2 C 23,5.93 18.07,1 12,1 Z"
       id="path3943"
       transform="matrix(0.264583,0,0,0.264583,113.506,191.122)" />
  </g>
</svg>
