<?xml version="1.0" encoding="UTF-8" standalone="no"?>
<!-- Created with Inkscape (http://www.inkscape.org/) -->

<svg
   id="svg1100"
   version="1.1"
   viewBox="0 0 5.8208261 5.5562429"
   height="5.5562429mm"
   width="5.8208261mm"
   xmlns="http://www.w3.org/2000/svg"
   xmlns:svg="http://www.w3.org/2000/svg">
  <defs
     id="defs1097" />
  <g
     id="New_Layer_1652807248.65951"
     style="display:inline"
     transform="translate(-124.08958,-181.12158)">
    <path
       fill="#323232"
       d="M 3,9 H 1 v 11 c 0,1.11 0.89,2 2,2 h 14 c 1.11,0 2,-0.89 2,-2 H 3 Z M 18,5 V 3 C 18,1.89 17.11,1 16,1 H 12 C 10.89,1 10,1.89 10,3 V 5 H 5 v 11 c 0,1.11 0.89,2 2,2 h 14 c 1.11,0 2,-0.89 2,-2 V 5 Z M 12,3 h 4 v 2 h -4 z m 0,12 V 8 l 5.5,3 z"
       id="path4097"
       transform="matrix(0.264583,0,0,0.264583,123.825,180.857)" />
  </g>
</svg>
