<?xml version="1.0" encoding="UTF-8" standalone="no"?>
<!-- Created with Inkscape (http://www.inkscape.org/) -->

<svg
   id="svg1100"
   version="1.1"
   viewBox="0 0 5.2916598 3.1749959"
   height="3.1749959mm"
   width="5.2916598mm"
   xmlns="http://www.w3.org/2000/svg"
   xmlns:svg="http://www.w3.org/2000/svg">
  <defs
     id="defs1097" />
  <g
     id="New_Layer_1652807248.6601207"
     style="display:inline"
     transform="translate(-186.26717,-182.31208)">
    <path
       fill="#323232"
       d="m 22,9 v 6 c 0,1.1 -0.9,2 -2,2 h -1 v -2 h 1 V 9 H 4 v 6 h 6 v 2 H 4 C 2.9,17 2,16.1 2,15 V 9 C 2,7.9 2.9,7 4,7 h 16 c 1.1,0 2,0.9 2,2 z M 14.5,19 15.59,16.59 18,15.5 15.59,14.41 14.5,12 13.41,14.41 11,15.5 13.41,16.59 Z M 17,14 17.62,12.62 19,12 17.62,11.38 17,10 16.38,11.38 15,12 16.38,12.62 Z M 14.5,19 15.59,16.59 18,15.5 15.59,14.41 14.5,12 13.41,14.41 11,15.5 13.41,16.59 Z M 17,14 17.62,12.62 19,12 17.62,11.38 17,10 16.38,11.38 15,12 l 1.38,0.62 z"
       id="path4108"
       transform="matrix(0.264583,0,0,0.264583,185.738,180.46)" />
  </g>
</svg>
