<?xml version="1.0" encoding="UTF-8" standalone="no"?>
<!-- Created with Inkscape (http://www.inkscape.org/) -->

<svg
   id="svg1100"
   version="1.1"
   viewBox="0 0 5.8208261 5.820826"
   height="5.8208261mm"
   width="5.8208261mm"
   xmlns="http://www.w3.org/2000/svg"
   xmlns:svg="http://www.w3.org/2000/svg">
  <defs
     id="defs1097" />
  <g
     id="New_Layer_1652807248.660743"
     style="display:inline"
     transform="translate(-93.1333,-191.30873)">
    <path
       fill="#323232"
       d="M 10.54,11 10,10.46 7.54,8 6,6.46 2.38,2.84 1.27,1.73 0,3 2.01,5.01 2,22 6,18 h 9 L 20.73,23.73 22,22.46 17.54,18 Z M 8,14 H 6 V 12 H 8 Z M 6,11 V 9 l 2,2 z M 20,2 H 4.08 L 10,7.92 V 6 h 8 v 2 h -7.92 l 1,1 H 18 v 2 h -4.92 l 6.99,6.99 C 21.14,17.95 22,17.08 22,16 V 4 C 22,2.9 21.1,2 20,2 Z"
       id="path4141"
       transform="matrix(0.264583,0,0,0.264583,93.1333,190.851)" />
  </g>
</svg>
