<?xml version="1.0" encoding="UTF-8" standalone="no"?>
<!-- Created with Inkscape (http://www.inkscape.org/) -->

<svg
   id="svg1100"
   version="1.1"
   viewBox="0 0 4.7624941 4.7624941"
   height="4.7624941mm"
   width="4.7624941mm"
   xmlns="http://www.w3.org/2000/svg"
   xmlns:svg="http://www.w3.org/2000/svg">
  <defs
     id="defs1097" />
  <g
     id="New_Layer_1652806942.9183195"
     style="display:inline"
     transform="translate(-83.343749,-47.374949)">
    <path
       fill="#323232"
       d="M 20,13 H 4 c -0.55,0 -1,0.45 -1,1 v 6 c 0,0.55 0.45,1 1,1 h 16 c 0.55,0 1,-0.45 1,-1 v -6 c 0,-0.55 -0.45,-1 -1,-1 z M 7,19 c -1.1,0 -2,-0.9 -2,-2 0,-1.1 0.9,-2 2,-2 1.1,0 2,0.9 2,2 0,1.1 -0.9,2 -2,2 z M 20,3 H 4 C 3.45,3 3,3.45 3,4 v 6 c 0,0.55 0.45,1 1,1 h 16 c 0.55,0 1,-0.45 1,-1 V 4 C 21,3.45 20.55,3 20,3 Z M 7,9 C 5.9,9 5,8.1 5,7 5,5.9 5.9,5 7,5 8.1,5 9,5.9 9,7 9,8.1 8.1,9 7,9 Z"
       id="path2113"
       transform="matrix(0.264583,0,0,0.264583,82.55,46.5812)" />
  </g>
</svg>
