<?xml version="1.0" encoding="UTF-8" standalone="no"?>
<!-- Created with Inkscape (http://www.inkscape.org/) -->

<svg
   id="svg1100"
   version="1.1"
   viewBox="0 0 4.7624941 5.2916598"
   height="5.2916598mm"
   width="4.7624941mm"
   xmlns="http://www.w3.org/2000/svg"
   xmlns:svg="http://www.w3.org/2000/svg">
  <defs
     id="defs1097" />
  <g
     id="New_Layer_1652807248.6650562"
     style="display:inline"
     transform="translate(-0.7937502,-181.25458)">
    <path
       fill="#323232"
       d="M 19,3 H 18 V 1 H 16 V 3 H 8 V 1 H 6 V 3 H 5 C 3.89,3 3.01,3.9 3.01,5 L 3,19 a 2,2 0 0 0 2,2 h 14 c 1.1,0 2,-0.9 2,-2 V 5 C 21,3.9 20.1,3 19,3 Z m 0,16 H 5 V 8 H 19 Z M 7,10 h 5 v 5 H 7 Z"
       id="path4534"
       transform="matrix(0.264583,0,0,0.264583,1.2e-6,180.99)" />
  </g>
</svg>
