<?xml version="1.0" encoding="UTF-8" standalone="no"?>
<!-- Created with Inkscape (http://www.inkscape.org/) -->

<svg
   id="svg1100"
   version="1.1"
   viewBox="0 0 5.8181801 5.0270772"
   height="5.0270772mm"
   width="5.8181801mm"
   xmlns="http://www.w3.org/2000/svg"
   xmlns:svg="http://www.w3.org/2000/svg">
  <defs
     id="defs1097" />
  <g
     id="New_Layer_1652807248.6700597"
     style="display:inline"
     transform="translate(-103.45358,-191.70475)">
    <path
       fill="#323232"
       d="m 12,7 c 2.76,0 5,2.24 5,5 0,0.65 -0.13,1.26 -0.36,1.83 l 2.92,2.92 c 1.51,-1.26 2.7,-2.89 3.43,-4.75 -1.73,-4.39 -6,-7.5 -11,-7.5 -1.4,0 -2.74,0.25 -3.98,0.7 l 2.16,2.16 C 10.74,7.13 11.35,7 12,7 Z M 2,4.27 4.28,6.55 4.74,7.01 A 11.804,11.804 0 0 0 1,12 c 1.73,4.39 6,7.5 11,7.5 1.55,0 3.03,-0.3 4.38,-0.84 L 16.8,19.08 19.73,22 21,20.73 3.27,3 Z M 7.53,9.8 9.08,11.35 C 9.03,11.56 9,11.78 9,12 c 0,1.66 1.34,3 3,3 0.22,0 0.44,-0.03 0.65,-0.08 l 1.55,1.55 C 13.53,16.8 12.79,17 12,17 9.24,17 7,14.76 7,12 7,11.21 7.2,10.47 7.53,9.8 Z m 4.31,-0.78 3.15,3.15 0.02,-0.16 c 0,-1.66 -1.34,-3 -3,-3 z"
       id="path4875"
       transform="matrix(0.264583,0,0,0.264583,103.189,190.911)" />
  </g>
</svg>
