<?xml version="1.0" encoding="UTF-8" standalone="no"?>
<!-- Created with Inkscape (http://www.inkscape.org/) -->

<svg
   id="svg1100"
   version="1.1"
   viewBox="0 0 3.9925582 4.7624941"
   height="4.7624941mm"
   width="3.9925582mm"
   xmlns="http://www.w3.org/2000/svg"
   xmlns:svg="http://www.w3.org/2000/svg">
  <defs
     id="defs1097" />
  <g
     id="New_Layer_1652807248.6712914"
     style="display:inline"
     transform="translate(-155.96004,-191.83775)">
    <path
       fill="#323232"
       d="M 16.71,5.29 19,3 h -8 v 8 l 2.3,-2.3 c 1.97,1.46 3.25,3.78 3.25,6.42 0,1.31 -0.32,2.54 -0.88,3.63 2.33,-1.52 3.88,-4.14 3.88,-7.13 0,-2.52 -1.11,-4.77 -2.84,-6.33 z"
       id="path4908"
       transform="matrix(0.264583,0,0,0.264583,154.78,191.044)" />
    <path
       fill="#323232"
       d="m 7.46,8.88 c 0,-1.31 0.32,-2.54 0.88,-3.63 a 8.479,8.479 0 0 0 -3.88,7.13 c 0,2.52 1.1,4.77 2.84,6.33 L 5,21 h 8 v -8 l -2.3,2.3 C 8.74,13.84 7.46,11.52 7.46,8.88 Z"
       id="path4910"
       transform="matrix(0.264583,0,0,0.264583,154.78,191.044)" />
  </g>
</svg>
