<?xml version="1.0" encoding="UTF-8" standalone="no"?>
<!-- Created with Inkscape (http://www.inkscape.org/) -->

<svg
   id="svg1100"
   version="1.1"
   viewBox="0 0 3.7041619 6.0854091"
   height="6.0854092mm"
   width="3.7041619mm"
   xmlns="http://www.w3.org/2000/svg"
   xmlns:svg="http://www.w3.org/2000/svg">
  <defs
     id="defs1097" />
  <g
     id="New_Layer_1652807476.828758"
     style="display:inline"
     transform="translate(-21.960415,-149.90058)">
    <path
       fill="#323232"
       d="M 7,24 H 9 V 22 H 7 Z m 5,-11 c 1.66,0 2.99,-1.34 2.99,-3 L 15,4 C 15,2.34 13.66,1 12,1 10.34,1 9,2.34 9,4 v 6 c 0,1.66 1.34,3 3,3 z m -1,11 h 2 v -2 h -2 z m 4,0 h 2 v -2 h -2 z m 4,-14 h -1.7 c 0,3 -2.54,5.1 -5.3,5.1 C 9.24,15.1 6.7,13 6.7,10 H 5 c 0,3.41 2.72,6.23 6,6.72 V 20 h 2 v -3.28 c 3.28,-0.49 6,-3.31 6,-6.72 z"
       id="path4042"
       transform="matrix(0.264583,0,0,0.264583,20.6375,149.636)" />
  </g>
</svg>
