<?xml version="1.0" encoding="UTF-8" standalone="no"?>
<!-- Created with Inkscape (http://www.inkscape.org/) -->

<svg
   id="svg1100"
   version="1.1"
   viewBox="0 0 4.7624941 5.5562429"
   height="5.5562429mm"
   width="4.7624941mm"
   xmlns="http://www.w3.org/2000/svg"
   xmlns:svg="http://www.w3.org/2000/svg">
  <defs
     id="defs1097" />
  <g
     id="New_Layer_1652807820.6703708"
     style="display:inline"
     transform="translate(-38.100049,-225.42617)">
    <path
       fill="#323232"
       d="m 10.01,21.01 c 0,1.1 0.89,1.99 1.99,1.99 1.1,0 1.99,-0.89 1.99,-1.99 z m 8.87,-4.19 V 11 c 0,-3.25 -2.25,-5.97 -5.29,-6.69 V 3.59 C 13.59,2.71 12.88,2 12,2 11.12,2 10.41,2.71 10.41,3.59 V 4.31 A 6.873,6.873 0 0 0 5.12,11 v 5.82 L 3,18.94 V 20 H 21 V 18.94 Z M 16,13.01 h -3 v 3 h -2 v -3 H 8 V 11 h 3 V 8 h 2 v 3 h 3 z"
       id="path5002"
       transform="matrix(0.264583,0,0,0.264583,37.3063,224.897)" />
  </g>
</svg>
