<?xml version="1.0" encoding="UTF-8" standalone="no"?>
<!-- Created with Inkscape (http://www.inkscape.org/) -->

<svg
   id="svg1100"
   version="1.1"
   viewBox="0 0 5.8208261 5.8191986"
   height="5.8191986mm"
   width="5.8208261mm"
   xmlns="http://www.w3.org/2000/svg"
   xmlns:svg="http://www.w3.org/2000/svg">
  <defs
     id="defs1097" />
  <g
     id="New_Layer_1652807820.6711302"
     style="display:inline"
     transform="translate(-1e-6,-225.29458)">
    <path
       fill="#323232"
       d="m 15,2 h -3.5 l -1,-1 h -5 l -1,1 H 1 v 2 h 14 z m 1,7 C 15.3,9 14.63,9.1 14,9.29 V 5 H 2 v 12 c 0,1.1 0.9,2 2,2 H 9.68 A 6.999,6.999 0 0 0 23,16 C 23,12.13 19.87,9 16,9 Z m 0,12 c -2.76,0 -5,-2.24 -5,-5 0,-2.76 2.24,-5 5,-5 2.76,0 5,2.24 5,5 0,2.76 -2.24,5 -5,5 z"
       id="path5013"
       transform="matrix(0.264583,0,0,0.264583,-0.264582,225.03)" />
    <path
       fill="#323232"
       d="M 16.5,12 H 15 v 5 l 3.6,2.1 0.8,-1.2 -2.9,-1.7 V 12 Z"
       id="path5015"
       transform="matrix(0.264583,0,0,0.264583,-0.26458,225.03)" />
  </g>
</svg>
