<?xml version="1.0" encoding="UTF-8" standalone="no"?>
<!-- Created with Inkscape (http://www.inkscape.org/) -->

<svg
   id="svg1100"
   version="1.1"
   viewBox="0 0 4.2333279 5.1593685"
   height="5.1593685mm"
   width="4.2333279mm"
   xmlns="http://www.w3.org/2000/svg"
   xmlns:svg="http://www.w3.org/2000/svg">
  <defs
     id="defs1097" />
  <g
     id="New_Layer_1652807820.6735418"
     style="display:inline"
     transform="translate(-46.831232,-225.62446)">
    <path
       fill="#323232"
       d="M 18,16 V 11 C 18,7.93 16.36,5.36 13.5,4.68 V 4 C 13.5,3.17 12.83,2.5 12,2.5 11.17,2.5 10.5,3.17 10.5,4 V 4.68 C 7.63,5.36 6,7.92 6,11 v 5 l -2,2 v 1 h 16 v -1 z m -5,0 h -2 v -2 h 2 z m 0,-4 H 11 V 8 h 2 z m -1,10 c 1.1,0 2,-0.9 2,-2 h -4 a 2,2 0 0 0 2,2 z"
       id="path5049"
       transform="matrix(0.264583,0,0,0.264583,45.7729,224.963)" />
  </g>
</svg>
