<?xml version="1.0" encoding="UTF-8" standalone="no"?>
<!-- Created with Inkscape (http://www.inkscape.org/) -->

<svg
   id="svg1100"
   version="1.1"
   viewBox="0 0 5.8208261 4.7624941"
   height="4.7624941mm"
   width="5.8208261mm"
   xmlns="http://www.w3.org/2000/svg"
   xmlns:svg="http://www.w3.org/2000/svg">
  <defs
     id="defs1097" />
  <g
     id="New_Layer_1652807859.4810493"
     style="display:inline"
     transform="translate(-157.13158,-253.98975)">
    <path
       fill="#323232"
       d="m 17.5,10.5 h 2 v 1 h -2 z m -13,0 h 2 v 3 h -2 z M 21,3 H 3 C 1.89,3 1,3.89 1,5 v 14 a 2,2 0 0 0 2,2 h 18 a 2,2 0 0 0 2,-2 V 5 C 23,3.89 22.11,3 21,3 Z M 8,13.5 C 8,14.35 7.35,15 6.5,15 H 3 V 9 H 6.5 C 7.35,9 8,9.65 8,10.5 Z m 4.62,1.5 h -1.5 L 9.37,9 h 1.5 l 1,3.43 1,-3.43 h 1.5 z M 21,11.5 c 0,0.6 -0.4,1.15 -0.9,1.4 L 21,15 H 19.5 L 18.65,13 H 17.5 v 2 H 16 V 9 h 3.5 c 0.85,0 1.5,0.65 1.5,1.5 z"
       id="path11171"
       transform="matrix(0.264583,0,0,0.264583,156.867,253.196)" />
  </g>
</svg>
