<?xml version="1.0" encoding="UTF-8" standalone="no"?>
<!-- Created with Inkscape (http://www.inkscape.org/) -->

<svg
   id="svg1100"
   version="1.1"
   viewBox="0 0 5.8208261 4.7624941"
   height="4.7624941mm"
   width="5.8208261mm"
   xmlns="http://www.w3.org/2000/svg"
   xmlns:svg="http://www.w3.org/2000/svg">
  <defs
     id="defs1097" />
  <g
     id="New_Layer_1652807859.4829094"
     style="display:inline"
     transform="translate(-49.446283,-253.98975)">
    <path
       fill="#323232"
       d="M 21,3 H 3 C 1.9,3 1,3.9 1,5 v 14 c 0,1.1 0.9,2 2,2 h 18 c 1.1,0 2,-0.9 2,-2 V 5 C 23,3.9 22.1,3 21,3 Z m 0,16 H 3 V 5 H 21 Z M 8,15 c 0,-1.66 1.34,-3 3,-3 0.35,0 0.69,0.07 1,0.18 V 6 h 5 v 2 h -3 v 7.03 A 3.003,3.003 0 0 1 11,18 C 9.34,18 8,16.66 8,15 Z"
       id="path11436"
       transform="matrix(0.264583,0,0,0.264583,49.1817,253.196)" />
  </g>
</svg>
