<?xml version="1.0" encoding="UTF-8" standalone="no"?>
<!-- Created with Inkscape (http://www.inkscape.org/) -->

<svg
   id="svg1100"
   version="1.1"
   viewBox="0 0 5.2916598 5.2916598"
   height="5.2916598mm"
   width="5.2916598mm"
   xmlns="http://www.w3.org/2000/svg"
   xmlns:svg="http://www.w3.org/2000/svg">
  <defs
     id="defs1097" />
  <g
     id="New_Layer_1652806942.920144"
     style="display:inline"
     transform="translate(-21.166666,-47.110366)">
    <path
       fill="#323232"
       d="m 12,10.9 c -0.61,0 -1.1,0.49 -1.1,1.1 0,0.61 0.49,1.1 1.1,1.1 0.61,0 1.1,-0.49 1.1,-1.1 0,-0.61 -0.49,-1.1 -1.1,-1.1 z M 12,2 C 6.48,2 2,6.48 2,12 2,17.52 6.48,22 12,22 17.52,22 22,17.52 22,12 22,6.48 17.52,2 12,2 Z M 14.19,14.19 6,18 9.81,9.81 18,6 Z"
       id="path2289"
       transform="matrix(0.264583,0,0,0.264583,20.6375,46.5812)" />
  </g>
</svg>
