<?xml version="1.0" encoding="UTF-8" standalone="no"?>
<!-- Created with Inkscape (http://www.inkscape.org/) -->

<svg
   id="svg1100"
   version="1.1"
   viewBox="0 0 5.8208261 5.5377221"
   height="5.5377221mm"
   width="5.8208261mm"
   xmlns="http://www.w3.org/2000/svg"
   xmlns:svg="http://www.w3.org/2000/svg">
  <defs
     id="defs1097" />
  <g
     id="New_Layer_1652807859.483547"
     style="display:inline"
     transform="translate(-147.34258,-253.60146)">
    <path
       fill="#323232"
       d="M 23,12 20.56,9.22 20.9,5.54 17.29,4.72 15.4,1.54 12,3 8.6,1.54 6.71,4.72 3.1,5.53 3.44,9.21 1,12 3.44,14.78 3.1,18.47 6.71,19.29 8.6,22.47 12,21 l 3.4,1.46 1.89,-3.18 3.61,-0.82 -0.34,-3.68 z m -10,5 h -2 v -2 h 2 z m 0,-4 H 11 V 7 h 2 z"
       id="path11447"
       transform="matrix(0.264583,0,0,0.264583,147.078,253.194)" />
  </g>
</svg>
