<?xml version="1.0" encoding="UTF-8" standalone="no"?>
<!-- Created with Inkscape (http://www.inkscape.org/) -->

<svg
   id="svg1100"
   version="1.1"
   viewBox="0 0 6.0854092 5.1593685"
   height="5.1593685mm"
   width="6.0854092mm"
   xmlns="http://www.w3.org/2000/svg"
   xmlns:svg="http://www.w3.org/2000/svg">
  <defs
     id="defs1097" />
  <g
     id="New_Layer_1652807859.484783"
     style="display:inline"
     transform="translate(-10e-7,-253.79075)">
    <path
       fill="#323232"
       d="M 21,3 H 3 C 1.89,3 1,3.89 1,5 v 12 a 2,2 0 0 0 2,2 h 5 v 2 h 8 v -2 h 2 V 17 H 3 V 5 h 18 v 8 h 2 V 5 A 2,2 0 0 0 21,3 Z m -8,7 V 7 h -2 v 3 H 8 v 2 h 3 v 3 h 2 v -3 h 3 v -2 z m 11,8 -4.5,4.5 -1.5,-1.5 3,-3 -3,-3 1.5,-1.5 z"
       id="path11612"
       transform="matrix(0.264583,0,0,0.264583,-0.264582,252.997)" />
  </g>
</svg>
