<?xml version="1.0" encoding="UTF-8" standalone="no"?>
<!-- Created with Inkscape (http://www.inkscape.org/) -->

<svg
   id="svg1100"
   version="1.1"
   viewBox="0 0 5.8208261 5.820826"
   height="5.8208261mm"
   width="5.8208261mm"
   xmlns="http://www.w3.org/2000/svg"
   xmlns:svg="http://www.w3.org/2000/svg">
  <defs
     id="defs1097" />
  <g
     id="New_Layer_1652807859.4866433"
     style="display:inline"
     transform="translate(-20.077583,-253.46058)">
    <path
       fill="#323232"
       fill-rule="evenodd"
       d="M 21,1 H 3 C 1.9,1 1,1.9 1,3 v 18 c 0,1.1 0.9,2 2,2 h 18 c 1.1,0 2,-0.9 2,-2 V 3 C 23,1.9 22.1,1 21,1 Z M 7,7 h 10 v 3 L 21,6 17,2 V 5 H 5 v 6 H 7 Z M 17,17 H 7 v -3 l -4,4 4,4 v -3 h 12 v -6 h -2 z"
       clip-rule="evenodd"
       id="path11667"
       transform="matrix(0.264583,0,0,0.264583,19.813,253.196)" />
  </g>
</svg>
