<?xml version="1.0" encoding="UTF-8" standalone="no"?>
<!-- Created with Inkscape (http://www.inkscape.org/) -->

<svg
   id="svg1100"
   version="1.1"
   viewBox="0 0 5.8208261 5.820826"
   height="5.8208261mm"
   width="5.8208261mm"
   xmlns="http://www.w3.org/2000/svg"
   xmlns:svg="http://www.w3.org/2000/svg">
  <defs
     id="defs1097" />
  <g
     id="New_Layer_1652807859.4883163"
     style="display:inline"
     transform="translate(-127.76258,-253.46058)">
    <path
       fill="#323232"
       fill-rule="evenodd"
       d="M 21,1 H 3 C 1.9,1 1,1.9 1,3 v 18 c 0,1.1 0.9,2 2,2 h 18 c 1.1,0 2,-0.9 2,-2 V 3 C 23,1.9 22.1,1 21,1 Z M 10.59,9.17 5.41,4 4,5.41 9.17,10.58 Z M 14.5,4 16.54,6.04 4,18.59 5.41,20 17.96,7.46 20,9.5 V 4 Z m 0.33,9.41 -1.41,1.41 3.13,3.13 L 14.5,20 H 20 v -5.5 l -2.04,2.04 z"
       clip-rule="evenodd"
       id="path11786"
       transform="matrix(0.264583,0,0,0.264583,127.498,253.196)" />
  </g>
</svg>
