<?xml version="1.0" encoding="UTF-8" standalone="no"?>
<!-- Created with Inkscape (http://www.inkscape.org/) -->

<svg
   id="svg1100"
   version="1.1"
   viewBox="0 0 5.2916598 4.7624941"
   height="4.7624941mm"
   width="5.2916598mm"
   xmlns="http://www.w3.org/2000/svg"
   xmlns:svg="http://www.w3.org/2000/svg">
  <defs
     id="defs1097" />
  <g
     id="New_Layer_1652806942.9207556"
     style="display:inline"
     transform="translate(-175.94817,-37.056149)">
    <path
       fill="#323232"
       fill-rule="evenodd"
       d="M 20,3 H 4 C 2.9,3 2,3.9 2,5 v 14 c 0,1.1 0.9,2 2,2 h 16 c 1.1,0 2,-0.9 2,-2 V 5 C 22,3.9 21.1,3 20,3 Z M 10,17 H 5 v -2 h 5 z m 0,-4 H 5 v -2 h 5 z M 10,9 H 5 V 7 h 5 z m 4.82,6 -2.82,-2.84 1.41,-1.41 1.41,1.42 3.17,-3.17 1.42,1.42 z"
       clip-rule="evenodd"
       id="path2333"
       transform="matrix(0.264583,0,0,0.264583,175.419,36.2624)" />
  </g>
</svg>
