<?xml version="1.0" encoding="UTF-8" standalone="no"?>
<!-- Created with Inkscape (http://www.inkscape.org/) -->

<svg
   id="svg1100"
   version="1.1"
   viewBox="0 0 6.0546513 5.0244312"
   height="5.0244312mm"
   width="6.0546513mm"
   xmlns="http://www.w3.org/2000/svg"
   xmlns:svg="http://www.w3.org/2000/svg">
  <defs
     id="defs1097" />
  <g
     id="New_Layer_1652807859.4901927"
     style="display:inline"
     transform="translate(-10.054163,-253.85833)">
    <path
       fill="#323232"
       d="m 3,6 h 18 v 5 h 2 V 6 C 23,4.9 22.1,4 21,4 H 3 C 1.9,4 1,4.9 1,6 v 12 c 0,1.1 0.9,2 2,2 h 9 V 18 H 3 Z"
       id="path11973"
       transform="matrix(0.264583,0,0,0.264583,9.78958,252.8)" />
    <path
       fill="#323232"
       d="M 15,12 9,8 v 8 z m 7.71,6.43 c 0.03,-0.29 0.04,-0.58 0.01,-0.86 l 1.07,-0.85 c 0.1,-0.08 0.12,-0.21 0.06,-0.32 L 22.82,14.61 C 22.76,14.5 22.63,14.46 22.51,14.5 L 21.23,15 a 3.44,3.44 0 0 0 -0.75,-0.42 l -0.2,-1.36 A 0.249,0.249 0 0 0 20.03,13 h -2.07 c -0.12,0 -0.23,0.09 -0.25,0.21 l -0.2,1.36 c -0.26,0.11 -0.51,0.26 -0.74,0.42 l -1.28,-0.5 c -0.12,-0.05 -0.25,0 -0.31,0.11 l -1.03,1.79 c -0.06,0.11 -0.04,0.24 0.06,0.32 l 1.07,0.86 c -0.03,0.29 -0.04,0.58 -0.01,0.86 l -1.07,0.85 c -0.1,0.08 -0.12,0.21 -0.06,0.32 l 1.03,1.79 c 0.06,0.11 0.19,0.15 0.31,0.11 L 16.75,21 c 0.23,0.17 0.48,0.31 0.75,0.42 l 0.2,1.36 c 0.02,0.12 0.12,0.21 0.25,0.21 h 2.07 c 0.12,0 0.23,-0.09 0.25,-0.21 l 0.2,-1.36 c 0.26,-0.11 0.51,-0.26 0.74,-0.42 l 1.28,0.5 c 0.12,0.05 0.25,0 0.31,-0.11 l 1.03,-1.79 c 0.06,-0.11 0.04,-0.24 -0.06,-0.32 z M 19,19.5 c -0.83,0 -1.5,-0.67 -1.5,-1.5 0,-0.83 0.67,-1.5 1.5,-1.5 0.83,0 1.5,0.67 1.5,1.5 0,0.83 -0.67,1.5 -1.5,1.5 z"
       id="path11975"
       transform="matrix(0.264583,0,0,0.264583,9.78958,252.8)" />
  </g>
</svg>
