<?xml version="1.0" encoding="UTF-8" standalone="no"?>
<!-- Created with Inkscape (http://www.inkscape.org/) -->

<svg
   id="svg1100"
   version="1.1"
   viewBox="0 0 5.2360973 5.2387433"
   height="5.2387433mm"
   width="5.2360973mm"
   xmlns="http://www.w3.org/2000/svg"
   xmlns:svg="http://www.w3.org/2000/svg">
  <defs
     id="defs1097" />
  <g
     id="New_Layer_1652808021.615344"
     style="display:inline"
     transform="translate(-108.47577,-272.98548)">
    <path
       fill="#323232"
       d="M 6.83,4 H 19 c 1.1,0 2,0.9 2,2 v 12 c 0,0.05 -0.01,0.1 -0.02,0.16 L 17.6,14.78 C 17.84,14.59 18,14.32 18,14 v -1 h -1.5 v 0.5 H 16.33 L 14.5,11.67 V 10.5 h 2 V 11 H 18 V 10 C 18,9.45 17.55,9 17,9 h -3 c -0.55,0 -1,0.45 -1,1 v 0.17 z M 19.78,22.61 17.17,20 H 5 A 2,2 0 0 1 3,18 V 6 C 3,5.95 3.02,5.9 3.02,5.85 L 1.39,4.22 2.8,2.81 21.18,21.19 Z M 11,13.83 10.17,13 H 9.5 v 0.5 h -2 v -3 H 7.67 L 6.4,9.22 C 6.16,9.41 6,9.68 6,10 v 4 c 0,0.55 0.45,1 1,1 h 3 c 0.55,0 1,-0.45 1,-1 z"
       id="path11072"
       transform="matrix(0.264583,0,0,0.264583,108.108,272.242)" />
  </g>
</svg>
