<?xml version="1.0" encoding="UTF-8" standalone="no"?>
<!-- Created with Inkscape (http://www.inkscape.org/) -->

<svg
   id="svg1100"
   version="1.1"
   viewBox="0 0 4.7624984 5.4986181"
   height="5.4986181mm"
   width="4.7624984mm"
   xmlns="http://www.w3.org/2000/svg"
   xmlns:svg="http://www.w3.org/2000/svg">
  <defs
     id="defs1097" />
  <g
     id="New_Layer_1652808021.6166012"
     style="display:inline"
     transform="translate(-147.87175,-272.85479)">
    <path
       fill="#323232"
       d="m 17,20 c -0.29,0 -0.56,-0.06 -0.76,-0.15 -0.71,-0.37 -1.21,-0.88 -1.71,-2.38 -0.51,-1.56 -1.47,-2.29 -2.39,-3 C 11.35,13.86 10.53,13.23 9.82,11.94 9.29,10.98 9,9.93 9,9 9,6.2 11.2,4 14,4 c 2.8,0 5,2.2 5,5 h 2 C 21,5.07 17.93,2 14,2 10.07,2 7,5.07 7,9 c 0,1.26 0.38,2.65 1.07,3.9 0.91,1.65 1.98,2.48 2.85,3.15 0.81,0.62 1.39,1.07 1.71,2.05 0.6,1.82 1.37,2.84 2.73,3.55 A 3.999,3.999 0 0 0 21,18 h -2 c 0,1.1 -0.9,2 -2,2 z M 7.64,2.64 6.22,1.22 A 10.965,10.965 0 0 0 3,9 c 0,3.04 1.23,5.79 3.22,7.78 L 7.63,15.37 A 9.011,9.011 0 0 1 5,9 C 5,6.51 6.01,4.26 7.64,2.64 Z M 11.5,9 a 2.5,2.5 0 0 0 5,0 2.5,2.5 0 0 0 -5,0 z"
       id="path11293"
       transform="matrix(0.264583,0,0,0.264583,147.078,272.532)" />
  </g>
</svg>
