<?xml version="1.0" encoding="UTF-8" standalone="no"?>
<!-- Created with Inkscape (http://www.inkscape.org/) -->

<svg
   id="svg1100"
   version="1.1"
   viewBox="0 0 5.2916598 5.2916598"
   height="5.2916598mm"
   width="5.2916598mm"
   xmlns="http://www.w3.org/2000/svg"
   xmlns:svg="http://www.w3.org/2000/svg">
  <defs
     id="defs1097" />
  <g
     id="New_Layer_1652808021.619703"
     style="display:inline"
     transform="translate(-0.396876,-272.95917)">
    <path
       fill="#323232"
       d="M 12,2 C 6.48,2 2,6.48 2,12 2,17.52 6.48,22 12,22 17.52,22 22,17.52 22,12 22,6.48 17.52,2 12,2 Z m 0,18 C 7.58,20 4,16.42 4,12 4,10.15 4.63,8.45 5.69,7.1 L 16.9,18.31 A 7.902,7.902 0 0 1 12,20 Z M 18.31,16.9 7.1,5.69 A 7.902,7.902 0 0 1 12,4 c 4.42,0 8,3.58 8,8 0,1.85 -0.63,3.55 -1.69,4.9 z"
       id="path11469"
       transform="matrix(0.264583,0,0,0.264583,-0.13229,272.43)" />
  </g>
</svg>
