<?xml version="1.0" encoding="UTF-8" standalone="no"?>
<!-- Created with Inkscape (http://www.inkscape.org/) -->

<svg
   id="svg1100"
   version="1.1"
   viewBox="0 0 5.2784309 5.2652015"
   height="5.2652016mm"
   width="5.2784309mm"
   xmlns="http://www.w3.org/2000/svg"
   xmlns:svg="http://www.w3.org/2000/svg">
  <defs
     id="defs1097" />
  <g
     id="New_Layer_1652808021.6209393"
     style="display:inline"
     transform="translate(-88.875895,-272.9724)">
    <path
       fill="#323232"
       d="M 13.05,9.79 10,7.5 v 9 L 13.05,14.21 16,12 Z m 0,0 L 10,7.5 v 9 L 13.05,14.21 16,12 Z m 0,0 L 10,7.5 v 9 L 13.05,14.21 16,12 Z M 11,4.07 V 2.05 c -2.01,0.2 -3.84,1 -5.32,2.21 L 7.1,5.69 A 7.941,7.941 0 0 1 11,4.07 Z M 5.69,7.1 4.26,5.68 A 9.949,9.949 0 0 0 2.05,11 H 4.07 C 4.25,9.54 4.83,8.21 5.69,7.1 Z M 4.07,13 H 2.05 c 0.2,2.01 1,3.84 2.21,5.32 L 5.69,16.89 A 7.868,7.868 0 0 1 4.07,13 Z m 1.61,6.74 A 9.981,9.981 0 0 0 11,21.95 V 19.93 A 7.941,7.941 0 0 1 7.1,18.31 Z M 22,12 c 0,5.16 -3.92,9.42 -8.95,9.95 V 19.93 C 16.97,19.41 20,16.05 20,12 20,7.95 16.97,4.59 13.05,4.07 V 2.05 C 18.08,2.58 22,6.84 22,12 Z"
       id="path11819"
       transform="matrix(0.264583,0,0,0.264583,88.3335,272.43)" />
  </g>
</svg>
