<?xml version="1.0" encoding="UTF-8" standalone="no"?>
<!-- Created with Inkscape (http://www.inkscape.org/) -->

<svg
   id="svg1100"
   version="1.1"
   viewBox="0 0 5.2830334 4.2232837"
   height="4.2232838mm"
   width="5.2830334mm"
   xmlns="http://www.w3.org/2000/svg"
   xmlns:svg="http://www.w3.org/2000/svg">
  <defs
     id="defs1097" />
  <g
     id="New_Layer_1652808021.6215632"
     style="display:inline"
     transform="translate(-79.083951,-273.49338)">
    <path
       fill="#323232"
       d="m 20.38,8.57 -1.23,1.85 A 8,8 0 0 1 18.93,18 H 5.07 A 8,8 0 0 1 15.58,6.85 L 17.43,5.62 A 10,10 0 0 0 3.35,19 2,2 0 0 0 5.07,20 H 18.92 A 2,2 0 0 0 20.66,19 10,10 0 0 0 20.39,8.56 Z m -9.79,6.84 a 1.998,1.998 0 0 0 2.83,0 l 5.66,-8.49 -8.49,5.66 a 2,2 0 0 0 0,2.83 z"
       id="path11852"
       transform="matrix(0.264583,0,0,0.264583,78.5463,272.425)" />
  </g>
</svg>
