<?xml version="1.0" encoding="UTF-8" standalone="no"?>
<!-- Created with Inkscape (http://www.inkscape.org/) -->

<svg
   id="svg1100"
   version="1.1"
   viewBox="0 0 4.7624998 4.7624941"
   height="4.7624941mm"
   width="4.7624998mm"
   xmlns="http://www.w3.org/2000/svg"
   xmlns:svg="http://www.w3.org/2000/svg">
  <defs
     id="defs1097" />
  <g
     id="New_Layer_1652808021.625039"
     style="display:inline"
     transform="translate(-138.08175,-273.22375)">
    <path
       fill="#323232"
       d="M 16.5,12 A 4.5,4.5 0 0 0 14,7.97 v 2.21 l 2.45,2.45 C 16.48,12.43 16.5,12.22 16.5,12 Z m 2.5,0 c 0,0.94 -0.2,1.82 -0.54,2.64 l 1.51,1.51 A 8.796,8.796 0 0 0 21,12 C 21,7.72 18.01,4.14 14,3.23 v 2.06 c 2.89,0.86 5,3.54 5,6.71 z M 4.27,3 3,4.27 7.73,9 H 3 v 6 h 4 l 5,5 v -6.73 l 4.25,4.25 C 15.58,18.04 14.83,18.45 14,18.7 v 2.06 a 8.99,8.99 0 0 0 3.69,-1.81 L 19.73,21 21,19.73 l -9,-9 z M 12,4 9.91,6.09 12,8.18 Z"
       id="path12009"
       transform="matrix(0.264583,0,0,0.264583,137.288,272.43)" />
  </g>
</svg>
