<?xml version="1.0" encoding="UTF-8" standalone="no"?>
<!-- Created with Inkscape (http://www.inkscape.org/) -->

<svg
   id="svg1100"
   version="1.1"
   viewBox="0 0 5.2916598 2.6458299"
   height="2.6458299mm"
   width="5.2916598mm"
   xmlns="http://www.w3.org/2000/svg"
   xmlns:svg="http://www.w3.org/2000/svg">
  <defs
     id="defs1097" />
  <g
     id="New_Layer_1652808852.1655047"
     style="display:inline"
     transform="translate(-69.290066,-264.70508)">
    <path
       fill="#323232"
       d="m 22,13 h -8 v -2 h 8 z m 0,-6 h -8 v 2 h 8 z m -8,10 h 8 V 15 H 14 Z M 12,9 v 6 c 0,1.1 -0.9,2 -2,2 H 4 C 2.9,17 2,16.1 2,15 V 9 C 2,7.9 2.9,7 4,7 h 6 c 1.1,0 2,0.9 2,2 z M 10.5,15 8.25,12 6.5,14.26 5.25,12.75 3.5,15 Z"
       id="path11017"
       transform="matrix(0.264583,0,0,0.264583,68.7609,262.853)" />
  </g>
</svg>
