<?xml version="1.0" encoding="UTF-8" standalone="no"?>
<!-- Created with Inkscape (http://www.inkscape.org/) -->

<svg
   id="svg1100"
   version="1.1"
   viewBox="0 0 5.2916598 5.2916598"
   height="5.2916598mm"
   width="5.2916598mm"
   xmlns="http://www.w3.org/2000/svg"
   xmlns:svg="http://www.w3.org/2000/svg">
  <defs
     id="defs1097" />
  <g
     id="New_Layer_1652808852.1664076"
     style="display:inline"
     transform="translate(-176.84317,-263.38217)">
    <path
       fill="#323232"
       d="M 15.54,5.54 13.77,7.3 12,5.54 10.23,7.3 8.46,5.54 12,2 Z m 2.92,10 L 16.7,13.77 18.46,12 16.7,10.23 18.46,8.46 22,12 Z m -10,2.92 1.77,-1.76 1.77,1.76 1.77,-1.76 1.77,1.76 L 12,22 Z M 5.54,8.46 7.3,10.23 5.54,12 7.3,13.77 5.54,15.54 2,12 Z M 12,15 a 3,3 0 1 0 0,-6 3,3 0 0 0 0,6 z"
       id="path11094"
       transform="matrix(0.264583,0,0,0.264583,176.314,262.853)" />
  </g>
</svg>
