<?xml version="1.0" encoding="UTF-8" standalone="no"?>
<!-- Created with Inkscape (http://www.inkscape.org/) -->

<svg
   id="svg1100"
   version="1.1"
   viewBox="0 0 5.2916598 4.2333278"
   height="4.2333279mm"
   width="5.2916598mm"
   xmlns="http://www.w3.org/2000/svg"
   xmlns:svg="http://www.w3.org/2000/svg">
  <defs
     id="defs1097" />
  <g
     id="New_Layer_1652808852.1669602"
     style="display:inline"
     transform="translate(-59.500466,-263.91133)">
    <path
       fill="#323232"
       d="M 20,4 H 4 C 2.89,4 2.01,4.89 2.01,6 L 2,18 c 0,1.11 0.89,2 2,2 h 16 c 1.11,0 2,-0.89 2,-2 V 6 C 22,4.89 21.11,4 20,4 Z M 8.5,15 H 7.3 L 4.75,11.5 V 15 H 3.5 V 9 h 1.25 l 2.5,3.5 V 9 H 8.5 Z m 5,-4.74 H 11 v 1.12 h 2.5 v 1.26 H 11 v 1.11 h 2.5 V 15 h -4 V 9 h 4 z m 7,3.74 c 0,0.55 -0.45,1 -1,1 h -4 c -0.55,0 -1,-0.45 -1,-1 V 9 h 1.25 v 4.51 h 1.13 V 9.99 h 1.25 v 3.51 h 1.12 V 9 h 1.25 z"
       id="path11193"
       transform="matrix(0.264583,0,0,0.264583,58.9713,262.853)" />
  </g>
</svg>
