<?xml version="1.0" encoding="UTF-8" standalone="no"?>
<!-- Created with Inkscape (http://www.inkscape.org/) -->

<svg
   id="svg1100"
   version="1.1"
   viewBox="0 0 5.2916598 4.2333278"
   height="4.2333279mm"
   width="5.2916598mm"
   xmlns="http://www.w3.org/2000/svg"
   xmlns:svg="http://www.w3.org/2000/svg">
  <defs
     id="defs1097" />
  <g
     id="New_Layer_1652808852.167517"
     style="display:inline"
     transform="translate(-20.342166,-263.91133)">
    <path
       fill="#323232"
       d="m 5.5,10.5 h 2 v 1 h -2 z M 20,4 H 4 C 2.89,4 2.01,4.89 2.01,6 L 2,18 c 0,1.11 0.89,2 2,2 h 16 c 1.11,0 2,-0.89 2,-2 V 6 C 22,4.89 21.11,4 20,4 Z M 9,11.5 C 9,12.35 8.35,13 7.5,13 h -2 v 2 H 4 V 9 H 7.5 C 8.35,9 9,9.65 9,10.5 Z M 12.5,15 H 11 V 9 h 1.5 z M 20,15 H 18.8 L 16.25,11.5 V 15 H 15 V 9 h 1.25 l 2.5,3.5 V 9 H 20 Z"
       id="path11204"
       transform="matrix(0.264583,0,0,0.264583,19.813,262.853)" />
  </g>
</svg>
