<?xml version="1.0" encoding="UTF-8" standalone="no"?>
<!-- Created with Inkscape (http://www.inkscape.org/) -->

<svg
   id="svg1100"
   version="1.1"
   viewBox="0 0 5.2916598 5.2916598"
   height="5.2916598mm"
   width="5.2916598mm"
   xmlns="http://www.w3.org/2000/svg"
   xmlns:svg="http://www.w3.org/2000/svg">
  <defs
     id="defs1097" />
  <g
     id="New_Layer_1652808852.1680617"
     style="display:inline"
     transform="translate(-186.26917,-263.38217)">
    <path
       fill="#323232"
       d="M 20,2 H 8 C 6.9,2 6,2.9 6,4 v 12 c 0,1.1 0.9,2 2,2 h 12 c 1.1,0 2,-0.9 2,-2 V 4 C 22,2.9 21.1,2 20,2 Z M 12.47,14 9,10.5 10.4,9.09 12.47,11.17 17.6,6 19,7.41 Z M 4,6 H 2 v 14 c 0,1.1 0.9,2 2,2 H 18 V 20 H 4 Z"
       id="path11337"
       transform="matrix(0.264583,0,0,0.264583,185.74,262.853)" />
  </g>
</svg>
