<?xml version="1.0" encoding="UTF-8" standalone="no"?>
<!-- Created with Inkscape (http://www.inkscape.org/) -->

<svg
   id="svg1100"
   version="1.1"
   viewBox="0 0 5.2916598 5.5562429"
   height="5.5562429mm"
   width="5.2916598mm"
   xmlns="http://www.w3.org/2000/svg"
   xmlns:svg="http://www.w3.org/2000/svg">
  <defs
     id="defs1097" />
  <g
     id="New_Layer_1652808852.173241"
     style="display:inline"
     transform="translate(-0.396876,-263.24958)">
    <path
       fill="#323232"
       d="M 3.24,6.15 C 2.51,6.43 2,7.17 2,8 v 12 a 2,2 0 0 0 2,2 h 16 a 2,2 0 0 0 2,-2 V 8 C 22,6.89 21.11,6 20,6 H 8.3 L 16.56,2.66 15.88,1 Z M 7,20 c -1.66,0 -3,-1.34 -3,-3 0,-1.66 1.34,-3 3,-3 1.66,0 3,1.34 3,3 0,1.66 -1.34,3 -3,3 z m 13,-8 h -2 v -2 h -2 v 2 H 4 V 8 h 16 z"
       id="path11623"
       transform="matrix(0.264583,0,0,0.264583,-0.13229,262.985)" />
  </g>
</svg>
