<?xml version="1.0" encoding="UTF-8" standalone="no"?>
<!-- Created with Inkscape (http://www.inkscape.org/) -->

<svg
   id="svg1100"
   version="1.1"
   viewBox="0 0 5.2916598 4.2333278"
   height="4.2333279mm"
   width="5.2916598mm"
   xmlns="http://www.w3.org/2000/svg"
   xmlns:svg="http://www.w3.org/2000/svg">
  <defs
     id="defs1097" />
  <g
     id="New_Layer_1652808852.17602"
     style="display:inline"
     transform="translate(-49.710866,-263.91133)">
    <path
       fill="#323232"
       d="M 20,4 H 4 C 2.9,4 2,4.9 2,6 v 12 c 0,1.1 0.9,2 2,2 h 16 c 1.1,0 2,-0.9 2,-2 V 6 C 22,4.9 21.1,4 20,4 Z M 7.76,16.24 6.35,17.65 A 7.909,7.909 0 0 1 4,12 C 4,9.95 4.78,7.9 6.34,6.34 L 7.75,7.75 A 6.046,6.046 0 0 0 6,12 c 0,1.54 0.59,3.07 1.76,4.24 z M 12,16 C 9.79,16 8,14.21 8,12 8,9.79 9.79,8 12,8 c 2.21,0 4,1.79 4,4 0,2.21 -1.79,4 -4,4 z m 5.66,1.66 -1.41,-1.41 A 6.046,6.046 0 0 0 18,12 C 18,10.46 17.41,8.93 16.24,7.76 L 17.65,6.35 A 7.909,7.909 0 0 1 20,12 c 0,2.05 -0.78,4.1 -2.34,5.66 z M 12,10 c -1.1,0 -2,0.9 -2,2 0,1.1 0.9,2 2,2 1.1,0 2,-0.9 2,-2 0,-1.1 -0.9,-2 -2,-2 z"
       id="path11907"
       transform="matrix(0.264583,0,0,0.264583,49.1817,262.853)" />
  </g>
</svg>
