<?xml version="1.0" encoding="UTF-8" standalone="no"?>
<!-- Created with Inkscape (http://www.inkscape.org/) -->

<svg
   id="svg1100"
   version="1.1"
   viewBox="0 0 4.7624941 4.7624941"
   height="4.7624941mm"
   width="4.7624941mm"
   xmlns="http://www.w3.org/2000/svg"
   xmlns:svg="http://www.w3.org/2000/svg">
  <defs
     id="defs1097" />
  <g
     id="New_Layer_1652808876.6617725"
     style="display:inline"
     transform="translate(-0.661459,-282.66775)">
    <path
       fill="#323232"
       d="M 19,3 H 5 C 3.9,3 3,3.9 3,5 v 14 c 0,1.1 0.9,2 2,2 h 14 c 1.1,0 2,-0.9 2,-2 V 5 C 21,3.9 20.1,3 19,3 Z M 10.5,15 H 9 V 10.5 H 7.5 V 9 h 3 z m 7,0 H 15.75 L 14,12.75 V 15 H 12.5 V 9 H 14 v 2.25 L 15.75,9 h 1.75 l -2.25,3 z"
       id="path10761"
       transform="matrix(0.264583,0,0,0.264583,-0.13229,281.874)" />
  </g>
</svg>
