<?xml version="1.0" encoding="UTF-8" standalone="no"?>
<!-- Created with Inkscape (http://www.inkscape.org/) -->

<svg
   id="svg1100"
   version="1.1"
   viewBox="0 0 4.7624941 2.6458299"
   height="2.6458299mm"
   width="4.7624941mm"
   xmlns="http://www.w3.org/2000/svg"
   xmlns:svg="http://www.w3.org/2000/svg">
  <defs
     id="defs1097" />
  <g
     id="New_Layer_1652808876.6650295"
     style="display:inline"
     transform="translate(-49.975449,-283.72608)">
    <path
       fill="#323232"
       d="m 17,13 h 2 v 2 H 14 V 9 h 7 C 21,7.9 20.1,7 19,7 h -5 c -1.1,0 -2,0.9 -2,2 v 6 c 0,1.1 0.9,2 2,2 h 5 c 1.1,0 2,-0.9 2,-2 V 11 H 17 Z M 3,13 h 5 v 2 H 3 v 2 h 5 c 1.1,0 2,-0.9 2,-2 V 13 C 10,11.9 9.1,11 8,11 H 5 V 9 h 5 V 7 H 3 Z"
       id="path10849"
       transform="matrix(0.264583,0,0,0.264583,49.1817,281.874)" />
  </g>
</svg>
