<?xml version="1.0" encoding="UTF-8" standalone="no"?>
<!-- Created with Inkscape (http://www.inkscape.org/) -->

<svg
   id="svg1100"
   version="1.1"
   viewBox="0 0 4.7624941 4.7624941"
   height="4.7624941mm"
   width="4.7624941mm"
   xmlns="http://www.w3.org/2000/svg"
   xmlns:svg="http://www.w3.org/2000/svg">
  <defs
     id="defs1097" />
  <g
     id="New_Layer_1652808876.6677294"
     style="display:inline"
     transform="translate(-69.554649,-292.19275)">
    <path
       fill="#323232"
       d="M 19,3 H 5 C 3.9,3 3,3.9 3,5 v 14 c 0,1.1 0.9,2 2,2 h 14 c 1.1,0 2,-0.9 2,-2 V 5 C 21,3.9 20.1,3 19,3 Z M 9.5,15 H 7.75 L 9.13,10.5 H 6.5 V 9 H 10 c 0.67,0 1.15,0.65 0.96,1.29 z M 18,15 H 16.25 L 14.5,12.75 V 15 H 13 V 9 h 1.5 v 2.25 L 16.25,9 H 18 l -2.25,3 z"
       id="path10904"
       transform="matrix(0.264583,0,0,0.264583,68.7609,291.399)" />
  </g>
</svg>
