<?xml version="1.0" encoding="UTF-8" standalone="no"?>
<!-- Created with Inkscape (http://www.inkscape.org/) -->

<svg
   id="svg1100"
   version="1.1"
   viewBox="0 0 4.7624941 4.7624941"
   height="4.7624941mm"
   width="4.7624941mm"
   xmlns="http://www.w3.org/2000/svg"
   xmlns:svg="http://www.w3.org/2000/svg">
  <defs
     id="defs1097" />
  <g
     id="New_Layer_1652808876.671525"
     style="display:inline"
     transform="translate(-138.08175,-282.66775)">
    <path
       fill="#323232"
       d="m 11,17 c 0,0.55 0.45,1 1,1 0.55,0 1,-0.45 1,-1 0,-0.55 -0.45,-1 -1,-1 -0.55,0 -1,0.45 -1,1 z M 11,3 v 4 h 2 V 5.08 c 3.39,0.49 6,3.39 6,6.92 0,3.87 -3.13,7 -7,7 C 8.13,19 5,15.87 5,12 5,10.32 5.59,8.78 6.58,7.58 L 12,13 13.41,11.59 6.61,4.79 V 4.81 C 4.42,6.45 3,9.05 3,12 c 0,4.97 4.02,9 9,9 A 9,9 0 0 0 12,3 Z m 7,9 c 0,-0.55 -0.45,-1 -1,-1 -0.55,0 -1,0.45 -1,1 0,0.55 0.45,1 1,1 0.55,0 1,-0.45 1,-1 z M 6,12 c 0,0.55 0.45,1 1,1 0.55,0 1,-0.45 1,-1 0,-0.55 -0.45,-1 -1,-1 -0.55,0 -1,0.45 -1,1 z"
       id="path11028"
       transform="matrix(0.264583,0,0,0.264583,137.288,281.874)" />
  </g>
</svg>
