<?xml version="1.0" encoding="UTF-8" standalone="no"?>
<!-- Created with Inkscape (http://www.inkscape.org/) -->

<svg
   id="svg1100"
   version="1.1"
   viewBox="0 0 4.2333279 5.2916598"
   height="5.2916598mm"
   width="4.2333279mm"
   xmlns="http://www.w3.org/2000/svg"
   xmlns:svg="http://www.w3.org/2000/svg">
  <defs
     id="defs1097" />
  <g
     id="New_Layer_1652808876.6758354"
     style="display:inline"
     transform="translate(-157.92533,-291.92758)">
    <path
       fill="#323232"
       d="m 18,13 c 0,3.31 -2.69,6 -6,6 C 8.69,19 6,16.31 6,13 6,9.69 8.69,7 12,7 v 4 L 17,6 12,1 v 4 c -4.42,0 -8,3.58 -8,8 0,4.42 3.58,8 8,8 4.42,0 8,-3.58 8,-8 z"
       id="path11229"
       transform="matrix(0.264583,0,0,0.264583,156.867,291.663)" />
    <path
       fill="#323232"
       d="m 12.03,15.38 c -0.44,0 -0.58,-0.31 -0.6,-0.56 h -0.84 c 0.03,0.85 0.79,1.25 1.44,1.25 0.93,0 1.44,-0.63 1.44,-1.43 0,-1.33 -0.97,-1.44 -1.3,-1.44 -0.2,0 -0.43,0.05 -0.64,0.16 l 0.11,-0.92 h 1.7 v -0.71 h -2.39 l -0.25,2.17 0.67,0.17 c 0.13,-0.13 0.28,-0.23 0.57,-0.23 0.4,0 0.69,0.23 0.69,0.75 -0.01,0.05 0.02,0.79 -0.6,0.79 z"
       id="path11231"
       transform="matrix(0.264583,0,0,0.264583,156.867,291.664)" />
  </g>
</svg>
