<?xml version="1.0" encoding="UTF-8" standalone="no"?>
<!-- Created with Inkscape (http://www.inkscape.org/) -->

<svg
   id="svg1100"
   version="1.1"
   viewBox="0 0 4.2333279 5.2916598"
   height="5.2916598mm"
   width="4.2333279mm"
   xmlns="http://www.w3.org/2000/svg"
   xmlns:svg="http://www.w3.org/2000/svg">
  <defs
     id="defs1097" />
  <g
     id="New_Layer_1652808876.6768396"
     style="display:inline"
     transform="translate(-167.71533,-291.92758)">
    <path
       fill="#323232"
       d="m 18,13 c 0,3.31 -2.69,6 -6,6 C 8.69,19 6,16.31 6,13 6,9.69 8.69,7 12,7 v 4 L 17,6 12,1 v 4 c -4.42,0 -8,3.58 -8,8 0,4.42 3.58,8 8,8 4.42,0 8,-3.58 8,-8 z"
       id="path11243"
       transform="matrix(0.264583,0,0,0.264583,166.657,291.663)" />
    <path
       fill="#323232"
       d="M 10.86,15.94 V 11.67 H 10.77 L 9,12.3 v 0.69 l 1.01,-0.31 v 3.26 z m 1.39,-2.5 v 0.74 c 0,1.9 1.31,1.82 1.44,1.82 0.14,0 1.44,0.09 1.44,-1.82 v -0.74 c 0,-1.9 -1.31,-1.82 -1.44,-1.82 -0.14,0 -1.44,-0.09 -1.44,1.82 z m 2.04,-0.12 v 0.97 c 0,0.77 -0.21,1.03 -0.59,1.03 -0.38,0 -0.6,-0.26 -0.6,-1.03 v -0.97 c 0,-0.75 0.22,-1.01 0.59,-1.01 0.38,-0.01 0.6,0.26 0.6,1.01 z"
       id="path11245"
       transform="matrix(0.264583,0,0,0.264583,166.657,291.664)" />
  </g>
</svg>
