<?xml version="1.0" encoding="UTF-8" standalone="no"?>
<!-- Created with Inkscape (http://www.inkscape.org/) -->

<svg
   id="svg1100"
   version="1.1"
   viewBox="0 0 4.2333279 5.2916598"
   height="5.2916598mm"
   width="4.2333279mm"
   xmlns="http://www.w3.org/2000/svg"
   xmlns:svg="http://www.w3.org/2000/svg">
  <defs
     id="defs1097" />
  <g
     id="New_Layer_1652808876.6778479"
     style="display:inline"
     transform="translate(-177.37233,-291.92758)">
    <path
       fill="#323232"
       d="m 18,13 c 0,3.31 -2.69,6 -6,6 C 8.69,19 6,16.31 6,13 6,9.69 8.69,7 12,7 v 4 L 17,6 12,1 v 4 c -4.42,0 -8,3.58 -8,8 0,4.42 3.58,8 8,8 4.42,0 8,-3.58 8,-8 z"
       id="path11257"
       transform="matrix(0.264583,0,0,0.264583,176.314,291.663)" />
    <path
       fill="#323232"
       d="m 10.06,15.38 c -0.29,0 -0.62,-0.17 -0.62,-0.54 H 8.59 c 0,0.97 0.9,1.23 1.45,1.23 0.87,0 1.51,-0.46 1.51,-1.25 0,-0.66 -0.45,-0.9 -0.71,-1 0.11,-0.05 0.65,-0.32 0.65,-0.92 0,-0.21 -0.05,-1.22 -1.44,-1.22 -0.62,0 -1.4,0.35 -1.4,1.16 H 9.5 c 0,-0.34 0.31,-0.48 0.57,-0.48 0.59,0 0.58,0.5 0.58,0.54 0,0.52 -0.41,0.59 -0.63,0.59 H 9.56 v 0.66 h 0.45 c 0.65,0 0.7,0.42 0.7,0.64 0,0.32 -0.21,0.59 -0.65,0.59 z m 3.79,-3.7 c -0.14,0 -1.44,-0.08 -1.44,1.82 v 0.74 c 0,1.9 1.31,1.82 1.44,1.82 0.14,0 1.44,0.09 1.44,-1.82 V 13.5 c 0.01,-1.91 -1.3,-1.82 -1.44,-1.82 z m 0.6,2.67 c 0,0.77 -0.21,1.03 -0.59,1.03 -0.38,0 -0.6,-0.26 -0.6,-1.03 v -0.97 c 0,-0.75 0.22,-1.01 0.59,-1.01 0.38,0 0.6,0.26 0.6,1.01 z"
       id="path11259"
       transform="matrix(0.264583,0,0,0.264583,176.314,291.664)" />
  </g>
</svg>
