<?xml version="1.0" encoding="UTF-8" standalone="no"?>
<!-- Created with Inkscape (http://www.inkscape.org/) -->

<svg
   id="svg1100"
   version="1.1"
   viewBox="0 0 4.7624941 4.2333278"
   height="4.2333279mm"
   width="4.7624941mm"
   xmlns="http://www.w3.org/2000/svg"
   xmlns:svg="http://www.w3.org/2000/svg">
  <defs
     id="defs1097" />
  <g
     id="New_Layer_1652808876.6793888"
     style="display:inline"
     transform="translate(-89.133849,-282.93233)">
    <path
       fill="#323232"
       d="M 19,4 H 5 A 2,2 0 0 0 3,6 v 12 a 2,2 0 0 0 2,2 h 14 c 1.1,0 2,-0.9 2,-2 V 6 C 21,4.9 20.1,4 19,4 Z M 11,15 H 9.5 v -2 h -2 v 2 H 6 V 9 h 1.5 v 2.5 h 2 V 9 H 11 Z m 7,-1 c 0,0.55 -0.45,1 -1,1 h -0.75 v 1.5 h -1.5 V 15 H 14 c -0.55,0 -1,-0.45 -1,-1 v -4 c 0,-0.55 0.45,-1 1,-1 h 3 c 0.55,0 1,0.45 1,1 z m -3.5,-0.5 h 2 v -3 h -2 z"
       id="path11315"
       transform="matrix(0.264583,0,0,0.264583,88.3401,281.874)" />
  </g>
</svg>
