<?xml version="1.0" encoding="UTF-8" standalone="no"?>
<!-- Created with Inkscape (http://www.inkscape.org/) -->

<svg
   id="svg1100"
   version="1.1"
   viewBox="0 0 4.2333283 5.820826"
   height="5.8208261mm"
   width="4.2333283mm"
   xmlns="http://www.w3.org/2000/svg"
   xmlns:svg="http://www.w3.org/2000/svg">
  <defs
     id="defs1097" />
  <g
     id="New_Layer_1652808876.6799345"
     style="display:inline"
     transform="translate(-138.34633,-291.66358)">
    <path
       fill="#323232"
       d="M 12,4 V 1 L 8,5 12,9 V 6 c 3.31,0 6,2.69 6,6 0,1.01 -0.25,1.97 -0.7,2.8 l 1.46,1.46 A 7.93,7.93 0 0 0 20,12 C 20,7.58 16.42,4 12,4 Z m 0,14 C 8.69,18 6,15.31 6,12 6,10.99 6.25,10.03 6.7,9.2 L 5.24,7.74 A 7.93,7.93 0 0 0 4,12 c 0,4.42 3.58,8 8,8 v 3 l 4,-4 -4,-4 z"
       id="path11370"
       transform="matrix(0.264583,0,0,0.264583,137.288,291.399)" />
  </g>
</svg>
