<?xml version="1.0" encoding="UTF-8" standalone="no"?>
<!-- Created with Inkscape (http://www.inkscape.org/) -->

<svg
   id="svg1100"
   version="1.1"
   viewBox="0 0 4.7624941 5.0270772"
   height="5.0270772mm"
   width="4.7624941mm"
   xmlns="http://www.w3.org/2000/svg"
   xmlns:svg="http://www.w3.org/2000/svg">
  <defs
     id="defs1097" />
  <g
     id="New_Layer_1652808876.6815665"
     style="display:inline"
     transform="translate(-128.29175,-282.53517)">
    <path
       fill="#323232"
       d="m 19,11 h -1.7 c 0,0.74 -0.16,1.43 -0.43,2.05 l 1.23,1.23 C 18.66,13.3 19,12.19 19,11 Z m -4.02,0.17 C 14.98,11.11 15,11.06 15,11 V 5 C 15,3.34 13.66,2 12,2 10.34,2 9,3.34 9,5 V 5.18 Z M 4.27,3 3,4.27 9.01,10.28 V 11 c 0,1.66 1.33,3 2.99,3 0.22,0 0.44,-0.03 0.65,-0.08 l 1.66,1.66 C 13.6,15.91 12.81,16.1 12,16.1 9.24,16.1 6.7,14 6.7,11 H 5 c 0,3.41 2.72,6.23 6,6.72 V 21 h 2 v -3.28 c 0.91,-0.13 1.77,-0.45 2.54,-0.9 L 19.73,21 21,19.73 Z"
       id="path11403"
       transform="matrix(0.264583,0,0,0.264583,127.498,282.006)" />
  </g>
</svg>
