<?xml version="1.0" encoding="UTF-8" standalone="no"?>
<!-- Created with Inkscape (http://www.inkscape.org/) -->

<svg
   id="svg1100"
   version="1.1"
   viewBox="0 0 4.7624941 3.1749959"
   height="3.1749959mm"
   width="4.7624941mm"
   xmlns="http://www.w3.org/2000/svg"
   xmlns:svg="http://www.w3.org/2000/svg">
  <defs
     id="defs1097" />
  <g
     id="New_Layer_1652808876.6821003"
     style="display:inline"
     transform="translate(-10.700249,-283.4615)">
    <path
       fill="#323232"
       d="M 17,10.5 V 7 C 17,6.45 16.55,6 16,6 H 4 C 3.45,6 3,6.45 3,7 v 10 c 0,0.55 0.45,1 1,1 h 12 c 0.55,0 1,-0.45 1,-1 v -3.5 l 4,4 V 6.5 Z M 10,15 6.11,11.11 v 2.55 H 5 V 9.22 h 4.44 v 1.11 H 6.89 L 10,13.43 14.22,9.21 15,10 Z"
       id="path11414"
       transform="matrix(0.264583,0,0,0.264583,9.9065,281.874)" />
  </g>
</svg>
