<?xml version="1.0" encoding="UTF-8" standalone="no"?>
<!-- Created with Inkscape (http://www.inkscape.org/) -->

<svg
   id="svg1100"
   version="1.1"
   viewBox="0 0 5.2916598 5.2916598"
   height="5.2916598mm"
   width="5.2916598mm"
   xmlns="http://www.w3.org/2000/svg"
   xmlns:svg="http://www.w3.org/2000/svg">
  <defs
     id="defs1097" />
  <g
     id="New_Layer_1652806942.9256353"
     style="display:inline"
     transform="translate(-114.03517,-26.472866)">
    <path
       fill="#323232"
       d="M 11.99,2 C 6.47,2 2,6.48 2,12 2,17.52 6.47,22 11.99,22 17.52,22 22,17.52 22,12 22,6.48 17.52,2 11.99,2 Z m 6.93,6 H 15.97 A 15.65,15.65 0 0 0 14.59,4.44 8.03,8.03 0 0 1 18.92,8 Z M 12,4.04 c 0.83,1.2 1.48,2.53 1.91,3.96 H 10.09 C 10.52,6.57 11.17,5.24 12,4.04 Z M 4.26,14 C 4.1,13.36 4,12.69 4,12 4,11.31 4.1,10.64 4.26,10 h 3.38 c -0.08,0.66 -0.14,1.32 -0.14,2 0,0.68 0.06,1.34 0.14,2 z m 0.82,2 h 2.95 c 0.32,1.25 0.78,2.45 1.38,3.56 A 7.987,7.987 0 0 1 5.08,16 Z M 8.03,8 H 5.08 A 7.987,7.987 0 0 1 9.41,4.44 15.65,15.65 0 0 0 8.03,8 Z M 12,19.96 C 11.17,18.76 10.52,17.43 10.09,16 h 3.82 C 13.48,17.43 12.83,18.76 12,19.96 Z M 14.34,14 H 9.66 C 9.57,13.34 9.5,12.68 9.5,12 c 0,-0.68 0.07,-1.35 0.16,-2 h 4.68 c 0.09,0.65 0.16,1.32 0.16,2 0,0.68 -0.07,1.34 -0.16,2 z m 0.25,5.56 c 0.6,-1.11 1.06,-2.31 1.38,-3.56 h 2.95 a 8.03,8.03 0 0 1 -4.33,3.56 z M 16.36,14 c 0.08,-0.66 0.14,-1.32 0.14,-2 0,-0.68 -0.06,-1.34 -0.14,-2 h 3.38 c 0.16,0.64 0.26,1.31 0.26,2 0,0.69 -0.1,1.36 -0.26,2 z"
       id="path2872"
       transform="matrix(0.264583,0,0,0.264583,113.506,25.9437)" />
  </g>
</svg>
