<?xml version="1.0" encoding="UTF-8" standalone="no"?>
<!-- Created with Inkscape (http://www.inkscape.org/) -->

<svg
   id="svg1100"
   version="1.1"
   viewBox="0 0 4.2333279 5.2916598"
   height="5.2916598mm"
   width="4.2333279mm"
   xmlns="http://www.w3.org/2000/svg"
   xmlns:svg="http://www.w3.org/2000/svg">
  <defs
     id="defs1097" />
  <g
     id="New_Layer_1652808876.686425"
     style="display:inline"
     transform="translate(-148.13633,-291.92758)">
    <path
       fill="#323232"
       d="M 12,5 V 1 l -5,5 5,5 V 7 c 3.31,0 6,2.69 6,6 0,3.31 -2.69,6 -6,6 C 8.69,19 6,16.31 6,13 H 4 c 0,4.42 3.58,8 8,8 4.42,0 8,-3.58 8,-8 0,-4.42 -3.58,-8 -8,-8 z"
       id="path11711"
       transform="matrix(0.264583,0,0,0.264583,147.078,291.663)" />
    <path
       fill="#323232"
       d="m 10.69,13.9 0.25,-2.17 h 2.39 v 0.71 h -1.7 l -0.11,0.92 c 0.03,-0.02 0.07,-0.03 0.11,-0.05 0.04,-0.02 0.09,-0.04 0.15,-0.05 0.06,-0.01 0.12,-0.03 0.18,-0.04 a 1.35,1.35 0 0 1 0.75,0.08 c 0.16,0.07 0.3,0.16 0.41,0.28 0.11,0.12 0.2,0.27 0.25,0.45 0.05,0.18 0.09,0.38 0.09,0.6 0,0.19 -0.03,0.37 -0.09,0.54 -0.06,0.17 -0.15,0.32 -0.27,0.45 -0.12,0.13 -0.27,0.24 -0.45,0.31 -0.18,0.07 -0.39,0.12 -0.64,0.12 -0.18,0 -0.36,-0.03 -0.53,-0.08 -0.17,-0.05 -0.32,-0.14 -0.46,-0.24 A 1.1,1.1 0 0 1 10.7,15.34 c -0.08,-0.15 -0.13,-0.33 -0.13,-0.53 h 0.84 c 0.02,0.18 0.08,0.32 0.19,0.41 0.11,0.09 0.25,0.15 0.42,0.15 a 0.49,0.49 0 0 0 0.45,-0.23 c 0.04,-0.07 0.08,-0.15 0.11,-0.25 0.03,-0.1 0.03,-0.2 0.03,-0.31 0,-0.11 -0.01,-0.21 -0.04,-0.31 a 0.618,0.618 0 0 0 -0.13,-0.24 0.51,0.51 0 0 0 -0.21,-0.15 0.896,0.896 0 0 0 -0.3,-0.05 c -0.08,0 -0.15,0.01 -0.2,0.02 a 0.66,0.66 0 0 0 -0.15,0.05 c -0.04,0.02 -0.08,0.05 -0.12,0.07 -0.04,0.02 -0.07,0.06 -0.1,0.09 z"
       id="path11713"
       transform="matrix(0.264583,0,0,0.264583,147.078,291.664)" />
  </g>
</svg>
