<?xml version="1.0" encoding="UTF-8" standalone="no"?>
<!-- Created with Inkscape (http://www.inkscape.org/) -->

<svg
   id="svg1100"
   version="1.1"
   viewBox="0 0 4.2333279 5.2916598"
   height="5.2916598mm"
   width="4.2333279mm"
   xmlns="http://www.w3.org/2000/svg"
   xmlns:svg="http://www.w3.org/2000/svg">
  <defs
     id="defs1097" />
  <g
     id="New_Layer_1652808876.6874266"
     style="display:inline"
     transform="translate(-40.450486,-301.45258)">
    <path
       fill="#323232"
       d="M 11.99,5 V 1 l -5,5 5,5 V 7 c 3.31,0 6,2.69 6,6 0,3.31 -2.69,6 -6,6 -3.31,0 -6,-2.69 -6,-6 h -2 c 0,4.42 3.58,8 8,8 4.42,0 8,-3.58 8,-8 0,-4.42 -3.58,-8 -8,-8 z"
       id="path11725"
       transform="matrix(0.264583,0,0,0.264583,39.3948,301.188)" />
    <path
       fill="#323232"
       d="m 10.89,16 h -0.85 v -3.26 l -1.01,0.31 v -0.69 l 1.77,-0.63 h 0.09 z m 4.28,-1.76 c 0,0.32 -0.03,0.6 -0.1,0.82 -0.07,0.22 -0.17,0.42 -0.29,0.57 -0.12,0.15 -0.28,0.26 -0.45,0.33 -0.17,0.07 -0.37,0.1 -0.59,0.1 -0.22,0 -0.41,-0.03 -0.59,-0.1 -0.18,-0.07 -0.33,-0.18 -0.46,-0.33 -0.13,-0.15 -0.23,-0.34 -0.3,-0.57 -0.07,-0.23 -0.11,-0.5 -0.11,-0.82 V 13.5 c 0,-0.32 0.03,-0.6 0.1,-0.82 0.07,-0.22 0.17,-0.42 0.29,-0.57 0.12,-0.15 0.28,-0.26 0.45,-0.33 0.17,-0.07 0.37,-0.1 0.59,-0.1 0.22,0 0.41,0.03 0.59,0.1 0.18,0.07 0.33,0.18 0.46,0.33 0.13,0.15 0.23,0.34 0.3,0.57 0.07,0.23 0.11,0.5 0.11,0.82 z m -0.85,-0.86 c 0,-0.19 -0.01,-0.35 -0.04,-0.48 -0.03,-0.13 -0.07,-0.23 -0.12,-0.31 a 0.389,0.389 0 0 0 -0.19,-0.17 0.655,0.655 0 0 0 -0.5,0 c -0.07,0.03 -0.14,0.09 -0.19,0.17 -0.05,0.08 -0.09,0.18 -0.12,0.31 -0.03,0.13 -0.04,0.29 -0.04,0.48 v 0.97 c 0,0.19 0.01,0.35 0.04,0.48 0.03,0.13 0.07,0.24 0.12,0.32 0.05,0.08 0.11,0.14 0.19,0.17 0.08,0.03 0.16,0.05 0.25,0.05 0.09,0 0.18,-0.02 0.25,-0.05 0.07,-0.03 0.14,-0.09 0.19,-0.17 0.05,-0.08 0.09,-0.19 0.11,-0.32 0.02,-0.13 0.04,-0.29 0.04,-0.48 v -0.97 z"
       id="path11727"
       transform="matrix(0.264583,0,0,0.264583,39.3948,301.189)" />
  </g>
</svg>
