<?xml version="1.0" encoding="UTF-8" standalone="no"?>
<!-- Created with Inkscape (http://www.inkscape.org/) -->

<svg
   id="svg1100"
   version="1.1"
   viewBox="0 0 4.2333279 5.2916598"
   height="5.2916598mm"
   width="4.2333279mm"
   xmlns="http://www.w3.org/2000/svg"
   xmlns:svg="http://www.w3.org/2000/svg">
  <defs
     id="defs1097" />
  <g
     id="New_Layer_1652808876.6884189"
     style="display:inline"
     transform="translate(-186.79833,-291.92758)">
    <path
       fill="#323232"
       d="M 12,5 V 1 l -5,5 5,5 V 7 c 3.31,0 6,2.69 6,6 0,3.31 -2.69,6 -6,6 C 8.69,19 6,16.31 6,13 H 4 c 0,4.42 3.58,8 8,8 4.42,0 8,-3.58 8,-8 0,-4.42 -3.58,-8 -8,-8 z"
       id="path11739"
       transform="matrix(0.264583,0,0,0.264583,185.74,291.663)" />
    <path
       fill="#323232"
       d="m 9.56,13.49 h 0.45 c 0.21,0 0.37,-0.05 0.48,-0.16 0.11,-0.11 0.16,-0.25 0.16,-0.43 A 0.538,0.538 0 0 0 10.5,12.51 0.418,0.418 0 0 0 10.32,12.4 0.935,0.935 0 0 0 10.07,12.36 0.78,0.78 0 0 0 9.85,12.39 0.4,0.4 0 0 0 9.67,12.49 C 9.62,12.54 9.58,12.58 9.55,12.64 9.52,12.7 9.5,12.77 9.5,12.84 H 8.65 a 1.06,1.06 0 0 1 0.41,-0.85 c 0.13,-0.1 0.27,-0.18 0.44,-0.23 0.17,-0.05 0.35,-0.08 0.54,-0.08 0.21,0 0.41,0.03 0.59,0.08 0.18,0.05 0.33,0.13 0.46,0.23 0.13,0.1 0.23,0.23 0.3,0.38 0.07,0.15 0.11,0.33 0.11,0.53 a 0.842,0.842 0 0 1 -0.17,0.52 1.1,1.1 0 0 1 -0.48,0.39 c 0.24,0.09 0.42,0.21 0.54,0.39 0.12,0.18 0.18,0.38 0.18,0.61 0,0.2 -0.04,0.38 -0.12,0.53 a 1.1,1.1 0 0 1 -0.32,0.39 c -0.14,0.1 -0.29,0.19 -0.48,0.24 -0.19,0.05 -0.38,0.08 -0.6,0.08 -0.18,0 -0.36,-0.02 -0.53,-0.07 C 9.35,15.93 9.19,15.86 9.06,15.75 8.93,15.64 8.81,15.52 8.73,15.37 8.65,15.22 8.61,15.03 8.61,14.82 h 0.85 c 0,0.08 0.02,0.15 0.05,0.22 0.03,0.07 0.07,0.12 0.13,0.17 0.06,0.05 0.12,0.09 0.2,0.11 0.08,0.02 0.16,0.04 0.25,0.04 0.1,0 0.19,-0.01 0.27,-0.04 a 0.561,0.561 0 0 0 0.33,-0.3 c 0.03,-0.07 0.04,-0.15 0.04,-0.24 0,-0.11 -0.02,-0.21 -0.05,-0.29 A 0.508,0.508 0 0 0 10.32,14.18 C 10.23,14.16 10.14,14.14 10.03,14.14 H 9.56 Z m 5.74,0.75 c 0,0.32 -0.03,0.6 -0.1,0.82 -0.07,0.22 -0.17,0.42 -0.29,0.57 -0.12,0.15 -0.28,0.26 -0.45,0.33 -0.17,0.07 -0.37,0.1 -0.59,0.1 -0.22,0 -0.41,-0.03 -0.59,-0.1 -0.18,-0.07 -0.33,-0.18 -0.46,-0.33 -0.13,-0.15 -0.23,-0.34 -0.3,-0.57 -0.07,-0.23 -0.11,-0.5 -0.11,-0.82 V 13.5 c 0,-0.32 0.03,-0.6 0.1,-0.82 0.07,-0.22 0.17,-0.42 0.29,-0.57 0.12,-0.15 0.28,-0.26 0.45,-0.33 0.17,-0.07 0.37,-0.1 0.59,-0.1 0.22,0 0.41,0.03 0.59,0.1 0.18,0.07 0.33,0.18 0.46,0.33 0.13,0.15 0.23,0.34 0.3,0.57 0.07,0.23 0.11,0.5 0.11,0.82 z m -0.85,-0.86 c 0,-0.19 -0.01,-0.35 -0.04,-0.48 -0.03,-0.13 -0.07,-0.23 -0.12,-0.31 a 0.389,0.389 0 0 0 -0.19,-0.17 0.655,0.655 0 0 0 -0.5,0 c -0.07,0.03 -0.14,0.09 -0.19,0.17 -0.05,0.08 -0.09,0.18 -0.12,0.31 -0.03,0.13 -0.04,0.29 -0.04,0.48 v 0.97 c 0,0.19 0.01,0.35 0.04,0.48 0.03,0.13 0.07,0.24 0.12,0.32 0.05,0.08 0.11,0.14 0.19,0.17 0.08,0.03 0.16,0.05 0.25,0.05 0.09,0 0.18,-0.02 0.25,-0.05 0.07,-0.03 0.14,-0.09 0.19,-0.17 0.05,-0.08 0.09,-0.19 0.11,-0.32 0.03,-0.13 0.04,-0.29 0.04,-0.48 v -0.97 z"
       id="path11741"
       transform="matrix(0.264583,0,0,0.264583,185.74,291.664)" />
  </g>
</svg>
