<?xml version="1.0" encoding="UTF-8" standalone="no"?>
<!-- Created with Inkscape (http://www.inkscape.org/) -->

<svg
   id="svg1100"
   version="1.1"
   viewBox="0 0 4.7624941 4.7624941"
   height="4.7624941mm"
   width="4.7624941mm"
   xmlns="http://www.w3.org/2000/svg"
   xmlns:svg="http://www.w3.org/2000/svg">
  <defs
     id="defs1097" />
  <g
     id="New_Layer_1652808876.689413"
     style="display:inline"
     transform="translate(-147.87175,-282.66775)">
    <path
       fill="#323232"
       d="M 19,3 H 5 A 2,2 0 0 0 3,5 v 14 a 2,2 0 0 0 2,2 h 14 c 1.1,0 2,-0.9 2,-2 V 5 C 21,3.9 20.1,3 19,3 Z m -6,6 h 4 c 0.55,0 1,0.45 1,1 v 4 c 0,0.55 -0.45,1 -1,1 h -4 z m -3.5,4.5 v -1 H 7 c -0.55,0 -1,-0.45 -1,-1 V 10 C 6,9.45 6.45,9 7,9 h 3 c 0.55,0 1,0.45 1,1 v 1 H 9.5 v -0.5 h -2 v 1 H 10 c 0.55,0 1,0.45 1,1 V 14 c 0,0.55 -0.45,1 -1,1 H 7 C 6.45,15 6,14.55 6,14 v -1 h 1.5 v 0.5 z m 5,0 h 2 v -3 h -2 z"
       id="path11764"
       transform="matrix(0.264583,0,0,0.264583,147.078,281.874)" />
  </g>
</svg>
