<?xml version="1.0" encoding="UTF-8" standalone="no"?>
<!-- Created with Inkscape (http://www.inkscape.org/) -->

<svg
   id="svg1100"
   version="1.1"
   viewBox="0 0 4.7624941 4.6407857"
   height="4.6407857mm"
   width="4.7624941mm"
   xmlns="http://www.w3.org/2000/svg"
   xmlns:svg="http://www.w3.org/2000/svg">
  <defs
     id="defs1097" />
  <g
     id="New_Layer_1652808876.6937094"
     style="display:inline"
     transform="translate(-30.396349,-282.7286)">
    <path
       fill="#323232"
       d="m 3,9 v 6 h 4 l 5,5 V 4 L 7,9 Z m 13.5,3 A 4.5,4.5 0 0 0 14,7.97 v 8.05 C 15.48,15.29 16.5,13.77 16.5,12 Z M 14,3.23 v 2.06 c 2.89,0.86 5,3.54 5,6.71 0,3.17 -2.11,5.85 -5,6.71 v 2.06 C 18.01,19.86 21,16.28 21,12 21,7.72 18.01,4.14 14,3.23 Z"
       id="path12020"
       transform="matrix(0.264583,0,0,0.264583,29.6026,281.874)" />
  </g>
</svg>
