<?xml version="1.0" encoding="UTF-8" standalone="no"?>
<!-- Created with Inkscape (http://www.inkscape.org/) -->

<svg
   id="svg1100"
   version="1.1"
   viewBox="0 0 5.2916598 5.3287015"
   height="5.3287015mm"
   width="5.2916598mm"
   xmlns="http://www.w3.org/2000/svg"
   xmlns:svg="http://www.w3.org/2000/svg">
  <defs
     id="defs1097" />
  <g
     id="New_Layer_1652808896.5280573"
     style="display:inline"
     transform="translate(-112.62817,-340.76512)">
    <path
       fill="#323232"
       d="m 22,5.72 -4.6,-3.86 -1.29,1.53 4.6,3.86 z M 7.88,3.39 6.6,1.86 2,5.71 3.29,7.24 Z M 12.5,8 H 11 v 6 l 4.75,2.85 0.75,-1.23 -4,-2.37 z M 12,4 a 9,9 0 0 0 -9,9 c 0,4.97 4.02,9 9,9 A 9,9 0 0 0 12,4 Z m 0,16 C 8.13,20 5,16.87 5,13 5,9.13 8.13,6 12,6 c 3.87,0 7,3.13 7,7 0,3.87 -3.13,7 -7,7 z"
       id="path12053"
       transform="matrix(0.264583,0,0,0.264583,112.099,340.273)" />
  </g>
</svg>
