<?xml version="1.0" encoding="UTF-8" standalone="no"?>
<!-- Created with Inkscape (http://www.inkscape.org/) -->

<svg
   id="svg1100"
   version="1.1"
   viewBox="0 0 5.2916598 5.3445768"
   height="5.3445768mm"
   width="5.2916598mm"
   xmlns="http://www.w3.org/2000/svg"
   xmlns:svg="http://www.w3.org/2000/svg">
  <defs
     id="defs1097" />
  <g
     id="New_Layer_1652808896.5291123"
     style="display:inline"
     transform="translate(-142.40717,-340.75725)">
    <path
       fill="#323232"
       d="M 22,5.7 17.4,1.8 16.1,3.3 20.7,7.2 Z M 7.9,3.4 6.6,1.9 2,5.7 3.3,7.2 Z M 12.5,8 H 11 v 6 l 4.7,2.9 0.8,-1.2 -4,-2.4 z M 12,4 c -5,0 -9,4 -9,9 0,5 4,9 9,9 5,0 9,-4 9,-9 0,-5 -4,-9 -9,-9 z m 0,16 C 8.1,20 5,16.9 5,13 5,9.1 8.1,6 12,6 c 3.9,0 7,3.1 7,7 0,3.9 -3.1,7 -7,7 z"
       id="path12064"
       transform="matrix(0.264583,0,0,0.264583,141.878,340.281)" />
  </g>
</svg>
