<?xml version="1.0" encoding="UTF-8" standalone="no"?>
<!-- Created with Inkscape (http://www.inkscape.org/) -->

<svg
   id="svg1100"
   version="1.1"
   viewBox="0 0 4.497911 5.820826"
   height="5.8208261mm"
   width="4.497911mm"
   xmlns="http://www.w3.org/2000/svg"
   xmlns:svg="http://www.w3.org/2000/svg">
  <defs
     id="defs1097" />
  <g
     id="New_Layer_1652808896.531197"
     style="display:inline"
     transform="translate(-62.759149,-350.30858)">
    <path
       fill="#323232"
       d="M 18,1.01 8,1 C 6.9,1 6,1.9 6,3 V 6 H 8 V 5 H 18 V 19 H 8 V 18 H 6 v 3 c 0,1.1 0.9,2 2,2 h 10 c 1.1,0 2,-0.9 2,-2 V 3 C 20,1.9 19.1,1.01 18,1.01 Z M 10,15 h 2 V 8 H 5 v 2 H 8.59 L 3,15.59 4.41,17 10,11.41 Z"
       id="path12108"
       transform="matrix(0.264583,0,0,0.264583,61.9654,350.044)" />
  </g>
</svg>
