<?xml version="1.0" encoding="UTF-8" standalone="no"?>
<!-- Created with Inkscape (http://www.inkscape.org/) -->

<svg
   id="svg1100"
   version="1.1"
   viewBox="0 0 5.4530559 5.4530558"
   height="5.4530559mm"
   width="5.4530559mm"
   xmlns="http://www.w3.org/2000/svg"
   xmlns:svg="http://www.w3.org/2000/svg">
  <defs
     id="defs1097" />
  <g
     id="New_Layer_1652808896.5328035"
     style="display:inline"
     transform="translate(-31.40467,-340.70217)">
    <path
       fill="#323232"
       d="M 10.5,7.67 V 3.5 C 10.5,2.67 11.17,2 12,2 c 0.83,0 1.5,0.67 1.5,1.5 V 9 l 8.5,5 v 2 L 17.51,14.68 Z M 19.78,22.61 21.19,21.2 13.5,13.5 9.56,9.56 2.81,2.81 1.39,4.22 7.77,10.6 2,14 v 2 l 8.5,-2.5 V 19 L 8,20.5 V 22 l 4,-1 4,1 V 20.5 L 13.5,19 v -2.67 z"
       id="path12141"
       transform="matrix(0.264583,0,0,0.264583,31.0369,340.173)" />
  </g>
</svg>
