<?xml version="1.0" encoding="UTF-8" standalone="no"?>
<!-- Created with Inkscape (http://www.inkscape.org/) -->

<svg
   id="svg1100"
   version="1.1"
   viewBox="0 0 2.6458299 5.2916598"
   height="5.2916598mm"
   width="2.6458299mm"
   xmlns="http://www.w3.org/2000/svg"
   xmlns:svg="http://www.w3.org/2000/svg">
  <defs
     id="defs1097" />
  <g
     id="New_Layer_1652808896.5354817"
     style="display:inline"
     transform="translate(-153.52008,-350.57317)">
    <path
       fill="#323232"
       d="M 15.67,4 H 14 V 2 H 10 V 4 H 8.33 C 7.6,4 7,4.6 7,5.33 V 20.66 C 7,21.4 7.6,22 8.33,22 h 7.33 C 16.4,22 17,21.4 17,20.67 V 5.33 C 17,4.6 16.4,4 15.67,4 Z m -2.72,13.95 h -1.9 v -1.9 h 1.9 z m 1.35,-5.26 c 0,0 -0.38,0.42 -0.67,0.71 -0.48,0.48 -0.83,1.15 -0.83,1.6 h -1.6 c 0,-0.83 0.46,-1.52 0.93,-2 l 0.93,-0.94 A 1.498,1.498 0 0 0 12,9.5 c -0.83,0 -1.5,0.67 -1.5,1.5 H 9 c 0,-1.66 1.34,-3 3,-3 1.66,0 3,1.34 3,3 0,0.66 -0.27,1.26 -0.7,1.69 z"
       id="path12196"
       transform="matrix(0.264583,0,0,0.264583,151.668,350.044)" />
  </g>
</svg>
