<?xml version="1.0" encoding="UTF-8" standalone="no"?>
<!-- Created with Inkscape (http://www.inkscape.org/) -->

<svg
   id="svg1100"
   version="1.1"
   viewBox="0 0 5.2916598 5.2916598"
   height="5.2916598mm"
   width="5.2916598mm"
   xmlns="http://www.w3.org/2000/svg"
   xmlns:svg="http://www.w3.org/2000/svg">
  <defs
     id="defs1097" />
  <g
     id="New_Layer_1652806942.9274635"
     style="display:inline"
     transform="translate(-10.847966,-47.110366)">
    <path
       fill="#323232"
       d="m 21.41,11.58 -9,-9 C 12.05,2.22 11.55,2 11,2 H 4 C 2.9,2 2,2.9 2,4 v 7 c 0,0.55 0.22,1.05 0.59,1.42 l 9,9 C 11.95,21.78 12.45,22 13,22 c 0.55,0 1.05,-0.22 1.41,-0.59 l 7,-7 C 21.78,14.05 22,13.55 22,13 22,12.45 21.77,11.94 21.41,11.58 Z M 5.5,7 C 4.67,7 4,6.33 4,5.5 4,4.67 4.67,4 5.5,4 6.33,4 7,4.67 7,5.5 7,6.33 6.33,7 5.5,7 Z M 17.27,15.27 13,19.54 8.73,15.27 A 2.5,2.5 0 0 1 10.5,11 c 0.69,0 1.32,0.28 1.77,0.74 l 0.73,0.72 0.73,-0.73 a 2.503158,2.503158 0 0 1 3.54,3.54 z"
       id="path3026"
       transform="matrix(0.264583,0,0,0.264583,10.3188,46.5812)" />
  </g>
</svg>
