<?xml version="1.0" encoding="UTF-8" standalone="no"?>
<!-- Created with Inkscape (http://www.inkscape.org/) -->

<svg
   id="svg1100"
   version="1.1"
   viewBox="0 0 4.7624941 5.2916598"
   height="5.2916598mm"
   width="4.7624941mm"
   xmlns="http://www.w3.org/2000/svg"
   xmlns:svg="http://www.w3.org/2000/svg">
  <defs
     id="defs1097" />
  <g
     id="New_Layer_1652808896.5365481"
     style="display:inline"
     transform="translate(-31.750049,-350.57317)">
    <path
       fill="#323232"
       d="M 7,12 5,10 3,12 5,14 Z M 17.71,7.71 12,2 H 11 V 9.59 L 6.41,5 5,6.41 10.59,12 5,17.59 6.41,19 11,14.41 V 22 h 1 L 17.71,16.29 13.41,12 Z M 13,5.83 14.88,7.71 13,9.59 Z M 14.88,16.29 13,18.17 V 14.41 Z M 19,10 l -2,2 2,2 2,-2 z"
       id="path12218"
       transform="matrix(0.264583,0,0,0.264583,30.9563,350.044)" />
  </g>
</svg>
