<?xml version="1.0" encoding="UTF-8" standalone="no"?>
<!-- Created with Inkscape (http://www.inkscape.org/) -->

<svg
   id="svg1100"
   version="1.1"
   viewBox="0 0 5.9848676 5.9848675"
   height="5.9848676mm"
   width="5.9848676mm"
   xmlns="http://www.w3.org/2000/svg"
   xmlns:svg="http://www.w3.org/2000/svg">
  <defs
     id="defs1097" />
  <g
     id="New_Layer_1652808896.538697"
     style="display:inline"
     transform="translate(-112.28156,-330.38256)">
    <path
       fill="#323232"
       d="M 20,8.69 V 4 H 15.31 L 12,0.69 8.69,4 H 4 V 8.69 L 0.69,12 4,15.31 V 20 H 8.69 L 12,23.31 15.31,20 H 20 V 15.31 L 23.31,12 Z M 12,18 C 8.69,18 6,15.31 6,12 6,8.69 8.69,6 12,6 c 3.31,0 6,2.69 6,6 0,3.31 -2.69,6 -6,6 z M 12,8 c -2.21,0 -4,1.79 -4,4 0,2.21 1.79,4 4,4 2.21,0 4,-1.79 4,-4 0,-2.21 -1.79,-4 -4,-4 z"
       id="path12262"
       transform="matrix(0.264583,0,0,0.264583,112.099,330.2)" />
  </g>
</svg>
