<?xml version="1.0" encoding="UTF-8" standalone="no"?>
<!-- Created with Inkscape (http://www.inkscape.org/) -->

<svg
   id="svg1100"
   version="1.1"
   viewBox="0 0 5.2916598 5.2784309"
   height="5.2784309mm"
   width="5.2916598mm"
   xmlns="http://www.w3.org/2000/svg"
   xmlns:svg="http://www.w3.org/2000/svg">
  <defs
     id="defs1097" />
  <g
     id="New_Layer_1652808896.5402942"
     style="display:inline"
     transform="translate(-62.362266,-340.7904)">
    <path
       fill="#323232"
       d="m 13,2.05 v 3.03 c 3.39,0.49 6,3.39 6,6.92 0,0.9 -0.18,1.75 -0.48,2.54 l 2.6,1.53 C 21.68,14.83 22,13.45 22,12 22,6.82 18.05,2.55 13,2.05 Z M 12,19 C 8.13,19 5,15.87 5,12 5,8.47 7.61,5.57 11,5.08 V 2.05 C 5.94,2.55 2,6.81 2,12 c 0,5.52 4.47,10 9.99,10 3.31,0 6.24,-1.61 8.06,-4.09 l -2.6,-1.53 A 6.95,6.95 0 0 1 12,19 Z"
       id="path12295"
       transform="matrix(0.264583,0,0,0.264583,61.8331,340.248)" />
  </g>
</svg>
