<?xml version="1.0" encoding="UTF-8" standalone="no"?>
<!-- Created with Inkscape (http://www.inkscape.org/) -->

<svg
   id="svg1100"
   version="1.1"
   viewBox="0 0 5.2916632 3.7412035"
   height="3.7412035mm"
   width="5.2916632mm"
   xmlns="http://www.w3.org/2000/svg"
   xmlns:svg="http://www.w3.org/2000/svg">
  <defs
     id="defs1097" />
  <g
     id="New_Layer_1652806942.9280643"
     style="display:inline"
     transform="translate(-83.079164,-37.566794)">
    <path
       fill="#323232"
       d="m 15.5,11.5 c 0,2 -2.5,3.5 -2.5,5 H 11 C 11,15 8.5,13.5 8.5,11.5 8.5,9.57 10.07,8 12,8 c 1.93,0 3.5,1.57 3.5,3.5 z m -2.5,6 H 11 V 19 h 2 z M 22,12 C 22,9.24 20.88,6.74 19.07,4.93 L 18.01,5.99 A 8.481,8.481 0 0 1 20.5,12 c 0,2.34 -0.95,4.47 -2.49,6.01 l 1.06,1.06 A 9.969,9.969 0 0 0 22,12 Z M 3.5,12 C 3.5,9.66 4.45,7.53 5.99,5.99 L 4.93,4.93 A 9.969,9.969 0 0 0 2,12 c 0,2.76 1.12,5.26 2.93,7.07 L 5.99,18.01 A 8.481,8.481 0 0 1 3.5,12 Z m 14,0 c 0,1.52 -0.62,2.89 -1.61,3.89 l 1.06,1.06 A 6.976,6.976 0 0 0 19,12 C 19,10.07 18.22,8.32 16.95,7.05 l -1.06,1.06 c 0.99,1 1.61,2.37 1.61,3.89 z M 7.05,16.95 8.11,15.89 C 7.11,14.89 6.5,13.52 6.5,12 6.5,10.48 7.12,9.11 8.11,8.11 L 7.05,7.05 A 6.976,6.976 0 0 0 5,12 c 0,1.93 0.78,3.68 2.05,4.95 z"
       id="path3188"
       transform="matrix(0.264583,0,0,0.264583,82.55,36.2624)" />
  </g>
</svg>
