<?xml version="1.0" encoding="UTF-8" standalone="no"?>
<!-- Created with Inkscape (http://www.inkscape.org/) -->

<svg
   id="svg1100"
   version="1.1"
   viewBox="0 0 2.6458299 5.2916598"
   height="5.2916598mm"
   width="2.6458299mm"
   xmlns="http://www.w3.org/2000/svg"
   xmlns:svg="http://www.w3.org/2000/svg">
  <defs
     id="defs1097" />
  <g
     id="New_Layer_1652808896.5419064"
     style="display:inline"
     transform="translate(-182.88908,-350.57317)">
    <path
       fill="#323232"
       d="M 15,13 V 5 C 15,3.34 13.66,2 12,2 10.34,2 9,3.34 9,5 v 8 c -1.21,0.91 -2,2.37 -2,4 0,2.76 2.24,5 5,5 2.76,0 5,-2.24 5,-5 0,-1.63 -0.79,-3.09 -2,-4 z M 11,5 c 0,-0.55 0.45,-1 1,-1 0.55,0 1,0.45 1,1 h -1 v 1 h 1 v 2 h -1 v 1 h 1 v 2 h -2 z"
       id="path12328"
       transform="matrix(0.264583,0,0,0.264583,181.037,350.044)" />
  </g>
</svg>
