<?xml version="1.0" encoding="UTF-8" standalone="no"?>
<!-- Created with Inkscape (http://www.inkscape.org/) -->

<svg
   id="svg1100"
   version="1.1"
   viewBox="0 0 5.8208261 4.7624941"
   height="4.7624941mm"
   width="5.8208261mm"
   xmlns="http://www.w3.org/2000/svg"
   xmlns:svg="http://www.w3.org/2000/svg">
  <defs
     id="defs1097" />
  <g
     id="New_Layer_1652808896.5424454"
     style="display:inline"
     transform="translate(-151.93258,-330.99375)">
    <path
       fill="#323232"
       d="M 21,3 H 3 C 1.9,3 1,3.9 1,5 v 12 c 0,1.1 0.9,2 2,2 h 5 v 2 h 8 v -2 h 5 c 1.1,0 1.99,-0.9 1.99,-2 L 23,5 C 23,3.9 22.1,3 21,3 Z m 0,14 H 3 V 5 H 21 Z M 19,8 H 8 v 2 h 11 z m 0,4 H 8 v 2 H 19 Z M 7,8 H 5 v 2 h 2 z m 0,4 H 5 v 2 h 2 z"
       id="path12339"
       transform="matrix(0.264583,0,0,0.264583,151.668,330.2)" />
  </g>
</svg>
