<?xml version="1.0" encoding="UTF-8" standalone="no"?>
<!-- Created with Inkscape (http://www.inkscape.org/) -->

<svg
   id="svg1100"
   version="1.1"
   viewBox="0 0 5.8208261 5.820826"
   height="5.8208261mm"
   width="5.8208261mm"
   xmlns="http://www.w3.org/2000/svg"
   xmlns:svg="http://www.w3.org/2000/svg">
  <defs
     id="defs1097" />
  <g
     id="New_Layer_1652808896.5429847"
     style="display:inline"
     transform="translate(-10.583383,-340.51858)">
    <path
       fill="#323232"
       d="m 12,8 c -2.21,0 -4,1.79 -4,4 0,2.21 1.79,4 4,4 2.21,0 4,-1.79 4,-4 0,-2.21 -1.79,-4 -4,-4 z m 8.94,3 A 8.994,8.994 0 0 0 13,3.06 V 1 H 11 V 3.06 A 8.994,8.994 0 0 0 3.06,11 H 1 v 2 H 3.06 A 8.994,8.994 0 0 0 11,20.94 V 23 h 2 V 20.94 A 8.994,8.994 0 0 0 20.94,13 H 23 V 11 Z M 12,19 C 8.13,19 5,15.87 5,12 5,8.13 8.13,5 12,5 c 3.87,0 7,3.13 7,7 0,3.87 -3.13,7 -7,7 z"
       id="path12350"
       transform="matrix(0.264583,0,0,0.264583,10.3188,340.254)" />
  </g>
</svg>
