<?xml version="1.0" encoding="UTF-8" standalone="no"?>
<!-- Created with Inkscape (http://www.inkscape.org/) -->

<svg
   id="svg1100"
   version="1.1"
   viewBox="0 0 5.8208261 5.820826"
   height="5.8208261mm"
   width="5.8208261mm"
   xmlns="http://www.w3.org/2000/svg"
   xmlns:svg="http://www.w3.org/2000/svg">
  <defs
     id="defs1097" />
  <g
     id="New_Layer_1652808896.5451307"
     style="display:inline"
     transform="translate(-191.09058,-330.46458)">
    <path
       fill="#323232"
       d="M 20.94,11 A 8.994,8.994 0 0 0 13,3.06 V 1 H 11 V 3.06 C 9.87,3.18 8.81,3.52 7.84,4.03 l 1.5,1.5 A 6.995,6.995 0 0 1 19,12 c 0,0.94 -0.19,1.84 -0.52,2.65 l 1.5,1.5 c 0.5,-0.96 0.84,-2.02 0.97,-3.15 H 23 V 11 Z M 3,4.27 5.04,6.31 A 8.914,8.914 0 0 0 3.06,11 H 1 v 2 H 3.06 A 8.994,8.994 0 0 0 11,20.94 V 23 h 2 v -2.06 c 1.77,-0.2 3.38,-0.91 4.69,-1.98 L 19.73,21 21,19.73 4.27,3 Z M 16.27,17.54 A 6.995,6.995 0 0 1 6.46,7.73 Z"
       id="path12394"
       transform="matrix(0.264583,0,0,0.264583,190.826,330.2)" />
  </g>
</svg>
