<?xml version="1.0" encoding="UTF-8" standalone="no"?>
<!-- Created with Inkscape (http://www.inkscape.org/) -->

<svg
   id="svg1100"
   version="1.1"
   viewBox="0 0 4.7122231 5.820826"
   height="5.8208261mm"
   width="4.7122231mm"
   xmlns="http://www.w3.org/2000/svg"
   xmlns:svg="http://www.w3.org/2000/svg">
  <defs
     id="defs1097" />
  <g
     id="New_Layer_1652808896.5461986"
     style="display:inline"
     transform="translate(-42.09392,-350.30858)">
    <path
       fill="#323232"
       d="M 19,1 H 9 C 7.9,1 7,1.9 7,3 V 6 H 9 V 4 H 19 V 20 H 9 V 18 H 7 v 3 c 0,1.1 0.9,2 2,2 h 10 c 1.1,0 2,-0.9 2,-2 V 3 C 21,1.9 20.1,1 19,1 Z M 7.01,13.47 4.46,10.92 3.19,12.19 7,16 14.19,8.81 12.92,7.54 Z"
       id="path12416"
       transform="matrix(0.264583,0,0,0.264583,41.2499,350.044)" />
  </g>
</svg>
