<?xml version="1.0" encoding="UTF-8" standalone="no"?>
<!-- Created with Inkscape (http://www.inkscape.org/) -->

<svg
   id="svg1100"
   version="1.1"
   viewBox="0 0 5.4186597 5.820826"
   height="5.8208261mm"
   width="5.4186597mm"
   xmlns="http://www.w3.org/2000/svg"
   xmlns:svg="http://www.w3.org/2000/svg">
  <defs
     id="defs1097" />
  <g
     id="New_Layer_1652808896.546747"
     style="display:inline"
     transform="translate(-41.740629,-340.51858)">
    <path
       fill="#323232"
       d="M 2.76,2.49 1.49,3.76 5,7.27 V 21 c 0,1.1 0.9,2 2,2 h 10 c 1.02,0 1.85,-0.77 1.98,-1.75 l 1.72,1.72 1.27,-1.27 z M 7,19 V 9.27 L 16.73,19 Z M 17,5 v 9.17 l 2,2 V 3 C 19,1.9 18.1,1 17,1 H 7 C 6.15,1 5.42,1.54 5.13,2.3 L 7.83,5 Z"
       id="path12427"
       transform="matrix(0.264583,0,0,0.264583,41.3464,340.254)" />
  </g>
</svg>
