<?xml version="1.0" encoding="UTF-8" standalone="no"?>
<!-- Created with Inkscape (http://www.inkscape.org/) -->

<svg
   id="svg1100"
   version="1.1"
   viewBox="0 0 5.556243 4.2333278"
   height="4.2333279mm"
   width="5.5562429mm"
   xmlns="http://www.w3.org/2000/svg"
   xmlns:svg="http://www.w3.org/2000/svg">
  <defs
     id="defs1097" />
  <g
     id="New_Layer_1652806942.9286768"
     style="display:inline"
     transform="translate(-31.353166,-47.639515)">
    <path
       fill="#323232"
       d="m 18.5,11 c 0.17,0 0.34,0.01 0.5,0.03 V 6.87 C 19,5.84 18.16,5 17.13,5 H 3.87 C 2.84,5 2,5.84 2,6.87 V 17.13 C 2,18.16 2.84,19 3.87,19 H 13.6 C 13.22,18.25 13,17.4 13,16.5 13,13.46 15.46,11 18.5,11 Z M 10.4,13 4,9.19 V 7 H 4.23 L 10.41,10.68 16.74,7 H 17 v 2.16 z"
       id="path3276"
       transform="matrix(0.264583,0,0,0.264583,30.824,46.3166)" />
    <path
       fill="#323232"
       d="M 19,13 17.59,14.41 19.17,16 H 15 v 2 h 4.17 L 17.59,19.59 19,21 23,17 Z"
       id="path3278"
       transform="matrix(0.264583,0,0,0.264583,30.824,46.3166)" />
  </g>
</svg>
