<?xml version="1.0" encoding="UTF-8" standalone="no"?>
<!-- Created with Inkscape (http://www.inkscape.org/) -->

<svg
   id="svg1100"
   version="1.1"
   viewBox="0 0 5.8208261 4.2333283"
   height="4.2333283mm"
   width="5.8208261mm"
   xmlns="http://www.w3.org/2000/svg"
   xmlns:svg="http://www.w3.org/2000/svg">
  <defs
     id="defs1097" />
  <g
     id="New_Layer_1652806924.7823322"
     style="display:inline"
     transform="translate(-175.68358,-16.683232)">
    <path
       fill="#323232"
       d="m 19,8 -4,4 h 3 c 0,3.31 -2.69,6 -6,6 A 5.87,5.87 0 0 1 9.2,17.3 L 7.74,18.76 A 7.93,7.93 0 0 0 12,20 c 4.42,0 8,-3.58 8,-8 h 3 z M 6,12 c 0,-3.31 2.69,-6 6,-6 1.01,0 1.97,0.25 2.8,0.7 L 16.26,5.24 A 7.93,7.93 0 0 0 12,4 C 7.58,4 4,7.58 4,12 H 1 l 4,4 4,-4 z"
       id="path1725"
       transform="matrix(0.264583,0,0,0.264583,175.419,15.6249)" />
  </g>
</svg>
