<?xml version="1.0" encoding="UTF-8" standalone="no"?>
<!-- Created with Inkscape (http://www.inkscape.org/) -->

<svg
   id="svg1100"
   version="1.1"
   viewBox="0 0 5.2916598 5.2916598"
   height="5.2916598mm"
   width="5.2916598mm"
   xmlns="http://www.w3.org/2000/svg"
   xmlns:svg="http://www.w3.org/2000/svg">
  <defs
     id="defs1097" />
  <g
     id="New_Layer_1652808896.5483494"
     style="display:inline"
     transform="translate(-52.109666,-340.78317)">
    <path
       fill="#323232"
       d="M 20,2 H 4 C 2.9,2 2,2.9 2,4 v 16 c 0,1.1 0.9,2 2,2 h 16 c 1.1,0 2,-0.9 2,-2 V 4 C 22,2.9 21.1,2 20,2 Z m 0,18 H 4 V 4 H 20 Z M 18,6 h -5 c -1.1,0 -2,0.9 -2,2 v 2.28 c -0.6,0.35 -1,0.98 -1,1.72 0,1.1 0.9,2 2,2 1.1,0 2,-0.9 2,-2 0,-0.74 -0.4,-1.38 -1,-1.72 V 8 h 3 v 8 H 8 V 8 h 2 V 6 H 6 v 12 h 12 z"
       id="path12460"
       transform="matrix(0.264583,0,0,0.264583,51.5805,340.254)" />
  </g>
</svg>
