<?xml version="1.0" encoding="UTF-8" standalone="no"?>
<!-- Created with Inkscape (http://www.inkscape.org/) -->

<svg
   id="svg1100"
   version="1.1"
   viewBox="0 0 5.8208261 3.7041619"
   height="3.7041619mm"
   width="5.8208261mm"
   xmlns="http://www.w3.org/2000/svg"
   xmlns:svg="http://www.w3.org/2000/svg">
  <defs
     id="defs1097" />
  <g
     id="New_Layer_1652808896.5494356"
     style="display:inline"
     transform="translate(-171.51158,-331.52291)">
    <path
       fill="#323232"
       d="M 21,5 H 3 C 1.9,5 1,5.9 1,7 v 10 c 0,1.1 0.9,2 2,2 h 18 c 1.1,0 2,-0.9 2,-2 V 7 C 23,5.9 22.1,5 21,5 Z M 19,17 H 5 V 7 h 14 z m -9,-1 h 4 c 0.55,0 1,-0.45 1,-1 v -3 c 0,-0.55 -0.45,-1 -1,-1 v -1 a 2,2 0 1 0 -4,0 v 1 c -0.55,0 -1,0.45 -1,1 v 3 c 0,0.55 0.45,1 1,1 z m 0.8,-6 c 0,-0.66 0.54,-1.2 1.2,-1.2 0.66,0 1.2,0.54 1.2,1.2 v 1 h -2.4 z"
       id="path12482"
       transform="matrix(0.264583,0,0,0.264583,171.247,330.2)" />
  </g>
</svg>
