<?xml version="1.0" encoding="UTF-8" standalone="no"?>
<!-- Created with Inkscape (http://www.inkscape.org/) -->

<svg
   id="svg1100"
   version="1.1"
   viewBox="0 0 3.7041619 5.820826"
   height="5.8208261mm"
   width="3.7041619mm"
   xmlns="http://www.w3.org/2000/svg"
   xmlns:svg="http://www.w3.org/2000/svg">
  <defs
     id="defs1097" />
  <g
     id="New_Layer_1652808896.5499642"
     style="display:inline"
     transform="translate(-123.37591,-350.30858)">
    <path
       fill="#323232"
       d="m 10,16 h 4 c 0.55,0 1,-0.45 1,-1 v -3 c 0,-0.55 -0.45,-1 -1,-1 v -1 a 2,2 0 1 0 -4,0 v 1 c -0.55,0 -1,0.45 -1,1 v 3 c 0,0.55 0.45,1 1,1 z m 0.8,-6 c 0,-0.66 0.54,-1.2 1.2,-1.2 0.66,0 1.2,0.54 1.2,1.2 v 1 H 10.8 Z M 17,1 H 7 C 5.9,1 5,1.9 5,3 v 18 c 0,1.1 0.9,2 2,2 h 10 c 1.1,0 2,-0.9 2,-2 V 3 C 19,1.9 18.1,1 17,1 Z m 0,18 H 7 V 5 h 10 z"
       id="path12493"
       transform="matrix(0.264583,0,0,0.264583,122.053,350.044)" />
  </g>
</svg>
