<?xml version="1.0" encoding="UTF-8" standalone="no"?>
<!-- Created with Inkscape (http://www.inkscape.org/) -->

<svg
   id="svg1100"
   version="1.1"
   viewBox="0 0 6.0040498 6.0854091"
   height="6.0854092mm"
   width="6.0040498mm"
   xmlns="http://www.w3.org/2000/svg"
   xmlns:svg="http://www.w3.org/2000/svg">
  <defs
     id="defs1097" />
  <g
     id="New_Layer_1652808896.550514"
     style="display:inline"
     transform="translate(-92.355483,-330.332)">
    <path
       fill="#323232"
       d="m 23.25,12.77 -2.57,-2.57 -1.41,1.41 2.22,2.22 -5.66,5.66 L 4.51,8.17 10.17,2.51 12.27,4.61 13.68,3.2 11.23,0.75 a 1.49,1.49 0 0 0 -2.12,0 L 2.75,7.11 a 1.49,1.49 0 0 0 0,2.12 l 12.02,12.02 c 0.59,0.59 1.54,0.59 2.12,0 l 6.36,-6.36 c 0.59,-0.59 0.59,-1.54 0,-2.12 z M 8.47,20.48 A 10.487,10.487 0 0 1 2.5,12 H 1 c 0.51,6.16 5.66,11 11.95,11 L 13.61,22.97 9.8,19.15 Z M 16,9 h 5 c 0.55,0 1,-0.45 1,-1 V 4 C 22,3.45 21.55,3 21,3 V 2.5 a 2.5,2.5 0 0 0 -5,0 V 3 c -0.55,0 -1,0.45 -1,1 v 4 c 0,0.55 0.45,1 1,1 z m 0.8,-6.5 c 0,-0.94 0.76,-1.7 1.7,-1.7 0.94,0 1.7,0.76 1.7,1.7 V 3 h -3.4 z"
       id="path12504"
       transform="matrix(0.264583,0,0,0.264583,92.0909,330.332)" />
  </g>
</svg>
