<?xml version="1.0" encoding="UTF-8" standalone="no"?>
<!-- Created with Inkscape (http://www.inkscape.org/) -->

<svg
   id="svg1100"
   version="1.1"
   viewBox="0 0 6.3235335 6.3499918"
   height="6.3499918mm"
   width="6.3235335mm"
   xmlns="http://www.w3.org/2000/svg"
   xmlns:svg="http://www.w3.org/2000/svg">
  <defs
     id="defs1097" />
  <g
     id="New_Layer_1652808896.5510447"
     style="display:inline"
     transform="translate(-51.593729,-330.2)">
    <path
       fill="#323232"
       d="m 16.48,2.52 c 3.27,1.55 5.61,4.72 5.97,8.48 h 1.5 C 23.44,4.84 18.29,0 12,0 l -0.66,0.03 3.81,3.81 z M 10.23,1.75 a 1.49,1.49 0 0 0 -2.12,0 L 1.75,8.11 a 1.49,1.49 0 0 0 0,2.12 l 12.02,12.02 c 0.59,0.59 1.54,0.59 2.12,0 l 6.36,-6.36 c 0.59,-0.59 0.59,-1.54 0,-2.12 z M 14.83,21.19 2.81,9.17 9.17,2.81 21.19,14.83 Z M 7.52,21.48 A 10.487,10.487 0 0 1 1.55,13 H 0.05 C 0.56,19.16 5.71,24 12,24 l 0.66,-0.03 -3.81,-3.81 z"
       id="path12515"
       transform="matrix(0.264583,0,0,0.264583,51.5805,330.2)" />
  </g>
</svg>
