<?xml version="1.0" encoding="UTF-8" standalone="no"?>
<!-- Created with Inkscape (http://www.inkscape.org/) -->

<svg
   id="svg1100"
   version="1.1"
   viewBox="0 0 6.3499918 4.2333278"
   height="4.2333279mm"
   width="6.3499918mm"
   xmlns="http://www.w3.org/2000/svg"
   xmlns:svg="http://www.w3.org/2000/svg">
  <defs
     id="defs1097" />
  <g
     id="New_Layer_1652808896.5515862"
     style="display:inline"
     transform="translate(-41.275,-331.25833)">
    <path
       fill="#323232"
       d="m 20,18 c 1.1,0 1.99,-0.9 1.99,-2 L 22,6 A 2,2 0 0 0 20,4 H 4 C 2.89,4 2,4.89 2,6 v 10 a 2,2 0 0 0 2,2 H 0 v 2 H 24 V 18 Z M 4,16 V 6 H 20 V 16.01 Z M 9.097,9.953 c 0,-1.027 0.836,-1.864 1.864,-1.864 1.027,0 1.864,0.837 1.864,1.864 A 1.867,1.867 0 0 1 10.961,11.817 1.867,1.867 0 0 1 9.097,9.953 Z m 7.032,4.236 -2.482,-2.482 A 3.19,3.19 0 0 0 14.174,9.953 3.216,3.216 0 0 0 10.96,6.74 3.217,3.217 0 0 0 7.746,9.953 a 3.218,3.218 0 0 0 3.214,3.214 3.19,3.19 0 0 0 1.724,-0.51 l 2.489,2.487 0.955,-0.955 z"
       id="path12526"
       transform="matrix(0.264583,0,0,0.264583,41.275,330.2)" />
  </g>
</svg>
