<?xml version="1.0" encoding="UTF-8" standalone="no"?>
<!-- Created with Inkscape (http://www.inkscape.org/) -->

<svg
   id="svg1100"
   version="1.1"
   viewBox="0 0 5.8208261 4.7624941"
   height="4.7624941mm"
   width="5.8208261mm"
   xmlns="http://www.w3.org/2000/svg"
   xmlns:svg="http://www.w3.org/2000/svg">
  <defs
     id="defs1097" />
  <g
     id="New_Layer_1652808896.5531783"
     style="display:inline"
     transform="translate(-161.72158,-330.99375)">
    <path
       fill="#323232"
       d="m 9,16 h 6.5 a 2.5,2.5 0 0 0 0,-5 H 15.45 C 15.21,9.31 13.76,8 12,8 10.6,8 9.4,8.83 8.84,10.02 H 8.68 A 2.994,2.994 0 0 0 6,13 c 0,1.66 1.34,3 3,3 z M 21,3 H 3 C 1.9,3 1,3.9 1,5 v 14 c 0,1.1 0.9,2 2,2 h 18 c 1.1,0 2,-0.9 2,-2 V 5 C 23,3.9 22.1,3 21,3 Z m 0,16.01 H 3 V 4.99 h 18 z"
       id="path12559"
       transform="matrix(0.264583,0,0,0.264583,161.457,330.2)" />
  </g>
</svg>
