<?xml version="1.0" encoding="UTF-8" standalone="no"?>
<!-- Created with Inkscape (http://www.inkscape.org/) -->

<svg
   id="svg1100"
   version="1.1"
   viewBox="0 0 3.7570787 5.6091594"
   height="5.6091595mm"
   width="3.7570786mm"
   xmlns="http://www.w3.org/2000/svg"
   xmlns:svg="http://www.w3.org/2000/svg">
  <defs
     id="defs1097" />
  <g
     id="New_Layer_1652808896.5601356"
     style="display:inline"
     transform="translate(-113.396,-350.41458)">
    <path
       fill="#323232"
       d="m 15,7 v 4 h 1 v 2 H 13 V 5 h 2 L 12,1 9,5 h 2 v 8 H 8 V 10.93 C 8.7,10.56 9.2,9.85 9.2,9 9.2,7.79 8.21,6.8 7,6.8 5.79,6.8 4.8,7.79 4.8,9 4.8,9.85 5.3,10.56 6,10.93 V 13 c 0,1.11 0.89,2 2,2 h 3 v 3.05 C 10.29,18.42 9.8,19.15 9.8,20 a 2.2,2.2 0 1 0 4.4,0 c 0,-0.85 -0.49,-1.58 -1.2,-1.95 V 15 h 3 c 1.11,0 2,-0.89 2,-2 v -2 h 1 V 7 Z"
       id="path12718"
       transform="matrix(0.264583,0,0,0.264583,112.126,350.15)" />
  </g>
</svg>
