<?xml version="1.0" encoding="UTF-8" standalone="no"?>
<!-- Created with Inkscape (http://www.inkscape.org/) -->

<svg
   id="svg1100"
   version="1.1"
   viewBox="0 0 5.2916598 5.2916598"
   height="5.2916598mm"
   width="5.2916598mm"
   xmlns="http://www.w3.org/2000/svg"
   xmlns:svg="http://www.w3.org/2000/svg">
  <defs
     id="defs1097" />
  <g
     id="New_Layer_1652808896.5606787"
     style="display:inline"
     transform="translate(-82.661166,-340.78317)">
    <path
       fill="#323232"
       d="m 4,4 h 7 V 2 H 4 C 2.9,2 2,2.9 2,4 v 7 h 2 z m 6,9 -4,5 h 12 l -3,-4 -2.03,2.71 z M 17,8.5 C 17,7.67 16.33,7 15.5,7 14.67,7 14,7.67 14,8.5 14,9.33 14.67,10 15.5,10 16.33,10 17,9.33 17,8.5 Z M 20,2 h -7 v 2 h 7 v 7 h 2 V 4 C 22,2.9 21.1,2 20,2 Z m 0,18 h -7 v 2 h 7 c 1.1,0 2,-0.9 2,-2 V 13 H 20 Z M 4,13 H 2 v 7 c 0,1.1 0.9,2 2,2 h 7 V 20 H 4 Z"
       id="path12729"
       transform="matrix(0.264583,0,0,0.264583,82.132,340.254)" />
  </g>
</svg>
