<?xml version="1.0" encoding="UTF-8" standalone="no"?>
<!-- Created with Inkscape (http://www.inkscape.org/) -->

<svg
   id="svg1100"
   version="1.1"
   viewBox="0 0 5.2916598 4.934473"
   height="4.934473mm"
   width="5.2916598mm"
   xmlns="http://www.w3.org/2000/svg"
   xmlns:svg="http://www.w3.org/2000/svg">
  <defs
     id="defs1097" />
  <g
     id="New_Layer_1652808896.562264"
     style="display:inline"
     transform="translate(-122.58217,-340.96175)">
    <path
       fill="#323232"
       d="m 12,11 c -1.1,0 -2,0.9 -2,2 0,1.1 0.9,2 2,2 1.1,0 2,-0.9 2,-2 0,-1.1 -0.9,-2 -2,-2 z m 6,2 C 18,9.69 15.31,7 12,7 8.69,7 6,9.69 6,13 c 0,2.22 1.21,4.15 3,5.19 l 1,-1.74 C 8.81,15.75 8,14.48 8,13 8,10.79 9.79,9 12,9 c 2.21,0 4,1.79 4,4 0,1.48 -0.81,2.75 -2,3.45 l 1,1.74 C 16.79,17.15 18,15.22 18,13 Z M 12,3 C 6.48,3 2,7.48 2,13 c 0,3.7 2.01,6.92 4.99,8.65 l 1,-1.73 C 5.61,18.53 4,15.96 4,13 4,8.58 7.58,5 12,5 c 4.42,0 8,3.58 8,8 0,2.96 -1.61,5.53 -4,6.92 l 1,1.73 C 19.99,19.92 22,16.7 22,13 22,7.48 17.52,3 12,3 Z"
       id="path12762"
       transform="matrix(0.264583,0,0,0.264583,122.053,340.168)" />
  </g>
</svg>
