<?xml version="1.0" encoding="UTF-8" standalone="no"?>
<!-- Created with Inkscape (http://www.inkscape.org/) -->

<svg
   id="svg1100"
   version="1.1"
   viewBox="0 0 6.3499918 5.2916598"
   height="5.2916598mm"
   width="6.3499918mm"
   xmlns="http://www.w3.org/2000/svg"
   xmlns:svg="http://www.w3.org/2000/svg">
  <defs
     id="defs1097" />
  <g
     id="New_Layer_1652806942.9310055"
     style="display:inline"
     transform="translate(-103.187,-47.110366)">
    <path
       fill="#323232"
       d="M 2,6 H 0 v 5 H 0.01 L 0,20 c 0,1.1 0.9,2 2,2 H 20 V 20 H 2 Z M 22,4 H 14 L 12,2 H 6 C 4.9,2 4.01,2.9 4.01,4 L 4,16 c 0,1.1 0.9,2 2,2 h 16 c 1.1,0 2,-0.9 2,-2 V 6 C 24,4.9 23.1,4 22,4 Z M 7,15 11.5,9 15,13.51 17.5,10.5 21,15 Z"
       id="path3411"
       transform="matrix(0.264583,0,0,0.264583,103.187,46.5812)" />
  </g>
</svg>
