<?xml version="1.0" encoding="UTF-8" standalone="no"?>
<!-- Created with Inkscape (http://www.inkscape.org/) -->

<svg
   id="svg1100"
   version="1.1"
   viewBox="0 0 5.2916598 3.439579"
   height="3.439579mm"
   width="5.2916598mm"
   xmlns="http://www.w3.org/2000/svg"
   xmlns:svg="http://www.w3.org/2000/svg">
  <defs
     id="defs1097" />
  <g
     id="New_Layer_1652808905.6428843"
     style="display:inline"
     transform="translate(-78.104966,-378.13308)">
    <path
       fill="#323232"
       d="m 8,11 h 8 v 2 H 8 Z m 12.1,1 H 22 C 22,9.24 19.76,7 17,7 h -4 v 1.9 h 4 c 1.71,0 3.1,1.39 3.1,3.1 z M 3.9,12 C 3.9,10.29 5.29,8.9 7,8.9 h 4 V 7 H 7 c -2.76,0 -5,2.24 -5,5 0,2.76 2.24,5 5,5 h 4 V 15.1 H 7 C 5.29,15.1 3.9,13.71 3.9,12 Z M 19,12 h -2 v 3 h -3 v 2 h 3 v 3 h 2 v -3 h 3 v -2 h -3 z"
       id="path12817"
       transform="matrix(0.264583,0,0,0.264583,77.5758,376.281)" />
  </g>
</svg>
