<?xml version="1.0" encoding="UTF-8" standalone="no"?>
<!-- Created with Inkscape (http://www.inkscape.org/) -->

<svg
   id="svg1100"
   version="1.1"
   viewBox="0 0 4.7624941 4.7624941"
   height="4.7624941mm"
   width="4.7624941mm"
   xmlns="http://www.w3.org/2000/svg"
   xmlns:svg="http://www.w3.org/2000/svg">
  <defs
     id="defs1097" />
  <g
     id="New_Layer_1652808905.6439676"
     style="display:inline"
     transform="translate(-143.19275,-396.95575)">
    <path
       fill="#323232"
       d="M 20.54,5.23 19.15,3.55 C 18.88,3.21 18.47,3 18,3 H 6 C 5.53,3 5.12,3.21 4.84,3.55 L 3.46,5.23 C 3.17,5.57 3,6.02 3,6.5 V 19 c 0,1.1 0.9,2 2,2 h 14 c 1.1,0 2,-0.9 2,-2 V 6.5 C 21,6.02 20.83,5.57 20.54,5.23 Z M 12,17.5 6.5,12 H 10 v -2 h 4 v 2 h 3.5 z M 5.12,5 5.93,4 h 12 l 0.94,1 z"
       id="path12839"
       transform="matrix(0.264583,0,0,0.264583,142.399,396.162)" />
  </g>
</svg>
