<?xml version="1.0" encoding="UTF-8" standalone="no"?>
<!-- Created with Inkscape (http://www.inkscape.org/) -->

<svg
   id="svg1100"
   version="1.1"
   viewBox="0 0 6.3499918 4.7624941"
   height="4.7624941mm"
   width="6.3499918mm"
   xmlns="http://www.w3.org/2000/svg"
   xmlns:svg="http://www.w3.org/2000/svg">
  <defs
     id="defs1097" />
  <g
     id="New_Layer_1652808905.644514"
     style="display:inline"
     transform="translate(-1.2e-6,-377.47175)">
    <path
       fill="#323232"
       d="M 22,3 H 7 C 6.31,3 5.77,3.35 5.41,3.88 L 0,12 5.41,20.11 C 5.77,20.64 6.31,21 7,21 h 15 c 1.1,0 2,-0.9 2,-2 V 5 C 24,3.9 23.1,3 22,3 Z M 19,15.59 17.59,17 14,13.41 10.41,17 9,15.59 12.59,12 9,8.41 10.41,7 14,10.59 17.59,7 19,8.41 15.41,12 Z"
       id="path12850"
       transform="matrix(0.264583,0,0,0.264583,1.2e-6,376.678)" />
  </g>
</svg>
