<?xml version="1.0" encoding="UTF-8" standalone="no"?>
<!-- Created with Inkscape (http://www.inkscape.org/) -->

<svg
   id="svg1100"
   version="1.1"
   viewBox="0 0 4.7624941 4.7624941"
   height="4.7624941mm"
   width="4.7624941mm"
   xmlns="http://www.w3.org/2000/svg"
   xmlns:svg="http://www.w3.org/2000/svg">
  <defs
     id="defs1097" />
  <g
     id="New_Layer_1652808905.6450531"
     style="display:inline"
     transform="translate(-50.209949,-396.95575)">
    <path
       fill="#323232"
       fill-rule="evenodd"
       d="m 13,9.5 h 5 v -2 h -5 z m 0,7 h 5 v -2 H 13 Z M 19,21 H 5 C 3.9,21 3,20.1 3,19 V 5 C 3,3.9 3.9,3 5,3 h 14 c 1.1,0 2,0.9 2,2 v 14 c 0,1.1 -0.9,2 -2,2 z M 6,11 h 5 V 6 H 6 Z M 7,7 h 3 v 3 H 7 Z M 6,18 h 5 V 13 H 6 Z m 1,-4 h 3 v 3 H 7 Z"
       clip-rule="evenodd"
       id="path12861"
       transform="matrix(0.264583,0,0,0.264583,49.4162,396.162)" />
  </g>
</svg>
