<?xml version="1.0" encoding="UTF-8" standalone="no"?>
<!-- Created with Inkscape (http://www.inkscape.org/) -->

<svg
   id="svg1100"
   version="1.1"
   viewBox="0 0 3.7041619 5.0270772"
   height="5.0270772mm"
   width="3.7041619mm"
   xmlns="http://www.w3.org/2000/svg"
   xmlns:svg="http://www.w3.org/2000/svg">
  <defs
     id="defs1097" />
  <g
     id="New_Layer_1652808905.645605"
     style="display:inline"
     transform="translate(-97.419615,-406.34917)">
    <path
       fill="#323232"
       d="m 7,19 c -1.1,0 -2,0.9 -2,2 h 14 c 0,-1.1 -0.9,-2 -2,-2 h -4 v -2 h 3 c 1.1,0 2,-0.9 2,-2 H 10 C 8.34,15 7,13.66 7,12 7,10.91 7.59,9.96 8.46,9.44 8.17,9.03 8,8.54 8,8 8,7.79 8.04,7.58 8.09,7.38 A 5.01,5.01 0 0 0 5,12 c 0,2.76 2.24,5 5,5 v 2 z"
       id="path12872"
       transform="matrix(0.264583,0,0,0.264583,96.0967,405.82)" />
    <path
       fill="#323232"
       d="M 10.56,5.51 C 11.91,5.54 13,6.64 13,8 13,8.75 12.67,9.41 12.15,9.87 l 0.59,1.62 0.94,-0.34 0.34,0.94 L 15.9,11.41 15.56,10.47 16.5,10.13 13.76,2.6 12.82,2.94 12.48,2 10.6,2.68 10.94,3.62 10,3.97 Z"
       id="path12874"
       transform="matrix(0.264583,0,0,0.264583,96.0967,405.82)" />
    <path
       fill="#323232"
       d="m 10.5,9.5 a 1.5,1.5 0 1 0 0,-3 1.5,1.5 0 0 0 0,3 z"
       id="path12876"
       transform="matrix(0.264583,0,0,0.264583,96.0967,405.82)" />
  </g>
</svg>
