<?xml version="1.0" encoding="UTF-8" standalone="no"?>
<!-- Created with Inkscape (http://www.inkscape.org/) -->

<svg
   id="svg1100"
   version="1.1"
   viewBox="0 0 5.2916598 5.2916598"
   height="5.2916598mm"
   width="5.2916598mm"
   xmlns="http://www.w3.org/2000/svg"
   xmlns:svg="http://www.w3.org/2000/svg">
  <defs
     id="defs1097" />
  <g
     id="New_Layer_1652808905.6470535"
     style="display:inline"
     transform="translate(-30.691666,-386.90217)">
    <path
       fill="#323232"
       d="M 12,2 C 6.48,2 2,6.48 2,12 2,17.52 6.48,22 12,22 17.52,22 22,17.52 22,12 22,6.48 17.52,2 12,2 Z M 4,12 c 0,-4.42 3.58,-8 8,-8 1.85,0 3.55,0.63 4.9,1.69 L 5.69,16.9 A 7.902,7.902 0 0 1 4,12 Z m 8,8 C 10.15,20 8.45,19.37 7.1,18.31 L 18.31,7.1 A 7.902,7.902 0 0 1 20,12 c 0,4.42 -3.58,8 -8,8 z"
       id="path12889"
       transform="matrix(0.264583,0,0,0.264583,30.1625,386.373)" />
  </g>
</svg>
