<?xml version="1.0" encoding="UTF-8" standalone="no"?>
<!-- Created with Inkscape (http://www.inkscape.org/) -->

<svg
   id="svg1100"
   version="1.1"
   viewBox="0 0 5.2916598 5.2916598"
   height="5.2916598mm"
   width="5.2916598mm"
   xmlns="http://www.w3.org/2000/svg"
   xmlns:svg="http://www.w3.org/2000/svg">
  <defs
     id="defs1097" />
  <g
     id="New_Layer_1652808905.6476092"
     style="display:inline"
     transform="translate(-40.384666,-386.90217)">
    <path
       fill="#323232"
       d="M 22,12 C 22,6.5 17.5,2 12,2 6.5,2 2,6.5 2,12 2,17.5 6.5,22 12,22 17.5,22 22,17.5 22,12 Z M 5.7,7.1 16.9,18.3 C 15.6,19.4 13.9,20 12,20 7.6,20 4,16.4 4,12 4,10.1 4.6,8.4 5.7,7.1 Z M 20,12 c 0,1.9 -0.6,3.6 -1.7,4.9 L 7.1,5.7 C 8.4,4.6 10.1,4 12,4 c 4.4,0 8,3.6 8,8 z"
       id="path12900"
       transform="matrix(0.264583,0,0,0.264583,39.8555,386.373)" />
  </g>
</svg>
