<?xml version="1.0" encoding="UTF-8" standalone="no"?>
<!-- Created with Inkscape (http://www.inkscape.org/) -->

<svg
   id="svg1100"
   version="1.1"
   viewBox="0 0 4.7624941 4.7624941"
   height="4.7624941mm"
   width="4.7624941mm"
   xmlns="http://www.w3.org/2000/svg"
   xmlns:svg="http://www.w3.org/2000/svg">
  <defs
     id="defs1097" />
  <g
     id="New_Layer_1652808905.6486907"
     style="display:inline"
     transform="translate(-11.112549,-406.48075)">
    <path
       fill="#323232"
       d="M 19,3 H 5 C 3.9,3 3,3.9 3,5 v 14 c 0,1.1 0.9,2 2,2 h 14 c 1.1,0 2,-0.9 2,-2 V 5 C 21,3.9 20.1,3 19,3 Z M 13.03,7.06 14.09,6 15.5,7.41 16.91,6 17.97,7.06 16.56,8.47 17.97,9.88 16.91,10.94 15.5,9.54 14.09,10.95 13.03,9.89 14.44,8.48 Z M 6.25,7.72 h 5 v 1.5 h -5 z M 11.5,16 h -2 v 2 H 8 V 16 H 6 v -1.5 h 2 v -2 h 1.5 v 2 h 2 z m 6.5,1.25 h -5 v -1.5 h 5 z m 0,-2.5 h -5 v -1.5 h 5 z"
       id="path12922"
       transform="matrix(0.264583,0,0,0.264583,10.3188,405.687)" />
  </g>
</svg>
