<?xml version="1.0" encoding="UTF-8" standalone="no"?>
<!-- Created with Inkscape (http://www.inkscape.org/) -->

<svg
   id="svg1100"
   version="1.1"
   viewBox="0 0 5.2916598 5.2916598"
   height="5.2916598mm"
   width="5.2916598mm"
   xmlns="http://www.w3.org/2000/svg"
   xmlns:svg="http://www.w3.org/2000/svg">
  <defs
     id="defs1097" />
  <g
     id="New_Layer_1652808905.6503167"
     style="display:inline"
     transform="translate(-78.104966,-386.90217)">
    <path
       fill="#323232"
       d="M 9.64,7.64 C 9.87,7.14 10,6.59 10,6 10,3.79 8.21,2 6,2 3.79,2 2,3.79 2,6 2,8.21 3.79,10 6,10 6.59,10 7.14,9.87 7.64,9.64 L 10,12 7.64,14.36 C 7.14,14.13 6.59,14 6,14 c -2.21,0 -4,1.79 -4,4 0,2.21 1.79,4 4,4 2.21,0 4,-1.79 4,-4 0,-0.59 -0.13,-1.14 -0.36,-1.64 L 12,14 l 7,7 h 3 V 20 Z M 6,8 A 2,2 0 1 1 5.999,4.001 2,2 0 0 1 6,8 Z M 6,20 A 2,2 0 1 1 5.999,16.001 2,2 0 0 1 6,20 Z m 6,-7.5 c -0.28,0 -0.5,-0.22 -0.5,-0.5 0,-0.28 0.22,-0.5 0.5,-0.5 0.28,0 0.5,0.22 0.5,0.5 0,0.28 -0.22,0.5 -0.5,0.5 z M 19,3 13,9 15,11 22,4 V 3 Z"
       id="path12955"
       transform="matrix(0.264583,0,0,0.264583,77.5758,386.373)" />
  </g>
</svg>
