<?xml version="1.0" encoding="UTF-8" standalone="no"?>
<!-- Created with Inkscape (http://www.inkscape.org/) -->

<svg
   id="svg1100"
   version="1.1"
   viewBox="0 0 4.7624941 5.820826"
   height="5.8208261mm"
   width="4.7624941mm"
   xmlns="http://www.w3.org/2000/svg"
   xmlns:svg="http://www.w3.org/2000/svg">
  <defs
     id="defs1097" />
  <g
     id="New_Layer_1652808905.6508636"
     style="display:inline"
     transform="translate(-59.664849,-396.427)">
    <path
       fill="#323232"
       d="M 19,2 H 14.82 C 14.4,0.84 13.3,0 12,0 10.7,0 9.6,0.84 9.18,2 H 5 C 3.9,2 3,2.9 3,4 v 16 c 0,1.1 0.9,2 2,2 h 14 c 1.1,0 2,-0.9 2,-2 V 4 C 21,2.9 20.1,2 19,2 Z m -7,0 c 0.55,0 1,0.45 1,1 0,0.55 -0.45,1 -1,1 -0.55,0 -1,-0.45 -1,-1 0,-0.55 0.45,-1 1,-1 z m 7,18 H 5 V 4 H 7 V 7 H 17 V 4 h 2 z"
       id="path12966"
       transform="matrix(0.264583,0,0,0.264583,58.8711,396.427)" />
  </g>
</svg>
