<?xml version="1.0" encoding="UTF-8" standalone="no"?>
<!-- Created with Inkscape (http://www.inkscape.org/) -->

<svg
   id="svg1100"
   version="1.1"
   viewBox="0 0 4.7624946 4.7624941"
   height="4.7624941mm"
   width="4.7624946mm"
   xmlns="http://www.w3.org/2000/svg"
   xmlns:svg="http://www.w3.org/2000/svg">
  <defs
     id="defs1097" />
  <g
     id="New_Layer_1652806942.9322338"
     style="display:inline"
     transform="translate(-186.53175,-47.374949)">
    <path
       fill="#323232"
       d="m 13,3 h -2 v 10 h 2 z m 4.83,2.17 -1.42,1.42 A 6.92,6.92 0 0 1 19,12 c 0,3.87 -3.13,7 -7,7 A 6.995,6.995 0 0 1 7.58,6.58 L 6.17,5.17 A 8.932,8.932 0 0 0 3,12 9,9 0 0 0 21,12 C 21,9.26 19.77,6.82 17.83,5.17 Z"
       id="path3513"
       transform="matrix(0.264583,0,0,0.264583,185.738,46.5812)" />
  </g>
</svg>
