<?xml version="1.0" encoding="UTF-8" standalone="no"?>
<!-- Created with Inkscape (http://www.inkscape.org/) -->

<svg
   id="svg1100"
   version="1.1"
   viewBox="0 0 5.2916598 4.7624941"
   height="4.7624941mm"
   width="5.2916598mm"
   xmlns="http://www.w3.org/2000/svg"
   xmlns:svg="http://www.w3.org/2000/svg">
  <defs
     id="defs1097" />
  <g
     id="New_Layer_1652808905.6530178"
     style="display:inline"
     transform="translate(-0.529166,-387.16675)">
    <path
       fill="#323232"
       d="M 8,8 H 6 v 7 c 0,1.1 0.9,2 2,2 h 9 V 15 H 8 Z"
       id="path13010"
       transform="matrix(0.264583,0,0,0.264583,1.2e-6,386.373)" />
    <path
       fill="#323232"
       d="m 20,3 h -8 c -1.1,0 -2,0.9 -2,2 v 6 c 0,1.1 0.9,2 2,2 h 8 c 1.1,0 2,-0.9 2,-2 V 5 C 22,3.9 21.1,3 20,3 Z m 0,8 H 12 V 7 h 8 z M 4,12 H 2 v 7 c 0,1.1 0.9,2 2,2 h 9 V 19 H 4 Z"
       id="path13012"
       transform="matrix(0.264583,0,0,0.264583,0,386.373)" />
  </g>
</svg>
