<?xml version="1.0" encoding="UTF-8" standalone="no"?>
<!-- Created with Inkscape (http://www.inkscape.org/) -->

<svg
   id="svg1100"
   version="1.1"
   viewBox="0 0 4.8048272 4.7572021"
   height="4.7572021mm"
   width="4.8048272mm"
   xmlns="http://www.w3.org/2000/svg"
   xmlns:svg="http://www.w3.org/2000/svg">
  <defs
     id="defs1097" />
  <g
     id="New_Layer_1652808905.6567461"
     style="display:inline"
     transform="translate(-143.17142,-387.16875)">
    <path
       fill="#323232"
       d="M 4.59,6.89 C 5.29,6.18 5.99,5.54 6.3,5.67 6.8,5.87 6.3,6.7 6,7.19 5.75,7.61 3.14,11.08 3.14,13.5 c 0,1.28 0.48,2.34 1.34,2.98 0.75,0.56 1.74,0.73 2.64,0.46 1.07,-0.31 1.95,-1.4 3.06,-2.77 1.21,-1.49 2.83,-3.44 4.08,-3.44 1.63,0 1.65,1.01 1.76,1.79 -3.78,0.64 -5.38,3.67 -5.38,5.37 0,1.7 1.44,3.09 3.21,3.09 1.63,0 4.29,-1.33 4.69,-6.1 H 21 v -2.5 h -2.47 c -0.15,-1.65 -1.09,-4.2 -4.03,-4.2 -2.25,0 -4.18,1.91 -4.94,2.84 C 8.98,11.75 7.5,13.5 7.27,13.74 7.02,14.04 6.59,14.58 6.16,14.58 5.71,14.58 5.44,13.75 5.8,12.66 6.15,11.57 7.2,9.8 7.65,9.14 8.43,8 8.95,7.22 8.95,5.86 8.95,3.69 7.31,3 6.44,3 5.12,3 3.97,4 3.72,4.25 3.36,4.61 3.06,4.91 2.84,5.18 Z m 9.29,11.66 c -0.31,0 -0.74,-0.26 -0.74,-0.72 0,-0.6 0.73,-2.2 2.87,-2.76 -0.3,2.69 -1.43,3.48 -2.13,3.48 z"
       id="path13079"
       transform="matrix(0.264583,0,0,0.264583,142.42,386.375)" />
  </g>
</svg>
