<?xml version="1.0" encoding="UTF-8" standalone="no"?>
<!-- Created with Inkscape (http://www.inkscape.org/) -->

<svg
   id="svg1100"
   version="1.1"
   viewBox="0 0 5.0270772 4.3656196"
   height="4.3656197mm"
   width="5.0270772mm"
   xmlns="http://www.w3.org/2000/svg"
   xmlns:svg="http://www.w3.org/2000/svg">
  <defs
     id="defs1097" />
  <g
     id="New_Layer_1652808905.6572802"
     style="display:inline"
     transform="translate(-133.79975,-387.36533)">
    <path
       fill="#323232"
       fill-rule="evenodd"
       d="m 9,17 3,-2.94 A 9.34,9.34 0 0 0 11,14 c -2.67,0 -8,1.34 -8,4 v 2 h 9 z m 2,-5 c 2.21,0 4,-1.79 4,-4 C 15,5.79 13.21,4 11,4 8.79,4 7,5.79 7,8 c 0,2.21 1.79,4 4,4 z M 15.47,20.5 12,17 l 1.4,-1.41 2.07,2.08 5.13,-5.17 1.4,1.41 z"
       clip-rule="evenodd"
       id="path13090"
       transform="matrix(0.264583,0,0,0.264583,133.006,386.307)" />
  </g>
</svg>
