<?xml version="1.0" encoding="UTF-8" standalone="no"?>
<!-- Created with Inkscape (http://www.inkscape.org/) -->

<svg
   id="svg1100"
   version="1.1"
   viewBox="0 0 4.7624941 5.292015"
   height="5.2920151mm"
   width="4.7624941mm"
   xmlns="http://www.w3.org/2000/svg"
   xmlns:svg="http://www.w3.org/2000/svg">
  <defs
     id="defs1097" />
  <g
     id="New_Layer_1652808905.657824"
     style="display:inline"
     transform="translate(-78.369549,-396.69081)">
    <path
       fill="#323232"
       d="m 18,13 h -0.68 l -2,2 h 1.91 L 19,17 H 5 l 1.78,-2 h 2.05 l -2,-2 H 6 l -3,3 v 4 c 0,1.1 0.89,2 1.99,2 H 19 a 2,2 0 0 0 2,-2 V 16 Z M 17,7.95 12.05,12.9 8.51,9.36 13.46,4.41 Z M 12.76,2.29 6.39,8.66 a 0.996,0.996 0 0 0 0,1.41 l 4.95,4.95 c 0.39,0.39 1.02,0.39 1.41,0 l 6.36,-6.36 a 0.996,0.996 0 0 0 0,-1.41 L 14.16,2.3 a 0.975,0.975 0 0 0 -1.4,-0.01 z"
       id="path13101"
       transform="matrix(0.264583,0,0,0.264583,77.5758,396.162)" />
  </g>
</svg>
