<?xml version="1.0" encoding="UTF-8" standalone="no"?>
<!-- Created with Inkscape (http://www.inkscape.org/) -->

<svg
   id="svg1100"
   version="1.1"
   viewBox="0 0 4.7624941 4.7624941"
   height="4.7624941mm"
   width="4.7624941mm"
   xmlns="http://www.w3.org/2000/svg"
   xmlns:svg="http://www.w3.org/2000/svg">
  <defs
     id="defs1097" />
  <g
     id="New_Layer_1652808905.658369"
     style="display:inline"
     transform="translate(-152.45275,-396.95575)">
    <path
       fill="#323232"
       d="M 19,3 H 4.99 C 3.88,3 3.01,3.89 3.01,5 L 3,19 c 0,1.1 0.88,2 1.99,2 H 19 c 1.1,0 2,-0.9 2,-2 V 5 A 2,2 0 0 0 19,3 Z m 0,12 h -4 c 0,1.66 -1.35,3 -3,3 -1.65,0 -3,-1.34 -3,-3 H 4.99 V 5 H 19 Z"
       id="path13112"
       transform="matrix(0.264583,0,0,0.264583,151.659,396.162)" />
  </g>
</svg>
