<?xml version="1.0" encoding="UTF-8" standalone="no"?>
<!-- Created with Inkscape (http://www.inkscape.org/) -->

<svg
   id="svg1100"
   version="1.1"
   viewBox="0 0 5.8208261 4.497911"
   height="4.497911mm"
   width="5.8208261mm"
   xmlns="http://www.w3.org/2000/svg"
   xmlns:svg="http://www.w3.org/2000/svg">
  <defs
     id="defs1097" />
  <g
     id="New_Layer_1652808905.6589193"
     style="display:inline"
     transform="translate(-20.637483,-377.60475)">
    <path
       fill="#323232"
       d="m 21,8 c -1.45,0 -2.26,1.44 -1.93,2.51 l -3.55,3.56 c -0.3,-0.09 -0.74,-0.09 -1.04,0 L 11.93,11.52 C 12.27,10.45 11.46,9 10,9 8.55,9 7.73,10.44 8.07,11.52 L 3.51,16.07 C 2.44,15.74 1,16.55 1,18 c 0,1.1 0.9,2 2,2 1.45,0 2.26,-1.44 1.93,-2.51 l 4.55,-4.56 c 0.3,0.09 0.74,0.09 1.04,0 l 2.55,2.55 C 12.73,16.55 13.54,18 15,18 c 1.45,0 2.27,-1.44 1.93,-2.52 l 3.56,-3.55 C 21.56,12.26 23,11.45 23,10 23,8.9 22.1,8 21,8 Z"
       id="path13123"
       transform="matrix(0.264583,0,0,0.264583,20.3729,376.811)" />
    <path
       fill="#323232"
       d="M 15,9 15.94,6.93 18,6 15.94,5.07 15,3 14.08,5.07 12,6 14.08,6.93 Z M 3.5,11 4,9 6,8.5 4,8 3.5,6 3,8 1,8.5 3,9 Z"
       id="path13125"
       transform="matrix(0.264583,0,0,0.264583,20.3729,376.811)" />
  </g>
</svg>
