<?xml version="1.0" encoding="UTF-8" standalone="no"?>
<!-- Created with Inkscape (http://www.inkscape.org/) -->

<svg
   id="svg1100"
   version="1.1"
   viewBox="0 0 5.2916598 5.2916598"
   height="5.2916598mm"
   width="5.2916598mm"
   xmlns="http://www.w3.org/2000/svg"
   xmlns:svg="http://www.w3.org/2000/svg">
  <defs
     id="defs1097" />
  <g
     id="New_Layer_1652808905.6599233"
     style="display:inline"
     transform="translate(-96.625866,-386.90217)">
    <path
       fill="#323232"
       d="M 20,2 H 4 C 3,2 2,2.9 2,4 V 7.01 C 2,7.73 2.43,8.35 3,8.7 V 20 c 0,1.1 1.1,2 2,2 h 14 c 0.9,0 2,-0.9 2,-2 V 8.7 C 21.57,8.35 22,7.73 22,7.01 V 4 C 22,2.9 21,2 20,2 Z M 15,14 H 9 v -2 h 6 z M 20,7 H 4 V 4 L 20,3.98 Z"
       id="path13137"
       transform="matrix(0.264583,0,0,0.264583,96.0967,386.373)" />
  </g>
</svg>
