<?xml version="1.0" encoding="UTF-8" standalone="no"?>
<!-- Created with Inkscape (http://www.inkscape.org/) -->

<svg
   id="svg1100"
   version="1.1"
   viewBox="0 0 5.2916598 4.7624941"
   height="4.7624941mm"
   width="5.2916598mm"
   xmlns="http://www.w3.org/2000/svg"
   xmlns:svg="http://www.w3.org/2000/svg">
  <defs
     id="defs1097" />
  <g
     id="New_Layer_1652808905.6610248"
     style="display:inline"
     transform="translate(-115.14717,-377.47175)">
    <path
       fill="#323232"
       d="m 17,7 h -4 v 1.9 h 4 c 1.71,0 3.1,1.39 3.1,3.1 0,1.43 -0.98,2.63 -2.31,2.98 l 1.46,1.46 C 20.88,15.61 22,13.95 22,12 22,9.24 19.76,7 17,7 Z m -1,4 h -2.19 l 2,2 H 16 Z M 2,4.27 5.11,7.38 A 4.991,4.991 0 0 0 2,12 c 0,2.76 2.24,5 5,5 h 4 V 15.1 H 7 C 5.29,15.1 3.9,13.71 3.9,12 3.9,10.41 5.11,9.1 6.66,8.93 L 8.73,11 H 8 v 2 h 2.73 L 13,15.27 V 17 h 1.73 L 18.74,21 20,19.74 3.27,3 Z"
       id="path13159"
       transform="matrix(0.264583,0,0,0.264583,114.618,376.678)" />
  </g>
</svg>
