<?xml version="1.0" encoding="UTF-8" standalone="no"?>
<!-- Created with Inkscape (http://www.inkscape.org/) -->

<svg
   id="svg1100"
   version="1.1"
   viewBox="0 0 5.2916598 3.968745"
   height="3.968745mm"
   width="5.2916598mm"
   xmlns="http://www.w3.org/2000/svg"
   xmlns:svg="http://www.w3.org/2000/svg">
  <defs
     id="defs1097" />
  <g
     id="New_Layer_1652808905.6615715"
     style="display:inline"
     transform="translate(-105.88617,-377.86892)">
    <path
       fill="#323232"
       d="m 14,5 h 8 v 2 h -8 z m 0,5.5 h 8 v 2 h -8 z m 0,5.5 h 8 v 2 H 14 Z M 2,11.5 C 2,15.08 4.92,18 8.5,18 H 9 v 2 l 3,-3 -3,-3 v 2 H 8.5 C 6.02,16 4,13.98 4,11.5 4,9.02 6.02,7 8.5,7 H 12 V 5 H 8.5 C 4.92,5 2,7.92 2,11.5 Z"
       id="path13170"
       transform="matrix(0.264583,0,0,0.264583,105.357,376.546)" />
  </g>
</svg>
