<?xml version="1.0" encoding="UTF-8" standalone="no"?>
<!-- Created with Inkscape (http://www.inkscape.org/) -->

<svg
   id="svg1100"
   version="1.1"
   viewBox="0 0 5.2916598 5.0270772"
   height="5.0270772mm"
   width="5.2916598mm"
   xmlns="http://www.w3.org/2000/svg"
   xmlns:svg="http://www.w3.org/2000/svg">
  <defs
     id="defs1097" />
  <g
     id="New_Layer_1652808905.6637459"
     style="display:inline"
     transform="translate(-96.625866,-377.33975)">
    <path
       fill="#323232"
       d="M 20,7 H 16 V 5 C 16,4.45 15.78,3.95 15.41,3.59 15.05,3.22 14.55,3 14,3 H 10 C 8.9,3 8,3.9 8,5 V 7 H 4 C 2.9,7 2,7.9 2,9 v 11 c 0,1.1 0.9,2 2,2 h 16 c 1.1,0 2,-0.9 2,-2 V 9 C 22,7.9 21.1,7 20,7 Z M 10,5 h 4 v 2 h -4 z m 1,13.5 -1,-1 3,-3 -3,-3 1,-1 4,4 z"
       id="path13214"
       transform="matrix(0.264583,0,0,0.264583,96.0967,376.546)" />
  </g>
</svg>
