<?xml version="1.0" encoding="UTF-8" standalone="no"?>
<!-- Created with Inkscape (http://www.inkscape.org/) -->

<svg
   id="svg1100"
   version="1.1"
   viewBox="0 0 5.2916598 5.2652015"
   height="5.2652016mm"
   width="5.2916598mm"
   xmlns="http://www.w3.org/2000/svg"
   xmlns:svg="http://www.w3.org/2000/svg">
  <defs
     id="defs1097" />
  <g
     id="New_Layer_1652806942.933472"
     style="display:inline"
     transform="translate(-72.760366,-26.486095)">
    <path
       fill="#323232"
       d="m 17.66,9.53 -7.07,7.07 -4.24,-4.24 1.41,-1.41 2.83,2.83 5.66,-5.66 z M 4,12 C 4,9.67 5.02,7.58 6.62,6.12 L 9,8.5 v -6 H 3 L 5.2,4.7 C 3.24,6.52 2,9.11 2,12 c 0,5.19 3.95,9.45 9,9.95 V 19.93 C 7.06,19.44 4,16.07 4,12 Z m 18,0 C 22,6.81 18.05,2.55 13,2.05 v 2.02 c 3.94,0.49 7,3.86 7,7.93 0,2.33 -1.02,4.42 -2.62,5.88 L 15,15.5 v 6 h 6 L 18.8,19.3 C 20.76,17.48 22,14.89 22,12 Z"
       id="path3568"
       transform="matrix(0.264583,0,0,0.264583,72.2312,25.9437)" />
  </g>
</svg>
