<?xml version="1.0" encoding="UTF-8" standalone="no"?>
<!-- Created with Inkscape (http://www.inkscape.org/) -->

<svg
   id="svg1100"
   version="1.1"
   viewBox="0 0 4.7624941 5.820826"
   height="5.8208261mm"
   width="4.7624941mm"
   xmlns="http://www.w3.org/2000/svg"
   xmlns:svg="http://www.w3.org/2000/svg">
  <defs
     id="defs1097" />
  <g
     id="New_Layer_1652808905.6648204"
     style="display:inline"
     transform="translate(-40.649249,-396.42658)">
    <path
       fill="#323232"
       d="M 21,5 12,1 3,5 v 6 c 0,5.55 3.84,10.74 9,12 2.3,-0.56 4.33,-1.9 5.88,-3.71 l -3.12,-3.12 a 4.994,4.994 0 0 1 -6.29,-0.64 5.003,5.003 0 0 1 0,-7.07 5.003,5.003 0 0 1 7.07,0 5.006,5.006 0 0 1 0.64,6.29 l 2.9,2.9 C 20.29,15.69 21,13.38 21,11 Z"
       id="path13236"
       transform="matrix(0.264583,0,0,0.264583,39.8555,396.162)" />
    <path
       fill="#323232"
       d="m 12,15 a 3,3 0 1 0 0,-6 3,3 0 0 0 0,6 z"
       id="path13238"
       transform="matrix(0.264583,0,0,0.264583,39.8555,396.162)" />
  </g>
</svg>
