<?xml version="1.0" encoding="UTF-8" standalone="no"?>
<!-- Created with Inkscape (http://www.inkscape.org/) -->

<svg
   id="svg1100"
   version="1.1"
   viewBox="0 0 3.7041619 5.2916598"
   height="5.2916598mm"
   width="3.7041619mm"
   xmlns="http://www.w3.org/2000/svg"
   xmlns:svg="http://www.w3.org/2000/svg">
  <defs
     id="defs1097" />
  <g
     id="New_Layer_1652808905.665812"
     style="display:inline"
     transform="translate(-78.898715,-406.21617)">
    <path
       fill="#323232"
       fill-rule="evenodd"
       d="M 16,9 V 4 h 1 C 17.55,4 18,3.55 18,3 18,2.45 17.55,2 17,2 H 7 C 6.45,2 6,2.45 6,3 6,3.55 6.45,4 7,4 h 1 v 5 c 0,1.66 -1.34,3 -3,3 v 2 h 5.97 v 7 l 1,1 1,-1 V 14 H 19 v -2 c -1.66,0 -3,-1.34 -3,-3 z"
       clip-rule="evenodd"
       id="path13250"
       transform="matrix(0.264583,0,0,0.264583,77.5758,405.687)" />
  </g>
</svg>
