<?xml version="1.0" encoding="UTF-8" standalone="no"?>
<!-- Created with Inkscape (http://www.inkscape.org/) -->

<svg
   id="svg1100"
   version="1.1"
   viewBox="0 0 5.6276803 5.6303262"
   height="5.6303263mm"
   width="5.6276803mm"
   xmlns="http://www.w3.org/2000/svg"
   xmlns:svg="http://www.w3.org/2000/svg">
  <defs
     id="defs1097" />
  <g
     id="New_Layer_1652808905.6701615"
     style="display:inline"
     transform="translate(-40.216683,-377.03808)">
    <path
       fill="#323232"
       d="m 11,7 h 2 v 2.92 l 6.91,6.91 1.09,-1.1 V 8.27 L 15.73,3 H 8.27 L 7.18,4.1 11,7.92 Z M 22.27,21.73 2.27,1.72 1,2.99 4.64,6.63 3,8.27 v 7.46 L 8.27,21 h 7.46 L 17.37,19.37 21,23 Z M 12,17.3 c -0.72,0 -1.3,-0.58 -1.3,-1.3 0,-0.72 0.58,-1.3 1.3,-1.3 0.72,0 1.3,0.58 1.3,1.3 0,0.72 -0.58,1.3 -1.3,1.3 z"
       id="path13338"
       transform="matrix(0.264583,0,0,0.264583,39.9521,376.583)" />
  </g>
</svg>
