<?xml version="1.0" encoding="UTF-8" standalone="no"?>
<!-- Created with Inkscape (http://www.inkscape.org/) -->

<svg
   id="svg1100"
   version="1.1"
   viewBox="0 0 5.8204956 5.0270772"
   height="5.0270772mm"
   width="5.8204956mm"
   xmlns="http://www.w3.org/2000/svg"
   xmlns:svg="http://www.w3.org/2000/svg">
  <defs
     id="defs1097" />
  <g
     id="New_Layer_1652806942.9340863"
     style="display:inline"
     transform="translate(-93.133483,-36.923866)">
    <path
       fill="#323232"
       d="m 9,13 a 4,4 0 1 0 0,-8 4,4 0 0 0 0,8 z m 0,2 c -2.67,0 -8,1.34 -8,4 v 2 h 16 v -2 c 0,-2.66 -5.33,-4 -8,-4 z m 7.76,-9.64 -1.68,1.69 c 0.84,1.18 0.84,2.71 0,3.89 l 1.68,1.69 c 2.02,-2.02 2.02,-5.07 0,-7.27 z M 20.07,2 18.44,3.63 c 2.77,3.02 2.77,7.56 0,10.74 L 20.07,16 c 3.9,-3.89 3.91,-9.95 0,-14 z"
       id="path3629"
       transform="matrix(0.264583,0,0,0.264583,92.8689,36.3947)" />
  </g>
</svg>
