<?xml version="1.0" encoding="UTF-8" standalone="no"?>
<!-- Created with Inkscape (http://www.inkscape.org/) -->

<svg
   id="svg1100"
   version="1.1"
   viewBox="0 0 4.7624941 4.7624941"
   height="4.7624941mm"
   width="4.7624941mm"
   xmlns="http://www.w3.org/2000/svg"
   xmlns:svg="http://www.w3.org/2000/svg">
  <defs
     id="defs1097" />
  <g
     id="New_Layer_1652808905.6707122"
     style="display:inline"
     transform="translate(-115.41175,-396.95575)">
    <path
       fill="#323232"
       d="M 17,3 H 5 A 2,2 0 0 0 3,5 v 14 a 2,2 0 0 0 2,2 h 14 c 1.1,0 2,-0.9 2,-2 V 7 Z m -5,16 c -1.66,0 -3,-1.34 -3,-3 0,-1.66 1.34,-3 3,-3 1.66,0 3,1.34 3,3 0,1.66 -1.34,3 -3,3 z M 15,9 H 5 V 5 h 10 z"
       id="path13349"
       transform="matrix(0.264583,0,0,0.264583,114.618,396.162)" />
  </g>
</svg>
