<?xml version="1.0" encoding="UTF-8" standalone="no"?>
<!-- Created with Inkscape (http://www.inkscape.org/) -->

<svg
   id="svg1100"
   version="1.1"
   viewBox="0 0 4.7624941 4.7624941"
   height="4.7624941mm"
   width="4.7624941mm"
   xmlns="http://www.w3.org/2000/svg"
   xmlns:svg="http://www.w3.org/2000/svg">
  <defs
     id="defs1097" />
  <g
     id="New_Layer_1652808905.671783"
     style="display:inline"
     transform="translate(-96.890449,-396.95575)">
    <path
       fill="#323232"
       d="M 3,5 H 5 V 3 C 3.9,3 3,3.9 3,5 Z m 0,8 H 5 V 11 H 3 Z m 4,8 H 9 V 19 H 7 Z M 3,9 H 5 V 7 H 3 Z M 13,3 h -2 v 2 h 2 z m 6,0 v 2 h 2 C 21,3.9 20.1,3 19,3 Z M 5,21 V 19 H 3 c 0,1.1 0.9,2 2,2 z M 3,17 H 5 V 15 H 3 Z M 9,3 H 7 v 2 h 2 z m 2,18 h 2 v -2 h -2 z m 8,-8 h 2 v -2 h -2 z m 0,8 c 1.1,0 2,-0.9 2,-2 H 19 Z M 19,9 h 2 V 7 h -2 z m 0,8 h 2 v -2 h -2 z m -4,4 h 2 V 19 H 15 Z M 15,5 h 2 V 3 H 15 Z M 7,17 H 17 V 7 H 7 Z M 9,9 h 6 v 6 H 9 Z"
       id="path13371"
       transform="matrix(0.264583,0,0,0.264583,96.0967,396.162)" />
  </g>
</svg>
