<?xml version="1.0" encoding="UTF-8" standalone="no"?>
<!-- Created with Inkscape (http://www.inkscape.org/) -->

<svg
   id="svg1100"
   version="1.1"
   viewBox="0 0 4.2333279 4.2333278"
   height="4.2333279mm"
   width="4.2333279mm"
   xmlns="http://www.w3.org/2000/svg"
   xmlns:svg="http://www.w3.org/2000/svg">
  <defs
     id="defs1097" />
  <g
     id="New_Layer_1652808905.6739085"
     style="display:inline"
     transform="translate(-31.220832,-406.74533)">
    <path
       fill="#323232"
       d="M 17.66,17.66 16.6,18.72 15.89,18.01 16.95,16.95 15.01,15.01 13.95,16.07 13.24,15.36 14.3,14.3 12.36,12.36 11.3,13.42 10.59,12.71 11.65,11.65 9.7,9.7 8.64,10.76 7.93,10.05 8.99,8.99 7.05,7.05 5.99,8.11 5.28,7.4 6.34,6.34 4,4 v 14 c 0,1.1 0.9,2 2,2 H 20 Z M 7,17 V 11.24 L 12.76,17 Z"
       id="path13415"
       transform="matrix(0.264583,0,0,0.264583,30.1625,405.687)" />
  </g>
</svg>
