<?xml version="1.0" encoding="UTF-8" standalone="no"?>
<!-- Created with Inkscape (http://www.inkscape.org/) -->

<svg
   id="svg1100"
   version="1.1"
   viewBox="0 0 5.2916598 5.2916598"
   height="5.2916598mm"
   width="5.2916598mm"
   xmlns="http://www.w3.org/2000/svg"
   xmlns:svg="http://www.w3.org/2000/svg">
  <defs
     id="defs1097" />
  <g
     id="New_Layer_1652808905.6749833"
     style="display:inline"
     transform="translate(-105.88617,-386.90217)">
    <path
       fill="#323232"
       d="m 20,14 a 2,2 0 1 0 0,-4 2,2 0 0 0 0,4 z M 4,14 a 2,2 0 1 0 0,-4 2,2 0 0 0 0,4 z m 8,8 a 2,2 0 1 0 0,-4 2,2 0 0 0 0,4 z M 10.05,8.59 6.03,4.55 H 6.02 L 5.71,4.23 4.29,5.64 8.31,9.69 8.32,9.68 8.63,10 Z m 3.893,0.027 4.405,-4.392 1.412,1.415 -4.405,4.393 z M 10.01,15.36 8.59,13.95 4.56,17.96 4.24,18.29 5.65,19.7 9.68,15.68 Z m 9.75,2.94 -3.99,-4.01 -0.36,-0.35 -1.41,1.41 3.99,4.01 0.35,0.35 z M 12,6 a 2,2 0 1 0 0,-4 2,2 0 0 0 0,4 z"
       id="path13437"
       transform="matrix(0.264583,0,0,0.264583,105.357,386.373)" />
  </g>
</svg>
