<?xml version="1.0" encoding="UTF-8" standalone="no"?>
<!-- Created with Inkscape (http://www.inkscape.org/) -->

<svg
   id="svg1100"
   version="1.1"
   viewBox="0 0 4.7624941 4.7624945"
   height="4.7624946mm"
   width="4.7624941mm"
   xmlns="http://www.w3.org/2000/svg"
   xmlns:svg="http://www.w3.org/2000/svg">
  <defs
     id="defs1097" />
  <g
     id="New_Layer_1652808905.6765916"
     style="display:inline"
     transform="translate(-87.630049,-396.95575)">
    <path
       fill="#323232"
       d="M 20.55,5.22 19.16,3.54 A 1.51,1.51 0 0 0 18,3 H 6 C 5.53,3 5.12,3.21 4.85,3.55 L 3.46,5.22 C 3.17,5.57 3,6.01 3,6.5 V 19 a 2,2 0 0 0 2,2 h 14 c 1.1,0 2,-0.9 2,-2 V 6.5 C 21,6.01 20.83,5.57 20.55,5.22 Z M 12,9.5 17.5,15 H 14 v 2 H 10 V 15 H 6.5 Z M 5.12,5 5.94,4 h 12 l 0.93,1 z"
       id="path13470"
       transform="matrix(0.264583,0,0,0.264583,86.8363,396.162)" />
  </g>
</svg>
