<?xml version="1.0" encoding="UTF-8" standalone="no"?>
<!-- Created with Inkscape (http://www.inkscape.org/) -->

<svg
   id="svg1100"
   version="1.1"
   viewBox="0 0 5.2916598 4.4132442"
   height="4.4132442mm"
   width="5.2916598mm"
   xmlns="http://www.w3.org/2000/svg"
   xmlns:svg="http://www.w3.org/2000/svg">
  <defs
     id="defs1097" />
  <g
     id="New_Layer_1652808905.6776607"
     style="display:inline"
     transform="translate(-152.18817,-377.64637)">
    <path
       fill="#323232"
       d="m 17,16.99 c -1.35,0 -2.2,0.42 -2.95,0.8 -0.65,0.33 -1.18,0.6 -2.05,0.6 -0.9,0 -1.4,-0.25 -2.05,-0.6 C 9.2,17.41 8.38,16.99 7,16.99 c -1.38,0 -2.2,0.42 -2.95,0.8 -0.65,0.33 -1.17,0.6 -2.05,0.6 v 1.95 c 1.35,0 2.2,-0.42 2.95,-0.8 0.65,-0.33 1.17,-0.6 2.05,-0.6 0.88,0 1.4,0.25 2.05,0.6 0.75,0.38 1.57,0.8 2.95,0.8 1.38,0 2.2,-0.42 2.95,-0.8 0.65,-0.33 1.18,-0.6 2.05,-0.6 0.9,0 1.4,0.25 2.05,0.6 0.75,0.38 1.58,0.8 2.95,0.8 v -1.95 c -0.9,0 -1.4,-0.25 -2.05,-0.6 -0.75,-0.38 -1.6,-0.8 -2.95,-0.8 z m 0,-4.45 c -1.35,0 -2.2,0.43 -2.95,0.8 -0.65,0.32 -1.18,0.6 -2.05,0.6 -0.9,0 -1.4,-0.25 -2.05,-0.6 C 9.2,12.96 8.38,12.54 7,12.54 c -1.38,0 -2.2,0.43 -2.95,0.8 -0.65,0.32 -1.17,0.6 -2.05,0.6 v 1.95 c 1.35,0 2.2,-0.43 2.95,-0.8 0.65,-0.35 1.15,-0.6 2.05,-0.6 0.9,0 1.4,0.25 2.05,0.6 0.75,0.38 1.57,0.8 2.95,0.8 1.38,0 2.2,-0.43 2.95,-0.8 0.65,-0.35 1.15,-0.6 2.05,-0.6 0.9,0 1.4,0.25 2.05,0.6 0.75,0.38 1.58,0.8 2.95,0.8 v -1.95 c -0.9,0 -1.4,-0.25 -2.05,-0.6 -0.75,-0.38 -1.6,-0.8 -2.95,-0.8 z M 19.95,4.46 C 19.2,4.08 18.37,3.66 17,3.66 15.63,3.66 14.8,4.08 14.05,4.46 13.4,4.78 12.87,5.06 12,5.06 11.1,5.06 10.6,4.81 9.95,4.46 9.2,4.09 8.38,3.66 7,3.66 5.62,3.66 4.8,4.08 4.05,4.46 3.4,4.79 2.88,5.06 2,5.06 V 6.99 C 3.35,6.99 4.2,6.56 4.95,6.19 5.6,5.86 6.12,5.59 7,5.59 c 0.88,0 1.4,0.25 2.05,0.6 0.75,0.38 1.57,0.8 2.95,0.8 1.38,0 2.2,-0.43 2.95,-0.8 0.65,-0.32 1.18,-0.6 2.05,-0.6 0.9,0 1.4,0.25 2.05,0.6 0.75,0.38 1.58,0.8 2.95,0.8 V 5.04 c -0.9,0 -1.4,-0.25 -2.05,-0.58 z M 17,8.09 c -1.35,0 -2.2,0.43 -2.95,0.8 C 13.4,9.24 12.9,9.49 12,9.49 11.1,9.49 10.6,9.24 9.95,8.89 9.2,8.51 8.38,8.09 7,8.09 5.62,8.09 4.8,8.52 4.05,8.89 3.4,9.24 2.9,9.49 2,9.49 v 1.95 c 1.35,0 2.2,-0.43 2.95,-0.8 0.65,-0.32 1.18,-0.6 2.05,-0.6 0.87,0 1.4,0.25 2.05,0.6 0.75,0.38 1.57,0.8 2.95,0.8 1.38,0 2.2,-0.43 2.95,-0.8 0.65,-0.32 1.18,-0.6 2.05,-0.6 0.9,0 1.4,0.25 2.05,0.6 0.75,0.38 1.58,0.8 2.95,0.8 V 9.49 C 21.1,9.49 20.6,9.24 19.95,8.89 19.2,8.51 18.35,8.09 17,8.09 Z"
       id="path13492"
       transform="matrix(0.264583,0,0,0.264583,151.659,376.678)" />
  </g>
</svg>
