<?xml version="1.0" encoding="UTF-8" standalone="no"?>
<!-- Created with Inkscape (http://www.inkscape.org/) -->

<svg
   id="svg1100"
   version="1.1"
   viewBox="0 0 5.8208261 3.7041619"
   height="3.7041619mm"
   width="5.8208261mm"
   xmlns="http://www.w3.org/2000/svg"
   xmlns:svg="http://www.w3.org/2000/svg">
  <defs
     id="defs1097" />
  <g
     id="New_Layer_1652808905.678185"
     style="display:inline"
     transform="translate(-30.427083,-378.00092)">
    <path
       fill="#323232"
       d="m 21,10 c -1.1,0 -2,0.9 -2,2 v 3 H 5 v -3 a 2,2 0 1 0 -4,0 v 5 c 0,1.1 0.9,2 2,2 h 18 c 1.1,0 2,-0.9 2,-2 v -5 c 0,-1.1 -0.9,-2 -2,-2 z M 18,5 H 6 C 4.9,5 4,5.9 4,7 v 2.15 c 1.16,0.41 2,1.52 2,2.81 V 14 h 12 v -2.03 c 0,-1.3 0.84,-2.4 2,-2.81 V 7 C 20,5.9 19.1,5 18,5 Z"
       id="path13503"
       transform="matrix(0.264583,0,0,0.264583,30.1625,376.678)" />
  </g>
</svg>
