<?xml version="1.0" encoding="UTF-8" standalone="no"?>
<!-- Created with Inkscape (http://www.inkscape.org/) -->

<svg
   id="svg1100"
   version="1.1"
   viewBox="0 0 5.2916598 5.2916598"
   height="5.2916598mm"
   width="5.2916598mm"
   xmlns="http://www.w3.org/2000/svg"
   xmlns:svg="http://www.w3.org/2000/svg">
  <defs
     id="defs1097" />
  <g
     id="New_Layer_1652808914.2092414"
     style="display:inline"
     transform="translate(-82.682366,-456.45617)">
    <path
       fill="#323232"
       d="M 12,2 C 6.48,2 2,6.48 2,12 2,17.52 6.48,22 12,22 h 5 V 20 H 12 C 7.66,20 4,16.34 4,12 4,7.66 7.66,4 12,4 c 4.34,0 8,3.66 8,8 v 1.43 C 20,14.22 19.29,15 18.5,15 17.71,15 17,14.22 17,13.43 V 12 C 17,9.24 14.76,7 12,7 9.24,7 7,9.24 7,12 c 0,2.76 2.24,5 5,5 1.38,0 2.64,-0.56 3.54,-1.47 0.65,0.89 1.77,1.47 2.96,1.47 1.97,0 3.5,-1.6 3.5,-3.57 V 12 C 22,6.48 17.52,2 12,2 Z m 0,13 c -1.66,0 -3,-1.34 -3,-3 0,-1.66 1.34,-3 3,-3 1.66,0 3,1.34 3,3 0,1.66 -1.34,3 -3,3 z"
       id="path27851"
       transform="matrix(0.264583,0,0,0.264583,82.1532,455.927)" />
  </g>
</svg>
