<?xml version="1.0" encoding="UTF-8" standalone="no"?>
<!-- Created with Inkscape (http://www.inkscape.org/) -->

<svg
   id="svg1100"
   version="1.1"
   viewBox="0 0 4.4979568 4.2333278"
   height="4.2333279mm"
   width="4.4979568mm"
   xmlns="http://www.w3.org/2000/svg"
   xmlns:svg="http://www.w3.org/2000/svg">
  <defs
     id="defs1097" />
  <g
     id="New_Layer_1652808914.2098007"
     style="display:inline"
     transform="translate(-161.63433,-466.77433)">
    <path
       fill="#323232"
       d="m 14,4 h -4 v 4 h 4 z M 8,16 H 4 v 4 H 8 Z M 8,10 H 4 v 4 H 8 Z M 8,4 H 4 v 4 h 4 z m 6,8.42 V 10 h -4 v 4 h 2.42 z m 6.88,-1.13 -1.17,-1.17 a 0.41,0.41 0 0 0 -0.58,0 L 18.25,11 20,12.75 20.88,11.87 a 0.41,0.41 0 0 0 0,-0.58 z M 11,18.25 V 20 h 1.75 l 6.67,-6.67 -1.75,-1.75 z M 20,4 h -4 v 4 h 4 z"
       id="path27862"
       transform="matrix(0.264583,0,0,0.264583,160.576,465.716)" />
  </g>
</svg>
