<?xml version="1.0" encoding="UTF-8" standalone="no"?>
<!-- Created with Inkscape (http://www.inkscape.org/) -->

<svg
   id="svg1100"
   version="1.1"
   viewBox="0 0 5.8208261 4.7624941"
   height="4.7624941mm"
   width="5.8208261mm"
   xmlns="http://www.w3.org/2000/svg"
   xmlns:svg="http://www.w3.org/2000/svg">
  <defs
     id="defs1097" />
  <g
     id="New_Layer_1652806942.9353049"
     style="display:inline"
     transform="translate(-41.539583,-26.737449)">
    <path
       fill="#323232"
       d="M 21,3 H 3 C 1.9,3 1,3.9 1,5 v 14 c 0,1.1 0.9,2 2,2 h 18 c 1.1,0 2,-0.9 2,-2 V 5 C 23,3.9 22.1,3 21,3 Z m 0,16.01 H 3 V 4.99 H 21 Z M 8,16 h 2.5 L 12,17.5 13.5,16 H 16 V 13.5 L 17.5,12 16,10.5 V 8 H 13.5 L 12,6.5 10.5,8 H 8 v 2.5 L 6.5,12 8,13.5 Z m 4,-7 c 1.66,0 3,1.34 3,3 0,1.66 -1.34,3 -3,3 z"
       id="path3910"
       transform="matrix(0.264583,0,0,0.264583,41.275,25.9437)" />
  </g>
</svg>
