<?xml version="1.0" encoding="UTF-8" standalone="no"?>
<!-- Created with Inkscape (http://www.inkscape.org/) -->

<svg
   id="svg1100"
   version="1.1"
   viewBox="0 0 5.2916598 5.2916598"
   height="5.2916598mm"
   width="5.2916598mm"
   xmlns="http://www.w3.org/2000/svg"
   xmlns:svg="http://www.w3.org/2000/svg">
  <defs
     id="defs1097" />
  <g
     id="New_Layer_1652806924.7829602"
     style="display:inline"
     transform="translate(-10.847966,-16.154066)">
    <path
       fill="#323232"
       d="M 12,2 C 6.48,2 2,6.48 2,12 2,17.52 6.48,22 12,22 17.52,22 22,17.52 22,12 22,6.48 17.52,2 12,2 Z m 0,16.5 c -0.83,0 -1.5,-0.67 -1.5,-1.5 h 3 c 0,0.83 -0.67,1.5 -1.5,1.5 z M 17,16 H 7 V 15 L 8,14 V 11.39 C 8,9.27 9.03,7.47 11,7 V 6.5 c 0,-0.57 0.43,-1 1,-1 0.57,0 1,0.43 1,1 V 7 c 1.97,0.47 3,2.28 3,4.39 V 14 l 1,1 z"
       id="path1871"
       transform="matrix(0.264583,0,0,0.264583,10.3188,15.6249)" />
  </g>
</svg>
