<?xml version="1.0" encoding="UTF-8" standalone="no"?>
<!-- Created with Inkscape (http://www.inkscape.org/) -->

<svg
   id="svg1100"
   version="1.1"
   viewBox="0 0 4.7624941 4.7624941"
   height="4.7624941mm"
   width="4.7624941mm"
   xmlns="http://www.w3.org/2000/svg"
   xmlns:svg="http://www.w3.org/2000/svg">
  <defs
     id="defs1097" />
  <g
     id="New_Layer_1652808914.2109005"
     style="display:inline"
     transform="translate(-102.73775,-466.50975)">
    <path
       fill="#323232"
       d="m 20.01,15.38 c -1.23,0 -2.42,-0.2 -3.53,-0.56 a 0.977,0.977 0 0 0 -1.01,0.24 L 13.9,17.03 C 11.07,15.68 8.42,13.13 7.01,10.2 L 8.96,8.54 C 9.23,8.26 9.31,7.87 9.2,7.52 8.83,6.41 8.64,5.22 8.64,3.99 8.64,3.45 8.19,3 7.65,3 H 4.19 C 3.65,3 3,3.24 3,3.99 3,13.28 10.73,21 20.01,21 20.72,21 21,20.37 21,19.82 v -3.45 c 0,-0.54 -0.45,-0.99 -0.99,-0.99 z"
       id="path27884"
       transform="matrix(0.264583,0,0,0.264583,101.944,465.716)" />
  </g>
</svg>
