<?xml version="1.0" encoding="UTF-8" standalone="no"?>
<!-- Created with Inkscape (http://www.inkscape.org/) -->

<svg
   id="svg1100"
   version="1.1"
   viewBox="0 0 6.3500195 2.3442054"
   height="2.3442054mm"
   width="6.3500195mm"
   xmlns="http://www.w3.org/2000/svg"
   xmlns:svg="http://www.w3.org/2000/svg">
  <defs
     id="defs1097" />
  <g
     id="New_Layer_1652808914.2114575"
     style="display:inline"
     transform="translate(-1.1542884e-6,-437.79508)">
    <path
       fill="#323232"
       d="M 12,9 C 10.4,9 8.85,9.25 7.4,9.72 v 3.1 c 0,0.39 -0.23,0.74 -0.56,0.9 C 5.86,14.21 4.97,14.84 4.18,15.57 4,15.75 3.75,15.85 3.48,15.85 3.2,15.85 2.95,15.74 2.77,15.56 L 0.29,13.08 A 0.956,0.956 0 0 1 0,12.38 C 0,12.1 0.11,11.85 0.29,11.67 3.34,8.78 7.46,7 12,7 c 4.54,0 8.66,1.78 11.71,4.67 0.18,0.18 0.29,0.43 0.29,0.71 0,0.28 -0.11,0.53 -0.29,0.71 l -2.48,2.48 c -0.18,0.18 -0.43,0.29 -0.71,0.29 -0.27,0 -0.52,-0.11 -0.7,-0.28 a 11.27,11.27 0 0 0 -2.67,-1.85 0.996,0.996 0 0 1 -0.56,-0.9 V 9.73 C 15.15,9.25 13.6,9 12,9 Z"
       id="path27895"
       transform="matrix(0.264583,0,0,0.264583,2.85e-5,435.943)" />
  </g>
</svg>
