<?xml version="1.0" encoding="UTF-8" standalone="no"?>
<!-- Created with Inkscape (http://www.inkscape.org/) -->

<svg
   id="svg1100"
   version="1.1"
   viewBox="0 0 5.8208261 4.7624941"
   height="4.7624941mm"
   width="5.8208261mm"
   xmlns="http://www.w3.org/2000/svg"
   xmlns:svg="http://www.w3.org/2000/svg">
  <defs
     id="defs1097" />
  <g
     id="New_Layer_1652808914.215321"
     style="display:inline"
     transform="translate(-112.02458,-436.58575)">
    <path
       fill="#323232"
       d="M 21,19.1 H 3 V 5 H 21 Z M 21,3 H 3 C 1.9,3 1,3.9 1,5 v 14 c 0,1.1 0.9,2 2,2 h 18 c 1.1,0 2,-0.9 2,-2 V 5 C 23,3.9 22.1,3 21,3 Z"
       id="path27972"
       transform="matrix(0.264583,0,0,0.264583,111.76,435.792)" />
    <path
       fill="#323232"
       d="M 14.59,8 12,10.59 9.41,8 8,9.41 10.59,12 8,14.59 9.41,16 12,13.41 14.59,16 16,14.59 13.41,12 16,9.41 Z"
       id="path27974"
       transform="matrix(0.264583,0,0,0.264583,111.76,435.792)" />
  </g>
</svg>
