<?xml version="1.0" encoding="UTF-8" standalone="no"?>
<!-- Created with Inkscape (http://www.inkscape.org/) -->

<svg
   id="svg1100"
   version="1.1"
   viewBox="0 0 4.7810149 5.0277385"
   height="5.0277386mm"
   width="4.7810149mm"
   xmlns="http://www.w3.org/2000/svg"
   xmlns:svg="http://www.w3.org/2000/svg">
  <defs
     id="defs1097" />
  <g
     id="New_Layer_1652808914.2163522"
     style="display:inline"
     transform="translate(-161.49281,-456.58809)">
    <path
       fill="#323232"
       d="M 18,9.98 6,22 H 22 V 5.97 Z M 20,20 h -2 v -7.22 l 2,-2 z M 5.22,7.22 3.93,5.93 c 3.9,-3.91 10.24,-3.91 14.15,0 L 16.79,7.22 C 13.6,4.03 8.41,4.03 5.22,7.22 Z M 12.93,11.07 11,13 9.07,11.07 a 2.74,2.74 0 0 1 3.86,0 z M 14.22,9.79 C 12.44,8.02 9.56,8.02 7.79,9.79 L 6.5,8.5 a 6.374,6.374 0 0 1 9,0 z"
       id="path27986"
       transform="matrix(0.264583,0,0,0.264583,160.453,455.795)" />
  </g>
</svg>
