<?xml version="1.0" encoding="UTF-8" standalone="no"?>
<!-- Created with Inkscape (http://www.inkscape.org/) -->

<svg
   id="svg1100"
   version="1.1"
   viewBox="0 0 6.3499918 4.7624941"
   height="4.7624941mm"
   width="6.3499918mm"
   xmlns="http://www.w3.org/2000/svg"
   xmlns:svg="http://www.w3.org/2000/svg">
  <defs
     id="defs1097" />
  <g
     id="New_Layer_1652808914.219685"
     style="display:inline"
     transform="translate(-51.5938,-436.58575)">
    <path
       fill="#323232"
       d="M 21,8 V 7 L 18,9 15,7 v 1 l 3,2 z M 22,3 H 2 C 0.9,3 0,3.9 0,5 v 14 c 0,1.1 0.9,2 2,2 h 20 c 1.1,0 1.99,-0.9 1.99,-2 L 24,5 C 24,3.9 23.1,3 22,3 Z M 8,6 c 1.66,0 3,1.34 3,3 0,1.66 -1.34,3 -3,3 C 6.34,12 5,10.66 5,9 5,7.34 6.34,6 8,6 Z m 6,12 H 2 v -1 c 0,-2 4,-3.1 6,-3.1 2,0 6,1.1 6,3.1 z m 8,-6 H 14 V 6 h 8 z"
       id="path28052"
       transform="matrix(0.264583,0,0,0.264583,51.5938,435.792)" />
  </g>
</svg>
