<?xml version="1.0" encoding="UTF-8" standalone="no"?>
<!-- Created with Inkscape (http://www.inkscape.org/) -->

<svg
   id="svg1100"
   version="1.1"
   viewBox="0 0 6.3499918 4.7624941"
   height="4.7624941mm"
   width="6.3499918mm"
   xmlns="http://www.w3.org/2000/svg"
   xmlns:svg="http://www.w3.org/2000/svg">
  <defs
     id="defs1097" />
  <g
     id="New_Layer_1652808914.2202294"
     style="display:inline"
     transform="translate(-41.275,-436.58575)">
    <path
       fill="#323232"
       d="M 22,3 H 2 C 0.9,3 0,3.9 0,5 v 14 c 0,1.1 0.9,2 2,2 h 20 c 1.1,0 1.99,-0.9 1.99,-2 L 24,5 C 24,3.9 23.1,3 22,3 Z M 8,6 c 1.66,0 3,1.34 3,3 0,1.66 -1.34,3 -3,3 C 6.34,12 5,10.66 5,9 5,7.34 6.34,6 8,6 Z m 6,12 H 2 v -1 c 0,-2 4,-3.1 6,-3.1 2,0 6,1.1 6,3.1 z m 3.85,-4 h 1.64 L 21,16 19.01,17.99 A 7.512,7.512 0 0 1 16.28,14 C 16.1,13.36 16,12.69 16,12 c 0,-0.69 0.1,-1.36 0.28,-2 A 7.474,7.474 0 0 1 19.01,6.01 L 21,8 19.49,10 h -1.64 c -0.22,0.63 -0.35,1.3 -0.35,2 0,0.7 0.13,1.37 0.35,2 z"
       id="path28063"
       transform="matrix(0.264583,0,0,0.264583,41.275,435.792)" />
  </g>
</svg>
