<?xml version="1.0" encoding="UTF-8" standalone="no"?>
<!-- Created with Inkscape (http://www.inkscape.org/) -->

<svg
   id="svg1100"
   version="1.1"
   viewBox="0 0 5.2916598 6.3499918"
   height="6.3499918mm"
   width="5.2916598mm"
   xmlns="http://www.w3.org/2000/svg"
   xmlns:svg="http://www.w3.org/2000/svg">
  <defs
     id="defs1097" />
  <g
     id="New_Layer_1652808914.220785"
     style="display:inline"
     transform="translate(-112.28917,-445.873)">
    <path
       fill="#323232"
       d="M 20,0 H 4 V 2 H 20 Z M 4,24 H 20 V 22 H 4 Z M 20,4 H 4 C 2.9,4 2,4.9 2,6 v 12 c 0,1.1 0.9,2 2,2 h 16 c 1.1,0 2,-0.9 2,-2 V 6 C 22,4.9 21.1,4 20,4 Z m -8,2.75 c 1.24,0 2.25,1.01 2.25,2.25 0,1.24 -1.01,2.25 -2.25,2.25 C 10.76,11.25 9.75,10.24 9.75,9 9.75,7.76 10.76,6.75 12,6.75 Z M 17,17 H 7 v -1.5 c 0,-1.67 3.33,-2.5 5,-2.5 1.67,0 5,0.83 5,2.5 z"
       id="path28074"
       transform="matrix(0.264583,0,0,0.264583,111.76,445.873)" />
  </g>
</svg>
