<?xml version="1.0" encoding="UTF-8" standalone="no"?>
<!-- Created with Inkscape (http://www.inkscape.org/) -->

<svg
   id="svg1100"
   version="1.1"
   viewBox="0 0 6.0854092 5.8737425"
   height="5.8737426mm"
   width="6.0854092mm"
   xmlns="http://www.w3.org/2000/svg"
   xmlns:svg="http://www.w3.org/2000/svg">
  <defs
     id="defs1097" />
  <g
     id="New_Layer_1652808914.2213287"
     style="display:inline"
     transform="translate(-72.2313,-436.03025)">
    <path
       fill="#323232"
       d="m 23,16 c 0,1.1 -0.9,2 -2,2 h -1 l -2,-2 h 3 V 4 H 6 L 4,2 h 17 c 1.1,0 2,0.9 2,2 z m -5.5,2 -2,-2 z m -2.6,0 6,6 1.3,-1.3 L 17.5,18 15.5,16 1.2,1.8 0,3.1 1,4.1 V 16 c 0,1.1 0.9,2 2,2 h 7 v 2 H 8 v 2 h 8 V 20 H 14 V 18 Z M 3,16 V 6.1 l 9.9,9.9 z"
       id="path28085"
       transform="matrix(0.264583,0,0,0.264583,72.2313,435.554)" />
  </g>
</svg>
