<?xml version="1.0" encoding="UTF-8" standalone="no"?>
<!-- Created with Inkscape (http://www.inkscape.org/) -->

<svg
   id="svg1100"
   version="1.1"
   viewBox="0 0 5.8737426 5.8737425"
   height="5.8737426mm"
   width="5.8737426mm"
   xmlns="http://www.w3.org/2000/svg"
   xmlns:svg="http://www.w3.org/2000/svg">
  <defs
     id="defs1097" />
  <g
     id="New_Layer_1652808914.2230117"
     style="display:inline"
     transform="translate(-102.18246,-436.03025)">
    <path
       fill="#323232"
       d="m 8,5 h 2 V 7 H 9.1 L 12,9.9 V 9 h 8 v 8.9 l 2,2 V 7 H 12 V 3 H 5.1 L 8,5.9 Z m 8,6 h 2 v 2 H 16 Z M 1.3,1.8 0.1,3.1 2,5 v 16 h 16 l 3,3 1.3,-1.3 z M 6,19 H 4 V 17 H 6 Z M 6,15 H 4 V 13 H 6 Z M 6,11 H 4 V 9 h 2 z m 4,8 H 8 v -2 h 2 z m 0,-4 H 8 v -2 h 2 z m 2,4 v -2 h 2 l 2,2 z"
       id="path28126"
       transform="matrix(0.264583,0,0,0.264583,102.156,435.554)" />
  </g>
</svg>
