<?xml version="1.0" encoding="UTF-8" standalone="no"?>
<!-- Created with Inkscape (http://www.inkscape.org/) -->

<svg
   id="svg1100"
   version="1.1"
   viewBox="0 0 5.8208261 4.497911"
   height="4.497911mm"
   width="5.8208261mm"
   xmlns="http://www.w3.org/2000/svg"
   xmlns:svg="http://www.w3.org/2000/svg">
  <defs
     id="defs1097" />
  <g
     id="New_Layer_1652808914.2279065"
     style="display:inline"
     transform="translate(-151.18258,-436.71762)">
    <path
       fill="#323232"
       d="M 17.5,4.5 C 15.55,4.5 13.45,4.9 12,6 10.55,4.9 8.45,4.5 6.5,4.5 4.55,4.5 2.45,4.9 1,6 V 20.65 C 1,21.3 1.73,21.1 1.75,21.1 3.1,20.45 5.05,20 6.5,20 c 1.95,0 4.05,0.4 5.5,1.5 1.35,-0.85 3.8,-1.5 5.5,-1.5 1.65,0 3.35,0.3 4.75,1.05 C 22.66,21.26 23,20.86 23,20.6 V 6 C 21.51,4.88 19.37,4.5 17.5,4.5 Z m 3.5,14 C 19.9,18.15 18.7,18 17.5,18 15.8,18 13.35,18.65 12,19.5 V 8 c 1.35,-0.85 3.8,-1.5 5.5,-1.5 1.2,0 2.4,0.15 3.5,0.5 z"
       id="path28225"
       transform="matrix(0.264583,0,0,0.264583,150.918,435.527)" />
  </g>
</svg>
