<?xml version="1.0" encoding="UTF-8" standalone="no"?>
<!-- Created with Inkscape (http://www.inkscape.org/) -->

<svg
   id="svg1100"
   version="1.1"
   viewBox="0 0 5.8208261 5.820826"
   height="5.8208261mm"
   width="5.8208261mm"
   xmlns="http://www.w3.org/2000/svg"
   xmlns:svg="http://www.w3.org/2000/svg">
  <defs
     id="defs1097" />
  <g
     id="New_Layer_1652806942.9371417"
     style="display:inline"
     transform="translate(-10.583383,-26.208283)">
    <path
       fill="#323232"
       d="M 8,11.5 C 8,10.67 7.33,10 6.5,10 5.67,10 5,10.67 5,11.5 5,12.33 5.67,13 6.5,13 7.33,13 8,12.33 8,11.5 Z m 7,-5 C 15,5.67 14.33,5 13.5,5 h -3 C 9.67,5 9,5.67 9,6.5 9,7.33 9.67,8 10.5,8 h 3 C 14.33,8 15,7.33 15,6.5 Z M 8.5,15 C 7.67,15 7,15.67 7,16.5 7,17.33 7.67,18 8.5,18 9.33,18 10,17.33 10,16.5 10,15.67 9.33,15 8.5,15 Z M 12,1 C 5.93,1 1,5.93 1,12 1,18.07 5.93,23 12,23 18.07,23 23,18.07 23,12 23,5.93 18.07,1 12,1 Z m 0,20 C 7.04,21 3,16.96 3,12 3,7.04 7.04,3 12,3 c 4.96,0 9,4.04 9,9 0,4.96 -4.04,9 -9,9 z M 17.5,10 C 16.67,10 16,10.67 16,11.5 16,12.33 16.67,13 17.5,13 18.33,13 19,12.33 19,11.5 19,10.67 18.33,10 17.5,10 Z m -2,5 C 14.67,15 14,15.67 14,16.5 14,17.33 14.67,18 15.5,18 16.33,18 17,17.33 17,16.5 17,15.67 16.33,15 15.5,15 Z"
       id="path3987"
       transform="matrix(0.264583,0,0,0.264583,10.3188,25.9437)" />
  </g>
</svg>
