<?xml version="1.0" encoding="UTF-8" standalone="no"?>
<!-- Created with Inkscape (http://www.inkscape.org/) -->

<svg
   id="svg1100"
   version="1.1"
   viewBox="0 0 4.7624941 5.3525142"
   height="5.3525143mm"
   width="4.7624941mm"
   xmlns="http://www.w3.org/2000/svg"
   xmlns:svg="http://www.w3.org/2000/svg">
  <defs
     id="defs1097" />
  <g
     id="New_Layer_1652808914.2290084"
     style="display:inline"
     transform="translate(-132.13275,-466.2146)">
    <path
       fill="#323232"
       d="M 20.65,20.87 18.3,18.52 12,12.23 8.44,8.66 7.02,7.25 4.27,4.5 3,5.77 5.78,8.55 A 8.005,8.005 0 0 0 6.34,19.24 7.98,7.98 0 0 0 12,21.58 c 1.79,0 3.57,-0.59 5.03,-1.78 l 2.7,2.7 L 21,21.23 Z M 12,19.59 c -1.6,0 -3.11,-0.62 -4.24,-1.76 A 5.945,5.945 0 0 1 6,13.59 C 6,12.27 6.43,11.02 7.21,9.99 L 12,14.77 Z M 12,5.1 v 4.58 l 7.25,7.26 c 1.37,-2.96 0.84,-6.57 -1.6,-9.01 L 12,2.27 8.3,5.97 9.71,7.38 Z"
       id="path28247"
       transform="matrix(0.264583,0,0,0.264583,131.339,465.614)" />
  </g>
</svg>
