<?xml version="1.0" encoding="UTF-8" standalone="no"?>
<!-- Created with Inkscape (http://www.inkscape.org/) -->

<svg
   id="svg1100"
   version="1.1"
   viewBox="0 0 4.7624941 4.7624941"
   height="4.7624941mm"
   width="4.7624941mm"
   xmlns="http://www.w3.org/2000/svg"
   xmlns:svg="http://www.w3.org/2000/svg">
  <defs
     id="defs1097" />
  <g
     id="New_Layer_1652808914.229567"
     style="display:inline"
     transform="translate(-72.892749,-466.50975)">
    <path
       fill="#323232"
       d="M 19,5 V 19 H 5 V 5 Z M 20.1,3 H 3.9 C 3.4,3 3,3.4 3,3.9 V 20.1 C 3,20.5 3.4,21 3.9,21 H 20.1 C 20.5,21 21,20.5 21,20.1 V 3.9 C 21,3.4 20.5,3 20.1,3 Z M 11,7 h 6 v 2 h -6 z m 0,4 h 6 v 2 h -6 z m 0,4 h 6 v 2 H 11 Z M 7,7 H 9 V 9 H 7 Z m 0,4 h 2 v 2 H 7 Z m 0,4 h 2 v 2 H 7 Z"
       id="path28258"
       transform="matrix(0.264583,0,0,0.264583,72.099,465.716)" />
  </g>
</svg>
