<?xml version="1.0" encoding="UTF-8" standalone="no"?>
<!-- Created with Inkscape (http://www.inkscape.org/) -->

<svg
   id="svg1100"
   version="1.1"
   viewBox="0 0 4.7624941 5.5562429"
   height="5.5562429mm"
   width="4.7624941mm"
   xmlns="http://www.w3.org/2000/svg"
   xmlns:svg="http://www.w3.org/2000/svg">
  <defs
     id="defs1097" />
  <g
     id="New_Layer_1652808914.2301116"
     style="display:inline"
     transform="translate(-42.068749,-466.11317)">
    <path
       fill="#323232"
       d="M 19,2 H 5 A 2,2 0 0 0 3,4 v 14 a 2,2 0 0 0 2,2 h 4 l 3,3 3,-3 h 4 c 1.1,0 2,-0.9 2,-2 V 4 C 21,2.9 20.1,2 19,2 Z m -6,16 h -2 v -2 h 2 z m 2.07,-7.75 -0.9,0.92 C 13.45,11.9 13,12.5 13,14 h -2 v -0.5 c 0,-1.1 0.45,-2.1 1.17,-2.83 L 13.41,9.41 C 13.78,9.05 14,8.55 14,8 14,6.9 13.1,6 12,6 10.9,6 10,6.9 10,8 H 8 c 0,-2.21 1.79,-4 4,-4 2.21,0 4,1.79 4,4 0,0.88 -0.36,1.68 -0.93,2.25 z"
       id="path28269"
       transform="matrix(0.264583,0,0,0.264583,41.275,465.584)" />
  </g>
</svg>
