<?xml version="1.0" encoding="UTF-8" standalone="no"?>
<!-- Created with Inkscape (http://www.inkscape.org/) -->

<svg
   id="svg1100"
   version="1.1"
   viewBox="0 0 4.7624941 5.2916598"
   height="5.2916598mm"
   width="4.7624941mm"
   xmlns="http://www.w3.org/2000/svg"
   xmlns:svg="http://www.w3.org/2000/svg">
  <defs
     id="defs1097" />
  <g
     id="New_Layer_1652808914.2306767"
     style="display:inline"
     transform="translate(-151.71217,-466.24517)">
    <path
       fill="#323232"
       d="M 12,6.5 A 2.5,2.5 0 0 1 14.5,9 c 0,0.74 -0.33,1.39 -0.83,1.85 l 3.63,3.63 C 18.28,12.62 19,10.68 19,9 19,5.13 15.87,2 12,2 A 7,7 0 0 0 6.96,4.15 l 3.19,3.19 C 10.61,6.82 11.26,6.5 12,6.5 Z M 16.37,16.1 11.74,11.47 11.63,11.36 3.27,3 2,4.27 5.18,7.45 C 5.07,7.95 5,8.47 5,9 c 0,5.25 7,13 7,13 0,0 1.67,-1.85 3.38,-4.35 L 18.73,21 20,19.73 Z"
       id="path28280"
       transform="matrix(0.264583,0,0,0.264583,151.183,465.716)" />
  </g>
</svg>
