<?xml version="1.0" encoding="UTF-8" standalone="no"?>
<!-- Created with Inkscape (http://www.inkscape.org/) -->

<svg
   id="svg1100"
   version="1.1"
   viewBox="0 0 5.556243 5.2916598"
   height="5.2916598mm"
   width="5.5562429mm"
   xmlns="http://www.w3.org/2000/svg"
   xmlns:svg="http://www.w3.org/2000/svg">
  <defs
     id="defs1097" />
  <g
     id="New_Layer_1652808914.2323482"
     style="display:inline"
     transform="translate(-31.353166,-446.40217)">
    <path
       fill="#323232"
       d="m 17.34,20 -3.54,-3.54 1.41,-1.41 2.12,2.12 4.24,-4.24 1.43,1.41 z M 12,17 A 6.995,6.995 0 0 1 22,10.68 V 4 C 22,2.9 21.1,2 20,2 H 4 C 2.9,2 2,2.9 2,4 v 18 l 4,-4 h 6 c 0,-0.17 0.01,-0.33 0.03,-0.5 A 4.07,4.07 0 0 1 12,17 Z"
       id="path28313"
       transform="matrix(0.264583,0,0,0.264583,30.824,445.873)" />
  </g>
</svg>
