<?xml version="1.0" encoding="UTF-8" standalone="no"?>
<!-- Created with Inkscape (http://www.inkscape.org/) -->

<svg
   id="svg1100"
   version="1.1"
   viewBox="0 0 5.2916598 5.820826"
   height="5.8208261mm"
   width="5.2916598mm"
   xmlns="http://www.w3.org/2000/svg"
   xmlns:svg="http://www.w3.org/2000/svg">
  <defs
     id="defs1097" />
  <g
     id="New_Layer_1652808914.2329037"
     style="display:inline"
     transform="translate(-102.47317,-456.191)">
    <path
       fill="#323232"
       d="M 22,6.98 V 16 c 0,1.1 -0.9,2 -2,2 H 6 L 2,22 V 4 C 2,2.9 2.9,2 4,2 H 14.1 A 5.002,5.002 0 0 0 19,8 c 1.13,0 2.16,-0.39 3,-1.02 z M 16,3 c 0,1.66 1.34,3 3,3 1.66,0 3,-1.34 3,-3 0,-1.66 -1.34,-3 -3,-3 -1.66,0 -3,1.34 -3,3 z"
       id="path28324"
       transform="matrix(0.264583,0,0,0.264583,101.944,456.191)" />
  </g>
</svg>
