<?xml version="1.0" encoding="UTF-8" standalone="no"?>
<!-- Created with Inkscape (http://www.inkscape.org/) -->

<svg
   id="svg1100"
   version="1.1"
   viewBox="0 0 5.556243 4.7624941"
   height="4.7624941mm"
   width="5.5562429mm"
   xmlns="http://www.w3.org/2000/svg"
   xmlns:svg="http://www.w3.org/2000/svg">
  <defs
     id="defs1097" />
  <g
     id="New_Layer_1652808914.2334585"
     style="display:inline"
     transform="translate(-21.034366,-446.66633)">
    <path
       fill="#323232"
       d="M 12,19 A 6.995,6.995 0 0 1 22,12.68 V 6 C 22,4.9 21.1,4 20,4 H 4 C 2.9,4 2,4.9 2,6 v 12 c 0,1.1 0.9,2 2,2 h 8.08 C 12.03,19.67 12,19.34 12,19 Z M 4,6 12,11 20,6 V 8 L 12,13 4,8 Z m 13.34,16 -3.54,-3.54 1.41,-1.41 2.12,2.12 4.24,-4.24 1.43,1.41 z"
       id="path28335"
       transform="matrix(0.264583,0,0,0.264583,20.5052,445.608)" />
  </g>
</svg>
