<?xml version="1.0" encoding="UTF-8" standalone="no"?>
<!-- Created with Inkscape (http://www.inkscape.org/) -->

<svg
   id="svg1100"
   version="1.1"
   viewBox="0 0 5.2916598 4.7624941"
   height="4.7624941mm"
   width="5.2916598mm"
   xmlns="http://www.w3.org/2000/svg"
   xmlns:svg="http://www.w3.org/2000/svg">
  <defs
     id="defs1097" />
  <g
     id="New_Layer_1652808914.2340016"
     style="display:inline"
     transform="translate(-92.630666,-446.66617)">
    <path
       fill="#323232"
       d="M 22,8.98 V 18 c 0,1.1 -0.9,2 -2,2 H 4 C 2.9,20 2,19.1 2,18 V 6 C 2,4.9 2.9,4 4,4 H 14.1 C 14.04,4.32 14,4.66 14,5 c 0,1.48 0.65,2.79 1.67,3.71 L 12,11 4,6 v 2 l 8,5 5.3,-3.32 C 17.84,9.88 18.4,10 19,10 20.13,10 21.16,9.61 22,8.98 Z M 16,5 c 0,1.66 1.34,3 3,3 1.66,0 3,-1.34 3,-3 0,-1.66 -1.34,-3 -3,-3 -1.66,0 -3,1.34 -3,3 z"
       id="path28346"
       transform="matrix(0.264583,0,0,0.264583,92.1015,446.137)" />
  </g>
</svg>
