<?xml version="1.0" encoding="UTF-8" standalone="no"?>
<!-- Created with Inkscape (http://www.inkscape.org/) -->

<svg
   id="svg1100"
   version="1.1"
   viewBox="0 0 3.7015162 5.820826"
   height="5.8208261mm"
   width="3.7015162mm"
   xmlns="http://www.w3.org/2000/svg"
   xmlns:svg="http://www.w3.org/2000/svg">
  <defs
     id="defs1097" />
  <g
     id="New_Layer_1652808914.2350996"
     style="display:inline"
     transform="translate(-93.425761,-475.77058)">
    <path
       fill="#323232"
       d="M 17,1.01 7,1 C 5.9,1 5.01,1.9 5.01,3 v 18 c 0,1.1 0.89,2 1.99,2 h 10 c 1.1,0 2,-0.9 2,-2 V 3 C 19,1.9 18.1,1.01 17,1.01 Z M 17,19 H 7 V 5 h 10 z m -4.2,-5.78 v 1.75 L 16,11.98 12.8,9 v 1.7 c -3.11,0.43 -4.35,2.56 -4.8,4.7 1.11,-1.5 2.58,-2.18 4.8,-2.18 z"
       id="path28368"
       transform="matrix(0.264583,0,0,0.264583,92.1002,475.506)" />
  </g>
</svg>
