<?xml version="1.0" encoding="UTF-8" standalone="no"?>
<!-- Created with Inkscape (http://www.inkscape.org/) -->

<svg
   id="svg1100"
   version="1.1"
   viewBox="0 0 5.556243 5.2916803"
   height="5.2916803mm"
   width="5.5562429mm"
   xmlns="http://www.w3.org/2000/svg"
   xmlns:svg="http://www.w3.org/2000/svg">
  <defs
     id="defs1097" />
  <g
     id="New_Layer_1652808914.2356558"
     style="display:inline"
     transform="translate(-41.671866,-446.40217)">
    <path
       fill="#323232"
       d="m 10,8 v 6 l 4.7,2.9 0.8,-1.2 -4,-2.4 V 8 Z"
       id="path28379"
       transform="matrix(0.264583,0,0,0.264583,41.1427,445.873)" />
    <path
       fill="#323232"
       d="M 17.92,12 A 6.957,6.957 0 0 1 11,20 C 7.1,20 4,16.9 4,13 4,9.1 7.1,6 11,6 c 0.7,0 1.37,0.1 2,0.29 V 4.23 C 12.36,4.08 11.69,4 11,4 6,4 2,8 2,13 c 0,5 4,9 9,9 a 8.963,8.963 0 0 0 8.94,-10 z"
       id="path28381"
       transform="matrix(0.264583,0,0,0.264583,41.1427,445.873)" />
    <path
       fill="#323232"
       d="M 20,5 V 2 h -2 v 3 h -3 v 2 h 3 v 3 h 2 V 7 h 3 V 5 Z"
       id="path28383"
       transform="matrix(0.264583,0,0,0.264583,41.1427,445.873)" />
  </g>
</svg>
