<?xml version="1.0" encoding="UTF-8" standalone="no"?>
<!-- Created with Inkscape (http://www.inkscape.org/) -->

<svg
   id="svg1100"
   version="1.1"
   viewBox="0 0 5.8208261 5.2916598"
   height="5.2916598mm"
   width="5.8208261mm"
   xmlns="http://www.w3.org/2000/svg"
   xmlns:svg="http://www.w3.org/2000/svg">
  <defs
     id="defs1097" />
  <g
     id="New_Layer_1652808914.2371333"
     style="display:inline"
     transform="translate(-10.583383,-446.40217)">
    <path
       fill="#323232"
       d="M 6.82,13 H 11 V 11 H 6.82 C 6.4,9.84 5.3,9 4,9 2.34,9 1,10.34 1,12 c 0,1.66 1.34,3 3,3 1.3,0 2.4,-0.84 2.82,-2 z M 4,13 c -0.55,0 -1,-0.45 -1,-1 0,-0.55 0.45,-1 1,-1 0.55,0 1,0.45 1,1 0,0.55 -0.45,1 -1,1 z"
       id="path28396"
       transform="matrix(0.264583,0,0,0.264583,10.3188,445.873)" />
    <path
       fill="#323232"
       d="M 23,12 19,9 v 2 H 14.95 C 14.45,5.95 10.19,2 5,2 v 2 c 4.42,0 8,3.58 8,8 0,4.42 -3.58,8 -8,8 v 2 c 5.19,0 9.45,-3.95 9.95,-9 H 19 v 2 z"
       id="path28398"
       transform="matrix(0.264583,0,0,0.264583,10.3188,445.873)" />
  </g>
</svg>
