<?xml version="1.0" encoding="UTF-8" standalone="no"?>
<!-- Created with Inkscape (http://www.inkscape.org/) -->

<svg
   id="svg1100"
   version="1.1"
   viewBox="0 0 6.0854092 5.8737425"
   height="5.8737426mm"
   width="6.0854092mm"
   xmlns="http://www.w3.org/2000/svg"
   xmlns:svg="http://www.w3.org/2000/svg">
  <defs
     id="defs1097" />
  <g
     id="New_Layer_1652808914.2397392"
     style="display:inline"
     transform="translate(-82.2854,-436.03025)">
    <path
       fill="#323232"
       d="m 15,12 a 4,4 0 1 0 0,-8 4,4 0 0 0 0,8 z m 8,8 v -2 c 0,-2.3 -4.1,-3.7 -6.9,-3.9 l 6,5.9 z M 11.4,14.5 C 9.2,15.1 7,16.3 7,18 v 2 h 9.9 l 4,4 1.3,-1.3 L 1.2,1.8 0,3.1 4,7.1 V 10 H 1 v 2 h 3 v 3 H 6 V 12 H 8.9 Z M 6,10 V 9.1 L 6.9,10 Z"
       id="path28435"
       transform="matrix(0.264583,0,0,0.264583,82.2854,435.554)" />
  </g>
</svg>
