<?xml version="1.0" encoding="UTF-8" standalone="no"?>
<!-- Created with Inkscape (http://www.inkscape.org/) -->

<svg
   id="svg1100"
   version="1.1"
   viewBox="0 0 5.2916598 4.7624941"
   height="4.7624941mm"
   width="5.2916598mm"
   xmlns="http://www.w3.org/2000/svg"
   xmlns:svg="http://www.w3.org/2000/svg">
  <defs
     id="defs1097" />
  <g
     id="New_Layer_1652808914.2402778"
     style="display:inline"
     transform="translate(-102.47317,-446.66633)">
    <path
       fill="#323232"
       d="m 10,12 a 4,4 0 1 0 0,-8 4,4 0 0 0 0,8 z m 0.35,2.01 C 7.62,13.91 2,15.27 2,18 v 2 h 9.54 C 9.07,17.24 10.31,14.11 10.35,14.01 Z m 9.08,4.01 C 19.79,17.43 20,16.74 20,16 c 0,-2.21 -1.79,-4 -4,-4 -2.21,0 -4,1.79 -4,4 0,2.21 1.79,4 4,4 0.74,0 1.43,-0.22 2.02,-0.57 L 20.59,22 22,20.59 Z M 16,18 c -1.1,0 -2,-0.9 -2,-2 0,-1.1 0.9,-2 2,-2 1.1,0 2,0.9 2,2 0,1.1 -0.9,2 -2,2 z"
       id="path28454"
       transform="matrix(0.264583,0,0,0.264583,101.944,445.608)" />
  </g>
</svg>
