<?xml version="1.0" encoding="UTF-8" standalone="no"?>
<!-- Created with Inkscape (http://www.inkscape.org/) -->

<svg
   id="svg1100"
   version="1.1"
   viewBox="0 0 4.7624941 4.7624941"
   height="4.7624941mm"
   width="4.7624941mm"
   xmlns="http://www.w3.org/2000/svg"
   xmlns:svg="http://www.w3.org/2000/svg">
  <defs
     id="defs1097" />
  <g
     id="New_Layer_1652808914.2408261"
     style="display:inline"
     transform="translate(-92.895249,-466.50975)">
    <path
       fill="#323232"
       d="m 6.62,10.79 c 1.44,2.83 3.76,5.14 6.59,6.59 l 2.2,-2.2 c 0.27,-0.27 0.67,-0.36 1.02,-0.24 1.12,0.37 2.33,0.57 3.57,0.57 0.55,0 1,0.45 1,1 V 20 c 0,0.55 -0.45,1 -1,1 C 10.61,21 3,13.39 3,4 3,3.45 3.45,3 4,3 h 3.5 c 0.55,0 1,0.45 1,1 0,1.25 0.2,2.45 0.57,3.57 0.11,0.35 0.03,0.74 -0.25,1.02 z"
       id="path28465"
       transform="matrix(0.264583,0,0,0.264583,92.1015,465.716)" />
  </g>
</svg>
