<?xml version="1.0" encoding="UTF-8" standalone="no"?>
<!-- Created with Inkscape (http://www.inkscape.org/) -->

<svg
   id="svg1100"
   version="1.1"
   viewBox="0 0 5.2916598 5.2916598"
   height="5.2916598mm"
   width="5.2916598mm"
   xmlns="http://www.w3.org/2000/svg"
   xmlns:svg="http://www.w3.org/2000/svg">
  <defs
     id="defs1097" />
  <g
     id="New_Layer_1652806942.9383576"
     style="display:inline"
     transform="translate(-124.35452,-47.110366)">
    <path
       fill="#323232"
       d="m 11.99,2 c -5.52,0 -10,4.48 -10,10 0,5.52 4.48,10 10,10 5.52,0 10,-4.48 10,-10 0,-5.52 -4.48,-10 -10,-10 z m 3.61,6.34 c 1.07,0 1.93,0.86 1.93,1.93 0,1.07 -0.86,1.93 -1.93,1.93 -1.07,0 -1.93,-0.86 -1.93,-1.93 C 13.66,9.2 14.53,8.34 15.6,8.34 Z m -6,-1.58 c 1.3,0 2.36,1.06 2.36,2.36 0,1.3 -1.06,2.36 -2.36,2.36 -1.3,0 -2.36,-1.06 -2.36,-2.36 0,-1.31 1.05,-2.36 2.36,-2.36 z m 0,9.13 v 3.75 C 7.2,18.89 5.3,17.04 4.46,14.68 5.51,13.56 8.13,12.99 9.6,12.99 c 0.53,0 1.2,0.08 1.9,0.22 -1.64,0.87 -1.9,2.02 -1.9,2.68 z M 11.99,20 c -0.27,0 -0.53,-0.01 -0.79,-0.04 v -4.07 c 0,-1.42 2.94,-2.13 4.4,-2.13 1.07,0 2.92,0.39 3.84,1.15 C 18.27,17.88 15.38,20 11.99,20 Z"
       id="path4229"
       transform="matrix(0.264583,0,0,0.264583,123.828,46.5812)" />
  </g>
</svg>
