<?xml version="1.0" encoding="UTF-8" standalone="no"?>
<!-- Created with Inkscape (http://www.inkscape.org/) -->

<svg
   id="svg1100"
   version="1.1"
   viewBox="0 0 5.2387433 5.2387433"
   height="5.2387433mm"
   width="5.2387433mm"
   xmlns="http://www.w3.org/2000/svg"
   xmlns:svg="http://www.w3.org/2000/svg">
  <defs
     id="defs1097" />
  <g
     id="New_Layer_1652808914.241374"
     style="display:inline"
     transform="translate(-122.10477,-456.48248)">
    <path
       fill="#323232"
       d="m 17.34,14.54 -1.43,-1.43 c 0.56,-0.73 1.05,-1.5 1.47,-2.32 l -2.2,-2.2 C 14.9,8.31 14.82,7.92 14.93,7.57 15.3,6.45 15.5,5.25 15.5,4 c 0,-0.55 0.45,-1 1,-1 H 20 c 0.55,0 1,0.45 1,1 0,3.98 -1.37,7.64 -3.66,10.54 z m -2.82,2.81 A 16.884,16.884 0 0 1 4,21 C 3.45,21 3,20.55 3,20 v -3.49 c 0,-0.55 0.45,-1 1,-1 1.24,0 2.45,-0.2 3.57,-0.57 0.35,-0.12 0.75,-0.03 1.02,0.24 l 2.2,2.2 c 0.81,-0.42 1.58,-0.9 2.3,-1.46 L 1.39,4.22 2.81,2.81 21.19,21.2 19.78,22.61 Z"
       id="path28476"
       transform="matrix(0.264583,0,0,0.264583,121.737,455.739)" />
  </g>
</svg>
