<?xml version="1.0" encoding="UTF-8" standalone="no"?>
<!-- Created with Inkscape (http://www.inkscape.org/) -->

<svg
   id="svg1100"
   version="1.1"
   viewBox="0 0 4.7624941 4.7624941"
   height="4.7624941mm"
   width="4.7624941mm"
   xmlns="http://www.w3.org/2000/svg"
   xmlns:svg="http://www.w3.org/2000/svg">
  <defs
     id="defs1097" />
  <g
     id="New_Layer_1652808914.2419224"
     style="display:inline"
     transform="translate(-122.34375,-466.50975)">
    <path
       fill="#323232"
       d="m 17.38,10.79 -2.2,-2.2 C 14.9,8.31 14.82,7.92 14.93,7.57 15.3,6.45 15.5,5.25 15.5,4 c 0,-0.55 0.45,-1 1,-1 H 20 c 0.55,0 1,0.45 1,1 0,9.39 -7.61,17 -17,17 -0.55,0 -1,-0.45 -1,-1 v -3.49 c 0,-0.55 0.45,-1 1,-1 1.24,0 2.45,-0.2 3.57,-0.57 0.35,-0.12 0.75,-0.03 1.02,0.24 l 2.2,2.2 c 2.83,-1.45 5.15,-3.76 6.59,-6.59 z"
       id="path28487"
       transform="matrix(0.264583,0,0,0.264583,121.55,465.716)" />
  </g>
</svg>
