<?xml version="1.0" encoding="UTF-8" standalone="no"?>
<!-- Created with Inkscape (http://www.inkscape.org/) -->

<svg
   id="svg1100"
   version="1.1"
   viewBox="0 0 4.497911 5.820826"
   height="5.8208261mm"
   width="4.497911mm"
   xmlns="http://www.w3.org/2000/svg"
   xmlns:svg="http://www.w3.org/2000/svg">
  <defs
     id="defs1097" />
  <g
     id="New_Layer_1652808914.2430077"
     style="display:inline"
     transform="translate(-0.926055,-475.77058)">
    <path
       fill="#323232"
       d="M 19,1 H 9 C 7.9,1 7,1.9 7,3 V 6 H 9 V 4 H 19 V 20 H 9 V 18 H 7 v 3 c 0,1.1 0.9,2 2,2 h 10 c 1.1,0 2,-0.9 2,-2 V 3 C 21,1.9 20.1,1 19,1 Z M 10.8,11 V 9.5 C 10.8,8.1 9.4,7 8,7 6.6,7 5.2,8.1 5.2,9.5 V 11 C 4.6,11 4,11.6 4,12.2 v 3.5 C 4,16.4 4.6,17 5.2,17 h 5.5 C 11.4,17 12,16.4 12,15.8 V 12.3 C 12,11.6 11.4,11 10.8,11 Z m -1.3,0 h -3 V 9.5 C 6.5,8.7 7.2,8.2 8,8.2 c 0.8,0 1.5,0.5 1.5,1.3 z"
       id="path28509"
       transform="matrix(0.264583,0,0,0.264583,-0.132277,475.506)" />
  </g>
</svg>
