<?xml version="1.0" encoding="UTF-8" standalone="no"?>
<!-- Created with Inkscape (http://www.inkscape.org/) -->

<svg
   id="svg1100"
   version="1.1"
   viewBox="0 0 5.2850456 5.820826"
   height="5.8208261mm"
   width="5.2850456mm"
   xmlns="http://www.w3.org/2000/svg"
   xmlns:svg="http://www.w3.org/2000/svg">
  <defs
     id="defs1097" />
  <g
     id="New_Layer_1652808914.2435565"
     style="display:inline"
     transform="translate(-112.29217,-456.19158)">
    <path
       fill="#323232"
       d="m 20.1,7.7 -1,1 c 1.8,1.8 1.8,4.6 0,6.5 l 1,1 c 2.5,-2.3 2.5,-6.1 0,-8.5 z m -2.1,2.1 -1,1 c 0.5,0.7 0.5,1.6 0,2.3 l 1,1 c 1.2,-1.2 1.2,-3 0,-4.3 z M 14,1 H 4 C 2.9,1 2,1.9 2,3 v 18 c 0,1.1 0.9,2 2,2 h 10 c 1.1,0 2,-0.9 2,-2 V 3 C 16,1.9 15.1,1 14,1 Z m 0,19 H 4 V 4 h 10 z"
       id="path28520"
       transform="matrix(0.264583,0,0,0.264583,111.763,455.927)" />
  </g>
</svg>
