<?xml version="1.0" encoding="UTF-8" standalone="no"?>
<!-- Created with Inkscape (http://www.inkscape.org/) -->

<svg
   id="svg1100"
   version="1.1"
   viewBox="0 0 4.762702 5.820826"
   height="5.8208261mm"
   width="4.762702mm"
   xmlns="http://www.w3.org/2000/svg"
   xmlns:svg="http://www.w3.org/2000/svg">
  <defs
     id="defs1097" />
  <g
     id="New_Layer_1652808914.2441375"
     style="display:inline"
     transform="translate(-0.79366024,-465.98058)">
    <path
       fill="#323232"
       d="m 10.82,12.49 c 0.02,-0.16 0.04,-0.32 0.04,-0.49 0,-0.17 -0.02,-0.33 -0.04,-0.49 l 1.08,-0.82 c 0.1,-0.07 0.12,-0.21 0.06,-0.32 L 10.93,8.64 C 10.87,8.53 10.73,8.49 10.62,8.53 L 9.34,9.03 C 9.07,8.83 8.78,8.67 8.47,8.54 L 8.27,7.21 C 8.27,7.09 8.16,7 8.03,7 H 5.98 A 0.26,0.26 0 0 0 5.72,7.21 L 5.52,8.53 C 5.21,8.65 4.92,8.83 4.65,9.02 L 3.37,8.52 C 3.25,8.47 3.12,8.52 3.06,8.63 L 2.03,10.36 C 1.97,10.48 2,10.61 2.1,10.69 l 1.08,0.82 C 3.16,11.67 3.15,11.84 3.15,12 c 0,0.17 0.02,0.33 0.04,0.49 L 2.1,13.32 C 2,13.39 1.98,13.53 2.04,13.64 l 1.03,1.73 c 0.06,0.11 0.2,0.15 0.31,0.11 l 1.28,-0.5 c 0.27,0.2 0.56,0.36 0.87,0.49 l 0.2,1.32 C 5.74,16.91 5.85,17 5.98,17 h 2.06 c 0.13,0 0.24,-0.09 0.25,-0.21 l 0.2,-1.32 c 0.31,-0.12 0.6,-0.3 0.87,-0.49 l 1.28,0.5 c 0.12,0.05 0.25,0 0.31,-0.11 l 1.03,-1.73 c 0.06,-0.11 0.04,-0.24 -0.06,-0.32 z M 7,13.75 C 6.01,13.75 5.2,12.97 5.2,12 5.2,11.03 6.01,10.25 7,10.25 7.99,10.25 8.8,11.03 8.8,12 8.8,12.97 8,13.75 7,13.75 Z M 18,1.01 8,1 C 6.9,1 6,1.9 6,3 V 6 H 8 V 5 H 18 V 19 H 8 V 18 H 6 v 3 c 0,1.1 0.9,2 2,2 h 10 c 1.1,0 2,-0.9 2,-2 V 3 C 20,1.9 19.1,1.01 18,1.01 Z"
       id="path28531"
       transform="matrix(0.264583,0,0,0.264583,0.264702,465.716)" />
  </g>
</svg>
