<?xml version="1.0" encoding="UTF-8" standalone="no"?>
<!-- Created with Inkscape (http://www.inkscape.org/) -->

<svg
   id="svg1100"
   version="1.1"
   viewBox="0 0 5.2916627 5.1593685"
   height="5.1593685mm"
   width="5.2916627mm"
   xmlns="http://www.w3.org/2000/svg"
   xmlns:svg="http://www.w3.org/2000/svg">
  <defs
     id="defs1097" />
  <g
     id="New_Layer_1652808914.2446861"
     style="display:inline"
     transform="translate(-62.441666,-446.46817)">
    <path
       fill="#323232"
       d="M 17.56,14.24 C 17.84,13.55 18,12.79 18,12 18,8.69 15.31,6 12,6 11.21,6 10.45,6.16 9.76,6.44 l 1.62,1.62 C 11.58,8.03 11.79,8 12,8 a 3.999,3.999 0 0 1 3.95,4.63 z M 12,4 c 4.42,0 8,3.58 8,8 0,1.35 -0.35,2.62 -0.95,3.74 l 1.47,1.47 A 9.86,9.86 0 0 0 22,12 C 22,6.48 17.52,2 12,2 10.09,2 8.31,2.55 6.79,3.47 L 8.25,4.93 C 9.37,4.34 10.65,4 12,4 Z M 3.27,2.5 2,3.77 4.1,5.87 C 2.79,7.57 2,9.69 2,12 c 0,3.7 2.01,6.92 4.99,8.65 l 1,-1.73 C 5.61,17.53 4,14.96 4,12 4,10.24 4.57,8.62 5.53,7.31 L 6.96,8.75 C 6.36,9.68 6,10.8 6,12 c 0,2.22 1.21,4.15 3,5.19 l 1,-1.74 C 8.81,14.75 8,13.48 8,12 8,11.35 8.17,10.75 8.44,10.21 L 10.02,11.79 10,12 c 0,1.1 0.9,2 2,2 l 0.21,-0.02 0.01,0.01 7.51,7.51 L 21,20.23 4.27,3.5 Z"
       id="path28542"
       transform="matrix(0.264583,0,0,0.264583,61.9125,445.939)" />
  </g>
</svg>
