<?xml version="1.0" encoding="UTF-8" standalone="no"?>
<!-- Created with Inkscape (http://www.inkscape.org/) -->

<svg
   id="svg1100"
   version="1.1"
   viewBox="0 0 5.8737426 5.8737425"
   height="5.8737426mm"
   width="5.8737426mm"
   xmlns="http://www.w3.org/2000/svg"
   xmlns:svg="http://www.w3.org/2000/svg">
  <defs
     id="defs1097" />
  <g
     id="New_Layer_1652808914.2457654"
     style="display:inline"
     transform="translate(-92.3396,-436.03025)">
    <path
       fill="#323232"
       d="M 19.1,17 H 22 V 11 C 22,9.3 20.7,8 19,8 H 10 Z M 19,10 c 0.55,0 1,0.45 1,1 0,0.55 -0.45,1 -1,1 -0.55,0 -1,-0.45 -1,-1 0,-0.55 0.45,-1 1,-1 z M 18,7 V 3 H 6 V 4.1 L 9,7 Z M 1.2,1.8 0,3 4.9,8 C 3.3,8.1 2,9.4 2,11 v 6 h 4 v 4 h 11.9 l 3,3 1.3,-1.3 z M 8,19 v -5 h 2.9 l 5,5 z"
       id="path28564"
       transform="matrix(0.264583,0,0,0.264583,92.3396,435.554)" />
  </g>
</svg>
