<?xml version="1.0" encoding="UTF-8" standalone="no"?>
<!-- Created with Inkscape (http://www.inkscape.org/) -->

<svg
   id="svg1100"
   version="1.1"
   viewBox="0 0 4.7624941 4.7624941"
   height="4.7624941mm"
   width="4.7624941mm"
   xmlns="http://www.w3.org/2000/svg"
   xmlns:svg="http://www.w3.org/2000/svg">
  <defs
     id="defs1097" />
  <g
     id="New_Layer_1652808914.2463078"
     style="display:inline"
     transform="translate(-112.55375,-466.50975)">
    <path
       fill="#323232"
       d="m 3,11 h 8 V 3 H 3 Z M 5,5 H 9 V 9 H 5 Z M 3,21 h 8 V 13 H 3 Z m 2,-6 h 4 v 4 H 5 Z M 13,3 v 8 h 8 V 3 Z m 6,6 H 15 V 5 h 4 z m 2,10 h -2 v 2 h 2 z m -6,-6 h -2 v 2 h 2 z m 2,2 h -2 v 2 h 2 z m -2,2 h -2 v 2 h 2 z m 2,2 h -2 v 2 h 2 z m 2,-2 h -2 v 2 h 2 z m 0,-4 h -2 v 2 h 2 z m 2,2 h -2 v 2 h 2 z"
       id="path28583"
       transform="matrix(0.264583,0,0,0.264583,111.76,465.716)" />
  </g>
</svg>
