<?xml version="1.0" encoding="UTF-8" standalone="no"?>
<!-- Created with Inkscape (http://www.inkscape.org/) -->

<svg
   id="svg1100"
   version="1.1"
   viewBox="0 0 5.2916598 5.2916598"
   height="5.2916598mm"
   width="5.2916598mm"
   xmlns="http://www.w3.org/2000/svg"
   xmlns:svg="http://www.w3.org/2000/svg">
  <defs
     id="defs1097" />
  <g
     id="New_Layer_1652808914.2468557"
     style="display:inline"
     transform="translate(-52.122966,-456.45617)">
    <path
       fill="#323232"
       d="m 9.5,6.5 v 3 h -3 v -3 z M 11,5 H 5 v 6 h 6 z m -1.5,9.5 v 3 h -3 v -3 z M 11,13 H 5 v 6 h 6 z m 6.5,-6.5 v 3 h -3 v -3 z M 19,5 h -6 v 6 h 6 z m -6,8 h 1.5 v 1.5 H 13 Z m 1.5,1.5 H 16 V 16 H 14.5 Z M 16,13 h 1.5 v 1.5 H 16 Z m -3,3 h 1.5 v 1.5 H 13 Z m 1.5,1.5 H 16 V 19 H 14.5 Z M 16,16 h 1.5 v 1.5 H 16 Z m 1.5,-1.5 H 19 V 16 h -1.5 z m 0,3 H 19 V 19 H 17.5 Z M 22,7 H 20 V 4 H 17 V 2 h 5 z m 0,15 v -5 h -2 v 3 h -3 v 2 z M 2,22 H 7 V 20 H 4 V 17 H 2 Z M 2,2 V 7 H 4 V 4 H 7 V 2 Z"
       id="path28594"
       transform="matrix(0.264583,0,0,0.264583,51.5938,455.927)" />
  </g>
</svg>
