<?xml version="1.0" encoding="UTF-8" standalone="no"?>
<!-- Created with Inkscape (http://www.inkscape.org/) -->

<svg
   id="svg1100"
   version="1.1"
   viewBox="0 0 6.3499918 4.9900355"
   height="4.9900355mm"
   width="6.3499918mm"
   xmlns="http://www.w3.org/2000/svg"
   xmlns:svg="http://www.w3.org/2000/svg">
  <defs
     id="defs1097" />
  <g
     id="New_Layer_1652808914.2479377"
     style="display:inline"
     transform="translate(-10.3188,-436.47217)">
    <path
       fill="#323232"
       d="M 23.71,16.67 A 16.971,16.971 0 0 0 12,12 C 7.46,12 3.34,13.78 0.29,16.67 0.11,16.85 0,17.1 0,17.38 c 0,0.28 0.11,0.53 0.29,0.71 l 2.48,2.48 c 0.18,0.18 0.43,0.29 0.71,0.29 0.27,0 0.52,-0.11 0.7,-0.28 0.79,-0.74 1.69,-1.36 2.66,-1.85 0.33,-0.16 0.56,-0.5 0.56,-0.9 v -3.1 C 8.85,14.25 10.4,14 12,14 c 1.6,0 3.15,0.25 4.6,0.72 v 3.1 c 0,0.39 0.23,0.74 0.56,0.9 0.98,0.49 1.87,1.12 2.66,1.85 0.18,0.18 0.43,0.28 0.7,0.28 0.28,0 0.53,-0.11 0.71,-0.29 l 2.48,-2.48 C 23.89,17.9 24,17.65 24,17.37 a 0.99,0.99 0 0 0 -0.29,-0.7 z M 21.16,6.26 19.75,4.85 16.19,8.4 17.6,9.81 c 0,0 3.45,-3.52 3.56,-3.55 z M 13,2 h -2 v 5 h 2 z M 6.4,9.81 7.81,8.4 4.26,4.84 2.84,6.26 C 2.95,6.29 6.4,9.81 6.4,9.81 Z"
       id="path28616"
       transform="matrix(0.264583,0,0,0.264583,10.3188,435.943)" />
  </g>
</svg>
