<?xml version="1.0" encoding="UTF-8" standalone="no"?>
<!-- Created with Inkscape (http://www.inkscape.org/) -->

<svg
   id="svg1100"
   version="1.1"
   viewBox="0 0 4.1010366 5.5535969"
   height="5.553597mm"
   width="4.1010365mm"
   xmlns="http://www.w3.org/2000/svg"
   xmlns:svg="http://www.w3.org/2000/svg">
  <defs
     id="defs1097" />
  <g
     id="New_Layer_1652808914.2520318"
     style="display:inline"
     transform="translate(-42.399478,-475.90358)">
    <path
       fill="#323232"
       d="M 7,7.07 8.43,8.5 A 5.05,5.05 0 0 1 12,7.02 c 1.39,0 2.66,0.57 3.57,1.48 L 17,7.07 A 7.052,7.052 0 0 0 12,5 C 10.05,5 8.28,5.79 7,7.07 Z M 12,1 C 8.98,1 6.24,2.23 4.25,4.21 L 5.66,5.62 A 8.95,8.95 0 0 1 12,3 c 2.47,0 4.72,1 6.34,2.62 L 19.75,4.21 A 10.963,10.963 0 0 0 12,1 Z M 14.86,10.01 9.14,10 C 8.51,10 8,10.51 8,11.14 v 9.71 c 0,0.63 0.51,1.14 1.14,1.14 h 5.71 c 0.63,0 1.14,-0.51 1.14,-1.14 V 11.14 C 16,10.51 15.49,10.01 14.86,10.01 Z M 15,20 H 9 v -8 h 6 z"
       id="path28680"
       transform="matrix(0.264583,0,0,0.264583,41.275,475.639)" />
  </g>
</svg>
