<?xml version="1.0" encoding="UTF-8" standalone="no"?>
<!-- Created with Inkscape (http://www.inkscape.org/) -->

<svg
   id="svg1100"
   version="1.1"
   viewBox="0 0 6.3499918 5.5562429"
   height="5.5562429mm"
   width="6.3499918mm"
   xmlns="http://www.w3.org/2000/svg"
   xmlns:svg="http://www.w3.org/2000/svg">
  <defs
     id="defs1097" />
  <g
     id="New_Layer_1652808914.2547483"
     style="display:inline"
     transform="translate(-61.9125,-436.18873)">
    <path
       fill="#323232"
       d="m 21.22,18.02 2,2 H 24 v -2 z m 0.77,-2 0.01,-10 a 2,2 0 0 0 -2,-2 H 7.22 l 5.23,5.23 C 12.63,9.21 12.81,9.18 13,9.15 V 7.02 l 4,3.73 -1.58,1.47 5.54,5.54 c 0.61,-0.33 1.03,-0.99 1.03,-1.74 z M 2.39,1.73 1.11,3 2.65,4.54 C 2.25,4.9 2,5.43 2,6.02 v 10 a 2,2 0 0 0 2,2 H 0 v 2 h 18.13 l 2.71,2.71 1.27,-1.27 z M 7,15.02 c 0.31,-1.48 0.92,-2.95 2.07,-4.06 l 1.59,1.59 C 9.12,12.93 7.96,13.73 7,15.02 Z"
       id="path28735"
       transform="matrix(0.264583,0,0,0.264583,61.9125,435.731)" />
  </g>
</svg>
