<?xml version="1.0" encoding="UTF-8" standalone="no"?>
<!-- Created with Inkscape (http://www.inkscape.org/) -->

<svg
   id="svg1100"
   version="1.1"
   viewBox="0 0 5.2916598 3.968745"
   height="3.968745mm"
   width="5.2916598mm"
   xmlns="http://www.w3.org/2000/svg"
   xmlns:svg="http://www.w3.org/2000/svg">
  <defs
     id="defs1097" />
  <g
     id="New_Layer_1652808914.255283"
     style="display:inline"
     transform="translate(-82.682366,-447.06333)">
    <path
       fill="#323232"
       d="m 18,4 -4,4 h 3 v 7 c 0,1.1 -0.9,2 -2,2 -1.1,0 -2,-0.9 -2,-2 V 8 C 13,5.79 11.21,4 9,4 6.79,4 5,5.79 5,8 v 7 H 2 l 4,4 4,-4 H 7 V 8 C 7,6.9 7.9,6 9,6 c 1.1,0 2,0.9 2,2 v 7 c 0,2.21 1.79,4 4,4 2.21,0 4,-1.79 4,-4 V 8 h 3 z"
       id="path28746"
       transform="matrix(0.264583,0,0,0.264583,82.1532,446.005)" />
  </g>
</svg>
