<?xml version="1.0" encoding="UTF-8" standalone="no"?>
<!-- Created with Inkscape (http://www.inkscape.org/) -->

<svg
   id="svg1100"
   version="1.1"
   viewBox="0 0 5.0270772 4.497911"
   height="4.497911mm"
   width="5.0270772mm"
   xmlns="http://www.w3.org/2000/svg"
   xmlns:svg="http://www.w3.org/2000/svg">
  <defs
     id="defs1097" />
  <g
     id="New_Layer_1652808914.2563684"
     style="display:inline"
     transform="translate(-141.78975,-456.85275)">
    <path
       fill="#323232"
       d="M 18.5,13 C 16.57,13 15,14.57 15,16.5 15,18.43 16.57,20 18.5,20 20.43,20 22,18.43 22,16.5 22,14.57 20.43,13 18.5,13 Z m 2,4 h -4 v -1 h 4 z m -6.95,0 c -0.02,-0.17 -0.05,-0.33 -0.05,-0.5 0,-2.76 2.24,-5 5,-5 0.92,0 1.76,0.26 2.5,0.69 V 5 C 21,3.9 20.1,3 19,3 H 5 C 3.9,3 3,3.9 3,5 v 10 c 0,1.1 0.9,2 2,2 z M 12,10.5 5,7 V 5 L 12,8.5 19,5 v 2 z"
       id="path28768"
       transform="matrix(0.264583,0,0,0.264583,140.996,456.059)" />
  </g>
</svg>
