<?xml version="1.0" encoding="UTF-8" standalone="no"?>
<!-- Created with Inkscape (http://www.inkscape.org/) -->

<svg
   id="svg1100"
   version="1.1"
   viewBox="0 0 6.3499918 2.910413"
   height="2.910413mm"
   width="6.3499918mm"
   xmlns="http://www.w3.org/2000/svg"
   xmlns:svg="http://www.w3.org/2000/svg">
  <defs
     id="defs1097" />
  <g
     id="New_Layer_1652808914.2569134"
     style="display:inline"
     transform="translate(-20.6375,-437.5115)">
    <path
       fill="#323232"
       d="M 18.5,6 C 15.46,6 13,8.46 13,11.5 c 0,1.33 0.47,2.55 1.26,3.5 H 9.74 C 10.53,14.05 11,12.83 11,11.5 11,8.46 8.54,6 5.5,6 2.46,6 0,8.46 0,11.5 0,14.54 2.46,17 5.5,17 h 13 C 21.54,17 24,14.54 24,11.5 24,8.46 21.54,6 18.5,6 Z m -13,9 C 3.57,15 2,13.43 2,11.5 2,9.57 3.57,8 5.5,8 7.43,8 9,9.57 9,11.5 9,13.43 7.43,15 5.5,15 Z m 13,0 C 16.57,15 15,13.43 15,11.5 15,9.57 16.57,8 18.5,8 20.43,8 22,9.57 22,11.5 22,13.43 20.43,15 18.5,15 Z"
       id="path28779"
       transform="matrix(0.264583,0,0,0.264583,20.6375,435.924)" />
  </g>
</svg>
