<?xml version="1.0" encoding="UTF-8" standalone="no"?>
<!-- Created with Inkscape (http://www.inkscape.org/) -->

<svg
   id="svg1100"
   version="1.1"
   viewBox="0 0 5.8208261 3.1749959"
   height="3.1749959mm"
   width="5.8208261mm"
   xmlns="http://www.w3.org/2000/svg"
   xmlns:svg="http://www.w3.org/2000/svg">
  <defs
     id="defs1097" />
  <g
     id="New_Layer_1652808914.2574584"
     style="display:inline"
     transform="translate(-121.81458,-437.3795)">
    <path
       fill="#323232"
       d="M 12.65,10 A 5.99,5.99 0 0 0 7,6 c -3.31,0 -6,2.69 -6,6 0,3.31 2.69,6 6,6 a 5.99,5.99 0 0 0 5.65,-4 H 17 v 4 h 4 v -4 h 2 V 10 Z M 7,14 c -1.1,0 -2,-0.9 -2,-2 0,-1.1 0.9,-2 2,-2 1.1,0 2,0.9 2,2 0,1.1 -0.9,2 -2,2 z"
       id="path28790"
       transform="matrix(0.264583,0,0,0.264583,121.55,435.792)" />
  </g>
</svg>
