<?xml version="1.0" encoding="UTF-8" standalone="no"?>
<!-- Created with Inkscape (http://www.inkscape.org/) -->

<svg
   id="svg1100"
   version="1.1"
   viewBox="0 0 5.0270772 4.7624941"
   height="4.7624941mm"
   width="5.0270772mm"
   xmlns="http://www.w3.org/2000/svg"
   xmlns:svg="http://www.w3.org/2000/svg">
  <defs
     id="defs1097" />
  <g
     id="New_Layer_1652808914.257993"
     style="display:inline"
     transform="translate(-132.00075,-456.72075)">
    <path
       fill="#323232"
       d="M 22,4.95 C 21.79,4.78 19.67,3 16.5,3 13.32,3 11.21,4.78 11,4.95 L 16.5,12 Z"
       id="path28801"
       transform="matrix(0.264583,0,0,0.264583,131.207,455.927)" />
    <path
       fill="#323232"
       d="m 20,15.51 c -1.24,0 -2.45,-0.2 -3.57,-0.57 a 0.994,0.994 0 0 0 -1.02,0.24 l -2.2,2.2 A 15.149,15.149 0 0 1 6.62,10.79 l 2.2,-2.2 C 9.1,8.31 9.18,7.92 9.07,7.57 A 11.36,11.36 0 0 1 8.5,4 C 8.5,3.45 8.05,3 7.5,3 H 4 C 3.45,3 3,3.45 3,4 c 0,9.39 7.61,17 17,17 0.55,0 1,-0.45 1,-1 v -3.49 c 0,-0.55 -0.45,-1 -1,-1 z"
       id="path28803"
       transform="matrix(0.264583,0,0,0.264583,131.207,455.927)" />
  </g>
</svg>
