<?xml version="1.0" encoding="UTF-8" standalone="no"?>
<!-- Created with Inkscape (http://www.inkscape.org/) -->

<svg
   id="svg1100"
   version="1.1"
   viewBox="0 0 4.2333279 5.2916598"
   height="5.2916598mm"
   width="4.2333279mm"
   xmlns="http://www.w3.org/2000/svg"
   xmlns:svg="http://www.w3.org/2000/svg">
  <defs
     id="defs1097" />
  <g
     id="New_Layer_1652808923.032772"
     style="display:inline"
     transform="translate(-109.27333,-516.73317)">
    <path
       fill="#323232"
       d="m 4,16 v 6 h 16 v -6 c 0,-1.1 -0.9,-2 -2,-2 H 6 c -1.1,0 -2,0.9 -2,2 z m 14,2 H 6 V 16 H 18 Z M 12,2 C 9.24,2 7,4.24 7,7 l 5,7 5,-7 C 17,4.24 14.76,2 12,2 Z m 0,9 -3,-4 c 0,-1.66 1.34,-3 3,-3 1.66,0 3,1.34 3,3 z"
       id="path31191"
       transform="matrix(0.264583,0,0,0.264583,108.215,516.204)" />
  </g>
</svg>
