<?xml version="1.0" encoding="UTF-8" standalone="no"?>
<!-- Created with Inkscape (http://www.inkscape.org/) -->

<svg
   id="svg1100"
   version="1.1"
   viewBox="0 0 5.8208261 4.7624941"
   height="4.7624941mm"
   width="5.8208261mm"
   xmlns="http://www.w3.org/2000/svg"
   xmlns:svg="http://www.w3.org/2000/svg">
  <defs
     id="defs1097" />
  <g
     id="New_Layer_1652806942.9401913"
     style="display:inline"
     transform="translate(-103.45158,-37.056149)">
    <path
       fill="#323232"
       d="M 1,9 H 3 V 7 H 1 Z m 0,4 H 3 V 11 H 1 Z M 1,5 H 3 V 3 C 1.9,3 1,3.9 1,5 Z m 8,16 h 2 V 19 H 9 Z M 1,17 H 3 V 15 H 1 Z m 2,4 V 19 H 1 c 0,1.1 0.9,2 2,2 z M 21,3 H 13 V 9 H 23 V 5 C 23,3.9 22.1,3 21,3 Z m 0,14 h 2 V 15 H 21 Z M 9,5 h 2 V 3 H 9 Z M 5,21 H 7 V 19 H 5 Z M 5,5 H 7 V 3 H 5 Z m 16,16 c 1.1,0 2,-0.9 2,-2 h -2 z m 0,-8 h 2 v -2 h -2 z m -8,8 h 2 v -2 h -2 z m 4,0 h 2 v -2 h -2 z"
       id="path4369"
       transform="matrix(0.264583,0,0,0.264583,103.187,36.2624)" />
  </g>
</svg>
