<?xml version="1.0" encoding="UTF-8" standalone="no"?>
<!-- Created with Inkscape (http://www.inkscape.org/) -->

<svg
   id="svg1100"
   version="1.1"
   viewBox="0 0 5.8208261 5.2926602"
   height="5.2926602mm"
   width="5.8208261mm"
   xmlns="http://www.w3.org/2000/svg"
   xmlns:svg="http://www.w3.org/2000/svg">
  <defs
     id="defs1097" />
  <g
     id="New_Layer_1652808923.0336797"
     style="display:inline"
     transform="translate(-61.912483,-507.47217)">
    <path
       fill="#323232"
       d="M 21,10 V 4 C 21,2.9 20.1,2 19,2 H 3 C 1.9,2 1.01,2.9 1.01,4 L 1,16 c 0,1.1 0.9,2 2,2 h 11 v -5 c 0,-1.66 1.34,-3 3,-3 z M 11,11 3,6 V 4 l 8,5 8,-5 v 2 z"
       id="path31202"
       transform="matrix(0.264583,0,0,0.264583,61.6479,506.943)" />
    <path
       fill="#323232"
       d="m 21,14 v 4 c 0,1.1 -0.9,2 -2,2 -1.1,0 -2,-0.9 -2,-2 v -4.5 c 0,-0.28 0.22,-0.5 0.5,-0.5 0.28,0 0.5,0.22 0.5,0.5 V 18 h 2 v -4.5 a 2.5,2.5 0 0 0 -5,0 V 18 c 0,2.21 1.79,4 4,4 2.21,0 4,-1.79 4,-4 v -4 z"
       id="path31204"
       transform="matrix(0.264583,0,0,0.264583,61.6479,506.944)" />
  </g>
</svg>
