<?xml version="1.0" encoding="UTF-8" standalone="no"?>
<!-- Created with Inkscape (http://www.inkscape.org/) -->

<svg
   id="svg1100"
   version="1.1"
   viewBox="0 0 5.2916598 2.910413"
   height="2.910413mm"
   width="5.2916598mm"
   xmlns="http://www.w3.org/2000/svg"
   xmlns:svg="http://www.w3.org/2000/svg">
  <defs
     id="defs1097" />
  <g
     id="New_Layer_1652808923.0347054"
     style="display:inline"
     transform="translate(-10.847866,-517.92308)">
    <path
       fill="#323232"
       d="M 2,12.5 C 2,9.46 4.46,7 7.5,7 H 18 c 2.21,0 4,1.79 4,4 0,2.21 -1.79,4 -4,4 H 9.5 a 2.5,2.5 0 0 1 0,-5 H 17 v 2 H 9.41 c -0.55,0 -0.55,1 0,1 H 18 c 1.1,0 2,-0.9 2,-2 C 20,9.9 19.1,9 18,9 H 7.5 C 5.57,9 4,10.57 4,12.5 4,14.43 5.57,16 7.5,16 H 17 v 2 H 7.5 C 4.46,18 2,15.54 2,12.5 Z"
       id="path31216"
       transform="matrix(0.264583,0,0,0.264583,10.3187,516.071)" />
  </g>
</svg>
