<?xml version="1.0" encoding="UTF-8" standalone="no"?>
<!-- Created with Inkscape (http://www.inkscape.org/) -->

<svg
   id="svg1100"
   version="1.1"
   viewBox="0 0 5.2916598 5.2916598"
   height="5.2916598mm"
   width="5.2916598mm"
   xmlns="http://www.w3.org/2000/svg"
   xmlns:svg="http://www.w3.org/2000/svg">
  <defs
     id="defs1097" />
  <g
     id="New_Layer_1652808923.0357957"
     style="display:inline"
     transform="translate(-52.122966,-516.73317)">
    <path
       fill="#323232"
       d="M 12,2 C 6.48,2 2,6.48 2,12 2,17.52 6.48,22 12,22 17.52,22 22,17.52 22,12 22,6.48 17.52,2 12,2 Z m 4.5,14 H 8 C 6.34,16 5,14.66 5,13 5,11.34 6.34,10 8,10 l 0.14,0.01 A 3.98,3.98 0 0 1 12,7 c 2.21,0 4,1.79 4,4 h 0.5 a 2.5,2.5 0 0 1 0,5 z"
       id="path31238"
       transform="matrix(0.264583,0,0,0.264583,51.5938,516.204)" />
  </g>
</svg>
