<?xml version="1.0" encoding="UTF-8" standalone="no"?>
<!-- Created with Inkscape (http://www.inkscape.org/) -->

<svg
   id="svg1100"
   version="1.1"
   viewBox="0 0 6.3499918 4.7624941"
   height="4.7624941mm"
   width="6.3499918mm"
   xmlns="http://www.w3.org/2000/svg"
   xmlns:svg="http://www.w3.org/2000/svg">
  <defs
     id="defs1097" />
  <g
     id="New_Layer_1652808923.0375896"
     style="display:inline"
     transform="translate(-51.5938,-507.73733)">
    <path
       fill="#323232"
       d="M 19.35,10.04 A 7.49,7.49 0 0 0 12,4 C 10.52,4 9.15,4.43 7.99,5.17 L 9.45,6.63 A 5.497,5.497 0 0 1 17.5,11.5 V 12 H 19 c 1.66,0 3,1.34 3,3 0,1.13 -0.64,2.11 -1.56,2.62 l 1.45,1.45 C 23.16,18.16 24,16.68 24,15 24,12.36 21.95,10.22 19.35,10.04 Z M 3,5.27 5.75,8.01 C 2.56,8.15 0,10.77 0,14 c 0,3.31 2.69,6 6,6 h 11.73 l 2,2 L 21,20.73 4.27,4 Z m 4.73,4.73 8,8 H 6 C 3.79,18 2,16.21 2,14 2,11.79 3.79,10 6,10 Z"
       id="path31271"
       transform="matrix(0.264583,0,0,0.264583,51.5938,506.679)" />
  </g>
</svg>
