<?xml version="1.0" encoding="UTF-8" standalone="no"?>
<!-- Created with Inkscape (http://www.inkscape.org/) -->

<svg
   id="svg1100"
   version="1.1"
   viewBox="0 0 6.3499918 4.2333278"
   height="4.2333279mm"
   width="6.3499918mm"
   xmlns="http://www.w3.org/2000/svg"
   xmlns:svg="http://www.w3.org/2000/svg">
  <defs
     id="defs1097" />
  <g
     id="New_Layer_1652808923.0381305"
     style="display:inline"
     transform="translate(-1.189298e-6,-508.00133)">
    <path
       fill="#323232"
       d="M 19.35,10.04 A 7.49,7.49 0 0 0 12,4 C 9.11,4 6.6,5.64 5.35,8.04 A 5.994,5.994 0 0 0 0,14 c 0,3.31 2.69,6 6,6 h 13 c 2.76,0 5,-2.24 5,-5 0,-2.64 -2.05,-4.78 -4.65,-4.96 z M 19,18 H 6 C 3.79,18 2,16.21 2,14 2,11.79 3.79,10 6,10 H 6.71 C 7.37,7.69 9.48,6 12,6 c 3.04,0 5.5,2.46 5.5,5.5 V 12 H 19 c 1.66,0 3,1.34 3,3 0,1.66 -1.34,3 -3,3 z"
       id="path31282"
       transform="matrix(0.264583,0,0,0.264583,1.2e-6,506.943)" />
  </g>
</svg>
