<?xml version="1.0" encoding="UTF-8" standalone="no"?>
<!-- Created with Inkscape (http://www.inkscape.org/) -->

<svg
   id="svg1100"
   version="1.1"
   viewBox="0 0 5.2916598 4.2333278"
   height="4.2333279mm"
   width="5.2916598mm"
   xmlns="http://www.w3.org/2000/svg"
   xmlns:svg="http://www.w3.org/2000/svg">
  <defs
     id="defs1097" />
  <g
     id="New_Layer_1652808923.040329"
     style="display:inline"
     transform="translate(-136.52517,-508.00133)">
    <path
       fill="#323232"
       d="M 20,6 H 12 L 10,4 H 4 C 2.9,4 2.01,4.9 2.01,6 L 2,18 c 0,1.1 0.9,2 2,2 h 16 c 1.1,0 2,-0.9 2,-2 V 8 C 22,6.9 21.1,6 20,6 Z m 0,12 H 4 V 8 H 20 Z M 11.99,9 10.58,10.41 12.16,12 H 8 v 2 h 4.16 L 10.57,15.59 11.99,17 16,13.01 Z"
       id="path31326"
       transform="matrix(0.264583,0,0,0.264583,135.996,506.943)" />
  </g>
</svg>
