<?xml version="1.0" encoding="UTF-8" standalone="no"?>
<!-- Created with Inkscape (http://www.inkscape.org/) -->

<svg
   id="svg1100"
   version="1.1"
   viewBox="0 0 5.2916598 4.2333278"
   height="4.2333279mm"
   width="5.2916598mm"
   xmlns="http://www.w3.org/2000/svg"
   xmlns:svg="http://www.w3.org/2000/svg">
  <defs
     id="defs1097" />
  <g
     id="New_Layer_1652808923.0414376"
     style="display:inline"
     transform="translate(-127.26417,-508.00133)">
    <path
       fill="#323232"
       d="M 20,6 H 12 L 10,4 H 4 C 2.9,4 2.01,4.9 2.01,6 L 2,18 c 0,1.1 0.9,2 2,2 h 16 c 1.1,0 2,-0.9 2,-2 V 8 C 22,6.9 21.1,6 20,6 Z m 0,12 H 4 V 8 H 20 Z M 8,13.01 9.41,14.42 11,12.84 V 17 h 2 V 12.84 L 14.59,14.43 16,13.01 12.01,9 Z"
       id="path31348"
       transform="matrix(0.264583,0,0,0.264583,126.735,506.943)" />
  </g>
</svg>
