<?xml version="1.0" encoding="UTF-8" standalone="no"?>
<!-- Created with Inkscape (http://www.inkscape.org/) -->

<svg
   id="svg1100"
   version="1.1"
   viewBox="0 0 5.2916598 4.2333278"
   height="4.2333279mm"
   width="5.2916598mm"
   xmlns="http://www.w3.org/2000/svg"
   xmlns:svg="http://www.w3.org/2000/svg">
  <defs
     id="defs1097" />
  <g
     id="New_Layer_1652808923.044737"
     style="display:inline"
     transform="translate(-71.702066,-508.00133)">
    <path
       fill="#323232"
       d="M 20,6 H 12 L 10,4 H 4 C 2.9,4 2.01,4.9 2.01,6 L 2,18 c 0,1.1 0.9,2 2,2 h 16 c 1.1,0 2,-0.9 2,-2 V 8 C 22,6.9 21.1,6 20,6 Z m -5,3 c 1.1,0 2,0.9 2,2 0,1.1 -0.9,2 -2,2 -1.1,0 -2,-0.9 -2,-2 0,-1.1 0.9,-2 2,-2 z m 4,8 h -8 v -1 c 0,-1.33 2.67,-2 4,-2 1.33,0 4,0.67 4,2 z"
       id="path31414"
       transform="matrix(0.264583,0,0,0.264583,71.1729,506.943)" />
  </g>
</svg>
