<?xml version="1.0" encoding="UTF-8" standalone="no"?>
<!-- Created with Inkscape (http://www.inkscape.org/) -->

<svg
   id="svg1100"
   version="1.1"
   viewBox="0 0 4.2333279 5.2916598"
   height="5.2916598mm"
   width="4.2333279mm"
   xmlns="http://www.w3.org/2000/svg"
   xmlns:svg="http://www.w3.org/2000/svg">
  <defs
     id="defs1097" />
  <g
     id="New_Layer_1652808923.0458272"
     style="display:inline"
     transform="translate(-90.752032,-516.73317)">
    <path
       fill="#323232"
       d="M 14,2 H 6 C 4.9,2 4.01,2.9 4.01,4 L 4,20 c 0,1.1 0.89,2 1.99,2 H 18 c 1.1,0 2,-0.9 2,-2 V 8 Z m 1,10 h -4 v 1 h 3 c 0.55,0 1,0.45 1,1 v 3 c 0,0.55 -0.45,1 -1,1 h -1 v 1 H 11 V 18 H 9 v -2 h 4 V 15 H 10 C 9.45,15 9,14.55 9,14 v -3 c 0,-0.55 0.45,-1 1,-1 h 1 V 9 h 2 v 1 h 2 z M 13,8 V 3.5 L 17.5,8 Z"
       id="path31436"
       transform="matrix(0.264583,0,0,0.264583,89.6937,516.204)" />
  </g>
</svg>
