<?xml version="1.0" encoding="UTF-8" standalone="no"?>
<!-- Created with Inkscape (http://www.inkscape.org/) -->

<svg
   id="svg1100"
   version="1.1"
   viewBox="0 0 5.2916598 4.2333278"
   height="4.2333279mm"
   width="5.2916598mm"
   xmlns="http://www.w3.org/2000/svg"
   xmlns:svg="http://www.w3.org/2000/svg">
  <defs
     id="defs1097" />
  <g
     id="New_Layer_1652808923.0463655"
     style="display:inline"
     transform="translate(-80.962466,-508.00133)">
    <path
       fill="#323232"
       d="M 20,6 H 12 L 10,4 H 4 C 2.9,4 2.01,4.9 2.01,6 L 2,18 c 0,1.1 0.9,2 2,2 h 16 c 1.1,0 2,-0.9 2,-2 V 8 C 22,6.9 21.1,6 20,6 Z M 7.83,16 5,13.17 l 1.41,-1.41 1.41,1.41 3.54,-3.54 1.41,1.41 z M 17.41,13 19,14.59 17.59,16 16,14.41 14.41,16 13,14.59 14.59,13 13,11.41 14.41,10 16,11.59 17.59,10 19,11.41 Z"
       id="path31447"
       transform="matrix(0.264583,0,0,0.264583,80.4333,506.943)" />
  </g>
</svg>
