<?xml version="1.0" encoding="UTF-8" standalone="no"?>
<!-- Created with Inkscape (http://www.inkscape.org/) -->

<svg
   id="svg1100"
   version="1.1"
   viewBox="0 0 4.7624941 4.7624941"
   height="4.7624941mm"
   width="4.7624941mm"
   xmlns="http://www.w3.org/2000/svg"
   xmlns:svg="http://www.w3.org/2000/svg">
  <defs
     id="defs1097" />
  <g
     id="New_Layer_1652808923.0474656"
     style="display:inline"
     transform="translate(-71.966649,-516.99775)">
    <path
       fill="#323232"
       d="M 20.41,8.41 15.58,3.58 C 15.21,3.21 14.7,3 14.17,3 H 5 C 3.9,3 3,3.9 3,5 v 14 c 0,1.1 0.9,2 2,2 h 14 c 1.1,0 2,-0.9 2,-2 V 9.83 C 21,9.3 20.79,8.79 20.41,8.41 Z M 7,7 h 7 V 9 H 7 Z M 17,17 H 7 v -2 h 10 z m 0,-4 H 7 v -2 h 10 z"
       id="path31469"
       transform="matrix(0.264583,0,0,0.264583,71.1729,516.204)" />
  </g>
</svg>
