<?xml version="1.0" encoding="UTF-8" standalone="no"?>
<!-- Created with Inkscape (http://www.inkscape.org/) -->

<svg
   id="svg1100"
   version="1.1"
   viewBox="0 0 5.556243 4.7624941"
   height="4.7624941mm"
   width="5.5562429mm"
   xmlns="http://www.w3.org/2000/svg"
   xmlns:svg="http://www.w3.org/2000/svg">
  <defs
     id="defs1097" />
  <g
     id="New_Layer_1652808931.254592"
     style="display:inline"
     transform="translate(-9.789586,-550.52975)">
    <path
       fill="#323232"
       d="m 6,9.99 h 2 v 7 H 6 Z m 8,3 h 2 v 4 h -2 z m -4,-6 h 2 v 10 H 10 Z M 20,7 V 4 h -2 v 3 h -3 v 2 h 3 v 3 h 2 V 9 h 3 V 7 Z M 18,19 H 4 V 5 H 16 V 3 H 4 C 2.9,3 2,3.9 2,5 v 14 c 0,1.1 0.9,2 2,2 h 14 c 1.1,0 2,-0.9 2,-2 v -5 h -2 z"
       id="path34604"
       transform="matrix(0.264583,0,0,0.264583,9.26042,549.736)" />
  </g>
</svg>
