<?xml version="1.0" encoding="UTF-8" standalone="no"?>
<!-- Created with Inkscape (http://www.inkscape.org/) -->

<svg
   id="svg1100"
   version="1.1"
   viewBox="0 0 5.8208261 4.2333278"
   height="4.2333279mm"
   width="5.8208261mm"
   xmlns="http://www.w3.org/2000/svg"
   xmlns:svg="http://www.w3.org/2000/svg">
  <defs
     id="defs1097" />
  <g
     id="New_Layer_1652806942.9420273"
     style="display:inline"
     transform="translate(-155.04558,-47.639532)">
    <path
       fill="#323232"
       d="m 15,4 c -4.42,0 -8,3.58 -8,8 0,4.42 3.58,8 8,8 4.42,0 8,-3.58 8,-8 0,-4.42 -3.58,-8 -8,-8 z m 0,14 c -3.31,0 -6,-2.69 -6,-6 0,-3.31 2.69,-6 6,-6 3.31,0 6,2.69 6,6 0,3.31 -2.69,6 -6,6 z M 3,12 A 5.99,5.99 0 0 1 7,6.35 V 4.26 C 3.55,5.15 1,8.27 1,12 c 0,3.73 2.55,6.85 6,7.74 V 17.65 A 5.99,5.99 0 0 1 3,12 Z"
       id="path4545"
       transform="matrix(0.264583,0,0,0.264583,154.781,46.5812)" />
  </g>
</svg>
