<?xml version="1.0" encoding="UTF-8" standalone="no"?>
<!-- Created with Inkscape (http://www.inkscape.org/) -->

<svg
   id="svg1100"
   version="1.1"
   viewBox="0 0 2.693455 4.7624941"
   height="4.7624941mm"
   width="2.693455mm"
   xmlns="http://www.w3.org/2000/svg"
   xmlns:svg="http://www.w3.org/2000/svg">
  <defs
     id="defs1097" />
  <g
     id="New_Layer_1652808931.2565296"
     style="display:inline"
     transform="translate(-67.048065,-588.36575)">
    <path
       fill="#323232"
       d="M 11.8,10.9 C 9.53,10.31 8.8,9.7 8.8,8.75 8.8,7.66 9.81,6.9 11.5,6.9 13.28,6.9 13.94,7.75 14,9 h 2.21 C 16.14,7.28 15.09,5.7 13,5.19 V 3 H 10 V 5.16 C 8.06,5.58 6.5,6.84 6.5,8.77 c 0,2.31 1.91,3.46 4.7,4.13 2.5,0.6 3,1.48 3,2.41 0,0.69 -0.49,1.79 -2.7,1.79 -2.06,0 -2.87,-0.92 -2.98,-2.1 h -2.2 c 0.12,2.19 1.76,3.42 3.68,3.83 V 21 h 3 v -2.15 c 1.95,-0.37 3.5,-1.5 3.5,-3.55 0,-2.84 -2.43,-3.81 -4.7,-4.4 z"
       id="path34637"
       transform="matrix(0.264583,0,0,0.264583,65.3759,587.572)" />
  </g>
</svg>
