<?xml version="1.0" encoding="UTF-8" standalone="no"?>
<!-- Created with Inkscape (http://www.inkscape.org/) -->

<svg
   id="svg1100"
   version="1.1"
   viewBox="0 0 4.7624941 4.7624941"
   height="4.7624941mm"
   width="4.7624941mm"
   xmlns="http://www.w3.org/2000/svg"
   xmlns:svg="http://www.w3.org/2000/svg">
  <defs
     id="defs1097" />
  <g
     id="New_Layer_1652808931.2581537"
     style="display:inline"
     transform="translate(-121.57575,-569.31575)">
    <path
       fill="#323232"
       d="M 9,11 H 7 v 2 h 2 z m 4,4 h -2 v 2 h 2 z M 9,3 H 7 v 2 h 2 z m 4,8 h -2 v 2 h 2 z M 5,3 H 3 v 2 h 2 z m 8,4 h -2 v 2 h 2 z m 4,4 h -2 v 2 h 2 z M 13,3 h -2 v 2 h 2 z m 4,0 h -2 v 2 h 2 z m 2,10 h 2 v -2 h -2 z m 0,4 h 2 V 15 H 19 Z M 5,7 H 3 V 9 H 5 Z M 19,3 v 2 h 2 V 3 Z m 0,6 h 2 V 7 H 19 Z M 5,11 H 3 v 2 H 5 Z M 3,21 H 21 V 19 H 3 Z M 5,15 H 3 v 2 h 2 z"
       id="path34670"
       transform="matrix(0.264583,0,0,0.264583,120.782,568.522)" />
  </g>
</svg>
