<?xml version="1.0" encoding="UTF-8" standalone="no"?>
<!-- Created with Inkscape (http://www.inkscape.org/) -->

<svg
   id="svg1100"
   version="1.1"
   viewBox="0 0 4.7624941 4.7624941"
   height="4.7624941mm"
   width="4.7624941mm"
   xmlns="http://www.w3.org/2000/svg"
   xmlns:svg="http://www.w3.org/2000/svg">
  <defs
     id="defs1097" />
  <g
     id="New_Layer_1652808931.2587004"
     style="display:inline"
     transform="translate(-112.31575,-569.31575)">
    <path
       fill="#323232"
       d="M 7,5 H 9 V 3 H 7 Z m 0,8 H 9 V 11 H 7 Z m 0,8 H 9 V 19 H 7 Z m 4,-4 h 2 v -2 h -2 z m 0,4 h 2 V 19 H 11 Z M 3,21 H 5 V 19 H 3 Z M 3,17 H 5 V 15 H 3 Z M 3,13 H 5 V 11 H 3 Z M 3,9 H 5 V 7 H 3 Z M 3,5 H 5 V 3 H 3 Z m 8,8 h 2 v -2 h -2 z m 8,4 h 2 v -2 h -2 z m 0,-4 h 2 v -2 h -2 z m 0,8 h 2 V 19 H 19 Z M 19,9 h 2 V 7 h -2 z m -8,0 h 2 V 7 h -2 z m 8,-6 v 2 h 2 V 3 Z m -8,2 h 2 V 3 h -2 z m 4,16 h 2 v -2 h -2 z m 0,-8 h 2 v -2 h -2 z m 0,-8 h 2 V 3 h -2 z"
       id="path34681"
       transform="matrix(0.264583,0,0,0.264583,111.522,568.522)" />
  </g>
</svg>
