<?xml version="1.0" encoding="UTF-8" standalone="no"?>
<!-- Created with Inkscape (http://www.inkscape.org/) -->

<svg
   id="svg1100"
   version="1.1"
   viewBox="0 0 4.7624941 4.7624941"
   height="4.7624941mm"
   width="4.7624941mm"
   xmlns="http://www.w3.org/2000/svg"
   xmlns:svg="http://www.w3.org/2000/svg">
  <defs
     id="defs1097" />
  <g
     id="New_Layer_1652808931.2608662"
     style="display:inline"
     transform="translate(-140.09675,-569.31575)">
    <path
       fill="#323232"
       d="m 11,21 h 2 v -2 h -2 z m 0,-4 h 2 V 15 H 11 Z M 11,5 h 2 V 3 h -2 z m 0,4 h 2 V 7 h -2 z m 0,4 h 2 V 11 H 11 Z M 7,21 H 9 V 19 H 7 Z M 7,5 H 9 V 3 H 7 Z m 0,8 H 9 V 11 H 7 Z M 3,21 H 5 V 3 H 3 Z M 19,9 h 2 V 7 h -2 z m -4,12 h 2 v -2 h -2 z m 4,-4 h 2 V 15 H 19 Z M 19,3 v 2 h 2 V 3 Z m 0,10 h 2 v -2 h -2 z m 0,8 h 2 v -2 h -2 z m -4,-8 h 2 v -2 h -2 z m 0,-8 h 2 V 3 h -2 z"
       id="path34733"
       transform="matrix(0.264583,0,0,0.264583,139.303,568.522)" />
  </g>
</svg>
