<?xml version="1.0" encoding="UTF-8" standalone="no"?>
<!-- Created with Inkscape (http://www.inkscape.org/) -->

<svg
   id="svg1100"
   version="1.1"
   viewBox="0 0 4.7624941 4.7624941"
   height="4.7624941mm"
   width="4.7624941mm"
   xmlns="http://www.w3.org/2000/svg"
   xmlns:svg="http://www.w3.org/2000/svg">
  <defs
     id="defs1097" />
  <g
     id="New_Layer_1652808931.2630475"
     style="display:inline"
     transform="translate(-112.31575,-560.31975)">
    <path
       fill="#323232"
       d="M 7,21 H 9 V 19 H 7 Z M 7,13 H 9 V 11 H 7 Z m 4,0 h 2 v -2 h -2 z m 0,8 h 2 V 19 H 11 Z M 3,17 H 5 V 15 H 3 Z m 0,4 H 5 V 19 H 3 Z M 3,13 H 5 V 11 H 3 Z M 3,9 H 5 V 7 H 3 Z m 8,8 h 2 v -2 h -2 z m 8,-8 h 2 V 7 h -2 z m 0,4 h 2 V 11 H 19 Z M 3,3 V 5 H 21 V 3 Z m 16,14 h 2 v -2 h -2 z m -4,4 h 2 V 19 H 15 Z M 11,9 h 2 V 7 h -2 z m 8,12 h 2 v -2 h -2 z m -4,-8 h 2 v -2 h -2 z"
       id="path34777"
       transform="matrix(0.264583,0,0,0.264583,111.522,559.526)" />
  </g>
</svg>
