<?xml version="1.0" encoding="UTF-8" standalone="no"?>
<!-- Created with Inkscape (http://www.inkscape.org/) -->

<svg
   id="svg1100"
   version="1.1"
   viewBox="0 0 4.7621722 4.7624941"
   height="4.7624941mm"
   width="4.7621722mm"
   xmlns="http://www.w3.org/2000/svg"
   xmlns:svg="http://www.w3.org/2000/svg">
  <defs
     id="defs1097" />
  <g
     id="New_Layer_1652806942.94326"
     style="display:inline"
     transform="translate(-62.706371,-37.056149)">
    <path
       fill="#323232"
       d="M 21,10.12 H 14.22 L 16.96,7.3 C 14.23,4.6 9.81,4.5 7.08,7.2 a 6.875,6.875 0 0 0 0,9.79 7.02,7.02 0 0 0 9.88,0 C 18.32,15.65 19,14.08 19,12.1 h 2 c 0,1.98 -0.88,4.55 -2.64,6.29 -3.51,3.48 -9.21,3.48 -12.72,0 C 2.14,14.92 2.11,9.28 5.62,5.81 a 8.987,8.987 0 0 1 12.65,0 L 21,3 Z M 12.5,8 v 4.25 L 16,14.33 15.28,15.54 11,13 V 8 Z"
       id="path4666"
       transform="matrix(0.264583,0,0,0.264583,61.9123,36.2624)" />
  </g>
</svg>
