<?xml version="1.0" encoding="UTF-8" standalone="no"?>
<!-- Created with Inkscape (http://www.inkscape.org/) -->

<svg
   id="svg1100"
   version="1.1"
   viewBox="0 0 2.8442674 3.7041619"
   height="3.7041619mm"
   width="2.8442674mm"
   xmlns="http://www.w3.org/2000/svg"
   xmlns:svg="http://www.w3.org/2000/svg">
  <defs
     id="defs1097" />
  <g
     id="New_Layer_1652808931.2674072"
     style="display:inline"
     transform="translate(-57.712281,-588.89433)">
    <path
       fill="#323232"
       d="m 15.6,10.79 c 0.97,-0.67 1.65,-1.77 1.65,-2.79 0,-2.26 -1.75,-4 -4,-4 H 7 v 14 h 7.04 c 2.09,0 3.71,-1.7 3.71,-3.79 0,-1.52 -0.86,-2.82 -2.15,-3.42 z M 10,6.5 h 3 c 0.83,0 1.5,0.67 1.5,1.5 0,0.83 -0.67,1.5 -1.5,1.5 h -3 z m 3.5,9 H 10 v -3 h 3.5 c 0.83,0 1.5,0.67 1.5,1.5 0,0.83 -0.67,1.5 -1.5,1.5 z"
       id="path34865"
       transform="matrix(0.264583,0,0,0.264583,55.8602,587.836)" />
  </g>
</svg>
