<?xml version="1.0" encoding="UTF-8" standalone="no"?>
<!-- Created with Inkscape (http://www.inkscape.org/) -->

<svg
   id="svg1100"
   version="1.1"
   viewBox="0 0 5.2916598 6.3499918"
   height="6.3499918mm"
   width="5.2916598mm"
   xmlns="http://www.w3.org/2000/svg"
   xmlns:svg="http://www.w3.org/2000/svg">
  <defs
     id="defs1097" />
  <g
     id="New_Layer_1652808931.2685072"
     style="display:inline"
     transform="translate(-139.83217,-549.736)">
    <path
       fill="#323232"
       d="M 16.56,8.94 7.62,0 6.21,1.41 8.59,3.79 3.44,8.94 a 1.49,1.49 0 0 0 0,2.12 l 5.5,5.5 C 9.23,16.85 9.62,17 10,17 c 0.38,0 0.77,-0.15 1.06,-0.44 l 5.5,-5.5 c 0.59,-0.58 0.59,-1.53 0,-2.12 z M 5.21,10 10,5.21 14.79,10 Z M 19,11.5 c 0,0 -2,2.17 -2,3.5 0,1.1 0.9,2 2,2 1.1,0 2,-0.9 2,-2 0,-1.33 -2,-3.5 -2,-3.5 z M 2,20 h 20 v 4 H 2 Z"
       id="path34887"
       transform="matrix(0.264583,0,0,0.264583,139.303,549.736)" />
  </g>
</svg>
