<?xml version="1.0" encoding="UTF-8" standalone="no"?>
<!-- Created with Inkscape (http://www.inkscape.org/) -->

<svg
   id="svg1100"
   version="1.1"
   viewBox="0 0 4.1962862 4.7439732"
   height="4.7439733mm"
   width="4.1962862mm"
   xmlns="http://www.w3.org/2000/svg"
   xmlns:svg="http://www.w3.org/2000/svg">
  <defs
     id="defs1097" />
  <g
     id="New_Layer_1652808931.2690449"
     style="display:inline"
     transform="translate(-121.85933,-578.58567)">
    <path
       fill="#323232"
       d="M 18,14 C 18,10 12,3.2 12,3.2 c 0,0 -1.33,1.51 -2.73,3.52 l 8.59,8.59 C 17.95,14.89 18,14.45 18,14 Z M 17.12,17.12 12.5,12.5 5.27,5.27 4,6.55 7.32,9.87 C 6.55,11.32 6,12.79 6,14 c 0,3.31 2.69,6 6,6 1.52,0 2.9,-0.57 3.96,-1.5 l 2.63,2.63 1.27,-1.27 z"
       id="path34898"
       transform="matrix(0.264583,0,0,0.264583,120.801,577.739)" />
  </g>
</svg>
