<?xml version="1.0" encoding="UTF-8" standalone="no"?>
<!-- Created with Inkscape (http://www.inkscape.org/) -->

<svg
   id="svg1100"
   version="1.1"
   viewBox="0 0 5.0270772 4.7624941"
   height="4.7624941mm"
   width="5.0270772mm"
   xmlns="http://www.w3.org/2000/svg"
   xmlns:svg="http://www.w3.org/2000/svg">
  <defs
     id="defs1097" />
  <g
     id="New_Layer_1652806942.9438832"
     style="display:inline"
     transform="translate(-134.80517,-47.374949)">
    <path
       fill="#323232"
       d="M 20,13 H 3 c -0.55,0 -1,0.45 -1,1 v 6 c 0,0.55 0.45,1 1,1 h 17 c 0.55,0 1,-0.45 1,-1 v -6 c 0,-0.55 -0.45,-1 -1,-1 z M 20,3 H 3 C 2.45,3 2,3.45 2,4 v 6 c 0,0.55 0.45,1 1,1 h 17 c 0.55,0 1,-0.45 1,-1 V 4 C 21,3.45 20.55,3 20,3 Z"
       id="path4721"
       transform="matrix(0.264583,0,0,0.264583,134.276,46.5812)" />
  </g>
</svg>
