<?xml version="1.0" encoding="UTF-8" standalone="no"?>
<!-- Created with Inkscape (http://www.inkscape.org/) -->

<svg
   id="svg1100"
   version="1.1"
   viewBox="0 0 4.497911 5.2916598"
   height="5.2916598mm"
   width="4.497911mm"
   xmlns="http://www.w3.org/2000/svg"
   xmlns:svg="http://www.w3.org/2000/svg">
  <defs
     id="defs1097" />
  <g
     id="New_Layer_1652808931.2739687"
     style="display:inline"
     transform="translate(-19.777632,-578.31117)">
    <path
       fill="#323232"
       d="M 18,4 V 3 C 18,2.45 17.55,2 17,2 H 5 C 4.45,2 4,2.45 4,3 v 4 c 0,0.55 0.45,1 1,1 h 12 c 0.55,0 1,-0.45 1,-1 V 6 h 1 v 4 H 9 v 11 c 0,0.55 0.45,1 1,1 h 2 c 0.55,0 1,-0.45 1,-1 v -9 h 8 V 4 Z"
       id="path34997"
       transform="matrix(0.264583,0,0,0.264583,18.7193,577.782)" />
  </g>
</svg>
