<?xml version="1.0" encoding="UTF-8" standalone="no"?>
<!-- Created with Inkscape (http://www.inkscape.org/) -->

<svg
   id="svg1100"
   version="1.1"
   viewBox="0 0 5.2916598 5.2916598"
   height="5.2916598mm"
   width="5.2916598mm"
   xmlns="http://www.w3.org/2000/svg"
   xmlns:svg="http://www.w3.org/2000/svg">
  <defs
     id="defs1097" />
  <g
     id="New_Layer_1652806942.9444973"
     style="display:inline"
     transform="translate(-10.847966,-36.791566)">
    <path
       fill="#323232"
       d="m 18.25,7.6 -5.5,-3.18 a 1.49,1.49 0 0 0 -1.5,0 L 5.75,7.6 C 5.29,7.87 5,8.36 5,8.9 v 6.35 c 0,0.54 0.29,1.03 0.75,1.3 l 5.5,3.18 c 0.46,0.27 1.04,0.27 1.5,0 l 5.5,-3.18 C 18.71,16.28 19,15.79 19,15.25 V 8.9 C 19,8.36 18.71,7.87 18.25,7.6 Z M 7,14.96 v -4.62 l 4,2.32 v 4.61 z M 12,10.93 8,8.61 12,6.3 16,8.61 Z m 1,6.34 v -4.61 l 4,-2.32 v 4.62 z M 7,2 H 3.5 C 2.67,2 2,2.67 2,3.5 V 7 H 4 V 4 h 3 z m 10,0 h 3.5 C 21.33,2 22,2.67 22,3.5 V 7 H 20 V 4 H 17 Z M 7,22 H 3.5 C 2.67,22 2,21.33 2,20.5 V 17 h 2 v 3 h 3 z m 10,0 h 3.5 C 21.33,22 22,21.33 22,20.5 V 17 h -2 v 3 h -3 z"
       id="path4787"
       transform="matrix(0.264583,0,0,0.264583,10.3188,36.2624)" />
  </g>
</svg>
