<?xml version="1.0" encoding="UTF-8" standalone="no"?>
<!-- Created with Inkscape (http://www.inkscape.org/) -->

<svg
   id="svg1100"
   version="1.1"
   viewBox="0 0 5.0270772 4.7624941"
   height="4.7624941mm"
   width="5.0270772mm"
   xmlns="http://www.w3.org/2000/svg"
   xmlns:svg="http://www.w3.org/2000/svg">
  <defs
     id="defs1097" />
  <g
     id="New_Layer_1652808931.2810729"
     style="display:inline"
     transform="translate(-10.054167,-560.31975)">
    <path
       fill="#323232"
       d="M 9,17 H 7 v -7 h 2 z m 4,0 H 11 V 7 h 2 z m 4,0 h -2 v -4 h 2 z m 2.5,2.1 H 4.5 V 5 h 15 z M 19.5,3 h -15 c -1.1,0 -2,0.9 -2,2 v 14 c 0,1.1 0.9,2 2,2 h 15 c 1.1,0 2,-0.9 2,-2 V 5 c 0,-1.1 -0.9,-2 -2,-2 z"
       id="path35140"
       transform="matrix(0.264583,0,0,0.264583,9.39271,559.526)" />
  </g>
</svg>
