<?xml version="1.0" encoding="UTF-8" standalone="no"?>
<!-- Created with Inkscape (http://www.inkscape.org/) -->

<svg
   id="svg1100"
   version="1.1"
   viewBox="0 0 5.2916598 2.6458299"
   height="2.6458299mm"
   width="5.2916598mm"
   xmlns="http://www.w3.org/2000/svg"
   xmlns:svg="http://www.w3.org/2000/svg">
  <defs
     id="defs1097" />
  <g
     id="New_Layer_1652808931.2837913"
     style="display:inline"
     transform="translate(-149.09317,-551.58808)">
    <path
       fill="#323232"
       d="M 3.9,12 C 3.9,10.29 5.29,8.9 7,8.9 h 4 V 7 H 7 c -2.76,0 -5,2.24 -5,5 0,2.76 2.24,5 5,5 h 4 V 15.1 H 7 C 5.29,15.1 3.9,13.71 3.9,12 Z M 8,13 h 8 V 11 H 8 Z m 9,-6 h -4 v 1.9 h 4 c 1.71,0 3.1,1.39 3.1,3.1 0,1.71 -1.39,3.1 -3.1,3.1 H 13 V 17 h 4 c 2.76,0 5,-2.24 5,-5 0,-2.76 -2.24,-5 -5,-5 z"
       id="path35195"
       transform="matrix(0.264583,0,0,0.264583,148.564,549.736)" />
  </g>
</svg>
