<?xml version="1.0" encoding="UTF-8" standalone="no"?>
<!-- Created with Inkscape (http://www.inkscape.org/) -->

<svg
   id="svg1100"
   version="1.1"
   viewBox="0 0 5.2916598 1.322915"
   height="1.322915mm"
   width="5.2916598mm"
   xmlns="http://www.w3.org/2000/svg"
   xmlns:svg="http://www.w3.org/2000/svg">
  <defs
     id="defs1097" />
  <g
     id="New_Layer_1652808931.2848804"
     style="display:inline"
     transform="translate(-84.269766,-590.08554)">
    <path
       fill="#323232"
       d="m 19.5,9.5 c -1.03,0 -1.9,0.62 -2.29,1.5 H 14.29 C 13.9,10.12 13.03,9.5 12,9.5 10.97,9.5 10.1,10.12 9.71,11 H 6.79 C 6.4,10.12 5.53,9.5 4.5,9.5 a 2.5,2.5 0 0 0 0,5 c 1.03,0 1.9,-0.62 2.29,-1.5 h 2.92 c 0.39,0.88 1.26,1.5 2.29,1.5 1.03,0 1.9,-0.62 2.29,-1.5 h 2.92 c 0.39,0.88 1.26,1.5 2.29,1.5 a 2.5,2.5 0 0 0 0,-5 z"
       id="path35217"
       transform="matrix(0.264583,0,0,0.264583,83.7406,587.572)" />
  </g>
</svg>
