<?xml version="1.0" encoding="UTF-8" standalone="no"?>
<!-- Created with Inkscape (http://www.inkscape.org/) -->

<svg
   id="svg1100"
   version="1.1"
   viewBox="0 0 5.2916598 5.2916598"
   height="5.2916598mm"
   width="5.2916598mm"
   xmlns="http://www.w3.org/2000/svg"
   xmlns:svg="http://www.w3.org/2000/svg">
  <defs
     id="defs1097" />
  <g
     id="New_Layer_1652808931.287569"
     style="display:inline"
     transform="translate(-47.228166,-550.26517)">
    <path
       fill="#323232"
       d="M 12,2 C 6.48,2 2,6.48 2,12 2,17.52 6.48,22 12,22 17.52,22 22,17.52 22,12 22,6.48 17.52,2 12,2 Z m 1.41,16.09 V 20 H 10.74 V 18.07 C 9.03,17.71 7.58,16.61 7.47,14.67 h 1.96 c 0.1,1.05 0.82,1.87 2.65,1.87 1.96,0 2.4,-0.98 2.4,-1.59 0,-0.83 -0.44,-1.61 -2.67,-2.14 C 9.33,12.21 7.63,11.19 7.63,9.14 7.63,7.42 9.02,6.3 10.74,5.93 V 4 h 2.67 v 1.95 c 1.86,0.45 2.79,1.86 2.85,3.39 H 14.3 C 14.25,8.23 13.66,7.47 12.08,7.47 c -1.5,0 -2.4,0.68 -2.4,1.64 0,0.84 0.65,1.39 2.67,1.91 2.02,0.52 4.18,1.39 4.18,3.91 -0.01,1.83 -1.38,2.83 -3.12,3.16 z"
       id="path35272"
       transform="matrix(0.264583,0,0,0.264583,46.699,549.736)" />
  </g>
</svg>
