<?xml version="1.0" encoding="UTF-8" standalone="no"?>
<!-- Created with Inkscape (http://www.inkscape.org/) -->

<svg
   id="svg1100"
   version="1.1"
   viewBox="0 0 4.2015781 4.7624941"
   height="4.7624941mm"
   width="4.2015781mm"
   xmlns="http://www.w3.org/2000/svg"
   xmlns:svg="http://www.w3.org/2000/svg">
  <defs
     id="defs1097" />
  <g
     id="New_Layer_1652808931.2880955"
     style="display:inline"
     transform="translate(-112.59621,-578.57575)">
    <path
       fill="#323232"
       d="m 12.5,6.9 c 1.78,0 2.44,0.85 2.5,2.1 h 2.21 C 17.14,7.28 16.09,5.7 14,5.19 V 3 H 11 V 5.16 C 10.47,5.28 9.97,5.46 9.52,5.7 l 1.47,1.47 C 11.4,7 11.9,6.9 12.5,6.9 Z M 5.33,4.06 4.06,5.33 7.5,8.77 c 0,2.08 1.56,3.21 3.91,3.91 l 3.51,3.51 C 14.58,16.67 13.87,17.1 12.5,17.1 10.44,17.1 9.63,16.18 9.52,15 h -2.2 c 0.12,2.19 1.76,3.42 3.68,3.83 V 21 h 3 v -2.15 c 0.96,-0.18 1.82,-0.55 2.45,-1.12 l 2.22,2.22 1.27,-1.27 z"
       id="path35283"
       transform="matrix(0.264583,0,0,0.264583,111.522,577.782)" />
  </g>
</svg>
