<?xml version="1.0" encoding="UTF-8" standalone="no"?>
<!-- Created with Inkscape (http://www.inkscape.org/) -->

<svg
   id="svg1100"
   version="1.1"
   viewBox="0 0 5.2916598 3.5692246"
   height="3.5692246mm"
   width="5.2916598mm"
   xmlns="http://www.w3.org/2000/svg"
   xmlns:svg="http://www.w3.org/2000/svg">
  <defs
     id="defs1097" />
  <g
     id="New_Layer_1652808931.2886426"
     style="display:inline"
     transform="translate(-93.530166,-551.12691)">
    <path
       fill="#323232"
       d="M 22,6.92 20.59,5.51 17.74,8.72 C 15.68,6.4 12.83,5 9.61,5 6.72,5 4.07,6.16 2,8 L 3.42,9.42 C 5.12,7.93 7.27,7 9.61,7 c 2.74,0 5.09,1.26 6.77,3.24 l -2.88,3.24 -4,-4 -7.5,7.51 1.5,1.5 6,-6.01 4,4 4.05,-4.55 c 0.75,1.35 1.25,2.9 1.44,4.55 H 21 c -0.22,-2.3 -0.95,-4.39 -2.04,-6.14 z"
       id="path35294"
       transform="matrix(0.264583,0,0,0.264583,93.001,549.804)" />
  </g>
</svg>
