<?xml version="1.0" encoding="UTF-8" standalone="no"?>
<!-- Created with Inkscape (http://www.inkscape.org/) -->

<svg
   id="svg1100"
   version="1.1"
   viewBox="0 0 5.2916598 5.2916598"
   height="5.2916598mm"
   width="5.2916598mm"
   xmlns="http://www.w3.org/2000/svg"
   xmlns:svg="http://www.w3.org/2000/svg">
  <defs
     id="defs1097" />
  <g
     id="New_Layer_1652808931.29082"
     style="display:inline"
     transform="translate(-84.269766,-550.26517)">
    <path
       fill="#323232"
       d="M 12,2 C 6.5,2 2,6.5 2,12 2,17.5 6.5,22 12,22 17.5,22 22,17.5 22,12 22,6.5 17.5,2 12,2 Z m 1,2.07 C 16.61,4.52 19.48,7.4 19.93,11 H 13 Z M 4,12 C 4,7.94 7.07,4.56 11,4.07 V 19.94 C 7.07,19.44 4,16.06 4,12 Z m 9,7.93 V 13 h 6.93 A 8.002,8.002 0 0 1 13,19.93 Z"
       id="path35338"
       transform="matrix(0.264583,0,0,0.264583,83.7406,549.736)" />
  </g>
</svg>
