<?xml version="1.0" encoding="UTF-8" standalone="no"?>
<!-- Created with Inkscape (http://www.inkscape.org/) -->

<svg
   id="svg1100"
   version="1.1"
   viewBox="0 0 5.0270772 5.0270772"
   height="5.0270772mm"
   width="5.0270772mm"
   xmlns="http://www.w3.org/2000/svg"
   xmlns:svg="http://www.w3.org/2000/svg">
  <defs
     id="defs1097" />
  <g
     id="New_Layer_1652808931.2913477"
     style="display:inline"
     transform="translate(-28.839549,-560.18717)">
    <path
       fill="#323232"
       d="M 17,19.22 H 5 V 7 h 7 V 5 H 5 C 3.9,5 3,5.9 3,7 v 12 c 0,1.1 0.9,2 2,2 h 12 c 1.1,0 2,-0.9 2,-2 v -7 h -2 z"
       id="path35349"
       transform="matrix(0.264583,0,0,0.264583,28.0458,559.658)" />
    <path
       fill="#323232"
       d="m 19,2 h -2 v 3 h -3 c 0.01,0.01 0,2 0,2 h 3 v 2.99 c 0.01,0.01 2,0 2,0 V 7 h 3 V 5 H 19 Z M 15,9 H 7 v 2 h 8 z m -8,3 v 2 h 8 v -2 z m 8,3 H 7 v 2 h 8 z"
       id="path35351"
       transform="matrix(0.264583,0,0,0.264583,28.0458,559.658)" />
  </g>
</svg>
