<?xml version="1.0" encoding="UTF-8" standalone="no"?>
<!-- Created with Inkscape (http://www.inkscape.org/) -->

<svg
   id="svg1100"
   version="1.1"
   viewBox="0 0 5.8204956 5.0270772"
   height="5.0270772mm"
   width="5.8204956mm"
   xmlns="http://www.w3.org/2000/svg"
   xmlns:svg="http://www.w3.org/2000/svg">
  <defs
     id="defs1097" />
  <g
     id="New_Layer_1652806942.946319"
     style="display:inline"
     transform="translate(-31.220983,-36.923866)">
    <path
       fill="#323232"
       d="M 12.99,9.18 C 12.99,9.12 13,9.06 13,9 13,6.79 11.21,5 9,5 8.94,5 8.88,5.01 8.82,5.01 Z M 6.89,5.62 4.27,3 3,4.27 5.62,6.89 C 5.23,7.5 5,8.22 5,9 c 0,2.21 1.79,4 4,4 0.78,0 1.5,-0.23 2.11,-0.62 L 19.73,21 21,19.73 12.38,11.11 Z M 9,15 c -2.67,0 -8,1.34 -8,4 v 2 h 16 v -2 c 0,-2.66 -5.33,-4 -8,-4 z m 7.76,-9.64 -1.68,1.69 c 0.84,1.18 0.84,2.71 0,3.89 l 1.68,1.69 c 2.02,-2.02 2.02,-5.07 0,-7.27 z M 20.07,2 18.44,3.63 c 2.77,3.02 2.77,7.56 0,10.74 L 20.07,16 c 3.9,-3.89 3.91,-9.95 0,-14 z"
       id="path4886"
       transform="matrix(0.264583,0,0,0.264583,30.9564,36.3947)" />
  </g>
</svg>
