<?xml version="1.0" encoding="UTF-8" standalone="no"?>
<!-- Created with Inkscape (http://www.inkscape.org/) -->

<svg
   id="svg1100"
   version="1.1"
   viewBox="0 0 4.7624941 3.9713907"
   height="3.9713907mm"
   width="4.7624941mm"
   xmlns="http://www.w3.org/2000/svg"
   xmlns:svg="http://www.w3.org/2000/svg">
  <defs
     id="defs1097" />
  <g
     id="New_Layer_1652808931.2961013"
     style="display:inline"
     transform="translate(-38.232249,-569.71075)">
    <path
       fill="#323232"
       d="M 6.85,7.08 C 6.85,4.37 9.45,3 12.24,3 c 1.64,0 3,0.49 3.9,1.28 0.77,0.65 1.46,1.73 1.46,3.24 h -3.01 c 0,-0.31 -0.05,-0.59 -0.15,-0.85 -0.29,-0.86 -1.2,-1.28 -2.25,-1.28 -1.86,0 -2.34,1.02 -2.34,1.7 0,0.48 0.25,0.88 0.74,1.21 C 10.97,8.55 11.36,8.78 12,9 H 7.39 C 7.18,8.66 6.85,8.11 6.85,7.08 Z M 21,12 V 10 H 3 v 2 h 9.62 c 1.15,0.45 1.96,0.75 1.96,1.97 0,1 -0.81,1.67 -2.28,1.67 -1.54,0 -2.93,-0.54 -2.93,-2.51 H 6.4 c 0,0.55 0.08,1.13 0.24,1.58 0.81,2.29 3.29,3.3 5.67,3.3 2.27,0 5.3,-0.89 5.3,-4.05 0,-0.3 -0.01,-1.16 -0.48,-1.94 H 21 Z"
       id="path35440"
       transform="matrix(0.264583,0,0,0.264583,37.4385,568.917)" />
  </g>
</svg>
