<?xml version="1.0" encoding="UTF-8" standalone="no"?>
<!-- Created with Inkscape (http://www.inkscape.org/) -->

<svg
   id="svg1100"
   version="1.1"
   viewBox="0 0 4.5296612 4.2333278"
   height="4.2333279mm"
   width="4.5296612mm"
   xmlns="http://www.w3.org/2000/svg"
   xmlns:svg="http://www.w3.org/2000/svg">
  <defs
     id="defs1097" />
  <g
     id="New_Layer_1652808931.2971723"
     style="display:inline"
     transform="translate(-0.64558304,-578.84033)">
    <path
       fill="#323232"
       d="m 22,7 h -2 v 1 h 3 V 9 H 19 V 7 c 0,-0.55 0.45,-1 1,-1 h 2 V 5 H 19 V 4 h 3 c 0.55,0 1,0.45 1,1 v 1 c 0,0.55 -0.45,1 -1,1 z M 5.88,20 h 2.66 l 3.4,-5.42 h 0.12 l 3.4,5.42 h 2.66 L 13.47,12.73 17.81,6 h -2.68 l -3.07,4.99 H 11.94 L 8.85,6 H 6.19 l 4.32,6.73 z"
       id="path35462"
       transform="matrix(0.264583,0,0,0.264583,-0.910165,577.782)" />
  </g>
</svg>
