<?xml version="1.0" encoding="UTF-8" standalone="no"?>
<!-- Created with Inkscape (http://www.inkscape.org/) -->

<svg
   id="svg1100"
   version="1.1"
   viewBox="0 0 3.7038226 5.2916598"
   height="5.2916598mm"
   width="3.7038226mm"
   xmlns="http://www.w3.org/2000/svg"
   xmlns:svg="http://www.w3.org/2000/svg">
  <defs
     id="defs1097" />
  <g
     id="New_Layer_1652806959.0136461"
     style="display:inline"
     transform="translate(-63.235554,-57.429066)">
    <path
       fill="#323232"
       d="m 12,6 a 2,2 0 1 0 0,-4 2,2 0 0 0 0,4 z m 7,7 V 11 C 17.46,11.02 15.91,10.25 14.93,9.17 L 13.64,7.74 C 13.47,7.55 13.26,7.4 13.03,7.29 13.02,7.29 13.02,7.28 13.01,7.28 H 13 C 12.65,7.08 12.25,6.98 11.81,7.02 10.76,7.11 10,8.04 10,9.09 V 15 c 0,1.1 0.9,2 2,2 h 5 v 5 h 2 v -5.5 c 0,-1.1 -0.9,-2 -2,-2 h -3 v -3.45 c 1.29,1.07 3.25,1.94 5,1.95 z m -6.17,5 C 12.42,19.16 11.31,20 10,20 8.34,20 7,18.66 7,17 7,15.69 7.84,14.59 9,14.17 V 12.1 a 5,5 0 1 0 5.9,5.9 z"
       id="path1194"
       transform="matrix(0.264583,0,0,0.264583,61.9123,56.8999)" />
  </g>
</svg>
