<?xml version="1.0" encoding="UTF-8" standalone="no"?>
<!-- Created with Inkscape (http://www.inkscape.org/) -->

<svg
   id="svg1100"
   version="1.1"
   viewBox="0 0 5.8208261 4.7624941"
   height="4.7624941mm"
   width="5.8208261mm"
   xmlns="http://www.w3.org/2000/svg"
   xmlns:svg="http://www.w3.org/2000/svg">
  <defs
     id="defs1097" />
  <g
     id="New_Layer_1652808957.6296017"
     style="display:inline"
     transform="translate(-101.59958,-616.58275)">
    <path
       fill="#323232"
       d="M 21,3 H 3 C 1.9,3 1,3.9 1,5 V 8 H 3 V 5 h 18 v 14 h -7 v 2 h 7 c 1.1,0 2,-0.9 2,-2 V 5 C 23,3.9 22.1,3 21,3 Z M 1,18 v 3 H 4 C 4,19.34 2.66,18 1,18 Z m 0,-4 v 2 c 2.76,0 5,2.24 5,5 H 8 C 8,17.13 4.87,14 1,14 Z m 0,-4 v 2 a 9,9 0 0 1 9,9 h 2 C 12,14.92 7.07,10 1,10 Z"
       id="path2589"
       transform="matrix(0.264583,0,0,0.264583,101.335,615.789)" />
  </g>
</svg>
