<?xml version="1.0" encoding="UTF-8" standalone="no"?>
<!-- Created with Inkscape (http://www.inkscape.org/) -->

<svg
   id="svg1100"
   version="1.1"
   viewBox="0 0 5.8208261 4.7624941"
   height="4.7624941mm"
   width="5.8208261mm"
   xmlns="http://www.w3.org/2000/svg"
   xmlns:svg="http://www.w3.org/2000/svg">
  <defs
     id="defs1097" />
  <g
     id="New_Layer_1652808957.6317449"
     style="display:inline"
     transform="translate(-160.33758,-616.58275)">
    <path
       fill="#323232"
       d="M 21,3 H 3 C 1.9,3 1,3.9 1,5 v 12 c 0,1.1 0.9,2 2,2 h 5 v 2 h 8 v -2 h 5 c 1.1,0 1.99,-0.9 1.99,-2 L 23,5 C 23,3.9 22.1,3 21,3 Z m 0,14 H 3 V 5 H 21 Z M 4,14 v 2 H 6 C 6,14.89 5.11,14 4,14 Z m 0,-3 v 1.43 c 1.97,0 3.57,1.6 3.57,3.57 H 9 C 9,13.24 6.76,11 4,11 Z M 4,8 v 1.45 c 3.61,0 6.55,2.93 6.55,6.55 H 12 C 12,11.58 8.41,8 4,8 Z"
       id="path2633"
       transform="matrix(0.264583,0,0,0.264583,160.073,615.789)" />
  </g>
</svg>
