<?xml version="1.0" encoding="UTF-8" standalone="no"?>
<!-- Created with Inkscape (http://www.inkscape.org/) -->

<svg
   id="svg1100"
   version="1.1"
   viewBox="0 0 5.2916598 4.7624941"
   height="4.7624941mm"
   width="5.2916598mm"
   xmlns="http://www.w3.org/2000/svg"
   xmlns:svg="http://www.w3.org/2000/svg">
  <defs
     id="defs1097" />
  <g
     id="New_Layer_1652808957.6333313"
     style="display:inline"
     transform="translate(-21.166666,-626.63675)">
    <path
       fill="#323232"
       d="M 22,9 V 7 H 20 V 5 C 20,3.9 19.1,3 18,3 H 4 C 2.9,3 2,3.9 2,5 v 14 c 0,1.1 0.9,2 2,2 h 14 c 1.1,0 2,-0.9 2,-2 v -2 h 2 v -2 h -2 v -2 h 2 V 11 H 20 V 9 Z M 18,19 H 4 V 5 H 18 Z M 6,13 h 5 v 4 H 6 Z m 6,-6 h 4 v 3 H 12 Z M 6,7 h 5 v 5 H 6 Z m 6,4 h 4 v 6 h -4 z"
       id="path2666"
       transform="matrix(0.264583,0,0,0.264583,20.6375,625.843)" />
  </g>
</svg>
