<?xml version="1.0" encoding="UTF-8" standalone="no"?>
<!-- Created with Inkscape (http://www.inkscape.org/) -->

<svg
   id="svg1100"
   version="1.1"
   viewBox="0 0 5.8208261 4.2333278"
   height="4.2333279mm"
   width="5.8208261mm"
   xmlns="http://www.w3.org/2000/svg"
   xmlns:svg="http://www.w3.org/2000/svg">
  <defs
     id="defs1097" />
  <g
     id="New_Layer_1652808957.6343935"
     style="display:inline"
     transform="translate(-121.17958,-616.84733)">
    <path
       fill="#323232"
       d="M 3,6 H 21 V 4 H 3 C 1.9,4 1,4.9 1,6 v 12 c 0,1.1 0.9,2 2,2 H 7 V 18 H 3 Z m 10,6 H 9 v 1.78 C 8.39,14.33 8,15.11 8,16 c 0,0.89 0.39,1.67 1,2.22 V 20 h 4 v -1.78 c 0.61,-0.55 1,-1.34 1,-2.22 0,-0.88 -0.39,-1.67 -1,-2.22 z m -2,5.5 c -0.83,0 -1.5,-0.67 -1.5,-1.5 0,-0.83 0.67,-1.5 1.5,-1.5 0.83,0 1.5,0.67 1.5,1.5 0,0.83 -0.67,1.5 -1.5,1.5 z M 22,8 h -6 c -0.5,0 -1,0.5 -1,1 v 10 c 0,0.5 0.5,1 1,1 h 6 c 0.5,0 1,-0.5 1,-1 V 9 C 23,8.5 22.5,8 22,8 Z m -1,10 h -4 v -8 h 4 z"
       id="path2688"
       transform="matrix(0.264583,0,0,0.264583,120.915,615.789)" />
  </g>
</svg>
