<?xml version="1.0" encoding="UTF-8" standalone="no"?>
<!-- Created with Inkscape (http://www.inkscape.org/) -->

<svg
   id="svg1100"
   version="1.1"
   viewBox="0 0 3.7041619 5.820826"
   height="5.8208261mm"
   width="3.7041619mm"
   xmlns="http://www.w3.org/2000/svg"
   xmlns:svg="http://www.w3.org/2000/svg">
  <defs
     id="defs1097" />
  <g
     id="New_Layer_1652808957.6349282"
     style="display:inline"
     transform="translate(-73.289615,-636.42658)">
    <path
       fill="#323232"
       d="M 17,1 H 7 C 5.9,1 5,1.9 5,3 v 18 c 0,1.1 0.9,2 2,2 h 10 c 1.1,0 2,-0.9 2,-2 V 3 C 19,1.9 18.1,1 17,1 Z m 0,18 H 7 V 5 H 17 Z M 12,6.72 c -1.96,0 -3.5,1.52 -3.5,3.47 h 1.75 c 0,-0.93 0.82,-1.75 1.75,-1.75 0.93,0 1.75,0.82 1.75,1.75 0,1.75 -2.63,1.57 -2.63,4.45 h 1.76 c 0,-1.96 2.62,-2.19 2.62,-4.45 0,-1.96 -1.54,-3.47 -3.5,-3.47 z m -0.88,8.8 h 1.76 v 1.76 h -1.76 z"
       id="path2699"
       transform="matrix(0.264583,0,0,0.264583,71.9667,636.162)" />
  </g>
</svg>
