<?xml version="1.0" encoding="UTF-8" standalone="no"?>
<!-- Created with Inkscape (http://www.inkscape.org/) -->

<svg
   id="svg1100"
   version="1.1"
   viewBox="0 0 5.6276803 5.6303262"
   height="5.6303263mm"
   width="5.6276803mm"
   xmlns="http://www.w3.org/2000/svg"
   xmlns:svg="http://www.w3.org/2000/svg">
  <defs
     id="defs1097" />
  <g
     id="New_Layer_1652808957.637622"
     style="display:inline"
     transform="translate(-179.91658,-616.14908)">
    <path
       fill="#323232"
       d="m 12,4 c 3.87,0 7,3.13 7,7 v 2 H 16.08 L 21,17.92 V 11 A 9,9 0 0 0 12,2 C 10.05,2 8.24,2.62 6.77,3.68 L 8.21,5.12 A 6.914,6.914 0 0 1 12,4 Z M 2.27,1.72 1,3 4.33,6.32 A 8.899,8.899 0 0 0 3,11 v 7 c 0,1.66 1.34,3 3,3 H 9 V 13 H 5 V 11 C 5,9.83 5.29,8.74 5.79,7.78 L 15,17 v 4 h 3 c 0.3,0 0.59,-0.06 0.86,-0.14 L 21,23 22.27,21.73 Z"
       id="path2754"
       transform="matrix(0.264583,0,0,0.264583,179.652,615.694)" />
  </g>
</svg>
