<?xml version="1.0" encoding="UTF-8" standalone="no"?>
<!-- Created with Inkscape (http://www.inkscape.org/) -->

<svg
   id="svg1100"
   version="1.1"
   viewBox="0 0 5.2916598 3.7041619"
   height="3.7041619mm"
   width="5.2916598mm"
   xmlns="http://www.w3.org/2000/svg"
   xmlns:svg="http://www.w3.org/2000/svg">
  <defs
     id="defs1097" />
  <g
     id="New_Layer_1652808957.6381454"
     style="display:inline"
     transform="translate(-62.441666,-627.16591)">
    <path
       fill="#323232"
       d="M 20,5 H 4 C 2.9,5 2.01,5.9 2.01,7 L 2,17 c 0,1.1 0.9,2 2,2 h 16 c 1.1,0 2,-0.9 2,-2 V 7 C 22,5.9 21.1,5 20,5 Z m -9,3 h 2 v 2 h -2 z m 0,3 h 2 v 2 H 11 Z M 8,8 h 2 v 2 H 8 Z m 0,3 h 2 v 2 H 8 Z M 7,13 H 5 V 11 H 7 Z M 7,10 H 5 V 8 h 2 z m 9,7 H 8 v -2 h 8 z m 0,-4 h -2 v -2 h 2 z m 0,-3 H 14 V 8 h 2 z m 3,3 h -2 v -2 h 2 z m 0,-3 H 17 V 8 h 2 z"
       id="path2765"
       transform="matrix(0.264583,0,0,0.264583,61.9125,625.843)" />
  </g>
</svg>
