<?xml version="1.0" encoding="UTF-8" standalone="no"?>
<!-- Created with Inkscape (http://www.inkscape.org/) -->

<svg
   id="svg1100"
   version="1.1"
   viewBox="0 0 5.2916598 5.2916598"
   height="5.2916598mm"
   width="5.2916598mm"
   xmlns="http://www.w3.org/2000/svg"
   xmlns:svg="http://www.w3.org/2000/svg">
  <defs
     id="defs1097" />
  <g
     id="New_Layer_1652808957.641869"
     style="display:inline"
     transform="translate(-31.485466,-626.37275)">
    <path
       fill="#323232"
       d="M 20,3 H 4 C 2.9,3 2.01,3.9 2.01,5 L 2,15 c 0,1.1 0.9,2 2,2 h 16 c 1.1,0 2,-0.9 2,-2 V 5 C 22,3.9 21.1,3 20,3 Z m -9,3 h 2 v 2 h -2 z m 0,3 h 2 v 2 H 11 Z M 8,6 h 2 V 8 H 8 Z m 0,3 h 2 v 2 H 8 Z M 7,11 H 5 V 9 H 7 Z M 7,8 H 5 V 6 h 2 z m 9,7 H 8 v -2 h 8 z m 0,-4 H 14 V 9 h 2 z M 16,8 H 14 V 6 h 2 z m 3,3 H 17 V 9 h 2 z M 19,8 H 17 V 6 h 2 z m -7,15 4,-4 H 8 Z"
       id="path2842"
       transform="matrix(0.264583,0,0,0.264583,30.9563,625.579)" />
  </g>
</svg>
