<?xml version="1.0" encoding="UTF-8" standalone="no"?>
<!-- Created with Inkscape (http://www.inkscape.org/) -->

<svg
   id="svg1100"
   version="1.1"
   viewBox="0 0 4.7624941 4.7624941"
   height="4.7624941mm"
   width="4.7624941mm"
   xmlns="http://www.w3.org/2000/svg"
   xmlns:svg="http://www.w3.org/2000/svg">
  <defs
     id="defs1097" />
  <g
     id="New_Layer_1652806959.0156674"
     style="display:inline"
     transform="translate(-186.53175,-57.693649)">
    <path
       fill="#323232"
       d="m 3,5 v 14 a 2,2 0 0 0 2,2 h 14 c 1.1,0 2,-0.9 2,-2 V 5 C 21,3.9 20.1,3 19,3 H 5 A 2,2 0 0 0 3,5 Z m 12,4 c 0,1.66 -1.34,3 -3,3 -1.66,0 -3,-1.34 -3,-3 0,-1.66 1.34,-3 3,-3 1.66,0 3,1.34 3,3 z m -9,8 c 0,-2 4,-3.1 6,-3.1 2,0 6,1.1 6,3.1 v 1 H 6 Z"
       id="path1238"
       transform="matrix(0.264583,0,0,0.264583,185.738,56.8999)" />
  </g>
</svg>
