<?xml version="1.0" encoding="UTF-8" standalone="no"?>
<!-- Created with Inkscape (http://www.inkscape.org/) -->

<svg
   id="svg1100"
   version="1.1"
   viewBox="0 0 3.7041619 5.0270772"
   height="5.0270772mm"
   width="3.7041619mm"
   xmlns="http://www.w3.org/2000/svg"
   xmlns:svg="http://www.w3.org/2000/svg">
  <defs
     id="defs1097" />
  <g
     id="New_Layer_1652808957.6434708"
     style="display:inline"
     transform="translate(-83.079115,-636.82375)">
    <path
       fill="#323232"
       d="m 12,15 c 1.66,0 2.99,-1.34 2.99,-3 L 15,6 C 15,4.34 13.66,3 12,3 10.34,3 9,4.34 9,6 v 6 c 0,1.66 1.34,3 3,3 z m 5.3,-3 c 0,3 -2.54,5.1 -5.3,5.1 C 9.24,17.1 6.7,15 6.7,12 H 5 c 0,3.42 2.72,6.23 6,6.72 V 22 h 2 v -3.28 c 3.28,-0.48 6,-3.3 6,-6.72 z"
       id="path2875"
       transform="matrix(0.264583,0,0,0.264583,81.7562,636.03)" />
  </g>
</svg>
