<?xml version="1.0" encoding="UTF-8" standalone="no"?>
<!-- Created with Inkscape (http://www.inkscape.org/) -->

<svg
   id="svg1100"
   version="1.1"
   viewBox="0 0 6.3499918 4.497911"
   height="4.497911mm"
   width="6.3499918mm"
   xmlns="http://www.w3.org/2000/svg"
   xmlns:svg="http://www.w3.org/2000/svg">
  <defs
     id="defs1097" />
  <g
     id="New_Layer_1652808957.6450741"
     style="display:inline"
     transform="translate(-1.2e-6,-616.71575)">
    <path
       fill="#323232"
       d="m 20,18 c 1.1,0 1.99,-0.9 1.99,-2 L 22,5 C 22,3.9 21.1,3 20,3 H 4 C 2.9,3 2,3.9 2,5 v 11 c 0,1.1 0.9,2 2,2 H 0 c 0,1.1 0.9,2 2,2 h 20 c 1.1,0 2,-0.9 2,-2 z M 4,5 H 20 V 16 H 4 Z m 8,14 c -0.55,0 -1,-0.45 -1,-1 0,-0.55 0.45,-1 1,-1 0.55,0 1,0.45 1,1 0,0.55 -0.45,1 -1,1 z"
       id="path2908"
       transform="matrix(0.264583,0,0,0.264583,1.2e-6,615.922)" />
  </g>
</svg>
