<?xml version="1.0" encoding="UTF-8" standalone="no"?>
<!-- Created with Inkscape (http://www.inkscape.org/) -->

<svg
   id="svg1100"
   version="1.1"
   viewBox="0 0 4.7624941 4.7624941"
   height="4.7624941mm"
   width="4.7624941mm"
   xmlns="http://www.w3.org/2000/svg"
   xmlns:svg="http://www.w3.org/2000/svg">
  <defs
     id="defs1097" />
  <g
     id="New_Layer_1652808957.6461422"
     style="display:inline"
     transform="translate(-131.49775,-626.63675)">
    <path
       fill="#323232"
       d="M 15,9 H 9 v 6 h 6 z m -2,4 h -2 v -2 h 2 z m 8,-2 V 9 H 19 V 7 C 19,5.9 18.1,5 17,5 H 15 V 3 H 13 V 5 H 11 V 3 H 9 V 5 H 7 C 5.9,5 5,5.9 5,7 V 9 H 3 v 2 h 2 v 2 H 3 v 2 h 2 v 2 c 0,1.1 0.9,2 2,2 h 2 v 2 h 2 v -2 h 2 v 2 h 2 v -2 h 2 c 1.1,0 2,-0.9 2,-2 v -2 h 2 v -2 h -2 v -2 z m -4,6 H 7 V 7 h 10 z"
       id="path2930"
       transform="matrix(0.264583,0,0,0.264583,130.704,625.843)" />
  </g>
</svg>
