<?xml version="1.0" encoding="UTF-8" standalone="no"?>
<!-- Created with Inkscape (http://www.inkscape.org/) -->

<svg
   id="svg1100"
   version="1.1"
   viewBox="0 0 3.439579 5.820826"
   height="5.8208261mm"
   width="3.439579mm"
   xmlns="http://www.w3.org/2000/svg"
   xmlns:svg="http://www.w3.org/2000/svg">
  <defs
     id="defs1097" />
  <g
     id="New_Layer_1652808957.648265"
     style="display:inline"
     transform="translate(-93.001015,-636.42658)">
    <path
       fill="#323232"
       d="m 15.5,1 h -8 A 2.5,2.5 0 0 0 5,3.5 v 17 A 2.5,2.5 0 0 0 7.5,23 h 8 A 2.5,2.5 0 0 0 18,20.5 V 3.5 A 2.5,2.5 0 0 0 15.5,1 Z m -4,21 C 10.67,22 10,21.33 10,20.5 10,19.67 10.67,19 11.5,19 12.33,19 13,19.67 13,20.5 13,21.33 12.33,22 11.5,22 Z M 16,18 H 7 V 4 h 9 z"
       id="path2974"
       transform="matrix(0.264583,0,0,0.264583,91.6781,636.162)" />
  </g>
</svg>
