<?xml version="1.0" encoding="UTF-8" standalone="no"?>
<!-- Created with Inkscape (http://www.inkscape.org/) -->

<svg
   id="svg1100"
   version="1.1"
   viewBox="0 0 6.3499918 5.4768681"
   height="5.4768682mm"
   width="6.3499918mm"
   xmlns="http://www.w3.org/2000/svg"
   xmlns:svg="http://www.w3.org/2000/svg">
  <defs
     id="defs1097" />
  <g
     id="New_Layer_1652808957.64933"
     style="display:inline"
     transform="translate(-41.275,-616.22556)">
    <path
       fill="#323232"
       d="M 22,6 V 4 H 6.82 l 2,2 z M 1.92,1.65 0.65,2.92 2.47,4.74 C 2.18,5.08 2,5.52 2,6 V 17 H 0 v 3 h 17.73 l 2.35,2.35 1.27,-1.27 L 3.89,3.62 Z M 4,6.27 14.73,17 H 4 Z M 23,8 h -6 c -0.55,0 -1,0.45 -1,1 v 4.18 l 2,2 V 10 h 4 v 7 h -2.18 l 3,3 H 23 c 0.55,0 1,-0.45 1,-1 V 9 C 24,8.45 23.55,8 23,8 Z"
       id="path2996"
       transform="matrix(0.264583,0,0,0.264583,41.275,615.789)" />
  </g>
</svg>
