<?xml version="1.0" encoding="UTF-8" standalone="no"?>
<!-- Created with Inkscape (http://www.inkscape.org/) -->

<svg
   id="svg1100"
   version="1.1"
   viewBox="0 0 4.7624941 4.7624941"
   height="4.7624941mm"
   width="4.7624941mm"
   xmlns="http://www.w3.org/2000/svg"
   xmlns:svg="http://www.w3.org/2000/svg">
  <defs
     id="defs1097" />
  <g
     id="New_Layer_1652808957.6509337"
     style="display:inline"
     transform="translate(-141.28775,-626.63675)">
    <path
       fill="#323232"
       d="M 20.2,5.9 21,5.1 C 19.6,3.7 17.8,3 16,3 14.2,3 12.4,3.7 11,5.1 l 0.8,0.8 C 13,4.8 14.5,4.2 16,4.2 c 1.5,0 3,0.6 4.2,1.7 z M 19.3,6.7 C 18.4,5.8 17.2,5.3 16,5.3 c -1.2,0 -2.4,0.5 -3.3,1.4 l 0.8,0.8 c 0.7,-0.7 1.6,-1 2.5,-1 0.9,0 1.8,0.3 2.5,1 z M 19,13 H 17 V 9 h -2 v 4 H 5 c -1.1,0 -2,0.9 -2,2 v 4 c 0,1.1 0.9,2 2,2 h 14 c 1.1,0 2,-0.9 2,-2 v -4 c 0,-1.1 -0.9,-2 -2,-2 z M 8,18 H 6 v -2 h 2 z m 3.5,0 h -2 v -2 h 2 z m 3.5,0 h -2 v -2 h 2 z"
       id="path3029"
       transform="matrix(0.264583,0,0,0.264583,140.494,625.843)" />
  </g>
</svg>
