<?xml version="1.0" encoding="UTF-8" standalone="no"?>
<!-- Created with Inkscape (http://www.inkscape.org/) -->

<svg
   id="svg1100"
   version="1.1"
   viewBox="0 0 4.2333279 5.2916598"
   height="5.2916598mm"
   width="4.2333279mm"
   xmlns="http://www.w3.org/2000/svg"
   xmlns:svg="http://www.w3.org/2000/svg">
  <defs
     id="defs1097" />
  <g
     id="New_Layer_1652808957.652537"
     style="display:inline"
     transform="translate(-32.014632,-636.69117)">
    <path
       fill="#323232"
       d="M 19.99,4 C 19.99,2.9 19.1,2 18,2 H 10 L 4,8 v 12 c 0,1.1 0.9,2 2,2 H 18.01 C 19.11,22 20,21.1 20,20 Z M 9,19 H 7 v -2 h 2 z m 8,0 h -2 v -2 h 2 z M 9,15 H 7 v -4 h 2 z m 4,4 h -2 v -4 h 2 z m 0,-6 h -2 v -2 h 2 z m 4,2 h -2 v -4 h 2 z"
       id="path3062"
       transform="matrix(0.264583,0,0,0.264583,30.9563,636.162)" />
  </g>
</svg>
