<?xml version="1.0" encoding="UTF-8" standalone="no"?>
<!-- Created with Inkscape (http://www.inkscape.org/) -->

<svg
   id="svg1100"
   version="1.1"
   viewBox="0 0 5.0270772 5.0270772"
   height="5.0270772mm"
   width="5.0270772mm"
   xmlns="http://www.w3.org/2000/svg"
   xmlns:svg="http://www.w3.org/2000/svg">
  <defs
     id="defs1097" />
  <g
     id="New_Layer_1652806959.0173118"
     style="display:inline"
     transform="translate(-52.255249,-57.561366)">
    <path
       fill="#323232"
       d="m 22,5 v 2 h -3 v 3 H 17 V 7 H 14 V 5 h 3 V 2 h 2 V 5 Z M 19,19 H 5 V 5 h 6 V 3 H 5 C 3.9,3 3,3.9 3,5 v 14 c 0,1.1 0.9,2 2,2 h 14 c 1.1,0 2,-0.9 2,-2 v -6 h -2 z m -4,-6 v 4 h 2 v -4 z m -4,4 h 2 V 9 H 11 Z M 9,17 V 11 H 7 v 6 z"
       id="path1260"
       transform="matrix(0.264583,0,0,0.264583,51.4615,57.0322)" />
  </g>
</svg>
