<?xml version="1.0" encoding="UTF-8" standalone="no"?>
<!-- Created with Inkscape (http://www.inkscape.org/) -->

<svg
   id="svg1100"
   version="1.1"
   viewBox="0 0 3.7041619 5.2916598"
   height="5.2916598mm"
   width="3.7041619mm"
   xmlns="http://www.w3.org/2000/svg"
   xmlns:svg="http://www.w3.org/2000/svg">
  <defs
     id="defs1097" />
  <g
     id="New_Layer_1652808957.6535997"
     style="display:inline"
     transform="translate(-52.916615,-636.69117)">
    <path
       fill="#323232"
       d="M 17,2 H 7 C 5.9,2 5,2.9 5,4 v 16 c 0,1.1 0.9,1.99 2,1.99 L 17,22 c 1.1,0 2,-0.9 2,-2 V 4 C 19,2.9 18.1,2 17,2 Z m -5,2 c 1.1,0 2,0.9 2,2 0,1.1 -0.9,2 -2,2 a 2,2 0 1 1 0,-4 z m 0,16 c -2.76,0 -5,-2.24 -5,-5 0,-2.76 2.24,-5 5,-5 2.76,0 5,2.24 5,5 0,2.76 -2.24,5 -5,5 z m 0,-8 c -1.66,0 -3,1.34 -3,3 0,1.66 1.34,3 3,3 1.66,0 3,-1.34 3,-3 0,-1.66 -1.34,-3 -3,-3 z"
       id="path3084"
       transform="matrix(0.264583,0,0,0.264583,51.5937,636.162)" />
  </g>
</svg>
