<?xml version="1.0" encoding="UTF-8" standalone="no"?>
<!-- Created with Inkscape (http://www.inkscape.org/) -->

<svg
   id="svg1100"
   version="1.1"
   viewBox="0 0 5.0270772 6.3499918"
   height="6.3499918mm"
   width="5.0270772mm"
   xmlns="http://www.w3.org/2000/svg"
   xmlns:svg="http://www.w3.org/2000/svg">
  <defs
     id="defs1097" />
  <g
     id="New_Layer_1652808957.656164"
     style="display:inline"
     transform="translate(-82.417666,-625.843)">
    <path
       fill="#323232"
       d="M 18.5,0 H 4.5 A 2.5,2.5 0 0 0 2,2.5 v 19 A 2.5,2.5 0 0 0 4.5,24 h 14 A 2.5,2.5 0 0 0 21,21.5 V 2.5 A 2.5,2.5 0 0 0 18.5,0 Z m -7,23 C 10.67,23 10,22.33 10,21.5 10,20.67 10.67,20 11.5,20 12.33,20 13,20.67 13,21.5 13,22.33 12.33,23 11.5,23 Z M 19,19 H 4 V 3 h 15 z"
       id="path3131"
       transform="matrix(0.264583,0,0,0.264583,81.8885,625.843)" />
  </g>
</svg>
