<?xml version="1.0" encoding="UTF-8" standalone="no"?>
<!-- Created with Inkscape (http://www.inkscape.org/) -->

<svg
   id="svg1100"
   version="1.1"
   viewBox="0 0 5.8208261 5.820826"
   height="5.8208261mm"
   width="5.8208261mm"
   xmlns="http://www.w3.org/2000/svg"
   xmlns:svg="http://www.w3.org/2000/svg">
  <defs
     id="defs1097" />
  <g
     id="New_Layer_1652808957.6567001"
     style="display:inline"
     transform="translate(-72.231283,-616.05358)">
    <path
       fill="#323232"
       d="m 12,12 c 0,-3 2.5,-5.5 5.5,-5.5 3,0 5.5,2.5 5.5,5.5 z m 0,0 C 12,15 9.5,17.5 6.5,17.5 3.5,17.5 1,15 1,12 Z m 0,0 C 9,12 6.5,9.5 6.5,6.5 6.5,3.5 9,1 12,1 Z m 0,0 c 3,0 5.5,2.5 5.5,5.5 0,3 -2.5,5.5 -5.5,5.5 z"
       id="path3142"
       transform="matrix(0.264583,0,0,0.264583,71.9667,615.789)" />
  </g>
</svg>
