<?xml version="1.0" encoding="UTF-8" standalone="no"?>
<!-- Created with Inkscape (http://www.inkscape.org/) -->

<svg
   id="svg1100"
   version="1.1"
   viewBox="0 0 5.8208261 3.1749959"
   height="3.1749959mm"
   width="5.8208261mm"
   xmlns="http://www.w3.org/2000/svg"
   xmlns:svg="http://www.w3.org/2000/svg">
  <defs
     id="defs1097" />
  <g
     id="New_Layer_1652808957.6577613"
     style="display:inline"
     transform="translate(-150.54758,-617.3765)">
    <path
       fill="#323232"
       d="M 21,6 H 3 C 1.9,6 1,6.9 1,8 v 8 c 0,1.1 0.9,2 2,2 h 18 c 1.1,0 2,-0.9 2,-2 V 8 C 23,6.9 22.1,6 21,6 Z M 11,13 H 8 v 3 H 6 V 13 H 3 V 11 H 6 V 8 h 2 v 3 h 3 z m 4.5,2 C 14.67,15 14,14.33 14,13.5 14,12.67 14.67,12 15.5,12 c 0.83,0 1.5,0.67 1.5,1.5 0,0.83 -0.67,1.5 -1.5,1.5 z m 4,-3 C 18.67,12 18,11.33 18,10.5 18,9.67 18.67,9 19.5,9 20.33,9 21,9.67 21,10.5 21,11.33 20.33,12 19.5,12 Z"
       id="path3164"
       transform="matrix(0.264583,0,0,0.264583,150.283,615.789)" />
  </g>
</svg>
