<?xml version="1.0" encoding="UTF-8" standalone="no"?>
<!-- Created with Inkscape (http://www.inkscape.org/) -->

<svg
   id="svg1100"
   version="1.1"
   viewBox="0 0 4.763494 4.7624941"
   height="4.7624941mm"
   width="4.763494mm"
   xmlns="http://www.w3.org/2000/svg"
   xmlns:svg="http://www.w3.org/2000/svg">
  <defs
     id="defs1097" />
  <g
     id="New_Layer_1652806959.0179365"
     style="display:inline"
     transform="translate(-145.25575,-57.693649)">
    <path
       fill="#323232"
       d="m 17,11 c 0.34,0 0.67,0.04 1,0.09 V 6.27 L 10.5,3 3,6.27 v 4.91 c 0,4.54 3.2,8.79 7.5,9.82 0.55,-0.13 1.08,-0.32 1.6,-0.55 C 11.41,19.47 11,18.28 11,17 c 0,-3.31 2.69,-6 6,-6 z"
       id="path1304"
       transform="matrix(0.264583,0,0,0.264583,144.462,56.8999)" />
    <path
       fill="#323232"
       d="m 17,13 c -2.21,0 -4,1.79 -4,4 0,2.21 1.79,4 4,4 2.21,0 4,-1.79 4,-4 0,-2.21 -1.79,-4 -4,-4 z m 0,1.38 c 0.62,0 1.12,0.51 1.12,1.12 0,0.61 -0.51,1.12 -1.12,1.12 -0.61,0 -1.12,-0.51 -1.12,-1.12 0,-0.61 0.5,-1.12 1.12,-1.12 z m 0,5.37 c -0.93,0 -1.74,-0.46 -2.24,-1.17 0.05,-0.72 1.51,-1.08 2.24,-1.08 0.73,0 2.19,0.36 2.24,1.08 -0.5,0.71 -1.31,1.17 -2.24,1.17 z"
       id="path1306"
       transform="matrix(0.264583,0,0,0.264583,144.463,56.8999)" />
  </g>
</svg>
