<?xml version="1.0" encoding="UTF-8" standalone="no"?>
<!-- Created with Inkscape (http://www.inkscape.org/) -->

<svg
   id="svg1100"
   version="1.1"
   viewBox="0 0 4.7624941 4.7624941"
   height="4.7624941mm"
   width="4.7624941mm"
   xmlns="http://www.w3.org/2000/svg"
   xmlns:svg="http://www.w3.org/2000/svg">
  <defs
     id="defs1097" />
  <g
     id="New_Layer_1652808974.709071"
     style="display:inline"
     transform="translate(-62.685049,-780.82675)">
    <path
       id="Vector-744"
       d="M 19,3 H 5 C 3.9,3 3,3.9 3,5 v 14 c 0,1.1 0.9,2 2,2 h 14 c 1.1,0 2,-0.9 2,-2 V 5 C 21,3.9 20.1,3 19,3 Z m -7,7 h 3 V 9 H 13 C 12.45,9 12,8.55 12,8 V 6.5 c 0,-0.55 0.45,-1 1,-1 h 2.5 c 0.55,0 1,0.45 1,1 v 4 c 0,0.55 -0.45,1 -1,1 H 12 Z M 13.5,8 H 15 V 6.5 H 13.5 Z M 7,5.5 h 3 v 6 H 8.5 V 7 H 7 Z m 5,13 H 10.5 V 14 h -1 v 3 H 8 V 14 H 7 v 4.5 H 5.5 v -5 c 0,-0.55 0.45,-1 1,-1 H 11 c 0.55,0 1,0.45 1,1 z M 18.5,16 c 0,0.55 -0.45,1 -1,1 h -2 v 1.5 H 14 v -6 h 3.5 c 0.55,0 1,0.45 1,1 z m -3,-2 H 17 v 1.5 h -1.5 z"
       fill="#323232"
       transform="matrix(0.264583,0,0,0.264583,61.8913,780.033)" />
  </g>
</svg>
