<?xml version="1.0" encoding="UTF-8" standalone="no"?>
<!-- Created with Inkscape (http://www.inkscape.org/) -->

<svg
   id="svg1100"
   version="1.1"
   viewBox="0 0 4.7624941 4.7624941"
   height="4.7624941mm"
   width="4.7624941mm"
   xmlns="http://www.w3.org/2000/svg"
   xmlns:svg="http://www.w3.org/2000/svg">
  <defs
     id="defs1097" />
  <g
     id="New_Layer_1652806959.0196962"
     style="display:inline"
     transform="translate(-11.112549,-68.012449)">
    <path
       fill="#323232"
       d="M 19,3 H 5 C 3.9,3 3,3.9 3,5 v 7 c 0,1.1 0.9,2 2,2 h 14 c 1.1,0 2,-0.9 2,-2 V 5 C 21,3.9 20.1,3 19,3 Z m 0,6 h -4 c 0,1.62 -1.38,3 -3,3 C 10.38,12 9,10.62 9,9 H 5 V 5 h 14 z m -4,7 h 6 v 3 c 0,1.1 -0.9,2 -2,2 H 5 C 3.9,21 3,20.1 3,19 v -3 h 6 c 0,1.66 1.34,3 3,3 1.66,0 3,-1.34 3,-3 z"
       id="path1362"
       transform="matrix(0.264583,0,0,0.264583,10.3188,67.2187)" />
  </g>
</svg>
