<?xml version="1.0" encoding="UTF-8" standalone="no"?>
<!-- Created with Inkscape (http://www.inkscape.org/) -->

<svg
   id="svg1100"
   version="1.1"
   viewBox="0 0 6.0854092 5.5562429"
   height="5.5562429mm"
   width="6.0854092mm"
   xmlns="http://www.w3.org/2000/svg"
   xmlns:svg="http://www.w3.org/2000/svg">
  <defs
     id="defs1097" />
  <g
     id="New_Layer_1652808974.7124865"
     style="display:inline"
     transform="translate(-72.1836,-695.12458)">
    <path
       id="Vector-14"
       d="M 3,4 V 1 H 5 V 4 H 8 V 6 H 5 V 9 H 3 V 6 H 0 V 4 Z m 3,6 V 7 H 9 V 4 h 7 l 1.83,2 H 21 c 1.1,0 2,0.9 2,2 v 12 c 0,1.1 -0.9,2 -2,2 H 5 C 3.9,22 3,21.1 3,20 V 10 Z m 7,9 c 2.76,0 5,-2.24 5,-5 0,-2.76 -2.24,-5 -5,-5 -2.76,0 -5,2.24 -5,5 0,2.76 2.24,5 5,5 z M 9.8,14 c 0,1.77 1.43,3.2 3.2,3.2 1.77,0 3.2,-1.43 3.2,-3.2 0,-1.77 -1.43,-3.2 -3.2,-3.2 -1.77,0 -3.2,1.43 -3.2,3.2 z"
       fill="#323232"
       transform="matrix(0.264583,0,0,0.264583,72.1836,694.86)" />
  </g>
</svg>
