<?xml version="1.0" encoding="UTF-8" standalone="no"?>
<!-- Created with Inkscape (http://www.inkscape.org/) -->

<svg
   id="svg1100"
   version="1.1"
   viewBox="0 0 5.0270772 5.0270772"
   height="5.0270772mm"
   width="5.0270772mm"
   xmlns="http://www.w3.org/2000/svg"
   xmlns:svg="http://www.w3.org/2000/svg">
  <defs
     id="defs1097" />
  <g
     id="New_Layer_1652808974.7130237"
     style="display:inline"
     transform="translate(-31.623049,-753.17917)">
    <path
       id="Vector-9"
       d="m 19,7 v 2.99 c 0,0 -1.99,0.01 -2,0 V 7 h -3 c 0,0 0.01,-1.99 0,-2 h 3 V 2 h 2 v 3 h 3 v 2 z m -3,4 V 8 H 13 V 5 H 5 C 3.9,5 3,5.9 3,7 v 12 c 0,1.1 0.9,2 2,2 h 12 c 1.1,0 2,-0.9 2,-2 v -8 z m -11,8 3,-4 2,3 3,-4 4,5 z"
       fill="#323232"
       transform="matrix(0.264583,0,0,0.264583,30.8293,752.65)" />
  </g>
</svg>
