<?xml version="1.0" encoding="UTF-8" standalone="no"?>
<!-- Created with Inkscape (http://www.inkscape.org/) -->

<svg
   id="svg1100"
   version="1.1"
   viewBox="0 0 5.2916598 5.2916598"
   height="5.2916598mm"
   width="5.2916598mm"
   xmlns="http://www.w3.org/2000/svg"
   xmlns:svg="http://www.w3.org/2000/svg">
  <defs
     id="defs1097" />
  <g
     id="New_Layer_1652808974.7141101"
     style="display:inline"
     transform="translate(-122.42817,-743.47317)">
    <path
       id="Vector-689"
       d="M 12,2 C 6.49,2 2,6.49 2,12 2,17.51 6.49,22 12,22 17.51,22 22,17.51 22,12 22,6.49 17.51,2 12,2 Z m 0,18 C 7.59,20 4,16.41 4,12 4,7.59 7.59,4 12,4 c 4.41,0 8,3.59 8,8 0,4.41 -3.59,8 -8,8 z m 3,-8 c 0,1.66 -1.34,3 -3,3 -1.66,0 -3,-1.34 -3,-3 0,-1.66 1.34,-3 3,-3 1.66,0 3,1.34 3,3 z"
       fill="#323232"
       transform="matrix(0.264583,0,0,0.264583,121.899,742.944)" />
  </g>
</svg>
