<?xml version="1.0" encoding="UTF-8" standalone="no"?>
<!-- Created with Inkscape (http://www.inkscape.org/) -->

<svg
   id="svg1100"
   version="1.1"
   viewBox="0 0 5.2916598 5.2916598"
   height="5.2916598mm"
   width="5.2916598mm"
   xmlns="http://www.w3.org/2000/svg"
   xmlns:svg="http://www.w3.org/2000/svg">
  <defs
     id="defs1097" />
  <g
     id="New_Layer_1652808974.7146657"
     style="display:inline"
     transform="translate(-112.47417,-743.47317)">
    <path
       id="Vector-26"
       d="M 15,2 C 12.29,2 9.95,3.54 8.78,5.78 7.5,6.45 6.44,7.5 5.78,8.78 3.54,9.95 2,12.29 2,15 c 0,3.87 3.13,7 7,7 2.71,0 5.05,-1.54 6.22,-3.78 1.28,-0.67 2.34,-1.72 3,-3 C 20.46,14.05 22,11.71 22,9 22,5.13 18.87,2 15,2 Z M 9,20 c -2.76,0 -5,-2.24 -5,-5 0,-1.12 0.37,-2.16 1,-3 0,3.87 3.13,7 7,7 -0.84,0.63 -1.88,1 -3,1 z m 3,-3 C 9.24,17 7,14.76 7,12 7,10.88 7.37,9.84 8,9 c 0,3.86 3.13,6.99 7,7 -0.84,0.63 -1.88,1 -3,1 z m 4.7,-3.3 C 16.17,13.89 15.6,14 15,14 12.24,14 10,11.76 10,9 10,8.4 10.11,7.83 10.3,7.3 10.83,7.11 11.4,7 12,7 c 2.76,0 5,2.24 5,5 0,0.6 -0.11,1.17 -0.3,1.7 z M 19,12 c 0,-3.86 -3.13,-6.99 -7,-7 0.84,-0.63 1.87,-1 3,-1 2.76,0 5,2.24 5,5 0,1.12 -0.37,2.16 -1,3 z"
       fill="#323232"
       transform="matrix(0.264583,0,0,0.264583,111.945,742.944)" />
  </g>
</svg>
