<?xml version="1.0" encoding="UTF-8" standalone="no"?>
<!-- Created with Inkscape (http://www.inkscape.org/) -->

<svg
   id="svg1100"
   version="1.1"
   viewBox="0 0 4.7624941 4.7624941"
   height="4.7624941mm"
   width="4.7624941mm"
   xmlns="http://www.w3.org/2000/svg"
   xmlns:svg="http://www.w3.org/2000/svg">
  <defs
     id="defs1097" />
  <g
     id="New_Layer_1652806959.0203083"
     style="display:inline"
     transform="translate(-31.750049,-68.012449)">
    <path
       fill="#323232"
       d="M 19,3 H 5 C 3.9,3 3,3.9 3,5 v 14 c 0,1.1 0.9,2 2,2 h 14 c 1.1,0 2,-0.9 2,-2 V 5 C 21,3.9 20.1,3 19,3 Z M 9,17 H 7 v -5 h 2 z m 4,0 h -2 v -3 h 2 z m 0,-5 h -2 v -2 h 2 z m 4,5 H 15 V 7 h 2 z"
       id="path1392"
       transform="matrix(0.264583,0,0,0.264583,30.9563,67.2187)" />
  </g>
</svg>
