<?xml version="1.0" encoding="UTF-8" standalone="no"?>
<!-- Created with Inkscape (http://www.inkscape.org/) -->

<svg
   id="svg1100"
   version="1.1"
   viewBox="0 0 5.2916598 5.2916598"
   height="5.2916598mm"
   width="5.2916598mm"
   xmlns="http://www.w3.org/2000/svg"
   xmlns:svg="http://www.w3.org/2000/svg">
  <defs
     id="defs1097" />
  <g
     id="New_Layer_1652808974.717928"
     style="display:inline"
     transform="translate(-10.853166,-724.63217)">
    <path
       id="Vector-27"
       d="M 14,2 H 4 C 2.89,2 2,2.9 2,4 V 14 H 4 V 4 h 10 z m 4,4 H 8 C 6.89,6 6,6.9 6,8 V 18 H 8 V 8 h 10 z m 2,4 h -8 c -1.11,0 -2,0.9 -2,2 v 8 c 0,1.1 0.89,2 2,2 h 8 c 1.1,0 2,-0.9 2,-2 v -8 c 0,-1.1 -0.9,-2 -2,-2 z"
       fill="#323232"
       transform="matrix(0.264583,0,0,0.264583,10.324,724.103)" />
  </g>
</svg>
