<?xml version="1.0" encoding="UTF-8" standalone="no"?>
<!-- Created with Inkscape (http://www.inkscape.org/) -->

<svg
   id="svg1100"
   version="1.1"
   viewBox="0 0 5.5569153 5.5569043"
   height="5.5569043mm"
   width="5.5569153mm"
   xmlns="http://www.w3.org/2000/svg"
   xmlns:svg="http://www.w3.org/2000/svg">
  <defs
     id="defs1097" />
  <g
     id="New_Layer_1652808974.7184772"
     style="display:inline"
     transform="translate(-112.34194,-714.96817)">
    <path
       id="Vector-22"
       d="M 7.50006,5.6 10.0001,7 8.60006,4.5 10.0001,2 7.50006,3.4 l -2.5,-1.4 1.4,2.5 -1.4,2.5 z m 12.00004,9.8 -2.5,-1.4 1.4,2.5 -1.4,2.5 2.5,-1.4 2.5,1.4 -1.4,-2.5 1.4,-2.5 z m 2.5,-13.4 -2.5,1.4 -2.5,-1.4 1.4,2.5 -1.4,2.5 2.5,-1.4 2.5,1.4 -1.4,-2.5 z m -7.63,5.29 c -0.39,-0.39 -1.02,-0.39 -1.41,0 L 1.29006,18.96 c -0.390001,0.39 -0.390001,1.02 0,1.41 l 2.34,2.34 c 0.39,0.39 1.02,0.39 1.41,0 L 16.7001,11.05 c 0.39,-0.39 0.39,-1.02 0,-1.41 z m -1.03,5.49 -2.12,-2.12 2.44,-2.44 2.12,2.12 z"
       fill="#323232"
       transform="matrix(0.264583,0,0,0.264583,112.078,714.439)" />
  </g>
</svg>
