<?xml version="1.0" encoding="UTF-8" standalone="no"?>
<!-- Created with Inkscape (http://www.inkscape.org/) -->

<svg
   id="svg1100"
   version="1.1"
   viewBox="0 0 5.5569148 5.5569043"
   height="5.5569043mm"
   width="5.5569148mm"
   xmlns="http://www.w3.org/2000/svg"
   xmlns:svg="http://www.w3.org/2000/svg">
  <defs
     id="defs1097" />
  <g
     id="New_Layer_1652808974.7195663"
     style="display:inline"
     transform="translate(-102.38852,-714.96858)">
    <path
       id="Vector-061"
       d="m 23.0001,1 -2.5,1.4 -2.5,-1.4 1.4,2.5 -1.4,2.5 2.5,-1.4 2.5,1.4 -1.4,-2.5 z m -8.34,6.22 2.12,2.12 -2.44,2.44 0.81,0.81 2.55,-2.55 c 0.39,-0.39 0.39,-1.02 0,-1.41 l -2.34,-2.34 c -0.39,-0.39 -1.02,-0.39 -1.41,0 l -2.55,2.55 0.81,0.81 z m -0.78,6.65 -3.75,-3.75 -6.86004,-6.86 -1.27,1.27 6.86,6.86 -6.57,6.57 c -0.39,0.39 -0.39,1.02 0,1.41 l 2.34,2.34 c 0.39,0.39 1.02,0.39 1.41,0 l 6.57004,-6.57 6.86,6.86 1.27,-1.27 z"
       fill="#323232"
       transform="matrix(0.264583,0,0,0.264583,101.86,714.704)" />
  </g>
</svg>
