<?xml version="1.0" encoding="UTF-8" standalone="no"?>
<!-- Created with Inkscape (http://www.inkscape.org/) -->

<svg
   id="svg1100"
   version="1.1"
   viewBox="0 0 5.0270772 5.0270772"
   height="5.0270772mm"
   width="5.0270772mm"
   xmlns="http://www.w3.org/2000/svg"
   xmlns:svg="http://www.w3.org/2000/svg">
  <defs
     id="defs1097" />
  <g
     id="New_Layer_1652808974.7222977"
     style="display:inline"
     transform="translate(-10.985458,-753.17946)">
    <path
       id="Vector-11"
       d="m 14,7 c 0.55,0 1,-0.45 1,-1 0,-0.55 -0.45,-1 -1,-1 -0.55,0 -1,0.45 -1,1 0,0.55 0.45,1 1,1 z m -0.2,4.48 0.2,0.02 c 0.83,0 1.5,-0.67 1.5,-1.5 0,-0.83 -0.67,-1.5 -1.5,-1.5 -0.83,0 -1.5,0.67 -1.5,1.5 l 0.02,0.2 c 0.09,0.67 0.61,1.19 1.28,1.28 z M 14,3.5 c 0.28,0 0.5,-0.22 0.5,-0.5 0,-0.28 -0.22,-0.5 -0.5,-0.5 -0.28,0 -0.5,0.22 -0.5,0.5 0,0.28 0.22,0.5 0.5,0.5 z m -4,0 C 10.28,3.5 10.5,3.28 10.5,3 10.5,2.72 10.28,2.5 10,2.5 9.72,2.5 9.5,2.72 9.5,3 9.5,3.28 9.72,3.5 10,3.5 Z m 11,7 c 0.28,0 0.5,-0.22 0.5,-0.5 0,-0.28 -0.22,-0.5 -0.5,-0.5 -0.28,0 -0.5,0.22 -0.5,0.5 0,0.28 0.22,0.5 0.5,0.5 z M 10,7 C 10.55,7 11,6.55 11,6 11,5.45 10.55,5 10,5 9.45,5 9,5.45 9,6 9,6.55 9.45,7 10,7 Z m 8,8 c 0.55,0 1,-0.45 1,-1 0,-0.55 -0.45,-1 -1,-1 -0.55,0 -1,0.45 -1,1 0,0.55 0.45,1 1,1 z m 0,-4 c 0.55,0 1,-0.45 1,-1 0,-0.55 -0.45,-1 -1,-1 -0.55,0 -1,0.45 -1,1 0,0.55 0.45,1 1,1 z m 0,-4 c 0.55,0 1,-0.45 1,-1 0,-0.55 -0.45,-1 -1,-1 -0.55,0 -1,0.45 -1,1 0,0.55 0.45,1 1,1 z m -4,13.5 c -0.28,0 -0.5,0.22 -0.5,0.5 0,0.28 0.22,0.5 0.5,0.5 0.28,0 0.5,-0.22 0.5,-0.5 0,-0.28 -0.22,-0.5 -0.5,-0.5 z M 2.5,5.27 6.28,9.05 6,9 C 5.45,9 5,9.45 5,10 5,10.55 5.45,11 6,11 6.55,11 7,10.55 7,10 7,9.9 6.97,9.81 6.94,9.72 l 2.81,2.81 C 9.04,12.64 8.5,13.26 8.5,14 c 0,0.83 0.67,1.5 1.5,1.5 0.74,0 1.36,-0.54 1.47,-1.25 l 2.81,2.81 C 14.19,17.03 14.1,17 14,17 c -0.55,0 -1,0.45 -1,1 0,0.55 0.45,1 1,1 0.55,0 1,-0.45 1,-1 0,-0.1 -0.03,-0.19 -0.06,-0.28 L 18.72,21.5 20,20.23 3.77,4 Z M 10,17 c -0.55,0 -1,0.45 -1,1 0,0.55 0.45,1 1,1 0.55,0 1,-0.45 1,-1 0,-0.55 -0.45,-1 -1,-1 z m 11,-3.5 c -0.28,0 -0.5,0.22 -0.5,0.5 0,0.28 0.22,0.5 0.5,0.5 0.28,0 0.5,-0.22 0.5,-0.5 0,-0.28 -0.22,-0.5 -0.5,-0.5 z M 6,13 c -0.55,0 -1,0.45 -1,1 0,0.55 0.45,1 1,1 0.55,0 1,-0.45 1,-1 C 7,13.45 6.55,13 6,13 Z M 3,9.5 C 2.72,9.5 2.5,9.72 2.5,10 2.5,10.28 2.72,10.5 3,10.5 3.28,10.5 3.5,10.28 3.5,10 3.5,9.72 3.28,9.5 3,9.5 Z m 7,11 c -0.28,0 -0.5,0.22 -0.5,0.5 0,0.28 0.22,0.5 0.5,0.5 0.28,0 0.5,-0.22 0.5,-0.5 0,-0.28 -0.22,-0.5 -0.5,-0.5 z M 6,17 c -0.55,0 -1,0.45 -1,1 0,0.55 0.45,1 1,1 0.55,0 1,-0.45 1,-1 C 7,17.45 6.55,17 6,17 Z M 3,13.5 c -0.28,0 -0.5,0.22 -0.5,0.5 0,0.28 0.22,0.5 0.5,0.5 0.28,0 0.5,-0.22 0.5,-0.5 0,-0.28 -0.22,-0.5 -0.5,-0.5 z"
       fill="#323232"
       transform="matrix(0.264583,0,0,0.264583,10.324,752.518)" />
  </g>
</svg>
