<?xml version="1.0" encoding="UTF-8" standalone="no"?>
<!-- Created with Inkscape (http://www.inkscape.org/) -->

<svg
   id="svg1100"
   version="1.1"
   viewBox="0 0 5.9848566 5.9848671"
   height="5.9848671mm"
   width="5.9848566mm"
   xmlns="http://www.w3.org/2000/svg"
   xmlns:svg="http://www.w3.org/2000/svg">
  <defs
     id="defs1097" />
  <g
     id="New_Layer_1652808974.7250216"
     style="display:inline"
     transform="translate(-92.220547,-694.91056)">
    <path
       id="Vector-39"
       d="M 19.9999,8.69 V 4 h -4.69 L 11.9999,0.690002 8.68994,4 h -4.69 V 8.69 L 0.689941,12 3.99994,15.31 V 20 h 4.69 l 3.30996,3.31 3.31,-3.31 h 4.69 v -4.69 l 3.31,-3.31 z m -8,9.31 c -0.89,0 -1.74,-0.2 -2.49996,-0.55 C 11.5599,16.5 12.9999,14.42 12.9999,12 12.9999,9.58 11.5599,7.5 9.49994,6.55 10.2599,6.2 11.1099,6 11.9999,6 c 3.31,0 6,2.69 6,6 0,3.31 -2.69,6 -6,6 z"
       fill="#323232"
       transform="matrix(0.264583,0,0,0.264583,92.038,694.728)" />
  </g>
</svg>
