<?xml version="1.0" encoding="UTF-8" standalone="no"?>
<!-- Created with Inkscape (http://www.inkscape.org/) -->

<svg
   id="svg1100"
   version="1.1"
   viewBox="0 0 4.2336068 4.2333278"
   height="4.2333279mm"
   width="4.2336068mm"
   xmlns="http://www.w3.org/2000/svg"
   xmlns:svg="http://www.w3.org/2000/svg">
  <defs
     id="defs1097" />
  <g
     id="New_Layer_1652806924.7848392"
     style="display:inline"
     transform="translate(-73.289432,-16.683232)">
    <path
       fill="#323232"
       d="m 4.25,5.66 c 0.1,0.13 5.74,7.33 5.74,7.33 V 19 c 0,0.55 0.45,1 1.01,1 h 2.01 c 0.55,0 1.01,-0.45 1.01,-1 v -6.02 c 0,0 5.49,-7.02 5.75,-7.34 C 20.03,5.32 20,5 20,5 20,4.45 19.55,4 18.99,4 H 5.01 C 4.4,4 4,4.48 4,5 4,5.2 4.06,5.44 4.25,5.66 Z"
       id="path2399"
       transform="matrix(0.264583,0,0,0.264583,72.2311,15.6249)" />
  </g>
</svg>
