<?xml version="1.0" encoding="UTF-8" standalone="no"?>
<!-- Created with Inkscape (http://www.inkscape.org/) -->

<svg
   id="svg1100"
   version="1.1"
   viewBox="0 0 4.7624941 4.7624941"
   height="4.7624941mm"
   width="4.7624941mm"
   xmlns="http://www.w3.org/2000/svg"
   xmlns:svg="http://www.w3.org/2000/svg">
  <defs
     id="defs1097" />
  <g
     id="New_Layer_1652808974.7273135"
     style="display:inline"
     transform="translate(-122.69275,-780.82675)">
    <path
       id="Vector-90"
       d="m 21,5 v 6.59 l -3,-3.01 -4,4.01 -4,-4 -4,4 L 3,9.58 V 5 C 3,3.9 3.9,3 5,3 h 14 c 1.1,0 2,0.9 2,2 z m -3,6.42 3,3.01 V 19 c 0,1.1 -0.9,2 -2,2 H 5 C 3.9,21 3,20.1 3,19 v -6.58 l 3,2.99 4,-4 4,4 z"
       fill="#323232"
       transform="matrix(0.264583,0,0,0.264583,121.899,780.033)" />
  </g>
</svg>
