<?xml version="1.0" encoding="UTF-8" standalone="no"?>
<!-- Created with Inkscape (http://www.inkscape.org/) -->

<svg
   id="svg1100"
   version="1.1"
   viewBox="0 0 5.0277386 4.7631554"
   height="4.7631555mm"
   width="5.0277386mm"
   xmlns="http://www.w3.org/2000/svg"
   xmlns:svg="http://www.w3.org/2000/svg">
  <defs
     id="defs1097" />
  <g
     id="New_Layer_1652808974.7279024"
     style="display:inline"
     transform="translate(-181.37917,-743.73809)">
    <path
       id="Vector-88"
       d="m 7,14 c -1.66,0 -3,1.34 -3,3 0,1.31 -1.16,2 -2,2 0.92,1.22 2.49,2 4,2 2.21,0 4,-1.79 4,-4 0,-1.66 -1.34,-3 -3,-3 z M 20.71,4.63 19.37,3.29 C 18.98,2.9 18.35,2.9 17.96,3.29 L 9,12.25 11.75,15 20.71,6.04 c 0.39,-0.39 0.39,-1.02 0,-1.41 z"
       fill="#323232"
       transform="matrix(0.264583,0,0,0.264583,180.85,742.945)" />
  </g>
</svg>
