<?xml version="1.0" encoding="UTF-8" standalone="no"?>
<!-- Created with Inkscape (http://www.inkscape.org/) -->

<svg
   id="svg1100"
   version="1.1"
   viewBox="0 0 5.8208261 3.7041619"
   height="3.7041619mm"
   width="5.8208261mm"
   xmlns="http://www.w3.org/2000/svg"
   xmlns:svg="http://www.w3.org/2000/svg">
  <defs
     id="defs1097" />
  <g
     id="New_Layer_1652808974.7284608"
     style="display:inline"
     transform="translate(-10.588583,-706.10491)">
    <path
       id="Vector-50"
       d="M 1,5 H 3 V 19 H 1 Z M 5,5 H 7 V 19 H 5 Z M 22,5 H 10 C 9.45,5 9,5.45 9,6 v 12 c 0,0.55 0.45,1 1,1 h 12 c 0.55,0 1,-0.45 1,-1 V 6 C 23,5.45 22.55,5 22,5 Z M 11,17 13.5,13.85 15.29,16 17.79,12.78 21,17 Z"
       fill="#323232"
       transform="matrix(0.264583,0,0,0.264583,10.324,704.782)" />
  </g>
</svg>
