<?xml version="1.0" encoding="UTF-8" standalone="no"?>
<!-- Created with Inkscape (http://www.inkscape.org/) -->

<svg
   id="svg1100"
   version="1.1"
   viewBox="0 0 5.2916598 5.2916598"
   height="5.2916598mm"
   width="5.2916598mm"
   xmlns="http://www.w3.org/2000/svg"
   xmlns:svg="http://www.w3.org/2000/svg">
  <defs
     id="defs1097" />
  <g
     id="New_Layer_1652808974.7289968"
     style="display:inline"
     transform="translate(-52.128166,-724.63217)">
    <path
       id="Vector-96"
       d="M 9.4,10.5 14.17,2.24 C 13.47,2.09 12.75,2 12,2 9.6,2 7.4,2.85 5.68,4.25 L 9.34,10.6 Z M 21.54,9 C 20.62,6.08 18.39,3.74 15.54,2.66 L 11.88,9 Z m 0.26,1 h -7.49 l 0.29,0.5 4.76,8.25 C 21,16.97 22,14.61 22,12 22,11.31 21.93,10.65 21.8,10 Z M 8.54,12 4.64,5.25 C 3.01,7.03 2,9.39 2,12 c 0,0.69 0.07,1.35 0.2,2 h 7.49 z m -6.08,3 c 0.92,2.92 3.15,5.26 6,6.34 L 12.12,15 Z m 11.27,0 -3.9,6.76 c 0.7,0.15 1.42,0.24 2.17,0.24 2.4,0 4.6,-0.85 6.32,-2.25 L 14.66,13.4 Z"
       fill="#323232"
       transform="matrix(0.264583,0,0,0.264583,51.599,724.103)" />
  </g>
</svg>
