<?xml version="1.0" encoding="UTF-8" standalone="no"?>
<!-- Created with Inkscape (http://www.inkscape.org/) -->

<svg
   id="svg1100"
   version="1.1"
   viewBox="0 0 3.7041619 6.3499918"
   height="6.3499918mm"
   width="3.7041619mm"
   xmlns="http://www.w3.org/2000/svg"
   xmlns:svg="http://www.w3.org/2000/svg">
  <defs
     id="defs1097" />
  <g
     id="New_Layer_1652808974.7300985"
     style="display:inline"
     transform="translate(-162.46192,-789.558)">
    <path
       id="Vector-56"
       d="M 10,20 H 5 v 2 h 5 v 2 l 3,-3 -3,-3 z m 4,0 v 2 h 5 V 20 Z M 12,8 c 1.1,0 2,-0.9 2,-2 0,-1.1 -0.9,-2 -2,-2 -1.1,0 -1.99,0.9 -1.99,2 0,1.1 0.89,2 1.99,2 z M 17,0 H 7 C 5.9,0 5,0.9 5,2 v 14 c 0,1.1 0.9,2 2,2 h 10 c 1.1,0 2,-0.9 2,-2 V 2 C 19,0.9 18.1,0 17,0 Z M 7,2 H 17 V 12.5 C 17,10.83 13.67,10 12,10 10.33,10 7,10.83 7,12.5 Z"
       fill="#323232"
       transform="matrix(0.264583,0,0,0.264583,161.139,789.558)" />
  </g>
</svg>
