<?xml version="1.0" encoding="UTF-8" standalone="no"?>
<!-- Created with Inkscape (http://www.inkscape.org/) -->

<svg
   id="svg1100"
   version="1.1"
   viewBox="0 0 5.2916598 5.5562429"
   height="5.5562429mm"
   width="5.2916598mm"
   xmlns="http://www.w3.org/2000/svg"
   xmlns:svg="http://www.w3.org/2000/svg">
  <defs
     id="defs1097" />
  <g
     id="New_Layer_1652808974.7311704"
     style="display:inline"
     transform="translate(-10.853166,-743.34158)">
    <path
       id="Vector-98"
       d="M 14,5 C 14,3.9 13.1,3 12,3 H 11 V 2 C 11,1.45 10.55,1 10,1 H 6 C 5.45,1 5,1.45 5,2 V 3 H 4 C 2.9,3 2,3.9 2,5 v 15 c 0,1.1 0.9,2 2,2 h 8 c 1.1,0 2,-0.9 2,-2 h 8 V 5 Z m -2,13 h -2 v -2 h 2 z M 12,9 H 10 V 7 h 2 z m 4,9 h -2 v -2 h 2 z M 16,9 H 14 V 7 h 2 z m 4,9 h -2 v -2 h 2 z M 20,9 H 18 V 7 h 2 z"
       fill="#323232"
       transform="matrix(0.264583,0,0,0.264583,10.324,743.077)" />
  </g>
</svg>
