<?xml version="1.0" encoding="UTF-8" standalone="no"?>
<!-- Created with Inkscape (http://www.inkscape.org/) -->

<svg
   id="svg1100"
   version="1.1"
   viewBox="0 0 5.2916598 5.2916598"
   height="5.2916598mm"
   width="5.2916598mm"
   xmlns="http://www.w3.org/2000/svg"
   xmlns:svg="http://www.w3.org/2000/svg">
  <defs
     id="defs1097" />
  <g
     id="New_Layer_1652808974.731708"
     style="display:inline"
     transform="translate(-21.171966,-724.63217)">
    <path
       id="Vector-481"
       d="M 18,6 V 4 L 16,2 H 11 L 9,4 V 6 H 5 v 11 c 0,0 1,2 2,2 h 13 c 0,0 2,-0.98 2,-2 V 6 Z M 4,9 H 2 v 11 c 0,1.11 0.89,2 2,2 h 14 c 1.11,0 2,-0.89 2,-2 H 4 Z m 7,-4 c 0,-0.55 0.53,-1 1,-1 h 3 c 0.46,0 1,0.54 1,1 V 6 H 11 Z M 5,6 h 17 v 11 c 0,1.1 -0.9,2 -2,2 H 7 C 5.9,19 5,18.1 5,17 Z"
       fill="#323232"
       transform="matrix(0.264583,0,0,0.264583,20.6428,724.103)" />
  </g>
</svg>
