<?xml version="1.0" encoding="UTF-8" standalone="no"?>
<!-- Created with Inkscape (http://www.inkscape.org/) -->

<svg
   id="svg1100"
   version="1.1"
   viewBox="0 0 4.7624941 4.7624941"
   height="4.7624941mm"
   width="4.7624941mm"
   xmlns="http://www.w3.org/2000/svg"
   xmlns:svg="http://www.w3.org/2000/svg">
  <defs
     id="defs1097" />
  <g
     id="New_Layer_1652808974.732237"
     style="display:inline"
     transform="translate(-82.863549,-762.30575)">
    <path
       id="Vector-03"
       d="m 12,8 c -2.21,0 -4,1.79 -4,4 0,2.21 1.79,4 4,4 2.21,0 4,-1.79 4,-4 C 16,9.79 14.21,8 12,8 Z M 5,15 H 3 v 4 c 0,1.1 0.9,2 2,2 H 9 V 19 H 5 Z M 5,5 H 9 V 3 H 5 C 3.9,3 3,3.9 3,5 V 9 H 5 Z M 19,3 h -4 v 2 h 4 v 4 h 2 V 5 C 21,3.9 20.1,3 19,3 Z m 0,16 h -4 v 2 h 4 c 1.1,0 2,-0.9 2,-2 v -4 h -2 z"
       fill="#323232"
       transform="matrix(0.264583,0,0,0.264583,82.0698,761.512)" />
  </g>
</svg>
