<?xml version="1.0" encoding="UTF-8" standalone="no"?>
<!-- Created with Inkscape (http://www.inkscape.org/) -->

<svg
   id="svg1100"
   version="1.1"
   viewBox="0 0 5.2916598 5.2916598"
   height="5.2916598mm"
   width="5.2916598mm"
   xmlns="http://www.w3.org/2000/svg"
   xmlns:svg="http://www.w3.org/2000/svg">
  <defs
     id="defs1097" />
  <g
     id="New_Layer_1652808974.733842"
     style="display:inline"
     transform="translate(-171.45817,-733.89817)">
    <path
       id="Vector-763"
       d="M 22,16 V 4 C 22,2.9 21.1,2 20,2 H 8 C 6.9,2 6,2.9 6,4 v 12 c 0,1.1 0.9,2 2,2 h 12 c 1.1,0 2,-0.9 2,-2 z M 11,12 13.03,14.71 16,11 20,16 H 8 Z M 2,6 v 14 c 0,1.1 0.9,2 2,2 H 18 V 20 H 4 V 6 Z"
       fill="#323232"
       transform="matrix(0.264583,0,0,0.264583,170.929,733.369)" />
  </g>
</svg>
