<?xml version="1.0" encoding="UTF-8" standalone="no"?>
<!-- Created with Inkscape (http://www.inkscape.org/) -->

<svg
   id="svg1100"
   version="1.1"
   viewBox="0 0 5.2916598 5.2916598"
   height="5.2916598mm"
   width="5.2916598mm"
   xmlns="http://www.w3.org/2000/svg"
   xmlns:svg="http://www.w3.org/2000/svg">
  <defs
     id="defs1097" />
  <g
     id="New_Layer_1652808974.7343683"
     style="display:inline"
     transform="translate(-161.66817,-733.89817)">
    <g
       id="collections_bookmark"
       transform="matrix(0.264583,0,0,0.264583,161.139,733.369)">
      <path
         id="Vector-175"
         d="M 4,6 H 2 v 14 c 0,1.1 0.9,2 2,2 H 18 V 20 H 4 Z"
         fill="#323232" />
      <path
         id="Vector_2-9"
         d="M 20,2 H 8 C 6.9,2 6,2.9 6,4 v 12 c 0,1.1 0.9,2 2,2 h 12 c 1.1,0 2,-0.9 2,-2 V 4 C 22,2.9 21.1,2 20,2 Z M 20,12 17.5,10.5 15,12 V 4 h 5 z"
         fill="#323232" />
    </g>
  </g>
</svg>
