<?xml version="1.0" encoding="UTF-8" standalone="no"?>
<!-- Created with Inkscape (http://www.inkscape.org/) -->

<svg
   id="svg1100"
   version="1.1"
   viewBox="0 0 4.7624941 4.7624941"
   height="4.7624941mm"
   width="4.7624941mm"
   xmlns="http://www.w3.org/2000/svg"
   xmlns:svg="http://www.w3.org/2000/svg">
  <defs
     id="defs1097" />
  <g
     id="New_Layer_1652808974.7354496"
     style="display:inline"
     transform="translate(-62.685049,-762.30575)">
    <path
       id="Vector-178"
       d="m 12,3 c -4.97,0 -9,4.03 -9,9 0,4.97 4.03,9 9,9 0.83,0 1.5,-0.67 1.5,-1.5 0,-0.39 -0.15,-0.74 -0.39,-1.01 -0.23,-0.26 -0.38,-0.61 -0.38,-0.99 0,-0.83 0.67,-1.5 1.5,-1.5 H 16 c 2.76,0 5,-2.24 5,-5 C 21,6.58 16.97,3 12,3 Z M 6.5,12 C 5.67,12 5,11.33 5,10.5 5,9.67 5.67,9 6.5,9 7.33,9 8,9.67 8,10.5 8,11.33 7.33,12 6.5,12 Z m 3,-4 C 8.67,8 8,7.33 8,6.5 8,5.67 8.67,5 9.5,5 10.33,5 11,5.67 11,6.5 11,7.33 10.33,8 9.5,8 Z m 5,0 C 13.67,8 13,7.33 13,6.5 13,5.67 13.67,5 14.5,5 15.33,5 16,5.67 16,6.5 16,7.33 15.33,8 14.5,8 Z m 3,4 C 16.67,12 16,11.33 16,10.5 16,9.67 16.67,9 17.5,9 18.33,9 19,9.67 19,10.5 19,11.33 18.33,12 17.5,12 Z"
       fill="#323232"
       transform="matrix(0.264583,0,0,0.264583,61.8913,761.512)" />
  </g>
</svg>
