<?xml version="1.0" encoding="UTF-8" standalone="no"?>
<!-- Created with Inkscape (http://www.inkscape.org/) -->

<svg
   id="svg1100"
   version="1.1"
   viewBox="0 0 4.497911 5.820826"
   height="5.8208261mm"
   width="4.497911mm"
   xmlns="http://www.w3.org/2000/svg"
   xmlns:svg="http://www.w3.org/2000/svg">
  <defs
     id="defs1097" />
  <g
     id="New_Layer_1652806959.0227993"
     style="display:inline"
     transform="translate(-135.06991,-67.483283)">
    <path
       fill="#323232"
       d="m 18,8 c -2.21,0 -4,1.79 -4,4 0,2.21 1.79,4 4,4 2.21,0 4,-1.79 4,-4 0,-2.21 -1.79,-4 -4,-4 z m -2.5,4 A 2.5,2.5 0 0 1 18,9.5 c 0.42,0 0.8,0.11 1.15,0.29 l -3.36,3.36 C 15.61,12.8 15.5,12.42 15.5,12 Z m 2.5,2.5 c -0.42,0 -0.8,-0.11 -1.15,-0.29 l 3.36,-3.36 C 20.39,11.2 20.5,11.58 20.5,12 A 2.5,2.5 0 0 1 18,14.5 Z M 17,18 H 7 V 6 h 10 v 1 h 2 V 3 C 19,1.9 18.1,1 17,1 H 7 C 5.9,1 5,1.9 5,3 v 18 c 0,1.1 0.9,2 2,2 h 10 c 1.1,0 2,-0.9 2,-2 v -4 h -2 z"
       id="path1447"
       transform="matrix(0.264583,0,0,0.264583,133.747,67.2187)" />
  </g>
</svg>
