<?xml version="1.0" encoding="UTF-8" standalone="no"?>
<!-- Created with Inkscape (http://www.inkscape.org/) -->

<svg
   id="svg1100"
   version="1.1"
   viewBox="0 0 6.3499918 4.7624941"
   height="4.7624941mm"
   width="6.3499918mm"
   xmlns="http://www.w3.org/2000/svg"
   xmlns:svg="http://www.w3.org/2000/svg">
  <defs
     id="defs1097" />
  <g
     id="New_Layer_1652808974.737056"
     style="display:inline"
     transform="translate(-20.6428,-695.52175)">
    <path
       id="Vector-85"
       d="m 16,8 h -2 v 3 h -3 v 2 h 3 v 3 h 2 v -3 h 3 V 11 H 16 Z M 2,12 C 2,9.21 3.64,6.8 6.01,5.68 V 3.52 C 2.52,4.76 0,8.09 0,12 c 0,3.91 2.52,7.24 6.01,8.48 V 18.32 C 3.64,17.2 2,14.79 2,12 Z M 15,3 c -4.96,0 -9,4.04 -9,9 0,4.96 4.04,9 9,9 4.96,0 9,-4.04 9,-9 0,-4.96 -4.04,-9 -9,-9 z m 0,16 c -3.86,0 -7,-3.14 -7,-7 0,-3.86 3.14,-7 7,-7 3.86,0 7,3.14 7,7 0,3.86 -3.14,7 -7,7 z"
       fill="#323232"
       transform="matrix(0.264583,0,0,0.264583,20.6428,694.728)" />
  </g>
</svg>
