<?xml version="1.0" encoding="UTF-8" standalone="no"?>
<!-- Created with Inkscape (http://www.inkscape.org/) -->

<svg
   id="svg1100"
   version="1.1"
   viewBox="0 0 6.3499918 6.3499918"
   height="6.3499918mm"
   width="6.3499918mm"
   xmlns="http://www.w3.org/2000/svg"
   xmlns:svg="http://www.w3.org/2000/svg">
  <defs
     id="defs1097" />
  <g
     id="New_Layer_1652808974.7429657"
     style="display:inline"
     transform="translate(-10.324,-694.728)">
    <path
       id="Vector-643"
       d="M 7.47,21.49 C 4.2,19.93 1.86,16.76 1.5,13 H 0 c 0.51,6.16 5.66,11 11.95,11 0.23,0 0.44,-0.02 0.66,-0.03 L 8.8,20.15 Z M 12.05,0 C 11.82,0 11.61,0.02 11.39,0.04 L 15.2,3.85 16.53,2.52 C 19.8,4.07 22.14,7.24 22.5,11 H 24 C 23.49,4.84 18.34,0 12.05,0 Z M 16,14 h 2 V 8 C 18,6.89 17.1,6 16,6 h -6 v 2 h 6 z M 8,16 V 4 H 6 V 6 H 4 v 2 h 2 v 8 c 0,1.1 0.89,2 2,2 h 8 v 2 h 2 v -2 h 2 v -2 z"
       fill="#323232"
       transform="matrix(0.264583,0,0,0.264583,10.324,694.728)" />
  </g>
</svg>
