<?xml version="1.0" encoding="UTF-8" standalone="no"?>
<!-- Created with Inkscape (http://www.inkscape.org/) -->

<svg
   id="svg1100"
   version="1.1"
   viewBox="0 0 5.2916598 4.7624941"
   height="4.7624941mm"
   width="5.2916598mm"
   xmlns="http://www.w3.org/2000/svg"
   xmlns:svg="http://www.w3.org/2000/svg">
  <defs
     id="defs1097" />
  <g
     id="New_Layer_1652808974.7463634"
     style="display:inline"
     transform="translate(-31.490666,-734.16275)">
    <path
       id="Vector-594"
       d="M 12.95,19 H 20 V 7 H 4 v 12 h 7.24 c 0.14,-0.98 0.42,-2.05 -0.16,-2.43 -0.89,-0.59 -1.27,2.06 -2.8,1.35 C 6.89,16.8 9.33,16.63 8.78,14.65 8.56,13.86 6.5,15.01 6.38,13.41 6.3,12.41 7.87,12.67 7.89,11.92 7.92,11.17 6.86,10.87 7.64,10.01 7.86,9.77 8.35,9.75 8.55,9.82 c 0.79,0.27 1.55,1.82 2.51,1.19 1.03,-0.66 -1.88,-2.35 0,-2.86 1.64,-0.44 1.31,2.08 2.65,2.44 1.94,0.52 2.65,-4.55 4.41,-2.33 1.85,2.33 -3.43,2.27 -2.85,4.01 0.34,1.01 2.15,-1.2 2.76,0.53 0.64,1.83 -3.09,0.82 -3.04,1.66 0.06,0.83 2.41,0.55 1.64,2.12 -1.14,1.86 -3,-1.03 -3.81,0.09 -0.39,0.57 -0.09,1.49 0.13,2.33 z M 20,5 c 1.1,0 2,0.9 2,2 v 12 c 0,1.1 -0.9,2 -2,2 H 4 C 2.9,21 2,20.1 2,19 V 7 C 2,5.9 2.9,5 4,5 H 7.17 L 9,3 h 6 l 1.83,2 z m -1.86,13.01 c -0.47,0 -0.86,-0.38 -0.86,-0.86 0,-0.48 0.38,-0.86 0.86,-0.86 0.47,0 0.86,0.38 0.86,0.86 0,0.48 -0.38,0.86 -0.86,0.86 z"
       fill="#323232"
       transform="matrix(0.264583,0,0,0.264583,30.9615,733.369)" />
  </g>
</svg>
