<?xml version="1.0" encoding="UTF-8" standalone="no"?>
<!-- Created with Inkscape (http://www.inkscape.org/) -->

<svg
   id="svg1100"
   version="1.1"
   viewBox="0 0 5.0270772 4.7624941"
   height="4.7624941mm"
   width="5.0270772mm"
   xmlns="http://www.w3.org/2000/svg"
   xmlns:svg="http://www.w3.org/2000/svg">
  <defs
     id="defs1097" />
  <g
     id="New_Layer_1652808974.747441"
     style="display:inline"
     transform="translate(-62.552766,-753.31175)">
    <path
       id="Vector-24"
       d="M 15,18.5 C 12.49,18.5 10.32,17.08 9.24,15 H 15 l 1,-2 H 8.58 C 8.53,12.67 8.5,12.34 8.5,12 8.5,11.66 8.53,11.33 8.58,11 H 15 L 16,9 H 9.24 C 10.32,6.92 12.5,5.5 15,5.5 c 1.61,0 3.09,0.59 4.23,1.57 L 21,5.3 C 19.41,3.87 17.3,3 15,3 11.08,3 7.76,5.51 6.52,9 H 3 L 2,11 H 6.06 C 6.02,11.33 6,11.66 6,12 c 0,0.34 0.02,0.67 0.06,1 H 3 l -1,2 h 4.52 c 1.24,3.49 4.56,6 8.48,6 2.31,0 4.41,-0.87 6,-2.3 L 19.22,16.93 C 18.09,17.91 16.62,18.5 15,18.5 Z"
       fill="#323232"
       transform="matrix(0.264583,0,0,0.264583,62.0236,752.518)" />
  </g>
</svg>
