<?xml version="1.0" encoding="UTF-8" standalone="no"?>
<!-- Created with Inkscape (http://www.inkscape.org/) -->

<svg
   id="svg1100"
   version="1.1"
   viewBox="0 0 5.0270772 3.439579"
   height="3.439579mm"
   width="5.0270772mm"
   xmlns="http://www.w3.org/2000/svg"
   xmlns:svg="http://www.w3.org/2000/svg">
  <defs
     id="defs1097" />
  <g
     id="New_Layer_1652808974.749041"
     style="display:inline"
     transform="translate(-52.260466,-753.97292)">
    <path
       id="Vector-89"
       d="m 15.05,16.29 2.86,-3.07 c 0.38,-0.39 0.72,-0.79 1.04,-1.18 0.32,-0.39 0.59,-0.78 0.82,-1.17 C 20,10.48 20.18,10.09 20.31,9.7 20.44,9.31 20.5,8.91 20.5,8.52 20.5,7.99 20.41,7.5 20.23,7.06 20.05,6.62 19.79,6.25 19.45,5.95 19.11,5.64 18.68,5.41 18.19,5.24 17.68,5.08 17.11,5 16.47,5 15.78,5 15.16,5.11 14.62,5.32 14.08,5.53 13.62,5.83 13.26,6.2 12.89,6.57 12.61,7 12.42,7.5 12.24,7.97 12.15,8.47 12.14,9 h 2.14 c 0.01,-0.31 0.05,-0.6 0.13,-0.87 0.09,-0.29 0.23,-0.54 0.4,-0.75 0.18,-0.21 0.41,-0.37 0.68,-0.49 0.27,-0.12 0.6,-0.18 0.96,-0.18 0.31,0 0.58,0.05 0.81,0.15 0.23,0.1 0.43,0.25 0.59,0.43 0.16,0.18 0.28,0.4 0.37,0.65 0.08,0.25 0.13,0.52 0.13,0.81 0,0.22 -0.03,0.43 -0.08,0.65 -0.06,0.22 -0.15,0.45 -0.29,0.7 -0.14,0.25 -0.32,0.53 -0.56,0.83 -0.23,0.3 -0.52,0.65 -0.88,1.03 l -4.17,4.55 V 18 H 21 V 16.29 Z M 2,11 v 2 h 8 v -2 z"
       fill="#323232"
       transform="matrix(0.264583,0,0,0.264583,51.7313,752.65)" />
  </g>
</svg>
