<?xml version="1.0" encoding="UTF-8" standalone="no"?>
<!-- Created with Inkscape (http://www.inkscape.org/) -->

<svg
   id="svg1100"
   version="1.1"
   viewBox="0 0 5.2916598 3.439579"
   height="3.439579mm"
   width="5.2916598mm"
   xmlns="http://www.w3.org/2000/svg"
   xmlns:svg="http://www.w3.org/2000/svg">
  <defs
     id="defs1097" />
  <g
     id="New_Layer_1652808974.7501152"
     style="display:inline"
     transform="translate(-21.171966,-744.39991)">
    <path
       id="Vector-80"
       d="m 16.05,16.29 2.86,-3.07 c 0.38,-0.39 0.72,-0.79 1.04,-1.18 0.32,-0.39 0.59,-0.78 0.82,-1.17 C 21,10.48 21.18,10.09 21.31,9.7 21.44,9.31 21.5,8.91 21.5,8.52 21.5,7.99 21.41,7.5 21.23,7.06 21.05,6.62 20.79,6.25 20.45,5.95 20.11,5.64 19.68,5.41 19.19,5.24 18.68,5.08 18.11,5 17.47,5 16.78,5 16.16,5.11 15.62,5.32 15.08,5.53 14.62,5.83 14.26,6.2 13.89,6.57 13.61,7 13.42,7.5 13.24,7.97 13.15,8.47 13.14,9 h 2.14 c 0.01,-0.31 0.05,-0.6 0.13,-0.87 0.09,-0.29 0.23,-0.54 0.4,-0.75 0.18,-0.21 0.41,-0.37 0.68,-0.49 0.27,-0.12 0.6,-0.18 0.96,-0.18 0.31,0 0.58,0.05 0.81,0.15 0.23,0.1 0.43,0.25 0.59,0.43 0.16,0.18 0.28,0.4 0.37,0.65 0.08,0.25 0.13,0.52 0.13,0.81 0,0.22 -0.03,0.43 -0.08,0.65 -0.06,0.22 -0.15,0.45 -0.29,0.7 -0.14,0.25 -0.32,0.53 -0.56,0.83 -0.23,0.3 -0.52,0.65 -0.88,1.03 l -4.17,4.55 V 18 H 22 V 16.29 Z M 8,7 H 6 v 4 H 2 v 2 h 4 v 4 h 2 v -4 h 4 V 11 H 8 Z"
       fill="#323232"
       transform="matrix(0.264583,0,0,0.264583,20.6428,743.077)" />
  </g>
</svg>
