<?xml version="1.0" encoding="UTF-8" standalone="no"?>
<!-- Created with Inkscape (http://www.inkscape.org/) -->

<svg
   id="svg1100"
   version="1.1"
   viewBox="0 0 2.1933904 3.439579"
   height="3.439579mm"
   width="2.1933904mm"
   xmlns="http://www.w3.org/2000/svg"
   xmlns:svg="http://www.w3.org/2000/svg">
  <defs
     id="defs1097" />
  <g
     id="New_Layer_1652808974.750659"
     style="display:inline"
     transform="translate(-53.677351,-800.80291)">
    <path
       id="Vector-21"
       d="m 16.1401,12.5 c 0,1 -0.1,1.85 -0.3,2.55 -0.2,0.7 -0.48,1.27 -0.83,1.7 -0.36,0.44 -0.79,0.75 -1.3,0.95 -0.51,0.2 -1.07,0.3 -1.7,0.3 -0.62,0 -1.18,-0.1 -1.69,-0.3 -0.50999,-0.2 -0.94999,-0.51 -1.30999,-0.95 -0.36,-0.44 -0.65,-1.01 -0.85,-1.7 -0.2,-0.7 -0.3,-1.55 -0.3,-2.55 v -2.04 c 0,-1 0.1,-1.85 0.3,-2.55 0.2,-0.7 0.48,-1.26 0.84,-1.69 0.36,-0.43 0.8,-0.74 1.30999,-0.93 0.5,-0.19 1.07,-0.29 1.69,-0.29 0.63,0 1.19,0.1 1.7,0.29 0.51,0.19 0.95,0.5 1.31,0.93 0.36,0.43 0.64,0.99 0.84,1.69 0.2,0.7 0.3,1.54 0.3,2.55 v 2.04 z m -2.11,-2.36 c 0,-0.64 -0.05,-1.18 -0.13,-1.62 -0.09,-0.44 -0.22,-0.79 -0.4,-1.06 -0.17,-0.27 -0.39,-0.46 -0.64,-0.58 -0.25,-0.13 -0.54,-0.19 -0.86,-0.19 -0.32,0 -0.61,0.06 -0.86,0.18 -0.25,0.12 -0.47,0.31 -0.64,0.58 -0.17,0.27 -0.31,0.62 -0.4,1.06 -0.09,0.44 -0.12999,0.98 -0.12999,1.62 v 2.67 c 0,0.64 0.04999,1.18 0.13999,1.62 0.09,0.45 0.23,0.81 0.4,1.09 0.17,0.28 0.39,0.48 0.64,0.61 0.25,0.13 0.54,0.19 0.87,0.19 0.33,0 0.62,-0.06 0.87,-0.19 0.25,-0.13 0.46,-0.33 0.63,-0.61 0.17,-0.28 0.3,-0.64 0.39,-1.09 0.09,-0.45 0.13,-0.99 0.13,-1.62 v -2.66 z"
       fill="#323232"
       transform="matrix(0.264583,0,0,0.264583,51.5977,799.48)" />
  </g>
</svg>
