<?xml version="1.0" encoding="UTF-8" standalone="no"?>
<!-- Created with Inkscape (http://www.inkscape.org/) -->

<svg
   id="svg1100"
   version="1.1"
   viewBox="0 0 5.556243 5.5562429"
   height="5.5562429mm"
   width="5.5562429mm"
   xmlns="http://www.w3.org/2000/svg"
   xmlns:svg="http://www.w3.org/2000/svg">
  <defs
     id="defs1097" />
  <g
     id="New_Layer_1652808974.7511904"
     style="display:inline"
     transform="translate(-132.16717,-714.96858)">
    <g
       id="face_retouching_natural"
       transform="matrix(0.264583,0,0,0.264583,131.638,714.704)">
      <path
         id="Vector-05"
         d="m 9,14.25 c 0.69036,0 1.25,-0.5596 1.25,-1.25 0,-0.6904 -0.55964,-1.25 -1.25,-1.25 -0.69036,0 -1.25,0.5596 -1.25,1.25 0,0.6904 0.55964,1.25 1.25,1.25 z"
         fill="#323232" />
      <path
         id="Vector_2-1"
         d="m 20.77,8.58 -0.92,2.01 C 19.94,11.05 20,11.52 20,12 20,16.41 16.41,20 12,20 7.59,20 4,16.41 4,12 4,11.95 4.01,11.9 4,11.86 6.6,10.88 8.69,8.87 9.74,6.31 11.58,8.56 14.37,10 17.5,10 17.95,10 18.39,9.96 18.83,9.9 L 18.23,8.58 17.35,6.65 15.42,5.77 12.63,4.5 15.42,3.23 16.13,2.91 C 14.87,2.33 13.47,2 12,2 6.48,2 2,6.48 2,12 2,17.52 6.48,22 12,22 17.52,22 22,17.52 22,12 22,10.53 21.67,9.13 21.1,7.87 Z"
         fill="#323232" />
      <path
         id="Vector_3"
         d="m 15,14.25 c 0.6904,0 1.25,-0.5596 1.25,-1.25 0,-0.6904 -0.5596,-1.25 -1.25,-1.25 -0.6904,0 -1.25,0.5596 -1.25,1.25 0,0.6904 0.5596,1.25 1.25,1.25 z"
         fill="#323232" />
      <path
         id="Vector_4"
         d="M 20.6,5.6 19.5,8 18.4,5.6 16,4.5 18.4,3.4 19.5,1 20.6,3.4 23,4.5 Z"
         fill="#323232" />
    </g>
  </g>
</svg>
