<?xml version="1.0" encoding="UTF-8" standalone="no"?>
<!-- Created with Inkscape (http://www.inkscape.org/) -->

<svg
   id="svg1100"
   version="1.1"
   viewBox="0 0 5.8208261 5.820826"
   height="5.8208261mm"
   width="5.8208261mm"
   xmlns="http://www.w3.org/2000/svg"
   xmlns:svg="http://www.w3.org/2000/svg">
  <defs
     id="defs1097" />
  <g
     id="New_Layer_1652808974.751737"
     style="display:inline"
     transform="translate(-10.588583,-714.83658)">
    <path
       id="Vector-10"
       d="M 15.96,10.29 13.21,13.83 11.25,11.47 8.5,15 h 11 z M 3,5 H 1 v 16 c 0,1.1 0.9,2 2,2 H 19 V 21 H 3 Z M 21,1 H 7 C 5.9,1 5,1.9 5,3 v 14 c 0,1.1 0.9,2 2,2 h 14 c 1.1,0 2,-0.9 2,-2 V 3 C 23,1.9 22.1,1 21,1 Z m 0,16 H 7 V 3 h 14 z"
       fill="#323232"
       transform="matrix(0.264583,0,0,0.264583,10.324,714.572)" />
  </g>
</svg>
