<?xml version="1.0" encoding="UTF-8" standalone="no"?>
<!-- Created with Inkscape (http://www.inkscape.org/) -->

<svg
   id="svg1100"
   version="1.1"
   viewBox="0 0 5.8208261 5.820826"
   height="5.8208261mm"
   width="5.8208261mm"
   xmlns="http://www.w3.org/2000/svg"
   xmlns:svg="http://www.w3.org/2000/svg">
  <defs
     id="defs1097" />
  <g
     id="New_Layer_1652808974.7554996"
     style="display:inline"
     transform="translate(-122.16358,-705.04658)">
    <path
       id="Vector-240"
       d="M 3,5 H 1 v 16 c 0,1.1 0.9,2 2,2 H 19 V 21 H 3 Z M 21,1 H 7 C 5.9,1 5,1.9 5,3 v 14 c 0,1.1 0.9,2 2,2 h 14 c 1.1,0 2,-0.9 2,-2 V 3 C 23,1.9 22.1,1 21,1 Z m 0,16 H 7 V 3 H 21 Z M 13,15 17,7 V 5 h -6 v 2 h 4 l -4,8 z"
       fill="#323232"
       transform="matrix(0.264583,0,0,0.264583,121.899,704.782)" />
  </g>
</svg>
