<?xml version="1.0" encoding="UTF-8" standalone="no"?>
<!-- Created with Inkscape (http://www.inkscape.org/) -->

<svg
   id="svg1100"
   version="1.1"
   viewBox="0 0 5.8208261 5.820826"
   height="5.8208261mm"
   width="5.8208261mm"
   xmlns="http://www.w3.org/2000/svg"
   xmlns:svg="http://www.w3.org/2000/svg">
  <defs
     id="defs1097" />
  <g
     id="New_Layer_1652808974.7560298"
     style="display:inline"
     transform="translate(-20.907383,-714.83658)">
    <path
       id="Vector-629"
       d="M 3,5 H 1 v 16 c 0,1.1 0.9,2 2,2 H 19 V 21 H 3 Z M 21,1 H 7 C 5.9,1 5,1.9 5,3 v 14 c 0,1.1 0.9,2 2,2 h 14 c 1.1,0 2,-0.9 2,-2 V 3 C 23,1.9 22.1,1 21,1 Z m 0,16 H 7 V 3 h 14 z m -8,-2 h 2 c 1.1,0 2,-0.89 2,-2 V 11.5 C 17,10.67 16.33,10 15.5,10 16.33,10 17,9.33 17,8.5 V 7 C 17,5.89 16.1,5 15,5 H 13 C 11.9,5 11,5.89 11,7 V 8.5 C 11,9.33 11.67,10 12.5,10 11.67,10 11,10.67 11,11.5 V 13 c 0,1.11 0.9,2 2,2 z m 0,-8 h 2 v 2 h -2 z m 0,4 h 2 v 2 h -2 z"
       fill="#323232"
       transform="matrix(0.264583,0,0,0.264583,20.6428,714.572)" />
  </g>
</svg>
