<?xml version="1.0" encoding="UTF-8" standalone="no"?>
<!-- Created with Inkscape (http://www.inkscape.org/) -->

<svg
   id="svg1100"
   version="1.1"
   viewBox="0 0 4.7624941 4.7624941"
   height="4.7624941mm"
   width="4.7624941mm"
   xmlns="http://www.w3.org/2000/svg"
   xmlns:svg="http://www.w3.org/2000/svg">
  <defs
     id="defs1097" />
  <g
     id="New_Layer_1652808974.7581706"
     style="display:inline"
     transform="translate(-102.78575,-753.31175)">
    <path
       id="Vector-34"
       d="M 5,15 H 3 v 4 c 0,1.1 0.9,2 2,2 H 9 V 19 H 5 Z M 5,5 H 9 V 3 H 5 C 3.9,3 3,3.9 3,5 V 9 H 5 Z M 19,3 h -4 v 2 h 4 v 4 h 2 V 5 C 21,3.9 20.1,3 19,3 Z m 0,16 h -4 v 2 h 4 c 1.1,0 2,-0.9 2,-2 V 15 H 19 Z M 12,9 c -1.66,0 -3,1.34 -3,3 0,1.66 1.34,3 3,3 1.66,0 3,-1.34 3,-3 0,-1.66 -1.34,-3 -3,-3 z"
       fill="#323232"
       transform="matrix(0.264583,0,0,0.264583,101.992,752.518)" />
  </g>
</svg>
