<?xml version="1.0" encoding="UTF-8" standalone="no"?>
<!-- Created with Inkscape (http://www.inkscape.org/) -->

<svg
   id="svg1100"
   version="1.1"
   viewBox="0 0 6.3499918 4.2333278"
   height="4.2333279mm"
   width="6.3499918mm"
   xmlns="http://www.w3.org/2000/svg"
   xmlns:svg="http://www.w3.org/2000/svg">
  <defs
     id="defs1097" />
  <g
     id="New_Layer_1652808974.758711"
     style="display:inline"
     transform="translate(-41.2803,-695.78633)">
    <path
       id="Vector-039"
       d="M 19.35,10.04 C 18.67,6.59 15.64,4 12,4 9.11,4 6.61,5.64 5.36,8.04 2.35,8.36 0,10.9 0,14 c 0,3.31 2.69,6 6,6 h 13 c 2.76,0 5,-2.24 5,-5 0,-2.64 -2.05,-4.78 -4.65,-4.96 z M 19,18 H 6 c -2.21,0 -4,-1.79 -4,-4 0,-2.21 1.79,-4 4,-4 2.21,0 4,1.79 4,4 h 2 C 12,11.24 10.14,8.92 7.6,8.22 8.61,6.88 10.2,6 12,6 c 3.03,0 5.5,2.47 5.5,5.5 V 12 H 19 c 1.65,0 3,1.35 3,3 0,1.65 -1.35,3 -3,3 z"
       fill="#323232"
       transform="matrix(0.264583,0,0,0.264583,41.2803,694.728)" />
  </g>
</svg>
