<?xml version="1.0" encoding="UTF-8" standalone="no"?>
<!-- Created with Inkscape (http://www.inkscape.org/) -->

<svg
   id="svg1100"
   version="1.1"
   viewBox="0 0 5.2916598 5.820826"
   height="5.8208261mm"
   width="5.2916598mm"
   xmlns="http://www.w3.org/2000/svg"
   xmlns:svg="http://www.w3.org/2000/svg">
  <defs
     id="defs1097" />
  <g
     id="New_Layer_1652808974.7592406"
     style="display:inline"
     transform="translate(-31.490666,-743.209)">
    <path
       id="Vector-19"
       d="M 20,4 H 16 L 12,0 8,4 H 4 C 2.9,4 2,4.9 2,6 v 14 c 0,1.1 0.9,2 2,2 h 16 c 1.1,0 2,-0.9 2,-2 V 6 C 22,4.9 21.1,4 20,4 Z m 0,16 H 4 V 6 H 8.52 L 12.04,2.5 15.52,6 H 20 Z M 18,8 H 6 v 10 h 12"
       fill="#323232"
       transform="matrix(0.264583,0,0,0.264583,30.9615,743.209)" />
  </g>
</svg>
