<?xml version="1.0" encoding="UTF-8" standalone="no"?>
<!-- Created with Inkscape (http://www.inkscape.org/) -->

<svg
   id="svg1100"
   version="1.1"
   viewBox="0 0 5.2652149 5.2652044"
   height="5.2652044mm"
   width="5.2652149mm"
   xmlns="http://www.w3.org/2000/svg"
   xmlns:svg="http://www.w3.org/2000/svg">
  <defs
     id="defs1097" />
  <g
     id="New_Layer_1652808974.7609568"
     style="display:inline"
     transform="translate(-132.31241,-743.48639)">
    <path
       id="Vector-566"
       d="m 11,4.06999 v -2.02 c -2.00995,0.2 -3.83995,1 -5.31995,2.21 l 1.42,1.43 c 1.11,-0.86 2.44,-1.44 3.89995,-1.62 z m 7.32,0.19 c -1.48,-1.21 -3.31,-2.01 -5.32,-2.21 v 2.02 c 1.46,0.18 2.79,0.76 3.9,1.62 z M 19.93,11 h 2.0201 C 21.7501,8.98999 20.95,7.15999 19.74,5.67999 l -1.43,1.42 c 0.86,1.11 1.44,2.44 1.62,3.90001 z M 5.69005,7.09999 l -1.43,-1.42 c -1.21,1.48 -2.01,3.31 -2.21,5.32001 h 2.02 c 0.18,-1.46001 0.76,-2.79001 1.62,-3.90001 z M 4.07005,13 h -2.02 c 0.2,2.01 1,3.84 2.21,5.32 l 1.43,-1.43 c -0.86,-1.1 -1.44,-2.43 -1.62,-3.89 z M 15,12 C 15,10.34 13.66,8.99999 12,8.99999 10.34,8.99999 9.00005,10.34 9.00005,12 c 0,1.66 1.33995,3 2.99995,3 1.66,0 3,-1.34 3,-3 z m 3.31,4.9 1.43,1.43 c 1.21,-1.48 2.0101,-3.32 2.2101,-5.32 H 19.93 c -0.18,1.45 -0.76,2.78 -1.62,3.89 z M 13,19.93 v 2.02 c 2.01,-0.2 3.84,-1 5.32,-2.21 l -1.43,-1.43 c -1.1,0.86 -2.43,1.44 -3.89,1.62 z M 5.68005,19.74 c 1.48,1.21 3.32,2.01 5.31995,2.21 V 19.93 C 9.54005,19.75 8.21005,19.17 7.10005,18.31 Z"
       fill="#323232"
       transform="matrix(0.264583,0,0,0.264583,131.77,742.944)" />
  </g>
</svg>
