<?xml version="1.0" encoding="UTF-8" standalone="no"?>
<!-- Created with Inkscape (http://www.inkscape.org/) -->

<svg
   id="svg1100"
   version="1.1"
   viewBox="0 0 5.1329236 5.9213681"
   height="5.9213681mm"
   width="5.1329236mm"
   xmlns="http://www.w3.org/2000/svg"
   xmlns:svg="http://www.w3.org/2000/svg">
  <defs
     id="defs1097" />
  <g
     id="New_Layer_1652808974.7615724"
     style="display:inline"
     transform="translate(-151.95855,-743.15831)">
    <path
       id="Vector-40"
       d="M 18.7001,12.4 C 18.4201,12.24 18.13,12.11 17.84,12 c 0.29,-0.11 0.5801,-0.24 0.8601,-0.4 1.92,-1.11 2.99,-3.12 3,-5.19 C 19.9101,5.38 17.63,5.3 15.7,6.41 15.42,6.57 15.16,6.76 14.92,6.95 14.97,6.64 15,6.32 15,6 15,3.78 13.79,1.85 12,0.809998 10.21,1.85 9.00005,3.78 9.00005,6 c 0,0.32 0.03,0.64 0.08,0.95 -0.24,-0.2 -0.5,-0.39 -0.78,-0.55 -1.92,-1.11 -4.2,-1.03 -6,0 0,2.07 1.07,4.08 3,5.19 0.28,0.16 0.57,0.29 0.86,0.4 -0.29,0.11 -0.58,0.24 -0.86,0.4 -1.92,1.11 -2.99,3.12 -3,5.19 1.79,1.03 4.07,1.11 6,0 0.28,-0.16 0.54,-0.35 0.78,-0.54 -0.05,0.32 -0.08,0.64 -0.08,0.96 0,2.22 1.20995,4.15 2.99995,5.19 1.79,-1.04 3,-2.97 3,-5.19 0,-0.32 -0.03,-0.64 -0.08,-0.95 0.24,0.2 0.5,0.38 0.78,0.54 1.92,1.11 4.2001,1.03 6.0001,0 -0.01,-2.07 -1.08,-4.08 -3,-5.19 z M 12,16 c -2.20995,0 -3.99995,-1.79 -3.99995,-4 0,-2.21 1.79,-4 3.99995,-4 2.21,0 4,1.79 4,4 0,2.21 -1.79,4 -4,4 z"
       fill="#323232"
       transform="matrix(0.264583,0,0,0.264583,151.35,742.944)" />
  </g>
</svg>
