<?xml version="1.0" encoding="UTF-8" standalone="no"?>
<!-- Created with Inkscape (http://www.inkscape.org/) -->

<svg
   id="svg1100"
   version="1.1"
   viewBox="0 0 5.8208261 5.820826"
   height="5.8208261mm"
   width="5.8208261mm"
   xmlns="http://www.w3.org/2000/svg"
   xmlns:svg="http://www.w3.org/2000/svg">
  <defs
     id="defs1097" />
  <g
     id="New_Layer_1652808974.762105"
     style="display:inline"
     transform="translate(-62.155883,-714.83658)">
    <path
       id="Vector-046"
       d="M 7,11 H 1 v 2 H 7 Z M 9.17,7.76 7.05,5.64 5.64,7.05 7.76,9.17 Z M 13,1 h -2 v 6 h 2 z m 5.36,6.05 -1.41,-1.41 -2.12,2.12 1.41,1.41 z M 17,11 v 2 h 6 V 11 Z M 12,9 c -1.66,0 -3,1.34 -3,3 0,1.66 1.34,3 3,3 1.66,0 3,-1.34 3,-3 0,-1.66 -1.34,-3 -3,-3 z m 2.83,7.24 2.12,2.12 1.41,-1.41 -2.12,-2.12 z M 5.64,16.95 7.05,18.36 9.17,16.24 7.76,14.83 Z M 11,23 h 2 v -6 h -2 z"
       fill="#323232"
       transform="matrix(0.264583,0,0,0.264583,61.8913,714.572)" />
  </g>
</svg>
