<?xml version="1.0" encoding="UTF-8" standalone="no"?>
<!-- Created with Inkscape (http://www.inkscape.org/) -->

<svg
   id="svg1100"
   version="1.1"
   viewBox="0 0 4.7624941 5.820826"
   height="5.8208261mm"
   width="4.7624941mm"
   xmlns="http://www.w3.org/2000/svg"
   xmlns:svg="http://www.w3.org/2000/svg">
  <defs
     id="defs1097" />
  <g
     id="New_Layer_1652808974.7642395"
     style="display:inline"
     transform="translate(-132.56375,-771.03658)">
    <path
       id="Vector-82"
       d="m 15,21 h 2 V 19 H 15 Z M 19,9 h 2 V 7 H 19 Z M 3,5 v 14 c 0,1.1 0.9,2 2,2 H 9 V 19 H 5 V 5 H 9 V 3 H 5 C 3.9,3 3,3.9 3,5 Z M 19,3 v 2 h 2 C 21,3.9 20.1,3 19,3 Z m -8,20 h 2 V 1 h -2 z m 8,-6 h 2 V 15 H 19 Z M 15,5 h 2 V 3 h -2 z m 4,8 h 2 v -2 h -2 z m 0,8 c 1.1,0 2,-0.9 2,-2 h -2 z"
       fill="#323232"
       transform="matrix(0.264583,0,0,0.264583,131.77,770.772)" />
  </g>
</svg>
