<?xml version="1.0" encoding="UTF-8" standalone="no"?>
<!-- Created with Inkscape (http://www.inkscape.org/) -->

<svg
   id="svg1100"
   version="1.1"
   viewBox="0 0 4.7624941 5.2916598"
   height="5.2916598mm"
   width="4.7624941mm"
   xmlns="http://www.w3.org/2000/svg"
   xmlns:svg="http://www.w3.org/2000/svg">
  <defs
     id="defs1097" />
  <g
     id="New_Layer_1652806959.0259137"
     style="display:inline"
     transform="translate(-176.21275,-67.747883)">
    <path
       fill="#323232"
       d="M 19,3 H 14.82 C 14.4,1.84 13.3,1 12,1 10.7,1 9.6,1.84 9.18,3 H 5 C 3.9,3 3,3.9 3,5 v 14 c 0,1.1 0.9,2 2,2 h 14 c 1.1,0 2,-0.9 2,-2 V 5 C 21,3.9 20.1,3 19,3 Z m -7,0 c 0.55,0 1,0.45 1,1 0,0.55 -0.45,1 -1,1 -0.55,0 -1,-0.45 -1,-1 0,-0.55 0.45,-1 1,-1 z m 2,14 H 7 v -2 h 7 z m 3,-4 H 7 V 11 H 17 Z M 17,9 H 7 V 7 h 10 z"
       id="path1524"
       transform="matrix(0.264583,0,0,0.264583,175.419,67.4833)" />
  </g>
</svg>
