<?xml version="1.0" encoding="UTF-8" standalone="no"?>
<!-- Created with Inkscape (http://www.inkscape.org/) -->

<svg
   id="svg1100"
   version="1.1"
   viewBox="0 0 5.2916598 4.7624941"
   height="4.7624941mm"
   width="5.2916598mm"
   xmlns="http://www.w3.org/2000/svg"
   xmlns:svg="http://www.w3.org/2000/svg">
  <defs
     id="defs1097" />
  <g
     id="New_Layer_1652808974.7653098"
     style="display:inline"
     transform="translate(-10.853166,-734.16275)">
    <path
       id="Vector-761"
       d="M 20,5 H 16.83 L 15,3 H 9 L 7.17,5 H 4 C 2.9,5 2,5.9 2,7 v 12 c 0,1.1 0.9,2 2,2 h 16 c 1.1,0 2,-0.9 2,-2 V 7 C 22,5.9 21.1,5 20,5 Z M 12,18 C 9.24,18 7,15.76 7,13 H 5 L 7.5,10.5 10,13 H 8 c 0,2.21 1.79,4 4,4 0.58,0 1.13,-0.13 1.62,-0.35 l 0.74,0.74 C 13.65,17.76 12.86,18 12,18 Z M 16.5,15.5 14,13 h 2 C 16,10.79 14.21,9 12,9 11.42,9 10.87,9.13 10.38,9.35 L 9.64,8.62 C 10.35,8.24 11.14,8 12,8 c 2.76,0 5,2.24 5,5 h 2 z"
       fill="#323232"
       transform="matrix(0.264583,0,0,0.264583,10.324,733.369)" />
  </g>
</svg>
