<?xml version="1.0" encoding="UTF-8" standalone="no"?>
<!-- Created with Inkscape (http://www.inkscape.org/) -->

<svg
   id="svg1100"
   version="1.1"
   viewBox="0 0 4.7624941 4.7624941"
   height="4.7624941mm"
   width="4.7624941mm"
   xmlns="http://www.w3.org/2000/svg"
   xmlns:svg="http://www.w3.org/2000/svg">
  <defs
     id="defs1097" />
  <g
     id="New_Layer_1652808974.7658453"
     style="display:inline"
     transform="translate(-171.72275,-753.31175)">
    <path
       id="Vector-32"
       d="m 11,9 h 2 v 2 h -2 z m -2,2 h 2 v 2 H 9 Z m 4,0 h 2 v 2 h -2 z m 2,-2 h 2 v 2 H 15 Z M 7,9 h 2 v 2 H 7 Z M 19,3 H 5 C 3.9,3 3,3.9 3,5 v 14 c 0,1.1 0.9,2 2,2 h 14 c 1.1,0 2,-0.9 2,-2 V 5 C 21,3.9 20.1,3 19,3 Z M 9,18 H 7 v -2 h 2 z m 4,0 h -2 v -2 h 2 z m 4,0 h -2 v -2 h 2 z m 2,-7 h -2 v 2 h 2 v 2 h -2 v -2 h -2 v 2 h -2 v -2 h -2 v 2 H 9 V 13 H 7 v 2 H 5 V 13 H 7 V 11 H 5 V 5 h 14 z"
       fill="#323232"
       transform="matrix(0.264583,0,0,0.264583,170.929,752.518)" />
  </g>
</svg>
