<?xml version="1.0" encoding="UTF-8" standalone="no"?>
<!-- Created with Inkscape (http://www.inkscape.org/) -->

<svg
   id="svg1100"
   version="1.1"
   viewBox="0 0 4.2333279 4.2333278"
   height="4.2333279mm"
   width="4.2333279mm"
   xmlns="http://www.w3.org/2000/svg"
   xmlns:svg="http://www.w3.org/2000/svg">
  <defs
     id="defs1097" />
  <g
     id="New_Layer_1652808974.766371"
     style="display:inline"
     transform="translate(-83.128132,-790.61633)">
    <path
       id="Vector-159"
       d="m 10,12 c -1.1,0 -2,0.9 -2,2 0,1.1 0.9,2 2,2 1.1,0 2,-0.9 2,-2 0,-1.1 -0.9,-2 -2,-2 z M 6,8 C 4.9,8 4,8.9 4,10 4,11.1 4.9,12 6,12 7.1,12 8,11.1 8,10 8,8.9 7.1,8 6,8 Z m 0,8 c -1.1,0 -2,0.9 -2,2 0,1.1 0.9,2 2,2 1.1,0 2,-0.9 2,-2 C 8,16.9 7.1,16 6,16 Z M 18,8 c 1.1,0 2,-0.9 2,-2 0,-1.1 -0.9,-2 -2,-2 -1.1,0 -2,0.9 -2,2 0,1.1 0.9,2 2,2 z m -4,8 c -1.1,0 -2,0.9 -2,2 0,1.1 0.9,2 2,2 1.1,0 2,-0.9 2,-2 0,-1.1 -0.9,-2 -2,-2 z m 4,-4 c -1.1,0 -2,0.9 -2,2 0,1.1 0.9,2 2,2 1.1,0 2,-0.9 2,-2 0,-1.1 -0.9,-2 -2,-2 z M 14,8 c -1.1,0 -2,0.9 -2,2 0,1.1 0.9,2 2,2 1.1,0 2,-0.9 2,-2 C 16,8.9 15.1,8 14,8 Z M 10,4 C 8.9,4 8,4.9 8,6 8,7.1 8.9,8 10,8 11.1,8 12,7.1 12,6 12,4.9 11.1,4 10,4 Z"
       fill="#323232"
       transform="matrix(0.264583,0,0,0.264583,82.0698,789.558)" />
  </g>
</svg>
