<?xml version="1.0" encoding="UTF-8" standalone="no"?>
<!-- Created with Inkscape (http://www.inkscape.org/) -->

<svg
   id="svg1100"
   version="1.1"
   viewBox="0 0 6.0139718 6.013966"
   height="6.0139661mm"
   width="6.0139718mm"
   xmlns="http://www.w3.org/2000/svg"
   xmlns:svg="http://www.w3.org/2000/svg">
  <defs
     id="defs1097" />
  <g
     id="New_Layer_1652808974.7669165"
     style="display:inline"
     transform="translate(-82.2378,-694.89603)">
    <path
       id="Vector-91"
       d="m 8,4.00002 v 1.45 l 2,2 v -3.45 h 4 v 4 H 10.55 L 12.55,10 H 14 v 1.45 l 2,2 V 10 h 4 v 4 h -3.45 l 2,2 H 20 v 1.45 l 2,2 V 4.00002 c 0,-1.1 -0.9,-2 -2,-2 H 4.55 l 2,2 z m 8,0 h 4 v 4 h -4 z m -14.73,-2.73 -1.27,1.28 2,2 V 20 c 0,1.1 0.9,2 2,2 h 15.46 l 2,2 1.27,-1.27 z M 10,12.55 11.45,14 H 10 Z m -6,-5.99998 1.45,1.45 H 4 Z M 8,20 H 4 V 16 H 8 Z M 8,14 H 4 V 10 H 7.45 L 8,10.55 Z m 6,6 h -4 v -4 h 3.45 L 14,16.54 Z m 2,0 V 18.54 L 17.46,20 Z"
       fill="#323232"
       transform="matrix(0.264583,0,0,0.264583,82.2378,694.56)" />
  </g>
</svg>
