<?xml version="1.0" encoding="UTF-8" standalone="no"?>
<!-- Created with Inkscape (http://www.inkscape.org/) -->

<svg
   id="svg1100"
   version="1.1"
   viewBox="0 0 5.2916598 5.2916598"
   height="5.2916598mm"
   width="5.2916598mm"
   xmlns="http://www.w3.org/2000/svg"
   xmlns:svg="http://www.w3.org/2000/svg">
  <defs
     id="defs1097" />
  <g
     id="New_Layer_1652808974.7674687"
     style="display:inline"
     transform="translate(-92.567166,-733.89817)">
    <path
       id="Vector-491"
       d="M 20,2 H 4 C 2.9,2 2,2.9 2,4 v 16 c 0,1.1 0.9,2 2,2 h 16 c 1.1,0 2,-0.9 2,-2 V 4 C 22,2.9 21.1,2 20,2 Z M 8,20 H 4 V 16 H 8 Z M 8,14 H 4 V 10 H 8 Z M 8,8 H 4 V 4 h 4 z m 6,12 h -4 v -4 h 4 z m 0,-6 h -4 v -4 h 4 z M 14,8 H 10 V 4 h 4 z m 6,12 h -4 v -4 h 4 z m 0,-6 h -4 v -4 h 4 z M 20,8 H 16 V 4 h 4 z"
       fill="#323232"
       transform="matrix(0.264583,0,0,0.264583,92.038,733.369)" />
  </g>
</svg>
