<?xml version="1.0" encoding="UTF-8" standalone="no"?>
<!-- Created with Inkscape (http://www.inkscape.org/) -->

<svg
   id="svg1100"
   version="1.1"
   viewBox="0 0 6.3499918 5.2916598"
   height="5.2916598mm"
   width="6.3499918mm"
   xmlns="http://www.w3.org/2000/svg"
   xmlns:svg="http://www.w3.org/2000/svg">
  <defs
     id="defs1097" />
  <g
     id="New_Layer_1652808974.767997"
     style="display:inline"
     transform="translate(-30.9615,-695.25717)">
    <path
       id="Vector-07"
       d="m 12,2 c 3.31,0 6,2.69 6,6 0,3.31 -2.69,6 -6,6 C 8.69,14 6,11.31 6,8 6,4.69 8.69,2 12,2 Z m 0,2 C 9.79,4 8,5.79 8,8 c 0,2.21 1.79,4 4,4 2.21,0 4,-1.79 4,-4 0,-2.21 -1.79,-4 -4,-4 z m 1,7 H 11 V 9 H 9 V 7 h 2 V 5 h 2 v 2 h 2 v 2 h -2 z m 11,9 h -2 v 2 h -1.5 v -2 h -2 v -1.5 h 2 v -2 H 22 v 2 h 2 z m -6,-1.5 c 0,0.6 -0.4,1.1 -0.9,1.4 L 18,22 h -1.5 l -0.9,-2 h -1.1 v 2 H 13 v -6 h 3.5 c 0.8,0 1.5,0.7 1.5,1.5 z m -1.5,0 v -1 h -2 v 1 z M 3.5,18 V 16 H 5 v 6 H 3.5 v -2.5 h -2 V 22 H 0 v -6 h 1.5 v 2 z M 10,16 c 0.8,0 1.5,0.7 1.5,1.5 v 3 C 11.5,21.3 10.8,22 10,22 H 6.5 v -6 z m 0,4.5 v -3 H 8 v 3 z"
       fill="#323232"
       transform="matrix(0.264583,0,0,0.264583,30.9615,694.728)" />
  </g>
</svg>
