<?xml version="1.0" encoding="UTF-8" standalone="no"?>
<!-- Created with Inkscape (http://www.inkscape.org/) -->

<svg
   id="svg1100"
   version="1.1"
   viewBox="0 0 5.3445768 5.3181181"
   height="5.3181181mm"
   width="5.3445768mm"
   xmlns="http://www.w3.org/2000/svg"
   xmlns:svg="http://www.w3.org/2000/svg">
  <defs
     id="defs1097" />
  <g
     id="New_Layer_1652808974.7685342"
     style="display:inline"
     transform="translate(-161.64139,-715.08746)">
    <path
       id="Vector-58"
       d="m 17.4999,15 v -2 h 1.1 l 0.9,2 h 1.5 l -0.9,-2.1 c 0.5,-0.2 0.9,-0.8 0.9,-1.4 v -1 c 0,-0.8 -0.7,-1.5 -1.5,-1.5 h -3.5 v 4.9 l 1.1,1.1 z m 0,-4.5 h 2 v 1 h -2 z m -4.5,0 v 0.4 l 1.5,1.5 v -1.9 c 0,-0.8 -0.7,-1.5 -1.5,-1.5 h -1.9 l 1.5,1.5 z m -3.5,-1 -7,-7 -1.1,1 5.5,5.5 h -0.4 v 2 h -2 V 9 h -1.5 v 6 h 1.5 v -2.5 h 2 V 15 h 1.5 v -4.9 l 1.5,1.5 V 15 h 3.4 l 7.6,7.6 1.1,-1.1 z"
       fill="#323232"
       transform="matrix(0.264583,0,0,0.264583,161.271,714.426)" />
  </g>
</svg>
