<?xml version="1.0" encoding="UTF-8" standalone="no"?>
<!-- Created with Inkscape (http://www.inkscape.org/) -->

<svg
   id="svg1100"
   version="1.1"
   viewBox="0 0 4.7624941 1.5874979"
   height="1.5874979mm"
   width="4.7624941mm"
   xmlns="http://www.w3.org/2000/svg"
   xmlns:svg="http://www.w3.org/2000/svg">
  <defs
     id="defs1097" />
  <g
     id="New_Layer_1652808974.7690759"
     style="display:inline"
     transform="translate(-42.074049,-801.72825)">
    <path
       id="Vector-70"
       d="m 21,11.5 v -1 C 21,9.7 20.3,9 19.5,9 H 16 v 6 h 1.5 v -2 h 1.1 l 0.9,2 H 21 L 20.1,12.9 C 20.6,12.6 21,12.1 21,11.5 Z m -1.5,0 h -2 v -1 h 2 z M 6.5,11 h -2 V 9 H 3 v 6 h 1.5 v -2.5 h 2 V 15 H 8 V 9 H 6.5 Z M 13,9 H 9.5 v 6 H 13 c 0.8,0 1.5,-0.7 1.5,-1.5 v -3 C 14.5,9.7 13.8,9 13,9 Z m 0,4.5 h -2 v -3 h 2 z"
       fill="#323232"
       transform="matrix(0.264583,0,0,0.264583,41.2803,799.347)" />
  </g>
</svg>
