<?xml version="1.0" encoding="UTF-8" standalone="no"?>
<!-- Created with Inkscape (http://www.inkscape.org/) -->

<svg
   id="svg1100"
   version="1.1"
   viewBox="0 0 5.8208261 3.1749959"
   height="3.1749959mm"
   width="5.8208261mm"
   xmlns="http://www.w3.org/2000/svg"
   xmlns:svg="http://www.w3.org/2000/svg">
  <defs
     id="defs1097" />
  <g
     id="New_Layer_1652808974.7696166"
     style="display:inline"
     transform="translate(-72.315883,-716.1595)">
    <path
       id="Vector-480"
       d="m 17,6 c -3.31,0 -6,2.69 -6,6 0,3.31 2.69,6 6,6 3.31,0 6,-2.69 6,-6 C 23,8.69 20.31,6 17,6 Z M 5,8 C 2.79,8 1,9.79 1,12 1,14.21 2.79,16 5,16 7.21,16 9,14.21 9,12 9,9.79 7.21,8 5,8 Z m 0,6 c -1.1,0 -2,-0.9 -2,-2 0,-1.1 0.9,-2 2,-2 1.1,0 2,0.9 2,2 0,1.1 -0.9,2 -2,2 z"
       fill="#323232"
       transform="matrix(0.264583,0,0,0.264583,72.0513,714.572)" />
  </g>
</svg>
