<?xml version="1.0" encoding="UTF-8" standalone="no"?>
<!-- Created with Inkscape (http://www.inkscape.org/) -->

<svg
   id="svg1100"
   version="1.1"
   viewBox="0 0 5.3062067 5.3035664"
   height="5.3035665mm"
   width="5.3062067mm"
   xmlns="http://www.w3.org/2000/svg"
   xmlns:svg="http://www.w3.org/2000/svg">
  <defs
     id="defs1097" />
  <g
     id="New_Layer_1652808974.7706943"
     style="display:inline"
     transform="translate(-0.52453771,-724.6255)">
    <path
       id="Vector-961"
       d="m 17.73,12.02 3.98,-3.98 c 0.39,-0.39 0.39,-1.02 0,-1.41 L 17.37,2.29 C 16.98,1.9 16.35,1.9 15.96,2.29 L 11.98,6.27 8.00002,2.29 C 7.80002,2.1 7.55002,2 7.29002,2 c -0.25,0 -0.51,0.1 -0.7,0.29 l -4.34,4.34 c -0.39,0.39 -0.39,1.02 0,1.41 l 3.98,3.98 -3.98,3.98 c -0.39,0.39 -0.39,1.02 0,1.41 l 4.34,4.34 c 0.39,0.39 1.02,0.39 1.41,0 l 3.97998,-3.98 3.98,3.98 c 0.2,0.2 0.45,0.29 0.71,0.29 0.26,0 0.51,-0.1 0.71,-0.29 l 4.34,-4.34 c 0.39,-0.39 0.39,-1.02 0,-1.41 z M 12,9 c 0.55,0 1,0.45 1,1 0,0.55 -0.45,1 -1,1 -0.55,0 -1,-0.45 -1,-1 0,-0.55 0.45,-1 1,-1 z m -4.70998,1.96 -3.63,-3.62 3.63,-3.63 L 10.91,7.33 Z M 10,13 c -0.54998,0 -0.99998,-0.45 -0.99998,-1 0,-0.55 0.45,-1 0.99998,-1 0.55,0 1,0.45 1,1 0,0.55 -0.45,1 -1,1 z m 2,2 c -0.55,0 -1,-0.45 -1,-1 0,-0.55 0.45,-1 1,-1 0.55,0 1,0.45 1,1 0,0.55 -0.45,1 -1,1 z m 2,-4 c 0.55,0 1,0.45 1,1 0,0.55 -0.45,1 -1,1 -0.55,0 -1,-0.45 -1,-1 0,-0.55 0.45,-1 1,-1 z m 2.66,9.34 -3.63,-3.62 3.63,-3.63 3.62,3.62 z"
       fill="#323232"
       transform="matrix(0.264583,0,0,0.264583,0.0066112,724.097)" />
  </g>
</svg>
