<?xml version="1.0" encoding="UTF-8" standalone="no"?>
<!-- Created with Inkscape (http://www.inkscape.org/) -->

<svg
   id="svg1100"
   version="1.1"
   viewBox="0 0 5.4027848 5.2916598"
   height="5.2916598mm"
   width="5.4027848mm"
   xmlns="http://www.w3.org/2000/svg"
   xmlns:svg="http://www.w3.org/2000/svg">
  <defs
     id="defs1097" />
  <g
     id="New_Layer_1652808974.7728288"
     style="display:inline"
     transform="translate(-151.82317,-715.10117)">
    <path
       id="Vector-29"
       d="m 18,13 v 7 H 4 V 6 H 9.02 C 9.07,5.29 9.24,4.62 9.5,4 H 4 C 2.9,4 2,4.9 2,6 v 14 c 0,1.1 0.9,2 2,2 h 14 c 1.1,0 2,-0.9 2,-2 v -5 z m -1.5,5 h -11 l 2.75,-3.53 1.96,2.36 2.75,-3.54 z M 19.3,8.89 C 19.74,8.19 20,7.38 20,6.5 20,4.01 17.99,2 15.5,2 13.01,2 11,4.01 11,6.5 c 0,2.49 2.01,4.5 4.49,4.5 0.88,0 1.7,-0.26 2.39,-0.7 L 21,13.42 22.42,12 Z M 15.5,9 C 14.12,9 13,7.88 13,6.5 13,5.12 14.12,4 15.5,4 16.88,4 18,5.12 18,6.5 18,7.88 16.88,9 15.5,9 Z"
       fill="#323232"
       transform="matrix(0.264583,0,0,0.264583,151.294,714.572)" />
  </g>
</svg>
