<?xml version="1.0" encoding="UTF-8" standalone="no"?>
<!-- Created with Inkscape (http://www.inkscape.org/) -->

<svg
   id="svg1100"
   version="1.1"
   viewBox="0 0 4.7624941 4.7624941"
   height="4.7624941mm"
   width="4.7624941mm"
   xmlns="http://www.w3.org/2000/svg"
   xmlns:svg="http://www.w3.org/2000/svg">
  <defs
     id="defs1097" />
  <g
     id="New_Layer_1652808974.7744696"
     style="display:inline"
     transform="translate(-82.863549,-780.82675)">
    <path
       id="Vector-804"
       d="M 6,3 H 3 V 6 C 4.66,6 6,4.66 6,3 Z m 8,0 h -2 c 0,4.97 -4.03,9 -9,9 v 2 C 9.08,14 14,9.07 14,3 Z M 10,3 H 8 C 8,5.76 5.76,8 3,8 v 2 c 3.87,0 7,-3.13 7,-7 z m 0,18 h 2 c 0,-4.97 4.03,-9 9,-9 v -2 c -6.07,0 -11,4.93 -11,11 z m 8,0 h 3 v -3 c -1.66,0 -3,1.34 -3,3 z m -4,0 h 2 c 0,-2.76 2.24,-5 5,-5 v -2 c -3.87,0 -7,3.13 -7,7 z"
       fill="#323232"
       transform="matrix(0.264583,0,0,0.264583,82.0698,780.033)" />
  </g>
</svg>
