<?xml version="1.0" encoding="UTF-8" standalone="no"?>
<!-- Created with Inkscape (http://www.inkscape.org/) -->

<svg
   id="svg1100"
   version="1.1"
   viewBox="0 0 4.7624941 4.7624941"
   height="4.7624941mm"
   width="4.7624941mm"
   xmlns="http://www.w3.org/2000/svg"
   xmlns:svg="http://www.w3.org/2000/svg">
  <defs
     id="defs1097" />
  <g
     id="New_Layer_1652808974.7749965"
     style="display:inline"
     transform="translate(-181.51175,-762.30575)">
    <path
       id="Vector-091"
       d="M 10,3 H 8 C 8,3.37 7.96,3.72 7.88,4.06 L 9.47,5.65 C 9.81,4.84 10,3.94 10,3 Z M 3,4.27 5.84,7.11 C 5.03,7.67 4.06,8 3,8 v 2 C 4.61,10 6.09,9.45 7.27,8.54 L 8.7,9.97 C 7.14,11.24 5.16,12 3,12 v 2 c 2.71,0 5.19,-0.99 7.11,-2.62 l 2.5,2.5 C 10.99,15.81 10,18.29 10,21 h 2 c 0,-2.16 0.76,-4.14 2.03,-5.69 l 1.43,1.43 C 14.55,17.91 14,19.39 14,21 h 2 c 0,-1.06 0.33,-2.03 0.89,-2.84 L 19.73,21 21,19.73 4.27,3 Z M 14,3 h -2 c 0,1.5 -0.37,2.91 -1.02,4.16 l 1.46,1.46 C 13.42,6.98 14,5.06 14,3 Z m 5.94,13.12 C 20.28,16.04 20.63,16 21,16 v -2 c -0.94,0 -1.84,0.19 -2.66,0.52 z m -4.56,-4.56 1.46,1.46 C 18.09,12.37 19.5,12 21,12 v -2 c -2.06,0 -3.98,0.58 -5.62,1.56 z"
       fill="#323232"
       transform="matrix(0.264583,0,0,0.264583,180.718,761.512)" />
  </g>
</svg>
