<?xml version="1.0" encoding="UTF-8" standalone="no"?>
<!-- Created with Inkscape (http://www.inkscape.org/) -->

<svg
   id="svg1100"
   version="1.1"
   viewBox="0 0 5.2916598 5.2916598"
   height="5.2916598mm"
   width="5.2916598mm"
   xmlns="http://www.w3.org/2000/svg"
   xmlns:svg="http://www.w3.org/2000/svg">
  <defs
     id="defs1097" />
  <g
     id="New_Layer_1652808974.7760892"
     style="display:inline"
     transform="translate(-52.128166,-733.89817)">
    <g
       id="linked_camera"
       transform="matrix(0.264583,0,0,0.264583,51.599,733.369)">
      <path
         id="Vector-544"
         d="m 12,17.2 c 1.7674,0 3.2,-1.4327 3.2,-3.2 0,-1.7673 -1.4326,-3.2 -3.2,-3.2 -1.7673,0 -3.19995,1.4327 -3.19995,3.2 0,1.7673 1.43265,3.2 3.19995,3.2 z"
         fill="#323232" />
      <path
         id="Vector_2-99"
         d="m 16,3.33 c 2.58,0 4.67,2.09 4.67,4.67 H 22 C 22,4.69 19.31,2 16,2 Z M 16,6 c 1.11,0 2,0.89 2,2 h 1.33 C 19.33,6.16 17.84,4.67 16,4.67 V 6"
         fill="#323232" />
      <path
         id="Vector_3-3"
         d="M 17,9 C 17,7.89 16.11,7 15,7 V 4 H 9 L 7.17,6 H 4 C 2.9,6 2,6.9 2,8 v 12 c 0,1.1 0.9,2 2,2 h 16 c 1.1,0 2,-0.9 2,-2 V 9 Z M 12,19 C 9.24,19 7,16.76 7,14 7,11.24 9.24,9 12,9 c 2.76,0 5,2.24 5,5 0,2.76 -2.24,5 -5,5 z"
         fill="#323232" />
    </g>
  </g>
</svg>
