<?xml version="1.0" encoding="UTF-8" standalone="no"?>
<!-- Created with Inkscape (http://www.inkscape.org/) -->

<svg
   id="svg1100"
   version="1.1"
   viewBox="0 0 5.8208261 2.910413"
   height="2.910413mm"
   width="5.8208261mm"
   xmlns="http://www.w3.org/2000/svg"
   xmlns:svg="http://www.w3.org/2000/svg">
  <defs
     id="defs1097" />
  <g
     id="New_Layer_1652808974.7766745"
     style="display:inline"
     transform="translate(-132.03458,-696.4475)">
    <path
       id="Vector-60"
       d="m 12,10 c -3.86,0 -7,3.14 -7,7 h 2 c 0,-2.76 2.24,-5 5,-5 2.76,0 5,2.24 5,5 h 2 c 0,-3.86 -3.14,-7 -7,-7 z M 12,6 C 5.93,6 1,10.93 1,17 h 2 c 0,-4.96 4.04,-9 9,-9 4.96,0 9,4.04 9,9 h 2 C 23,10.93 18.07,6 12,6 Z"
       fill="#323232"
       transform="matrix(0.264583,0,0,0.264583,131.77,694.86)" />
  </g>
</svg>
