<?xml version="1.0" encoding="UTF-8" standalone="no"?>
<!-- Created with Inkscape (http://www.inkscape.org/) -->

<svg
   id="svg1100"
   version="1.1"
   viewBox="0 0 4.7624912 4.7624941"
   height="4.7624941mm"
   width="4.7624912mm"
   xmlns="http://www.w3.org/2000/svg"
   xmlns:svg="http://www.w3.org/2000/svg">
  <defs
     id="defs1097" />
  <g
     id="New_Layer_1652808974.7773135"
     style="display:inline"
     transform="translate(-181.5124,-780.82675)">
    <path
       id="Vector-502"
       d="M 19.01,3 H 5.01001 c -1.1,0 -2,0.9 -2,2 v 14 c 0,1.1 0.9,2 2,2 H 19.01 c 1.1,0 2,-0.9 2,-2 V 5 c 0,-1.1 -0.9,-2 -2,-2 z m -4,7.5 c 0,0.83 -0.67,1.5 -1.5,1.5 0.83,0 1.5,0.67 1.5,1.5 V 15 c 0,1.11 -0.9,2 -2,2 H 9.01001 V 15 H 13.01 v -2 h -2 v -2 h 2 V 9 H 9.01001 V 7 H 13.01 c 1.1,0 2,0.89 2,2 z"
       fill="#323232"
       transform="matrix(0.264583,0,0,0.264583,180.716,780.033)" />
  </g>
</svg>
