<?xml version="1.0" encoding="UTF-8" standalone="no"?>
<!-- Created with Inkscape (http://www.inkscape.org/) -->

<svg
   id="svg1100"
   version="1.1"
   viewBox="0 0 5.2916598 5.2916598"
   height="5.2916598mm"
   width="5.2916598mm"
   xmlns="http://www.w3.org/2000/svg"
   xmlns:svg="http://www.w3.org/2000/svg">
  <defs
     id="defs1097" />
  <g
     id="New_Layer_1652808974.7805367"
     style="display:inline"
     transform="translate(-72.580466,-743.47317)">
    <path
       id="Vector-942"
       d="m 13,7 h -2 v 4 H 7 v 2 h 4 v 4 h 2 v -4 h 4 V 11 H 13 Z M 12,2 C 6.49,2 2,6.49 2,12 2,17.51 6.49,22 12,22 h 8 c 1.1,0 2,-0.9 2,-2 V 12 C 22,6.49 17.51,2 12,2 Z m 0,18 C 7.59,20 4,16.41 4,12 4,7.59 7.59,4 12,4 c 4.41,0 8,3.59 8,8 0,4.41 -3.59,8 -8,8 z"
       fill="#323232"
       transform="matrix(0.264583,0,0,0.264583,72.0513,742.944)" />
  </g>
</svg>
