<?xml version="1.0" encoding="UTF-8" standalone="no"?>
<!-- Created with Inkscape (http://www.inkscape.org/) -->

<svg
   id="svg1100"
   version="1.1"
   viewBox="0 0 5.2387462 5.4530558"
   height="5.4530559mm"
   width="5.2387462mm"
   xmlns="http://www.w3.org/2000/svg"
   xmlns:svg="http://www.w3.org/2000/svg">
  <defs
     id="defs1097" />
  <g
     id="New_Layer_1652808974.7810628"
     style="display:inline"
     transform="translate(-142.11574,-743.39317)">
    <path
       id="Vector-264"
       d="M 21.1899,21.19 2.80989,2.81 l -1.42,1.41 3.78,3.78 h -1.17 l 1,10 h 1 c 0,2.21 1.79,4 4,4 2.21001,0 4.00001,-1.79 4.00001,-4 v -1.17 l 5.78,5.78 z M 11.9999,18 c 0,1.1 -0.9,2 -2.00001,2 -1.1,0 -2,-0.9 -2,-2 h 1 l 0.56,-5.61 2.44001,2.44 z m 2,-12 v 5.17 l -2,-2 V 6 c 0,-2.21 1.79,-4 4,-4 2.21,0 4,1.79 4,4 v 11.17 l -2,-2 V 6 c 0,-1.1 -0.9,-2 -2,-2 -1.1,0 -2,0.9 -2,2 z M 9.99989,5 c 0,0.62 -0.2,1.18 -0.52,1.66 l -4.15,-4.15 c 0.48,-0.32 1.05,-0.51 1.67,-0.51 1.66,0 3,1.34 3,3 z"
       fill="#323232"
       transform="matrix(0.264583,0,0,0.264583,141.748,742.864)" />
  </g>
</svg>
