<?xml version="1.0" encoding="UTF-8" standalone="no"?>
<!-- Created with Inkscape (http://www.inkscape.org/) -->

<svg
   id="svg1100"
   version="1.1"
   viewBox="0 0 5.2916598 4.2333278"
   height="4.2333279mm"
   width="5.2916598mm"
   xmlns="http://www.w3.org/2000/svg"
   xmlns:svg="http://www.w3.org/2000/svg">
  <defs
     id="defs1097" />
  <g
     id="New_Layer_1652806924.7854583"
     style="display:inline"
     transform="translate(-0.5291672,-16.683232)">
    <path
       fill="#323232"
       d="m 17,4 h 3 c 1.1,0 2,0.9 2,2 V 8 H 20 V 6 H 17 Z M 4,8 V 6 H 7 V 4 H 4 C 2.9,4 2,4.9 2,6 v 2 z m 16,8 v 2 h -3 v 2 h 3 c 1.1,0 2,-0.9 2,-2 V 16 Z M 7,18 H 4 V 16 H 2 v 2 c 0,1.1 0.9,2 2,2 H 7 Z M 18,8 H 6 v 8 h 12 z"
       id="path2443"
       transform="matrix(0.264583,0,0,0.264583,1.2e-6,15.6249)" />
  </g>
</svg>
